<svg viewBox="0 0 390 236" fill="none" xmlns="http://www.w3.org/2000/svg">
            <path
              fill-rule="evenodd"
              clip-rule="evenodd"
              d="M223.305 710.085C224.965 702.351 217.375 699.736 212.591 698.016C209.164 695.79 196.466 688.082 186.641 678.566C178.601 670.779 173.128 660.8 170.85 659.849C170.85 659.849 168.505 658.487 168.261 657.475C166.834 651.546 168.024 646.02 168.261 642.425C172.835 641.222 176.5 639.723 179.241 637.625C180.04 637.892 181.239 638.233 181.596 637.063C184.073 620.513 185.143 604.159 187.158 587.597C194.787 524.516 195.648 450.821 182.523 393.206C182.385 390.35 182.634 387.771 182.888 385.317C184.663 385.125 185.736 383.405 187.185 382.377C189.434 380.587 192.098 379.211 191.988 376.083C192.522 375.678 192.46 375.45 192.196 374.934C193.912 367.547 186.259 359.762 184.095 353.672C188.029 315.142 182.676 278.732 185.663 240.193C189.434 238.612 186.899 228.734 186.641 224.66C184.551 198.412 170.924 172.461 146.386 163.886C144.983 163.601 142.874 161.995 141.714 163.073C139.47 162.184 136.486 163.938 134.749 161.918L134.767 161.905C133.305 159.875 132.65 157.295 132.169 154.855C132.249 155.543 132.384 156.224 132.549 156.891C128.319 144.953 127.253 141.761 113.634 141.199C107.499 141.117 99.4127 141.301 95.8357 147.159C94.37 149.883 94.8178 153.01 93.9081 155.877C92.2382 161.137 85.03 158.595 81.2458 161.327C50.9587 171.054 26.1157 190.908 17.95 222.775C16.2806 226.615 14.3872 230.438 12.9915 234.402C12.7755 234.99 12.1813 236.981 13.6083 237.898L14.2985 238.341C5.20774 280.886 4.60459 316.736 35.1461 345.099C37.4381 357.287 31.542 373.931 33.8085 385.764C32.5171 387.599 34.1546 389.076 35.8057 389.194C35.9648 389.283 36.6081 389.565 36.7835 389.645C34.1561 426.786 45.1874 476.84 50.0499 496.596C50.7118 508.458 46.6686 518.202 38.3513 524.666C29.1617 530.333 10.9939 555.93 14.3619 582.779C10.4258 583.552 6.51828 583.976 2.74205 585.457C-13.7809 582.537 -13.617 614.431 -14.6698 625.646C-16.4529 644.423 -17.5611 671.638 0.25373 683.657C4.94695 687.067 14.4631 691.058 19.3395 685.601C20.9375 683.679 21.3376 681.822 20.709 679.86C28.7613 668.468 26.5913 653.568 27.331 640.207C29.6661 640.066 32.1091 641.163 34.3678 640.763C36.6861 638.718 28.2287 639.275 27.3515 639.155C27.4414 637.095 27.6069 634.925 27.8205 632.848C29.1471 633.114 30.8465 633.751 32.1221 633.8C32.8771 633.984 33.4107 632.943 32.9549 632.404C31.9594 631.453 29.4211 631.6 27.9927 631.465C28.2339 629.726 28.5289 627.898 28.8566 626.217C30.6041 626.154 32.4086 627.268 34.0631 627.04C32.8109 626.204 30.4602 626.458 28.9337 625.906C29.9264 620.489 31.949 615.348 33.8295 610.282C38.4435 612.187 42.4239 612.262 46.9283 611.691C48.7707 611.975 49.6691 611.597 49.9674 609.29L49.8497 609.144C53.4199 587.753 64.9402 567.36 86.3392 544.235C90.566 539.498 95.3425 533.921 98.525 527.686C104.92 514.709 106.012 500.39 110.939 486.914C115.54 473.369 121.83 460.412 127.736 447.571C128.602 454.152 129.765 460.903 130.975 467.356C136.298 490.223 135.782 514.62 131.864 537.614C126.069 569.818 128.862 602.176 127.573 634.608C127.591 636.479 127.822 638.178 127.548 640.125C127.512 640.275 127.583 640.453 127.76 640.448L128.095 640.457C130.88 642.5 134.728 642.869 138.001 643.977C139.376 645.066 138.988 646.792 139.114 648.138C139.474 653.939 139.934 659.762 139.363 665.742C136.837 670.588 133.701 669.587 133.059 676.418C132.497 684.216 131.504 692.51 135.297 699.454L133.862 699.702C131.732 704.177 133.032 707.082 138.037 708.975C162.748 718.676 197.52 727.484 223.305 720.161C223.774 720.627 224.456 720.144 224.989 719.413C225.501 718.71 225.876 717.777 225.792 717.236C225.351 714.861 225.958 710.524 223.305 710.085Z"
              fill="#FFDBB4"
            />
            <path
              fill-rule="evenodd"
              clip-rule="evenodd"
              d="M35.9916 347.191L37.8598 349.128L38.7541 350.05L40.0601 351.391C42.8548 354.249 45.7673 357.165 49.9974 361.353L60.9116 372.137L63.0143 374.229L64.0425 375.254L59.8083 375.782L58.9184 375.896L58.2282 375.987L57.5397 376.08C53.1039 376.691 50.1681 377.286 47.2518 378.246C42.9855 379.65 39.6618 381.679 37.1798 384.597L37.0622 384.737L36.0472 385.955L35.819 384.385C35.5882 382.797 35.4956 381.151 35.5025 379.222L35.5095 378.473L35.5209 377.875L35.5339 377.384C35.5419 377.108 35.5518 376.806 35.564 376.461L35.6582 373.874L35.6816 373.107L35.6905 372.745C35.6944 372.569 35.6975 372.4 35.6999 372.231L35.7053 371.706L35.6824 371.149L35.655 370.421L35.6372 369.9C35.4535 364.295 35.5483 358.939 35.8922 349.791L35.9916 347.191ZM82.7979 161.415L82.6019 162.556C81.504 168.943 84.375 174.226 90.539 178.09C96.1808 181.626 104.322 183.748 113.044 184.085C121.693 184.418 130.131 182.962 136.292 179.98C142.896 176.785 146.492 172.089 146.35 166.247L146.345 166.07L146.303 164.95L147.331 165.393C160.214 170.935 170.208 181.51 176.483 195.381C182.215 208.05 184.509 222.857 183.04 236.741L182.994 237.162L182.903 237.982L182.107 237.767C180.687 237.383 177.038 238.473 171.377 241.067L170.902 241.286L168.309 243.091L168.265 244.427C166.535 298.932 171.748 337.811 183.87 361.039L184.239 361.738L184.62 362.442C184.839 362.853 185.086 363.28 185.397 363.791L185.759 364.377L186.31 365.258L186.608 365.741L186.754 365.982C187.344 366.957 187.7 367.621 188.039 368.391C188.577 369.614 188.878 370.775 188.92 371.952L188.924 372.099L188.924 372.147L188.948 372.193C189.126 372.556 189.117 372.992 188.919 373.362L188.887 373.417L188.876 373.435L188.827 373.817L188.504 373.88L188.46 373.922C187.987 374.362 187.353 374.643 186.528 374.849L186.414 374.877L186.303 374.902C186.128 374.942 185.949 374.977 185.743 375.015L184.975 375.149L184.048 375.331L182.885 375.558L182.568 375.622L182.238 375.691C180.294 376.104 178.989 376.508 177.774 377.124C171.651 380.343 165.58 381.89 159.17 382.07C154.062 382.214 148.999 381.538 142.391 380.033L141.045 379.72L140.263 379.534L139.302 379.301C139.001 379.227 138.678 379.147 138.32 379.058L133.671 377.897L132.206 377.537L131.354 377.33C128.038 376.533 125.797 376.063 123.243 375.634C118.77 374.882 114.697 374.577 110.687 374.766L110.379 374.782L110.199 374.791L110.036 374.713C101.79 370.766 95.0192 365.031 88.8649 357.252L88.4491 356.724L88.1895 356.39C83.9697 350.946 80.7787 345.73 74.7168 334.934L73.1322 332.11L72.0181 330.135L71.2918 328.856C68.1097 323.271 66.0541 319.913 63.5245 316.217C59.4435 310.255 55.2959 305.417 50.6362 301.395L50.3988 301.191L50.3702 301.166C49.4456 300.284 48.8225 299.489 48.4291 298.597L48.3847 298.494L48.3158 298.329L48.4384 297.076L48.5665 295.734C49.5937 284.83 50.681 269.949 51.8282 251.094L52.0347 247.667L46.4386 245.491L43.8533 244.495L43.2924 244.282L42.6297 244.033L41.956 243.782L41.2931 243.537C38.4433 242.488 35.8835 241.611 33.4236 240.852L32.8687 240.683C26.8858 238.871 21.8376 237.898 17.6451 237.879L17.4522 237.879L16.5704 237.881L16.6016 237.738L16.5752 237.735C16.3721 237.71 16.1821 237.67 16.0065 237.614L15.9198 237.585L15.8356 237.552C15.1155 237.258 14.7661 236.61 15.0452 235.836L15.0678 235.776L15.2161 235.239C20.3997 216.532 27.4167 201.86 37.1332 190.218L37.4285 189.866L37.7315 189.509C48.5072 176.878 62.6579 167.795 81.133 161.936L81.6942 161.76L82.7979 161.415Z"
              fill="#78E185"
            />
            <path
              fill-rule="evenodd"
              clip-rule="evenodd"
              d="M224.483 717.854C202.278 727.838 161.957 715.241 140.139 707.952C134.257 705.827 132.297 705.41 133.945 698.619C137.029 704.579 143.662 706.018 150.017 707.213C171.542 712.127 193.487 721.198 216.508 716.772C219.887 716.239 223.23 714.407 224.214 711.027C224.82 712.46 224.445 714.4 224.688 715.975C224.733 716.603 224.747 717.283 224.483 717.854M134.676 680.718C135.077 676.716 135.718 672.487 137.994 668.951C137.746 674.671 141.177 684.394 148.694 681.155C150.823 680.025 152.016 677.749 153.386 675.922C157.939 669.911 163.778 664.691 170.373 660.899C174.042 661.53 175.619 668.248 177.984 671.06C175.348 672.236 170.571 674.917 170.088 677.689C173.379 676.58 176.409 674.516 179.861 673.79C180.967 675.318 182.139 676.8 183.37 678.232C181.761 678.941 175.277 682.223 175.32 683.861C178.826 683.291 182.224 681.572 185.749 680.866C187.317 682.423 188.744 684.099 190.304 685.661C187.946 686.633 185.456 687.719 184.169 689.986C184.108 690.088 184.259 690.203 184.341 690.104C186.107 687.971 189.147 687.58 191.781 687.1C195.822 690.911 200.347 694.272 205.412 696.787C210.479 699.561 218.18 700.196 220.196 706.214C221.809 712.231 216.779 712.873 212.139 713.298C207.444 713.967 202.716 714.068 198.052 713.678C183.473 713.069 169.691 708.772 155.914 705.017C139.069 701.912 133.603 699.398 134.676 680.718M139.616 645.533C139.576 645.797 139.541 646.062 139.503 646.328C139.455 646.047 139.423 645.764 139.354 645.488C139.442 645.502 139.529 645.519 139.616 645.533M166.831 658.971C160.377 663.75 154.077 669.075 149.595 675.741C146.628 681.164 142.681 677.863 141.7 673.518C140.906 663.818 141.589 655.442 140.658 645.684C149.583 646.902 158.75 646.151 167.468 643.996C166.419 648.352 165.937 650.005 165.904 654.474C165.961 655.947 165.94 657.744 166.831 658.971M181.278 301.936C181.469 316.213 181.559 330.495 181.064 344.767C168.512 312.284 172.354 277.037 170.571 242.895C174.28 241.658 178.265 241.117 182.087 240.588C180.552 261.781 180.948 280.711 181.278 301.936M110.344 374.064C79.5263 359.311 75.2632 321.483 50.8612 300.642C50.0734 299.892 49.4205 299.12 49.0407 298.211C50.7902 280.51 50.6629 264.992 52.7311 247.31C55.0416 243.112 55.9543 238.237 57.6754 233.77C58.5764 231.05 59.6702 228.356 59.9296 225.502C60.1465 224.562 58.6799 224.154 58.4066 225.041C55.1501 231.378 53.5302 238.426 51.0994 245.107C50.7572 245.244 50.3021 245.136 50.1677 244.777C50.1468 244.864 50.1229 244.952 50.1017 245.039C39.6396 240.945 28.8521 237.132 17.4538 237.16C17.4611 237.125 17.4706 237.087 17.4776 237.052C16.7747 237.073 15.301 237.016 15.742 235.996C25.7608 199.413 43.7497 174.337 81.9081 162.426C77.0293 190.812 148.036 192.455 147.055 166.033C173.803 177.541 185.327 209.86 182.294 237.073C179.753 236.386 173.134 239.089 170.552 240.659C170.026 229.61 171.333 216.275 170.564 206.394C166.494 256.773 158.899 317.054 183.999 362.765C185.628 365.829 188.286 368.762 188.22 372.36C188.416 372.558 188.434 372.905 188.196 373.16C188.196 373.177 188.196 373.193 188.194 373.21C188.182 373.212 188.168 373.212 188.154 373.212C187.425 374.081 185.893 374.253 184.839 374.444C182.349 374.947 179.729 375.33 177.449 376.487C153.155 389.257 134.101 372.794 110.344 374.064M118.022 397.278C119.196 399.523 121.168 401.329 123.504 402.458C123.216 403.024 123.117 403.662 123.087 404.259C118.878 405.121 120.062 407.121 117.218 408.074C115.357 408.589 113.568 408.809 111.96 409.937C106.487 415.042 105.129 414.666 99.2551 410.176C99.3356 409.77 91.3422 401.952 88.8663 397.582C86.8031 393.937 84.6431 390.265 81.4811 387.446C65.9965 371.571 49.5005 356.588 34.5111 340.274C4.4713 310.301 10.2032 276.315 17.1027 238.877C28.239 240.208 39.4368 242.883 49.4653 247.794C45.9284 264.319 45.7018 279.297 44.1786 296.065C43.7188 298.137 44.2376 302.13 47.1711 301.209C74.1338 322.644 77.2674 366.693 112.651 379.431C127.072 385.3 120.986 390.065 125.751 401.147C123.129 400.666 120.79 398.465 119.663 396.359C119.104 395.313 117.477 396.234 118.022 397.278M36.5224 384.273C35.9119 380.073 36.388 375.892 36.4163 371.684C36.0888 364.023 36.3434 356.555 36.6382 348.868C45.0935 357.639 53.8839 366.113 62.5186 374.721C53.3227 375.882 42.7167 376.839 36.5224 384.273M36.3668 390.452C36.5109 390.405 36.6521 390.341 36.7818 390.263C36.7488 393.559 36.8006 396.855 36.9209 400.146C36.6898 396.916 36.5059 393.684 36.3668 390.452M26.0225 624.732C23.5422 624.541 12.9337 624.175 11.6606 625.842C13.0942 626.449 15.0652 626.114 16.6073 626.182C19.6021 626.305 22.5896 626.569 25.5536 626.99C25.3317 628.146 25.1312 629.301 24.9664 630.46C21.9766 630.746 16.1546 630.876 14.2567 632.97C17.6425 633.511 21.1676 633.024 24.5653 633.699C24.4003 635.286 24.28 636.875 24.1907 638.464C22.837 638.608 14.8768 639.928 14.8839 641.181C17.8641 641.578 21.0214 641.056 24.0586 641.351C23.4005 650.873 25.6314 679.628 12.6342 681.387C1.27135 680.787 -3.71332 662.348 -5.25752 653.501C-8.68148 632.89 -8.09411 610.914 -1.30799 591.046C1.11573 585.521 7.71345 584.563 13.2923 584.277C13.5043 585.212 13.7141 586.13 13.9499 587.056C11.5307 592.548 10.7599 598.731 10.6936 604.674C11.2053 613.216 21.7311 619.567 29.3755 613.924C27.9466 617.418 26.8433 621.054 26.0225 624.732M10.9863 686.182C-11.5204 681.337 -15.2129 655.239 -13.6659 636.049C-12.4046 622.69 -13.9206 594.526 -1.60533 586.678C-17.5214 601.227 -16.1394 700.27 19.1327 682.983C18.2532 685.773 13.7307 686.578 10.9863 686.182M15.3956 593.065C15.4357 592.72 15.4802 592.378 15.5274 592.033C18.0244 598.825 22.3017 605.28 28.6707 609.214C26.2324 612.259 21.4835 613.166 18.2791 610.673C12.6908 606.477 15.0207 598.887 15.3956 593.065M92.113 159.13C92.0684 159.208 92.021 159.286 91.9739 159.361C91.6626 159.382 91.349 159.411 91.0307 159.446C91.3917 159.338 91.7524 159.236 92.113 159.13M134.884 161.623C134.872 161.588 134.86 161.552 134.85 161.519C134.879 161.536 134.907 161.554 134.938 161.573C134.914 161.588 134.9 161.604 134.884 161.623M226.669 713.72C226.607 712.031 226.583 709.848 224.607 709.249C225.503 701.968 219.467 697.823 213.129 695.805C207.725 692.495 201.596 690.182 196.631 686.191C198.937 685.758 201.243 685.234 203.292 684.229C204.839 683.472 204.093 680.948 202.417 681.182C199.448 681.574 196.782 683.086 193.992 684.136C192.408 682.832 190.873 681.472 189.423 680.031C191.229 679.682 193.525 679.81 194.577 678.015C194.905 677.454 194.758 676.871 194.363 676.438C192.533 674.583 188.906 676.435 186.633 676.976C185.541 675.716 184.487 674.43 183.452 673.13C185.169 672.972 189.635 673.286 188.76 670.449C187.084 668.23 183.478 669.561 181.054 670.018C177.979 666.232 176.989 660.424 172.184 658.341C172.011 657.423 170.814 657.493 170.015 657.766C168.838 652.141 168.928 649.282 169.272 643.516C172.839 642.527 176.378 641.229 179.345 639.099C180.708 639.5 182.36 639.038 182.644 637.435C183.492 631.786 183.966 625.266 184.561 619.496H184.777C185.907 608.971 186.817 598.415 188.095 587.918C195.412 527.238 197.006 453.174 183.462 393.226C183.355 390.955 183.516 388.681 183.745 386.426C185.36 385.994 186.322 384.415 187.659 383.501C190.144 381.473 192.672 380.337 192.901 376.798C193.403 376.319 193.462 375.594 193.186 374.966C193.83 371.333 192.881 367.725 190.95 364.585C188.833 361.008 186.833 357.398 185.068 353.644C188.93 315.807 183.691 279.136 186.555 241.11C190.229 239.162 187.923 228.34 187.581 224.732C185.435 201.04 174.388 174.88 150.901 165.025C149.253 163.632 146.951 163.16 144.938 162.393C143.577 161.722 141.363 161.141 140.432 162.702C139.444 162.242 136.263 161.89 135.174 161.092C134.971 160.943 134.841 160.78 134.81 160.598C134.73 160.601 134.636 160.584 134.535 160.563C133.53 159.142 132.573 149.242 131.335 149.948C129.984 153.348 130.92 157.189 132.212 160.622C133.103 163.658 134.325 171.468 139.059 169.471C139.875 169.065 139.371 168.009 138.64 167.924C136.395 167.282 135.895 163.979 135.027 162.043C136.055 162.898 140.738 164.18 141.25 164.451C151.408 187.797 89.9908 186.571 85.162 170.477C81.7192 164.917 84.6905 161.904 90.8281 161.011C86.3172 166.031 92.0283 167.145 94.1998 162.223C96.2771 158.698 97.2226 154.415 96.5129 150.359C96.8784 148.935 97.1875 147.032 95.0604 147.415C94.9875 147.226 94.8718 147.374 94.9168 147.509C94.1408 148.746 94.681 150.524 94.4051 151.952C94.1717 154.29 93.5089 156.58 92.3844 158.648C90.2976 159.047 88.22 159.474 86.1524 159.942C84.9119 157.418 76.8666 162.452 74.7067 163.044C46.0131 171.532 24.1928 194.136 16.5769 222.647C14.8768 226.444 13.0421 230.259 11.651 234.174C11.0285 235.869 11.0285 237.972 12.738 239.07C4.4074 277.335 2.37487 317.202 33.8464 345.903C34.5606 349.01 34.0845 352.306 34.0633 355.469C34.3272 362.675 28.1777 387.371 35.3201 390.565C33.2331 422.557 41.0593 466.086 48.6448 496.949C49.2057 507.557 46.011 517.206 37.4114 523.9C21.0615 536.139 14.1739 556.568 12.2617 576.037C11.9905 578.032 12.257 580.063 12.7052 582.022C9.16099 582.683 5.84361 583.113 2.40316 584.414C-16.5711 580.773 -15.2174 621.592 -16.6699 633.704C-17.8067 651.61 -17.0969 673.074 -0.66451 684.798C4.86012 688.736 14.6125 692.519 19.9959 686.555C21.5189 684.73 22.3491 682.595 21.75 680.263C29.4675 668.947 27.6448 654.483 28.2225 641.606C30.2432 641.677 32.4456 642.579 34.4359 642.083C35.9685 641.677 36.1642 639.708 34.8674 638.924C32.9949 637.862 30.4507 638.266 28.3569 638.195C28.4208 636.962 28.5128 635.73 28.6307 634.497C30.6182 634.984 33.4665 636.153 34.0584 633.371C34.2968 630.838 31.1015 630.644 29.1117 630.536C29.2508 629.58 29.4064 628.628 29.5833 627.679C31.1065 627.832 32.7144 628.805 34.2119 628.34C35.0605 628.005 35.3552 627.145 34.7351 626.449C33.5823 625.318 31.6108 625.545 30.0855 625.193C31.0119 620.648 32.6863 616.301 34.2991 611.955C37.2182 612.97 40.38 613.641 43.4951 613.386C45.11 613.046 46.874 612.949 48.5057 613.168C50.321 612.687 50.7407 610.744 50.9791 609.157C50.9438 609.1 50.9081 609.046 50.8681 608.996C55.0628 584.537 70.1114 563.406 86.9845 545.2C91.632 539.992 96.1898 534.576 99.3471 528.39C105.761 515.461 106.911 500.915 111.818 487.484C115.952 475.287 121.476 463.591 126.892 451.878C129.064 467.304 133.12 482.478 133.584 498.122C134.292 517.914 129.937 537.419 128.079 557.052C125.394 577.815 126.824 598.682 126.654 619.496H126.769C126.725 624.515 126.589 629.751 126.277 634.755C126.289 636.585 126.525 638.308 126.265 640.138C126.122 641.151 126.848 641.786 127.612 641.807C130.418 643.651 133.943 644.305 137.168 645.094C138.062 645.778 137.676 647.464 137.833 648.496C138.18 654.292 138.638 658.666 138.074 664.51C134.919 669.181 132.646 668.435 131.769 675.535C131.286 682.947 130.222 690.962 133.457 697.69C132.009 698.02 131.46 702.444 131.677 703.615C132.045 706.916 134.952 707.961 137.763 709.1C158.302 716.806 201.946 729.493 223.051 720.768C224.563 721.625 226.249 719.946 226.737 718.594C227.383 716.949 226.789 715.355 226.669 713.72"
              fill="black"
            />
            <path
              fill-rule="evenodd"
              clip-rule="evenodd"
              d="M151.947 83.3951C151.039 77.88 154.02 76.7358 151.947 71.4932C147.34 61.7793 134.783 62.1978 125.569 61.4509C115.292 61.0557 104.89 62.4171 95.4152 66.5503C93.1521 67.5374 90.9754 68.6984 88.8888 70.0173C87.0846 71.158 87.3326 73.3269 88.4702 74.5099C80.2666 86.1666 84.9587 101.813 78.413 114.083C77.2038 116.276 75.6045 118.243 74.5534 120.525C72.9558 123.994 72.8534 128.965 76.4765 131.269C81.5794 134.017 84.4269 128.575 86.9342 136.463C99.4562 163.966 124.633 165.515 148.533 151.176C150.601 150.022 152.711 148.718 154.273 146.905C157.817 142.902 157.399 137.274 157.478 132.276C157.521 129.347 157.529 126.418 157.5 123.489C157.389 111.623 153.469 95.1631 151.947 83.3951Z"
              fill="#FFDBB4"
            />
            <path
              fill-rule="evenodd"
              clip-rule="evenodd"
              d="M101.042 50.4089C115.472 43.8406 131.84 41.3498 147.581 42.9836C155.351 43.7887 163.018 45.5161 170.315 48.322L170.954 48.5701C172.755 49.2657 174.697 49.9562 176.066 51.3721C177.659 53.0178 178.106 55.5062 176.967 57.539C176.082 59.1185 174.492 60.2516 172.795 60.8562C173.393 61.3473 173.96 61.8951 174.492 62.5065C175.388 63.5312 175.456 64.9924 174.492 66.0032C172.633 67.951 170.221 69.3603 167.623 70.0357C167.915 71.45 167.757 73.0153 167.132 74.4248C165.336 78.4708 160.276 78.953 156.383 78.7128L156.266 78.7053L156.049 81.1914C155.934 82.5159 155.143 83.5429 153.802 83.746C153.755 83.753 153.708 83.7578 153.661 83.7623C155.783 91.464 157.066 99.4038 158.249 107.297C158.868 111.417 159.421 115.547 159.951 119.679L160.127 121.057C160.692 125.512 161.397 130.012 161.642 134.5C161.861 138.573 161.087 142.461 158.586 145.748C156.341 148.694 153.28 150.902 149.988 152.54C142.55 156.244 134.722 159.002 126.496 160.282L125.947 160.367C122.772 160.853 119.501 161.263 116.36 160.381C113.6 159.607 110.705 157.609 111.329 154.401C111.538 153.317 113.049 153.27 113.567 154.108L113.686 154.3C114.307 155.288 114.987 156.207 116.07 156.717C117.338 157.317 118.809 157.484 120.195 157.501C124.065 157.546 128.096 156.578 131.823 155.607C138.783 153.794 145.931 150.838 151.633 146.359C154.059 144.456 156.007 142.076 156.694 139.014C157.543 135.239 156.762 131.112 156.376 127.318C155.582 119.489 154.637 111.675 153.64 103.869L153.44 102.308C152.6 95.7823 151.718 89.2541 151.299 82.6906C151.124 82.4521 151.007 82.1806 150.96 81.8831L150.894 81.4558V81.4558C150.837 81.0899 150.828 80.7546 150.868 80.4453C150.87 79.2601 150.903 78.082 150.972 76.8965C150.983 76.6843 150.993 76.4718 151 76.2616C149.771 76.5332 148.534 76.7527 147.291 76.9392C138.557 78.259 129.687 78.5896 120.882 77.9332C116.489 77.6048 112.129 77.0408 107.783 76.3348C105.571 75.976 103.367 75.5793 101.169 75.1355C99.5806 74.8167 98.0253 74.3847 96.4629 73.9786C94.8512 76.3325 93.9806 79.2294 94.15 82.0744C94.3406 85.3207 96.4959 88.2649 95.8912 91.5821C95.3236 94.6865 92.673 95.6491 90.056 96.418L88.943 96.7406C88.0867 96.9915 87.4649 97.2335 87.3099 98.266C87.044 100.039 87.3711 102.034 87.4393 103.817C87.5217 105.925 87.6297 108.033 87.6793 110.142C87.7052 111.233 87.7473 112.328 87.7452 113.419C87.7429 114.193 87.6276 114.722 87.3288 115.222C87.5593 115.513 87.7662 115.827 87.9499 116.16C88.0088 116.269 87.8629 116.384 87.7761 116.294C87.5429 116.051 87.2956 115.832 87.0346 115.636C86.9029 115.799 86.7499 115.964 86.5709 116.141L86.557 116.122V116.122C85.997 116.682 85.1076 116.736 84.4132 116.141L84.231 115.983C83.7228 115.536 83.3736 115.163 83.2323 114.425C83.2252 114.387 83.2179 114.349 83.2134 114.311C81.9217 114.266 80.6087 114.573 79.4464 115.218C77.604 116.24 76.3075 117.697 75.5407 119.496C75.8463 119.855 76.204 120.176 76.6205 120.445C76.6793 120.485 76.6275 120.573 76.564 120.542C76.1381 120.341 75.7569 120.093 75.4157 119.803C75.1404 120.511 74.9475 121.271 74.8299 122.077C74.4157 124.919 75.1546 128.392 77.7146 130.012C78.8228 130.713 80.0887 131.093 81.4017 131.098C82.0414 131.1 82.5946 130.992 83.2158 130.838C83.637 130.734 84.0558 130.583 84.4958 130.583C84.8723 130.583 85.2205 130.678 85.5429 130.866L85.4535 130.874C85.2362 130.895 85.278 130.904 85.5805 130.904C86.5217 130.944 87.0603 131.903 86.6276 132.736L86.5708 132.865C86.5588 132.891 86.5487 132.913 86.5407 132.93L86.5066 133.151C86.5031 133.172 86.4996 133.193 86.4958 133.216L86.4827 133.26C86.4804 133.268 86.4778 133.275 86.4746 133.282L87.8862 135.442C89.6168 138.084 91.3861 140.716 93.3994 143.129C94.8112 144.822 96.3076 146.482 97.8888 148.019C99.31 149.4 101.014 150.066 102.623 151.152C103.482 151.728 103.734 152.935 102.953 153.711C100.661 155.994 97.4159 154.181 95.5359 152.325C93.757 150.567 92.2205 148.451 90.8958 146.333C88.5452 142.568 86.6746 138.563 85.8558 134.217C85.5146 134.531 85.0793 134.727 84.6393 134.88C83.757 135.187 82.7852 135.315 81.8534 135.348C80.0675 135.407 78.2793 134.972 76.6722 134.203C70.1334 131.074 69.1733 121.706 73.171 116.181C72.632 114.613 72.3309 112.911 72.0038 111.459L71.855 110.811C70.2017 103.564 69.092 95.9346 72.0228 88.8339C72.3993 87.9178 72.8228 87.0254 73.324 86.1707C73.7263 85.4836 74.4181 84.7517 74.6087 83.9703C75.0322 82.2538 72.4181 80.45 71.6557 79.0877C70.7592 77.4894 70.6322 75.6029 71.8534 74.1412C72.0087 73.9573 72.1778 73.7871 72.3616 73.6386C71.2039 71.5326 71.1498 68.8836 72.6745 66.8059C73.6769 65.4365 75.2063 64.478 76.8769 64.1876C77.8981 64.0105 79.1264 64.0766 80.2487 64.393C86.3944 58.6676 93.4064 53.8842 101.042 50.4089ZM77.4415 122.048C79.0818 120.596 80.8935 119.836 83.1288 120.027C85.3759 120.221 88.0818 121.153 89.4016 123.087C90.4442 124.615 88.3195 126.855 86.79 125.708C85.3971 124.662 84.4674 123.481 82.7383 122.919C81.1851 122.417 79.2627 122.093 77.6368 122.381C77.458 122.412 77.2794 122.19 77.4415 122.048Z"
              fill="black"
            />
            <path
              fill-rule="evenodd"
              clip-rule="evenodd"
              d="M139.082 143.113C137.345 143.617 135.481 143.662 133.71 143.142C132.104 142.67 130.455 141.631 129.273 140.257C128.223 139.036 127.543 137.553 127.57 135.969C127.573 135.788 127.637 135.638 127.737 135.52C127.844 135.394 127.993 135.308 128.153 135.27C128.318 135.231 128.492 135.245 128.64 135.312C128.774 135.373 128.889 135.477 128.961 135.628C129.142 135.867 129.323 136.103 129.505 136.332C130.966 138.137 132.38 139.487 134.576 139.971C135.768 140.234 136.958 140.117 138.05 139.716C139.218 139.287 140.275 138.533 141.103 137.568C141.477 137.132 141.919 136.954 142.351 136.951C142.84 136.947 143.324 137.175 143.689 137.539C144.047 137.897 144.287 138.383 144.309 138.892C144.328 139.338 144.182 139.804 143.796 140.22C142.521 141.591 140.869 142.595 139.082 143.113ZM139.028 120.497C140.809 121.581 143.522 124.108 141.606 126.794C139.352 129.163 136.106 126.447 134.506 125.219C133.023 124.267 131.356 126.715 132.732 127.827C144.292 136.396 148.983 120.78 139.929 119.223C138.932 119.051 138.562 120.162 139.028 120.497ZM122.372 115.728C121.8 115.362 121.127 115.236 120.381 115.576C119.797 115.842 118.775 116.727 118.063 117.89C117.576 118.686 117.231 119.62 117.303 120.592C117.32 120.818 117.236 120.985 117.105 121.108C117.001 121.205 116.851 121.277 116.675 121.299C116.525 121.318 116.358 121.301 116.222 121.258C115.963 121.177 115.826 121.009 115.774 120.872C115.276 119.547 115.491 118.068 116.049 116.734C116.803 114.934 118.171 113.426 119.068 112.94C120.602 112.107 122.413 112.069 123.949 112.917C125.257 113.639 126.075 114.804 126.889 115.991C127.062 116.244 127.233 116.494 127.411 116.74C127.766 117.234 127.802 117.723 127.664 118.143C127.511 118.607 127.123 119 126.636 119.205C126.187 119.395 125.665 119.421 125.204 119.226C124.814 119.062 124.456 118.741 124.229 118.196C123.848 117.279 123.213 116.267 122.372 115.728V115.728ZM151.437 117.769C151.045 117.974 150.739 118.035 150.304 117.905C150.064 117.833 149.826 117.694 149.64 117.508C149.456 117.323 149.322 117.094 149.271 116.839C149.144 116.21 148.8 115.622 148.311 115.238C147.892 114.911 147.364 114.737 146.779 114.835C146.147 114.94 145.544 115.346 145.13 115.825C144.991 115.985 144.882 116.167 144.773 116.347C144.569 116.685 144.37 116.999 144.088 117.247C143.982 117.342 143.821 117.407 143.665 117.407C143.601 117.407 143.537 117.397 143.476 117.378C142.847 116.745 142.726 116.266 142.746 115.79C142.767 115.291 142.964 114.786 143.281 114.315C144.026 113.21 145.439 112.303 146.393 112.098C147.7 111.817 148.997 112.154 150.037 112.885C151.107 113.637 151.901 114.804 152.148 116.119C152.207 116.436 152.182 116.778 152.062 117.074C151.944 117.364 151.739 117.612 151.437 117.769ZM125.253 103.943C124.469 104.708 123.541 104.826 122.603 104.932C122.081 104.991 121.665 105.038 121.255 105.131C120.129 105.386 119.015 105.769 118 106.321C116.938 106.898 115.781 107.594 114.949 108.486C114.751 108.698 114.564 108.921 114.377 109.144C114.207 109.348 114.043 109.544 113.87 109.732C113.671 109.949 113.483 110.177 113.295 110.404C113.179 110.595 113.156 110.642 113.133 110.691C113.098 110.765 113.057 110.847 113.01 110.935C112.946 111.057 112.871 111.189 112.793 111.309C112.662 111.529 112.592 111.589 112.531 111.616C112.431 111.661 112.336 111.683 112.243 111.671C112.157 111.66 112.075 111.618 111.994 111.55C111.592 111.21 111.473 110.651 111.485 110.058C111.504 109.157 111.835 108.161 112.141 107.548C112.852 106.124 113.837 104.645 115.023 103.582C116.375 102.369 117.855 101.451 119.555 100.818C120.611 100.425 121.834 100.064 122.984 100.11C123.813 100.142 124.603 100.389 125.256 101.005C125.657 101.383 125.85 101.92 125.85 102.457C125.85 103.005 125.65 103.556 125.253 103.943ZM153.032 110.947C152.982 111.029 152.913 111.085 152.836 111.119C152.756 111.154 152.666 111.165 152.58 111.15C152.494 111.136 152.412 111.097 152.347 111.037C152.285 110.98 152.238 110.904 152.217 110.812C151.696 108.522 150.686 106.819 148.528 105.721C147.467 105.181 146.247 104.837 145.092 104.564C144.756 104.484 144.401 104.433 144.044 104.38C142.925 104.217 141.797 104.029 141.067 103.123C140.628 102.577 140.443 101.879 140.547 101.241C140.646 100.64 140.996 100.089 141.634 99.7587C143.222 98.9368 145.194 99.7433 146.797 100.43C146.916 100.481 147.033 100.531 147.147 100.579C148.715 101.242 150.145 102.117 151.32 103.367C152.253 104.36 153.117 105.827 153.465 107.336C153.754 108.591 153.686 109.873 153.032 110.947Z"
              fill="black"
            />
            <path
              fill-rule="evenodd"
              clip-rule="evenodd"
              d="M201.813 194.039C203.839 186.19 205.702 182.862 209.3 180.134C212.666 177.582 217.579 175.439 224.748 173.873C232.214 172.569 232.426 168.692 234.298 162.46C234.844 160.587 237.551 160.088 238.719 161.439C238.884 161.261 239.055 161.098 239.233 160.951C239.074 160.058 240.376 157.497 240.333 156.643C239.879 147.722 242.799 143.243 250.088 141.578C251.673 141.215 262.441 141.002 263.986 141.429C270.743 143.295 277.395 149.222 276.377 156.36C278.498 159.13 280.574 160.82 283.847 161.712C288.943 162.359 286.383 234.488 277.532 277.701C273.735 296.241 182.936 264.684 187.039 255.398C186.457 253.696 187.517 251.825 187.039 250.068C186.693 248.796 185.806 248.269 185.359 247.01C184.731 245.237 185.414 242.859 186.122 241.051C186.411 240.149 185.588 239.179 185.359 238.259C184.274 233.921 186.759 234.303 188.55 231.402C188.524 231.394 188.058 229.323 188.06 229.333C187.786 227.855 188.473 225.961 189.072 224.727C189.477 223.893 190.345 223.371 191.207 223.467C190.339 220.522 189.241 218.072 188.06 215.234C185.972 210.233 183.986 205.002 180.987 200.475C179.759 198.621 180.751 196.916 182.738 196.79C189.17 196.382 195.532 195.457 201.813 194.039Z"
              fill="#E0B496"
            />
            <path
              fill-rule="evenodd"
              clip-rule="evenodd"
              d="M211.855 194.645L226.537 219.472C226.537 219.472 223.054 219.82 221.644 220.496C220.235 221.173 213.763 229.394 213.763 229.394L212.734 233.921L215.171 237.57L214.221 239.862C214.221 239.862 213.543 238.309 211.855 237.104C210.166 235.899 206.444 233.921 206.444 233.921C206.444 233.921 207.681 233.259 207.681 232.483C207.681 231.707 208.771 228.395 206.444 227.144C204.117 225.892 192.093 222.964 192.093 222.964L179.908 197.282L211.855 194.645Z"
              fill="#BCDDFF"
            />
            <path
              fill-rule="evenodd"
              clip-rule="evenodd"
              d="M277.353 161.881L230.731 170.056L209.3 180.134L205.802 182.827L226.537 219.472L258.554 225.309L266.711 246.478L265.046 270.34L212.961 264.136L190.493 261.468L185.212 282.772L186.166 291.536L187.554 295.98L243.252 311.005C243.252 311.005 271.614 308.258 276.641 308.258C281.669 308.258 318.531 311.915 318.531 311.915L327.06 311.005C327.06 311.005 345.93 291.133 348.857 284.061C351.783 276.989 358.112 233.998 358.112 233.998L357.415 227.393L341.112 185.472C341.112 185.472 338.935 183.497 336.19 180.134C333.446 176.771 277.353 161.881 277.353 161.881Z"
              fill="#9DDADB"
            />
            <path
              fill-rule="evenodd"
              clip-rule="evenodd"
              d="M192.972 222.435C197.186 222.649 201.403 223.65 205.215 225.463C206.774 226.206 208.187 227.279 208.601 229.044C208.81 229.946 208.759 230.877 208.647 231.787C208.564 232.477 208.543 233.357 207.943 233.823C207.841 233.902 207.732 233.963 207.618 234.007C209.024 234.641 210.363 235.403 211.552 236.187C212.64 236.905 213.758 238.01 214.26 239.257C214.301 239.116 214.343 238.984 214.385 238.858C215.24 236.332 216.558 234.263 218.633 232.871C218.869 232.013 221.398 228.32 223.747 228.459C226.32 228.61 228.389 228.798 230.716 229.98C231.564 229.962 232.41 229.973 233.246 230.01C233.39 230.015 233.383 230.21 233.246 230.226C232.568 230.312 231.889 230.407 231.21 230.519C229.598 230.777 227.989 231.104 226.416 231.51C224.529 231.998 222.577 232.488 220.813 233.34C217.392 234.996 215.275 239.325 215.71 243.092C215.782 243.709 216.021 245.576 216.879 245.384C217.604 245.221 217.892 243.709 218.145 243.15C218.824 241.663 220.046 240.693 221.513 240.035C223.235 239.262 225.077 238.74 226.863 238.131C227.873 237.785 228.884 237.439 229.897 237.095C230.934 236.74 231.919 236.25 233.023 236.499C233.69 236.65 233.767 237.444 233.393 237.899C232.823 238.593 231.977 238.798 231.157 239.083C230.074 239.46 228.993 239.836 227.913 240.212C226.242 240.793 224.492 241.283 222.863 241.993L222.914 242.109C223.047 242.072 223.202 242.204 223.177 242.367C222.932 243.869 222.593 245.607 222.97 247.112C223.267 248.305 224.315 249.627 225.677 249.276C225.463 249.081 225.384 248.744 225.528 248.433C226.068 247.281 233.132 242.734 233.762 244.422C233.783 244.483 233.718 244.527 233.667 244.518C233.13 244.406 232.231 245.321 231.801 245.611C231.18 246.029 230.551 246.438 229.937 246.868C229.265 247.337 228.61 247.829 227.971 248.337C227.469 248.737 227.09 249.153 226.514 249.355C226.816 249.499 227.055 249.766 227.157 250.107C227.418 250.996 227.92 251.751 228.791 252.144C229.704 252.552 230.734 252.295 231.696 252.395C233.007 252.527 234.15 253.149 235.105 254.039C237.111 255.91 238.117 259.208 240.922 260.093C242.598 260.62 244.457 260.288 246.153 260.049C248.047 259.781 249.893 259.57 251.801 259.849C253.627 260.116 255.354 260.748 257.022 261.519C258.586 262.241 260.315 263.058 261.703 264.136C261.989 263.256 262.277 262.385 262.496 261.486C263.011 259.361 263.29 257.197 263.358 255.014C263.42 252.936 263.304 250.848 263.125 248.779C263.037 247.745 262.897 246.717 262.809 245.683C262.786 245.423 262.739 245.144 262.704 244.866C260.227 243.405 257.625 242.286 255.001 241.134C254.994 241.132 254.987 241.127 254.98 241.125C254.898 241.087 254.819 241.053 254.738 241.018C254.74 241.013 254.743 241.009 254.747 241.004C254.447 240.821 254.238 240.577 254.113 240.303C250.332 237.797 247.171 234.376 244.815 230.387C243.827 228.715 242.877 226.98 241.584 225.515C240.209 223.952 238.575 223.023 236.553 222.54C234.19 221.973 231.754 221.634 229.333 221.441C228.01 221.337 226.533 221.174 225.091 221.181C224.087 221.188 223.105 221.274 222.203 221.523C220.867 221.889 220.086 222.904 219.247 223.931C218.445 224.916 217.648 225.903 216.9 226.929C216.191 227.902 215.521 228.907 214.94 229.962C214.592 230.593 214.269 231.244 213.997 231.915C213.902 232.152 213.776 232.421 213.718 232.667C213.66 232.915 213.767 233.178 213.488 233.178C214.638 233.194 215.403 236.06 214.26 235.993C212.652 235.9 211.844 233.974 212.159 232.265C212.721 229.217 215.756 225.535 216.356 224.755C217.683 223.032 219.052 220.784 221.176 219.983C221.206 219.971 221.238 219.96 221.269 219.95C220.65 219.365 220.162 218.664 219.695 217.951C219.214 217.217 218.64 216.376 218.482 215.506C218.382 214.951 219.072 214.635 219.4 215.12C219.877 215.828 220.107 216.725 220.462 217.503C220.825 218.292 221.266 219.038 221.615 219.834C222.454 219.576 223.36 219.458 224.283 219.419C223.118 217.844 221.129 214.807 220.89 214.416C219.788 212.61 218.74 210.748 217.738 208.883C216.656 206.862 215.728 204.758 214.692 202.715C214.104 201.556 213.511 200.388 212.858 199.264C212.633 198.878 212.391 198.493 212.117 198.142C212.063 198.073 211.996 198.015 211.933 197.949C211.861 197.91 211.787 197.866 211.745 197.843C211.369 197.627 211.236 197.125 210.971 196.807C210.548 196.294 210.051 196.234 209.414 196.226C208.057 196.212 206.695 196.266 205.34 196.303C203.349 196.359 201.359 196.438 199.37 196.542C198.768 196.575 198.169 196.607 197.567 196.644C194.673 196.816 191.782 197.041 188.898 197.318C186.347 197.562 183.795 197.959 181.241 198.149C184.699 206.359 188.533 214.419 192.875 222.199C192.919 222.277 192.952 222.356 192.972 222.435ZM212.159 243.584C212.716 243.84 213.258 244.157 213.762 244.52C213.679 243.956 213.658 243.361 213.681 242.764C213.265 243.21 212.733 243.465 212.159 243.584ZM188.35 229.463C188.389 229.467 188.427 229.488 188.445 229.527C189.217 231.118 188.894 232.895 187.634 234.142C186.974 234.792 185.536 235.526 185.582 236.594C185.622 237.458 186.563 238.182 186.965 238.895C187.339 239.559 187.478 240.289 187.179 241.009C186.795 241.93 185.724 242.297 185.357 243.203C184.892 244.353 185.647 245.739 186.177 246.74C186.67 247.666 187.307 248.593 187.729 249.573C190.562 251.038 196.99 253.7 197.764 253.848C198.708 254.032 199.654 254.206 200.602 254.369C202.422 254.684 204.246 254.977 206.075 255.235C207.116 255.381 208.159 255.525 209.203 255.639C210.114 255.736 211.141 255.869 211.875 255.184C213.356 253.799 212.526 251.479 211.589 250.081C211.571 250.054 211.571 250.028 211.578 250.005C210.695 249.798 209.814 249.557 208.935 249.387C207.246 249.062 205.545 248.788 203.841 248.544C200.341 248.045 196.818 247.715 193.3 247.383C192.429 247.299 192.419 245.93 193.3 246.011C198.355 246.473 203.435 246.912 208.422 247.885C209.672 248.126 210.913 248.4 212.147 248.709C212.73 248.853 213.356 249.079 213.967 249.085C214.004 249.085 214.041 249.085 214.078 249.083C215.275 249.046 215.449 248.022 214.792 247.17C214.71 247.065 214.627 246.96 214.541 246.861C213.379 245.476 211.931 244.552 210.439 243.595C208.768 243.368 207.102 242.862 205.466 242.49C201.427 241.57 197.388 240.651 193.346 239.734C192.554 239.552 192.891 238.336 193.683 238.514C196.751 239.209 199.819 239.903 202.886 240.597L207.376 241.615C208.273 241.817 209.393 242.223 210.448 242.37C210.969 242.441 211.473 242.451 211.929 242.344C213.4 241.996 213.474 240.159 212.84 239.067C212.128 237.841 210.785 237.075 209.593 236.38C207.527 235.175 205.329 234.309 203.181 233.31C202.8 233.227 202.419 233.143 202.038 233.059C199.821 232.572 197.288 232.333 195.201 231.439C194.576 231.174 194.918 230.189 195.536 230.203C197.155 230.238 198.849 230.814 200.432 231.155C202.145 231.527 203.86 231.896 205.573 232.265C205.745 232.302 206.762 232.627 206.916 232.556C207.013 232.509 207.048 232.17 207.081 231.947C207.186 231.213 207.262 230.442 207.148 229.706C206.897 228.055 205.519 227.279 204.125 226.645C201.02 225.236 197.615 224.354 194.227 224C193.446 223.919 192.665 223.868 191.88 223.842C190.958 223.815 190.197 223.652 189.73 224.56C188.996 225.991 188.592 227.83 188.35 229.463ZM192.662 281.328C193.338 278.99 193.154 276.494 193.618 274.109C193.857 272.879 194.183 271.658 194.54 270.457C194.827 269.487 195.307 268.455 195.362 267.443C195.365 267.375 195.285 267.336 195.23 267.367C194.276 267.913 193.543 269.094 192.999 270.021C192.347 271.13 191.85 272.291 191.448 273.512C190.648 275.944 189.992 278.877 191.023 281.328C191.33 282.058 192.408 282.204 192.662 281.328ZM219.064 299.028C220.072 298.325 220.806 297.342 221.661 296.475C222.502 295.622 221.188 294.308 220.347 295.161C219.617 295.901 218.984 296.825 218.125 297.423C217.712 297.711 217.521 298.232 217.792 298.694C218.031 299.103 218.652 299.315 219.064 299.028ZM224.686 272.009C222.845 271.214 221.035 270.348 219.109 269.775C217.958 269.433 217.471 271.226 218.615 271.566C220.389 272.094 222.053 272.881 223.747 273.613C224.835 274.083 225.781 272.482 224.686 272.009ZM244.121 271.453C244.571 270.343 242.772 269.865 242.328 270.959C241.818 272.218 241.232 273.445 240.722 274.704C240.272 275.814 242.071 276.292 242.515 275.198C243.025 273.939 243.61 272.712 244.121 271.453ZM263.304 293.611C263.604 294.011 264.103 294.227 264.576 293.945C264.971 293.708 265.213 293.078 264.909 292.674C264.023 291.494 263.125 290.328 262.087 289.275C261.245 288.422 259.931 289.737 260.772 290.589C261.7 291.529 262.512 292.557 263.304 293.611ZM266.047 169.28C265.193 169.863 264.446 170.57 263.717 171.298C262.869 172.145 264.184 173.458 265.032 172.612C265.646 171.998 266.265 171.376 266.985 170.885C267.401 170.601 267.588 170.073 267.319 169.614C267.078 169.202 266.462 168.998 266.047 169.28ZM238.138 199.176C238.621 200.142 239.055 201.088 239.083 202.185C239.112 203.38 240.971 203.381 240.941 202.185C240.906 200.749 240.376 199.504 239.744 198.239C239.209 197.167 237.606 198.109 238.138 199.176ZM227.899 175.166C226.899 174.5 225.969 176.11 226.96 176.77C227.763 177.305 228.566 177.84 229.37 178.375C230.369 179.041 231.298 177.431 230.308 176.771C229.505 176.236 228.702 175.701 227.899 175.166ZM272.313 217.146C272.483 218.326 274.274 217.821 274.106 216.652C273.844 214.845 273.525 213.062 273.034 211.301C272.713 210.15 270.92 210.642 271.242 211.795C271.732 213.556 272.051 215.339 272.313 217.146ZM278.831 238.427C280.028 238.402 280.028 236.544 278.831 236.569C277.748 236.592 276.683 236.877 275.639 237.137C274.477 237.427 274.972 239.218 276.133 238.929C277.016 238.708 277.915 238.446 278.831 238.427ZM281.237 281.295C281.648 281.495 282.07 281.675 282.486 281.865C283.318 282.245 284.15 282.626 284.981 283.008C286.713 283.802 288.445 284.6 290.174 285.4C293.637 287.001 297.126 288.546 300.598 290.131C304.137 291.746 307.667 293.384 311.193 295.029C312.854 295.804 314.528 296.551 316.199 297.305C317.627 297.951 319.392 299.079 320.96 299.185C321.041 299.19 321.068 299.088 321.022 299.036C320.43 298.363 319.485 297.971 318.706 297.534C317.911 297.086 317.101 296.666 316.294 296.239C314.613 295.349 312.93 294.466 311.233 293.608C307.837 291.891 304.436 290.186 301.033 288.484C297.563 286.747 294.097 284.999 290.597 283.325C288.949 282.536 287.299 281.75 285.648 280.966C284.754 280.542 283.859 280.118 282.964 279.695C282.578 279.512 282.195 279.315 281.8 279.152C281.275 278.934 280.876 278.979 280.335 278.845C279.452 278.627 279.069 279.749 279.747 280.238C280.306 280.64 280.599 280.985 281.237 281.295ZM293.649 300.345C293.839 299.882 293.44 299.318 292.999 299.202C292.472 299.063 292.048 299.384 291.856 299.851C291.346 301.09 290.62 302.227 289.686 303.187C288.85 304.045 290.164 305.359 291 304.5C292.171 303.297 293.013 301.891 293.649 300.345ZM302.78 270.525C303.627 269.678 302.312 268.365 301.465 269.211L299.056 271.619C298.208 272.466 299.523 273.779 300.37 272.933L302.78 270.525ZM327.499 266.6C329.232 267.107 331.252 267.574 332.433 269.051C332.491 269.123 332.588 269.03 332.553 268.958C331.041 265.826 326.705 264.727 323.703 263.63C321.58 262.854 319.401 262.21 317.204 261.635C317.424 259.131 316.818 256.446 316.607 253.954C316.383 251.293 316.2 248.625 316.106 245.956C316.01 243.233 315.987 240.492 316.076 237.769C316.166 235.055 316.518 232.375 316.672 229.67C316.687 229.409 316.323 229.396 316.244 229.613C315.332 232.122 314.942 234.902 314.645 237.548C314.339 240.274 314.238 242.993 314.277 245.734C314.317 248.554 314.481 251.366 314.707 254.176C314.813 255.508 314.937 256.839 315.054 258.17C315.143 259.185 315.185 260.193 315.392 261.176C314.067 260.852 312.739 260.544 311.415 260.245C307.193 259.293 302.954 258.41 298.75 257.381C296.686 256.875 294.652 256.27 292.598 255.733C290.663 255.227 288.621 254.613 286.635 254.388C285.926 254.307 285.836 255.276 286.306 255.604C287.92 256.737 290.064 257.526 291.928 258.16C293.799 258.796 295.744 259.253 297.662 259.725C301.662 260.708 305.7 261.511 309.731 262.349C313.757 263.185 317.791 264.015 321.772 265.046C323.689 265.543 325.599 266.042 327.499 266.6ZM336.992 216.898C338.027 217.506 338.962 215.899 337.93 215.294C336.581 214.503 335.142 213.908 333.693 213.328C332.58 212.883 332.101 214.68 333.198 215.119C334.501 215.641 335.779 216.187 336.992 216.898ZM340.74 285.919C341.778 286.52 342.713 284.914 341.678 284.315C340.225 283.473 338.633 282.911 337.127 282.175C336.056 281.65 335.114 283.253 336.189 283.779C337.695 284.515 339.287 285.077 340.74 285.919ZM342.426 246.74C341.422 247.692 340.083 248.141 338.82 248.641C337.719 249.077 338.202 250.873 339.315 250.432C340.888 249.809 342.491 249.24 343.741 248.053C344.61 247.228 343.293 245.916 342.426 246.74ZM331.324 193.531C330.221 193.964 330.704 195.76 331.819 195.323C333.054 194.838 334.331 194.47 335.567 193.985C336.67 193.553 336.187 191.757 335.072 192.194C333.836 192.678 332.56 193.047 331.324 193.531ZM311.74 172.397C310.567 172.199 310.068 173.99 311.245 174.188C312.706 174.435 314.144 174.723 315.529 175.259C316.647 175.691 317.127 173.894 316.023 173.467C314.638 172.932 313.2 172.643 311.74 172.397ZM305.269 223.854C306.343 223.326 305.4 221.724 304.33 222.25C303.203 222.804 302.035 223.232 300.804 223.494C299.633 223.743 300.132 225.534 301.299 225.285C302.683 224.99 304.001 224.477 305.269 223.854ZM299.157 194.869C298 194.552 297.51 196.345 298.663 196.66C300.69 197.215 302.778 197.504 304.82 197.998C305.984 198.279 306.477 196.488 305.315 196.207C303.272 195.712 301.184 195.424 299.157 194.869ZM273.23 185.773C272.053 185.991 272.554 187.781 273.724 187.565C274.969 187.334 276.23 187.331 277.492 187.33C278.691 187.33 278.689 185.472 277.492 185.472C276.059 185.473 274.643 185.512 273.23 185.773ZM188.671 195.479C191.708 195.189 194.75 194.956 197.797 194.782C197.939 194.775 198.078 194.766 198.22 194.759C198.236 194.726 198.257 194.696 198.278 194.663C199.272 193.205 200.004 191.747 200.639 190.098C201.245 188.528 201.833 186.91 202.768 185.493C203.833 183.879 205.272 182.616 206.848 181.522C207.805 182.164 208.692 182.917 209.504 183.714C210.359 184.553 211.673 183.24 210.819 182.401C210.097 181.692 209.327 181.037 208.513 180.446C209.453 179.875 210.412 179.338 211.348 178.805C214.855 176.806 218.445 174.957 222.11 173.267C223.813 172.479 225.538 171.78 227.274 171.072C228.208 170.691 229.13 170.201 230.065 169.76C229.997 169.1 230.195 168.362 230.701 167.927C231.076 167.609 231.366 167.491 231.812 167.266C231.912 167.231 231.973 167.21 232.001 167.198C231.98 167.203 231.919 167.221 231.819 167.254C231.582 167.363 231.564 167.331 231.763 167.159C231.775 166.783 232.517 165.989 232.686 165.601C233.276 164.27 233.46 162.863 234.331 161.65C235.533 159.981 237.55 159.349 239.43 159.916C239.625 157.907 239.677 155.81 240.434 154.017C240.455 153.969 240.522 153.948 240.553 154.001C241.343 155.346 241.41 156.843 241.471 158.395C241.529 159.851 241.473 161.339 241.282 162.786C241.403 162.879 241.526 162.967 241.654 163.053C242.254 163.448 242.9 163.752 243.578 163.978C244.871 164.405 246.225 164.59 247.58 164.655C251.078 164.823 254.682 164.47 258.122 163.87C261.601 163.264 266.934 162.354 270.03 160.615C272.073 159.468 273.957 158.067 275.868 156.711C275.175 154.482 274.998 152.085 275.695 150.202C275.779 149.977 276.132 149.935 276.2 150.202C276.637 151.999 276.764 153.806 277.345 155.582C277.355 155.608 277.364 155.636 277.373 155.661C277.554 155.539 277.736 155.418 277.917 155.297C278.335 155.02 278.905 155.227 279.156 155.622C283.169 161.941 289.525 162.303 296.199 163.432C303.504 164.667 310.845 166 317.868 168.417C324.584 170.731 331.003 174.098 336.088 179.128C337.239 180.267 338.315 181.48 339.331 182.747C338.348 182.871 337.373 183.063 336.411 183.365C335.271 183.723 335.761 185.516 336.905 185.157C338.142 184.769 339.393 184.577 340.656 184.481C344.111 189.204 346.805 194.559 349.134 199.83C353.602 209.937 356.511 220.7 357.849 231.658C357.114 231.218 356.366 230.799 355.6 230.409C354.534 229.868 353.595 231.471 354.661 232.013C355.846 232.615 356.996 233.279 358.11 233.998C358.597 238.795 358.786 243.622 358.672 248.442C358.4 259.932 356.847 271.76 353.336 282.723C351.614 288.104 349.332 293.44 345.932 297.987C344.393 300.047 342.646 301.905 340.587 303.454C339.59 304.206 338.535 304.877 337.422 305.444C335.988 306.178 334.119 306.419 332.883 307.457C332.476 307.799 332.162 308.249 331.925 308.758C332.063 309.724 332.079 310.692 331.814 311.658C331.73 311.96 331.502 312.206 331.221 312.325C331.217 312.408 331.217 312.489 331.217 312.568C331.217 312.606 331.161 312.615 331.154 312.578C331.142 312.506 331.131 312.434 331.119 312.36C331.028 312.39 330.933 312.404 330.836 312.404C327.305 312.417 323.771 312.331 320.236 312.211C320.51 311.375 320.806 310.545 321.09 309.708C321.476 308.572 319.68 308.089 319.297 309.215C318.965 310.193 318.617 311.162 318.308 312.144C314.52 312.003 310.734 311.834 306.955 311.709C298.916 311.442 290.88 311.354 282.839 311.185C270.353 310.92 257.775 310.379 245.269 310.908C244.836 309.991 244.352 309.095 243.893 308.19C243.352 307.122 241.748 308.063 242.288 309.128C242.607 309.756 242.937 310.377 243.251 311.005C240.719 311.136 238.188 311.31 235.663 311.547C231.355 311.951 227.088 312.668 222.784 313.114C218.408 313.569 214.127 313.488 209.786 312.766C209.005 312.636 208.545 312.164 208.354 311.579C208.348 311.577 208.343 311.572 208.338 311.565C208.115 311.305 207.906 311.089 207.69 310.901C207.432 310.734 207.153 310.592 206.825 310.467C206.214 310.235 205.577 310.093 204.931 309.998C204.22 309.891 203.5 309.882 202.789 309.794C202.189 309.717 201.603 309.603 201.018 309.464C199.965 309.213 198.966 308.886 197.971 308.451C197.104 308.073 196.321 307.529 195.582 306.937C194.053 305.82 192.728 304.394 191.571 302.913C190.897 302.046 190.262 301.148 189.686 300.212C188.682 298.591 187.827 296.907 186.963 295.21C186.649 294.707 186.362 294.192 186.101 293.666C187.79 293.168 189.496 292.763 191.287 292.734C192.484 292.715 192.484 290.857 191.287 290.876C189.233 290.909 187.29 291.388 185.359 291.96C185.265 291.71 185.175 291.459 185.092 291.204C184.862 290.672 184.671 290.126 184.513 289.574C184.42 289.323 184.327 289.072 184.234 288.821C184.025 287.953 183.816 287.082 183.604 286.211C183.184 284.818 182.852 283.403 182.607 281.971C182.403 281.028 182.245 280.078 182.138 279.117C181.813 276.787 181.548 274.463 181.529 272.108C181.557 270.657 181.65 269.207 181.808 267.765C181.875 266.785 181.989 265.81 182.143 264.842C182.342 263.402 182.54 261.976 182.872 260.555C183.121 259.594 183.37 258.632 183.618 257.671C184.239 255.667 184.971 253.702 185.815 251.781C185.861 251.661 186.096 251.396 186.237 251.394C186.344 251.391 186.493 251.489 186.445 251.619C186.44 251.63 186.435 251.644 186.43 251.656C186.479 251.547 186.526 251.435 186.574 251.326C186.616 251.224 186.779 251.02 186.904 251.022C186.911 251.022 186.919 251.022 186.928 251.024C186.895 251.001 186.865 250.971 186.835 250.936C186 249.949 185.459 248.651 184.862 247.508C184.367 246.566 183.9 245.572 183.765 244.506C183.646 243.57 183.807 242.648 184.395 241.891C185.064 241.029 186.323 240.625 185.624 239.381C184.829 237.964 183.66 236.736 184.824 235.126C185.417 234.306 186.356 233.856 187.053 233.143C187.855 232.319 188.236 231.216 188.215 230.089C188.166 230.117 188.101 230.103 188.078 230.034C187.404 227.999 187.892 225.765 188.582 223.784C188.959 222.709 189.756 222.414 190.683 222.361C186.668 214.524 182.91 206.56 179.561 198.414C179.449 198.147 179.34 197.88 179.231 197.613C179.068 197.213 179.412 196.682 179.809 196.593C182.705 195.959 185.722 195.757 188.671 195.479Z"
              fill="#1B1B1B"
            />
            <path
              fill-rule="evenodd"
              clip-rule="evenodd"
              d="M255.048 50.8519C241.88 50.8519 225.388 65.8933 220.561 72.294C216.503 77.6754 217.077 105.399 217.077 121.844C217.077 125.283 218.63 131.793 219.193 135.083C221.259 147.139 230.257 157.25 248.067 157.25C262.569 157.25 273.728 152.65 284.52 140.886C286.982 138.202 299.006 147.81 301.465 144.35C307.888 144.35 313.259 84.2556 300.648 66.2307C288.037 48.2059 268.215 50.8519 255.048 50.8519Z"
              fill="#E0B496"
            />
            <path
              fill-rule="evenodd"
              clip-rule="evenodd"
              d="M294.625 55.0847C287.016 48.1528 276.879 44.8181 266.652 45.0643C261.356 45.192 256.077 46.2022 251.075 47.9322C248.573 48.8008 246.15 49.934 243.833 51.2159C242.998 51.6768 242.228 52.2168 241.487 52.7903L241.303 52.9344H241.3C239.313 53.6496 237.539 54.9338 235.93 56.4363C232.704 56.1785 229.452 56.4688 226.333 57.465C221.992 58.8537 217.973 61.3966 215.151 65.0077C211.864 69.2117 210.771 74.3111 211.161 79.5753L211.233 80.4695C211.618 85.1197 212.309 91.101 216.12 94.1565C216.41 94.3887 216.73 94.5652 217.062 94.672C214.606 98.8846 212.591 103.562 211.385 108.285C206.782 126.327 210.32 145.141 215.856 162.53C216.31 163.963 218.474 164.915 219.576 163.515C221.542 161.012 224.399 159.103 227.614 158.745C229.596 158.524 231.57 158.924 233.444 158.023C234.179 157.668 234.888 157.087 235.399 156.381C238.562 157.582 241.968 158.148 245.347 158.009C250.892 157.781 256.819 155.859 260.634 151.641C261.247 150.964 261.402 150.204 261.261 149.519C260.782 149.348 260.291 149.221 259.785 149.141C254.948 151.996 249.615 153.904 243.884 154.024C240.573 154.093 237.343 153.629 234.658 151.559C234.077 151.111 233.543 150.614 233.049 150.081C227.435 146.465 223.477 140.323 221.596 133.744C219.842 127.608 220.058 121.22 220.661 114.927L220.979 111.606C221.443 106.732 221.873 101.843 221.994 96.9478L221.957 96.946C220.772 96.8693 220.763 95.0109 221.957 95.0882C225.046 95.2884 228.111 94.781 231.19 95.002C231.216 93.5444 231.321 92.0932 231.749 90.6873C231.993 89.884 233.39 89.7257 233.538 90.6873C233.736 91.9738 233.808 93.2532 233.83 94.5455C238.438 94.4842 243.042 94.0959 247.65 94.2554C248.501 93.3474 248.771 91.7374 249.169 90.6174C249.227 90.4525 249.285 90.29 249.345 90.1251C249.695 91.7256 250.19 93.291 250.842 94.8234L251.972 94.8273C258.385 94.8574 264.929 95.0494 271.192 96.3831C271.627 96.0484 271.886 95.4646 271.956 94.9345C272.41 91.4846 273.058 88.1264 274.207 84.8388L274.372 84.375C274.385 84.3365 274.399 84.2956 274.414 84.2526C275.261 85.6211 276.271 86.8967 277.373 88.0845C278.022 88.7847 278.703 89.4542 279.402 90.1047C280.081 90.8594 280.782 91.6027 281.462 92.3598C281.435 92.4975 281.412 92.6373 281.393 92.7796C281.185 94.3506 281.164 95.9439 281.316 97.521C281.592 100.372 282.396 103.119 283.687 105.661L283.728 105.915C283.924 107.106 284.203 108.337 284.854 109.234C284.041 110.146 283.415 111.236 283.052 112.446C282.728 113.524 284.217 114.458 284.99 113.576C285.603 112.875 286.285 112.296 287.033 111.833C287.08 111.897 287.166 111.929 287.262 111.875C289.346 110.716 292.888 111.067 294.97 112.159C297.56 113.515 298.572 116.299 298.284 119.121C298.008 121.817 296.83 124.968 294.546 126.35C293.497 126.984 292.681 127.037 291.568 126.733C291.212 126.636 290.771 126.339 290.581 126.192L290.395 126.042C289.665 125.465 288.986 125.069 288.124 125.054C287.243 124.779 286.358 125.16 286.021 126.086L286 126.145C285.842 126.617 285.555 127.209 285.617 127.929C285.682 128.7 286.035 129.401 286.561 129.965C286.652 130.063 286.749 130.161 286.849 130.251C277.781 140.081 276.617 155.399 281.267 167.679C281.469 168.217 281.684 168.749 281.909 169.276C282.686 171.083 285.678 170.523 286.058 168.733C286.172 168.197 286.297 167.662 286.434 167.133C286.685 166.155 286.973 165.185 287.298 164.23L287.422 163.873C287.698 163.083 287.955 162.286 288.233 161.497L288.261 161.407C288.271 161.371 288.283 161.33 288.296 161.283L288.767 162.312L290.197 165.417C290.867 166.866 292.994 166.078 293.073 164.682L293.075 164.634C293.082 164.377 293.092 164.121 293.108 163.868C293.21 161.971 293.537 160.127 294.056 158.322L294.244 158.556C297.034 162.011 300.31 165.249 304.803 166.046C305.93 166.246 307.205 165.066 306.431 163.926C306.111 163.455 305.802 162.972 305.51 162.482C305.763 162.363 306.002 162.24 306.222 162.115C307.927 161.156 309.346 159.79 310.519 158.241C313.008 154.957 313.898 150.824 314.116 146.779C314.348 142.503 313.972 137.996 312.806 133.872C312.3 132.088 311.616 130.377 310.825 128.716C310.881 128.568 310.934 128.419 310.988 128.27C311.841 125.888 312.541 123.452 313.123 120.988C314.297 116.013 314.928 110.881 315.004 105.77C315.143 96.6134 313.566 87.3105 310.243 78.7716C306.811 69.9657 301.649 61.4825 294.625 55.0847ZM298.898 135.142C299.529 134.148 301.106 135.044 300.52 136.044L300.499 136.08C299.499 137.657 299.031 139.45 298.456 141.207C298.087 142.338 296.294 141.855 296.668 140.713L296.791 140.331C297.363 138.549 297.886 136.737 298.898 135.142ZM293.409 116.174L292.991 115.971C291.67 115.34 290.513 114.91 288.952 115.461C286.863 116.197 284.625 118.54 286.037 120.814C286.557 121.652 287.48 121.986 288.43 121.789C290.033 121.456 290.447 120.011 291.26 118.824L291.4 118.623C291.896 117.905 292.523 116.913 293.349 116.631C293.537 116.566 293.616 116.274 293.409 116.174ZM292.232 67.9038L292.097 67.7828C291.199 66.9886 292.516 65.6788 293.409 66.4684C297.495 70.0841 298.915 75.7434 301.034 80.5667C301.51 81.6512 299.912 82.5987 299.432 81.5049C297.41 76.9023 296.068 71.3966 292.232 67.9038ZM243.128 66.3221C244.196 65.8403 245.13 67.3962 244.103 67.9085L244.065 67.9268C240.456 69.5593 238.921 73.2563 237.451 76.6886C236.982 77.7847 235.385 76.8395 235.848 75.7527L236.114 75.1369C237.648 71.5998 239.437 67.9944 243.128 66.3221ZM237.472 64.0881C238.603 63.6956 239.088 65.4884 237.966 65.8809C234.907 66.9468 232.808 69.2458 231.039 71.8746C230.375 72.8592 228.768 71.9303 229.439 70.9364C231.493 67.885 233.933 65.3235 237.472 64.0881Z"
              fill="black"
            />
            <path
              fill-rule="evenodd"
              clip-rule="evenodd"
              d="M243.532 140.943C245.094 140.306 246.488 139.244 247.507 137.887C247.862 137.415 247.954 136.917 247.879 136.461C247.796 135.949 247.492 135.485 247.079 135.173C246.664 134.861 246.145 134.707 245.643 134.785C245.207 134.854 244.773 135.092 244.429 135.587L244.358 135.686C243.752 136.505 242.962 137.177 242.063 137.61C241.196 138.028 240.226 138.223 239.222 138.109C237.311 137.893 235.994 136.861 234.594 135.458C234.42 135.281 234.247 135.098 234.072 134.913C233.962 134.745 233.809 134.636 233.639 134.58C233.451 134.517 233.237 134.52 233.042 134.588C232.854 134.654 232.685 134.779 232.572 134.944C232.465 135.102 232.404 135.296 232.424 135.52C232.552 136.974 233.313 138.271 234.393 139.289C235.592 140.421 237.183 141.203 238.68 141.478C240.33 141.78 242.01 141.564 243.532 140.943ZM237.902 118.52C236.147 119.586 233.473 122.071 235.361 124.714C237.583 127.044 240.783 124.372 242.359 123.164C243.821 122.228 245.464 124.636 244.107 125.729C232.715 134.158 228.091 118.798 237.014 117.266C237.997 117.098 238.362 118.19 237.902 118.52ZM258.318 108.715C258.124 106.31 254.459 105.764 254.094 108.144C253.767 110.276 254.152 112.234 255.113 114.153C256.031 115.987 258.339 115.131 258.513 113.462C258.747 111.224 258.439 110.211 258.318 108.715ZM230.416 107.65C229.905 106.982 229.167 106.525 228.283 106.783C225.521 107.589 226.335 111.508 227.305 113.415C227.832 114.451 229.536 114.713 230.306 113.801C231.561 112.314 232.162 109.344 230.566 107.88C230.523 107.804 230.475 107.727 230.416 107.65ZM255.152 98.1916L254.715 98.1153C253.366 97.882 251.687 97.6579 250.733 98.7422C250.226 99.3172 250.052 100.386 250.733 100.936C251.93 101.905 253.254 101.529 254.689 101.611C255.871 101.679 257.007 101.875 258.146 102.2C260.645 102.914 262.681 104.216 264.815 105.647C265.095 105.835 265.381 105.477 265.247 105.215C264.015 102.804 261.628 100.823 259.237 99.6158C257.96 98.9714 256.564 98.4368 255.152 98.1916ZM232.934 97.1115L232.6 97.1798C228.966 97.9388 224.244 99.4551 222.523 103.022C222.458 103.526 222.527 103.634 222.583 103.705L222.602 103.729C222.649 103.789 222.686 103.872 222.904 103.941C222.965 103.926 223.026 103.911 223.088 103.895C223.877 103.688 224.501 103.403 225.106 103.108L225.761 102.786C226.521 102.413 227.287 102.054 228.1 101.79C229.834 101.224 231.618 100.826 233.429 100.614C233.822 100.567 234.2 100.435 234.498 100.208C234.781 99.9928 234.998 99.6945 235.096 99.2981C235.224 98.7851 235.187 98.3968 234.912 97.934C234.705 97.5864 234.408 97.3455 234.068 97.2072C233.721 97.0661 233.326 97.0329 232.934 97.1115Z"
              fill="black"
            />
          </svg>