<svg viewBox="0 0 844 972" fill="none" xmlns="http://www.w3.org/2000/svg">
<path d="M420.368 510.191V801.499H129.06V510.191H420.368ZM462.384 468.175H87.0261V843.533H462.384V468.175Z" fill="#D8A401"/>
<path d="M373.659 560.06H178.929V754.79H373.659V560.06Z" fill="#D8A401"/>
<path d="M243.934 626.314H179.018L178.84 559.971H243.738L243.934 626.314Z" fill="#AA802D"/>
<path d="M309.028 692.658H244.112L243.934 626.314H308.832L309.028 692.658Z" fill="#AA802D"/>
<path d="M373.747 626.314H308.832L308.653 559.971H373.551L373.747 626.314Z" fill="#AA802D"/>
<path d="M375.175 820.776L245.433 971.026L245.13 904.807L154.369 903.576C131.88 903.272 109.515 899.006 88.9538 889.993C34.8901 866.308 4.81506 818.669 0.281494 745.508L87.4902 745.383L108.391 745.508L244.237 746.275V678.611L375.175 820.776Z" fill="white"/>
<path d="M0.263749 745.508C0.228052 745.276 0.210205 745.026 0.210205 744.794L87.0262 663.743V745.418" fill="#CCE2F7"/>
<path fill-rule="evenodd" clip-rule="evenodd" d="M331.135 509.725C336.452 489.106 341.342 480.364 350.787 473.197C359.622 466.494 372.519 460.864 391.338 456.751C410.938 453.325 411.493 443.14 416.408 426.77C417.842 421.849 424.946 420.54 428.012 424.087C428.445 423.62 428.895 423.193 429.362 422.807C428.945 420.46 432.362 413.733 432.248 411.488C431.056 388.055 438.723 376.287 457.857 371.913C462.018 370.961 490.282 370.401 494.339 371.523C512.077 376.426 529.538 391.993 526.866 410.746C532.433 418.021 537.883 422.461 546.472 424.805C559.849 426.503 553.13 615.981 529.897 729.497C519.929 778.202 281.582 695.304 292.352 670.911C290.825 666.439 293.608 661.525 292.352 656.908C291.443 653.566 289.115 652.184 287.943 648.875C286.295 644.219 288.088 637.973 289.944 633.221C290.705 630.853 288.544 628.304 287.943 625.888C285.095 614.491 291.617 615.495 296.319 607.876C296.249 607.853 295.026 602.413 295.032 602.44C294.312 598.557 296.116 593.582 297.689 590.34C298.752 588.149 301.03 586.778 303.293 587.03C301.014 579.294 298.131 572.857 295.032 565.404C289.55 552.266 284.337 538.523 276.466 526.631C273.242 521.762 275.846 517.284 281.062 516.952C297.947 515.879 314.646 513.449 331.135 509.725Z" fill="#E0B496"/>
<path fill-rule="evenodd" clip-rule="evenodd" d="M357.493 511.318L396.034 576.536C396.034 576.536 386.891 577.449 383.191 579.226C379.491 581.003 362.501 602.599 362.501 602.599L359.802 614.491L366.198 624.078L363.704 630.098C363.704 630.098 361.924 626.02 357.493 622.854C353.062 619.688 343.289 614.491 343.289 614.491C343.289 614.491 346.537 612.754 346.537 610.714C346.537 608.675 349.397 599.975 343.289 596.688C337.182 593.402 305.619 585.71 305.619 585.71L273.632 518.245L357.493 511.318Z" fill="#BCDDFF"/>
<path fill-rule="evenodd" clip-rule="evenodd" d="M529.426 425.248L407.044 446.724L350.787 473.197L341.604 480.271L396.034 576.536L480.079 591.869L501.492 647.479L497.121 710.163L360.396 693.864L301.42 686.857L287.556 742.82L290.06 765.842L293.703 777.516L439.91 816.985C439.91 816.985 514.361 809.769 527.558 809.769C540.756 809.769 637.519 819.377 637.519 819.377L659.907 816.985C659.907 816.985 709.441 764.784 717.124 746.206C724.806 727.628 741.419 614.695 741.419 614.695L739.59 597.342L696.794 487.221C696.794 487.221 691.079 482.032 683.874 473.197C676.669 464.362 529.426 425.248 529.426 425.248Z" fill="#9DDADB"/>
<path fill-rule="evenodd" clip-rule="evenodd" d="M307.927 584.32C318.987 584.882 330.059 587.511 340.064 592.275C344.157 594.227 347.866 597.045 348.952 601.681C349.501 604.049 349.367 606.495 349.075 608.886C348.854 610.698 348.8 613.01 347.226 614.236C346.957 614.443 346.671 614.602 346.372 614.718C350.062 616.383 353.577 618.385 356.7 620.446C359.554 622.331 362.489 625.235 363.806 628.511C363.916 628.139 364.026 627.791 364.136 627.461C366.381 620.825 369.84 615.389 375.287 611.735C375.906 609.481 382.545 599.778 388.712 600.144C395.465 600.541 400.897 601.035 407.004 604.14C409.23 604.091 411.451 604.121 413.646 604.219C414.024 604.231 414.006 604.744 413.646 604.786C411.865 605.013 410.084 605.262 408.302 605.555C404.069 606.233 399.847 607.092 395.718 608.16C390.764 609.442 385.64 610.728 381.009 612.967C372.03 617.317 366.472 628.688 367.613 638.582C367.802 640.205 368.43 645.11 370.682 644.603C372.585 644.176 373.341 640.205 374.006 638.735C375.787 634.831 378.996 632.281 382.846 630.554C387.366 628.523 392.204 627.15 396.889 625.553C399.542 624.644 402.196 623.734 404.856 622.831C407.576 621.898 410.163 620.611 413.061 621.263C414.811 621.66 415.013 623.746 414.031 624.943C412.536 626.766 410.315 627.303 408.162 628.053C405.319 629.041 402.483 630.03 399.646 631.018C395.26 632.543 390.666 633.83 386.391 635.697L386.524 636.002C386.872 635.904 387.281 636.252 387.213 636.679C386.573 640.626 385.682 645.189 386.671 649.143C387.451 652.278 390.203 655.749 393.777 654.828C393.216 654.315 393.009 653.431 393.387 652.613C394.803 649.587 413.347 637.643 415.001 642.078C415.055 642.236 414.885 642.352 414.75 642.329C413.341 642.035 410.98 644.439 409.852 645.201C408.224 646.3 406.57 647.373 404.959 648.501C403.196 649.734 401.476 651.028 399.798 652.363C398.481 653.413 397.486 654.504 395.974 655.036C396.767 655.413 397.396 656.115 397.663 657.011C398.347 659.348 399.664 661.331 401.952 662.362C404.349 663.435 407.052 662.758 409.577 663.021C413.018 663.368 416.019 665.004 418.527 667.34C423.791 672.256 426.433 680.919 433.796 683.243C438.194 684.628 443.074 683.755 447.528 683.127C452.499 682.426 457.343 681.87 462.351 682.602C467.146 683.305 471.679 684.963 476.059 686.989C480.165 688.886 484.703 691.034 488.345 693.864C489.095 691.552 489.852 689.264 490.426 686.903C491.78 681.322 492.512 675.636 492.689 669.902C492.853 664.442 492.548 658.958 492.079 653.522C491.847 650.807 491.481 648.105 491.249 645.39C491.188 644.707 491.066 643.975 490.974 643.244C484.471 639.406 477.64 636.466 470.752 633.44C470.733 633.434 470.715 633.421 470.697 633.416C470.483 633.318 470.276 633.227 470.062 633.135C470.068 633.122 470.075 633.111 470.087 633.098C469.3 632.617 468.751 631.976 468.421 631.256C458.496 624.674 450.2 615.688 444.014 605.207C441.421 600.815 438.926 596.258 435.534 592.409C431.923 588.303 427.634 585.863 422.327 584.594C416.123 583.106 409.73 582.215 403.373 581.709C399.902 581.435 396.023 581.007 392.24 581.026C389.605 581.044 387.025 581.27 384.657 581.922C381.15 582.886 379.1 585.553 376.898 588.248C374.793 590.835 372.701 593.428 370.736 596.124C368.876 598.68 367.119 601.321 365.594 604.091C364.679 605.75 363.831 607.459 363.117 609.221C362.867 609.844 362.538 610.551 362.385 611.198C362.233 611.851 362.513 612.541 361.781 612.541C364.801 612.583 366.808 620.112 363.806 619.935C359.586 619.69 357.465 614.631 358.292 610.142C359.767 602.134 367.734 592.463 369.31 590.414C372.793 585.887 376.385 579.982 381.961 577.878C382.04 577.847 382.126 577.817 382.205 577.792C380.582 576.255 379.301 574.413 378.075 572.54C376.812 570.612 375.306 568.404 374.891 566.116C374.628 564.659 376.44 563.829 377.3 565.104C378.551 566.964 379.155 569.319 380.088 571.363C381.04 573.437 382.199 575.395 383.114 577.487C385.316 576.81 387.695 576.5 390.117 576.396C387.061 572.26 381.84 564.28 381.211 563.255C378.319 558.509 375.568 553.617 372.939 548.718C370.096 543.411 367.662 537.884 364.941 532.515C363.398 529.472 361.842 526.403 360.128 523.45C359.536 522.438 358.902 521.425 358.182 520.504C358.042 520.321 357.865 520.169 357.7 519.998C357.511 519.894 357.316 519.778 357.206 519.718C356.218 519.15 355.87 517.833 355.175 516.996C354.064 515.649 352.759 515.49 351.087 515.471C347.525 515.435 343.95 515.575 340.393 515.672C335.165 515.819 329.943 516.026 324.721 516.301C323.141 516.386 321.568 516.472 319.988 516.569C312.393 517.021 304.804 517.612 297.233 518.339C290.535 518.979 283.837 520.023 277.133 520.523C286.21 542.088 296.276 563.262 307.672 583.698C307.787 583.905 307.873 584.112 307.927 584.32ZM358.292 639.876C359.756 640.547 361.177 641.382 362.501 642.335C362.281 640.852 362.226 639.29 362.287 637.722C361.195 638.893 359.798 639.564 358.292 639.876ZM295.794 602.78C295.897 602.792 295.995 602.846 296.044 602.95C298.069 607.129 297.222 611.796 293.915 615.072C292.182 616.78 288.406 618.707 288.529 621.514C288.632 623.783 291.102 625.686 292.158 627.559C293.14 629.304 293.506 631.219 292.719 633.111C291.712 635.532 288.9 636.496 287.936 638.876C286.716 641.895 288.699 645.537 290.09 648.166C291.383 650.6 293.055 653.034 294.165 655.608C301.601 659.458 318.475 666.449 320.507 666.84C322.983 667.321 325.466 667.779 327.955 668.206C332.732 669.035 337.52 669.804 342.321 670.481C345.054 670.865 347.793 671.244 350.532 671.543C352.923 671.799 355.62 672.146 357.547 670.347C361.433 666.711 359.256 660.617 356.797 656.944C356.748 656.872 356.748 656.804 356.767 656.743C354.448 656.2 352.136 655.566 349.83 655.12C345.396 654.266 340.93 653.547 336.458 652.907C327.271 651.594 318.023 650.728 308.788 649.856C306.5 649.636 306.476 646.038 308.788 646.251C322.056 647.465 335.391 648.617 348.482 651.174C351.764 651.808 355.022 652.528 358.261 653.339C359.792 653.718 361.433 654.31 363.038 654.328C363.135 654.328 363.234 654.328 363.331 654.321C366.472 654.224 366.93 651.534 365.203 649.295C364.99 649.02 364.77 648.745 364.545 648.484C361.494 644.847 357.694 642.419 353.778 639.906C349.391 639.308 345.017 637.978 340.723 637.002C330.12 634.587 319.518 632.171 308.909 629.761C306.83 629.285 307.714 626.089 309.794 626.559C317.846 628.383 325.899 630.207 333.952 632.031L345.737 634.703C348.092 635.233 351.033 636.301 353.802 636.686C355.168 636.874 356.492 636.899 357.688 636.619C361.549 635.704 361.744 630.878 360.079 628.01C358.212 624.79 354.686 622.776 351.557 620.952C346.134 617.786 340.363 615.511 334.726 612.888C333.726 612.668 332.725 612.448 331.725 612.229C325.905 610.948 319.256 610.319 313.777 607.971C312.136 607.275 313.034 604.689 314.656 604.725C318.908 604.817 323.355 606.33 327.509 607.227C332.005 608.203 336.507 609.173 341.003 610.142C341.455 610.24 344.127 611.094 344.529 610.905C344.785 610.783 344.877 609.893 344.962 609.307C345.238 607.379 345.438 605.354 345.139 603.42C344.48 599.083 340.863 597.045 337.203 595.38C329.053 591.677 320.116 589.359 311.221 588.431C309.172 588.218 307.122 588.084 305.06 588.016C302.639 587.943 300.643 587.516 299.417 589.901C297.489 593.659 296.428 598.491 295.794 602.78ZM307.112 739.028C308.888 732.886 308.405 726.328 309.621 720.064C310.249 716.832 311.106 713.625 312.042 710.47C312.797 707.921 314.057 705.21 314.2 702.551C314.208 702.373 313.999 702.271 313.855 702.352C311.349 703.787 309.425 706.889 307.997 709.323C306.286 712.236 304.98 715.286 303.927 718.493C301.827 724.882 300.103 732.589 302.811 739.028C303.617 740.944 306.447 741.328 307.112 739.028ZM376.417 785.522C379.063 783.676 380.992 781.094 383.236 778.815C385.443 776.575 381.993 773.124 379.785 775.365C377.87 777.308 376.208 779.736 373.954 781.308C372.87 782.064 372.368 783.431 373.078 784.647C373.707 785.72 375.335 786.277 376.417 785.522ZM391.175 714.546C386.344 712.458 381.593 710.183 376.537 708.678C373.516 707.779 372.236 712.49 375.24 713.384C379.896 714.77 384.263 716.837 388.712 718.76C391.568 719.995 394.05 715.789 391.175 714.546ZM442.192 713.085C443.374 710.17 438.65 708.914 437.486 711.788C436.146 715.095 434.61 718.318 433.27 721.626C432.089 724.541 436.812 725.797 437.976 722.923C439.316 719.616 440.853 716.393 442.192 713.085ZM492.548 771.294C493.335 772.343 494.647 772.911 495.886 772.17C496.925 771.547 497.558 769.893 496.762 768.831C494.436 765.731 492.079 762.668 489.353 759.904C487.143 757.663 483.694 761.116 485.902 763.355C488.337 765.823 490.47 768.525 492.548 771.294ZM499.748 444.686C497.508 446.216 495.545 448.075 493.632 449.987C491.407 452.211 494.858 455.661 497.083 453.438C498.696 451.826 500.322 450.19 502.211 448.9C503.303 448.155 503.792 446.768 503.087 445.562C502.454 444.481 500.837 443.943 499.748 444.686ZM426.488 523.22C427.755 525.756 428.895 528.242 428.967 531.125C429.044 534.264 433.924 534.266 433.846 531.125C433.753 527.353 432.362 524.082 430.702 520.757C429.298 517.943 425.09 520.418 426.488 523.22ZM399.609 460.147C396.985 458.398 394.544 462.627 397.145 464.361C399.253 465.766 401.362 467.172 403.47 468.578C406.093 470.326 408.534 466.097 405.934 464.364C403.825 462.958 401.717 461.553 399.609 460.147ZM516.196 570.425C516.643 573.526 521.346 572.2 520.902 569.128C520.216 564.381 519.378 559.696 518.09 555.072C517.247 552.046 512.541 553.34 513.385 556.37C514.672 560.994 515.51 565.678 516.196 570.425ZM533.307 626.329C536.448 626.262 536.448 621.382 533.307 621.448C530.464 621.509 527.669 622.257 524.927 622.941C521.877 623.703 523.177 628.408 526.225 627.647C528.543 627.068 530.903 626.38 533.307 626.329ZM539.623 738.941C540.702 739.466 541.809 739.939 542.9 740.438C545.084 741.437 547.268 742.437 549.45 743.439C553.998 745.526 558.542 747.621 563.083 749.722C572.172 753.93 581.332 757.989 590.444 762.15C599.735 766.395 609.002 770.696 618.258 775.019C622.618 777.054 627.012 779.016 631.397 780.998C635.146 782.693 639.78 785.656 643.896 785.935C644.108 785.949 644.179 785.681 644.058 785.544C642.503 783.776 640.022 782.747 637.979 781.598C635.891 780.423 633.765 779.318 631.648 778.197C627.235 775.859 622.816 773.54 618.361 771.284C609.448 766.774 600.518 762.296 591.587 757.824C582.478 753.263 573.38 748.671 564.191 744.272C559.865 742.2 555.534 740.136 551.201 738.077C548.854 736.961 546.505 735.848 544.157 734.737C543.142 734.257 542.138 733.739 541.101 733.309C539.723 732.739 538.675 732.855 537.254 732.504C534.936 731.932 533.932 734.879 535.712 736.163C537.177 737.22 537.948 738.124 539.623 738.941ZM572.203 788.983C572.704 787.766 571.655 786.286 570.499 785.981C569.113 785.616 568.002 786.458 567.497 787.685C566.159 790.94 564.253 793.926 561.8 796.448C559.608 798.701 563.057 802.154 565.251 799.899C568.325 796.738 570.533 793.043 572.203 788.983ZM596.172 710.648C598.397 708.423 594.945 704.973 592.721 707.197L586.396 713.521C584.171 715.746 587.623 719.197 589.847 716.972L596.172 710.648ZM661.061 700.336C665.609 701.67 670.912 702.896 674.012 706.775C674.164 706.965 674.418 706.721 674.327 706.532C670.358 698.304 658.976 695.418 651.096 692.536C645.522 690.496 639.803 688.805 634.036 687.295C634.612 680.716 633.022 673.664 632.47 667.117C631.88 660.128 631.4 653.119 631.153 646.108C630.901 638.955 630.84 631.754 631.076 624.6C631.31 617.471 632.235 610.43 632.64 603.326C632.679 602.639 631.723 602.606 631.517 603.174C629.122 609.767 628.099 617.069 627.319 624.021C626.516 631.182 626.25 638.322 626.352 645.525C626.458 652.931 626.889 660.319 627.48 667.701C627.76 671.2 628.085 674.695 628.392 678.191C628.626 680.86 628.735 683.507 629.279 686.09C625.801 685.237 622.314 684.429 618.839 683.644C607.757 681.143 596.629 678.823 585.593 676.118C580.176 674.792 574.836 673.202 569.444 671.79C564.366 670.461 559.006 668.849 553.793 668.256C551.932 668.044 551.695 670.589 552.927 671.453C557.164 674.428 562.792 676.5 567.686 678.165C572.598 679.836 577.704 681.038 582.739 682.276C593.238 684.858 603.837 686.97 614.42 689.169C624.988 691.366 635.576 693.546 646.026 696.256C651.058 697.562 656.073 698.872 661.061 700.336ZM685.979 569.775C688.697 571.37 691.149 567.15 688.442 565.56C684.9 563.481 681.124 561.919 677.318 560.395C674.397 559.226 673.141 563.948 676.021 565.102C679.441 566.471 682.796 567.907 685.979 569.775ZM695.818 751.086C698.542 752.666 700.997 748.447 698.281 746.873C694.466 744.661 690.287 743.186 686.334 741.251C683.521 739.873 681.05 744.084 683.871 745.465C687.824 747.4 692.003 748.875 695.818 751.086ZM700.243 648.165C697.609 650.668 694.093 651.846 690.779 653.16C687.888 654.305 689.156 659.023 692.076 657.866C696.206 656.228 700.413 654.733 703.694 651.616C705.977 649.448 702.52 646.003 700.243 648.165ZM671.101 508.391C668.205 509.527 669.474 514.245 672.399 513.097C675.643 511.825 678.993 510.856 682.237 509.584C685.133 508.448 683.865 503.73 680.94 504.877C677.696 506.15 674.345 507.119 671.101 508.391ZM619.692 452.873C616.615 452.354 615.304 457.058 618.394 457.579C622.228 458.227 626.003 458.984 629.638 460.39C632.574 461.526 633.834 456.806 630.936 455.685C627.3 454.278 623.525 453.52 619.692 452.873ZM602.705 588.046C605.527 586.659 603.051 582.452 600.243 583.833C597.283 585.288 594.216 586.413 590.987 587.1C587.911 587.755 589.221 592.459 592.284 591.807C595.919 591.032 599.377 589.683 602.705 588.046ZM586.662 511.905C583.624 511.073 582.339 515.782 585.364 516.611C590.687 518.069 596.167 518.828 601.529 520.125C604.584 520.864 605.877 516.157 602.826 515.419C597.465 514.121 591.984 513.364 586.662 511.905ZM518.603 488.011C515.514 488.583 516.83 493.285 519.9 492.717C523.168 492.113 526.48 492.103 529.793 492.101C532.938 492.1 532.933 487.22 529.793 487.221C526.029 487.223 522.313 487.325 518.603 488.011ZM296.635 513.507C304.609 512.745 312.594 512.135 320.592 511.677C320.964 511.658 321.33 511.635 321.702 511.616C321.744 511.531 321.799 511.451 321.855 511.366C324.465 507.535 326.387 503.704 328.052 499.372C329.644 495.248 331.188 490.997 333.64 487.276C336.437 483.036 340.213 479.719 344.352 476.844C346.862 478.532 349.192 480.508 351.323 482.603C353.566 484.807 357.018 481.357 354.774 479.152C352.88 477.29 350.858 475.571 348.721 474.017C351.189 472.517 353.707 471.108 356.163 469.706C365.369 464.454 374.793 459.598 384.413 455.158C388.885 453.089 393.411 451.253 397.968 449.392C400.421 448.392 402.843 447.104 405.295 445.946C405.118 444.213 405.637 442.273 406.966 441.132C407.949 440.296 408.711 439.985 409.882 439.394C410.145 439.302 410.303 439.247 410.377 439.217C410.322 439.229 410.163 439.278 409.901 439.363C409.278 439.65 409.23 439.564 409.754 439.113C409.785 438.125 411.731 436.039 412.176 435.02C413.726 431.524 414.208 427.827 416.495 424.643C419.649 420.257 424.944 418.598 429.88 420.086C430.392 414.809 430.526 409.301 432.515 404.591C432.57 404.464 432.746 404.408 432.826 404.548C434.9 408.081 435.077 412.015 435.235 416.09C435.388 419.915 435.242 423.826 434.741 427.626C435.059 427.87 435.382 428.102 435.717 428.328C437.291 429.365 438.987 430.164 440.768 430.756C444.16 431.878 447.717 432.366 451.273 432.537C460.454 432.976 469.916 432.049 478.944 430.475C488.077 428.883 502.077 426.491 510.203 421.922C515.565 418.909 520.512 415.23 525.527 411.668C523.709 405.811 523.245 399.516 525.075 394.568C525.295 393.976 526.222 393.867 526.399 394.568C527.546 399.29 527.881 404.036 529.407 408.703C529.431 408.77 529.455 408.844 529.48 408.91C529.956 408.587 530.431 408.27 530.907 407.952C532.005 407.226 533.5 407.77 534.159 408.806C544.695 425.406 561.379 426.357 578.899 429.323C598.073 432.567 617.343 436.069 635.778 442.419C653.408 448.496 670.258 457.341 683.605 470.555C686.627 473.546 689.452 476.734 692.119 480.062C689.539 480.387 686.98 480.893 684.454 481.687C681.463 482.626 682.748 487.336 685.751 486.393C688.998 485.373 692.28 484.868 695.597 484.617C704.666 497.024 711.738 511.092 717.853 524.939C729.582 551.488 737.216 579.762 740.729 608.548C738.801 607.392 736.837 606.291 734.824 605.266C732.028 603.844 729.562 608.056 732.361 609.481C735.47 611.062 738.489 612.805 741.415 614.695C742.693 627.295 743.189 639.976 742.888 652.638C742.175 682.822 738.1 713.891 728.882 742.691C724.362 756.825 718.371 770.845 709.446 782.789C705.408 788.2 700.82 793.08 695.415 797.149C692.798 799.125 690.029 800.889 687.107 802.377C683.343 804.305 678.438 804.939 675.193 807.666C674.125 808.563 673.302 809.746 672.679 811.082C673.039 813.62 673.082 816.164 672.387 818.701C672.167 819.495 671.569 820.141 670.831 820.452C670.819 820.672 670.819 820.885 670.819 821.093C670.819 821.19 670.672 821.215 670.654 821.118C670.624 820.928 670.593 820.739 670.563 820.544C670.325 820.623 670.075 820.66 669.818 820.66C660.552 820.695 651.274 820.469 641.995 820.154C642.713 817.956 643.49 815.777 644.236 813.579C645.249 810.594 640.534 809.324 639.53 812.283C638.657 814.852 637.745 817.399 636.933 819.978C626.991 819.608 617.052 819.164 607.131 818.836C586.03 818.134 564.935 817.902 543.828 817.457C511.051 816.763 478.034 815.34 445.206 816.732C444.071 814.322 442.8 811.968 441.595 809.591C440.174 806.786 435.964 809.259 437.381 812.054C438.219 813.706 439.086 815.336 439.91 816.985C433.261 817.33 426.619 817.786 419.991 818.409C408.681 819.47 397.48 821.355 386.182 822.527C374.696 823.722 363.459 823.509 352.063 821.612C350.014 821.27 348.806 820.031 348.305 818.494C348.288 818.488 348.275 818.476 348.263 818.457C347.678 817.774 347.128 817.207 346.561 816.713C345.884 816.274 345.152 815.901 344.291 815.572C342.687 814.962 341.015 814.59 339.32 814.34C337.453 814.06 335.562 814.035 333.695 813.803C332.122 813.602 330.584 813.303 329.047 812.937C326.283 812.278 323.66 811.418 321.049 810.277C318.774 809.283 316.718 807.856 314.778 806.299C310.764 803.365 307.287 799.62 304.249 795.727C302.48 793.452 300.814 791.091 299.301 788.633C296.666 784.375 294.421 779.952 292.152 775.493C291.328 774.171 290.577 772.818 289.89 771.436C294.325 770.13 298.802 769.065 303.504 768.989C306.647 768.938 306.646 764.058 303.504 764.109C298.112 764.195 293.011 765.454 287.944 766.955C287.697 766.299 287.46 765.639 287.241 764.969C286.637 763.573 286.137 762.139 285.722 760.687C285.478 760.028 285.234 759.369 284.99 758.71C284.441 756.429 283.892 754.141 283.337 751.854C282.233 748.193 281.361 744.478 280.72 740.714C280.183 738.238 279.768 735.743 279.487 733.217C278.633 727.098 277.938 720.992 277.889 714.806C277.962 710.993 278.206 707.187 278.621 703.399C278.798 700.824 279.097 698.262 279.5 695.718C280.024 691.936 280.543 688.191 281.415 684.457C282.068 681.932 282.721 679.406 283.373 676.88C285.002 671.616 286.924 666.455 289.139 661.41C289.26 661.093 289.877 660.397 290.248 660.391C290.529 660.385 290.92 660.641 290.792 660.983C290.779 661.013 290.767 661.05 290.755 661.08C290.883 660.794 291.005 660.501 291.133 660.214C291.243 659.946 291.67 659.41 291.999 659.416C292.017 659.416 292.036 659.416 292.06 659.421C291.975 659.361 291.895 659.281 291.816 659.19C289.626 656.597 288.205 653.187 286.637 650.185C285.338 647.708 284.111 645.097 283.758 642.297C283.447 639.84 283.867 637.417 285.411 635.428C287.168 633.165 290.474 632.104 288.638 628.834C286.552 625.113 283.483 621.886 286.539 617.658C288.095 615.505 290.559 614.322 292.39 612.448C294.494 610.283 295.495 607.385 295.44 604.426C295.312 604.5 295.141 604.464 295.08 604.28C293.311 598.936 294.592 593.068 296.404 587.864C297.392 585.04 299.485 584.265 301.918 584.125C291.378 563.536 281.513 542.618 272.722 521.218C272.429 520.516 272.143 519.815 271.856 519.113C271.429 518.064 272.332 516.667 273.375 516.435C280.976 514.77 288.894 514.239 296.635 513.507Z" fill="#1B1B1B"/>
<path fill-rule="evenodd" clip-rule="evenodd" d="M470.877 133.584C436.312 133.584 393.02 173.097 380.35 189.911C369.697 204.047 371.204 276.874 371.204 320.075C371.204 329.11 375.28 346.21 376.759 354.853C382.181 386.522 405.802 413.083 452.553 413.083C490.619 413.083 519.914 401 548.242 370.096C554.705 363.046 586.268 388.286 592.723 379.196C609.583 379.196 623.681 221.333 590.578 173.983C557.475 126.633 505.442 133.584 470.877 133.584Z" fill="#E0B496"/>
<path fill-rule="evenodd" clip-rule="evenodd" d="M574.765 144.703C554.792 126.494 528.184 117.734 501.338 118.38C487.434 118.716 473.579 121.369 460.448 125.914C453.88 128.196 447.519 131.173 441.437 134.54C439.246 135.751 437.225 137.169 435.28 138.676L434.796 139.054H434.79C429.573 140.933 424.916 144.307 420.691 148.254C412.223 147.577 403.689 148.339 395.501 150.956C384.105 154.604 373.556 161.284 366.147 170.77C357.518 181.814 354.649 195.209 355.672 209.038L355.861 211.387C356.874 223.603 358.687 239.315 368.692 247.342C369.453 247.952 370.293 248.415 371.163 248.696C364.717 259.762 359.427 272.048 356.261 284.456C344.177 331.85 353.467 381.275 367.998 426.954C369.191 430.718 374.871 433.219 377.762 429.541C382.924 422.965 390.424 417.95 398.861 417.011C404.066 416.431 409.247 417.481 414.165 415.114C416.095 414.18 417.958 412.655 419.297 410.801C427.6 413.955 436.543 415.443 445.412 415.077C459.967 414.479 475.527 409.428 485.541 398.35C487.148 396.572 487.555 394.575 487.185 392.775C485.929 392.326 484.64 391.992 483.312 391.783C470.613 399.283 456.616 404.294 441.572 404.609C432.88 404.791 424.401 403.572 417.353 398.133C415.828 396.956 414.426 395.652 413.129 394.252C398.393 384.752 388.004 368.617 383.064 351.334C378.462 335.217 379.028 318.435 380.611 301.903L381.446 293.179C382.663 280.375 383.792 267.533 384.109 254.674L384.013 254.669V254.669C380.901 254.468 380.879 249.586 384.013 249.789C392.121 250.315 400.168 248.982 408.251 249.563C408.318 245.734 408.593 241.922 409.717 238.228C410.358 236.118 414.024 235.702 414.412 238.228C414.932 241.608 415.122 244.969 415.179 248.364C427.275 248.203 439.36 247.183 451.458 247.602C453.69 245.216 454.4 240.987 455.444 238.045C455.597 237.612 455.749 237.185 455.907 236.752C456.824 240.956 458.125 245.068 459.835 249.094L462.802 249.104C479.637 249.183 496.815 249.687 513.254 253.191C514.396 252.312 515.076 250.778 515.26 249.385C516.452 240.323 518.154 231.501 521.17 222.865L521.602 221.646C521.637 221.545 521.674 221.438 521.713 221.325C523.936 224.92 526.588 228.271 529.48 231.391C531.184 233.23 532.972 234.989 534.806 236.698C536.588 238.68 538.429 240.633 540.214 242.622C540.144 242.984 540.083 243.351 540.034 243.725C539.488 247.852 539.431 252.037 539.831 256.18C540.554 263.669 542.664 270.886 546.054 277.562L546.161 278.231C546.676 281.359 547.408 284.593 549.118 286.949C546.984 289.345 545.34 292.207 544.386 295.388C543.538 298.219 547.446 300.672 549.474 298.355C551.084 296.515 552.873 294.992 554.838 293.776C554.962 293.945 555.186 294.028 555.437 293.887C560.91 290.843 570.206 291.765 575.672 294.632C582.472 298.194 585.126 305.509 584.371 312.921C583.647 320.003 580.554 328.281 574.558 331.911C571.807 333.576 569.664 333.717 566.742 332.917C565.808 332.663 564.649 331.883 564.152 331.496L563.663 331.103C561.747 329.586 559.963 328.547 557.702 328.507C555.389 327.784 553.065 328.787 552.18 331.217L552.126 331.374C551.712 332.612 550.957 334.168 551.121 336.059C551.292 338.084 552.217 339.927 553.599 341.409C553.836 341.665 554.092 341.922 554.354 342.16C530.552 367.982 527.496 408.22 539.701 440.479C540.231 441.894 540.797 443.291 541.388 444.676C543.427 449.422 551.28 447.952 552.278 443.248C552.576 441.839 552.905 440.436 553.264 439.045C553.924 436.475 554.681 433.929 555.533 431.42L555.857 430.48C556.582 428.406 557.258 426.314 557.988 424.24L558.061 424.003C558.089 423.909 558.119 423.801 558.152 423.679L559.388 426.381V426.381L563.144 434.537C564.902 438.343 570.486 436.275 570.694 432.607L570.699 432.481C570.717 431.804 570.741 431.133 570.784 430.468C571.052 425.484 571.91 420.641 573.274 415.901L573.766 416.513C581.091 425.589 589.689 434.096 601.483 436.19C604.442 436.715 607.79 433.616 605.757 430.621C604.916 429.382 604.107 428.113 603.34 426.826C604.003 426.515 604.63 426.192 605.209 425.862C609.683 423.343 613.409 419.756 616.489 415.687C623.021 407.061 625.358 396.203 625.93 385.576C626.539 374.345 625.553 362.504 622.491 351.67C621.164 346.985 619.368 342.489 617.292 338.127C617.438 337.737 617.578 337.346 617.718 336.956C619.959 330.697 621.797 324.298 623.325 317.825C626.405 304.758 628.061 291.277 628.262 277.85C628.627 253.796 624.488 229.358 615.764 206.927C606.755 183.794 593.204 161.51 574.765 144.703ZM585.984 355.007C587.639 352.397 591.778 354.749 590.242 357.377L590.185 357.471C587.561 361.614 586.331 366.323 584.822 370.941C583.854 373.912 579.148 372.643 580.128 369.642L580.453 368.64C581.955 363.957 583.325 359.197 585.984 355.007ZM571.575 305.179L570.476 304.646C567.009 302.988 563.972 301.859 559.875 303.306C554.39 305.24 548.516 311.395 552.223 317.368C553.587 319.57 556.01 320.448 558.506 319.93C562.713 319.055 563.799 315.258 565.934 312.141L566.302 311.613C567.603 309.727 569.25 307.12 571.417 306.381C571.91 306.21 572.117 305.441 571.575 305.179ZM568.484 178.378L568.13 178.06C565.774 175.974 569.232 172.533 571.575 174.607C582.301 184.106 586.027 198.972 591.591 211.643C592.839 214.491 588.645 216.98 587.385 214.107C582.077 202.016 578.554 187.553 568.484 178.378V178.378ZM439.587 174.223C442.389 172.957 444.841 177.045 442.147 178.39L442.046 178.438C432.574 182.727 428.544 192.439 424.684 201.455C423.455 204.334 419.26 201.851 420.478 198.996L421.174 197.379C425.202 188.087 429.899 178.616 439.587 174.223ZM424.739 168.354C427.71 167.323 428.982 172.033 426.036 173.064C418.006 175.864 412.497 181.903 407.853 188.809C406.111 191.395 401.893 188.955 403.652 186.344C409.046 178.328 415.45 171.6 424.739 168.354Z" fill="black"/>
<path fill-rule="evenodd" clip-rule="evenodd" d="M440.648 370.247C444.749 368.574 448.408 365.783 451.083 362.218C452.013 360.979 452.254 359.67 452.059 358.474C451.84 357.128 451.044 355.908 449.958 355.09C448.869 354.269 447.506 353.864 446.189 354.071C445.044 354.25 443.905 354.877 443.003 356.176L442.815 356.436C441.224 358.588 439.152 360.353 436.791 361.491C434.515 362.588 431.969 363.1 429.335 362.802C424.318 362.235 420.86 359.522 417.185 355.838C416.73 355.372 416.274 354.893 415.816 354.405C415.526 353.963 415.125 353.679 414.679 353.53C414.184 353.365 413.624 353.374 413.112 353.553C412.617 353.726 412.175 354.053 411.879 354.488C411.597 354.902 411.437 355.413 411.489 356.001C411.825 359.819 413.822 363.227 416.657 365.902C419.806 368.874 423.981 370.93 427.911 371.651C432.241 372.445 436.653 371.876 440.648 370.247V370.247ZM425.869 311.342C421.262 314.142 414.243 320.671 419.199 327.613C425.032 333.734 433.431 326.716 437.569 323.542C441.407 321.082 445.719 327.409 442.158 330.281C412.252 352.422 400.115 312.074 423.539 308.05C426.118 307.606 427.076 310.476 425.869 311.342ZM479.461 285.586C478.952 279.268 469.33 277.833 468.373 284.085C467.516 289.685 468.525 294.83 471.047 299.872C473.458 304.688 479.515 302.441 479.974 298.055C480.588 292.176 479.777 289.516 479.461 285.586ZM406.218 282.789C404.876 281.032 402.939 279.833 400.619 280.51C393.369 282.629 395.506 292.922 398.052 297.932C399.435 300.653 403.908 301.343 405.929 298.947C409.223 295.041 410.8 287.239 406.612 283.391C406.499 283.192 406.373 282.991 406.218 282.789ZM471.149 257.941L470.004 257.741C466.461 257.128 462.056 256.54 459.55 259.388C458.22 260.898 457.763 263.706 459.55 265.151C462.692 267.695 466.167 266.71 469.934 266.925C473.037 267.103 476.021 267.617 479.01 268.471C485.569 270.346 490.914 273.768 496.516 277.526C497.251 278.019 498.001 277.079 497.651 276.391C494.417 270.057 488.15 264.854 481.873 261.683C478.522 259.99 474.856 258.586 471.149 257.941ZM412.827 255.104L411.95 255.284C402.411 257.278 390.017 261.261 385.5 270.63C385.328 271.955 385.51 272.239 385.658 272.425L385.707 272.487C385.829 272.645 385.926 272.863 386.5 273.044C386.66 273.006 386.821 272.966 386.983 272.923C389.054 272.38 390.692 271.633 392.278 270.857L393.998 270.01C395.993 269.032 398.006 268.089 400.139 267.393C404.691 265.908 409.373 264.862 414.128 264.304C415.159 264.183 416.151 263.835 416.934 263.239C417.677 262.673 418.245 261.89 418.504 260.848C418.839 259.501 418.743 258.48 418.02 257.265C417.476 256.352 416.698 255.719 415.805 255.356C414.894 254.985 413.858 254.898 412.827 255.104Z" fill="black"/>
</svg>
