<svg width="352" height="392" viewBox="0 0 352 392" fill="none" xmlns="http://www.w3.org/2000/svg">
<path fill-rule="evenodd" clip-rule="evenodd" d="M250.673 314.679C250.851 315.563 251.12 316.52 251.4 317.378C250.006 318.719 248.033 320.517 246.617 321.816C248.018 313.167 243.757 305.184 241.149 297.003C242.133 295.742 245.558 294.451 245.448 293.053C245.184 287.873 244.794 282.091 244.231 275.606C242.327 255.353 240.433 234.232 244.927 213.918C245.234 211.71 245.7 209.388 248.662 209.337C257.409 244.15 250.321 279.201 250.514 314.234L250.259 314.462L250.673 314.679ZM283.966 595.968C285.812 595.319 288.105 594.512 288.424 593.206C288.95 589.63 288.586 586.115 288.201 582.394C287.592 576.012 287.652 571.051 285.93 564.178C284.086 557.796 282.515 552.808 284.314 546.209C284.458 544.244 282.922 542.245 281.907 540.408C280.47 537.726 279.741 534.934 278.599 532.184C280.841 531.792 283.17 531.255 285.323 530.588L285.684 531.889C285.764 532.175 285.983 532.32 286.334 532.32C286.552 532.32 287.109 532.216 287.191 531.75C286.853 526.725 286.363 521.725 285.849 516.619C280.513 467.438 272.433 426.896 258.863 386.462C255.604 376.992 252.275 367.134 252.251 356.845C254.104 356.448 256.168 356.22 258.056 356.481C271.512 353.363 268.852 324.902 268.317 316.384C269.266 316.099 270.328 315.695 271.116 315.155L271.434 315.311C284.795 282.153 279.308 227.332 276.252 190.477C274.247 177.229 277.067 153.299 265.32 146.753C255.836 143.394 246.393 141.507 236.482 139.292C234.646 138.238 232.381 137.637 230.333 136.955L231.391 135.468C232.778 133.513 232.594 129.678 230.779 128.331C229.663 128.393 228.096 129.513 227.03 130.039C225.496 126.869 224.077 123.553 223.058 119.743L222.692 119.874C221.62 109.099 207.647 107.219 199.769 110.82C191.169 115.54 195.648 126.219 191.738 133.928L190.321 132.039C188.132 131.998 183.503 134.867 182.388 135.944C181.59 136.316 182.168 138.819 182.051 139.826C170.514 142.438 154.722 143.156 151.055 156.104C144.954 180.451 145.811 205.412 138.889 229.674C131.641 249.34 120.997 273.404 120.908 291.414C120.701 294.79 120.247 313.88 123.041 313.113L124.885 314.953C122.373 318.963 124.368 324.964 125.33 329.712C127.701 339.786 132.335 350.641 142.233 345.813C152.879 404.589 179.635 463.88 170.508 524.503C170.398 524.858 170.62 525.247 171 525.092L171.449 524.885C172.61 525.243 174.083 525.369 175.296 525.64C174.264 529.506 173.711 533.322 173.175 537.598C172.526 537.985 172.829 539.01 172.796 539.629C163.11 539.165 157.678 549.306 150.732 554.883C146.146 558.974 140.923 562.869 135.207 566.461C130.484 569.144 126.499 572.217 127.216 577.285C127.148 577.277 125.691 577.051 125.619 577.045C123.422 584.355 130.636 585.867 138.066 586.748C156.222 588.573 171.743 584.539 192.763 576.896C195.341 577.201 197.35 573.369 197.693 570.77C198.033 569.029 197.068 567.258 197.804 565.383C200.339 559.998 201.658 545.742 198.085 539.346C196.83 537.897 195.222 536.559 195.43 534.057C195.489 531.55 195.725 529.046 195.512 526.584C199.808 526.169 204.06 525.243 207.807 523.742C208.47 523.998 209.224 523.683 209.27 522.852C209.989 511.393 210.85 498.871 211.036 487.139C211.9 461.607 206.06 436.693 201.591 411.93C201.281 403.986 199.814 396.312 199.352 388.364C198.855 380.827 198.767 373.448 198.334 365.922L200.913 365.362C222.325 420.557 239.092 475.798 250.828 529.85C250.563 530.077 249.808 530.333 249.84 530.794C249.849 531.04 249.843 531.055 250.012 531.08C252.847 531.65 255.653 532.068 258.463 532.393C257.67 539.138 261.896 546.934 258.156 553.252C257.163 554.774 257.12 555.092 257.729 556.139C252.28 566.28 248.903 574.718 246.715 583.784L245.304 582.591C243.26 584.076 243.218 586.881 243.173 589.844C243.319 591.571 242.475 593.381 243.767 594.834C246.876 598.467 257.713 599.897 263.773 599.918C270.961 599.919 277.569 598.613 283.966 595.968Z" fill="#FFDBB4"/>
<path fill-rule="evenodd" clip-rule="evenodd" d="M241.055 297.935L239.76 298.848C238.552 299.702 237.328 300.574 235.961 301.553L234.541 302.573L226.684 308.243C214.612 316.939 208.085 321.397 200.427 325.969L199.792 326.347L199.71 326.352C198.38 326.426 197.216 325.863 195.359 324.47L195.168 324.325L194.431 323.763L194.255 323.631L193.588 323.136L187.889 318.927C184.851 316.682 182.767 315.128 180.832 313.655L179.702 312.793L178.256 311.678L177.958 311.788C177.571 311.93 177.14 311.898 176.828 311.711L176.786 311.685L176.382 311.414L175.865 311.966L175.538 312.314C174.831 313.062 174.119 313.797 173.162 314.768L172.937 314.996L170.165 317.787L169.338 318.625C168.272 319.708 167.486 320.523 166.711 321.352L166.5 321.578L166.08 322.033L166.001 322.107L165.902 322.201C165.558 322.534 165.232 322.891 164.774 323.425L164.639 323.583L164.19 324.115L163.958 324.387C162.52 326.059 161.658 326.78 160.461 327.131L160.398 327.149L160.291 327.177L160.249 327.185C159.392 327.325 158.794 327.065 158.041 326.283L157.987 326.226L157.933 326.169L157.443 325.652C155.47 323.58 153.637 321.752 150.611 318.825L149.571 317.821L145.368 313.776L144.515 312.951C144.21 312.656 143.925 312.378 143.647 312.106L143.244 311.713L142.079 310.565L141.682 311.06C141.437 311.364 140.93 311.476 140.592 311.287L140.558 311.267L139.661 310.691L139.676 311.756C139.683 312.274 139.697 312.8 139.719 313.336L139.744 313.909C139.847 316.103 140.034 318.099 140.428 321.452L140.469 321.804L140.977 326.017L141.069 326.842C142.341 338.129 144.42 349.86 147.367 363.002L147.546 363.793C149.494 372.421 151.309 379.691 154.75 392.79L155.555 395.849L158.249 406.044C161.304 417.626 163.123 424.769 164.923 432.405L165.033 432.873L165.265 433.866L165.498 434.868C167.694 444.364 169.425 452.987 170.756 461.277L170.826 461.713L170.961 462.569C174.329 484.127 174.945 503.505 172.393 522.327L172.315 522.898L172.238 523.447L172.786 523.541C183.712 525.406 194.096 526.098 204.068 525.498L204.51 525.471L204.905 525.354C205.571 525.153 206.223 524.939 206.859 524.71L207.175 524.595L207.574 524.447L207.535 523.804L207.512 523.394C207.15 516.919 207.257 511.321 207.822 499.945L207.877 498.85L208.139 493.742C208.265 491.23 208.349 489.441 208.418 487.707L208.463 486.526L208.508 485.218L208.528 484.586C208.821 475.041 208.583 467.478 207.592 460.314L207.525 459.843L207.46 459.39L207.365 458.474C206.634 451.505 205.699 445.524 203.671 434.228L203.33 432.338L202.448 427.472C200.156 414.766 199.121 408.147 198.395 400.595L198.348 400.106L198.277 399.336L198.004 395.604C197.551 389.291 197.363 385.334 197.392 381.21L197.396 380.768C197.455 375.549 197.916 370.919 198.882 366.596L198.956 366.268L198.956 366.264L199.077 365.755L199.081 365.744L199.277 365.27L198.985 365C197.125 363.275 195.45 361.457 194.008 359.58C193.179 358.485 195.1 356.872 196.064 357.784L196.093 357.813L198.005 359.766L197.038 357.21C196.506 355.806 195.976 354.39 195.448 352.961L195.13 352.101L195.023 351.808L195.395 352.606C206.395 376.247 216.299 402.373 225.573 431.575L225.854 432.461L226.18 433.493C234.994 461.459 242.879 490.84 251.995 528.475L252.355 529.963L252.701 530.042L253.198 530.153C261.224 531.925 269.37 532.387 281.294 532.14L281.723 532.131L282.109 532.041C282.636 531.918 283.155 531.788 283.666 531.652L284.047 531.549L284.861 531.322L284.781 530.026C282.019 486.273 273.605 441.088 259.833 392L259.415 390.512L259.174 389.636L257.812 384.76L257.546 383.803C255.493 376.373 254.57 372.334 253.971 367.604L253.952 367.455L253.946 367.417C253.342 364.292 252.983 361.312 252.881 358.405L252.872 358.104L252.855 357.515L252.267 357.549C249.109 357.73 245.267 355.965 243.694 353.555L243.647 353.481L243.31 352.947L242.811 353.335C241.722 354.181 240.072 353.354 239.116 351.758L239.088 351.711L239.041 351.618C238.235 349.988 237.938 348.113 238.072 345.95L238.081 345.805L238.092 345.66C238.234 343.844 238.633 342.007 239.355 339.497L239.654 338.464L238.764 338.604C236.912 338.895 234.757 338.189 233.403 336.876C232.035 335.55 231.726 333.894 232.726 332.222L232.768 332.154L232.811 332.085L233.107 331.827L233.407 331.569C234.485 330.646 235.603 329.748 237.28 328.444L237.763 328.069L239.81 326.487C242.728 324.225 244.398 322.856 246.097 321.276L246.178 321.201L246.572 320.83L246.583 320.599C246.741 317.352 246.319 314.056 245.37 310.422L245.286 310.106L245.177 309.704C244.548 307.411 243.856 305.394 242.483 301.728L241.055 297.935Z" fill="#FFCF77"/>
<path fill-rule="evenodd" clip-rule="evenodd" d="M125.031 319.716C127.168 326.901 129.13 337.54 134.571 342.83C136.327 344.228 138.468 343.617 140.48 343.269C139.1 334.911 138.088 326.479 137.209 318.052C132.924 317.172 128.795 315.651 124.959 313.552C123.921 315.292 124.569 317.939 125.031 319.716V319.716ZM141.518 325.971C148.751 392.063 182.25 455.421 172.854 522.992C184.122 524.916 195.583 525.717 206.989 524.723C205.616 503.851 210.054 480.999 206.863 459.477C204.823 439.299 199.508 419.595 197.678 399.394C196.864 388.229 195.85 376.569 198.501 365.601C198.522 365.546 198.545 365.491 198.567 365.435C196.752 363.751 195.036 361.911 193.524 359.941C192.234 358.237 195.043 355.967 196.474 357.428C194.5 352.213 192.602 346.973 190.762 341.71C219.221 399.138 237.451 466.024 252.8 529.499C263.124 531.85 273.75 531.793 284.27 531.511C281.388 483.738 271.817 436.669 258.834 390.679C255.93 380.045 252.345 369.23 252.985 358.062C249.597 358.59 244.961 356.701 243.134 353.803C241.472 355.094 239.434 353.509 238.558 352.003C236.535 348.054 237.652 343.232 238.825 339.185C234.693 339.835 229.519 336.003 232.346 331.722C236.715 327.89 241.701 324.626 245.984 320.588C246.35 313.016 243.416 305.949 240.751 298.845C227.285 308.335 214.084 318.545 199.944 326.922C197.513 327.169 195.549 325.33 193.724 323.986C188.516 320.122 183.26 316.309 178.129 312.34C177.566 312.548 176.919 312.497 176.44 312.176C173.163 315.686 169.699 318.927 166.457 322.454C164.509 324.254 163.102 327.063 160.384 327.753C159.113 327.986 158.304 327.459 157.489 326.578C152.544 321.345 147.224 316.487 142.1 311.434C141.695 311.938 140.844 312.165 140.22 311.764C140.285 316.508 140.963 321.256 141.518 325.971V325.971ZM175.657 539.105C180.385 540.47 181.134 547.854 186.701 547.134C190.306 546.374 193.213 543.251 194.136 539.741C193.859 539.565 193.672 539.258 193.701 538.815C193.938 535.215 194.176 531.614 194.413 528.013C188.149 528.359 181.86 527.866 175.638 527.007C175.863 528.717 175.953 530.442 176.003 532.184C175.914 534.398 176.563 537.072 175.657 539.105V539.105ZM196.541 537.485C196.386 537.262 196.245 537.031 196.125 536.783C196.106 537.069 196.087 537.355 196.069 537.64C196.218 537.55 196.377 537.501 196.541 537.485V537.485ZM164.934 543.313C161.72 545.502 159.216 548.62 156.48 551.343C150.659 557.137 144.205 562.295 137.295 566.731C133.696 568.967 126.092 572.35 129.104 577.601C131.349 580.907 137.235 579.365 138.163 581.22C150.969 581.747 163.496 578.245 175.669 574.66C181.848 572.64 188.313 571.463 194.304 568.897C200.046 563.867 200.064 552.807 199.274 545.714C198.96 544.036 198.495 537.167 196.043 538.031C196.039 538.718 195.968 539.642 195.226 539.836C195.214 539.89 195.205 539.945 195.192 539.999C195.333 539.953 195.52 540.056 195.451 540.225C193.604 545.725 187.514 551.916 181.569 548.063C178.928 546.204 177.772 542.607 174.623 541.441C171.323 540.218 167.711 541.422 164.934 543.313V543.313ZM126.142 577.249C126.06 577.289 125.974 577.308 125.886 577.31C125.634 577.955 125.758 580.583 125.806 581.035C126.582 584.989 132.808 585.645 136.109 586.243C147.707 588.071 159.503 586.793 170.817 583.878C176.34 582.51 181.833 580.928 187.193 579.022C191.956 577.573 197.848 575.164 197.256 569.124C194.604 572.706 186.112 573.767 181.852 575.248C168.464 579.314 154.881 583.689 140.753 583.829C138.612 583.737 135.654 584.335 134.048 582.722C130.644 582.235 127.111 580.35 126.142 577.249V577.249ZM259.898 538.291C260.994 541.754 262.255 545.311 262.289 548.975C268.673 545.181 276.681 548.864 281.972 553.018C281.602 550.425 283.201 547.982 282.766 545.433C281.15 541.588 278.984 537.688 279.753 533.343C272.668 534.552 265.472 534.478 258.363 533.736C258.921 535.236 259.401 536.762 259.898 538.291V538.291ZM257.455 559.363C256.196 561.832 255.314 565.106 252.901 566.664C251.555 571.642 250.041 576.574 248.871 581.598C248.406 583.988 247.702 586.463 248.05 588.926C248.603 589.077 248.99 589.197 249.296 589.595C261 592.089 273.866 592.481 284.684 586.689C288.313 578.574 285.464 569.074 284.228 560.67C284.154 557.919 282.315 556.954 282.096 554.331C276.294 550.991 267.257 546.613 261.755 552.602C260.991 554.302 260.476 556.647 258.512 557.291C258.146 557.978 257.796 558.67 257.455 559.363V559.363ZM247.865 588.933C247.867 588.937 247.869 588.941 247.875 588.947C247.892 588.945 247.892 588.939 247.865 588.933V588.933ZM244.226 590.444C244.255 589.935 244.508 589.427 244.924 589.126C244.728 587.25 245.1 585.31 245.497 583.478C243.531 585.618 244.37 589.006 244.046 591.673C244.072 592.736 243.557 594.09 244.793 594.639C248.651 597.306 253.329 598.551 257.94 599.087C267.999 600.239 278.456 598.389 287.443 593.713C288.664 592.056 288.242 587.804 288.382 585.664C287.553 592.537 270.793 594.437 265.092 594.496C261.922 594.516 244.259 593.86 244.226 590.444V590.444ZM254.854 353.766C256.192 353.633 257.522 353.726 258.846 353.917C266.685 348.59 267.921 326.744 269.151 317.521C263.542 318.955 257.601 318.568 252.155 316.682C252.053 317.687 250.905 318.205 250.207 317.527C246.514 324.1 240.989 329.363 235.289 334.068C235.356 333.848 235.403 334.251 235.319 334.098C236.045 335.762 238.711 334.899 239.972 336.058C240.781 336.661 240.951 337.716 240.436 338.42C241.8 342.189 239.631 346.791 241.672 350.366C242.131 350.898 242.728 351.281 243.123 351.879C245.839 350.018 248.315 353.954 251.066 354.127C251.047 354.127 251.027 354.127 251.006 354.125C251.43 354.172 252.109 354.149 252.482 354.096C253.271 353.974 254.058 353.846 254.854 353.766V353.766ZM249.8 222.077C249.224 218.32 248.552 214.585 247.68 210.887C246.629 211.07 246.394 213.479 246.26 214.188C241.759 234.556 243.708 255.518 245.636 276.076C246.104 281.589 246.489 287.112 246.791 292.638C247.18 295.179 244.257 296.042 242.697 297.433C244.867 304.419 248.611 311.178 248.169 318.619C248.751 318.084 249.327 317.544 249.9 317C249.755 316.533 249.63 316.065 249.526 315.594C248.813 315.223 248.587 314.199 249.197 313.659C248.963 283.194 254.68 252.469 249.8 222.077V222.077ZM193.782 164.542C192.7 162.616 189.836 165.119 191.635 166.515C192.888 167.53 194.624 165.864 193.782 164.542V164.542ZM188.486 186.941C187.33 185.438 185.013 187.179 186.022 188.732C187.202 191.183 189.565 188.762 188.486 186.941V186.941ZM184.776 206.573C182.462 206.579 182.992 210.502 185.177 209.964C187.038 209.523 186.731 206.537 184.776 206.573V206.573ZM182.879 230.225C182.343 228.41 179.602 228.889 179.622 230.756C179.691 233.276 183.422 232.515 182.879 230.225V230.225ZM178.387 253.033C177.625 250.752 174.697 251.932 174.943 254.141C174.623 255.417 177.096 257.992 177.597 255.906C178.265 255.101 178.58 254.067 178.387 253.033V253.033ZM173.788 279.338C173.782 279.33 173.776 279.322 173.771 279.315C172.142 280.081 173.551 283.571 175.122 282.29C176.645 281.36 175.591 278.411 173.788 279.338V279.338ZM171.645 300.693C169.745 302.561 172.683 305.517 174.557 303.604C176.459 301.74 173.523 298.784 171.645 300.693V300.693ZM124.59 313.352C124.566 313.407 124.539 313.462 124.508 313.514C124.558 313.472 124.608 313.43 124.657 313.388C124.636 313.376 124.613 313.365 124.59 313.352V313.352ZM123.062 269.938C126.163 257.718 131.153 246.088 136.01 234.494C141.26 219.1 142.799 202.795 144.674 186.731C145.706 177.668 146.821 168.616 148.909 159.724C150.683 143.146 167.52 141.339 180.724 138.769C180.705 137.354 180.27 135.744 181.69 134.838C182.993 133.515 189.951 129.401 191.325 131.142C191.865 129.83 192.129 128.373 192.384 126.972C192.556 126.42 192.627 124.513 193.228 124.528C193.356 128.26 194.94 133.724 191.762 136.527C193.669 139.434 195.26 142.956 197.774 145.271C197.772 145.269 197.77 145.267 197.768 145.265C197.894 145.347 198.022 145.421 198.153 145.492C198.123 145.467 198.304 145.534 198.453 145.582C198.795 145.647 199.36 145.522 199.709 145.364H199.705C208.361 140.445 216.831 135.176 225.211 129.779C224.013 128.008 222.463 119.324 223.949 118.12C224.988 121.546 226.07 124.983 227.648 128.207C229.014 127.461 231.225 126.12 232.377 127.873C233.829 130.309 234.244 133.84 232.501 136.262C239.992 139.213 248.07 140.247 255.804 142.554C259.174 143.418 262.743 144.061 265.905 145.559C275.328 150.787 275.336 163.667 276.37 173.153C279.022 219.33 287.433 267.066 274.261 312.365C273.755 313.756 273.006 315.092 272.424 316.46C272.193 317.002 271.594 316.985 271.199 316.691C270.753 316.956 270.262 317.168 269.749 317.34C270.611 329.116 271.78 350.633 260.412 357.656C259.526 358.073 258.732 357.928 257.905 357.825C256.578 357.652 255.007 357.711 253.634 357.968C255.292 379.815 266.293 399.775 270.553 421.183C279.683 457.379 285.582 494.378 288.55 531.583C288.657 533.89 285.043 534.529 284.419 532.266C283.113 532.644 281.789 532.959 280.447 533.215C281.148 535.039 281.727 536.882 282.535 538.661C283.417 540.67 285.022 542.521 285.526 544.672C286.129 548.118 283.885 551.342 285.129 554.791C285.365 558.645 287.117 562.273 287.726 566.092C288.676 570.822 289.398 575.723 289.15 580.558C290.133 584.096 290.087 587.764 289.949 591.347C289.877 592.525 289.938 594.015 289.045 594.921C287.074 596.497 284.439 597.168 282.14 598.154C269.745 602.214 254.307 603.351 242.936 596.019C240.771 594.302 242.124 590.069 241.956 587.557C241.879 585.641 243.366 580.338 245.974 581.409C248.257 572.558 251.968 564.173 256.249 556.136C255.565 554.929 256.313 553.743 256.978 552.724C260.272 547.656 256.716 539.569 257.109 533.591C254.651 533.291 252.203 532.894 249.772 532.409C248.109 532.077 248.232 530.011 249.348 529.253C237.21 473.576 220.297 418.979 199.69 365.865C199.98 371.648 200.22 377.427 200.413 383.22C200.67 392.835 202.501 402.307 202.948 411.899C207.492 436.78 213.262 461.708 212.393 487.181C212.197 499.109 211.375 511.024 210.627 522.925C210.563 524.295 209.339 525.452 207.934 525.153C204.415 526.507 200.695 527.358 196.934 527.788C197.316 532.138 195.344 535.269 199.154 538.535C202.486 543.739 201.698 554.385 200.816 560.426C200.422 562.352 199.745 564.115 199.048 565.941C198.522 567.598 199.425 569.251 199.041 570.952C198.663 574.033 196.14 578.707 192.609 578.239C172.465 585.866 149.128 592.783 127.94 585.681C126.466 584.947 124.93 583.999 124.401 582.352C123.95 580.882 123.341 575.319 125.886 575.749C126.167 568.212 134.915 565.835 139.901 561.781C146.867 556.998 153.013 551.189 158.834 545.095C162.191 541.638 166.407 538.385 171.445 538.367C171.431 537.837 171.594 537.367 171.928 536.997L171.93 536.995C172.371 533.572 172.846 530.064 173.68 526.709C172.982 526.577 172.262 526.519 171.581 526.324C170.225 526.933 168.899 525.706 169.209 524.318C171.506 509.709 171.534 494.832 170.182 480.131C166.017 434.903 149.546 392.073 141.23 347.618C130.201 351.556 126.102 338.2 124.049 330.028C123.058 325.048 120.922 318.92 123.775 314.262C115.429 317.589 120.978 274.457 123.062 269.938V269.938Z" fill="black"/>
<path fill-rule="evenodd" clip-rule="evenodd" d="M173.673 92.3591C174.083 88.7497 173.553 81.2053 173.517 80.7469C173.292 77.8493 174.647 66.4069 177.209 67.4612C181.505 64.0529 187.228 63.3003 192.579 62.9408C203.695 62.1939 215.519 63.9085 224.102 71.404C228.347 75.2966 232.479 80.9582 232.147 86.8531C236.004 92.4408 241.441 100.106 236.636 106.638C235.002 108.725 232.406 109.502 230.355 111.083C226.227 114.418 223.638 119.205 219.472 122.521C208.434 132.46 189.692 134.536 178.847 123.232C170.461 115.045 171.817 102.796 173.292 92.3591C174.284 85.342 172.873 99.4007 173.673 92.3591Z" fill="#FFDBB4"/>
<path fill-rule="evenodd" clip-rule="evenodd" d="M207.428 47.6343C204.455 47.0332 201.403 46.6592 198.367 46.7718L198.133 46.7809C195.849 46.8724 192.956 47.0747 190.963 48.4056C190.849 48.2904 190.664 48.2312 190.497 48.3112C188.129 49.4437 185.525 50.2625 183.032 51.0762C180.55 51.8859 177.975 52.4204 175.374 52.6358C174.395 52.7169 173.558 53.7758 174.177 54.7255C174.325 54.9518 174.468 55.1804 174.611 55.4096C174.372 55.3846 174.133 55.3589 173.894 55.3346C173.107 55.2552 172.321 56.097 172.367 56.8648C172.396 57.3478 172.448 57.8251 172.525 58.2966C172.225 58.2903 171.927 58.3353 171.64 58.4573C170.182 59.0742 170.283 60.8143 170.392 62.1382C170.543 63.9755 171.229 65.9215 172.502 67.2966C171.552 68.286 170.879 69.4676 170.477 70.8709C170.186 71.8956 170.024 72.9871 170.104 74.0538L170.13 74.3732C170.228 75.5308 170.425 76.8124 171.256 77.6451C171.683 78.0745 172.208 78.231 172.709 78.1813C172.406 80.8491 172.212 83.532 172.029 86.2055L171.944 87.4833C171.536 93.6621 171.229 99.8812 171.309 106.07C171.384 111.854 172.524 117.468 176.065 122.164C179.289 126.441 183.918 129.593 189.155 130.791C191.978 131.438 194.859 131.484 197.715 131.072C199.1 130.872 200.494 130.564 201.808 130.08C203.263 129.541 204.308 128.75 205.287 127.563C205.75 127 205.527 125.801 204.606 125.914C203.211 126.083 201.938 126.287 200.602 126.701L200.41 126.761C199.079 127.189 197.7 127.507 196.308 127.643C193.457 127.919 190.563 127.641 187.832 126.775C183.385 125.362 179.555 122.216 177.101 118.262C174.187 113.575 173.858 108.255 173.9 102.866C173.945 96.953 174.137 91.0362 174.45 85.129L174.503 84.1446C174.669 81.1048 174.829 78.063 174.97 75.0213C175.013 74.0672 175.08 73.1054 175.2 72.1532C176.299 71.5083 177.283 70.619 177.925 69.5218C179.215 70.0561 180.57 70.4415 181.818 70.7488C184.708 71.4609 187.708 71.6338 190.649 71.1879C191.442 71.5163 192.252 71.805 193.073 72.0534C193.295 72.1521 193.517 72.249 193.739 72.3441C195.72 73.1932 197.729 73.9126 199.82 74.4393L200.333 74.5676C201.434 74.8394 202.629 75.1071 203.8 75.1911C203.992 75.2656 204.2 75.3285 204.427 75.3839C205.493 75.6434 206.6 75.7255 207.692 75.6339C208.757 75.5442 209.527 74.466 208.94 73.4566C208.512 72.72 208.079 71.9853 207.643 71.2525C209.161 71.8861 210.728 72.4128 212.309 72.8593C213.905 73.3096 215.523 73.6894 217.144 74.0386C218.011 74.2237 218.881 74.3878 219.745 74.5729C220.364 74.7045 221.314 74.7732 221.819 75.1816C222.377 75.63 222.535 76.6758 222.747 77.3207C223.025 78.1584 223.286 79 223.524 79.8511C223.998 81.5494 224.386 83.2725 224.687 85.0128C224.988 86.755 225.19 88.5144 225.302 90.2796C225.415 92.0428 225.365 93.8174 225.546 95.573C225.643 96.5042 226.641 96.9832 227.378 96.3325C227.464 96.2561 227.552 96.179 227.638 96.1009L227.766 95.9833C228.397 95.4108 229.008 94.804 229.513 94.1208C229.604 93.9949 229.692 93.8632 229.774 93.7296C229.787 93.7296 229.798 93.7258 229.812 93.7163L229.952 93.6108C231.492 92.4621 234.065 90.9645 235.567 92.8728C236.045 93.4808 236.29 94.2549 236.494 95.0017L236.851 96.3383C237.081 97.2109 237.299 98.0883 237.426 98.9811C237.713 100.981 237.568 103.286 236.195 104.889C235.647 105.53 234.891 105.988 234.047 106.108C233.577 106.173 233.112 106.093 232.645 106.034C232.171 105.975 231.714 106.07 231.24 106.024C230.486 105.95 230.156 106.854 230.438 107.423C230.591 107.728 230.77 107.992 230.973 108.215C230.81 108.356 230.653 108.509 230.503 108.669C230.057 108.812 229.658 109.12 229.359 109.526C229.117 109.854 228.991 110.211 228.97 110.587C228.944 110.68 228.921 110.776 228.9 110.873L228.491 111.538C228.401 111.683 228.312 111.827 228.222 111.969C227.182 113.61 226.028 114.999 224.594 116.308C223.213 117.567 221.715 118.695 220.417 120.046L220.265 120.207C219.055 121.483 217.781 123.029 218.254 124.885C218.376 125.362 219.041 125.706 219.475 125.383C220.871 124.345 221.574 122.7 222.758 121.441C223.977 120.143 225.327 118.977 226.55 117.684C227.706 116.462 228.618 115.079 229.305 113.556C229.58 113.86 229.979 114.075 230.534 114.159C231.486 114.302 232.373 113.743 232.788 112.917C233.055 113.035 233.327 113.142 233.602 113.226C235.045 113.669 235.953 112.06 235.409 110.871C235.118 110.234 234.754 109.681 234.302 109.215C235.714 109.02 237.149 108.289 238.077 107.377C240.404 105.086 240.724 101.641 240.2 98.5785C239.922 96.9546 239.442 95.3116 238.819 93.7869C238.711 93.5216 238.595 93.2545 238.467 92.9912C238.538 92.9892 238.61 92.9587 238.656 92.8996C239.077 92.3233 239.589 91.8519 239.901 91.207C240.189 90.6154 240.509 90.0162 240.735 89.3999C241.202 88.1385 241.43 86.715 241.583 85.3811C241.897 82.6504 241.775 79.9369 241.358 77.2234C240.648 72.6017 238.932 68.1788 236.405 64.2978C236.543 64.2253 236.675 64.1379 236.797 64.0345L236.858 63.9814L236.957 63.8921C237.678 63.2382 237.616 62.0125 236.957 61.3501L236.749 61.1411C236.485 60.8788 236.258 60.671 235.832 60.3853C235.769 60.3432 235.705 60.3035 235.64 60.2665C235.863 59.8539 235.94 59.3715 235.785 58.8393C235.244 56.9852 232.582 57.0509 230.895 57.8594C229.028 56.1899 226.958 54.7406 224.714 53.567C219.37 50.7734 213.328 48.8251 207.428 47.6343ZM235.051 96.4661C234.053 96.1397 232.727 96.8248 231.83 97.237C230.693 97.7598 229.726 98.5327 228.789 99.3494C228.322 99.7578 228.239 100.426 228.355 100.996C228.366 101.053 228.378 101.113 228.391 101.172C228.515 101.78 229.193 102.259 229.793 102.242C231.048 102.208 231.646 101.122 232.356 100.202C232.44 100.351 232.544 100.489 232.674 100.592L232.762 100.66C233.057 100.885 233.382 101.065 233.771 101.048C234.047 101.034 234.312 100.964 234.556 100.836C235.165 100.513 235.433 99.7234 235.268 99.0803C235.165 98.6758 234.929 98.359 234.62 98.1396L234.735 98.0608C234.981 97.8892 235.206 97.7083 235.381 97.4414L235.42 97.3782H235.405C235.595 97.05 235.471 96.6034 235.051 96.4661Z" fill="black"/>
<path fill-rule="evenodd" clip-rule="evenodd" d="M187.435 125.192C187.435 125.192 195.907 126.437 199.699 124.678C203.479 122.924 207.157 121.228 210.586 118.905C214.099 116.525 217.08 113.699 219.208 110.081C221.187 106.716 222.832 103.144 224.489 99.6C224.585 99.3929 225.536 97.334 225.872 96.6436C226.389 95.5731 227.901 95.9091 227.901 97.5709C227.901 99.2327 227.975 111.818 225.071 116.768C222.45 121.24 218.01 124.364 213.597 127.091C208.716 130.106 202.231 133.365 196.407 134.226C191.136 135.005 185.12 132.818 181.304 129.213C177.313 125.444 176.183 120.322 174.124 115.417C173.664 114.321 175.295 113.66 175.773 114.738C176.674 116.768 187.435 125.192 187.435 125.192Z" fill="black"/>
<path fill-rule="evenodd" clip-rule="evenodd" d="M198.238 107.859H181.476L180.473 110.629C180.473 110.629 192.981 113.532 197.374 111.664L198.238 107.859Z" fill="white"/>
<path fill-rule="evenodd" clip-rule="evenodd" d="M185.873 102.48C184.322 100.308 186.518 98.2659 187.959 97.39C188.337 97.119 188.037 96.2215 187.23 96.3602C179.903 97.619 183.699 110.24 193.055 103.314C194.169 102.416 192.82 100.437 191.62 101.206C191.559 101.253 191.495 101.302 191.428 101.354C190.08 102.396 187.612 104.304 185.873 102.48ZM200.621 80.6233L200.98 80.686C202.139 80.8875 203.286 81.3267 204.334 81.8563C206.298 82.8484 208.258 84.4759 209.27 86.4572C209.38 86.6723 209.145 86.9663 208.915 86.8122C207.163 85.6367 205.491 84.5662 203.439 83.9798C202.503 83.7124 201.57 83.5517 200.599 83.496C200.298 83.4788 200.003 83.4861 199.714 83.4933C198.872 83.5142 198.083 83.5337 197.351 82.9413C196.792 82.489 196.935 81.6109 197.351 81.1384C198.135 80.2474 199.513 80.4316 200.621 80.6233ZM181.506 79.8545L181.78 79.7984C182.103 79.7338 182.427 79.7612 182.712 79.877C182.991 79.9907 183.235 80.1887 183.405 80.4743C183.631 80.8546 183.661 81.1737 183.556 81.5952C183.475 81.921 183.297 82.166 183.065 82.343C182.82 82.5295 182.51 82.6383 182.187 82.6761C180.7 82.8508 179.235 83.178 177.811 83.6424C177.144 83.8601 176.514 84.155 175.89 84.461L175.352 84.726C174.856 84.9687 174.343 85.2025 173.695 85.3723C173.644 85.3856 173.594 85.3982 173.544 85.41C173.386 85.3603 173.344 85.3013 173.31 85.2541L173.304 85.2462L173.296 85.2358L173.281 85.2165C173.234 85.1584 173.178 85.0696 173.231 84.6552C174.645 81.7242 178.522 80.4783 181.506 79.8545ZM197.031 94.2714C197.611 94.6099 198.23 94.4458 198.724 94.0529C199.03 93.81 199.261 93.4992 199.494 93.1877C199.766 92.8226 200.039 92.4564 200.433 92.1976C201.049 91.7915 201.876 91.7701 202.585 91.8875C203.65 92.0636 204.569 92.5659 205.491 93.0697C206.013 93.355 206.536 93.6408 207.087 93.868C207.3 93.9562 207.425 93.6824 207.353 93.5211C206.431 91.448 204.505 89.5989 202.213 89.2285C199.817 88.8412 197.225 90.4191 196.389 92.6935C196.178 93.2673 196.528 93.9779 197.031 94.2714ZM174.267 91.8551C174.217 91.8734 174.168 91.8177 174.182 91.7704C174.788 89.8 177.07 88.9704 178.985 89.1347C180.17 89.2365 181.259 89.6698 182.158 90.461C183.015 91.2157 183.682 92.6438 182.906 93.688C182.109 94.7616 180.472 94.4144 180.378 93.0035C180.318 92.0885 178.744 91.5239 177.946 91.383C176.707 91.1645 175.426 91.4256 174.267 91.8551ZM196.448 110.755C195.887 110.977 191.142 111.196 188.341 111.068C186.431 110.982 181.475 109.824 181.475 109.327C181.475 108.83 181.686 108.382 181.868 108.4C182.605 108.48 188.476 108.545 192.61 108.59C194.437 108.61 195.925 108.627 196.48 108.639C196.753 108.645 197.039 108.639 197.329 108.631C197.53 109.253 197.009 110.533 196.448 110.755ZM186.95 107.14C184.745 107.121 182.066 107.097 180.158 107.21C179.476 107.25 179.141 108.223 179.093 108.685C178.641 112.977 182.068 116.4 185.852 117.726C189.364 118.957 194.001 119.19 197.133 116.89C198.494 115.892 199.524 114.509 200.196 112.969C200.558 112.139 200.824 111.278 200.971 110.385C200.985 110.301 201 110.213 201.016 110.122C201.129 109.48 201.266 108.703 201.047 108.116C200.73 107.272 199.89 107.263 199.119 107.254C199.055 107.254 198.991 107.253 198.929 107.252C198.618 107.246 198.308 107.239 197.997 107.232C197.178 107.214 196.359 107.196 195.541 107.187C193.781 107.167 192.021 107.162 190.262 107.157C189.65 107.155 189.038 107.153 188.427 107.151C187.972 107.148 187.475 107.144 186.95 107.14Z" fill="black"/>
<path fill-rule="evenodd" clip-rule="evenodd" d="M274.824 273.816C273.578 273.458 272.02 273.366 270.656 273.301C265.835 273.017 260.919 275.314 256.192 276.349C254.123 276.861 251.932 277.462 249.717 277.911C247.751 278.177 245.719 278.378 243.676 278.505C242.024 278.554 240.102 278.428 239.538 280.163C236.219 280.806 233.28 281.074 230.115 280.527C230.412 279.519 230.581 278.466 230.274 277.381C230.429 277.124 230.639 276.776 230.752 276.541H230.371C224.817 274.32 218.811 272.802 213.227 270.5C205.939 267.876 195.205 262.804 186.784 259.341C187.355 256.217 187.567 253.043 187.325 249.957L187.663 249.684C187.774 249.078 187.947 248.352 188.26 247.803C188.657 246.749 188.667 245.312 188.824 244.121C189.153 241.793 189.373 238.287 188.774 235.522C188.513 231.773 185.984 228.883 183.257 226.565C179.908 223.256 176.556 220.028 173.287 216.591C155.197 198.162 153.766 174.952 125.447 167.897L125.433 167.788C125.21 167.539 125.118 167.342 124.864 167.735C123.929 167.377 122.763 167.407 121.98 166.802C120.59 165.534 119.604 164.072 118.959 162.336C118.462 159.054 118.813 153.997 115.936 151.897C112.741 149.985 95.7631 148.623 94.2989 152.805C93.3905 153.657 92.9772 154.74 92.6933 156.066C91.7473 157.854 91.1505 159.837 90.1976 161.652C88.1716 165.724 86.8584 164.822 83.2816 165.753C82.8933 164.888 81.7147 165.062 80.8557 165.188C70.4538 166.648 57.7717 170.635 53.3181 180.405L53.6971 180.356C46.0095 194.789 50.9951 213.143 52.3701 228.438C53.4822 242.033 52.2103 255.694 49.1878 268.375C45.4778 281.828 45.265 296.876 52.6258 309.054C53.3739 310.448 54.2848 312.417 55.8966 311.543C56.7799 312.21 57.7721 312.671 59.1425 313.073C59.5204 313.346 59.9115 313.807 60.3071 314.003C60.3257 314.03 60.9625 313.663 60.9959 313.653C62.1994 315.369 128.275 321.104 135.132 321.995C141.173 322.722 149.155 324.581 154.079 320.227C158.147 319.065 162.404 316.041 165.655 313.039C167.628 341.63 168.719 400.186 170.48 400.594C171.25 400.855 172.29 401.167 173.162 401.417C173.167 403.471 173.32 405.805 173.159 407.824C172.889 410.105 172.204 412.798 171.894 415.196C170.562 415.107 170.17 416.442 170.015 417.348C168.866 424.839 168.9 430.878 168.982 439.111C182.501 447.068 198.345 451.444 213.556 456.586C215.013 457.68 218.17 456.497 219.852 456.201C225.693 455.052 232.33 451.653 230.855 445.421C229.776 440.728 225.244 438.028 221.428 435.268C217.254 432.246 212.854 429.227 209.016 425.629C205.936 422.73 203.636 420.481 201.068 417.209C199.929 415.688 198.714 413.188 197.182 412.067C198.801 410.148 195.53 411.946 194.291 412.057C193.563 408.631 192.661 405.341 191.579 402.054L192.63 402.101C196.082 398.88 198.018 383.415 198.258 378.827C199.988 348.917 199.947 314.445 193.006 289.256C198.278 292.501 204.06 295.21 209.304 298.419C212.61 300.355 215.965 303.042 219.672 303.981C219.913 304.674 220.797 304.943 221.279 304.265C221.943 304.346 222.797 304.071 222.87 303.769C223.549 302.383 224.532 300.889 224.414 299.382C224.413 299.382 223.503 297.272 223.503 297.272C225.543 298.101 227.76 299.844 229.937 300.004C234.334 314.676 242.998 306.457 251.335 300.746C256.367 297.233 261.871 293.354 267.166 289.608C271.658 286.037 280.429 282.648 276.129 275.575" fill="#D08B5B"/>
<path fill-rule="evenodd" clip-rule="evenodd" d="M82.9027 166.975C82.6913 166.549 82.4365 166.137 82.0452 166.056C77.1124 166.542 72.2267 167.885 67.693 169.962C50.9342 174.797 48.5177 194.403 50.5328 209.26C50.5528 209.531 50.6487 210.1 50.7932 210.958C51.5019 215.167 53.3799 226.32 53.1986 243.163C53.1262 249.891 51.512 256.923 49.9064 263.917C48.3053 270.892 46.7126 277.831 46.6655 284.394C46.5789 296.461 52.5725 307.489 54.9031 310.244C59.3653 315.52 67.5312 304.15 76.6513 291.452C86.4458 277.815 97.3407 262.646 105.931 264.916C110.794 266.201 135.053 264.046 143 261.882C143.535 261.736 143.456 255.353 143.39 250.082C143.344 246.32 143.304 243.124 143.499 243.163C151.341 244.744 163.984 239.298 168.47 237.365C169.239 237.034 169.769 236.805 169.993 236.734C175.25 235.054 180.854 234.001 185.82 236.219C185.706 234.498 185.042 232.851 184.115 231.395C182.971 231.112 182.12 230.146 181.306 229.224C181.02 228.899 180.738 228.58 180.45 228.297C179.229 226.986 177.997 225.686 176.765 224.386C174.457 221.95 172.149 219.514 169.914 217.009C165 211.725 161.035 205.302 157.065 198.869C149.219 186.16 141.353 173.416 126.105 169.367C124.587 182.072 108.324 184.1 98.5233 179.752L98.1513 179.609L97.7849 179.467C91.7856 177.116 85.1315 173.583 83.0347 167.25L82.9458 167.063L82.9027 166.975ZM186.436 243.163C186.588 241.548 186.311 240.103 184.999 239.169C183.429 240.29 181.746 241.22 179.962 241.955C179.968 242.16 179.868 242.379 179.777 242.541C182.125 242.727 184.57 243.333 186.218 245.044C186.298 244.419 186.376 243.791 186.436 243.163Z" fill="#E86BBB"/>
<path fill-rule="evenodd" clip-rule="evenodd" d="M197.374 412.614L197.596 412.925C205.686 424.268 214.636 432.807 224.135 437.18L224.454 437.326L224.484 437.343C227.192 438.924 229.44 441.43 230.321 444.004C231.353 447.017 230.48 449.857 227.55 451.934L227.46 451.996L227.445 452.007C223.756 454.416 219.403 455.914 215.126 456.213L214.968 456.224L214.76 456.237L214.583 456.128C213.449 455.428 212.358 455.026 210.027 454.358L209.045 454.077L208.64 453.959L208.438 453.899C207.588 453.644 207.018 453.45 206.42 453.208L206.231 453.13L205.596 452.916C194.19 449.055 182.923 444.632 171.835 439.667L171.182 439.375L170.183 438.924L170.16 438.53C169.653 429.904 169.674 423.018 170.396 416.531L170.42 416.32L171.721 416.442C171.53 418.972 174.063 421.112 176.455 420.305L176.527 420.279L176.561 420.268L176.661 420.237C177.335 420.02 177.895 419.705 178.892 419.028L179.63 418.523L179.817 418.397L179.953 418.307C180.02 418.264 180.083 418.223 180.148 418.182L180.239 418.125C184.336 415.562 188.745 413.835 193.222 413.101C193.592 413.034 193.973 412.976 194.39 412.924L194.851 412.869L195.326 412.819L196.797 412.675L197.374 412.614ZM272.983 273.498L273.276 273.812C274.246 274.85 274.982 275.867 275.448 276.917C276.029 278.226 276.152 279.522 275.719 280.776L275.684 280.873L275.676 280.892C274.947 282.562 273.24 284.039 269.971 286.194L269.474 286.519C268.951 286.858 267.537 287.77 267.11 288.053L266.922 288.178C266.154 288.691 265.575 289.107 265.113 289.485L265.037 289.548L263.944 290.307L261.696 291.871L260.028 293.033L258.88 293.833C254.493 296.894 250.259 299.865 246.122 302.785L245.912 302.928L245.746 303.042L245.509 303.207L245.174 303.445L244.061 304.241L243.839 304.398L243.619 304.552L243.397 304.706L243.173 304.86L242.952 305.009C240.689 306.523 239.022 307.273 237.247 307.376C235.983 307.45 234.791 307.139 233.683 306.403L233.604 306.349L233.57 306.326L233.451 306.219L233.351 306.128L233.254 306.036L233.158 305.945C232.649 305.454 232.186 304.922 231.46 304.023L230.848 303.262L230.604 302.961L230.424 302.742L230.295 302.587C229.898 302.114 229.595 301.784 229.254 301.452L229.141 301.343L228.369 300.608L229.375 300.255C233.432 298.829 236.749 294.296 238.112 289.108L238.16 288.922L238.17 288.893C238.416 288.2 238.505 287.491 238.529 286.332L238.541 285.448L238.547 285.157L238.552 284.961L238.559 284.768C238.61 283.381 238.764 282.592 239.202 281.717L239.258 281.608L239.277 281.573L239.299 281.54C239.326 281.501 239.33 281.494 239.318 281.474L239.087 281.082L239.361 280.732C239.482 280.577 239.616 280.424 239.771 280.26L239.839 280.189L239.991 280.032L240.207 279.998C246.994 278.926 253.961 277.345 262.262 275.084L263.098 274.855L263.514 274.743L263.795 274.669L264.073 274.596C266.818 273.882 268.495 273.608 270.413 273.632L270.575 273.635C270.753 273.638 270.904 273.648 271.161 273.671L271.426 273.696L271.548 273.706L271.665 273.714C272.097 273.744 272.326 273.728 272.551 273.652L272.578 273.643L272.983 273.498Z" fill="white"/>
<path fill-rule="evenodd" clip-rule="evenodd" d="M85.8366 164.856C90.0833 163.825 90.809 153.65 93.3733 155.099C94.8556 156.387 92.4309 158.818 92.0018 160.272L91.8136 160.642C90.9435 162.335 89.9597 164.023 88.245 165C87.1428 166.159 83.8485 165.021 84.3328 166.868C86.0244 172.434 95.0015 176.288 100.292 178.022C108.516 181.109 121.819 180.064 123.751 169.716C119.24 168.891 115.906 160.756 118.686 157.37C118.78 160.66 119.68 164.055 122.263 166.283L122.406 166.414C122.861 166.829 123.449 167.324 124.036 167.232C124.608 166.435 125.719 166.888 126.046 167.729C151.728 172.166 157.45 199.849 173.623 216.144C176.854 219.543 180.231 222.798 183.565 226.094C186.97 228.794 189.379 232.558 189.547 236.977C189.851 239.435 189.701 241.896 189.375 244.358L189.353 244.58C189.202 246.106 189.112 247.745 188.386 249.099C188.26 249.558 188.311 250.138 187.913 250.462C188.087 253.271 187.922 256.131 187.446 258.931L188.686 259.484C202.321 265.553 216.113 271.274 230.331 275.824C231.546 275.603 231.447 277.015 230.858 277.657C231.014 278.412 231.03 279.197 230.848 279.943C233.452 280.317 236.096 280.006 238.666 279.532C239.479 277.743 241.639 277.839 243.309 277.788C245.384 277.658 247.455 277.456 249.515 277.168C254.591 276.035 259.575 274.544 264.601 273.234C267.965 272.288 271.592 272.333 274.967 273.203C275.54 273.845 276.069 274.531 276.516 275.259C279.601 280.039 276.561 284.419 272.256 286.93C265.348 291.823 258.438 296.71 251.5 301.559L250.996 301.918C242.74 307.823 233.453 315.298 229.044 300.925C227.563 300.752 226.264 299.758 224.883 299.171C225.255 300.896 224.146 302.638 223.381 304.117C223.052 304.959 222.152 305.237 221.321 305.229C220.609 305.926 219.274 305.652 218.809 304.824C215.035 303.745 211.917 301.224 208.577 299.266C203.827 296.383 198.845 293.925 194.027 291.164C202.031 324.281 200.073 358.778 197.943 392.489L197.928 392.793C197.664 397.715 196.535 400.043 192.45 403.06C193.162 405.229 193.798 407.407 194.284 409.639C194.455 410.156 195.244 409.669 195.25 410.38C196.701 410.041 199.651 410.404 198.622 412.41C201.535 414.853 203.508 418.164 206.062 420.949C210.56 426.337 216.439 430.348 222.204 434.299C235.457 441.048 236.217 452.743 220.711 456.738L220.555 456.774C218.42 457.288 215.849 458.462 213.779 457.474C210.682 456.878 207.609 455.672 204.58 454.753C192.381 450.719 180.45 445.995 168.89 440.566C168.471 440.369 168.234 439.919 168.223 439.468C168.352 435.743 167.34 415.331 171.204 414.892C172.067 410.721 172.203 406.417 172.046 402.161C170.792 401.766 169.525 401.386 168.226 401.14C166.965 400.743 164.994 400.654 164.15 399.633C163.846 399.524 163.624 399.253 163.669 398.825C164.352 392.428 164.87 386.015 165.247 379.593C166.541 358.058 166.102 336.455 164.629 314.943C161.593 317.566 158.134 319.863 154.283 321.085C152.158 323.213 148.75 323.67 145.849 323.927C142.118 324.158 138.452 323.413 134.77 322.95C128.518 322.163 122.309 322.86 116.102 323.631L113.98 323.896C98.7841 325.561 82.3613 325.906 68.198 319.415C65.5313 319.652 62.2207 316.771 60.5572 314.847C59.8226 315.3 59.1008 314.415 58.5155 313.949C57.5494 313.656 56.4535 313.234 55.5768 312.619C53.3527 313.346 52.153 310.461 51.3081 308.892C37.8991 285.944 52.8322 263.102 51.709 238.768C52.3892 219.691 43.6816 199.815 52.0973 181.518C53.7998 173.775 63.757 168.423 71.2518 166.455C73.6669 166.057 82.8101 162.753 83.8169 165.531C84.2934 164.906 85.1069 164.859 85.8366 164.856ZM197.064 413.304C195.807 413.439 194.582 413.516 193.34 413.743C188.807 414.487 184.482 416.241 180.586 418.678C179.325 419.464 178.199 420.455 176.751 420.893C173.775 421.973 170.851 419.292 171.069 416.394C170.24 423.677 170.382 431.171 170.813 438.492C182.45 443.753 194.349 448.444 206.463 452.519C209.191 453.662 212.421 454.028 214.927 455.572C219.199 455.303 223.5 453.804 227.088 451.46C233.04 447.333 229.089 440.787 224.154 437.907C213.292 433.008 204.047 423.095 197.064 413.304ZM173.266 402.532C173.039 404.692 174.68 408.055 174.448 412.358C174.27 413.702 173.851 415.109 173.997 416.458C174.665 421.462 180.087 415.103 182.327 414.407C185.508 412.658 188.964 411.468 192.517 410.817C192.495 409.663 191.731 409.202 191.63 408.062C191.486 406.382 191.493 404.768 191.418 403.072C186.797 405.172 178.166 403.687 173.266 402.532ZM198.159 412.977C198.079 413.031 197.994 413.077 197.907 413.117C198.549 413.895 199.105 414.757 199.866 415.425L199.542 414.922C199.108 414.251 198.665 413.582 198.159 412.977ZM54.6647 233.947C54.4319 234.892 54.0079 235.781 53.3728 236.538C56.6527 263.113 39.7778 285.268 55.2927 309.978C55.4888 310.069 55.6677 310.182 55.84 310.324C55.9312 310.264 56.0225 310.2 56.112 310.136C63.384 297.276 73.7357 286.184 81.9837 273.878C83.5668 270.789 86.1729 267.68 87.1707 264.111C70.5955 257.571 63.9745 248.027 54.6647 233.947ZM272.799 274.257C272.096 274.509 271.314 274.301 270.564 274.288C267.901 274.231 265.299 274.925 262.752 275.627C255.345 277.651 247.898 279.444 240.309 280.643C240.156 280.801 240.009 280.963 239.876 281.134C240.008 281.356 240.028 281.635 239.837 281.911C238.692 284.097 239.618 286.772 238.786 289.112C237.581 293.848 234.376 299.19 229.592 300.87C231.188 302.39 232.331 304.345 233.974 305.811C238.013 308.577 242.461 304.454 245.758 302.243C252.036 297.811 258.33 293.411 264.642 289.027C267.469 286.685 273.724 283.734 275.077 280.631C275.944 278.252 274.366 275.935 272.799 274.257ZM229.535 280.296C226.833 285.803 225.273 291.658 223.712 297.571C225.335 298.017 226.83 298.716 228.426 299.186C230.673 299.691 233.845 295.352 234.972 293.629C236.133 291.703 236.947 289.586 237.324 287.368C237.642 285.196 237.303 282.941 238.248 280.929C235.321 281.228 232.351 281.29 229.535 280.296ZM68.8886 268.932C71.4261 268.222 65.6536 273.959 65.3211 274.571C61.5677 279 58.1288 283.677 54.7162 288.369L53.6817 289.793C53.5823 289.938 52.8972 290.95 53.3926 290.821C53.4379 290.809 53.4591 290.868 53.4231 290.893C50.2671 291.451 67.3668 269.322 68.8886 268.932ZM130.751 266.225C130.956 265.607 129.982 265.342 129.777 265.957L129.13 267.904C126.689 275.259 124.263 282.625 121.345 289.808C121.101 290.411 122.077 290.674 122.319 290.078C125.493 282.26 128.086 274.227 130.751 266.225ZM159.126 263.649C158.236 267.869 155.988 271.674 154.625 275.707C157.185 275.144 159.157 272.76 160.649 270.709L160.694 270.641C161.398 269.558 162.216 267.867 163.815 268.631C166.241 270.039 164.503 275.036 164.458 277.404C164.15 280.651 163.094 283.687 162.374 286.841C164.224 285.577 164.756 283.086 165.657 281.145L169.127 272.825C171.679 269.332 170.494 279.792 170.362 280.78C170.155 282.948 169.24 285.13 169.599 287.313C171.038 285.766 171.944 283.822 172.706 281.849C173.762 279.106 174.726 276.327 175.731 273.565C176.079 272.68 177.396 272.991 177.205 273.965C177.14 277.1 177.089 280.234 177.039 283.368L177.001 285.719C176.994 286.165 176.774 287.466 177.544 287.107C181.59 282.863 182.627 274.378 182.1 268.678C174.148 268.87 166.035 267.839 159.126 263.649ZM229.891 279.48C229.858 279.583 229.821 279.687 229.783 279.79C229.806 279.795 229.831 279.8 229.853 279.806C229.868 279.696 229.881 279.588 229.891 279.48ZM53.3998 279.48C52.5177 278.829 67.3439 259.804 66.3834 265.296C62.2471 270.187 57.4236 274.473 53.3998 279.48ZM184.335 237.441C170.47 234.186 158.259 246.347 144.335 244.509C144.496 248.865 144.72 253.25 144.632 257.607C163.124 259.131 161.02 266.996 182.306 266.205C185.057 264.363 186.186 253.079 185.954 249.672C186.132 245.645 182.664 243.837 179.209 243.13C177.961 243.883 175.721 241.636 177.575 240.845C180.014 240.112 182.297 238.959 184.335 237.441ZM82.0452 166.056C77.1125 166.542 72.2267 167.885 67.6931 169.962C50.9342 174.797 48.5177 194.403 50.5329 209.26C51.3679 220.559 54.5919 231.609 61.3703 240.797C79.4162 268.301 109.305 263.946 137.617 260.308C138.637 259.599 140.367 260.102 141.35 259.165C141.247 259.13 141.155 259.081 141.075 259.02C141.548 258.652 141.914 258.005 142.023 257.318L142.227 257.338C142.427 253.073 142.267 248.891 142.331 244.658C133.029 242.109 123.052 240.806 113.624 238.266C112.552 239.013 111.317 238.153 110.27 237.748C107.556 236.594 104.818 235.498 102.06 234.455L101.37 234.195C99.5724 233.522 97.7759 232.831 95.9949 232.111L95.3278 231.84C94.3075 231.423 91.7311 229.879 90.6182 230.843L90.708 231.036C91.3679 232.475 93.6413 237.8 90.8465 236.747C88.5772 235.154 87.4005 224.048 85.1528 223.95C84.3798 226.018 83.8259 228.164 83.6994 230.374C83.6539 230.872 82.9997 231.291 82.6067 230.826C79.9407 227.317 83.9677 223.495 84.0752 219.792C84.3292 215.485 82.4228 211.456 81.473 207.334L81.4146 207.049C80.8577 204.375 79.9911 201.133 80.221 198.735L80.7741 200.816C81.329 202.9 81.8974 204.983 82.5495 207.037C84.1679 212.167 87.0901 217.452 85.4663 222.942C88.7238 223.05 89.2747 228.189 90.4983 230.536C92.4781 227.968 106.41 234.125 109.589 235.113L110.202 234.417C120.158 223.134 127.346 215.498 142.777 224.423C140.112 215.828 139.854 206.699 139.399 197.774C139.555 196.076 138.573 191.597 139.958 190.67C140.198 190.705 140.432 190.777 140.653 190.874L140.652 191.754C140.659 193.458 140.739 196.284 141.454 196.926L141.782 200.3C142.641 209.075 143.616 217.843 146.237 226.298C152.53 229.815 158.273 234.218 163.675 238.968L164.29 238.744C170.965 236.301 178.996 233.17 185.82 236.219C185.706 234.498 185.042 232.851 184.115 231.395C182.568 231.012 181.557 229.382 180.45 228.297C176.942 224.531 173.341 220.851 169.914 217.009C155.291 201.285 149.069 175.466 126.105 169.367C124.587 182.072 108.324 184.1 98.5233 179.752L98.1513 179.609C92.0591 177.259 85.1743 173.712 83.0348 167.25L82.9459 167.063C82.7259 166.607 82.4635 166.143 82.0452 166.056ZM85.6598 238.36C85.6776 238.341 85.7121 238.367 85.697 238.389C82.8416 241.97 80.5182 246.855 83.3559 251.133C83.8804 252.096 82.6546 253.021 81.8698 252.287C77.9312 247.816 82.3011 241.757 85.6598 238.36ZM184.999 239.169C183.429 240.29 181.746 241.22 179.962 241.955C179.968 242.16 179.868 242.379 179.777 242.541C182.125 242.727 184.57 243.333 186.218 245.044C186.298 244.419 186.376 243.791 186.436 243.163C186.588 241.548 186.311 240.103 184.999 239.169ZM77.0323 223.338L77.0505 223.252C77.0633 223.154 77.212 223.147 77.2076 223.252C77.1531 224.532 76.2211 225.443 75.4318 226.354C74.2605 227.707 73.089 229.059 71.9172 230.411C69.958 232.767 67.0718 235.135 67.7208 238.548C67.733 239.761 66.2129 240.021 65.5963 239.129C63.1436 234.454 70.8641 230.476 73.4666 227.46C74.6886 226.154 76.6144 225.194 77.0323 223.338ZM113.793 237.374C113.83 237.432 113.856 237.495 113.87 237.56C114.281 237.604 114.69 237.65 115.1 237.7L113.793 237.374ZM52.382 226.44C52.4552 226.928 52.5238 227.418 52.5895 227.908L52.6542 228.398L52.6643 228.355C52.6978 228.228 52.761 228.118 52.8437 228.029L52.8719 228.001C52.7017 227.483 52.5385 226.963 52.382 226.44ZM165.1 221.383C166.083 221.278 161.626 224.482 161.379 224.878C161.02 225.191 160.6 224.636 160.983 224.365C162.368 223.388 163.733 222.386 165.1 221.383ZM156.427 211.959C157.111 211.679 157.576 212.818 156.927 213.135C154.562 214.292 152.061 215.11 149.882 216.631C149.786 216.698 149.667 216.543 149.757 216.471L150.019 216.264C152.026 214.671 154.031 212.939 156.427 211.959ZM53.1986 197.553C53.8596 200.665 57.4359 201.686 60.2114 202.515L61.0786 202.845C63.5295 203.783 66.0686 204.838 67.8318 206.819C68.523 209.053 63.5915 205.161 62.9031 204.963C59.5356 202.876 53.4508 202.522 53.1986 197.553ZM126.206 168.504C126.224 168.662 126.234 168.823 126.238 168.985C126.446 168.985 126.652 168.987 126.859 168.993C126.618 168.852 126.396 168.69 126.206 168.504Z" fill="black"/>
<path fill-rule="evenodd" clip-rule="evenodd" d="M135.134 120.157C134.747 115.14 135.347 109.881 133.415 105.112C130.046 97.1989 120.6 94.5606 113.277 91.5481C110.344 90.6801 100.472 90.5588 97.0371 89.41C89.2628 86.8099 87.4053 83.712 81.2279 88.6626C80.1852 89.5083 79.5327 90.4274 79.0568 91.6833L79.0764 91.6886C78.9405 92.2122 79.0862 92.7346 79.3924 93.1336C76.714 95.875 75.5931 99.9851 76.9674 103.634C81.4522 113.131 81.2413 118.266 79.7963 128.475C77.9093 138.006 82.2213 141.487 89.3626 146.673C89.0718 147.238 89.0115 147.988 89.3906 148.486C97.6484 160.106 113.219 165.653 126.559 159.756C131.974 157.342 134.392 151.568 135.772 146.357C137.379 140.523 137.873 134.375 136.564 128.432C136.036 125.684 135.349 122.955 135.134 120.157Z" fill="#D08B5B"/>
<path fill-rule="evenodd" clip-rule="evenodd" d="M75.9878 105.924L80.8979 109.199L98.4739 90.6454L92.625 86.0358C92.625 86.0358 82.0137 93.8887 79.9273 95.9613C77.8409 98.0339 75.9878 105.924 75.9878 105.924Z" fill="#9FD8E5"/>
<path fill-rule="evenodd" clip-rule="evenodd" d="M87.501 64.568C88.5034 64.4173 89.2604 65.04 89.6205 65.9177L89.6394 65.965C89.7551 66.2637 89.8839 66.5541 90.0224 66.8397C92.5307 65.6076 96.1098 65.9242 97.6972 68.4195C98.83 70.2017 98.1389 72.3167 97.7119 74.2066L97.4316 75.4518C97.9735 75.7971 98.3821 76.4154 98.3629 77.0557L98.3606 77.105L98.2465 78.8415C98.6083 78.4743 98.9392 78.0744 99.2342 77.6485C99.4379 77.2748 99.6579 76.9076 99.8943 76.5518C101.284 74.4579 104.406 76.2776 103.258 78.52C103.038 78.9525 102.79 79.3621 102.525 79.757C102.225 80.3397 101.979 80.9386 101.79 81.5539C102.332 81.7905 102.75 82.316 102.794 83.1092C102.896 84.9615 101.925 86.507 100.38 87.478C99.9252 87.7636 99.4558 87.8191 99.0304 87.713C98.9555 87.8142 98.8805 87.9154 98.8088 88.0182C99.4249 88.5192 99.9806 89.0904 100.458 89.7237C101.896 89.5082 103.341 89.407 104.787 89.4038C106.554 88.5372 108.669 88.5551 110.568 88.8799C111.79 89.0888 112.964 89.4952 114.167 89.7873C115.435 90.0941 116.722 90.1055 118.005 90.3144C119.622 90.5772 121.04 91.3246 121.931 92.5176C122.911 92.547 123.941 92.9485 124.795 93.4936C126.783 94.7633 128.76 96.0509 130.744 97.3288C131.505 97.8194 131.789 98.6025 131.65 99.4761L131.64 99.532L131.573 99.8943L131.73 100.117C132.337 100.976 132.998 101.875 133.39 102.822C134.117 103.871 134.774 104.971 135.356 106.106C136.14 107.63 136.787 109.246 137.225 110.904C137.335 111.323 137.444 111.746 137.516 112.173C137.618 112.777 137.46 113.246 137.374 113.825C137.266 114.559 137.227 115.304 137.113 116.04C137.036 116.528 136.622 116.768 136.189 116.781C136.352 118.023 136.469 119.273 136.582 120.513C136.74 122.285 136.847 124.063 136.94 125.84C137.419 126.537 138.399 127.088 139.106 127.279C140.086 127.542 141.113 127.256 142.038 126.922C142.62 126.711 143.098 127.444 142.814 127.934C141.923 129.471 140.016 129.464 138.572 128.784C137.96 128.497 137.424 128.081 137.027 127.539C137.051 128.054 137.077 128.57 137.103 129.087L137.127 129.556C137.421 135.029 138.055 140.689 137.028 146.108C135.25 155.493 127.493 162.64 118.018 163.195C113.046 163.486 108.905 162.015 106.846 161.195C104.787 160.375 105.587 158.702 107.017 159.18C109.479 160.004 114.002 161.231 118.051 160.701C127.592 159.452 135.682 154.677 134.851 134.111C134.733 131.194 134.37 128.276 134.292 125.36C134.217 122.509 134.244 119.656 134.119 116.807L134.077 115.834C134.028 114.698 133.976 113.557 133.891 112.42C133.788 111.979 133.703 111.532 133.578 111.1C133.237 109.923 132.792 108.779 132.24 107.687C132.118 107.78 131.981 107.847 131.832 107.873C130.706 108.075 129.65 108.018 128.596 107.548C128.103 107.331 127.67 107.042 127.266 106.685C127.073 106.517 126.944 106.354 126.843 106.184C126.333 106.192 125.823 106.039 125.504 105.672C125.139 105.253 125.079 104.821 125.221 104.421L125.236 104.381L125.201 104.368C124.77 105.482 123.913 106.463 122.973 107.126C121.486 108.177 119.627 108.48 117.844 108.508C115.875 108.537 113.798 108.234 111.856 107.924C111.342 107.842 110.832 107.749 110.332 107.623C110.312 107.643 110.293 107.666 110.271 107.685C108.604 109.283 106.259 109.694 104.143 108.782C102.921 108.255 101.896 107.406 100.989 106.434C100.976 106.943 100.95 107.452 100.906 107.956L100.888 108.157C100.798 109.096 100.624 110.092 99.9154 110.77C98.7697 111.868 97.1073 111.428 95.7855 110.713C95.7871 110.747 95.7871 110.783 95.7871 110.819C96.144 112.033 96.5026 113.249 96.8611 114.465L96.9384 114.724C97.1991 115.587 97.4851 116.452 97.5636 117.355C97.7135 119.082 96.5661 120.787 94.6495 120.208C93.6441 119.905 92.8387 119.059 92.0658 118.381L91.5789 117.959C92.8387 122.083 93.7123 126.354 93.7938 130.657C93.7987 130.891 93.5982 131.067 93.3766 131.075C92.8583 131.096 92.3009 130.994 91.7793 130.786C91.75 130.785 91.7207 130.783 91.6897 130.778C90.7998 130.649 89.9735 130.328 89.245 129.853C89.4128 130.387 89.4878 130.959 89.4438 131.558C89.4324 131.704 89.2058 131.754 89.1733 131.594C88.7528 129.523 86.3325 127.958 84.2463 128.355C82.0069 128.781 80.3575 130.71 79.9533 132.905C79.5198 135.263 80.3494 137.99 81.8863 139.81C82.5936 140.649 83.5243 141.349 84.6293 141.525C85.1345 141.605 85.6593 141.577 86.1499 141.434C86.3585 141.372 86.5541 141.285 86.753 141.203C87.0431 141.086 87.3821 141.068 87.6559 140.944C88.2768 140.665 88.9011 141.238 88.5865 141.876C88.3127 142.432 88.0666 142.808 87.6119 143.095C87.9802 143.545 88.3143 144.172 88.4382 144.34C89.0706 145.195 89.7127 146.003 90.4331 146.785C91.1665 147.578 91.9668 148.303 92.8127 148.973L93.1682 149.255C93.983 149.902 94.6925 150.501 95.2672 151.43C95.7203 152.162 95.1335 153.156 94.2844 153.145C91.6278 153.107 89.6964 150.77 88.3209 148.729C88.1253 148.436 87.9411 148.128 87.77 147.811C87.708 147.911 87.6396 148.004 87.563 148.089L87.7146 148.497C88.1644 149.698 86.2265 150.483 85.6642 149.362C85.2551 148.549 84.7809 147.776 84.2528 147.044C83.9415 147 83.6367 146.811 83.4672 146.566C83.0386 145.944 82.5578 145.316 82.152 144.654C81.927 144.44 81.6956 144.234 81.4593 144.033C81.3908 144.094 81.3207 144.154 81.2539 144.218C80.9573 144.895 80.5906 145.514 80.1359 146.096L80.0384 146.22C79.1672 147.32 78.0326 148.445 76.6285 148.714C76.1998 148.796 75.7875 148.262 76.1672 147.921C77.15 147.036 78.3121 146.434 79.2183 145.447C79.6647 144.96 80.0746 144.425 80.4271 143.863L80.5075 143.733C80.5661 143.637 80.6264 143.54 80.6884 143.443C80.2793 143.163 79.8702 142.883 79.4611 142.602C78.335 143.565 76.8684 144.006 75.6228 144.804L75.499 144.885C74.3728 145.639 73.1863 143.971 74.0892 143.056C75.0845 142.05 75.9154 140.851 76.7972 139.734C76.3825 138.969 76.1863 138.065 76.1128 137.151C76.0838 136.892 76.0611 136.633 76.0385 136.374C75.4061 136.384 74.7705 136.167 74.2326 135.793L74.0289 135.648C73.3753 135.857 72.6892 135.958 72.0324 135.94C70.4873 135.895 69.8549 134.127 70.8214 133.009C71.8074 131.867 73.5334 131.617 74.9009 132.172C74.9449 132.149 74.9905 132.125 75.0345 132.1C74.9693 131.8 74.9838 131.527 75.058 131.288L75.0365 131.142C74.7358 130.68 74.5381 130.153 74.4631 129.596C74.4038 129.154 74.4158 128.717 74.5178 128.281C74.5517 128.136 74.6223 127.985 74.6763 127.834C74.5651 127.553 74.4998 127.262 74.4795 126.97C74.4484 126.933 74.4174 126.895 74.3881 126.854C73.7096 125.9 73.8467 124.751 74.4924 123.979C74.4954 123.93 74.4999 123.881 74.5066 123.832C74.4688 123.747 74.4341 123.661 74.4025 123.574C73.7715 122.936 73.3084 122.169 73.3947 121.219C73.4454 120.66 73.6749 120.157 74.0222 119.781C73.9606 119.598 73.9547 119.387 74.0294 119.21C73.4751 117.734 73.5452 115.956 73.9441 114.305C73.8561 114.054 73.8105 113.781 73.8203 113.492C73.8659 112.266 74.9253 111.14 76.1803 111.155C76.3314 111.156 76.4728 111.176 76.6088 111.205L76.6105 111.176C76.6586 110.808 76.7597 110.468 76.9072 110.163C76.8346 110.137 76.7675 110.099 76.7087 110.049C75.9045 110.478 75.0536 110.807 74.1614 111.031C73.5054 111.195 72.8334 110.448 73.2412 109.832C73.4304 109.546 73.6392 109.289 73.8641 109.054C73.5444 109.056 73.2197 109.078 72.8913 109.12C72.3013 109.197 71.6428 108.794 71.2598 108.248C70.7839 108.712 70.3064 109.174 69.8288 109.636C68.6195 110.809 66.7925 109.946 66.6018 108.399C66.2416 108.302 65.9058 108.139 65.6108 107.906C63.7039 108.735 61.652 109.19 59.5544 109.277C58.0484 109.339 57.1683 107.583 57.8724 106.342C58.3451 105.51 58.9318 104.763 59.6082 104.113C58.5586 104.435 57.4747 104.666 56.3681 104.815C55.7699 104.895 54.9241 104.399 54.6845 103.849C53.7685 101.734 53.8468 99.5287 54.9013 97.4708C54.942 97.3892 54.9876 97.3108 55.0316 97.2325C55.1408 96.9599 55.2598 96.6907 55.3886 96.4263C54.0912 95.0717 53.9788 93.0578 54.678 91.372C54.3976 90.9166 54.2901 90.3683 54.4808 89.8722C55.0235 88.4442 55.8058 87.1255 56.7935 85.9929C56.6989 85.8101 56.6158 85.6159 56.5457 85.407C55.99 83.7179 56.6338 81.6795 57.9327 80.5029C58.7493 79.7619 59.6881 79.318 60.6904 79.0341C61.1125 78.2866 61.6553 77.6126 62.2876 77.0446C62.3121 76.9908 62.3365 76.9369 62.3642 76.8831C63.3486 75.0259 65.1415 74.0303 67.063 73.8002C67.138 73.074 67.6269 72.3804 68.3375 72.1552C68.5331 71.5269 68.8249 70.9263 69.2258 70.3812C69.8565 69.5228 70.9045 69.118 71.8922 69.6811C72.4333 69.9895 72.9516 70.3437 73.4373 70.7353C73.6554 70.6329 73.9027 70.5666 74.1818 70.5455L74.2522 70.5411L75.8592 70.4595C76.5323 70.1609 77.2038 69.8475 77.8769 69.5423C78.2811 69.2078 78.7326 68.9287 79.2248 68.7214C79.7822 68.4881 80.3526 68.3559 80.9247 68.3118C81.3892 68.16 81.857 68.0262 82.3329 67.9218C83.4509 67.677 84.6211 67.5399 85.7816 67.5513C85.8053 67.2505 85.8171 66.9462 85.8149 66.6382L85.8125 66.484C85.7865 65.4966 86.5737 64.7084 87.501 64.568ZM86.3748 143.565C86.2151 143.599 86.0538 143.627 85.8924 143.647C85.9413 143.767 85.9902 143.888 86.0375 144.009C86.1678 144.082 86.2999 144.152 86.4319 144.218C86.3928 143.996 86.3699 143.772 86.3748 143.565ZM78.0013 141.073L77.8929 141.273C77.8754 141.306 77.8581 141.338 77.8411 141.37C78.0709 141.352 78.3023 141.357 78.5305 141.383L78.5298 141.359C78.5005 141.349 78.4712 141.34 78.4431 141.326C78.2857 141.25 78.1393 141.165 78.0013 141.073ZM82.5268 131.958C83.9688 132.042 85.1904 132.264 86.5018 132.895L86.6144 132.95C87.7732 133.527 89.6899 134.591 89.5286 136.117C89.4829 136.551 89.1684 137.008 88.6729 136.973C87.3152 136.88 86.5394 135.509 85.6202 134.654C84.6929 133.793 83.5536 132.906 82.4307 132.314C82.2719 132.231 82.3344 131.967 82.5072 131.958L82.5268 131.958ZM75.9879 111.854C75.6424 111.865 75.7581 112.201 75.9358 111.92C75.9505 111.898 75.9684 111.875 75.9879 111.854ZM94.639 89.41C91.3667 89.4962 88.0733 91.4309 85.6219 93.3865C83.4892 95.0879 81.6477 97.1116 80.017 99.2927C79.5975 100.379 79.2373 101.488 78.933 102.605C78.7326 103.343 78.6071 104.089 78.4392 104.833L78.3871 105.061C78.2552 105.308 78.1572 105.573 78.0859 105.847C78.383 106.146 78.7684 106.359 79.1928 106.461C79.3296 106.493 79.4432 106.564 79.533 106.658C79.8746 106.087 80.1732 105.484 80.3469 104.846L80.3533 104.816C81.0099 103.739 81.7231 102.696 82.4877 101.688C84.5967 98.9053 86.9192 96.3692 89.7111 94.259C91.8282 92.6596 94.1947 91.4062 96.7112 90.5919C96.0953 90.0943 95.3958 89.7006 94.639 89.41Z" fill="black"/>
<path fill-rule="evenodd" clip-rule="evenodd" d="M120.259 150.05C119.161 149.603 118.181 148.856 117.465 147.903C117.216 147.571 117.152 147.221 117.204 146.901C117.263 146.541 117.476 146.214 117.766 145.996C118.058 145.776 118.423 145.668 118.775 145.723C119.082 145.771 119.387 145.939 119.628 146.286L119.679 146.356C120.105 146.931 120.66 147.404 121.292 147.708C121.901 148.001 122.583 148.138 123.288 148.059C124.631 147.907 125.557 147.181 126.541 146.196C126.663 146.071 126.785 145.943 126.907 145.812C126.985 145.694 127.092 145.618 127.212 145.578C127.344 145.534 127.494 145.537 127.631 145.585C127.764 145.631 127.882 145.718 127.962 145.835C128.037 145.945 128.08 146.082 128.066 146.239C127.976 147.261 127.441 148.172 126.682 148.888C125.839 149.683 124.721 150.233 123.669 150.426C122.51 150.639 121.328 150.486 120.259 150.05ZM124.216 134.292C125.449 135.041 127.329 136.788 126.002 138.645C124.44 140.282 122.191 138.405 121.083 137.556C120.056 136.898 118.901 138.59 119.855 139.359C127.862 145.282 131.111 134.488 124.84 133.411C124.149 133.293 123.893 134.06 124.216 134.292ZM109.867 127.401C110.004 125.711 112.58 125.328 112.836 127C113.066 128.498 112.795 129.874 112.12 131.223C111.475 132.512 109.853 131.911 109.73 130.737C109.566 129.164 109.783 128.453 109.867 127.401ZM129.477 126.653C129.836 126.183 130.355 125.862 130.976 126.044C132.917 126.61 132.345 129.364 131.663 130.705C131.293 131.432 130.096 131.617 129.555 130.976C128.673 129.931 128.25 127.844 129.371 126.814C129.402 126.761 129.436 126.707 129.477 126.653ZM112.093 120.006L112.399 119.952C113.348 119.788 114.527 119.631 115.198 120.393C115.554 120.797 115.677 121.548 115.198 121.935C114.357 122.615 113.427 122.352 112.418 122.409C111.587 122.457 110.789 122.594 109.988 122.823C108.232 123.324 106.801 124.24 105.301 125.245C105.104 125.377 104.904 125.126 104.997 124.942C105.863 123.247 107.541 121.855 109.222 121.007C110.119 120.554 111.1 120.178 112.093 120.006ZM127.708 119.247L127.942 119.295C130.496 119.828 133.815 120.894 135.024 123.401C135.07 123.755 135.021 123.831 134.982 123.881L134.969 123.897C134.936 123.94 134.91 123.998 134.756 124.046C134.713 124.036 134.67 124.025 134.627 124.014C134.072 123.869 133.634 123.669 133.209 123.461L132.749 123.235C132.215 122.973 131.676 122.721 131.105 122.534C129.886 122.137 128.632 121.857 127.359 121.708C127.083 121.676 126.818 121.583 126.608 121.423C126.409 121.272 126.257 121.062 126.188 120.784C126.098 120.423 126.124 120.15 126.317 119.825C126.463 119.581 126.671 119.411 126.91 119.314C127.154 119.215 127.432 119.192 127.708 119.247Z" fill="black"/>
</svg>
