<svg xmlns="http://www.w3.org/2000/svg" viewBox="0 0 370.5 230.17">
  <defs>
    <style>
      .cls-11,.cls-129,.cls-13,.cls-158,.cls-187,.cls-218,.cls-24,.cls-244,.cls-249,.cls-258,.cls-266,.cls-269,.cls-272,.cls-285,.cls-287,.cls-33,.cls-4,.cls-64,.cls-7{stroke-width:0}.cls-266{fill:#fff}.cls-11,.cls-285,.cls-4,.cls-7{fill:#060606}.cls-292,.cls-7{opacity:.1}.cls-4{opacity:.2}.cls-158{fill:#212121}.cls-11{opacity:.3}.cls-13{fill:#f2f1f1}.cls-24{fill:#75ad40}.cls-33{fill:#4f4f4e}.cls-64{fill:#63979d}.cls-129{fill:#373737}.cls-187{fill:#e2a446}.cls-218{fill:#b93b42}.cls-244{fill:#8bc3cb}.cls-249{fill:#989898}.cls-258{fill:#7db4a4}.cls-269{fill:#eacca6}.cls-272{fill:#eec78c}.cls-287{fill:#676767}
    </style>
  </defs>
  <g style="isolation:isolate">
    <g id="Artwork">
      <g id="shadow" opacity=".63" style="mix-blend-mode:multiply">
        <path fill="#fff" stroke-width="0" d="M370.5 222.77c0 4.56-82.94 7.4-185.25 7.4S0 226.47 0 221.9s82.94-8.27 185.25-8.27 185.25 4.57 185.25 9.14Z" style="mix-blend-mode:multiply"/>
        <path fill="#fefdfe" stroke-width="0" d="M185.25 213.65c69.95 0 130.84 2.14 162.3 4.95 14.44 1.29 22.65 2.72 22.67 4.16-.02 1.43-8.25 2.7-22.72 3.75-31.47 2.29-92.34 3.62-162.25 3.62s-130.81-1.73-162.27-4.28C8.53 224.68.3 223.33.28 221.89c.02-1.43 8.24-2.78 22.7-3.96 31.47-2.55 92.34-4.28 162.27-4.28Z"/>
        <path fill="#fcfcfc" stroke-width="0" d="M185.25 213.66c69.82 0 130.61 2.13 162.05 4.93 14.4 1.29 22.6 2.71 22.64 4.14-.03 1.43-8.26 2.69-22.69 3.74-31.46 2.29-92.22 3.61-162 3.61s-130.57-1.72-162.02-4.27C8.81 224.64.6 223.3.57 221.87c.03-1.43 8.25-2.77 22.66-3.94 31.45-2.54 92.23-4.27 162.02-4.27Z"/>
        <path fill="#fbfafb" stroke-width="0" d="M185.25 213.67c69.68 0 130.37 2.12 161.8 4.91 14.36 1.28 22.55 2.7 22.6 4.13-.05 1.42-8.26 2.68-22.66 3.73-31.44 2.28-92.1 3.6-161.75 3.6s-130.34-1.72-161.77-4.25C9.09 224.62.89 223.29.84 221.86c.05-1.42 8.25-2.76 22.63-3.93 31.44-2.54 92.11-4.25 161.77-4.25Z"/>
        <path fill="#f9f9f9" stroke-width="0" d="M185.25 213.68c69.55 0 130.13 2.12 161.55 4.9 14.33 1.28 22.5 2.69 22.57 4.11-.07 1.42-8.26 2.67-22.62 3.71-31.43 2.27-91.99 3.58-161.5 3.58s-130.1-1.71-161.52-4.24c-14.34-1.16-22.53-2.49-22.6-3.91.07-1.42 8.25-2.75 22.6-3.91 31.42-2.53 91.99-4.24 161.52-4.24Z"/>
        <path fill="#f8f7f8" stroke-width="0" d="M185.25 213.69c69.41 0 129.9 2.11 161.3 4.88 14.29 1.27 22.45 2.68 22.54 4.1-.09 1.41-8.27 2.66-22.59 3.7-31.42 2.27-91.87 3.57-161.25 3.57s-129.86-1.71-161.27-4.23c-14.31-1.16-22.48-2.48-22.56-3.9.09-1.41 8.26-2.74 22.56-3.9 31.41-2.52 91.88-4.23 161.27-4.23Z"/>
        <path fill="#f6f6f6" stroke-width="0" d="M185.25 213.7c69.28 0 129.66 2.1 161.05 4.87 14.25 1.27 22.4 2.67 22.5 4.08-.1 1.41-8.27 2.65-22.56 3.68-31.4 2.26-91.76 3.56-161 3.56s-129.63-1.7-161.02-4.21c-14.27-1.15-22.43-2.48-22.53-3.88.1-1.41 8.26-2.73 22.53-3.88 31.39-2.51 91.76-4.21 161.02-4.21Z"/>
        <path fill="#f4f4f5" stroke-width="0" d="M185.25 213.71c69.15 0 129.43 2.09 160.8 4.85 14.22 1.26 22.35 2.66 22.47 4.06-.12 1.4-8.27 2.64-22.52 3.67-31.39 2.25-91.64 3.55-160.75 3.55s-129.39-1.7-160.77-4.2c-14.23-1.15-22.38-2.47-22.5-3.87.12-1.4 8.26-2.72 22.5-3.87 31.38-2.5 91.65-4.2 160.77-4.2Z"/>
        <path fill="#f3f2f3" stroke-width="0" d="M185.25 213.72c69.01 0 129.19 2.09 160.55 4.83 14.18 1.26 22.3 2.65 22.44 4.05-.14 1.4-8.28 2.63-22.49 3.66-31.37 2.25-91.52 3.54-160.5 3.54s-129.16-1.69-160.53-4.19c-14.2-1.14-22.33-2.46-22.46-3.85.14-1.4 8.27-2.71 22.46-3.85 31.37-2.5 91.53-4.19 160.53-4.19Z"/>
        <path fill="#f1f1f2" stroke-width="0" d="M185.25 213.73c68.88 0 128.96 2.08 160.3 4.82 14.14 1.25 22.25 2.64 22.41 4.03-.16 1.39-8.28 2.62-22.46 3.64-31.36 2.24-91.41 3.53-160.25 3.53s-128.92-1.68-160.28-4.17c-14.16-1.14-22.28-2.45-22.43-3.84.16-1.39 8.27-2.7 22.43-3.84 31.35-2.49 91.41-4.17 160.28-4.17Z"/>
        <path fill="#f0eff0" stroke-width="0" d="M185.25 213.74c68.75 0 128.72 2.07 160.05 4.8 14.11 1.25 22.2 2.63 22.37 4.02-.17 1.39-8.28 2.61-22.42 3.63-31.35 2.23-91.29 3.52-160 3.52s-128.69-1.68-160.03-4.16c-14.12-1.14-22.22-2.44-22.4-3.82.17-1.39 8.28-2.69 22.4-3.82 31.34-2.48 91.3-4.16 160.03-4.16Z"/>
        <path fill="#eeeeef" stroke-width="0" d="M185.25 213.75c68.61 0 128.49 2.06 159.8 4.78 14.07 1.24 22.15 2.62 22.34 4-.19 1.38-8.29 2.6-22.39 3.62-31.33 2.23-91.18 3.51-159.75 3.51s-128.45-1.67-159.78-4.15c-14.09-1.13-22.17-2.43-22.36-3.81.19-1.38 8.28-2.68 22.37-3.81 31.32-2.47 91.18-4.15 159.78-4.15Z"/>
        <path fill="#edeced" stroke-width="0" d="M185.25 213.76c68.48 0 128.25 2.06 159.55 4.77 14.03 1.24 22.1 2.61 22.31 3.99-.21 1.38-8.29 2.59-22.36 3.6-31.32 2.22-91.06 3.5-159.5 3.5s-128.22-1.67-159.53-4.13c-14.05-1.13-22.12-2.42-22.33-3.79.21-1.37 8.28-2.67 22.33-3.79 31.31-2.46 91.07-4.13 159.53-4.13Z"/>
        <path fill="#ebeaec" stroke-width="0" d="M185.25 213.77c68.35 0 128.02 2.05 159.3 4.75 14 1.23 22.05 2.6 22.27 3.97-.23 1.37-8.3 2.58-22.32 3.59-31.3 2.21-90.94 3.49-159.25 3.49s-127.98-1.66-159.28-4.12c-14.01-1.12-22.07-2.41-22.3-3.78.23-1.37 8.29-2.66 22.3-3.78 31.3-2.46 90.95-4.12 159.28-4.12Z"/>
        <path fill="#eae9ea" stroke-width="0" d="M185.25 213.78c68.21 0 127.78 2.04 159.05 4.73 13.96 1.23 22 2.59 22.24 3.96-.24 1.36-8.3 2.57-22.29 3.57-31.29 2.21-90.83 3.48-159 3.48s-127.75-1.66-159.03-4.1c-13.98-1.12-22.02-2.4-22.27-3.77.24-1.36 8.29-2.65 22.27-3.77 31.28-2.45 90.83-4.1 159.03-4.1Z"/>
        <path fill="#e8e7e9" stroke-width="0" d="M185.25 213.79c68.08 0 127.54 2.03 158.8 4.72 13.92 1.22 21.95 2.58 22.21 3.94-.26 1.36-8.3 2.56-22.26 3.56-31.27 2.2-90.71 3.46-158.75 3.46s-127.51-1.65-158.78-4.09c-13.94-1.11-21.97-2.39-22.23-3.75.26-1.36 8.29-2.64 22.23-3.75 31.27-2.44 90.72-4.09 158.78-4.09Z"/>
        <path fill="#e6e6e8" stroke-width="0" d="M185.25 213.8c67.95 0 127.31 2.03 158.55 4.7 13.89 1.22 21.9 2.57 22.17 3.93-.28 1.35-8.31 2.55-22.22 3.55-31.26 2.19-90.6 3.45-158.51 3.45s-127.28-1.64-158.53-4.08c-13.9-1.11-21.92-2.38-22.2-3.74.28-1.35 8.3-2.63 22.2-3.74 31.25-2.43 90.6-4.08 158.53-4.08Z"/>
        <path fill="#e5e4e6" stroke-width="0" d="M185.25 213.82c67.81 0 127.07 2.02 158.3 4.69 13.85 1.21 21.85 2.56 22.14 3.91-.3 1.35-8.31 2.54-22.19 3.53-31.25 2.18-90.48 3.44-158.26 3.44s-127.04-1.64-158.28-4.06c-13.87-1.11-21.87-2.37-22.17-3.72.3-1.35 8.3-2.62 22.17-3.72 31.24-2.43 90.49-4.06 158.28-4.06Z"/>
        <path fill="#e3e3e5" stroke-width="0" d="M185.25 213.83c67.68 0 126.84 2.01 158.06 4.67 13.81 1.21 21.8 2.55 22.11 3.89-.31 1.34-8.31 2.53-22.16 3.52-31.23 2.18-90.36 3.43-158.01 3.43s-126.81-1.63-158.03-4.05c-13.83-1.1-21.82-2.36-22.13-3.71.31-1.34 8.3-2.61 22.13-3.71 31.22-2.42 90.37-4.05 158.03-4.05Z"/>
        <path fill="#e2e1e3" stroke-width="0" d="M185.25 213.84c67.55 0 126.6 2.01 157.81 4.65 13.78 1.21 21.74 2.54 22.07 3.88-.33 1.34-8.32 2.52-22.12 3.5-31.22 2.17-90.25 3.42-157.76 3.42s-126.57-1.63-157.78-4.04c-13.79-1.1-21.77-2.35-22.1-3.69.33-1.34 8.31-2.6 22.1-3.69 31.21-2.41 90.25-4.04 157.78-4.04Z"/>
        <path fill="#e0dfe2" stroke-width="0" d="M185.25 213.85c67.41 0 126.37 2 157.56 4.64 13.74 1.2 21.69 2.53 22.04 3.86-.35 1.33-8.32 2.51-22.09 3.49-31.2 2.16-90.13 3.41-157.51 3.41s-126.34-1.62-157.53-4.02c-13.76-1.09-21.72-2.35-22.07-3.68.35-1.33 8.31-2.59 22.07-3.68 31.2-2.4 90.14-4.02 157.53-4.02Z"/>
        <path fill="#dfdee0" stroke-width="0" d="M185.25 213.86c67.28 0 126.13 1.99 157.31 4.62 13.7 1.2 21.64 2.52 22.01 3.85-.36 1.33-8.32 2.5-22.06 3.48-31.19 2.16-90.02 3.4-157.26 3.4s-126.1-1.62-157.28-4.01c-13.72-1.09-21.67-2.34-22.03-3.66.36-1.33 8.31-2.58 22.03-3.66 31.18-2.39 90.02-4.01 157.28-4.01Z"/>
        <path fill="#dddcdf" stroke-width="0" d="M185.25 213.87c67.14 0 125.9 1.98 157.06 4.6 13.67 1.19 21.59 2.51 21.98 3.83-.38 1.32-8.33 2.49-22.02 3.46-31.17 2.15-89.9 3.39-157.01 3.39s-125.87-1.61-157.03-4c-13.68-1.08-21.62-2.33-22-3.65.38-1.32 8.32-2.56 22-3.65 31.17-2.39 89.91-4 157.03-4Z"/>
        <path fill="#dcdbdd" stroke-width="0" d="M185.25 213.88c67.01 0 125.66 1.98 156.81 4.59 13.63 1.19 21.54 2.5 21.94 3.82-.4 1.32-8.33 2.48-21.99 3.45-31.16 2.14-89.78 3.38-156.76 3.38s-125.63-1.6-156.78-3.98c-13.65-1.08-21.57-2.32-21.97-3.63.4-1.32 8.32-2.55 21.97-3.63 31.15-2.38 89.79-3.98 156.78-3.98Z"/>
        <path fill="#dad9dc" stroke-width="0" d="M185.25 213.89c66.88 0 125.43 1.97 156.56 4.57 13.59 1.18 21.49 2.49 21.91 3.8-.42 1.31-8.33 2.47-21.96 3.44-31.15 2.14-89.67 3.37-156.51 3.37s-125.39-1.6-156.53-3.97c-13.61-1.08-21.52-2.31-21.93-3.62.42-1.31 8.32-2.54 21.93-3.62 31.14-2.37 89.67-3.97 156.53-3.97Z"/>
        <path fill="#d9d8da" stroke-width="0" d="M185.25 213.9c66.74 0 125.19 1.96 156.31 4.56 13.56 1.18 21.44 2.48 21.88 3.79-.43 1.31-8.34 2.46-21.92 3.42-31.13 2.13-89.55 3.36-156.26 3.36s-125.16-1.59-156.28-3.96c-13.57-1.07-21.47-2.3-21.9-3.6.43-1.31 8.33-2.53 21.9-3.6 31.12-2.36 89.56-3.96 156.28-3.96Z"/>
        <path fill="#d8d6d9" stroke-width="0" d="M185.25 213.91c66.61 0 124.95 1.95 156.06 4.54 13.52 1.17 21.39 2.47 21.84 3.77-.45 1.3-8.34 2.45-21.89 3.41-31.12 2.12-89.44 3.35-156.01 3.35s-124.92-1.59-156.03-3.94c-13.54-1.07-21.42-2.29-21.87-3.59.45-1.3 8.33-2.52 21.87-3.59 31.11-2.35 89.44-3.94 156.03-3.94Z"/>
        <path fill="#d6d5d8" stroke-width="0" d="M185.25 213.92c66.48 0 124.72 1.95 155.81 4.52 13.48 1.17 21.34 2.46 21.81 3.76-.47 1.3-8.34 2.44-21.86 3.39-31.1 2.12-89.32 3.33-155.76 3.33s-124.69-1.58-155.78-3.93c-13.5-1.06-21.37-2.28-21.83-3.58.47-1.29 8.34-2.51 21.83-3.58 31.1-2.35 89.33-3.93 155.78-3.93Z"/>
        <path fill="#d5d3d6" stroke-width="0" d="M185.25 213.93c66.34 0 124.48 1.94 155.56 4.51 13.45 1.16 21.29 2.45 21.78 3.74-.49 1.29-8.35 2.43-21.82 3.38-31.09 2.11-89.2 3.32-155.51 3.32s-124.45-1.58-155.54-3.91c-13.46-1.06-21.31-2.27-21.8-3.56.49-1.29 8.34-2.5 21.8-3.56 31.08-2.34 89.21-3.91 155.54-3.91Z"/>
        <path fill="#d3d2d5" stroke-width="0" d="M185.25 213.94c66.21 0 124.25 1.93 155.31 4.49 13.41 1.16 21.24 2.44 21.74 3.72-.5 1.28-8.35 2.42-21.79 3.37-31.07 2.1-89.09 3.31-155.26 3.31s-124.22-1.57-155.29-3.9c-13.43-1.05-21.26-2.26-21.77-3.55.5-1.28 8.34-2.49 21.77-3.55 31.07-2.33 89.09-3.9 155.29-3.9Z"/>
        <path fill="#d2d0d3" stroke-width="0" d="M185.25 213.95c66.08 0 124.02 1.86 155.06 4.47 13.38 1.13 21.19 2.43 21.71 3.71-.52 1.28-8.35 2.41-21.76 3.35-31.06 2.1-88.97 3.3-155.01 3.3s-123.98-1.57-155.04-3.89c-13.39-1.05-21.21-2.25-21.73-3.53.52-1.28 8.35-2.48 21.73-3.53 31.05-2.32 88.98-3.89 155.04-3.89Z"/>
        <path fill="#d0cfd2" stroke-width="0" d="M185.25 213.96c65.94 0 123.78 1.85 154.81 4.46 13.34 1.12 21.14 2.42 21.68 3.69-.54 1.27-8.36 2.4-21.72 3.34-31.05 2.09-88.86 3.29-154.76 3.29s-123.75-1.56-154.79-3.87c-13.35-1.05-21.16-2.24-21.7-3.52.54-1.27 8.35-2.47 21.7-3.52 31.04-2.31 88.86-3.87 154.79-3.87Z"/>
        <path fill="#cfced1" stroke-width="0" d="M185.25 213.97c65.81 0 123.55 1.84 154.56 4.44 13.3 1.11 21.09 2.41 21.64 3.68-.56 1.27-8.36 2.39-21.69 3.33-31.03 2.08-88.74 3.28-154.51 3.28s-123.51-1.55-154.54-3.86c-13.31-1.04-21.11-2.23-21.67-3.5.56-1.27 8.35-2.46 21.67-3.5 31.03-2.31 88.75-3.86 154.54-3.86Z"/>
        <path fill="#cecccf" stroke-width="0" d="M185.25 213.98c65.68 0 123.31 1.83 154.31 4.43 13.27 1.11 21.04 2.4 21.61 3.66-.57 1.26-8.36 2.38-21.66 3.31-31.02 2.07-88.62 3.27-154.27 3.27S61.96 227.1 30.95 224.8c-13.28-1.04-21.06-2.22-21.63-3.49.57-1.26 8.36-2.45 21.63-3.49 31.01-2.3 88.63-3.85 154.29-3.85Z"/>
        <path fill="#cccbce" stroke-width="0" d="M185.25 213.99c65.54 0 123.08 1.82 154.06 4.41 13.23 1.1 20.99 2.39 21.58 3.65-.59 1.26-8.37 2.37-21.62 3.3-31 2.07-88.51 3.26-154.02 3.26s-123.05-1.48-154.04-3.83c-13.24-1.01-21.01-2.22-21.6-3.47.59-1.26 8.36-2.47 21.6-3.47 30.99-2.35 88.51-3.83 154.04-3.83Z"/>
        <path fill="#cbc9cc" stroke-width="0" d="M185.25 214c65.41 0 122.84 1.82 153.81 4.39 13.19 1.1 20.94 2.38 21.55 3.63-.61 1.25-8.37 2.36-21.59 3.28-30.99 2.06-88.39 3.25-153.77 3.25s-122.81-1.47-153.79-3.82c-13.21-1-20.96-2.21-21.57-3.46.61-1.25 8.36-2.46 21.57-3.46 30.98-2.35 88.4-3.82 153.79-3.82Z"/>
        <path fill="#c9c8cb" stroke-width="0" d="M185.25 214.01c65.27 0 122.61 1.81 153.56 4.38 13.16 1.09 20.89 2.37 21.51 3.62-.62 1.25-8.38 2.35-21.56 3.27-30.97 2.05-88.28 3.24-153.52 3.24s-122.58-1.47-153.54-3.81c-13.17-1-20.91-2.2-21.53-3.44.62-1.25 8.36-2.45 21.54-3.44 30.96-2.34 88.28-3.81 153.54-3.81Z"/>
        <path fill="#c8c7ca" stroke-width="0" d="M185.25 214.03c65.14 0 122.37 1.8 153.31 4.36 13.12 1.09 20.84 2.36 21.48 3.6-.64 1.24-8.38 2.34-21.52 3.26-30.96 2.05-88.16 3.23-153.27 3.23s-122.34-1.46-153.29-3.79c-13.13-.99-20.86-2.19-21.5-3.43.64-1.24 8.37-2.44 21.5-3.43 30.95-2.33 88.17-3.79 153.29-3.79Z"/>
        <path fill="#c7c5c8" stroke-width="0" d="M185.25 214.04c65.01 0 122.14 1.79 153.06 4.34 13.08 1.08 20.79 2.35 21.45 3.59-.66 1.24-8.38 2.33-21.49 3.24-30.95 2.04-88.04 3.21-153.02 3.21s-122.11-1.45-153.04-3.78c-13.1-.99-20.81-2.18-21.47-3.41.66-1.24 8.37-2.43 21.47-3.41 30.93-2.33 88.05-3.78 153.04-3.78Z"/>
        <path fill="#c5c4c7" stroke-width="0" d="M185.25 214.05c64.87 0 121.9 1.78 152.81 4.33 13.05 1.08 20.74 2.34 21.41 3.57-.68 1.23-8.39 2.32-21.46 3.23-30.93 2.03-87.93 3.2-152.77 3.2s-121.87-1.44-152.79-3.77c-13.06-.98-20.76-2.17-21.44-3.4.68-1.23 8.38-2.42 21.44-3.4 30.92-2.32 87.93-3.77 152.79-3.77Z"/>
        <path fill="#c4c2c6" stroke-width="0" d="M185.25 214.06c64.74 0 121.67 1.77 152.56 4.31 13.01 1.07 20.69 2.33 21.38 3.55-.69 1.23-8.39 2.33-21.42 3.22-30.91 2.09-87.81 3.19-152.52 3.19s-121.64-1.44-152.54-3.75c-13.02-.98-20.71-2.16-21.4-3.39.69-1.23 8.38-2.41 21.4-3.39 30.91-2.32 87.82-3.75 152.54-3.75Z"/>
        <path fill="#c3c1c4" stroke-width="0" d="M185.25 214.07c64.61 0 121.43 1.76 152.31 4.29 12.97 1.06 20.63 2.32 21.35 3.54-.71 1.22-8.39 2.32-21.39 3.2-30.9 2.08-87.7 3.18-152.27 3.18s-121.4-1.43-152.29-3.74c-12.99-.97-20.66-2.15-21.37-3.37.71-1.22 8.38-2.4 21.37-3.37 30.89-2.31 87.7-3.74 152.29-3.74Z"/>
        <path fill="#c1c0c3" stroke-width="0" d="M185.25 214.08c64.47 0 121.2 1.75 152.06 4.28 12.94 1.06 20.58 2.31 21.31 3.52-.73 1.22-8.39 2.32-21.36 3.19-30.88 2.08-87.58 3.17-152.02 3.17s-121.16-1.42-152.04-3.72c-12.95-.97-20.61-2.14-21.34-3.36.73-1.21 8.39-2.39 21.34-3.36 30.88-2.3 87.59-3.72 152.04-3.72Z"/>
        <path fill="#c0bec2" stroke-width="0" d="M185.25 214.09c64.34 0 120.96 1.74 151.81 4.26 12.9 1.05 20.53 2.3 21.28 3.51-.75 1.21-8.4 2.31-21.32 3.17-30.87 2.07-87.46 3.16-151.77 3.16s-120.93-1.41-151.79-3.71c-12.91-.96-20.56-2.13-21.3-3.34.75-1.21 8.39-2.38 21.3-3.34 30.86-2.3 87.47-3.71 151.79-3.71Z"/>
        <path fill="#bfbdc0" stroke-width="0" d="M185.25 214.1c64.21 0 120.72 1.73 151.57 4.25 12.86 1.05 20.48 2.29 21.25 3.49-.76 1.2-8.4 2.3-21.29 3.16-30.86 2.07-87.35 3.15-151.52 3.15s-120.69-1.41-151.54-3.7c-12.88-.96-20.51-2.12-21.27-3.33.76-1.2 8.39-2.37 21.27-3.33 30.85-2.29 87.35-3.7 151.54-3.7Z"/>
        <path fill="#bdbcbf" stroke-width="0" d="M185.25 214.11c64.07 0 120.49 1.72 151.32 4.23 12.83 1.04 20.43 2.28 21.21 3.48-.78 1.2-8.4 2.29-21.26 3.15-30.84 2.06-87.23 3.14-151.27 3.14s-120.46-1.4-151.29-3.68c-12.84-.95-20.46-2.11-21.24-3.31.78-1.2 8.4-2.36 21.24-3.31 30.83-2.28 87.24-3.68 151.29-3.68Z"/>
        <path fill="#bcbabe" stroke-width="0" d="M185.25 214.12c63.94 0 120.25 1.71 151.07 4.21 12.79 1.04 20.38 2.27 21.18 3.46-.8 1.19-8.41 2.28-21.22 3.13-30.83 2.06-87.12 3.13-151.02 3.13s-120.22-1.39-151.04-3.67c-12.8-.95-20.4-2.1-21.2-3.3.8-1.19 8.4-2.35 21.2-3.3 30.82-2.28 87.12-3.67 151.04-3.67Z"/>
        <path fill="#bbb9bc" stroke-width="0" d="M185.25 214.13c63.81 0 120.02 1.7 150.82 4.2 12.75 1.03 20.33 2.26 21.15 3.45-.82 1.19-8.41 2.27-21.19 3.12-30.81 2.05-87 3.12-150.77 3.12s-119.99-1.38-150.79-3.66c-12.77-.94-20.35-2.09-21.17-3.28.82-1.19 8.4-2.34 21.17-3.28 30.81-2.27 87.01-3.66 150.79-3.66Z"/>
        <path fill="#b9b8bb" stroke-width="0" d="M185.25 214.14c63.67 0 119.78 1.7 150.57 4.18 12.72 1.03 20.28 2.25 21.11 3.43-.83 1.18-8.41 2.26-21.16 3.1-30.8 2.05-86.88 3.11-150.52 3.11S65.5 226.58 34.7 224.32c-12.73-.94-20.3-2.09-21.14-3.27.83-1.18 8.41-2.33 21.14-3.27 30.79-2.27 86.89-3.64 150.55-3.64Z"/>
        <path fill="#b8b6ba" stroke-width="0" d="M185.25 214.15c63.54 0 119.55 1.69 150.32 4.16 12.68 1.02 20.23 2.24 21.08 3.42-.85 1.18-8.42 2.25-21.12 3.09-30.78 2.04-86.77 3.09-150.28 3.09s-119.52-1.37-150.3-3.63c-12.69-.93-20.25-2.08-21.1-3.25.85-1.18 8.41-2.32 21.1-3.25 30.78-2.26 86.77-3.63 150.3-3.63Z"/>
        <path fill="#b7b5b9" stroke-width="0" d="M185.25 214.16c63.41 0 119.31 1.68 150.07 4.15 12.64 1.02 20.18 2.23 21.05 3.4-.87 1.17-8.42 2.24-21.09 3.08-30.77 2.03-86.65 3.08-150.03 3.08s-119.28-1.36-150.05-3.62c-12.66-.93-20.2-2.07-21.07-3.24.87-1.17 8.41-2.31 21.07-3.24 30.76-2.25 86.66-3.62 150.05-3.62Z"/>
        <path fill="#b5b4b7" stroke-width="0" d="M185.25 214.17c63.27 0 119.08 1.67 149.82 4.13 12.61 1.01 20.13 2.22 21.02 3.39-.89 1.17-8.43 2.23-21.06 3.06-30.76 2.03-86.54 3.07-149.78 3.07s-119.05-1.36-149.8-3.6c-12.62-.92-20.15-2.06-21.04-3.22.89-1.17 8.42-2.3 21.04-3.22 30.75-2.25 86.54-3.6 149.8-3.6Z"/>
        <path fill="#b4b2b6" stroke-width="0" d="M185.25 214.18c63.14 0 118.84 1.66 149.57 4.12 12.57 1.01 20.08 2.21 20.98 3.37-.9 1.16-8.43 2.22-21.02 3.05-30.74 2.02-86.42 3.06-149.53 3.06s-118.81-1.35-149.55-3.59c-12.58-.92-20.1-2.05-21-3.21.9-1.16 8.42-2.29 21-3.21 30.73-2.24 86.43-3.59 149.55-3.59Z"/>
        <path fill="#b3b1b5" stroke-width="0" d="M185.25 214.19c63 0 118.61 1.65 149.32 4.1 12.53 1 20.03 2.2 20.95 3.35-.92 1.16-8.43 2.21-20.99 3.04-30.73 2.02-86.3 3.05-149.28 3.05s-118.58-1.34-149.3-3.58c-12.55-.91-20.05-2.04-20.97-3.2.92-1.16 8.42-2.28 20.97-3.2 30.72-2.23 86.31-3.57 149.3-3.57Z"/>
        <path fill="#b1b0b3" stroke-width="0" d="M185.25 214.2c62.87 0 118.37 1.64 149.07 4.08 12.5.99 19.98 2.19 20.92 3.34-.94 1.15-8.44 2.2-20.96 3.02-30.71 2.01-86.19 3.04-149.03 3.04s-118.34-1.33-149.05-3.56c-12.51-.91-20-2.03-20.94-3.18.94-1.15 8.43-2.27 20.94-3.18 30.71-2.23 86.19-3.56 149.05-3.56Z"/>
        <path fill="#b0aeb2" stroke-width="0" d="M185.25 214.21c62.74 0 118.14 1.63 148.82 4.07 12.46.99 19.93 2.18 20.88 3.32-.95 1.15-8.44 2.19-20.92 3.01-30.7 2.01-86.07 3.03-148.78 3.03s-118.11-1.33-148.8-3.55c-12.47-.9-19.95-2.02-20.9-3.17.95-1.15 8.43-2.26 20.9-3.17 30.69-2.22 86.08-3.55 148.8-3.55Z"/>
        <path fill="#afadb1" stroke-width="0" d="M185.25 214.23c62.6 0 117.9 1.62 148.57 4.05 12.42.98 19.88 2.17 20.85 3.31-.97 1.14-8.44 2.18-20.89 2.99-30.68 2-85.96 3.02-148.53 3.02s-117.87-1.32-148.55-3.53c-12.44-.9-19.9-2.01-20.87-3.15.97-1.14 8.43-2.25 20.87-3.15 30.68-2.21 85.96-3.53 148.55-3.53Z"/>
        <path fill="#aeacb0" stroke-width="0" d="M185.25 214.24c62.47 0 117.67 1.61 148.32 4.03 12.39.98 19.83 2.16 20.82 3.29-.99 1.14-8.45 2.17-20.86 2.98-30.67 2-85.84 3.01-148.28 3.01s-117.64-1.31-148.3-3.52c-12.4-.89-19.85-2-20.84-3.14.99-1.13 8.44-2.24 20.84-3.14 30.66-2.21 85.84-3.52 148.3-3.52Z"/>
        <path fill="#acaaae" stroke-width="0" d="M185.25 214.25c62.34 0 117.43 1.6 148.07 4.02 12.35.97 19.78 2.15 20.78 3.28-1.01 1.13-8.45 2.16-20.82 2.97-30.66 1.99-85.72 3-148.03 3s-117.4-1.3-148.05-3.51c-12.36-.89-19.8-1.99-20.8-3.12 1.01-1.13 8.44-2.23 20.8-3.12 30.65-2.2 85.73-3.51 148.05-3.51Z"/>
        <path fill="#aba9ad" stroke-width="0" d="M185.25 214.26c62.2 0 117.19 1.6 147.82 4 12.31.97 19.73 2.14 20.75 3.26-1.02 1.12-8.45 2.15-20.79 2.95-30.64 1.99-85.61 2.99-147.78 2.99s-117.17-1.3-147.8-3.49c-12.33-.88-19.75-1.98-20.77-3.11 1.02-1.12 8.44-2.22 20.77-3.11 30.63-2.2 85.61-3.49 147.8-3.49Z"/>
        <path fill="#aaa8ac" stroke-width="0" d="M185.25 214.27c62.07 0 116.96 1.59 147.57 3.99 12.28.96 19.68 2.13 20.72 3.25-1.04 1.12-8.46 2.14-20.76 2.94-30.63 1.98-85.49 2.97-147.53 2.97s-116.93-1.29-147.55-3.48c-12.29-.88-19.7-1.97-20.74-3.09 1.04-1.12 8.45-2.21 20.74-3.09 30.62-2.19 85.5-3.48 147.55-3.48Z"/>
        <path fill="#a8a7ab" stroke-width="0" d="M185.25 214.28c61.94 0 116.72 1.58 147.32 3.97 12.24.96 19.63 2.12 20.68 3.23-1.06 1.11-8.46 2.13-20.72 2.93-30.61 1.97-85.38 2.96-147.28 2.96s-116.7-1.28-147.3-3.47c-12.25-.87-19.65-1.96-20.71-3.08 1.06-1.11 8.45-2.2 20.71-3.08 30.61-2.18 85.38-3.47 147.3-3.47Z"/>
        <path fill="#a7a5a9" stroke-width="0" d="M185.25 214.29c61.8 0 116.49 1.57 147.07 3.95 12.2.95 19.58 2.11 20.65 3.22-1.08 1.11-8.46 2.13-20.69 2.91-30.6 1.97-85.26 2.95-147.03 2.95s-116.46-1.28-147.05-3.45c-12.22-.87-19.6-1.96-20.67-3.06 1.08-1.11 8.46-2.19 20.67-3.06 30.59-2.18 85.26-3.45 147.05-3.45Z"/>
        <path fill="#a6a4a8" stroke-width="0" d="M185.25 214.3c61.67 0 116.25 1.56 146.82 3.94 12.17.95 19.53 2.1 20.62 3.2-1.09 1.1-8.47 2.12-20.66 2.9-30.58 1.96-85.14 2.94-146.78 2.94s-116.23-1.27-146.8-3.44c-12.18-.86-19.55-1.95-20.64-3.05 1.09-1.1 8.46-2.18 20.64-3.05 30.58-2.17 85.15-3.44 146.8-3.44Z"/>
        <path fill="#a5a3a7" stroke-width="0" d="M185.25 214.31c61.54 0 116.02 1.55 146.57 3.92 12.13.94 19.47 2.09 20.59 3.18-1.11 1.1-8.47 2.11-20.62 2.88-30.57 1.96-85.03 2.93-146.53 2.93s-115.99-1.26-146.55-3.43c-12.14-.86-19.49-1.94-20.61-3.03 1.11-1.1 8.46-2.17 20.61-3.03 30.56-2.16 85.03-3.43 146.55-3.43Z"/>
        <path fill="#a3a1a6" stroke-width="0" d="M185.25 214.32c61.4 0 115.78 1.54 146.32 3.9 12.09.94 19.42 2.08 20.55 3.17-1.13 1.09-8.47 2.1-20.59 2.87-30.56 1.95-84.91 2.92-146.28 2.92s-115.76-1.25-146.3-3.41c-12.11-.85-19.44-1.93-20.57-3.02 1.13-1.09 8.47-2.16 20.57-3.02 30.55-2.16 84.92-3.41 146.3-3.41Z"/>
        <path fill="#a2a0a4" stroke-width="0" d="M185.25 214.33c61.27 0 115.55 1.53 146.07 3.89 12.06.93 19.37 2.07 20.52 3.15-1.15 1.09-8.48 2.09-20.56 2.86-30.54 1.95-84.8 2.91-146.04 2.91s-115.52-1.25-146.05-3.4c-12.07-.85-19.39-1.92-20.54-3.01 1.15-1.09 8.47-2.16 20.54-3.01 30.53-2.15 84.8-3.4 146.05-3.4Z"/>
        <path fill="#a19fa3" stroke-width="0" d="M185.25 214.34c61.13 0 115.31 1.52 145.82 3.87 12.02.93 19.32 2.06 20.49 3.14-1.16 1.08-8.48 2.08-20.52 2.84-30.53 1.94-84.68 2.9-145.79 2.9s-115.29-1.24-145.8-3.38c-12.03-.85-19.34-1.91-20.51-2.99 1.16-1.08 8.47-2.15 20.51-2.99 30.52-2.14 84.68-3.38 145.8-3.38Z"/>
        <path fill="#a09ea2" stroke-width="0" d="M185.25 214.35c61 0 115.08 1.51 145.57 3.85 11.99.92 19.27 2.05 20.45 3.12-1.18 1.08-8.48 2.07-20.49 2.83-30.51 1.93-84.56 2.89-145.54 2.89s-115.05-1.23-145.56-3.37c-12-.84-19.29-1.9-20.47-2.98 1.18-1.08 8.48-2.14 20.47-2.98 30.51-2.14 84.57-3.37 145.56-3.37Z"/>
        <path fill="#9f9da1" stroke-width="0" d="M185.25 214.36c60.87 0 114.84 1.51 145.32 3.84 11.95.91 19.22 2.04 20.42 3.11-1.2 1.07-8.49 2.06-20.46 2.82-30.5 1.93-84.45 2.88-145.29 2.88s-114.81-1.23-145.31-3.36c-11.96-.84-19.24-1.89-20.44-2.96 1.2-1.07 8.48-2.13 20.44-2.96 30.49-2.13 84.45-3.36 145.31-3.36Z"/>
        <path fill="#9d9ba0" stroke-width="0" d="M185.25 214.37c60.73 0 114.61 1.5 145.08 3.82 11.91.91 19.17 2.03 20.39 3.09-1.22 1.07-8.49 2.05-20.42 2.8-30.48 1.92-84.33 2.87-145.04 2.87s-114.58-1.22-145.06-3.34c-11.92-.83-19.19-1.88-20.41-2.95 1.22-1.07 8.48-2.12 20.41-2.95 30.48-2.12 84.34-3.34 145.06-3.34Z"/>
        <path fill="#9c9a9e" stroke-width="0" d="M185.25 214.38c60.6 0 114.37 1.49 144.83 3.81 11.88.9 19.12 2.02 20.35 3.08-1.23 1.06-8.49 2.04-20.39 2.79-30.47 1.92-84.22 2.86-144.79 2.86s-114.34-1.21-144.81-3.33c-11.89-.83-19.14-1.87-20.37-2.93 1.23-1.06 8.49-2.11 20.37-2.93 30.46-2.12 84.22-3.33 144.81-3.33Z"/>
        <path fill="#9b999d" stroke-width="0" d="M185.25 214.39c60.47 0 114.14 1.48 144.58 3.79 11.84.9 19.07 2.01 20.32 3.06-1.25 1.06-8.5 2.03-20.36 2.77-30.46 1.91-84.1 2.84-144.54 2.84s-114.11-1.21-144.56-3.32c-11.85-.82-19.09-1.86-20.34-2.92 1.25-1.05 8.49-2.1 20.34-2.92 30.45-2.11 84.1-3.32 144.56-3.32Z"/>
        <path fill="#9a989c" stroke-width="0" d="M185.25 214.4c60.33 0 113.9 1.47 144.33 3.77 11.8.89 19.02 2 20.29 3.05-1.27 1.05-8.5 2.02-20.32 2.76-30.44 1.91-83.98 2.83-144.29 2.83s-113.87-1.2-144.31-3.3c-11.81-.82-19.04-1.85-20.31-2.9 1.27-1.05 8.49-2.09 20.31-2.9 30.43-2.11 83.99-3.3 144.31-3.3Z"/>
        <path fill="#98969b" stroke-width="0" d="M185.25 214.41c60.2 0 113.66 1.46 144.08 3.76 11.77.89 18.97 1.99 20.25 3.03-1.28 1.04-8.5 2.01-20.29 2.75-30.43 1.9-83.87 2.82-144.04 2.82s-113.64-1.19-144.06-3.29c-11.78-.81-18.99-1.84-20.27-2.89 1.28-1.04 8.5-2.08 20.27-2.89 30.42-2.1 83.87-3.29 144.06-3.29Z"/>
        <path fill="#97959a" stroke-width="0" d="M185.25 214.42c60.07 0 113.43 1.45 143.83 3.74 11.73.88 18.92 1.98 20.22 3.01-1.3 1.04-8.51 2-20.26 2.73-30.41 1.89-83.75 2.81-143.79 2.81s-113.4-1.18-143.81-3.28c-11.74-.81-18.94-1.83-20.24-2.87 1.3-1.04 8.5-2.07 20.24-2.87 30.41-2.09 83.76-3.28 143.81-3.28Z"/>
        <path fill="#969499" stroke-width="0" d="M185.25 214.44c59.93 0 113.19 1.44 143.58 3.72 11.69.88 18.87 1.97 20.19 3-1.32 1.03-8.51 1.99-20.22 2.72-30.4 1.89-83.64 2.8-143.54 2.8S72.09 225.5 41.7 223.42c-11.7-.8-18.89-1.83-20.21-2.86 1.32-1.03 8.5-2.06 20.21-2.86 30.39-2.09 83.64-3.26 143.56-3.26Z"/>
        <path fill="#959397" stroke-width="0" d="M185.25 214.45c59.8 0 112.96 1.43 143.33 3.71 11.66.87 18.82 1.96 20.16 2.98-1.34 1.03-8.52 1.98-20.19 2.7-30.38 1.88-83.52 2.79-143.29 2.79s-112.93-1.17-143.31-3.25c-11.67-.8-18.84-1.82-20.17-2.84 1.34-1.03 8.51-2.05 20.17-2.84 30.38-2.08 83.52-3.25 143.31-3.25Z"/>
        <path fill="#949296" stroke-width="0" d="M185.25 214.46c59.67 0 112.72 1.43 143.08 3.69 11.62.87 18.77 1.95 20.12 2.97-1.35 1.02-8.52 1.97-20.16 2.69-30.37 1.88-83.4 2.78-143.04 2.78s-112.7-1.16-143.06-3.24c-11.63-.79-18.79-1.81-20.14-2.83 1.35-1.02 8.51-2.04 20.14-2.83 30.36-2.07 83.41-3.24 143.06-3.24Z"/>
        <path fill="#939095" stroke-width="0" d="M185.25 214.47c59.53 0 112.49 1.42 142.83 3.68 11.58.86 18.72 1.94 20.09 2.95-1.37 1.02-8.52 1.96-20.12 2.68-30.36 1.87-83.29 2.77-142.79 2.77s-112.46-1.16-142.81-3.22c-11.59-.79-18.74-1.8-20.11-2.82 1.37-1.02 8.51-2.03 20.11-2.82 30.35-2.07 83.29-3.22 142.81-3.22Z"/>
        <path fill="#918f94" stroke-width="0" d="M185.25 214.48c59.4 0 112.25 1.41 142.58 3.66 11.55.86 18.67 1.93 20.06 2.94-1.39 1.01-8.53 1.95-20.09 2.66-30.34 1.87-83.17 2.76-142.54 2.76s-112.23-1.15-142.56-3.21c-11.56-.78-18.69-1.79-20.07-2.8 1.39-1.01 8.52-2.02 20.07-2.8 30.33-2.06 83.18-3.21 142.56-3.21Z"/>
        <path fill="#908e93" stroke-width="0" d="M185.25 214.49c59.26 0 112.02 1.4 142.33 3.64 11.51.85 18.62 1.92 20.02 2.92-1.41 1.01-8.53 1.94-20.06 2.65-30.33 1.86-83.06 2.75-142.29 2.75s-111.99-1.14-142.31-3.19c-11.52-.78-18.64-1.78-20.04-2.79 1.41-1.01 8.52-2.01 20.04-2.79 30.32-2.05 83.06-3.19 142.31-3.19Z"/>
        <path fill="#8f8d92" stroke-width="0" d="M185.25 214.5c59.13 0 111.78 1.39 142.08 3.63 11.47.85 18.57 1.91 19.99 2.91-1.42 1-8.53 1.93-20.03 2.64-30.31 1.85-82.94 2.74-142.04 2.74s-111.76-1.14-142.06-3.18c-11.48-.78-18.58-1.77-20.01-2.77 1.42-1 8.53-2 20.01-2.77 30.31-2.05 82.94-3.18 142.06-3.18Z"/>
        <path fill="#8e8c91" stroke-width="0" d="M185.25 214.51c59 0 111.55 1.38 141.83 3.61 11.44.84 18.52 1.9 19.96 2.89-1.44 1-8.54 1.92-19.99 2.62-30.3 1.85-82.82 2.72-141.8 2.72s-111.52-1.13-141.81-3.17c-11.45-.77-18.53-1.76-19.97-2.76 1.44-1 8.53-1.99 19.97-2.76 30.29-2.04 82.83-3.17 141.81-3.17Z"/>
        <path fill="#8d8b8f" stroke-width="0" d="M185.25 214.52c58.86 0 111.31 1.37 141.58 3.59 11.4.84 18.47 1.89 19.92 2.88-1.46.99-8.54 1.91-19.96 2.61-30.28 1.84-82.71 2.71-141.55 2.71s-111.29-1.12-141.56-3.15c-11.41-.77-18.48-1.75-19.94-2.74 1.46-.99 8.53-1.98 19.94-2.74 30.28-2.03 82.71-3.15 141.56-3.15Z"/>
        <path fill="#8c898e" stroke-width="0" d="M185.25 214.53c58.73 0 111.08 1.36 141.33 3.58 11.36.83 18.42 1.88 19.89 2.86-1.48.99-8.54 1.9-19.93 2.59-30.27 1.84-82.59 2.7-141.3 2.7s-111.05-1.11-141.31-3.14c-11.37-.76-18.43-1.74-19.91-2.73 1.48-.99 8.54-1.97 19.91-2.73 30.26-2.03 82.6-3.14 141.31-3.14Z"/>
        <path fill="#8a888d" stroke-width="0" d="M185.25 214.54c58.6 0 110.84 1.36 141.08 3.56 11.33.83 18.36 1.87 19.86 2.84-1.49.98-8.55 1.89-19.89 2.58-30.26 1.83-82.48 2.69-141.05 2.69s-110.82-1.11-141.06-3.13c-11.34-.76-18.38-1.73-19.88-2.71 1.49-.98 8.54-1.96 19.88-2.71 30.25-2.02 82.48-3.13 141.06-3.13Z"/>
        <path fill="#89878c" stroke-width="0" d="M185.25 214.55c58.46 0 110.61 1.35 140.83 3.55 11.29.82 18.31 1.86 19.82 2.83-1.51.98-8.55 1.88-19.86 2.57-30.24 1.83-82.36 2.68-140.8 2.68s-110.58-1.1-140.81-3.11c-11.3-.75-18.33-1.72-19.84-2.7 1.51-.97 8.54-1.95 19.84-2.7 30.23-2.01 82.36-3.11 140.81-3.11Z"/>
        <path fill="#88868b" stroke-width="0" d="M185.25 214.56c58.33 0 110.37 1.34 140.58 3.53 11.25.82 18.26 1.85 19.79 2.81-1.53.97-8.55 1.87-19.83 2.55-30.23 1.82-82.24 2.67-140.55 2.67s-110.35-1.09-140.57-3.1c-11.26-.75-18.28-1.71-19.81-2.68 1.53-.97 8.55-1.94 19.81-2.68 30.22-2.01 82.25-3.1 140.56-3.1Z"/>
        <path fill="#87858a" stroke-width="0" d="M185.25 214.57c58.2 0 110.13 1.33 140.33 3.51 11.22.81 18.21 1.83 19.76 2.8-1.54.96-8.56 1.86-19.79 2.54-30.21 1.81-82.13 2.66-140.3 2.66s-110.11-1.09-140.32-3.09c-11.23-.74-18.23-1.7-19.78-2.67 1.54-.96 8.55-1.93 19.78-2.67 30.21-2 82.13-3.09 140.32-3.09Z"/>
        <path fill="#868489" stroke-width="0" d="M185.25 214.58c58.06 0 109.9 1.32 140.08 3.5 11.18.81 18.16 1.82 19.73 2.78-1.56.96-8.56 1.85-19.76 2.53-30.2 1.81-82.01 2.65-140.05 2.65s-109.87-1.08-140.07-3.07c-11.19-.74-18.18-1.7-19.74-2.65 1.56-.96 8.55-1.92 19.74-2.65 30.19-1.99 82.02-3.07 140.07-3.07Z"/>
        <path fill="#858388" stroke-width="0" d="M185.25 214.59c57.93 0 109.66 1.31 139.83 3.48 11.14.8 18.11 1.81 19.69 2.77-1.58.95-8.56 1.85-19.73 2.51-30.18 1.8-81.9 2.64-139.8 2.64s-109.64-1.07-139.82-3.06c-11.15-.73-18.13-1.69-19.71-2.64 1.58-.95 8.56-1.91 19.71-2.64 30.18-1.99 81.9-3.06 139.82-3.06Z"/>
        <path fill="#848287" stroke-width="0" d="M185.25 214.6c57.8 0 109.43 1.3 139.58 3.46 11.11.8 18.06 1.8 19.66 2.75-1.6.95-8.57 1.84-19.69 2.5-30.17 1.8-81.78 2.63-139.55 2.63s-109.4-1.07-139.57-3.05c-11.12-.73-18.08-1.68-19.68-2.63 1.6-.95 8.56-1.9 19.68-2.63 30.16-1.98 81.78-3.05 139.57-3.05Z"/>
        <path fill="#838086" stroke-width="0" d="M185.25 214.61c57.66 0 109.19 1.29 139.33 3.45 11.07.79 18.01 1.79 19.63 2.74-1.61.94-8.57 1.83-19.66 2.48-30.16 1.79-81.66 2.62-139.3 2.62s-109.17-1.06-139.32-3.03c-11.08-.72-18.03-1.67-19.64-2.61 1.61-.94 8.56-1.89 19.64-2.61 30.15-1.97 81.67-3.03 139.32-3.03Z"/>
        <path fill="#817f84" stroke-width="0" d="M185.25 214.62c57.53 0 108.96 1.29 139.08 3.43 11.03.79 17.96 1.78 19.59 2.72-1.63.94-8.57 1.82-19.63 2.47-30.14 1.78-81.55 2.6-139.05 2.6s-108.93-1.05-139.07-3.02c-11.04-.72-17.98-1.66-19.61-2.6 1.63-.94 8.57-1.88 19.61-2.6 30.13-1.96 81.55-3.02 139.07-3.02Z"/>
        <path fill="#807e83" stroke-width="0" d="M185.25 214.63c57.4 0 108.72 1.28 138.83 3.42 11 .78 17.91 1.77 19.56 2.71-1.65.93-8.58 1.81-19.59 2.46-30.13 1.78-81.43 2.59-138.8 2.59s-108.7-1.05-138.82-3c-11.01-.72-17.93-1.65-19.58-2.58 1.65-.93 8.57-1.87 19.58-2.58 30.12-1.96 81.44-3 138.82-3Z"/>
        <path fill="#7f7d82" stroke-width="0" d="M185.25 214.65c57.26 0 108.49 1.27 138.59 3.4 10.96.78 17.86 1.76 19.53 2.69-1.67.93-8.58 1.8-19.56 2.44-30.11 1.77-81.32 2.58-138.55 2.58s-108.46-1.04-138.57-2.99c-10.97-.71-17.88-1.64-19.54-2.57 1.67-.93 8.57-1.86 19.54-2.57 30.11-1.95 81.32-2.99 138.57-2.99Z"/>
        <path fill="#7e7c81" stroke-width="0" d="M185.25 214.66c57.13 0 108.25 1.26 138.34 3.38 10.92.77 17.81 1.75 19.49 2.67-1.68.92-8.58 1.79-19.53 2.43-30.1 1.77-81.2 2.57-138.3 2.57s-108.23-1.03-138.32-2.98c-10.93-.71-17.83-1.63-19.51-2.55 1.68-.92 8.58-1.85 19.51-2.55 30.09-1.94 81.2-2.98 138.32-2.98Z"/>
        <path fill="#7d7b80" stroke-width="0" d="M185.25 214.67c56.99 0 108.02 1.25 138.09 3.37 10.89.77 17.76 1.74 19.46 2.66-1.7.92-8.59 1.78-19.49 2.41-30.08 1.76-81.08 2.56-138.05 2.56s-107.99-1.03-138.07-2.96c-10.9-.7-17.78-1.62-19.48-2.54 1.7-.92 8.58-1.84 19.48-2.54 30.08-1.94 81.09-2.96 138.07-2.96Z"/>
        <path fill="#7c7a7f" stroke-width="0" d="M185.25 214.68c56.86 0 107.78 1.24 137.84 3.35 10.85.76 17.71 1.73 19.43 2.64-1.72.91-8.59 1.77-19.46 2.4-30.07 1.75-80.97 2.55-137.81 2.55s-107.76-1.02-137.82-2.95c-10.86-.7-17.73-1.61-19.44-2.52 1.72-.91 8.58-1.83 19.44-2.52 30.06-1.93 80.97-2.95 137.82-2.95Z"/>
        <path fill="#7b797e" stroke-width="0" d="M185.25 214.69c56.73 0 107.55 1.23 137.59 3.33 10.81.76 17.66 1.72 19.39 2.63-1.74.91-8.6 1.76-19.43 2.39-30.06 1.75-80.85 2.54-137.56 2.54s-107.52-1.01-137.57-2.94c-10.82-.69-17.67-1.6-19.41-2.51 1.74-.91 8.59-1.82 19.41-2.51 30.05-1.92 80.86-2.94 137.57-2.94Z"/>
        <path fill="#7a787d" stroke-width="0" d="M185.25 214.7c56.59 0 107.31 1.23 137.34 3.32 10.78.75 17.61 1.71 19.36 2.61-1.75.9-8.6 1.75-19.39 2.37-30.04 1.74-80.74 2.53-137.31 2.53s-107.29-1.01-137.32-2.92c-10.79-.69-17.62-1.59-19.38-2.49 1.75-.9 8.59-1.81 19.38-2.49 30.03-1.92 80.74-2.92 137.32-2.92Z"/>
        <path fill="#79777c" stroke-width="0" d="M185.25 214.71c56.46 0 107.07 1.22 137.09 3.3 10.74.75 17.56 1.7 19.33 2.6-1.77.9-8.6 1.74-19.36 2.36-30.03 1.74-80.62 2.52-137.06 2.52s-107.05-1-137.07-2.91c-10.75-.68-17.57-1.58-19.34-2.48 1.77-.89 8.6-1.8 19.34-2.48 30.02-1.91 80.62-2.91 137.07-2.91Z"/>
        <path fill="#78767b" stroke-width="0" d="M185.25 214.72c56.33 0 106.84 1.21 136.84 3.28 10.7.74 17.51 1.69 19.29 2.58-1.79.89-8.61 1.73-19.33 2.35-30.01 1.73-80.5 2.51-136.81 2.51s-106.82-.99-136.82-2.9c-10.71-.68-17.52-1.57-19.31-2.46 1.79-.89 8.6-1.78 19.31-2.46 30.01-1.9 80.51-2.9 136.82-2.9Z"/>
        <path fill="#77757a" stroke-width="0" d="M185.25 214.73c56.19 0 106.6 1.2 136.59 3.27 10.67.74 17.46 1.68 19.26 2.57-1.81.88-8.61 1.72-19.29 2.33-30 1.72-80.39 2.5-136.56 2.5s-106.58-.99-136.57-2.88c-10.67-.67-17.47-1.57-19.28-2.45 1.81-.88 8.6-1.77 19.28-2.45 29.99-1.9 80.39-2.88 136.57-2.88Z"/>
        <path fill="#767479" stroke-width="0" d="M185.25 214.74c56.06 0 106.37 1.19 136.34 3.25 10.63.73 17.41 1.67 19.23 2.55-1.82.88-8.61 1.71-19.26 2.32-29.98 1.72-80.27 2.48-136.31 2.48s-106.35-.98-136.32-2.87c-10.64-.67-17.42-1.56-19.24-2.44 1.82-.88 8.61-1.76 19.24-2.44 29.98-1.89 80.28-2.87 136.32-2.87Z"/>
        <path fill="#747378" stroke-width="0" d="M185.25 214.75c55.93 0 106.13 1.18 136.09 3.24 10.59.73 17.36 1.66 19.2 2.54-1.84.87-8.62 1.7-19.23 2.3-29.97 1.71-80.16 2.47-136.06 2.47s-106.11-.97-136.07-2.85c-10.6-.67-17.37-1.55-19.21-2.42 1.84-.87 8.61-1.75 19.21-2.42 29.96-1.88 80.16-2.85 136.07-2.85Z"/>
        <path fill="#737277" stroke-width="0" d="M185.25 214.76c55.79 0 105.9 1.18 135.84 3.22 10.56.72 17.31 1.65 19.16 2.52-1.86.87-8.62 1.69-19.19 2.29-29.96 1.71-80.04 2.46-135.81 2.46s-105.88-.97-135.82-2.84c-10.56-.66-17.32-1.54-19.18-2.41 1.86-.87 8.61-1.74 19.18-2.41 29.95-1.88 80.04-2.84 135.82-2.84Z"/>
        <path fill="#727176" stroke-width="0" d="M185.25 214.77c55.66 0 105.66 1.17 135.59 3.2 10.52.72 17.25 1.64 19.13 2.51-1.87.86-8.62 1.68-19.16 2.28-29.94 1.7-79.92 2.45-135.56 2.45s-105.64-.96-135.57-2.83c-10.53-.66-17.27-1.53-19.14-2.39 1.87-.86 8.62-1.73 19.14-2.39 29.93-1.87 79.93-2.83 135.57-2.83Z"/>
        <path fill="#717075" stroke-width="0" d="M185.25 214.78c55.53 0 105.43 1.16 135.34 3.19 10.48.71 17.2 1.63 19.1 2.49-1.89.86-8.63 1.67-19.13 2.26-29.93 1.69-79.81 2.44-135.31 2.44s-105.41-.95-135.33-2.81c-10.49-.65-17.22-1.52-19.11-2.38 1.89-.86 8.62-1.72 19.11-2.38 29.92-1.86 79.81-2.81 135.33-2.81Z"/>
        <path fill="#706e74" stroke-width="0" d="M185.25 214.79c55.39 0 105.19 1.15 135.09 3.17 10.45.71 17.15 1.62 19.06 2.47-1.91.85-8.63 1.66-19.09 2.25-29.91 1.69-79.69 2.43-135.06 2.43s-105.17-.95-135.08-2.8c-10.45-.65-17.17-1.51-19.08-2.36 1.91-.85 8.62-1.71 19.08-2.36 29.91-1.85 79.7-2.8 135.08-2.8Z"/>
        <path fill="#6f6d73" stroke-width="0" d="M185.25 214.8c55.26 0 104.96 1.14 134.84 3.15 10.41.7 17.1 1.61 19.03 2.46-1.93.85-8.63 1.65-19.06 2.24-29.9 1.68-79.58 2.42-134.81 2.42s-104.93-.94-134.83-2.79c-10.42-.64-17.12-1.5-19.05-2.35 1.93-.85 8.63-1.7 19.05-2.35 29.89-1.85 79.58-2.79 134.83-2.79Z"/>
        <path fill="#6e6c72" stroke-width="0" d="M185.25 214.81c55.12 0 104.72 1.13 134.59 3.14 10.37.7 17.05 1.6 19 2.44-1.94.84-8.64 1.64-19.03 2.22-29.88 1.68-79.46 2.41-134.56 2.41s-104.7-.93-134.58-2.77c-10.38-.64-17.07-1.49-19.01-2.33 1.94-.84 8.63-1.69 19.01-2.33 29.88-1.84 79.46-2.77 134.58-2.77Z"/>
        <path fill="#6d6b71" stroke-width="0" d="M185.25 214.82c54.99 0 104.49 1.13 134.34 3.12 10.34.69 17 1.59 18.96 2.43-1.96.84-8.64 1.63-18.99 2.21-29.87 1.67-79.34 2.4-134.31 2.4s-104.46-.93-134.33-2.76c-10.34-.63-17.02-1.48-18.98-2.32 1.96-.84 8.63-1.68 18.98-2.32 29.86-1.83 79.35-2.76 134.33-2.76Z"/>
        <path fill="#6c6a70" stroke-width="0" d="M185.25 214.83c54.86 0 104.25 1.12 134.09 3.11 10.3.69 16.95 1.58 18.93 2.41-1.98.83-8.64 1.62-18.96 2.19-29.86 1.66-79.23 2.39-134.06 2.39s-104.23-.92-134.08-2.75c-10.31-.63-16.97-1.47-18.95-2.3 1.98-.83 8.64-1.67 18.95-2.3 29.85-1.83 79.23-2.75 134.08-2.75Z"/>
        <path fill="#6b696f" stroke-width="0" d="M185.25 214.85c54.72 0 104.01 1.11 133.84 3.09 10.26.68 16.9 1.57 18.9 2.4-2 .83-8.65 1.61-18.93 2.18-29.84 1.66-79.11 2.38-133.81 2.38s-103.99-.91-133.83-2.73c-10.27-.63-16.92-1.46-18.91-2.29 2-.83 8.64-1.66 18.91-2.29 29.83-1.82 79.11-2.73 133.83-2.73Z"/>
        <path fill="#6a686e" stroke-width="0" d="M185.25 214.86c54.59 0 103.78 1.1 133.59 3.07 10.23.68 16.85 1.56 18.86 2.38-2.01.82-8.65 1.6-18.89 2.17-29.83 1.65-79 2.37-133.57 2.37s-103.76-.91-133.58-2.72c-10.23-.62-16.87-1.45-18.88-2.27 2.01-.82 8.64-1.65 18.88-2.27 29.82-1.81 79-2.72 133.58-2.72Z"/>
        <path fill="#69676d" stroke-width="0" d="M185.25 214.87c54.46 0 103.54 1.09 133.34 3.06 10.19.67 16.8 1.55 18.83 2.37-2.03.82-8.65 1.59-18.86 2.15-29.81 1.65-78.88 2.35-133.32 2.35s-103.52-.9-133.33-2.71c-10.2-.62-16.82-1.44-18.85-2.26 2.03-.81 8.65-1.64 18.85-2.26 29.81-1.8 78.88-2.71 133.33-2.71Z"/>
        <path fill="#68666c" stroke-width="0" d="M185.25 214.88c54.32 0 103.31 1.08 133.09 3.04 10.15.67 16.75 1.54 18.8 2.35-2.05.81-8.66 1.58-18.83 2.14-29.8 1.64-78.76 2.34-133.07 2.34s-103.29-.89-133.08-2.69c-10.16-.61-16.76-1.44-18.81-2.24 2.05-.81 8.65-1.63 18.81-2.24 29.79-1.8 78.77-2.69 133.08-2.69Z"/>
        <path fill="#67656b" stroke-width="0" d="M185.25 214.89c54.19 0 103.07 1.08 132.84 3.02 10.12.66 16.7 1.53 18.77 2.34-2.07.8-8.66 1.57-18.79 2.13-29.78 1.63-78.65 2.33-132.82 2.33s-103.05-.89-132.83-2.68c-10.12-.61-16.71-1.43-18.78-2.23 2.07-.8 8.66-1.62 18.78-2.23 29.78-1.79 78.65-2.68 132.83-2.68Z"/>
        <path fill="#66656a" stroke-width="0" d="M185.25 214.9c54.06 0 102.84 1.07 132.59 3.01 10.08.66 16.65 1.52 18.73 2.32-2.08.8-8.66 1.56-18.76 2.11-29.77 1.63-78.53 2.32-132.57 2.32S82.42 223.78 52.66 222c-10.09-.6-16.66-1.42-18.75-2.22 2.08-.8 8.66-1.61 18.75-2.22 29.76-1.78 78.53-2.66 132.58-2.66Z"/>
        <path fill="#656469" stroke-width="0" d="M185.25 214.91c53.92 0 102.6 1.06 132.35 2.99 10.04.65 16.6 1.51 18.7 2.3-2.1.79-8.67 1.55-18.73 2.1-29.76 1.62-78.42 2.31-132.32 2.31s-102.58-.88-132.33-2.65c-10.05-.6-16.61-1.41-18.71-2.2 2.1-.79 8.66-1.6 18.71-2.2 29.75-1.78 78.42-2.65 132.33-2.65Z"/>
        <path fill="#646368" stroke-width="0" d="M185.25 214.92c53.79 0 102.37 1.05 132.1 2.98 10.01.65 16.55 1.5 18.67 2.29-2.12.79-8.67 1.54-18.69 2.08-29.74 1.61-78.3 2.3-132.07 2.3s-102.35-.87-132.08-2.64c-10.01-.6-16.56-1.4-18.68-2.19 2.12-.79 8.67-1.59 18.68-2.19 29.74-1.77 78.3-2.64 132.08-2.64Z"/>
        <path fill="#636267" stroke-width="0" d="M185.25 214.93c53.66 0 102.13 1.04 131.85 2.96 9.97.64 16.5 1.49 18.63 2.27-2.13.78-8.68 1.53-18.66 2.07-29.73 1.61-78.18 2.29-131.82 2.29s-102.11-.86-131.83-2.62c-9.98-.59-16.51-1.39-18.65-2.17 2.14-.78 8.67-1.58 18.65-2.17 29.72-1.76 78.19-2.62 131.83-2.62Z"/>
        <path fill="#636166" stroke-width="0" d="M185.25 214.94c53.52 0 101.9 1.04 131.6 2.94 9.93.64 16.45 1.48 18.6 2.26-2.15.78-8.68 1.52-18.63 2.06-29.71 1.6-78.07 2.28-131.57 2.28s-101.88-.86-131.58-2.61c-9.94-.59-16.46-1.38-18.61-2.16 2.15-.78 8.67-1.57 18.61-2.16 29.71-1.75 78.07-2.61 131.58-2.61Z"/>
        <path fill="#626065" stroke-width="0" d="M185.25 214.95c53.39 0 101.66 1.03 131.35 2.93 9.9.63 16.4 1.47 18.57 2.24-2.17.77-8.68 1.51-18.59 2.04-29.7 1.6-77.95 2.27-131.32 2.27s-101.64-.85-131.33-2.6c-9.9-.58-16.41-1.37-18.58-2.14 2.17-.77 8.68-1.56 18.58-2.14 29.69-1.75 77.95-2.6 131.33-2.6Z"/>
        <path fill="#615f64" stroke-width="0" d="M185.25 214.96c53.25 0 101.42 1.02 131.1 2.91 9.86.63 16.35 1.46 18.53 2.23-2.19.77-8.69 1.5-18.56 2.03-29.68 1.59-77.84 2.26-131.07 2.26s-101.41-.84-131.08-2.58c-9.87-.58-16.36-1.36-18.55-2.13 2.19-.77 8.68-1.55 18.55-2.13 29.68-1.74 77.84-2.58 131.08-2.58Z"/>
        <path fill="#605e63" stroke-width="0" d="M185.25 214.97c53.12 0 101.19 1.01 130.85 2.89 9.82.62 16.3 1.45 18.5 2.21-2.2.76-8.69 1.49-18.53 2.01-29.67 1.58-77.72 2.25-130.82 2.25s-101.17-.84-130.83-2.57c-9.83-.57-16.31-1.35-18.51-2.11 2.2-.76 8.68-1.54 18.51-2.11 29.66-1.73 77.72-2.57 130.83-2.57Z"/>
        <path fill="#5f5d62" stroke-width="0" d="M185.25 214.98c52.99 0 100.95 1 130.6 2.88 9.79.62 16.25 1.44 18.47 2.2-2.22.76-8.69 1.48-18.49 2-29.66 1.58-77.6 2.23-130.57 2.23s-100.93-.83-130.58-2.56c-9.79-.57-16.26-1.34-18.48-2.1 2.22-.76 8.69-1.53 18.48-2.1 29.65-1.72 77.61-2.56 130.58-2.56Z"/>
        <path fill="#5e5c61" stroke-width="0" d="M185.25 214.99c52.85 0 100.72 1 130.35 2.86 9.75.61 16.2 1.43 18.43 2.18-2.24.75-8.7 1.47-18.46 1.99-29.64 1.57-77.49 2.22-130.32 2.22s-100.7-.82-130.34-2.54c-9.76-.57-16.21-1.33-18.45-2.08 2.24-.75 8.69-1.52 18.45-2.08 29.64-1.72 77.49-2.54 130.34-2.54Z"/>
        <path fill="#5d5b60" stroke-width="0" d="M185.25 215c52.72 0 100.48.99 130.1 2.84 9.71.61 16.15 1.42 18.4 2.17-2.26.75-8.7 1.46-18.43 1.97-29.63 1.56-77.37 2.21-130.07 2.21s-100.46-.82-130.09-2.53c-9.72-.56-16.16-1.32-18.41-2.07 2.26-.75 8.69-1.51 18.41-2.07 29.62-1.71 77.37-2.53 130.09-2.53Z"/>
        <path fill="#5c5a5f" stroke-width="0" d="M185.25 215.01c52.59 0 100.25.98 129.85 2.83 9.68.6 16.09 1.41 18.37 2.15-2.27.74-8.7 1.45-18.39 1.96-29.61 1.56-77.26 2.2-129.82 2.2s-100.23-.81-129.84-2.52c-9.68-.56-16.11-1.31-18.38-2.05 2.27-.74 8.7-1.5 18.38-2.05 29.61-1.7 77.26-2.52 129.84-2.52Z"/>
        <path fill="#5b595f" stroke-width="0" d="M185.25 215.02c52.45 0 100.01.97 129.6 2.81 9.64.6 16.04 1.4 18.34 2.13-2.29.74-8.71 1.44-18.36 1.95-29.6 1.55-77.14 2.19-129.57 2.19s-99.99-.81-129.59-2.5c-9.65-.55-16.06-1.31-18.35-2.04 2.29-.73 8.7-1.49 18.35-2.04 29.59-1.7 77.14-2.5 129.59-2.5Z"/>
        <path fill="#5a585e" stroke-width="0" d="M185.25 215.03c52.32 0 99.78.96 129.35 2.8 9.6.59 15.99 1.39 18.3 2.12-2.31.73-8.71 1.43-18.33 1.93-29.58 1.54-77.02 2.18-129.33 2.18s-99.76-.8-129.34-2.49c-9.61-.55-16.01-1.3-18.31-2.03 2.31-.73 8.7-1.48 18.31-2.03 29.58-1.69 77.03-2.49 129.34-2.49Z"/>
        <path fill="#59585d" stroke-width="0" d="M185.25 215.04c52.19 0 99.54.96 129.1 2.78 9.57.59 15.94 1.38 18.27 2.1-2.33.72-8.71 1.42-18.29 1.92-29.57 1.54-76.91 2.17-129.08 2.17s-99.52-.79-129.09-2.47c-9.57-.54-15.96-1.29-18.28-2.01 2.33-.72 8.71-1.47 18.28-2.01 29.56-1.68 76.91-2.47 129.09-2.47Z"/>
        <path fill="#58575c" stroke-width="0" d="M185.25 215.06c52.05 0 99.31.95 128.85 2.76 9.53.59 15.89 1.37 18.24 2.09-2.34.72-8.72 1.41-18.26 1.9-29.56 1.53-76.79 2.16-128.83 2.16s-99.29-.79-128.84-2.46c-9.54-.54-15.9-1.28-18.25-2 2.34-.72 8.71-1.46 18.25-2 29.55-1.67 76.79-2.46 128.84-2.46Z"/>
        <path fill="#58565b" stroke-width="0" d="M185.25 215.07c51.92 0 99.07.94 128.6 2.75 9.49.58 15.84 1.36 18.2 2.07-2.36.71-8.72 1.4-18.23 1.89-29.54 1.52-76.68 2.15-128.58 2.15s-99.05-.78-128.59-2.45c-9.5-.54-15.85-1.27-18.22-1.98 2.36-.71 8.72-1.45 18.22-1.98 29.54-1.67 76.68-2.45 128.59-2.45Z"/>
        <path fill="#57555a" stroke-width="0" d="M185.25 215.08c51.79 0 98.83.93 128.35 2.73 9.46.58 15.79 1.35 18.17 2.06-2.38.71-8.72 1.39-18.19 1.88-29.53 1.52-76.56 2.14-128.33 2.14s-98.82-.78-128.34-2.43c-9.46-.53-15.8-1.26-18.18-1.97 2.38-.71 8.72-1.44 18.18-1.97 29.52-1.66 76.56-2.43 128.34-2.43Z"/>
        <path fill="#565459" stroke-width="0" d="M185.25 215.09c51.65 0 98.6.93 128.1 2.71 9.42.57 15.74 1.34 18.14 2.04-2.4.7-8.73 1.38-18.16 1.86-29.51 1.51-76.44 2.13-128.08 2.13s-98.58-.77-128.09-2.42c-9.43-.53-15.75-1.25-18.15-1.95 2.4-.7 8.72-1.43 18.15-1.95 29.51-1.65 76.45-2.42 128.09-2.42Z"/>
        <path fill="#555358" stroke-width="0" d="M185.25 215.1c51.52 0 98.36.92 127.85 2.7 9.38.57 15.69 1.33 18.1 2.03-2.41.7-8.73 1.37-18.13 1.85-29.5 1.5-76.33 2.11-127.83 2.11s-98.35-.76-127.84-2.41c-9.39-.52-15.7-1.24-18.12-1.94 2.41-.7 8.73-1.41 18.12-1.94 29.49-1.64 76.33-2.41 127.84-2.41Z"/>
        <path fill="#545258" stroke-width="0" d="M185.25 215.11c51.39 0 98.13.91 127.6 2.68 9.35.56 15.64 1.32 18.07 2.01-2.43.69-8.73 1.36-18.09 1.84-29.48 1.5-76.21 2.1-127.58 2.1s-98.11-.76-127.59-2.39c-9.35-.52-15.65-1.23-18.08-1.92 2.43-.69 8.73-1.4 18.08-1.92 29.48-1.64 76.21-2.39 127.59-2.39Z"/>
        <path fill="#535257" stroke-width="0" d="M185.25 215.12c51.25 0 97.89.9 127.35 2.67 9.31.56 15.59 1.31 18.04 2-2.45.69-8.74 1.35-18.06 1.82-29.47 1.49-76.1 2.09-127.33 2.09s-97.88-.75-127.34-2.38c-9.32-.51-15.6-1.22-18.05-1.91 2.45-.69 8.73-1.39 18.05-1.91 29.47-1.63 76.1-2.38 127.34-2.38Z"/>
        <path fill="#525156" stroke-width="0" d="M185.25 215.13c51.12 0 97.66.89 127.1 2.65 9.27.55 15.54 1.3 18 1.98-2.46.68-8.74 1.34-18.03 1.81-29.46 1.49-75.98 2.08-127.08 2.08s-97.64-.75-127.09-2.37c-9.28-.51-15.55-1.21-18.02-1.89 2.46-.68 8.74-1.38 18.02-1.89 29.45-1.62 75.98-2.37 127.09-2.37Z"/>
        <path fill="#515055" stroke-width="0" d="M185.25 215.14c50.98 0 97.42.89 126.85 2.63 9.24.55 15.49 1.29 17.97 1.96-2.48.68-8.74 1.33-17.99 1.79-29.44 1.48-75.86 2.07-126.83 2.07s-97.41-.74-126.84-2.35c-9.24-.51-15.5-1.2-17.98-1.88 2.48-.68 8.74-1.37 17.98-1.88 29.44-1.61 75.87-2.35 126.84-2.35Z"/>
        <path fill="#514f54" stroke-width="0" d="M185.25 215.15c50.85 0 97.19.88 126.6 2.62 9.2.54 15.44 1.28 17.94 1.95-2.5.67-8.75 1.32-17.96 1.78-29.43 1.47-75.75 2.06-126.58 2.06s-97.17-.73-126.59-2.34c-9.21-.5-15.45-1.19-17.95-1.86 2.5-.67 8.74-1.36 17.95-1.86 29.42-1.6 75.75-2.34 126.59-2.34Z"/>
        <path fill="#504e53" stroke-width="0" d="M185.25 215.16c50.72 0 96.95.87 126.35 2.6 9.16.54 15.39 1.27 17.91 1.93-2.52.67-8.75 1.31-17.93 1.77-29.41 1.47-75.63 2.05-126.33 2.05s-96.93-.73-126.34-2.32c-9.17-.5-15.4-1.18-17.92-1.85 2.52-.67 8.75-1.35 17.92-1.85 29.41-1.6 75.63-2.32 126.34-2.32Z"/>
        <path fill="#4f4d53" stroke-width="0" d="M185.25 215.17c50.58 0 96.72.86 126.1 2.58 9.13.53 15.34 1.26 17.87 1.92-2.53.66-8.76 1.3-17.89 1.75-29.4 1.46-75.52 2.04-126.08 2.04s-96.7-.72-126.09-2.31c-9.13-.49-15.35-1.18-17.88-1.84 2.53-.66 8.75-1.34 17.88-1.84 29.39-1.59 75.52-2.31 126.09-2.31Z"/>
        <path fill="#4e4d52" stroke-width="0" d="M185.25 215.18c50.45 0 96.48.86 125.86 2.57 9.09.53 15.29 1.25 17.84 1.9-2.55.65-8.76 1.29-17.86 1.74-29.39 1.45-75.4 2.03-125.83 2.03s-96.46-.72-125.84-2.3c-9.1-.49-15.3-1.17-17.85-1.82 2.55-.65 8.75-1.33 17.85-1.82 29.38-1.58 75.4-2.3 125.84-2.3Z"/>
        <path fill="#4d4c51" stroke-width="0" d="M185.25 215.19c50.32 0 96.24.85 125.61 2.55 9.05.52 15.24 1.24 17.81 1.89-2.57.65-8.76 1.28-17.83 1.73-29.37 1.44-75.28 2.02-125.58 2.02s-96.23-.71-125.59-2.28c-9.06-.49-15.25-1.16-17.82-1.81 2.57-.65 8.76-1.32 17.82-1.81 29.37-1.57 75.29-2.28 125.59-2.28Z"/>
        <path fill="#4c4b50" stroke-width="0" d="M185.25 215.2c50.18 0 96.01.84 125.36 2.54 9.02.52 15.19 1.23 17.77 1.87-2.59.64-8.77 1.27-17.79 1.71-29.36 1.44-75.17 2.01-125.33 2.01s-95.99-.7-125.35-2.27c-9.02-.48-15.2-1.15-17.78-1.79 2.59-.64 8.76-1.31 17.78-1.79 29.35-1.57 75.17-2.27 125.35-2.27Z"/>
        <path fill="#4c4a4f" stroke-width="0" d="M185.25 215.21c50.05 0 95.77.83 125.11 2.52 8.98.52 15.14 1.22 17.74 1.86-2.6.64-8.77 1.26-17.76 1.7-29.34 1.43-75.05 1.99-125.09 1.99s-95.76-.7-125.1-2.26c-8.99-.48-15.15-1.14-17.75-1.78 2.6-.64 8.76-1.3 17.75-1.78 29.34-1.56 75.05-2.26 125.1-2.26Z"/>
        <path fill="#4b494e" stroke-width="0" d="M185.25 215.22c49.92 0 95.54.83 124.86 2.5 8.94.51 15.09 1.21 17.71 1.84-2.62.63-8.77 1.25-17.73 1.68-29.33 1.42-74.94 1.98-124.84 1.98s-95.52-.69-124.85-2.24c-8.95-.47-15.1-1.13-17.72-1.76 2.62-.63 8.77-1.29 17.72-1.76 29.32-1.55 74.94-2.24 124.85-2.24Z"/>
        <path fill="#4a494e" stroke-width="0" d="M185.25 215.23c49.78 0 95.3.82 124.61 2.49 8.91.51 15.04 1.2 17.67 1.83-2.64.63-8.78 1.24-17.69 1.67-29.31 1.42-74.82 1.97-124.59 1.97s-95.29-.69-124.6-2.23c-8.91-.47-15.05-1.12-17.68-1.75 2.64-.63 8.77-1.28 17.68-1.75 29.31-1.54 74.82-2.23 124.6-2.23Z"/>
        <path fill="#49484d" stroke-width="0" d="M185.25 215.24c49.65 0 95.07.81 124.36 2.47 8.87.5 14.98 1.19 17.64 1.81-2.66.62-8.78 1.23-17.66 1.66-29.3 1.41-74.7 1.96-124.34 1.96s-95.05-.68-124.35-2.22c-8.88-.46-14.99-1.11-17.65-1.73 2.66-.62 8.78-1.27 17.65-1.73 29.3-1.53 74.71-2.22 124.35-2.22Z"/>
        <path fill="#48474c" stroke-width="0" d="M185.25 215.25c49.52 0 94.83.8 124.11 2.45 8.83.5 14.93 1.18 17.61 1.79-2.67.62-8.78 1.22-17.63 1.64-29.29 1.4-74.59 1.95-124.09 1.95s-94.82-.68-124.1-2.2c-8.84-.46-14.94-1.1-17.62-1.72 2.67-.62 8.78-1.26 17.62-1.72 29.28-1.53 74.59-2.2 124.1-2.2Z"/>
        <path fill="#47464b" stroke-width="0" d="M185.25 215.27c49.38 0 94.6.8 123.86 2.44 8.8.49 14.88 1.17 17.57 1.78-2.69.61-8.79 1.21-17.59 1.63-29.27 1.4-74.47 1.94-123.84 1.94s-94.58-.67-123.85-2.19c-8.8-.46-14.89-1.09-17.58-1.7 2.69-.61 8.78-1.25 17.58-1.7 29.27-1.52 74.47-2.19 123.85-2.19Z"/>
        <path fill="#46454a" stroke-width="0" d="M185.25 215.28c49.25 0 94.36.79 123.61 2.42 8.76.49 14.83 1.16 17.54 1.76-2.71.61-8.79 1.2-17.56 1.61-29.26 1.39-74.36 1.93-123.59 1.93s-94.35-.66-123.6-2.18c-8.76-.45-14.84-1.08-17.55-1.69 2.71-.61 8.79-1.24 17.55-1.69 29.25-1.51 74.36-2.18 123.6-2.18Z"/>
        <path fill="#46444a" stroke-width="0" d="M185.25 215.29c49.11 0 94.13.78 123.36 2.41 8.72.48 14.78 1.15 17.51 1.75-2.73.6-8.79 1.19-17.53 1.6-29.24 1.38-74.24 1.92-123.34 1.92s-94.11-.66-123.35-2.16c-8.73-.45-14.79-1.07-17.52-1.67 2.73-.6 8.79-1.23 17.52-1.67 29.24-1.5 74.24-2.16 123.35-2.16Z"/>
        <path fill="#454449" stroke-width="0" d="M185.25 215.3c48.98 0 93.89.78 123.11 2.39 8.69.48 14.73 1.14 17.48 1.73-2.74.6-8.8 1.18-17.49 1.59-29.23 1.38-74.12 1.91-123.09 1.91s-93.88-.65-123.1-2.15c-8.69-.44-14.74-1.06-17.48-1.66 2.74-.6 8.79-1.22 17.48-1.66 29.22-1.49 74.13-2.15 123.1-2.15Z"/>
        <path fill="#444348" stroke-width="0" d="M185.25 215.31c48.85 0 93.65.77 122.86 2.37 8.65.48 14.68 1.13 17.44 1.72-2.76.59-8.8 1.17-17.46 1.57-29.21 1.37-74.01 1.9-122.84 1.9s-93.64-.65-122.85-2.13c-8.65-.44-14.69-1.05-17.45-1.65 2.76-.59 8.8-1.21 17.45-1.65 29.21-1.49 74.01-2.13 122.85-2.13Z"/>
        <path fill="#434247" stroke-width="0" d="M185.25 215.32c48.71 0 93.42.76 122.61 2.36 8.61.47 14.63 1.12 17.41 1.7-2.78.59-8.8 1.16-17.43 1.56-29.2 1.36-73.89 1.89-122.59 1.89s-93.4-.64-122.6-2.12c-8.62-.44-14.64-1.05-17.42-1.63 2.78-.59 8.8-1.19 17.42-1.63 29.2-1.48 73.89-2.12 122.6-2.12Z"/>
        <path fill="#424146" stroke-width="0" d="M185.25 215.33c48.58 0 93.18.75 122.36 2.34 8.58.47 14.58 1.11 17.38 1.69-2.79.58-8.81 1.15-17.39 1.55-29.19 1.36-73.78 1.88-122.34 1.88s-93.17-.64-122.35-2.11c-8.58-.43-14.59-1.04-17.39-1.62 2.79-.58 8.8-1.18 17.39-1.62 29.18-1.47 73.78-2.11 122.35-2.11Z"/>
        <path fill="#414146" stroke-width="0" d="M185.25 215.34c48.45 0 92.95.75 122.11 2.32 8.54.46 14.53 1.1 17.34 1.67-2.81.57-8.81 1.14-17.36 1.53-29.17 1.35-73.66 1.86-122.09 1.86s-92.93-.63-122.1-2.09c-8.54-.43-14.54-1.03-17.35-1.6 2.81-.57 8.81-1.17 17.35-1.6 29.17-1.46 73.66-2.09 122.1-2.09Z"/>
        <path fill="#414045" stroke-width="0" d="M185.25 215.35c48.31 0 92.71.74 121.86 2.31 8.5.46 14.48 1.09 17.31 1.66-2.83.57-8.81 1.13-17.33 1.52-29.16 1.34-73.54 1.85-121.84 1.85s-92.7-.63-121.85-2.08c-8.51-.42-14.49-1.02-17.32-1.59 2.83-.57 8.81-1.16 17.32-1.59 29.15-1.45 73.55-2.08 121.85-2.08Z"/>
        <path fill="#403f44" stroke-width="0" d="M185.25 215.36c48.18 0 92.48.73 121.61 2.29 8.47.45 14.43 1.08 17.28 1.64-2.85.56-8.82 1.12-17.29 1.5-29.14 1.33-73.43 1.84-121.59 1.84s-92.46-.62-121.6-2.07c-8.47-.42-14.44-1.01-17.29-1.57 2.85-.56 8.81-1.15 17.29-1.57 29.14-1.45 73.43-2.07 121.6-2.07Z"/>
        <path fill="#3f3e43" stroke-width="0" d="M185.25 215.37c48.05 0 92.24.73 121.36 2.27 8.43.45 14.38 1.07 17.24 1.63-2.86.56-8.82 1.11-17.26 1.49-29.13 1.33-73.31 1.83-121.34 1.83s-92.23-.62-121.35-2.05c-8.43-.42-14.39-1-17.25-1.56 2.86-.56 8.82-1.14 17.25-1.56 29.13-1.44 73.31-2.05 121.35-2.05Z"/>
        <path fill="#3e3d42" stroke-width="0" d="M185.25 215.38c47.91 0 92.01.72 121.11 2.26 8.39.44 14.33 1.06 17.21 1.61-2.88.55-8.83 1.1-17.23 1.48-29.12 1.32-73.2 1.82-121.1 1.82s-91.99-.61-121.1-2.04c-8.4-.41-14.34-.99-17.22-1.54 2.88-.55 8.82-1.13 17.22-1.54 29.11-1.43 73.2-2.04 121.1-2.04Z"/>
        <path fill="#3d3d42" stroke-width="0" d="M185.25 215.39c47.78 0 91.77.71 120.86 2.24 8.36.44 14.28 1.05 17.18 1.59-2.9.55-8.83 1.09-17.19 1.46-29.1 1.31-73.08 1.81-120.85 1.81s-91.76-.6-120.85-2.03c-8.36-.41-14.29-.98-17.19-1.53 2.9-.55 8.83-1.12 17.19-1.53 29.1-1.42 73.08-2.03 120.85-2.03Z"/>
        <path fill="#3d3c41" stroke-width="0" d="M185.25 215.4c47.65 0 91.53.71 120.61 2.23 8.32.44 14.23 1.04 17.14 1.58-2.92.54-8.83 1.08-17.16 1.45-29.09 1.31-72.96 1.8-120.6 1.8s-91.52-.6-120.6-2.01c-8.32-.4-14.24-.97-17.15-1.51 2.92-.54 8.83-1.11 17.15-1.51 29.08-1.41 72.97-2.01 120.6-2.01Z"/>
        <path fill="#3c3b40" stroke-width="0" d="M185.25 215.41c47.51 0 91.3.7 120.36 2.21 8.28.43 14.18 1.03 17.11 1.56-2.93.54-8.84 1.07-17.13 1.44-29.07 1.3-72.85 1.79-120.35 1.79s-91.29-.59-120.36-2c-8.29-.4-14.19-.96-17.12-1.5 2.93-.54 8.83-1.1 17.12-1.5 29.07-1.4 72.85-2 120.35-2Z"/>
        <path fill="#3b3a3f" stroke-width="0" d="M185.25 215.42c47.38 0 91.06.69 120.11 2.19 8.25.43 14.13 1.02 17.08 1.55-2.95.53-8.84 1.05-17.09 1.42-29.06 1.29-72.73 1.78-120.1 1.78s-91.05-.59-120.11-1.99c-8.25-.4-14.14-.95-17.09-1.48 2.95-.53 8.84-1.09 17.09-1.48 29.05-1.4 72.73-1.99 120.11-1.99Z"/>
        <path fill="#3a3a3f" stroke-width="0" d="M185.25 215.43c47.25 0 90.83.68 119.86 2.18 8.21.42 14.08 1.01 17.04 1.53-2.97.53-8.84 1.04-17.06 1.41-29.04 1.28-72.62 1.77-119.85 1.77s-90.82-.58-119.86-1.97c-8.21-.39-14.08-.94-17.05-1.47 2.97-.53 8.84-1.08 17.05-1.47 29.04-1.39 72.62-1.97 119.86-1.97Z"/>
        <path fill="#3a393e" stroke-width="0" d="M185.25 215.44c47.11 0 90.59.68 119.61 2.16 8.17.42 14.03 1 17.01 1.52-2.99.52-8.85 1.03-17.03 1.39-29.03 1.28-72.5 1.76-119.6 1.76s-90.58-.58-119.61-1.96c-8.18-.39-14.03-.93-17.02-1.46 2.99-.52 8.84-1.07 17.02-1.46 29.03-1.38 72.5-1.96 119.61-1.96Z"/>
        <path fill="#39383d" stroke-width="0" d="M185.25 215.45c46.98 0 90.36.67 119.37 2.14 8.14.41 13.98.99 16.98 1.5-3 .52-8.85 1.02-16.99 1.38-29.02 1.27-72.38 1.74-119.35 1.74s-90.35-.57-119.36-1.94c-8.14-.38-13.98-.92-16.99-1.44 3-.52 8.85-1.06 16.99-1.44 29.01-1.37 72.39-1.94 119.36-1.94Z"/>
        <path fill="#38373c" stroke-width="0" d="M185.25 215.47c46.84 0 90.12.66 119.12 2.13 8.1.41 13.93.98 16.95 1.49-3.02.51-8.85 1.01-16.96 1.37-29 1.26-72.27 1.73-119.1 1.73s-90.11-.57-119.11-1.93c-8.1-.38-13.93-.92-16.95-1.43 3.02-.51 8.85-1.05 16.95-1.43 29-1.36 72.27-1.93 119.11-1.93Z"/>
        <path fill="#37373c" stroke-width="0" d="M185.25 215.48c46.71 0 89.89.66 118.87 2.11 8.06.4 13.87.97 16.91 1.47-3.04.51-8.86 1-16.93 1.35-28.99 1.25-72.15 1.72-118.85 1.72s-89.87-.56-118.86-1.92c-8.07-.38-13.88-.91-16.92-1.41 3.04-.51 8.85-1.03 16.92-1.41 28.98-1.35 72.15-1.92 118.86-1.92Z"/>
        <path fill="#37363b" stroke-width="0" d="M185.25 215.49c46.58 0 89.65.65 118.62 2.1 8.03.4 13.82.96 16.88 1.46-3.05.5-8.86.99-16.89 1.34-28.97 1.25-72.03 1.71-118.6 1.71s-89.64-.56-118.61-1.9c-8.03-.37-13.83-.9-16.89-1.4 3.05-.5 8.86-1.02 16.89-1.4 28.97-1.35 72.04-1.9 118.61-1.9Z"/>
        <path fill="#36353a" stroke-width="0" d="M185.25 215.5c46.44 0 89.42.65 118.37 2.08 7.99.4 13.77.95 16.85 1.44-3.07.49-8.86.98-16.86 1.32-28.96 1.24-71.92 1.7-118.35 1.7s-89.4-.55-118.36-1.89c-7.99-.37-13.78-.89-16.85-1.38 3.07-.49 8.86-1.01 16.85-1.38 28.96-1.34 71.92-1.89 118.36-1.89Z"/>
        <path fill="#353539" stroke-width="0" d="M185.25 215.51c46.31 0 89.18.64 118.12 2.06 7.95.39 13.72.94 16.81 1.42-3.09.49-8.87.97-16.83 1.31-28.94 1.23-71.8 1.69-118.1 1.69s-89.17-.55-118.11-1.88c-7.96-.37-13.73-.88-16.82-1.37 3.09-.49 8.86-1 16.82-1.37 28.94-1.33 71.8-1.88 118.11-1.88Z"/>
        <path fill="#343439" stroke-width="0" d="M185.25 215.52c46.18 0 88.94.63 117.87 2.05 7.92.39 13.67.93 16.78 1.41-3.11.48-8.87.96-16.79 1.3-28.93 1.22-71.69 1.68-117.85 1.68s-88.93-.54-117.86-1.86c-7.92-.36-13.68-.87-16.79-1.35 3.11-.48 8.87-.99 16.79-1.35 28.93-1.32 71.69-1.86 117.86-1.86Z"/>
        <path fill="#343338" stroke-width="0" d="M185.25 215.53c46.04 0 88.71.63 117.62 2.03 7.88.38 13.62.92 16.75 1.39-3.12.48-8.87.95-16.76 1.28-28.92 1.22-71.57 1.67-117.6 1.67s-88.7-.54-117.61-1.85c-7.88-.36-13.63-.86-16.75-1.34 3.12-.48 8.87-.98 16.75-1.34 28.91-1.31 71.57-1.85 117.61-1.85Z"/>
        <path fill="#333337" stroke-width="0" d="M185.25 215.54c45.91 0 88.47.62 117.37 2.01 7.84.38 13.57.91 16.71 1.38-3.14.47-8.88.94-16.73 1.27-28.9 1.21-71.45 1.66-117.35 1.66s-88.46-.53-117.36-1.84c-7.85-.35-13.58-.85-16.72-1.32 3.14-.47 8.87-.97 16.72-1.32 28.9-1.3 71.46-1.84 117.36-1.84Z"/>
        <path fill="#323237" stroke-width="0" d="M185.25 215.55c45.78 0 88.24.61 117.12 2 7.81.37 13.52.89 16.68 1.36-3.16.47-8.88.93-16.69 1.26-28.89 1.2-71.34 1.65-117.1 1.65s-88.23-.53-117.11-1.82c-7.81-.35-13.53-.84-16.69-1.31 3.16-.47 8.88-.96 16.69-1.31 28.88-1.29 71.34-1.82 117.11-1.82Z"/>
        <path fill="#313136" stroke-width="0" d="M185.25 215.56c45.64 0 88 .61 116.87 1.98 7.77.37 13.47.88 16.65 1.35-3.18.46-8.88.92-16.66 1.24-28.87 1.19-71.22 1.64-116.86 1.64s-87.99-.52-116.86-1.81c-7.77-.35-13.48-.83-16.65-1.29 3.18-.46 8.88-.95 16.65-1.29 28.87-1.28 71.22-1.81 116.86-1.81Z"/>
        <path fill="#313135" stroke-width="0" d="M185.25 215.57c45.51 0 87.77.6 116.62 1.97 7.73.37 13.42.87 16.61 1.33-3.19.46-8.89.91-16.63 1.23-28.86 1.19-71.11 1.62-116.61 1.62s-87.76-.52-116.61-1.79c-7.74-.34-13.43-.82-16.62-1.28 3.19-.46 8.89-.94 16.62-1.28 28.86-1.28 71.11-1.79 116.61-1.79Z"/>
        <path fill="#303034" stroke-width="0" d="M185.25 215.58c45.38 0 87.53.59 116.37 1.95 7.7.36 13.37.86 16.58 1.32-3.21.45-8.89.9-16.59 1.21-28.85 1.18-70.99 1.61-116.36 1.61s-87.52-.51-116.36-1.78c-7.7-.34-13.38-.81-16.59-1.27 3.21-.45 8.89-.93 16.59-1.27 28.84-1.27 70.99-1.78 116.36-1.78Z"/>
        <path fill="#2f2f34" stroke-width="0" d="M185.25 215.59c45.24 0 87.3.59 116.12 1.93 7.66.36 13.32.85 16.55 1.3-3.23.45-8.9.89-16.56 1.2-28.83 1.17-70.87 1.6-116.11 1.6s-87.29-.51-116.11-1.77c-7.66-.33-13.33-.8-16.56-1.25 3.23-.45 8.89-.92 16.56-1.25 28.83-1.26 70.88-1.77 116.11-1.77Z"/>
        <path fill="#2f2f33" stroke-width="0" d="M185.25 215.6c45.11 0 87.06.58 115.87 1.92 7.62.35 13.27.84 16.52 1.29-3.25.44-8.9.88-16.53 1.19-28.82 1.16-70.76 1.59-115.86 1.59s-87.05-.51-115.86-1.75c-7.63-.33-13.28-.79-16.52-1.24 3.25-.44 8.9-.91 16.52-1.24 28.81-1.25 70.76-1.75 115.86-1.75Z"/>
        <path fill="#2e2e32" stroke-width="0" d="M185.25 215.61c44.97 0 86.82.58 115.62 1.9 7.59.35 13.22.83 16.48 1.27-3.26.44-8.9.87-16.49 1.17-28.8 1.15-70.64 1.58-115.61 1.58s-86.81-.5-115.61-1.74c-7.59-.33-13.23-.79-16.49-1.22 3.26-.44 8.9-.89 16.49-1.22 28.8-1.24 70.64-1.74 115.61-1.74Z"/>
        <path fill="#2d2d32" stroke-width="0" d="M185.25 215.62c44.84 0 86.59.57 115.37 1.88 7.55.34 13.17.82 16.45 1.25-3.28.43-8.91.86-16.46 1.16-28.79 1.15-70.53 1.57-115.36 1.57s-86.58-.5-115.36-1.73c-7.55-.32-13.17-.78-16.46-1.21 3.28-.43 8.9-.88 16.46-1.21 28.79-1.23 70.53-1.73 115.36-1.73Z"/>
        <path fill="#2d2d31" stroke-width="0" d="M185.25 215.63c44.71 0 86.35.56 115.12 1.87 7.51.34 13.12.81 16.42 1.24-3.3.43-8.91.85-16.43 1.15-28.77 1.14-70.41 1.56-115.11 1.56s-86.34-.49-115.12-1.71c-7.52-.32-13.12-.77-16.42-1.19 3.3-.43 8.91-.87 16.42-1.19 28.77-1.22 70.41-1.71 115.12-1.71Z"/>
        <path fill="#2c2c30" stroke-width="0" d="M185.25 215.64c44.57 0 86.12.56 114.87 1.85 7.48.34 13.07.8 16.38 1.22-3.32.42-8.91.84-16.39 1.13-28.76 1.13-70.29 1.55-114.86 1.55s-86.11-.49-114.87-1.7c-7.48-.32-13.07-.76-16.39-1.18 3.32-.42 8.91-.86 16.39-1.18 28.76-1.21 70.3-1.7 114.87-1.7Z"/>
        <path fill="#2b2b30" stroke-width="0" d="M185.25 215.65c44.44 0 85.88.55 114.62 1.83 7.44.33 13.02.79 16.35 1.21-3.33.41-8.92.83-16.36 1.12-28.75 1.12-70.18 1.54-114.61 1.54s-85.87-.48-114.62-1.69c-7.44-.31-13.02-.75-16.36-1.16 3.33-.41 8.91-.85 16.36-1.16 28.74-1.2 70.18-1.69 114.62-1.69Z"/>
        <path fill="#2b2b2f" stroke-width="0" d="M185.25 215.66c44.31 0 85.65.55 114.37 1.82 7.4.33 12.97.78 16.32 1.19-3.35.41-8.92.82-16.33 1.1-28.73 1.12-70.06 1.53-114.36 1.53s-85.64-.48-114.37-1.67c-7.41-.31-12.97-.74-16.32-1.15 3.35-.41 8.92-.84 16.32-1.15 28.73-1.19 70.06-1.67 114.37-1.67Z"/>
        <path fill="#2a2a2e" stroke-width="0" d="M185.25 215.68c44.17 0 85.41.54 114.12 1.8 7.37.32 12.92.77 16.28 1.18-3.37.4-8.92.81-16.3 1.09-28.72 1.11-69.95 1.52-114.11 1.52s-85.4-.47-114.12-1.66c-7.37-.3-12.92-.73-16.29-1.13 3.37-.4 8.92-.83 16.29-1.13 28.71-1.18 69.95-1.66 114.12-1.66Z"/>
        <path fill="#29292e" stroke-width="0" d="M185.25 215.69c44.04 0 85.18.53 113.87 1.79 7.33.32 12.87.76 16.25 1.16-3.38.4-8.93.8-16.26 1.08-28.7 1.1-69.83 1.5-113.86 1.5s-85.17-.47-113.87-1.65c-7.33-.3-12.87-.72-16.26-1.12 3.38-.4 8.92-.82 16.26-1.12 28.7-1.18 69.83-1.65 113.87-1.65Z"/>
        <path fill="#29292d" stroke-width="0" d="M185.25 215.7c43.91 0 84.94.53 113.62 1.77 7.29.32 12.82.75 16.22 1.15-3.4.39-8.93.79-16.23 1.06-28.69 1.09-69.71 1.49-113.61 1.49s-84.93-.47-113.62-1.63c-7.29-.3-12.82-.71-16.22-1.1 3.4-.39 8.93-.81 16.22-1.1 28.69-1.17 69.72-1.63 113.62-1.63Z"/>
        <path fill="#28282c" stroke-width="0" d="M185.25 215.71c43.77 0 84.7.52 113.37 1.75 7.26.31 12.77.74 16.18 1.13-3.42.39-8.93.77-16.2 1.05-28.68 1.08-69.6 1.48-113.36 1.48s-84.7-.46-113.37-1.62c-7.26-.29-12.77-.7-16.19-1.09 3.42-.39 8.93-.8 16.19-1.09 28.67-1.16 69.6-1.62 113.37-1.62Z"/>
        <path fill="#27272c" stroke-width="0" d="M185.25 215.72c43.64 0 84.47.52 113.12 1.74 7.22.31 12.71.73 16.15 1.12-3.44.38-8.94.76-16.16 1.04-28.66 1.07-69.48 1.47-113.11 1.47s-84.46-.46-113.12-1.6c-7.22-.29-12.72-.69-16.16-1.08 3.44-.38 8.94-.79 16.16-1.08 28.66-1.15 69.48-1.6 113.12-1.6Z"/>
        <path fill="#27272b" stroke-width="0" d="M185.25 215.73c43.51 0 84.23.51 112.88 1.72 7.18.3 12.66.72 16.12 1.1-3.45.38-8.94.75-16.13 1.02-28.65 1.07-69.37 1.46-112.86 1.46s-84.23-.45-112.87-1.59c-7.18-.29-12.67-.68-16.12-1.06 3.45-.38 8.94-.78 16.12-1.06 28.64-1.14 69.37-1.59 112.87-1.59Z"/>
        <path fill="#26262b" stroke-width="0" d="M185.25 215.74c43.37 0 84 .51 112.63 1.7 7.15.3 12.61.71 16.09 1.08-3.47.37-8.94.74-16.1 1.01-28.63 1.06-69.25 1.45-112.62 1.45s-83.99-.45-112.62-1.58c-7.15-.28-12.62-.67-16.09-1.05 3.47-.37 8.94-.76 16.09-1.05 28.63-1.13 69.25-1.58 112.62-1.58Z"/>
        <path fill="#25262a" stroke-width="0" d="M185.25 215.75c43.24 0 83.76.5 112.38 1.69 7.11.29 12.56.7 16.05 1.07-3.49.37-8.95.73-16.06.99-28.62 1.05-69.13 1.44-112.37 1.44s-83.75-.45-112.37-1.56c-7.11-.28-12.57-.66-16.06-1.03 3.49-.37 8.95-.75 16.06-1.03 28.62-1.12 69.14-1.56 112.37-1.56Z"/>
        <path fill="#252529" stroke-width="0" d="M185.25 215.76c43.1 0 83.53.5 112.13 1.67 7.07.29 12.51.69 16.02 1.05-3.51.36-8.95.72-16.03.98-28.6 1.04-69.02 1.43-112.12 1.43s-83.52-.44-112.12-1.55c-7.07-.27-12.52-.66-16.02-1.02 3.51-.36 8.95-.74 16.02-1.02 28.6-1.11 69.02-1.55 112.12-1.55Z"/>
        <path fill="#242429" stroke-width="0" d="M185.25 215.77c42.97 0 83.29.49 111.88 1.66 7.04.29 12.46.68 15.99 1.04-3.52.36-8.96.71-16 .97-28.59 1.03-68.9 1.42-111.87 1.42s-83.28-.44-111.87-1.54c-7.04-.27-12.47-.65-15.99-1 3.52-.36 8.95-.73 15.99-1 28.59-1.1 68.9-1.54 111.87-1.54Z"/>
        <path fill="#242428" stroke-width="0" d="M185.25 215.78c42.84 0 83.06.49 111.63 1.64 7 .28 12.41.67 15.95 1.02-3.54.35-8.96.7-15.96.95-28.58 1.02-68.79 1.41-111.62 1.41s-83.05-.43-111.62-1.52c-7-.27-12.42-.64-15.96-.99 3.54-.35 8.96-.72 15.96-.99 28.57-1.09 68.79-1.52 111.62-1.52Z"/>
        <path fill="#232327" stroke-width="0" d="M185.25 215.79c42.7 0 82.82.48 111.38 1.62 6.96.28 12.36.66 15.92 1.01-3.56.35-8.96.69-15.93.94-28.56 1.02-68.67 1.4-111.37 1.4s-82.81-.43-111.37-1.51c-6.96-.26-12.37-.63-15.92-.97 3.56-.35 8.96-.71 15.92-.97 28.56-1.08 68.67-1.51 111.37-1.51Z"/>
        <path fill="#222327" stroke-width="0" d="M185.25 215.8c42.57 0 82.58.48 111.13 1.61 6.92.27 12.31.65 15.89.99-3.58.34-8.97.68-15.9.92-28.55 1.01-68.55 1.39-111.12 1.39s-82.58-.43-111.12-1.5c-6.93-.26-12.32-.62-15.89-.96 3.58-.34 8.96-.7 15.89-.96 28.55-1.07 68.56-1.5 111.12-1.5Z"/>
        <path fill="#222226" stroke-width="0" d="M185.25 215.81c42.44 0 82.35.47 110.88 1.59 6.89.27 12.26.64 15.85.98-3.59.33-8.97.67-15.86.91-28.53 1-68.44 1.37-110.87 1.37s-82.34-.42-110.87-1.48c-6.89-.26-12.26-.61-15.86-.94 3.59-.33 8.97-.69 15.86-.94 28.53-1.06 68.44-1.48 110.87-1.48Z"/>
        <path fill="#212125" stroke-width="0" d="M185.25 215.82c42.3 0 82.11.47 110.63 1.57 6.85.27 12.21.63 15.82.96-3.61.33-8.97.66-15.83.9-28.52.99-68.32 1.36-110.62 1.36s-82.11-.42-110.62-1.47c-6.85-.25-12.21-.6-15.82-.93 3.61-.33 8.97-.68 15.82-.93 28.52-1.05 68.32-1.47 110.62-1.47Z"/>
        <path fill="#202125" stroke-width="0" d="M185.25 215.83c42.17 0 81.88.46 110.38 1.56 6.81.26 12.16.62 15.79.95-3.63.32-8.98.65-15.8.88-28.51.98-68.21 1.35-110.37 1.35s-81.87-.42-110.37-1.46c-6.82-.25-12.16-.59-15.79-.91 3.63-.32 8.97-.67 15.79-.91 28.5-1.04 68.21-1.46 110.37-1.46Z"/>
        <path fill="#202024" stroke-width="0" d="M185.25 215.84c42.04 0 81.64.46 110.13 1.54 6.78.26 12.11.61 15.75.93-3.65.32-8.98.64-15.76.87-28.49.97-68.09 1.34-110.12 1.34s-81.64-.41-110.13-1.44c-6.78-.24-12.11-.58-15.76-.9 3.65-.32 8.98-.65 15.76-.9 28.49-1.03 68.09-1.44 110.13-1.44Z"/>
        <path fill="#1f1f23" stroke-width="0" d="M185.25 215.85c41.9 0 81.41.45 109.88 1.53 6.74.25 12.06.6 15.72.91-3.66.31-8.98.63-15.73.86-28.48.96-67.97 1.33-109.87 1.33s-81.4-.41-109.88-1.43c-6.74-.24-12.06-.57-15.73-.89 3.66-.31 8.98-.64 15.73-.89 28.48-1.02 67.98-1.43 109.88-1.43Z"/>
        <path fill="#1e1f23" stroke-width="0" d="M185.25 215.86c41.77 0 81.17.45 109.63 1.51 6.7.25 12.01.59 15.69.9-3.68.31-8.99.62-15.7.84-28.46.96-67.86 1.32-109.62 1.32s-81.17-.41-109.63-1.41c-6.71-.24-12.01-.56-15.69-.87 3.68-.31 8.99-.63 15.69-.87 28.46-1.01 67.86-1.41 109.63-1.41Z"/>
        <path fill="#1e1e22" stroke-width="0" d="M185.25 215.87c41.64 0 80.94.44 109.38 1.49 6.67.25 11.96.58 15.66.88-3.7.3-8.99.61-15.66.83-28.45.95-67.74 1.31-109.37 1.31s-80.93-.4-109.38-1.4c-6.67-.23-11.96-.55-15.66-.86 3.7-.3 8.99-.62 15.66-.86 28.45-1 67.74-1.4 109.38-1.4Z"/>
        <path fill="#1d1e21" stroke-width="0" d="M185.25 215.89c41.5 0 80.7.44 109.13 1.48 6.63.24 11.91.57 15.62.87-3.71.3-8.99.6-15.63.81-28.43.94-67.63 1.3-109.12 1.3s-80.69-.4-109.13-1.39c-6.63-.23-11.91-.54-15.63-.84 3.71-.3 8.99-.61 15.63-.84 28.43-.99 67.63-1.39 109.13-1.39Z"/>
        <path fill="#1d1d21" stroke-width="0" d="M185.25 215.9c41.37 0 80.46.43 108.88 1.46 6.59.24 11.86.56 15.59.85-3.73.29-9 .59-15.6.8-28.42.93-67.51 1.29-108.87 1.29s-80.46-.4-108.88-1.37c-6.6-.23-11.86-.54-15.59-.83 3.73-.29 9-.6 15.59-.83 28.42-.98 67.51-1.37 108.88-1.37Z"/>
        <path fill="#1c1c20" stroke-width="0" d="M185.25 215.91c41.24 0 80.23.43 108.63 1.44 6.56.23 11.81.55 15.56.84-3.75.29-9 .57-15.56.79-28.41.92-67.39 1.28-108.63 1.28s-80.22-.39-108.63-1.36c-6.56-.22-11.81-.53-15.56-.81 3.75-.29 9-.59 15.56-.81 28.4-.97 67.4-1.36 108.63-1.36Z"/>
        <path fill="#1b1c1f" stroke-width="0" d="M185.25 215.92c41.1 0 79.99.42 108.38 1.43 6.52.23 11.76.54 15.52.82-3.77.28-9 .56-15.53.77-28.39.91-67.28 1.27-108.38 1.27s-79.99-.39-108.38-1.35c-6.52-.22-11.76-.52-15.53-.8 3.77-.28 9-.58 15.53-.8 28.39-.96 67.28-1.35 108.38-1.35Z"/>
        <path fill="#1b1b1f" stroke-width="0" d="M185.25 215.93c40.97 0 79.76.42 108.13 1.41 6.48.23 11.71.53 15.49.81-3.78.28-9.01.55-15.5.76-28.38.9-67.16 1.25-108.13 1.25s-79.75-.39-108.13-1.33c-6.49-.22-11.71-.51-15.49-.78 3.78-.28 9.01-.57 15.49-.78 28.38-.95 67.16-1.33 108.13-1.33Z"/>
        <path fill="#1a1b1e" stroke-width="0" d="M185.25 215.94c40.83 0 79.52.41 107.88 1.39 6.45.22 11.66.52 15.46.79-3.8.27-9.01.54-15.46.75-28.36.89-67.05 1.24-107.88 1.24s-79.52-.38-107.88-1.32c-6.45-.21-11.66-.5-15.46-.77 3.8-.27 9.01-.56 15.46-.77 28.36-.94 67.05-1.32 107.88-1.32Z"/>
        <path fill="#1a1a1d" stroke-width="0" d="M185.25 215.95c40.7 0 79.29.41 107.63 1.38 6.41.22 11.6.51 15.42.78-3.82.27-9.01.53-15.43.73-28.35.88-66.93 1.23-107.63 1.23s-79.28-.38-107.63-1.31c-6.41-.21-11.61-.49-15.43-.75 3.82-.27 9.01-.54 15.43-.75 28.35-.93 66.93-1.31 107.63-1.31Z"/>
        <path fill="#19191d" stroke-width="0" d="M185.25 215.96c40.57 0 79.05.41 107.38 1.36 6.37.21 11.55.5 15.39.76-3.84.26-9.02.52-15.4.72-28.34.87-66.81 1.22-107.38 1.22s-79.05-.38-107.38-1.29c-6.38-.21-11.56-.48-15.39-.74 3.84-.26 9.02-.53 15.39-.74 28.33-.91 66.82-1.29 107.38-1.29Z"/>
        <path fill="#18191c" stroke-width="0" d="M185.25 215.97c40.43 0 78.82.4 107.13 1.35 6.34.21 11.5.49 15.36.75-3.85.25-9.02.51-15.36.7-28.32.86-66.7 1.21-107.13 1.21s-78.81-.38-107.13-1.28c-6.34-.2-11.51-.47-15.36-.72 3.85-.25 9.02-.52 15.36-.72 28.32-.9 66.7-1.28 107.13-1.28Z"/>
        <path fill="#18181b" stroke-width="0" d="M185.25 215.98c40.3 0 78.58.4 106.88 1.33 6.3.21 11.45.48 15.32.73-3.87.25-9.03.5-15.33.69-28.31.85-66.58 1.2-106.88 1.2s-78.58-.37-106.88-1.26c-6.3-.2-11.46-.46-15.33-.71 3.87-.25 9.02-.51 15.33-.71 28.31-.89 66.58-1.26 106.88-1.26Z"/>
        <path fill="#17181b" stroke-width="0" d="M185.25 215.99c40.17 0 78.34.4 106.63 1.31 6.26.2 11.4.47 15.29.71-3.89.24-9.03.49-15.3.68-28.29.84-66.47 1.19-106.63 1.19s-78.34-.37-106.63-1.25c-6.27-.2-11.41-.45-15.29-.7 3.89-.24 9.03-.5 15.29-.7 28.29-.88 66.47-1.25 106.63-1.25Z"/>
        <path fill="#16171a" stroke-width="0" d="M185.25 216c40.03 0 78.11.39 106.39 1.3 6.23.2 11.35.46 15.26.7-3.91.24-9.03.48-15.26.66-28.28.83-66.35 1.18-106.38 1.18s-78.11-.37-106.38-1.24c-6.23-.19-11.35-.44-15.26-.68 3.91-.24 9.03-.49 15.26-.68 28.28-.87 66.35-1.24 106.38-1.24Z"/>
        <path fill="#161619" stroke-width="0" d="M185.25 216.01c39.9 0 77.87.39 106.14 1.28 6.19.2 11.3.45 15.22.68-3.92.23-9.04.47-15.23.65-28.26.83-66.23 1.17-106.13 1.17s-77.87-.36-106.13-1.22c-6.19-.19-11.3-.43-15.23-.67 3.92-.23 9.03-.48 15.23-.67 28.26-.86 66.24-1.22 106.13-1.22Z"/>
        <path fill="#151619" stroke-width="0" d="M185.25 216.02c39.77 0 77.64.38 105.89 1.26 6.15.19 11.25.44 15.19.67-3.94.23-9.04.46-15.2.64-28.25.82-66.12 1.16-105.88 1.16s-77.63-.36-105.88-1.21c-6.16-.18-11.25-.42-15.19-.65 3.94-.23 9.04-.47 15.19-.65 28.25-.85 66.12-1.21 105.88-1.21Z"/>
        <path fill="#151518" stroke-width="0" d="M185.25 216.03c39.63 0 77.4.38 105.64 1.25 6.12.19 11.2.43 15.16.65-3.96.22-9.04.45-15.16.62-28.24.81-66 1.15-105.63 1.15s-77.4-.36-105.63-1.2c-6.12-.18-11.2-.41-15.16-.64 3.96-.22 9.04-.46 15.16-.64 28.24-.84 66-1.2 105.63-1.2Z"/>
        <path fill="#141517" stroke-width="0" d="M185.25 216.04c39.5 0 77.17.38 105.39 1.23 6.08.18 11.15.42 15.13.64-3.97.22-9.05.44-15.13.61-28.22.8-65.89 1.13-105.38 1.13s-77.16-.36-105.38-1.18c-6.08-.18-11.15-.41-15.13-.62 3.97-.22 9.05-.44 15.13-.62 28.22-.83 65.89-1.18 105.38-1.18Z"/>
        <path fill="#131417" stroke-width="0" d="M185.25 216.05c39.37 0 76.93.37 105.14 1.22 6.04.18 11.1.41 15.09.62-3.99.21-9.05.43-15.1.59-28.21.79-65.77 1.12-105.13 1.12s-76.93-.36-105.14-1.17c-6.05-.17-11.1-.4-15.09-.61 3.99-.21 9.05-.43 15.09-.61 28.21-.81 65.77-1.17 105.14-1.17Z"/>
        <path fill="#131316" stroke-width="0" d="M185.25 216.06c39.23 0 76.69.37 104.89 1.2 6.01.18 11.05.4 15.06.61-4.01.21-9.05.41-15.06.58-28.19.78-65.65 1.11-104.88 1.11s-76.69-.35-104.89-1.16c-6.01-.17-11.05-.39-15.06-.59 4.01-.21 9.05-.42 15.06-.59 28.19-.8 65.66-1.16 104.89-1.16Z"/>
        <path fill="#121315" stroke-width="0" d="M185.25 216.07c39.1 0 76.46.37 104.64 1.18 5.97.17 11 .39 15.03.59-4.03.2-9.06.4-15.03.57-28.18.77-65.54 1.1-104.63 1.1s-76.46-.35-104.64-1.14c-5.97-.17-11-.38-15.03-.58 4.03-.2 9.06-.41 15.03-.58 28.18-.79 65.54-1.14 104.64-1.14Z"/>
        <path fill="#111214" stroke-width="0" d="M185.25 216.09c38.96 0 76.22.36 104.39 1.17 5.93.17 10.95.38 14.99.58-4.04.2-9.06.38-15 .55-28.17.7-65.42 1.09-104.39 1.09s-76.22-.35-104.39-1.13c-5.93-.16-10.95-.37-14.99-.56 4.04-.2 9.06-.4 14.99-.56 28.16-.78 65.42-1.13 104.39-1.13Z"/>
        <path fill="#111114" stroke-width="0" d="M185.25 216.1c38.83 0 75.99.36 104.14 1.15 5.9.17 10.9.37 14.96.56-4.06.19-9.06.37-14.96.54-28.15.69-65.31 1.08-104.14 1.08s-75.99-.35-104.14-1.12c-5.9-.16-10.9-.36-14.96-.55 4.06-.19 9.06-.39 14.96-.55 28.15-.77 65.31-1.12 104.14-1.12Z"/>
        <path fill="#101113" stroke-width="0" d="M185.25 216.11c38.7 0 75.75.36 103.89 1.13 5.86.16 10.85.36 14.93.54-4.08.19-9.07.36-14.93.52-28.14.69-65.19 1.07-103.89 1.07s-75.75-.4-103.89-1.1c-5.86-.17-10.85-.35-14.93-.53 4.08-.19 9.07-.37 14.93-.53 28.14-.7 65.19-1.1 103.89-1.1Z"/>
        <path fill="#0f1012" stroke-width="0" d="M185.25 216.12c38.56 0 75.52.36 103.64 1.12 5.82.16 10.8.35 14.89.53-4.1.18-9.07.35-14.9.51-28.12.68-65.07 1.06-103.64 1.06s-75.51-.4-103.64-1.09c-5.82-.16-10.8-.34-14.9-.52 4.1-.18 9.07-.36 14.9-.52 28.12-.69 65.08-1.09 103.64-1.09Z"/>
        <path fill="#0e0f11" stroke-width="0" d="M185.25 216.13c38.43 0 75.28.41 103.39 1.1 5.79.16 10.75.34 14.86.51-4.11.17-9.07.34-14.86.5-28.11.67-64.96 1.05-103.39 1.05s-75.28-.39-103.39-1.07c-5.79-.16-10.75-.33-14.86-.51 4.11-.17 9.07-.35 14.86-.51 28.11-.68 64.96-1.07 103.39-1.07Z"/>
        <path fill="#0e0e10" stroke-width="0" d="M185.25 216.14c38.3 0 75.04.4 103.14 1.09 5.75.16 10.7.33 14.83.5-4.13.17-9.08.33-14.83.48-28.1.67-64.84 1.04-103.14 1.04s-75.04-.38-103.14-1.06c-5.75-.16-10.7-.32-14.83-.49 4.13-.17 9.08-.33 14.83-.49 28.1-.68 64.84-1.06 103.14-1.06Z"/>
        <path fill="#0d0e10" stroke-width="0" d="M185.25 216.15c38.16 0 74.81.39 102.89 1.07 5.71.16 10.65.32 14.79.48-4.15.16-9.08.32-14.8.47-28.08.66-64.73 1.03-102.89 1.03s-74.81-.38-102.89-1.05c-5.71-.15-10.65-.31-14.8-.48 4.15-.16 9.08-.32 14.8-.48 28.08-.67 64.73-1.05 102.89-1.05Z"/>
        <path fill="#0c0d0f" stroke-width="0" d="M185.25 216.16c38.03 0 74.57.38 102.64 1.05 5.68.15 10.6.31 14.76.47-4.17.16-9.08.31-14.76.46-28.07.65-64.61 1.01-102.64 1.01s-74.57-.37-102.64-1.03c-5.68-.15-10.6-.3-14.76-.46 4.17-.16 9.08-.31 14.76-.46 28.07-.66 64.61-1.03 102.64-1.03Z"/>
        <path fill="#0c0c0e" stroke-width="0" d="M185.25 216.17c37.9 0 74.34.38 102.39 1.04 5.64.15 10.55.3 14.73.45-4.18.15-9.09.3-14.73.44-28.05.65-64.49 1-102.39 1s-74.34-.37-102.39-1.02c-5.64-.14-10.55-.29-14.73-.45 4.18-.15 9.09-.3 14.73-.45 28.05-.65 64.49-1.02 102.39-1.02Z"/>
        <path fill="#0b0c0d" stroke-width="0" d="M185.25 216.18c37.76 0 74.1.37 102.14 1.02 5.6.14 10.49.29 14.7.44-4.2.15-9.09.29-14.7.43-28.04.64-64.38.99-102.14.99s-74.1-.36-102.14-1.01c-5.6-.14-10.5-.28-14.7-.43 4.2-.15 9.09-.29 14.7-.43 28.04-.64 64.38-1.01 102.14-1.01Z"/>
        <path fill="#0a0b0c" stroke-width="0" d="M185.25 216.19c37.63 0 73.87.36 101.89 1 5.57.14 10.44.28 14.66.42-4.22.14-9.1.28-14.66.41-28.02.63-64.26.98-101.89.98s-73.87-.36-101.89-.99c-5.57-.13-10.44-.28-14.66-.42 4.22-.14 9.1-.28 14.66-.42 28.02-.64 64.26-.99 101.89-.99Z"/>
        <path fill="#090a0b" stroke-width="0" d="M185.25 216.2c37.5 0 73.63.36 101.64.99 5.53.13 10.39.27 14.63.41-4.24.14-9.1.27-14.63.4-28.01.63-64.15.97-101.64.97s-73.63-.35-101.64-.98c-5.53-.13-10.39-.27-14.63-.4 4.24-.14 9.1-.27 14.63-.4 28.01-.63 64.15-.98 101.64-.98Z"/>
        <path fill="#08090a" stroke-width="0" d="M185.25 216.21c37.36 0 73.4.35 101.39.97 5.49.13 10.34.26 14.6.39-4.25.13-9.1.26-14.6.39-28 .62-64.03.96-101.39.96s-73.4-.34-101.39-.97c-5.49-.13-10.34-.26-14.6-.39 4.25-.13 9.1-.26 14.6-.39 28-.62 64.03-.97 101.39-.97Z"/>
        <path fill="#070808" stroke-width="0" d="M185.25 216.22c37.23 0 73.16.34 101.14.96 5.46.12 10.29.25 14.56.37-4.27.13-9.11.25-14.56.37-27.98.61-63.91.95-101.14.95s-73.16-.34-101.14-.95c-5.46-.12-10.29-.25-14.56-.37 4.27-.13 9.11-.25 14.56-.37 27.98-.61 63.91-.95 101.14-.95Z"/>
        <path d="M185.25 218.83c-37.09 0-72.93-.33-100.89-.94-5.42-.12-10.24-.24-14.53-.36 4.29-.12 9.11-.24 14.53-.36 27.97-.61 63.8-.94 100.89-.94s72.93.33 100.89.94c5.42.12 10.24.24 14.53.36-4.29.12-9.11.24-14.53.36-27.97.61-63.8.94-100.89.94Z" class="cls-285"/>
      </g>
      <g id="Travel_bag">
        <path d="M92.43 66.11c-13.38 0-24.26-14.83-24.26-33.06S79.05 0 92.43 0s24.26 14.83 24.26 33.06-10.88 33.06-24.26 33.06Zm0-58.17c-8.84 0-16.32 11.5-16.32 25.11s7.47 25.11 16.32 25.11 16.32-11.5 16.32-25.11-7.47-25.11-16.32-25.11Zm66.46 205.35H25.98c-6.37 0-11.19-5.75-10.07-12.02l8.18-46.08h136.69l8.18 46.08c1.11 6.27-3.71 12.02-10.07 12.02Z" class="cls-129"/>
        <path d="M160.78 90.42v113.11c0 8.74-6.79 15.89-15.1 15.89H39.19c-8.3 0-15.1-7.15-15.1-15.89V90.42c0-17.75 7.76-33.67 19.88-44.21 3.5-3.04 7.36-5.64 11.5-7.69 7.03-3.5 14.87-5.46 23.12-5.46h27.68c8.26 0 16.09 1.96 23.12 5.46 4.14 2.05 8 4.65 11.5 7.69 12.13 10.54 19.88 26.46 19.88 44.21Z" class="cls-33"/>
        <path fill="#060606" stroke-width="0" d="M160.78 169.9v33.62c0 8.74-6.79 15.89-15.1 15.89H39.19c-8.3 0-15.1-7.15-15.1-15.89v-10.66c37.13-2.51 103.29-8.79 136.69-22.96Z" opacity=".15"/>
        <path fill="#060606" stroke-width="0" d="M160.78 90.42v113.1c0 8.74-6.79 15.89-15.1 15.89H39.19c-5.9 0-11.03-3.61-13.51-8.83 2.54 2.05 5.71 3.27 9.14 3.27h106.49c8.3 0 15.1-7.15 15.1-15.89V84.86c0-12.51-3.85-24.11-10.37-33.56 9.14 10.27 14.74 24.03 14.74 39.12Z" opacity=".06"/>
        <path d="M79.4 150.32v33.56c0 8.92-7.23 16.14-16.14 16.14H51.59c-8.92 0-16.14-7.22-16.14-16.14v-33.56H79.4Zm70.02 0v33.56c0 8.92-7.23 16.14-16.14 16.14h-11.66c-8.92 0-16.14-7.22-16.14-16.14v-33.56h43.95Zm6.56-99.62v10.83c0 16.9-8.72 31.86-21.9 40.6a48.359 48.359 0 0 1-13.28 6.17 48.063 48.063 0 0 1-13.49 1.91H77.54c-26.77 0-48.67-21.91-48.67-48.68V50.7c0-10.84 8.87-19.71 19.71-19.71h87.68c10.85 0 19.71 8.88 19.71 19.71Z" class="cls-287"/>
        <path d="M155.98 56.36v5.16c0 16.9-8.72 31.86-21.9 40.6a48.359 48.359 0 0 1-13.28 6.17 48.063 48.063 0 0 1-13.49 1.91H77.54c-26.77 0-48.67-21.91-48.67-48.68v-5.16c0 26.77 21.9 48.68 48.67 48.68h29.77a48.203 48.203 0 0 0 26.77-8.08c13.17-8.73 21.9-23.69 21.9-40.6Z" class="cls-11"/>
        <path fill="none" stroke="#f2f1f1" stroke-dasharray="0 0 2.02 3.53" stroke-miterlimit="10" stroke-width=".5" d="M77.55 100.67c-21.58 0-39.13-17.56-39.13-39.14V50.7c0-5.61 4.57-10.18 10.18-10.18h87.68c5.61 0 10.18 4.57 10.18 10.18v10.83c0 13.12-6.59 25.33-17.63 32.65a38.795 38.795 0 0 1-21.51 6.5H77.55Z"/>
        <path d="M149.42 151.83v6.56c-2.79 8.93-11.13 15.41-20.97 15.41-12.13 0-21.97-9.84-21.97-21.98h42.94Z" class="cls-7"/>
        <path d="M149.42 150.32c0 12.14-9.84 21.98-21.97 21.98s-21.97-9.84-21.97-21.98h43.94Z" class="cls-258"/>
        <path d="M130.29 161.31c0 1.57-1.27 2.85-2.85 2.85s-2.85-1.27-2.85-2.85 1.27-2.85 2.85-2.85 2.85 1.27 2.85 2.85Z" class="cls-33"/>
        <path fill="#060606" stroke-width="0" d="M79.4 151.33v6.56c-2.79 8.93-11.13 15.41-20.97 15.41-12.13 0-21.97-9.84-21.97-21.98H79.4Z" opacity=".11"/>
        <path d="M79.39 150.32c0 12.14-9.84 21.98-21.97 21.98s-21.97-9.84-21.97-21.98h43.94Z" class="cls-258"/>
        <path d="M60.27 161.31c0 1.57-1.27 2.85-2.85 2.85s-2.85-1.27-2.85-2.85 1.27-2.85 2.85-2.85 2.85 1.27 2.85 2.85Z" class="cls-33"/>
        <path d="M121.29 30.98h13.28v188.43h-13.28z" class="cls-129"/>
        <path d="M128.79 102.64h-1.73c-3.57 0-6.47-2.9-6.47-6.47v-3.69c0-3.57 2.9-6.47 6.47-6.47h1.73c3.57 0 6.47 2.9 6.47 6.47v3.69c0 3.57-2.9 6.47-6.47 6.47Zm-1.73-13.46c-1.82 0-3.3 1.48-3.3 3.3v3.69c0 1.82 1.48 3.3 3.3 3.3h1.73c1.82 0 3.3-1.48 3.3-3.3v-3.69c0-1.82-1.48-3.3-3.3-3.3h-1.73Z" class="cls-269"/>
        <path d="M50.3 30.98h13.28v188.43H50.3z" class="cls-129"/>
        <path d="M57.8 102.64h-1.73c-3.57 0-6.47-2.9-6.47-6.47v-3.69c0-3.57 2.9-6.47 6.47-6.47h1.73c3.57 0 6.47 2.9 6.47 6.47v3.69c0 3.57-2.9 6.47-6.47 6.47Zm-1.73-13.46c-1.82 0-3.3 1.48-3.3 3.3v3.69c0 1.82 1.48 3.3 3.3 3.3h1.73c1.82 0 3.3-1.48 3.3-3.3v-3.69c0-1.82-1.48-3.3-3.3-3.3h-1.73Z" class="cls-269"/>
        <rect width="14.5" height="18.12" x="85.18" y="158.17" class="cls-64" rx="3.58" ry="3.58"/>
        <path d="M116.23 131.48H75.85c-.71 0-10.29-1.47-10.12-2.5l3.01-3.01c.12-.73 7.06-.5 7.56-.5h39.47c.51 0 .95.51 1.07 1.25l2.49 2.26c0 2.5-3.01 2.5-3.1 2.5Z" class="cls-4"/>
        <path d="M116.82 129.98H66.74c-.89 0-1.54-1-1.32-2.03l.56-2.74c.15-.73.7-1.25 1.32-1.25h48.96c.63 0 1.17.51 1.32 1.25l.56 2.74c.21 1.03-.44 2.03-1.32 2.03Z" class="cls-129"/>
      </g>
      <g id="bag">
        <path d="M234.91 127.47H197.7c-5.91 0-10.72-4.81-10.72-10.72V93.4c0-5.91 4.81-10.72 10.72-10.72h37.21c5.91 0 10.72 4.81 10.72 10.72v23.35c0 5.91-4.81 10.72-10.72 10.72ZM197.7 89.11c-2.36 0-4.29 1.92-4.29 4.29v23.35c0 2.36 1.92 4.29 4.29 4.29h37.21c2.36 0 4.28-1.92 4.28-4.29V93.4c0-2.36-1.92-4.29-4.28-4.29H197.7Z" class="cls-287"/>
        <path d="M244.64 88.89a10.7 10.7 0 0 0-7.43-3H200c-5.91 0-10.73 4.81-10.73 10.73v23.36c0 1.61.36 3.13.99 4.5 1.93 1.85 4.55 3 7.43 3h37.21c5.91 0 10.73-4.81 10.73-10.72V93.4c0-1.61-.36-3.14-.99-4.51Zm-51.23 27.86V93.39c0-2.36 1.92-4.29 4.29-4.29h37.21c2.16 0 3.96 1.6 4.24 3.69.03.19.05.4.05.6v23.36c0 2.35-1.92 4.28-4.29 4.28H197.7c-.7 0-1.36-.17-1.94-.47a4.286 4.286 0 0 1-2.35-3.81Z" class="cls-158" opacity=".2"/>
        <path d="M250.73 100.91v5.1H234.1v-5.1c0-1.01.82-1.83 1.83-1.83h12.97c1.01 0 1.83.82 1.83 1.83Z" class="cls-129"/>
        <path d="M250.73 100.91v5.1H234.1v-1.38h15.71v-5.1c0-.07 0-.15-.02-.22.56.31.94.91.94 1.6Z" class="cls-11"/>
        <path d="M198.51 100.91v5.1h-16.63v-5.1c0-1.01.82-1.83 1.83-1.83h12.97c1.01 0 1.83.82 1.83 1.83Z" class="cls-129"/>
        <path d="M198.51 100.91v5.1h-16.63v-1.38h15.71v-5.1c0-.07 0-.15-.02-.22.56.31.94.91.94 1.6Z" class="cls-4"/>
        <rect width="183.42" height="115.09" x="124.6" y="106.01" fill="#783f30" stroke-width="0" rx="11.37" ry="11.37"/>
        <path d="M135.97 106.01v4.93c0 3.56-2.88 6.44-6.44 6.44h-4.93c0-6.28 5.09-11.37 11.37-11.37Z" class="cls-269"/>
        <path d="M135.97 216.17v4.93c-6.28 0-11.37-5.09-11.37-11.37h4.93c3.56 0 6.44 2.88 6.44 6.44Zm172.04-6.44c0 6.28-5.09 11.37-11.37 11.37v-4.93c0-3.56 2.88-6.44 6.44-6.44h4.93Z" class="cls-272"/>
        <path d="M154.57 106.01h13.19V221.1h-13.19zm123.47 115.08h-13.19V106h13.19z" class="cls-129"/>
        <path d="M308.01 117.38v92.35c0 6.28-5.09 11.37-11.37 11.37H135.96c-6.28 0-11.37-5.09-11.37-11.37v-2.64c.7.14 1.43.21 2.17.21h160.68c6.28 0 11.37-5.09 11.37-11.37v-89.71c5.24 1.01 9.2 5.62 9.2 11.16Z" class="cls-4"/>
        <path d="M308.01 117.38h-4.93c-3.56 0-6.44-2.88-6.44-6.44v-4.93c6.28 0 11.37 5.09 11.37 11.37Z" class="cls-272"/>
      </g>
      <g id="Notebook">
        <path fill="#e6e6e6" stroke-width="0" d="M354.27 214.13h-145.8c.19 1.86.81 3.53 1.73 4.87h142.34c.92-1.34 1.54-3.02 1.73-4.87"/>
        <path d="M210.2 219c1.32 1.93 3.24 3.15 5.4 3.15h131.55c2.15 0 4.08-1.22 5.4-3.15H210.21Zm50.62-4.87h41.1v2.44h-41.1z" class="cls-249"/>
        <path d="M334.84 149.55H228.73c-3.84 0-6.96 3.11-6.96 6.96v57.63h120.02v-57.63c0-3.84-3.11-6.96-6.96-6.96" class="cls-158"/>
        <path fill="#86909b" stroke-width="0" d="M225.1 210.81v-54.3c0-2 1.63-3.63 3.63-3.63h106.11c2 0 3.63 1.63 3.63 3.63v54.3H225.1Z"/>
        <path fill="#212121" stroke-width="0" d="M341.8 156.5v57.63H221.78v-6.74h113.9V149.6c3.45.41 6.13 3.34 6.13 6.9Z" opacity=".1"/>
      </g>
      <path fill="#b77299" stroke-width="0" d="M203.48 176.1h-18c-5.19 0-9.41-4.22-9.41-9.41v-9.79c0-5.19 4.22-9.41 9.41-9.41h18c5.19 0 9.41 4.22 9.41 9.41v9.79c0 5.19-4.22 9.41-9.41 9.41Zm-18-24c-2.65 0-4.8 2.15-4.8 4.8v9.79c0 2.65 2.15 4.8 4.8 4.8h18c2.65 0 4.8-2.15 4.8-4.8v-9.79c0-2.65-2.15-4.8-4.8-4.8h-18Z"/>
      <g class="cls-292">
        <path d="M209.33 149.55a9.31 9.31 0 0 1 2.05 5.85v9.79c0 5.19-4.22 9.41-9.41 9.41h-18c-2.21 0-4.25-.77-5.86-2.05a9.372 9.372 0 0 0 7.36 3.56h18c5.18 0 9.41-4.22 9.41-9.41v-9.79c0-2.98-1.39-5.64-3.56-7.35Zm-7.35 1.05h-18c-2.65 0-4.8 2.15-4.8 4.8v9.79c0 1.71.9 3.21 2.24 4.06-.47-.74-.74-1.62-.74-2.56v-9.79c0-2.65 2.15-4.8 4.8-4.8h18c.94 0 1.82.27 2.56.74a4.785 4.785 0 0 0-4.06-2.24Z" class="cls-285"/>
      </g>
      <path fill="#cf74a3" stroke-width="0" d="M229.32 223.51h-70.63c-8.3 0-14.29-8.86-12.03-17.77l10.06-39.65h74.57l10.06 39.65c2.26 8.91-3.73 17.77-12.03 17.77Z"/>
      <path d="M229.31 223.51h-70.62c-5.6 0-10.15-4.04-11.82-9.41 2.07 1.76 4.67 2.83 7.54 2.83h70.62c8.3 0 14.3-8.85 12.04-17.77l-8.39-33.08h2.6l10.06 39.65c2.26 8.92-3.74 17.77-12.04 17.77Z" class="cls-7"/>
      <path fill="#212121" stroke-width="0" d="M223.41 200.17h-57.86c-4.04 0-7.35-4.32-7.35-9.6l-5.04-17.32c0-4.6 3.76-8.37 8.37-8.37h65.89c4.6 0 8.37 3.76 8.37 8.37l-5.04 17.32c0 5.28-3.31 9.6-7.35 9.6Z" opacity=".2"/>
      <path fill="#d080aa" stroke-width="0" d="m237.37 170.91-5.23 17.99c0 5.49-3.43 9.97-7.63 9.97h-60.08c-2.24 0-4.27-1.28-5.66-3.32-1.22-1.77-1.96-4.1-1.96-6.65l-5.23-17.99c0-4.77 3.91-8.68 8.68-8.68h68.42c3.91 0 7.23 2.61 8.32 6.18.24.79.37 1.64.37 2.51Z"/>
      <path d="m237.37 170.91-5.23 17.99c0 5.49-3.43 9.97-7.63 9.97h-60.08c-2.24 0-4.27-1.28-5.66-3.32-.09-.25-.16-.51-.24-.77 1.36 1.68 3.2 2.72 5.21 2.72h60.08c4.2 0 7.63-4.49 7.63-9.97l5.23-17.99c0-.6-.06-1.19-.18-1.76.18.2.35.41.51.62.24.79.37 1.64.37 2.51Z" class="cls-7"/>
      <rect width="4.71" height="6.43" x="192.72" y="196.51" fill="#e6af48" stroke-width="0" rx=".66" ry=".66"/>
      <g id="Camera">
        <path fill="#bc6862" stroke-width="0" d="M117.81 221.43H59.74c-.91 0-1.65-.74-1.65-1.65v-35.07c0-.93.76-1.69 1.69-1.69h57.99c.93 0 1.69.76 1.69 1.69v35.07c0 .91-.74 1.65-1.65 1.65"/>
        <path d="M58.09 191.49h61.37v21.48H58.09z" class="cls-269"/>
        <path d="M70.98 183.02a.824.824 0 0 0-.7-1.25h-6.65c-.45 0-.82.37-.82.82 0 .16.05.3.12.43h8.05Zm46.73 0c.03-.1.05-.21.05-.33v-.99c0-.64-.53-1.17-1.17-1.17h-5.95c-.64 0-1.17.53-1.17 1.17v.99c0 .11.02.22.05.33h8.2Z" class="cls-129"/>
        <path fill="#965550" stroke-width="0" d="M58.09 219.78c0 .91.74 1.65 1.65 1.65h58.07c.91 0 1.65-.74 1.65-1.65v-1.02H58.09v1.02Zm61.37-35.07c0-.93-.76-1.69-1.69-1.69H59.78c-.93 0-1.69.76-1.69 1.69v.47h61.37v-.47Z"/>
        <path d="M117.1 190.6h-5.96c-.64 0-1.17-.53-1.17-1.17v-2.19c0-.64.53-1.17 1.17-1.17h5.96c.64 0 1.17.53 1.17 1.17v2.19c0 .64-.53 1.17-1.17 1.17" class="cls-269"/>
        <g opacity=".1">
          <path d="M117.77 183.02c-11.13 16.65-32.7 28.48-58.84 38.2.24.14.52.21.81.21h58.07c.91 0 1.65-.74 1.65-1.65v-35.07c0-.93-.76-1.69-1.69-1.69" class="cls-285"/>
          <path fill="none" stroke-width="0" d="M58.93 183.02h60.53v38.41H58.93z"/>
        </g>
        <path fill="#acd0bf" stroke-width="0" d="M63.41 187.16c0 .61-.49 1.1-1.1 1.1s-1.1-.49-1.1-1.1.49-1.1 1.1-1.1 1.1.49 1.1 1.1"/>
        <path fill="#52312e" stroke-width="0" d="M102.01 202.23c0 7.31-5.93 13.24-13.24 13.24s-13.24-5.93-13.24-13.24 5.93-13.24 13.24-13.24 13.24 5.93 13.24 13.24"/>
        <path fill="#98cbe2" stroke-width="0" d="M100.66 202.23c0 6.56-5.32 11.88-11.88 11.88s-11.88-5.32-11.88-11.88 5.32-11.88 11.88-11.88 11.88 5.32 11.88 11.88"/>
        <path fill="#b8daea" stroke-width="0" d="M97.81 202.23c0 4.99-4.05 9.04-9.04 9.04s-9.04-4.05-9.04-9.04 4.05-9.04 9.04-9.04 9.04 4.05 9.04 9.04"/>
        <path fill="#82bfdc" stroke-width="0" d="M92.67 202.23c0 2.15-1.75 3.9-3.9 3.9s-3.9-1.75-3.9-3.9 1.75-3.9 3.9-3.9 3.9 1.75 3.9 3.9"/>
        <path d="M87.35 200.65a.96.96 0 1 1-1.92 0 .96.96 0 0 1 1.92 0m-3.16-3.71c0 .98-.8 1.78-1.78 1.78s-1.78-.8-1.78-1.78.8-1.78 1.78-1.78 1.78.8 1.78 1.78" class="cls-266"/>
      </g>
      <g id="Bottle">
        <path d="M45.81 154.41v61.58c0 2.21-1.49 4.07-3.52 4.63H22.76c-2.66 0-3.44-2.26-3.44-4.92v-61.58c0-1.62.62-3.18 1.71-4.38l4.2-5.93v-8.55h13.28v8.73l5.58 6.03a6.396 6.396 0 0 1 1.71 4.38Z" class="cls-285" opacity=".3"/>
        <path fill="#e6e6e6" stroke-width="0" d="M42.3 220.63c-.11.03-.21.06-.32.08l-.14.03c-.1.02-.21.04-.31.05-.03 0-.06.01-.09 0-.15.02-.29.03-.44.03H20.47c-2.66 0-4.82-2.16-4.82-4.82v-61.58c0-1.62.62-3.18 1.71-4.38l5.58-6.03v-8.73h2.3v8.55l-4.2 5.93a6.443 6.443 0 0 0-1.71 4.38v61.58c0 2.66.78 4.92 3.44 4.92H42.3Z" opacity=".2"/>
        <path d="M45.86 156.85V216c0 2.66-2.16 4.82-4.82 4.82H20.48c-2.66 0-4.82-2.16-4.82-4.82v-58.83c1.05.35 2.02.73 4.11.73 3.91 0 3.91-1.32 7.82-1.32s3.91 1.32 7.82 1.32 3.91-1.32 7.82-1.32c1.15 0 1.96.11 2.63.28Z" class="cls-244"/>
        <path d="M45.86 156.85V216c0 2.66-2.16 4.82-4.82 4.82H20.48c-2.44 0-4.46-1.82-4.77-4.18.14.02.29.03.44.03h19.53a4.802 4.802 0 0 0 3.52-4.63v-61.58c0-1.62-.61-3.18-1.71-4.38l-5.58-6.03v-4.76h6.62v8.73l5.58 6.03a6.396 6.396 0 0 1 1.71 4.38v2.42s.03 0 .05.01Z" class="cls-285" opacity=".21"/>
        <path d="M26.1 126.94h9.26c2.28 0 4.13 1.85 4.13 4.13v4.44H21.96v-4.44c0-2.28 1.85-4.13 4.13-4.13Z" class="cls-64"/>
        <path d="M39.49 131.07v4.44H21.96v-.99h16.86v-4.44c0-.64-.15-1.24-.4-1.77.66.73 1.07 1.7 1.07 2.77Z" class="cls-4"/>
      </g>
      <g id="Mobile_notificaiton">
        <rect width="31.17" height="58.9" x="128.01" y="164.56" class="cls-285" rx="3.48" ry="3.48"/>
        <rect width="56.83" height="29.39" x="115.18" y="179.4" class="cls-13" rx="2.68" ry="2.68" transform="rotate(90 143.6 194.1)"/>
        <path d="M148.58 167.95h-9.97c-.58 0-1.09-.31-1.3-.78l-.67-1.5h13.91l-.67 1.5c-.21.47-.73.78-1.3.78ZM127.94 174c-.28 0-.51-.23-.51-.51v-2.75c0-.28.23-.51.51-.51s.51.23.51.51v2.75c0 .28-.23.51-.51.51Zm0 4.34c-.28 0-.51-.23-.51-.51v-2.75c0-.28.23-.51.51-.51s.51.23.51.51v2.75c0 .28-.23.51-.51.51Zm31.21-2.19a.49.49 0 0 1-.49-.49v-4.56a.49.49 0 0 1 .98 0v4.56c0 .27-.22.49-.49.49Z" class="cls-285"/>
        <path d="M132.9 181.04h7.64v7.64h-7.64zm10.38 1.4h11.01v.72h-11.01zm.39 2.06h10.24v.69h-10.24zm.84 2.02h8.56v.68h-8.56z" class="cls-258"/>
        <path d="M132.37 191.76h22.45v.18h-22.45z" class="cls-287"/>
        <path d="M147.91 221.38h-8.63c-.1 0-.18-.08-.18-.18s.08-.18.18-.18h8.63c.1 0 .18.08.18.18s-.08.18-.18.18Z" class="cls-249"/>
        <path d="M151.61 195.04h-5.02c-.63 0-1.15.52-1.15 1.15v3.94c0 .63.52 1.15 1.15 1.15h1.46l.41.71.64 1.11.64-1.11.41-.71h1.46c.63 0 1.15-.52 1.15-1.15v-3.94c0-.63-.52-1.15-1.15-1.15Zm-1.06 3.35-.1.11-1.35 1.35-1.35-1.35-.11-.11c-.19-.19-.28-.43-.28-.67s.09-.49.28-.67a.96.96 0 0 1 1.35 0l.11.11.1-.11a.96.96 0 0 1 1.35 0c.19.19.28.43.28.67s-.09.49-.28.67Z" class="cls-218"/>
        <path d="M152.75 196.19v3.93c0 .63-.51 1.15-1.15 1.15h-1.46l-.41.71-.64 1.11-.65-1.11-.41-.71h-1.46c-.63 0-1.15-.51-1.15-1.15v-3.93c0-.63.51-1.15 1.15-1.15h5.02c.63 0 1.15.52 1.15 1.15Z" class="cls-218"/>
        <path d="M150.83 197.71c0 .25-.09.49-.28.67l-.11.11-1.35 1.35-1.35-1.35-.11-.11c-.19-.19-.28-.43-.28-.67s.09-.49.28-.67a.96.96 0 0 1 1.35 0l.11.11.11-.11a.96.96 0 0 1 1.35 0c.19.19.28.43.28.67Z" class="cls-266"/>
        <path d="M142.32 196.22v3.9c0 .62-.54 1.13-1.21 1.13h-1.54l-.43.71-.67 1.09-.67-1.09-.44-.71h-1.54c-.66 0-1.21-.51-1.21-1.13v-3.9c0-.63.55-1.13 1.21-1.13h5.29c.67 0 1.21.51 1.21 1.13Z" class="cls-218"/>
        <circle cx="137.35" cy="197.7" r=".57" class="cls-266"/>
        <path d="M138.68 198.97a.635.635 0 0 0-.63-.54h-1.41c-.32 0-.58.24-.63.54h2.67Zm.97-.24.74-.72c.06-.06.11-.12.14-.17.03-.06.05-.13.05-.2 0-.09-.03-.16-.09-.21a.33.33 0 0 0-.22-.08c-.09 0-.16.03-.22.09s-.09.14-.1.23l-.31-.05c0-.08.03-.15.07-.22s.08-.12.14-.17c.06-.05.12-.09.19-.11.07-.03.16-.04.24-.04.08 0 .16.01.24.04s.14.06.2.11.11.11.14.18.05.15.05.24c0 .06 0 .12-.02.17-.02.05-.04.1-.07.15-.03.05-.06.09-.1.13l-.12.12-.55.52h.86v.3h-1.27v-.3Z" class="cls-266"/>
        <rect width="2" height=".93" x="153.1" y="166.47" fill="#b8d2aa" stroke-width="0" rx=".11" ry=".11"/>
        <rect width=".85" height="1.92" x="153.68" y="165.97" class="cls-24" rx=".07" ry=".07" transform="rotate(90 154.105 166.935)"/>
        <path d="M155.11 167.1c.08-.01.15-.08.15-.17s-.07-.16-.15-.17v.33Z" class="cls-24"/>
        <path fill="gray" stroke-width="0" d="M131.96 167.13h.31v.43h-.31zm.5-.25h.31v.67h-.31zm.5-.28h.31v.95h-.31zm.51-.28h.31v1.23h-.31z"/>
        <g class="cls-292">
          <path d="M158.29 168.37v51.46c0 1.49-1.2 2.69-2.68 2.69h-24.03a2.69 2.69 0 0 1-2.69-2.69v-3.65h23.38c1.48 0 2.68-1.2 2.68-2.69v-47.8h.65c1.48 0 2.68 1.2 2.68 2.68Z" class="cls-285"/>
        </g>
      </g>
      <g id="Book">
        <path d="M237.95 93.41h59.03c.25 0 .46.21.46.46v11.7c0 .25-.21.46-.46.46h-59.03c-2.4 0-4.35-1.95-4.35-4.35v-3.91c0-2.4 1.95-4.35 4.35-4.35Z" class="cls-258"/>
        <path d="M245.86 93.41h4.62v12.62h-4.62zm9.22 0h1.74v12.62h-1.74zm31.7 0h8.47v12.62h-8.47z" class="cls-129"/>
        <path d="M264.67 100.68c0 .3-.06.55-.18.75-.12.2-.27.36-.47.49-.19.12-.42.21-.66.27-.25.05-.5.08-.76.08h-2.17v-5.44h2.17c.21 0 .42.02.65.07.22.04.42.12.6.22.18.11.32.25.44.43.11.18.17.41.17.68 0 .3-.08.55-.25.75-.16.2-.38.34-.65.43v.02c.15.03.3.07.43.14.14.07.25.16.35.27.1.11.18.23.24.38.06.14.09.3.09.48Zm-1.49-2.28c0-.18-.07-.32-.21-.4-.14-.08-.35-.13-.63-.13h-.65v1.12h.71c.25 0 .44-.05.57-.15.14-.1.2-.25.2-.44Zm.18 2.16c0-.23-.08-.38-.25-.47-.17-.09-.39-.13-.68-.13h-.73v1.24h.74c.1 0 .21 0 .32-.03.11-.02.21-.05.3-.1s.16-.11.22-.2c.06-.08.08-.19.08-.33Zm7.85-1.04c0 .43-.07.82-.22 1.18s-.36.66-.62.91-.58.45-.94.59c-.36.14-.76.21-1.18.21s-.82-.07-1.18-.21c-.36-.14-.67-.33-.94-.59-.26-.25-.47-.56-.62-.91-.15-.36-.22-.75-.22-1.18s.07-.83.22-1.18.35-.65.62-.9c.26-.25.58-.44.94-.57.36-.13.75-.2 1.18-.2s.82.07 1.18.2.68.32.94.57c.26.25.47.54.62.9.15.35.22.74.22 1.18Zm-1.41 0c0-.24-.04-.46-.11-.66-.08-.2-.18-.38-.32-.53-.14-.15-.3-.26-.49-.35-.19-.08-.4-.13-.63-.13s-.44.04-.63.13c-.19.08-.35.2-.49.35s-.24.32-.32.53c-.07.21-.11.42-.11.66s.04.47.11.68c.08.21.18.39.32.53.14.15.3.27.49.35.19.08.4.13.63.13s.44-.04.63-.13a1.506 1.506 0 0 0 .81-.88c.08-.21.11-.43.11-.68Zm7.95 0c0 .43-.07.82-.22 1.18s-.36.66-.62.91-.58.45-.94.59c-.36.14-.76.21-1.18.21s-.82-.07-1.18-.21c-.36-.14-.67-.33-.94-.59-.26-.25-.47-.56-.62-.91-.15-.36-.22-.75-.22-1.18s.07-.83.22-1.18.35-.65.62-.9c.26-.25.58-.44.94-.57.36-.13.75-.2 1.18-.2s.82.07 1.18.2.68.32.94.57c.26.25.47.54.62.9.15.35.22.74.22 1.18Zm-1.41 0c0-.24-.04-.46-.11-.66-.08-.2-.18-.38-.32-.53-.14-.15-.3-.26-.49-.35-.19-.08-.4-.13-.63-.13s-.44.04-.63.13c-.19.08-.35.2-.49.35-.14.15-.24.32-.32.53-.07.21-.11.42-.11.66s.04.47.11.68c.08.21.18.39.32.53.14.15.3.27.49.35.19.08.4.13.63.13s.44-.04.63-.13a1.506 1.506 0 0 0 .81-.88c.08-.21.11-.43.11-.68Zm5.6 2.74-2.02-2.5h-.02v2.5h-1.28v-5.44h1.28v2.21h.02l1.94-2.21h1.64l-2.34 2.5 2.48 2.93h-1.71Z" class="cls-13"/>
        <path d="M297.45 93.85v11.74c0 .24-.22.44-.48.44h-58.82c-1.32 0-2.5-.52-3.33-1.34.15.01.3.02.45.02h58.82c.26 0 .48-.2.48-.44V93.41h2.4c.26 0 .48.2.48.44Z" class="cls-7"/>
      </g>
      <g id="Headphone">
        <path d="M279.02 53.17v.34a2.46 2.46 0 0 1-2.46 2.46c-7.52-1.39-15.09-1.52-22.7 0-.5 0-.97-.15-1.36-.41-.66-.45-1.1-1.2-1.1-2.05v-.45c2.24-1.49 4.95-2.35 7.87-2.35h11.86c2.92 0 5.64.87 7.87 2.35v.11Z" class="cls-129"/>
        <path d="M284.94 63.31s-.01 18.45-.02 18.58h-2.77l.02-18.58c0-3.35-1.67-6.34-4.25-8.26-1.86-1.39-4.23-2.22-6.78-2.22h-11.87c-2.55 0-4.91.83-6.78 2.22-2.58 1.92-4.25 4.91-4.25 8.26l.02 18.58h-2.77c-.01-.13-.02-18.58-.02-18.58 0-4.45 2.34-8.39 5.93-10.75 2.23-1.49 4.95-2.35 7.87-2.35h11.87c2.92 0 5.64.87 7.87 2.35 3.58 2.37 5.93 6.3 5.93 10.75Z" class="cls-187"/>
        <path d="M252.84 74.33v18.84h-1.01c-.42 0-.83-.05-1.23-.13-.94-.2-1.81-.62-2.56-1.21-1.55-1.23-2.56-3.19-2.56-5.39v-5.38c0-2.2 1.01-4.16 2.56-5.39.75-.59 1.62-1.01 2.56-1.21.4-.09.81-.13 1.23-.13h1.01Z" class="cls-187"/>
        <rect width="3.95" height="19.73" x="251.24" y="73.88" class="cls-129" rx="1.33" ry="1.33"/>
        <path d="M250.59 74.46v18.57c-.85-.18-1.64-.54-2.33-1.04 0-2.86-.02-11.38-.02-11.49v-4.99c.7-.51 1.49-.87 2.35-1.05Z" class="cls-244"/>
        <path d="M277.58 74.33v18.84h1.01c.42 0 .83-.05 1.23-.13.94-.2 1.81-.62 2.56-1.21 1.55-1.23 2.56-3.19 2.56-5.39v-5.38c0-2.2-1.01-4.16-2.56-5.39a6.242 6.242 0 0 0-2.56-1.21c-.4-.09-.81-.13-1.23-.13h-1.01Z" class="cls-187"/>
        <rect width="3.95" height="19.73" x="275.23" y="73.88" class="cls-129" rx="1.33" ry="1.33" transform="rotate(180 277.2 83.745)"/>
        <path d="M282.17 75.51v4.99c0 .11-.01 8.64-.02 11.49-.69.5-1.48.86-2.33 1.04V74.46c.86.18 1.65.55 2.35 1.05Z" class="cls-244"/>
        <g class="cls-292">
          <path d="M254.68 75.21v17.07c0 .73-.6 1.33-1.33 1.33h-1.29c-.42 0-.8-.2-1.04-.5-.15-.02-.29-.05-.43-.08-.94-.2-1.82-.62-2.56-1.21a6.746 6.746 0 0 1-1.98-2.58c.2.22.43.42.66.61.74.59 3.61 1.79 4.03 1.79h1.29c.73 0 1.33-.6 1.33-1.33V73.88c.72 0 1.32.61 1.32 1.33Zm30.26 5.29c0 .08 0 .16-.01.24.01.11.01.21.01.32v5.38c0 2.2-1.01 4.16-2.56 5.39-.74.59-1.62 1.01-2.56 1.21-.14.03-.28.06-.43.08-.24.3-.62.5-1.04.5h-1.29c-.73 0-1.33-.6-1.33-1.33v-.64h1.3c.42 0 .8-.2 1.04-.5.15-.02.29-.05.43-.08.94-.2 1.82-.62 2.56-1.21 1.55-1.23 2.56-3.19 2.56-5.39v-5.38c0-.11 0-.21-.01-.32 0-.08.01-.16.01-.24V61.34c0-2.14-.54-4.15-1.49-5.93 1.76 2.2 2.81 4.93 2.81 7.91v17.19Z" class="cls-285"/>
        </g>
      </g>
    </g>
  </g>
</svg>
