<?xml version="1.0" standalone="no"?>
<!DOCTYPE svg PUBLIC "-//W3C//DTD SVG 20010904//EN"
 "http://www.w3.org/TR/2001/REC-SVG-20010904/DTD/svg10.dtd">
<svg version="1.0" xmlns="http://www.w3.org/2000/svg"
 width="752.000000pt" height="752.000000pt" viewBox="0 0 752.000000 752.000000"
 preserveAspectRatio="xMidYMid meet">
<metadata>
Created by potrace 1.14, written by Peter Selinger 2001-2017
</metadata>
<g transform="translate(0.000000,752.000000) scale(0.100000,-0.100000)"
fill="#000000" stroke="none">
<path d="M80 6280 l0 -1240 83 0 c45 0 141 0 212 1 72 0 137 0 145 0 8 0 80 0
160 0 80 0 152 0 160 0 8 0 80 0 160 0 80 0 152 0 160 0 8 0 80 0 160 0 80 0
152 0 160 0 8 0 80 0 160 0 80 0 152 0 160 0 8 0 80 0 160 0 80 0 152 0 160 0
8 0 80 0 160 0 195 0 214 -1 224 -11 7 -7 20 -931 15 -1060 -1 -19 -1 -46 -1
-60 1 -14 1 -47 1 -75 0 -27 0 -59 1 -70 0 -11 0 -29 0 -40 -1 -11 -1 -24 -1
-30 0 -5 2 -264 5 -575 3 -311 5 -567 5 -570 1 -3 544 -5 1208 -5 l1207 0 1
-1265 0 -1265 1212 0 c800 0 1214 3 1216 10 2 6 3 1693 3 3750 l-1 3740 -1215
3 -1215 2 0 -1237 0 -1238 -160 -2 c-88 -1 -214 -2 -280 -2 -66 0 -199 -1
-295 -1 -96 -1 -181 -1 -187 -1 -7 0 -114 0 -238 0 -124 0 -232 0 -240 0 -8 0
-116 0 -240 0 -124 0 -232 0 -240 0 -8 0 -115 0 -238 1 -123 1 -228 0 -233 -1
-5 -1 -25 -1 -46 0 l-36 1 -1 1228 c0 675 0 1233 0 1240 -1 9 -251 12 -1216
12 l-1215 0 0 -1240z"/>
</g>
</svg>
