<?xml version="1.0" encoding="utf-8"?>
<!-- Generator: Adobe Illustrator 26.5.3, SVG Export Plug-In . SVG Version: 6.00 Build 0)  -->
<svg version="1.1" id="Layer_1" xmlns="http://www.w3.org/2000/svg" xmlns:xlink="http://www.w3.org/1999/xlink" x="0px" y="0px"
	 viewBox="0 0 595.3 283.5" style="enable-background:new 0 0 595.3 283.5;" xml:space="preserve">
<style type="text/css">
	.st0{fill:#FFFFFF;}
	.st1{fill:#F07F00;}
</style>
<g>
	<path class="st0" d="M57.1,177.9h3.6L72,194.7h0.1v-16.8h2.8v20.5h-3.5l-11.4-16.8h-0.1v16.8h-2.8V177.9z"/>
	<path class="st0" d="M81.4,192.5c0,0.6,0.1,1.1,0.4,1.6c0.3,0.5,0.6,0.9,1,1.3c0.4,0.3,0.9,0.6,1.5,0.8c0.6,0.2,1.1,0.3,1.7,0.3
		c0.8,0,1.5-0.2,2.1-0.6c0.6-0.4,1.1-0.9,1.6-1.5l2,1.5c-1.4,1.9-3.5,2.8-6.1,2.8c-1.1,0-2.1-0.2-2.9-0.5c-0.9-0.4-1.6-0.9-2.2-1.5
		c-0.6-0.6-1.1-1.4-1.4-2.3s-0.5-1.8-0.5-2.9s0.2-2,0.5-2.9c0.4-0.9,0.8-1.6,1.5-2.3c0.6-0.6,1.4-1.2,2.2-1.5
		c0.9-0.4,1.8-0.5,2.8-0.5c1.2,0,2.2,0.2,3.1,0.6c0.8,0.4,1.5,1,2.1,1.7c0.5,0.7,0.9,1.5,1.2,2.3s0.4,1.7,0.4,2.6v0.9H81.4z
		 M89.6,190.4c0-0.6-0.1-1.1-0.3-1.6c-0.2-0.5-0.4-0.9-0.7-1.3c-0.3-0.4-0.7-0.6-1.2-0.8c-0.5-0.2-1.1-0.3-1.7-0.3
		c-0.6,0-1.2,0.1-1.8,0.4c-0.5,0.2-1,0.6-1.3,0.9c-0.4,0.4-0.7,0.8-0.9,1.3c-0.2,0.5-0.3,0.9-0.3,1.4H89.6z"/>
	<path class="st0" d="M93.9,184.7h3l4.1,10.5l3.9-10.5h2.8l-5.4,13.7h-2.9L93.9,184.7z"/>
	<path class="st0" d="M112,192.5c0,0.6,0.1,1.1,0.4,1.6c0.3,0.5,0.6,0.9,1,1.3c0.4,0.3,0.9,0.6,1.5,0.8c0.6,0.2,1.1,0.3,1.7,0.3
		c0.8,0,1.5-0.2,2.1-0.6c0.6-0.4,1.1-0.9,1.6-1.5l2,1.5c-1.4,1.9-3.5,2.8-6.1,2.8c-1.1,0-2.1-0.2-2.9-0.5c-0.9-0.4-1.6-0.9-2.2-1.5
		c-0.6-0.6-1.1-1.4-1.4-2.3s-0.5-1.8-0.5-2.9s0.2-2,0.5-2.9c0.4-0.9,0.8-1.6,1.5-2.3c0.6-0.6,1.4-1.2,2.2-1.5
		c0.9-0.4,1.8-0.5,2.8-0.5c1.2,0,2.2,0.2,3.1,0.6c0.8,0.4,1.5,1,2.1,1.7c0.5,0.7,0.9,1.5,1.2,2.3s0.4,1.7,0.4,2.6v0.9H112z
		 M120.2,190.4c0-0.6-0.1-1.1-0.3-1.6c-0.2-0.5-0.4-0.9-0.7-1.3c-0.3-0.4-0.7-0.6-1.2-0.8c-0.5-0.2-1.1-0.3-1.7-0.3
		c-0.6,0-1.2,0.1-1.8,0.4c-0.5,0.2-1,0.6-1.3,0.9c-0.4,0.4-0.7,0.8-0.9,1.3c-0.2,0.5-0.3,0.9-0.3,1.4H120.2z"/>
	<path class="st0" d="M126.1,184.7h2.6v2.1h0.1c0.2-0.4,0.4-0.7,0.7-1s0.6-0.6,1-0.8c0.4-0.2,0.7-0.4,1.2-0.5
		c0.4-0.1,0.8-0.2,1.3-0.2s0.8,0.1,1.2,0.2l-0.1,2.8c-0.2-0.1-0.4-0.1-0.6-0.1c-0.2,0-0.4-0.1-0.6-0.1c-1.3,0-2.2,0.4-2.9,1.1
		s-1,1.8-1,3.3v6.9h-2.6V184.7z"/>
	<path class="st0" d="M145.1,176.5h2.6v21.9h-2.6V176.5z"/>
	<path class="st0" d="M151.1,191.5c0-1,0.2-1.9,0.6-2.8c0.4-0.9,0.9-1.6,1.5-2.3c0.7-0.7,1.4-1.2,2.3-1.5c0.9-0.4,1.8-0.6,2.9-0.6
		c1,0,2,0.2,2.9,0.6c0.9,0.4,1.7,0.9,2.3,1.5c0.7,0.7,1.2,1.4,1.5,2.3c0.4,0.9,0.6,1.8,0.6,2.8s-0.2,1.9-0.6,2.8
		c-0.4,0.9-0.9,1.6-1.5,2.3c-0.7,0.6-1.4,1.2-2.3,1.5c-0.9,0.4-1.8,0.6-2.9,0.6c-1,0-2-0.2-2.9-0.6c-0.9-0.4-1.7-0.9-2.3-1.5
		c-0.7-0.6-1.2-1.4-1.5-2.3C151.3,193.5,151.1,192.5,151.1,191.5z M153.9,191.5c0,0.7,0.1,1.3,0.3,1.9c0.2,0.6,0.5,1.1,0.9,1.5
		c0.4,0.4,0.9,0.7,1.4,1c0.6,0.2,1.2,0.4,1.9,0.4s1.3-0.1,1.9-0.4s1-0.6,1.4-1c0.4-0.4,0.7-0.9,0.9-1.5c0.2-0.6,0.3-1.2,0.3-1.9
		s-0.1-1.3-0.3-1.9c-0.2-0.6-0.5-1.1-0.9-1.5c-0.4-0.4-0.9-0.7-1.4-1s-1.2-0.4-1.9-0.4s-1.3,0.1-1.9,0.4c-0.6,0.2-1,0.6-1.4,1
		c-0.4,0.4-0.7,0.9-0.9,1.5C154,190.2,153.9,190.8,153.9,191.5z"/>
	<path class="st0" d="M176.3,188.1c-0.3-0.4-0.7-0.7-1.1-1c-0.5-0.3-1-0.4-1.7-0.4c-0.6,0-1.2,0.1-1.6,0.4c-0.5,0.3-0.7,0.6-0.7,1.1
		c0,0.4,0.1,0.7,0.4,1c0.3,0.3,0.6,0.5,0.9,0.6c0.4,0.2,0.7,0.3,1.1,0.3s0.8,0.1,1,0.2c0.6,0.1,1.1,0.3,1.6,0.5
		c0.5,0.2,0.9,0.4,1.3,0.8s0.6,0.7,0.8,1.1c0.2,0.4,0.3,1,0.3,1.6c0,0.8-0.2,1.4-0.5,2c-0.3,0.5-0.8,1-1.3,1.3s-1.1,0.6-1.8,0.8
		c-0.7,0.2-1.3,0.2-2,0.2c-1.1,0-2.1-0.2-3-0.5c-0.9-0.3-1.6-1-2.3-1.9l2-1.6c0.4,0.4,0.9,0.8,1.4,1.1c0.5,0.3,1.2,0.5,1.9,0.5
		c0.3,0,0.7,0,1-0.1c0.3-0.1,0.6-0.2,0.9-0.3s0.5-0.3,0.6-0.5c0.2-0.2,0.2-0.5,0.2-0.8c0-0.4-0.1-0.7-0.4-1
		c-0.2-0.3-0.5-0.4-0.9-0.6c-0.3-0.1-0.7-0.3-1.1-0.3c-0.4-0.1-0.7-0.2-1-0.2c-0.6-0.1-1.1-0.3-1.6-0.5c-0.5-0.2-0.9-0.4-1.3-0.7
		s-0.7-0.7-0.9-1.1c-0.2-0.4-0.3-1-0.3-1.6c0-0.7,0.1-1.3,0.4-1.9c0.3-0.5,0.7-1,1.2-1.3c0.5-0.3,1.1-0.6,1.7-0.8
		c0.6-0.2,1.3-0.3,1.9-0.3c0.9,0,1.8,0.2,2.7,0.5c0.8,0.3,1.5,0.9,2,1.7L176.3,188.1z"/>
	<path class="st0" d="M183.8,192.5c0,0.6,0.1,1.1,0.4,1.6c0.3,0.5,0.6,0.9,1,1.3c0.4,0.3,0.9,0.6,1.5,0.8c0.6,0.2,1.1,0.3,1.7,0.3
		c0.8,0,1.5-0.2,2.1-0.6c0.6-0.4,1.1-0.9,1.6-1.5l2,1.5c-1.4,1.9-3.5,2.8-6.1,2.8c-1.1,0-2.1-0.2-2.9-0.5c-0.9-0.4-1.6-0.9-2.2-1.5
		c-0.6-0.6-1.1-1.4-1.4-2.3s-0.5-1.8-0.5-2.9s0.2-2,0.5-2.9c0.4-0.9,0.8-1.6,1.5-2.3c0.6-0.6,1.4-1.2,2.2-1.5
		c0.9-0.4,1.8-0.5,2.8-0.5c1.2,0,2.2,0.2,3.1,0.6c0.8,0.4,1.5,1,2.1,1.7c0.5,0.7,0.9,1.5,1.2,2.3s0.4,1.7,0.4,2.6v0.9H183.8z
		 M192,190.4c0-0.6-0.1-1.1-0.3-1.6c-0.2-0.5-0.4-0.9-0.7-1.3c-0.3-0.4-0.7-0.6-1.2-0.8c-0.5-0.2-1.1-0.3-1.7-0.3
		c-0.6,0-1.2,0.1-1.8,0.4c-0.5,0.2-1,0.6-1.3,0.9c-0.4,0.4-0.7,0.8-0.9,1.3c-0.2,0.5-0.3,0.9-0.3,1.4H192z"/>
	<path class="st0" d="M204.4,184.7h3l4.1,10.7h0.1l3.9-10.7h2.8l-6.5,16.7c-0.2,0.6-0.5,1.1-0.7,1.6s-0.5,0.9-0.9,1.3
		c-0.3,0.3-0.8,0.6-1.3,0.8c-0.5,0.2-1.1,0.3-1.8,0.3c-0.4,0-0.8,0-1.2-0.1c-0.4,0-0.8-0.1-1.1-0.3l0.3-2.4c0.5,0.2,1,0.3,1.6,0.3
		c0.4,0,0.7-0.1,1-0.2c0.3-0.1,0.5-0.3,0.7-0.5c0.2-0.2,0.4-0.4,0.5-0.7c0.1-0.3,0.3-0.6,0.4-0.9l0.8-2.2L204.4,184.7z"/>
	<path class="st0" d="M219.8,191.5c0-1,0.2-1.9,0.6-2.8c0.4-0.9,0.9-1.6,1.5-2.3c0.7-0.7,1.4-1.2,2.3-1.5c0.9-0.4,1.8-0.6,2.9-0.6
		c1,0,2,0.2,2.9,0.6c0.9,0.4,1.7,0.9,2.3,1.5c0.7,0.7,1.2,1.4,1.5,2.3c0.4,0.9,0.6,1.8,0.6,2.8s-0.2,1.9-0.6,2.8
		c-0.4,0.9-0.9,1.6-1.5,2.3c-0.7,0.6-1.4,1.2-2.3,1.5c-0.9,0.4-1.8,0.6-2.9,0.6c-1,0-2-0.2-2.9-0.6c-0.9-0.4-1.7-0.9-2.3-1.5
		c-0.7-0.6-1.2-1.4-1.5-2.3C220,193.5,219.8,192.5,219.8,191.5z M222.6,191.5c0,0.7,0.1,1.3,0.3,1.9c0.2,0.6,0.5,1.1,0.9,1.5
		c0.4,0.4,0.9,0.7,1.4,1c0.6,0.2,1.2,0.4,1.9,0.4s1.3-0.1,1.9-0.4s1-0.6,1.4-1c0.4-0.4,0.7-0.9,0.9-1.5c0.2-0.6,0.3-1.2,0.3-1.9
		s-0.1-1.3-0.3-1.9c-0.2-0.6-0.5-1.1-0.9-1.5c-0.4-0.4-0.9-0.7-1.4-1s-1.2-0.4-1.9-0.4s-1.3,0.1-1.9,0.4c-0.6,0.2-1,0.6-1.4,1
		c-0.4,0.4-0.7,0.9-0.9,1.5C222.7,190.2,222.6,190.8,222.6,191.5z"/>
	<path class="st0" d="M249.8,198.4h-2.6v-2.1h-0.1c-0.3,0.7-0.9,1.3-1.7,1.8c-0.8,0.5-1.7,0.7-2.8,0.7c-0.7,0-1.3-0.1-1.9-0.3
		c-0.6-0.2-1.1-0.5-1.6-0.9c-0.5-0.4-0.8-1-1.1-1.6c-0.3-0.7-0.4-1.5-0.4-2.4v-8.8h2.6v8.1c0,0.6,0.1,1.2,0.3,1.6
		c0.2,0.5,0.4,0.8,0.7,1.1c0.3,0.3,0.6,0.5,1,0.6c0.4,0.1,0.8,0.2,1.2,0.2c0.5,0,1-0.1,1.5-0.3c0.5-0.2,0.9-0.4,1.2-0.8
		c0.3-0.4,0.6-0.9,0.8-1.4c0.2-0.6,0.3-1.3,0.3-2.1v-7.1h2.6V198.4z"/>
	<path class="st0" d="M253.7,184.7h2.6v2.1h0.1c0.2-0.4,0.4-0.7,0.7-1s0.6-0.6,1-0.8c0.4-0.2,0.7-0.4,1.2-0.5
		c0.4-0.1,0.8-0.2,1.3-0.2s0.8,0.1,1.2,0.2l-0.1,2.8c-0.2-0.1-0.4-0.1-0.6-0.1c-0.2,0-0.4-0.1-0.6-0.1c-1.3,0-2.2,0.4-2.9,1.1
		s-1,1.8-1,3.3v6.9h-2.6V184.7z"/>
	<path class="st0" d="M272.5,184.7h2.6v2h0.1c0.5-0.7,1.2-1.3,2.1-1.7c0.9-0.4,1.8-0.6,2.7-0.6c1.1,0,2,0.2,2.9,0.5
		c0.9,0.4,1.6,0.9,2.2,1.5c0.6,0.7,1.1,1.4,1.4,2.3c0.3,0.9,0.5,1.8,0.5,2.8c0,1-0.2,2-0.5,2.9c-0.3,0.9-0.8,1.6-1.4,2.3
		c-0.6,0.6-1.3,1.2-2.2,1.5s-1.8,0.5-2.9,0.5c-1,0-1.9-0.2-2.8-0.6c-0.9-0.4-1.5-1-2-1.7h-0.1v10.1h-2.6V184.7z M279.6,186.7
		c-0.7,0-1.3,0.1-1.9,0.4s-1,0.6-1.4,1c-0.4,0.4-0.7,0.9-0.9,1.5c-0.2,0.6-0.3,1.2-0.3,1.9s0.1,1.3,0.3,1.9c0.2,0.6,0.5,1.1,0.9,1.5
		c0.4,0.4,0.9,0.7,1.4,1s1.2,0.4,1.9,0.4c0.7,0,1.3-0.1,1.9-0.4c0.6-0.2,1-0.6,1.4-1c0.4-0.4,0.7-0.9,0.9-1.5
		c0.2-0.6,0.3-1.2,0.3-1.9s-0.1-1.3-0.3-1.9c-0.2-0.6-0.5-1.1-0.9-1.5c-0.4-0.4-0.9-0.7-1.4-1C280.9,186.9,280.3,186.7,279.6,186.7z
		"/>
	<path class="st0" d="M290.2,184.7h2.6v2.1h0.1c0.2-0.4,0.4-0.7,0.7-1s0.6-0.6,1-0.8c0.4-0.2,0.7-0.4,1.2-0.5
		c0.4-0.1,0.8-0.2,1.3-0.2s0.8,0.1,1.2,0.2l-0.1,2.8c-0.2-0.1-0.4-0.1-0.6-0.1c-0.2,0-0.4-0.1-0.6-0.1c-1.3,0-2.2,0.4-2.9,1.1
		s-1,1.8-1,3.3v6.9h-2.6V184.7z"/>
	<path class="st0" d="M300.5,179.7c0-0.5,0.2-1,0.6-1.3c0.4-0.4,0.8-0.6,1.3-0.6c0.5,0,1,0.2,1.3,0.6c0.4,0.4,0.6,0.8,0.6,1.3
		c0,0.5-0.2,1-0.6,1.3c-0.4,0.4-0.8,0.6-1.3,0.6c-0.5,0-1-0.2-1.3-0.6C300.6,180.7,300.5,180.3,300.5,179.7z M301.1,184.7h2.6v13.7
		h-2.6V184.7z"/>
	<path class="st0" d="M306.9,196l7.8-9.1h-7.5v-2.3h10.7v2.3l-7.8,9.1h8.2v2.3h-11.4V196z"/>
	<path class="st0" d="M323.2,192.5c0,0.6,0.1,1.1,0.4,1.6s0.6,0.9,1,1.3c0.4,0.3,0.9,0.6,1.5,0.8c0.6,0.2,1.1,0.3,1.7,0.3
		c0.8,0,1.5-0.2,2.1-0.6c0.6-0.4,1.1-0.9,1.6-1.5l2,1.5c-1.4,1.9-3.5,2.8-6.1,2.8c-1.1,0-2.1-0.2-2.9-0.5s-1.6-0.9-2.2-1.5
		c-0.6-0.6-1.1-1.4-1.4-2.3s-0.5-1.8-0.5-2.9s0.2-2,0.5-2.9c0.4-0.9,0.8-1.6,1.5-2.3c0.6-0.6,1.4-1.2,2.2-1.5
		c0.9-0.4,1.8-0.5,2.8-0.5c1.2,0,2.2,0.2,3.1,0.6c0.8,0.4,1.5,1,2.1,1.7c0.5,0.7,0.9,1.5,1.2,2.3s0.4,1.7,0.4,2.6v0.9H323.2z
		 M331.4,190.4c0-0.6-0.1-1.1-0.3-1.6s-0.4-0.9-0.7-1.3c-0.3-0.4-0.7-0.6-1.2-0.8c-0.5-0.2-1.1-0.3-1.7-0.3c-0.6,0-1.2,0.1-1.8,0.4
		c-0.5,0.2-1,0.6-1.3,0.9c-0.4,0.4-0.7,0.8-0.9,1.3c-0.2,0.5-0.3,0.9-0.3,1.4H331.4z"/>
	<path class="st0" d="M351,198.4h-2.6v-2h-0.1c-0.5,0.7-1.2,1.3-2.1,1.7c-0.9,0.4-1.8,0.6-2.7,0.6c-1.1,0-2-0.2-2.9-0.5
		c-0.9-0.4-1.6-0.9-2.2-1.5c-0.6-0.7-1.1-1.4-1.4-2.3s-0.5-1.8-0.5-2.8s0.2-2,0.5-2.9s0.8-1.6,1.4-2.3c0.6-0.6,1.3-1.2,2.2-1.5
		c0.9-0.4,1.8-0.5,2.9-0.5c1,0,1.9,0.2,2.8,0.6s1.5,1,2,1.7h0.1v-10.1h2.6V198.4z M343.9,196.3c0.7,0,1.3-0.1,1.9-0.4s1-0.6,1.4-1
		s0.7-0.9,0.9-1.5c0.2-0.6,0.3-1.2,0.3-1.9s-0.1-1.3-0.3-1.9c-0.2-0.6-0.5-1.1-0.9-1.5s-0.9-0.7-1.4-1s-1.2-0.4-1.9-0.4
		s-1.3,0.1-1.9,0.4s-1,0.6-1.4,1c-0.4,0.4-0.7,0.9-0.9,1.5c-0.2,0.6-0.3,1.2-0.3,1.9s0.1,1.3,0.3,1.9c0.2,0.6,0.5,1.1,0.9,1.5
		c0.4,0.4,0.9,0.7,1.4,1S343.2,196.3,343.9,196.3z"/>
	<path class="st0" d="M363,184.7h2.6v2h0.1c0.5-0.7,1.2-1.3,2.1-1.7s1.8-0.6,2.7-0.6c1.1,0,2,0.2,2.9,0.5c0.9,0.4,1.6,0.9,2.2,1.5
		c0.6,0.7,1.1,1.4,1.4,2.3s0.5,1.8,0.5,2.8c0,1-0.2,2-0.5,2.9s-0.8,1.6-1.4,2.3c-0.6,0.6-1.3,1.2-2.2,1.5s-1.8,0.5-2.9,0.5
		c-1,0-1.9-0.2-2.8-0.6c-0.9-0.4-1.5-1-2-1.7h-0.1v10.1H363V184.7z M370.1,186.7c-0.7,0-1.3,0.1-1.9,0.4c-0.6,0.2-1,0.6-1.4,1
		c-0.4,0.4-0.7,0.9-0.9,1.5c-0.2,0.6-0.3,1.2-0.3,1.9s0.1,1.3,0.3,1.9c0.2,0.6,0.5,1.1,0.9,1.5c0.4,0.4,0.9,0.7,1.4,1
		c0.6,0.2,1.2,0.4,1.9,0.4s1.3-0.1,1.9-0.4s1-0.6,1.4-1c0.4-0.4,0.7-0.9,0.9-1.5c0.2-0.6,0.3-1.2,0.3-1.9s-0.1-1.3-0.3-1.9
		c-0.2-0.6-0.5-1.1-0.9-1.5c-0.4-0.4-0.9-0.7-1.4-1S370.8,186.7,370.1,186.7z"/>
	<path class="st0" d="M380,191.5c0-1,0.2-1.9,0.6-2.8c0.4-0.9,0.9-1.6,1.5-2.3c0.7-0.7,1.4-1.2,2.3-1.5c0.9-0.4,1.8-0.6,2.9-0.6
		s2,0.2,2.9,0.6c0.9,0.4,1.7,0.9,2.3,1.5c0.7,0.7,1.2,1.4,1.5,2.3c0.4,0.9,0.6,1.8,0.6,2.8s-0.2,1.9-0.6,2.8
		c-0.4,0.9-0.9,1.6-1.5,2.3c-0.7,0.6-1.4,1.2-2.3,1.5c-0.9,0.4-1.8,0.6-2.9,0.6s-2-0.2-2.9-0.6s-1.7-0.9-2.3-1.5
		c-0.7-0.6-1.2-1.4-1.5-2.3C380.2,193.5,380,192.5,380,191.5z M382.8,191.5c0,0.7,0.1,1.3,0.3,1.9c0.2,0.6,0.5,1.1,0.9,1.5
		c0.4,0.4,0.9,0.7,1.4,1s1.2,0.4,1.9,0.4s1.3-0.1,1.9-0.4s1-0.6,1.4-1s0.7-0.9,0.9-1.5c0.2-0.6,0.3-1.2,0.3-1.9s-0.1-1.3-0.3-1.9
		c-0.2-0.6-0.5-1.1-0.9-1.5s-0.9-0.7-1.4-1s-1.2-0.4-1.9-0.4s-1.3,0.1-1.9,0.4s-1,0.6-1.4,1c-0.4,0.4-0.7,0.9-0.9,1.5
		C382.9,190.2,382.8,190.8,382.8,191.5z"/>
	<path class="st0" d="M405.2,188.1c-0.3-0.4-0.7-0.7-1.1-1c-0.5-0.3-1-0.4-1.7-0.4c-0.6,0-1.2,0.1-1.6,0.4c-0.5,0.3-0.7,0.6-0.7,1.1
		c0,0.4,0.1,0.7,0.4,1s0.6,0.5,0.9,0.6c0.4,0.2,0.7,0.3,1.1,0.3s0.8,0.1,1,0.2c0.6,0.1,1.1,0.3,1.6,0.5c0.5,0.2,0.9,0.4,1.3,0.8
		c0.4,0.3,0.6,0.7,0.8,1.1c0.2,0.4,0.3,1,0.3,1.6c0,0.8-0.2,1.4-0.5,2s-0.8,1-1.3,1.3c-0.5,0.3-1.1,0.6-1.8,0.8
		c-0.7,0.2-1.3,0.2-2,0.2c-1.1,0-2.1-0.2-3-0.5c-0.9-0.3-1.6-1-2.3-1.9l2-1.6c0.4,0.4,0.9,0.8,1.4,1.1c0.5,0.3,1.2,0.5,1.9,0.5
		c0.3,0,0.7,0,1-0.1c0.3-0.1,0.6-0.2,0.9-0.3c0.3-0.1,0.5-0.3,0.6-0.5s0.2-0.5,0.2-0.8c0-0.4-0.1-0.7-0.4-1s-0.5-0.4-0.9-0.6
		c-0.3-0.1-0.7-0.3-1.1-0.3c-0.4-0.1-0.7-0.2-1-0.2c-0.6-0.1-1.1-0.3-1.6-0.5s-0.9-0.4-1.3-0.7s-0.7-0.7-0.9-1.1
		c-0.2-0.4-0.3-1-0.3-1.6c0-0.7,0.1-1.3,0.4-1.9c0.3-0.5,0.7-1,1.2-1.3c0.5-0.3,1.1-0.6,1.7-0.8s1.3-0.3,1.9-0.3
		c0.9,0,1.8,0.2,2.7,0.5c0.8,0.3,1.5,0.9,2,1.7L405.2,188.1z"/>
	<path class="st0" d="M418,188.1c-0.3-0.4-0.7-0.7-1.1-1c-0.5-0.3-1-0.4-1.7-0.4c-0.6,0-1.2,0.1-1.6,0.4c-0.5,0.3-0.7,0.6-0.7,1.1
		c0,0.4,0.1,0.7,0.4,1s0.6,0.5,0.9,0.6c0.4,0.2,0.7,0.3,1.1,0.3s0.8,0.1,1,0.2c0.6,0.1,1.1,0.3,1.6,0.5c0.5,0.2,0.9,0.4,1.3,0.8
		c0.4,0.3,0.6,0.7,0.8,1.1c0.2,0.4,0.3,1,0.3,1.6c0,0.8-0.2,1.4-0.5,2s-0.8,1-1.3,1.3c-0.5,0.3-1.1,0.6-1.8,0.8
		c-0.7,0.2-1.3,0.2-2,0.2c-1.1,0-2.1-0.2-3-0.5c-0.9-0.3-1.6-1-2.3-1.9l2-1.6c0.4,0.4,0.9,0.8,1.4,1.1c0.5,0.3,1.2,0.5,1.9,0.5
		c0.3,0,0.7,0,1-0.1c0.3-0.1,0.6-0.2,0.9-0.3c0.3-0.1,0.5-0.3,0.6-0.5s0.2-0.5,0.2-0.8c0-0.4-0.1-0.7-0.4-1s-0.5-0.4-0.9-0.6
		c-0.3-0.1-0.7-0.3-1.1-0.3c-0.4-0.1-0.7-0.2-1-0.2c-0.6-0.1-1.1-0.3-1.6-0.5s-0.9-0.4-1.3-0.7s-0.7-0.7-0.9-1.1
		c-0.2-0.4-0.3-1-0.3-1.6c0-0.7,0.1-1.3,0.4-1.9c0.3-0.5,0.7-1,1.2-1.3c0.5-0.3,1.1-0.6,1.7-0.8s1.3-0.3,1.9-0.3
		c0.9,0,1.8,0.2,2.7,0.5c0.8,0.3,1.5,0.9,2,1.7L418,188.1z"/>
	<path class="st0" d="M425.6,192.5c0,0.6,0.1,1.1,0.4,1.6s0.6,0.9,1,1.3c0.4,0.3,0.9,0.6,1.5,0.8c0.6,0.2,1.1,0.3,1.7,0.3
		c0.8,0,1.5-0.2,2.1-0.6c0.6-0.4,1.1-0.9,1.6-1.5l2,1.5c-1.4,1.9-3.5,2.8-6.1,2.8c-1.1,0-2.1-0.2-2.9-0.5s-1.6-0.9-2.2-1.5
		c-0.6-0.6-1.1-1.4-1.4-2.3s-0.5-1.8-0.5-2.9s0.2-2,0.5-2.9c0.4-0.9,0.8-1.6,1.5-2.3c0.6-0.6,1.4-1.2,2.2-1.5
		c0.9-0.4,1.8-0.5,2.8-0.5c1.2,0,2.2,0.2,3.1,0.6c0.8,0.4,1.5,1,2.1,1.7c0.5,0.7,0.9,1.5,1.2,2.3s0.4,1.7,0.4,2.6v0.9H425.6z
		 M433.8,190.4c0-0.6-0.1-1.1-0.3-1.6s-0.4-0.9-0.7-1.3c-0.3-0.4-0.7-0.6-1.2-0.8c-0.5-0.2-1.1-0.3-1.7-0.3c-0.6,0-1.2,0.1-1.8,0.4
		c-0.5,0.2-1,0.6-1.3,0.9c-0.4,0.4-0.7,0.8-0.9,1.3c-0.2,0.5-0.3,0.9-0.3,1.4H433.8z"/>
	<path class="st0" d="M447,188.1c-0.3-0.4-0.7-0.7-1.1-1c-0.5-0.3-1-0.4-1.7-0.4c-0.6,0-1.2,0.1-1.6,0.4c-0.5,0.3-0.7,0.6-0.7,1.1
		c0,0.4,0.1,0.7,0.4,1s0.6,0.5,0.9,0.6c0.4,0.2,0.7,0.3,1.1,0.3s0.8,0.1,1,0.2c0.6,0.1,1.1,0.3,1.6,0.5c0.5,0.2,0.9,0.4,1.3,0.8
		c0.4,0.3,0.6,0.7,0.8,1.1c0.2,0.4,0.3,1,0.3,1.6c0,0.8-0.2,1.4-0.5,2s-0.8,1-1.3,1.3c-0.5,0.3-1.1,0.6-1.8,0.8
		c-0.7,0.2-1.3,0.2-2,0.2c-1.1,0-2.1-0.2-3-0.5c-0.9-0.3-1.6-1-2.3-1.9l2-1.6c0.4,0.4,0.9,0.8,1.4,1.1c0.5,0.3,1.2,0.5,1.9,0.5
		c0.3,0,0.7,0,1-0.1c0.3-0.1,0.6-0.2,0.9-0.3c0.3-0.1,0.5-0.3,0.6-0.5s0.2-0.5,0.2-0.8c0-0.4-0.1-0.7-0.4-1s-0.5-0.4-0.9-0.6
		c-0.3-0.1-0.7-0.3-1.1-0.3c-0.4-0.1-0.7-0.2-1-0.2c-0.6-0.1-1.1-0.3-1.6-0.5s-0.9-0.4-1.3-0.7s-0.7-0.7-0.9-1.1
		c-0.2-0.4-0.3-1-0.3-1.6c0-0.7,0.1-1.3,0.4-1.9c0.3-0.5,0.7-1,1.2-1.3c0.5-0.3,1.1-0.6,1.7-0.8s1.3-0.3,1.9-0.3
		c0.9,0,1.8,0.2,2.7,0.5c0.8,0.3,1.5,0.9,2,1.7L447,188.1z"/>
	<path class="st0" d="M459.8,188.1c-0.3-0.4-0.7-0.7-1.1-1c-0.5-0.3-1-0.4-1.7-0.4c-0.6,0-1.2,0.1-1.6,0.4c-0.5,0.3-0.7,0.6-0.7,1.1
		c0,0.4,0.1,0.7,0.4,1s0.6,0.5,0.9,0.6c0.4,0.2,0.7,0.3,1.1,0.3s0.8,0.1,1,0.2c0.6,0.1,1.1,0.3,1.6,0.5c0.5,0.2,0.9,0.4,1.3,0.8
		c0.4,0.3,0.6,0.7,0.8,1.1c0.2,0.4,0.3,1,0.3,1.6c0,0.8-0.2,1.4-0.5,2s-0.8,1-1.3,1.3c-0.5,0.3-1.1,0.6-1.8,0.8
		c-0.7,0.2-1.3,0.2-2,0.2c-1.1,0-2.1-0.2-3-0.5c-0.9-0.3-1.6-1-2.3-1.9l2-1.6c0.4,0.4,0.9,0.8,1.4,1.1c0.5,0.3,1.2,0.5,1.9,0.5
		c0.3,0,0.7,0,1-0.1c0.3-0.1,0.6-0.2,0.9-0.3c0.3-0.1,0.5-0.3,0.6-0.5s0.2-0.5,0.2-0.8c0-0.4-0.1-0.7-0.4-1s-0.5-0.4-0.9-0.6
		c-0.3-0.1-0.7-0.3-1.1-0.3c-0.4-0.1-0.7-0.2-1-0.2c-0.6-0.1-1.1-0.3-1.6-0.5s-0.9-0.4-1.3-0.7s-0.7-0.7-0.9-1.1
		c-0.2-0.4-0.3-1-0.3-1.6c0-0.7,0.1-1.3,0.4-1.9c0.3-0.5,0.7-1,1.2-1.3c0.5-0.3,1.1-0.6,1.7-0.8s1.3-0.3,1.9-0.3
		c0.9,0,1.8,0.2,2.7,0.5c0.8,0.3,1.5,0.9,2,1.7L459.8,188.1z"/>
	<path class="st0" d="M465,179.7c0-0.5,0.2-1,0.6-1.3c0.4-0.4,0.8-0.6,1.3-0.6s1,0.2,1.3,0.6c0.4,0.4,0.6,0.8,0.6,1.3
		c0,0.5-0.2,1-0.6,1.3c-0.4,0.4-0.8,0.6-1.3,0.6s-1-0.2-1.3-0.6C465.2,180.7,465,180.3,465,179.7z M465.6,184.7h2.6v13.7h-2.6V184.7
		z"/>
	<path class="st0" d="M471.7,191.5c0-1,0.2-1.9,0.6-2.8c0.4-0.9,0.9-1.6,1.5-2.3c0.7-0.7,1.4-1.2,2.3-1.5c0.9-0.4,1.8-0.6,2.9-0.6
		s2,0.2,2.9,0.6c0.9,0.4,1.7,0.9,2.3,1.5c0.7,0.7,1.2,1.4,1.5,2.3c0.4,0.9,0.6,1.8,0.6,2.8s-0.2,1.9-0.6,2.8
		c-0.4,0.9-0.9,1.6-1.5,2.3c-0.7,0.6-1.4,1.2-2.3,1.5c-0.9,0.4-1.8,0.6-2.9,0.6s-2-0.2-2.9-0.6s-1.7-0.9-2.3-1.5
		c-0.7-0.6-1.2-1.4-1.5-2.3C471.8,193.5,471.7,192.5,471.7,191.5z M474.4,191.5c0,0.7,0.1,1.3,0.3,1.9c0.2,0.6,0.5,1.1,0.9,1.5
		c0.4,0.4,0.9,0.7,1.4,1s1.2,0.4,1.9,0.4s1.3-0.1,1.9-0.4s1-0.6,1.4-1s0.7-0.9,0.9-1.5c0.2-0.6,0.3-1.2,0.3-1.9s-0.1-1.3-0.3-1.9
		c-0.2-0.6-0.5-1.1-0.9-1.5s-0.9-0.7-1.4-1s-1.2-0.4-1.9-0.4s-1.3,0.1-1.9,0.4s-1,0.6-1.4,1c-0.4,0.4-0.7,0.9-0.9,1.5
		C474.5,190.2,474.4,190.8,474.4,191.5z"/>
	<path class="st0" d="M489.5,184.7h2.6v2.1h0.1c0.3-0.7,0.9-1.3,1.7-1.8c0.8-0.5,1.7-0.7,2.8-0.7c0.7,0,1.3,0.1,1.9,0.3
		c0.6,0.2,1.1,0.5,1.6,0.9c0.5,0.4,0.8,1,1.1,1.6c0.3,0.7,0.4,1.5,0.4,2.4v8.8h-2.6v-8.1c0-0.6-0.1-1.2-0.3-1.6s-0.4-0.8-0.7-1.1
		c-0.3-0.3-0.6-0.5-1-0.6c-0.4-0.1-0.8-0.2-1.2-0.2c-0.5,0-1,0.1-1.5,0.3c-0.5,0.2-0.9,0.4-1.2,0.8s-0.6,0.9-0.8,1.4
		c-0.2,0.6-0.3,1.3-0.3,2.1v7.1h-2.6V184.7z"/>
	<path class="st0" d="M512.9,188.1c-0.3-0.4-0.7-0.7-1.1-1c-0.5-0.3-1-0.4-1.7-0.4c-0.6,0-1.2,0.1-1.6,0.4c-0.5,0.3-0.7,0.6-0.7,1.1
		c0,0.4,0.1,0.7,0.4,1s0.6,0.5,0.9,0.6c0.4,0.2,0.7,0.3,1.1,0.3s0.8,0.1,1,0.2c0.6,0.1,1.1,0.3,1.6,0.5c0.5,0.2,0.9,0.4,1.3,0.8
		c0.4,0.3,0.6,0.7,0.8,1.1c0.2,0.4,0.3,1,0.3,1.6c0,0.8-0.2,1.4-0.5,2s-0.8,1-1.3,1.3c-0.5,0.3-1.1,0.6-1.8,0.8
		c-0.7,0.2-1.3,0.2-2,0.2c-1.1,0-2.1-0.2-3-0.5c-0.9-0.3-1.6-1-2.3-1.9l2-1.6c0.4,0.4,0.9,0.8,1.4,1.1c0.5,0.3,1.2,0.5,1.9,0.5
		c0.3,0,0.7,0,1-0.1c0.3-0.1,0.6-0.2,0.9-0.3c0.3-0.1,0.5-0.3,0.6-0.5s0.2-0.5,0.2-0.8c0-0.4-0.1-0.7-0.4-1s-0.5-0.4-0.9-0.6
		c-0.3-0.1-0.7-0.3-1.1-0.3c-0.4-0.1-0.7-0.2-1-0.2c-0.6-0.1-1.1-0.3-1.6-0.5s-0.9-0.4-1.3-0.7s-0.7-0.7-0.9-1.1
		c-0.2-0.4-0.3-1-0.3-1.6c0-0.7,0.1-1.3,0.4-1.9c0.3-0.5,0.7-1,1.2-1.3c0.5-0.3,1.1-0.6,1.7-0.8s1.3-0.3,1.9-0.3
		c0.9,0,1.8,0.2,2.7,0.5c0.8,0.3,1.5,0.9,2,1.7L512.9,188.1z"/>
	<path class="st0" d="M526.5,186.3c0.7-0.7,1.6-1.2,2.5-1.5c1-0.3,1.9-0.5,2.9-0.5c1,0,1.9,0.1,2.6,0.4c0.7,0.3,1.3,0.6,1.8,1
		c0.5,0.4,0.8,0.9,1,1.5c0.2,0.5,0.3,1.1,0.3,1.7v7c0,0.5,0,0.9,0,1.3s0,0.8,0.1,1.2h-2.3c-0.1-0.7-0.1-1.4-0.1-2.1h-0.1
		c-0.6,0.9-1.3,1.5-2.1,1.9s-1.7,0.5-2.7,0.5c-0.6,0-1.2-0.1-1.8-0.3c-0.6-0.2-1.1-0.4-1.5-0.8c-0.4-0.3-0.8-0.8-1-1.3
		c-0.3-0.5-0.4-1.1-0.4-1.8c0-0.9,0.2-1.6,0.6-2.2c0.4-0.6,0.9-1.1,1.6-1.5c0.7-0.4,1.5-0.6,2.4-0.8c0.9-0.2,1.9-0.2,2.9-0.2h1.9
		v-0.6c0-0.3-0.1-0.7-0.2-1c-0.1-0.3-0.3-0.7-0.6-0.9c-0.3-0.3-0.6-0.5-1-0.7c-0.4-0.2-0.9-0.2-1.4-0.2c-0.5,0-0.9,0-1.3,0.1
		c-0.4,0.1-0.7,0.2-1,0.4c-0.3,0.1-0.6,0.3-0.8,0.5c-0.3,0.2-0.5,0.4-0.7,0.5L526.5,186.3z M533.9,191.8c-0.6,0-1.2,0-1.9,0.1
		c-0.6,0.1-1.2,0.2-1.8,0.4c-0.5,0.2-1,0.5-1.3,0.8c-0.3,0.3-0.5,0.8-0.5,1.3c0,0.8,0.3,1.4,0.8,1.7c0.5,0.3,1.2,0.5,2.2,0.5
		c0.7,0,1.3-0.1,1.8-0.4c0.5-0.2,0.9-0.6,1.2-0.9s0.5-0.8,0.7-1.3s0.2-0.9,0.2-1.4v-0.9H533.9z"/>
	<path class="st0" d="M555.3,198.3c0,1-0.2,2-0.5,2.9c-0.4,0.9-0.9,1.6-1.5,2.2c-0.7,0.6-1.4,1.1-2.4,1.5c-0.9,0.3-1.9,0.5-3.1,0.5
		c-1.3,0-2.5-0.2-3.6-0.5c-1.1-0.4-2.1-1-3.1-1.9l1.8-2.2c0.7,0.7,1.4,1.3,2.2,1.7c0.8,0.4,1.7,0.6,2.7,0.6c1,0,1.8-0.1,2.4-0.4
		c0.6-0.3,1.1-0.6,1.5-1.1c0.4-0.4,0.6-1,0.8-1.5c0.2-0.6,0.2-1.1,0.2-1.7v-2h-0.1c-0.5,0.8-1.2,1.4-2,1.8c-0.9,0.4-1.8,0.6-2.7,0.6
		c-1,0-1.9-0.2-2.8-0.5c-0.9-0.4-1.6-0.8-2.2-1.5c-0.6-0.6-1.1-1.4-1.4-2.2c-0.3-0.9-0.5-1.8-0.5-2.8s0.2-1.9,0.5-2.8
		s0.8-1.6,1.4-2.3c0.6-0.7,1.3-1.2,2.2-1.5c0.9-0.4,1.8-0.5,2.9-0.5c0.9,0,1.8,0.2,2.7,0.6c0.9,0.4,1.6,1,2.1,1.7h0.1v-2h2.6V198.3z
		 M548.1,186.7c-0.7,0-1.3,0.1-1.9,0.4s-1,0.6-1.4,1c-0.4,0.4-0.7,0.9-0.9,1.5c-0.2,0.6-0.3,1.2-0.3,1.9c0,1.4,0.4,2.5,1.2,3.3
		c0.8,0.8,1.9,1.3,3.3,1.3s2.5-0.4,3.3-1.3c0.8-0.8,1.2-2,1.2-3.3c0-0.7-0.1-1.3-0.3-1.9c-0.2-0.6-0.5-1.1-0.9-1.5s-0.9-0.7-1.4-1
		S548.8,186.7,548.1,186.7z"/>
	<path class="st0" d="M559.2,186.3c0.7-0.7,1.6-1.2,2.5-1.5c1-0.3,1.9-0.5,2.9-0.5c1,0,1.9,0.1,2.6,0.4c0.7,0.3,1.3,0.6,1.8,1
		c0.5,0.4,0.8,0.9,1,1.5c0.2,0.5,0.3,1.1,0.3,1.7v7c0,0.5,0,0.9,0,1.3s0,0.8,0.1,1.2h-2.3c-0.1-0.7-0.1-1.4-0.1-2.1h-0.1
		c-0.6,0.9-1.3,1.5-2.1,1.9s-1.7,0.5-2.7,0.5c-0.6,0-1.2-0.1-1.8-0.3c-0.6-0.2-1.1-0.4-1.5-0.8c-0.4-0.3-0.8-0.8-1-1.3
		c-0.3-0.5-0.4-1.1-0.4-1.8c0-0.9,0.2-1.6,0.6-2.2c0.4-0.6,0.9-1.1,1.6-1.5c0.7-0.4,1.5-0.6,2.4-0.8c0.9-0.2,1.9-0.2,2.9-0.2h1.9
		v-0.6c0-0.3-0.1-0.7-0.2-1c-0.1-0.3-0.3-0.7-0.6-0.9c-0.3-0.3-0.6-0.5-1-0.7c-0.4-0.2-0.9-0.2-1.4-0.2c-0.5,0-0.9,0-1.3,0.1
		c-0.4,0.1-0.7,0.2-1,0.4c-0.3,0.1-0.6,0.3-0.8,0.5c-0.3,0.2-0.5,0.4-0.7,0.5L559.2,186.3z M566.6,191.8c-0.6,0-1.2,0-1.9,0.1
		c-0.6,0.1-1.2,0.2-1.8,0.4c-0.5,0.2-1,0.5-1.3,0.8c-0.3,0.3-0.5,0.8-0.5,1.3c0,0.8,0.3,1.4,0.8,1.7c0.5,0.3,1.2,0.5,2.2,0.5
		c0.7,0,1.3-0.1,1.8-0.4c0.5-0.2,0.9-0.6,1.2-0.9s0.5-0.8,0.7-1.3s0.2-0.9,0.2-1.4v-0.9H566.6z"/>
	<path class="st0" d="M573.8,179.7c0-0.5,0.2-1,0.6-1.3c0.4-0.4,0.8-0.6,1.3-0.6s1,0.2,1.3,0.6c0.4,0.4,0.6,0.8,0.6,1.3
		c0,0.5-0.2,1-0.6,1.3c-0.4,0.4-0.8,0.6-1.3,0.6s-1-0.2-1.3-0.6C574,180.7,573.8,180.3,573.8,179.7z M574.4,184.7h2.6v13.7h-2.6
		V184.7z"/>
	<path class="st0" d="M581.2,184.7h2.6v2.1h0.1c0.3-0.7,0.9-1.3,1.7-1.8c0.8-0.5,1.7-0.7,2.8-0.7c0.7,0,1.3,0.1,1.9,0.3
		c0.6,0.2,1.1,0.5,1.6,0.9c0.5,0.4,0.8,1,1.1,1.6c0.3,0.7,0.4,1.5,0.4,2.4v8.8h-2.6v-8.1c0-0.6-0.1-1.2-0.3-1.6s-0.4-0.8-0.7-1.1
		c-0.3-0.3-0.6-0.5-1-0.6c-0.4-0.1-0.8-0.2-1.2-0.2c-0.5,0-1,0.1-1.5,0.3c-0.5,0.2-0.9,0.4-1.2,0.8s-0.6,0.9-0.8,1.4
		c-0.2,0.6-0.3,1.3-0.3,2.1v7.1h-2.6V184.7z"/>
</g>
<path class="st0" d="M120.6,135.2c0,2.4,0.5,4.6,1.6,6.6c1.1,2,2.4,3.7,4.2,5.1c1.7,1.4,3.7,2.5,6,3.3c2.3,0.8,4.6,1.2,7,1.2
	c3.3,0,6.1-0.8,8.5-2.3c2.4-1.5,4.6-3.5,6.7-6l8,6.1c-5.8,7.6-14,11.3-24.6,11.3c-4.4,0-8.3-0.7-11.9-2.2c-3.5-1.5-6.5-3.5-9-6.1
	c-2.5-2.6-4.3-5.7-5.7-9.2c-1.3-3.5-2-7.4-2-11.5c0-4.1,0.7-8,2.2-11.5c1.4-3.5,3.4-6.6,6-9.2c2.5-2.6,5.6-4.7,9.1-6.1
	c3.5-1.5,7.3-2.2,11.5-2.2c4.9,0,9.1,0.9,12.5,2.6c3.4,1.7,6.2,4,8.4,6.7c2.2,2.8,3.8,5.9,4.7,9.4c1,3.5,1.5,7,1.5,10.6v3.7H120.6z
	 M153.9,126.8c-0.1-2.3-0.4-4.5-1.1-6.4c-0.7-1.9-1.7-3.6-3-5.1c-1.3-1.4-3-2.6-5-3.4c-2-0.8-4.3-1.2-7-1.2c-2.6,0-4.9,0.5-7.1,1.5
	c-2.1,1-4,2.2-5.4,3.8c-1.5,1.6-2.6,3.3-3.5,5.2c-0.8,1.9-1.2,3.8-1.2,5.7H153.9z"/>
<path class="st1" d="M228.5,159.1h-16.8v-7.7h-0.2c-0.6,1.1-1.4,2.2-2.4,3.3c-1,1.1-2.2,2.1-3.6,2.9c-1.4,0.9-3,1.6-4.8,2.1
	c-1.8,0.5-3.7,0.8-5.8,0.8c-4.4,0-8.1-0.7-10.8-2c-2.8-1.4-4.9-3.3-6.4-5.7c-1.5-2.4-2.5-5.3-3-8.5c-0.5-3.3-0.8-6.8-0.8-10.6v-31.3
	h17.5V130c0,1.6,0.1,3.3,0.2,5.1c0.1,1.8,0.5,3.4,1.1,4.9c0.6,1.5,1.5,2.7,2.7,3.6c1.2,0.9,2.9,1.4,5.2,1.4c2.3,0,4.1-0.4,5.5-1.2
	c1.4-0.8,2.5-1.9,3.2-3.3c0.7-1.4,1.2-2.9,1.5-4.6c0.2-1.7,0.4-3.5,0.4-5.4v-28.3h17.5V159.1z"/>
<path class="st1" d="M238.7,102.2h16.8v7.7h0.2c0.5-1.1,1.3-2.2,2.3-3.3c1-1.1,2.2-2.1,3.6-2.9c1.4-0.9,3-1.6,4.8-2.1
	c1.8-0.5,3.7-0.8,5.8-0.8c4.4,0,8,0.7,10.8,2c2.7,1.4,4.9,3.3,6.4,5.7c1.5,2.4,2.6,5.3,3.1,8.5c0.5,3.3,0.8,6.8,0.8,10.6v31.3h-17.5
	v-27.8c0-1.6-0.1-3.3-0.2-5.1c-0.1-1.8-0.5-3.4-1.1-4.9c-0.6-1.5-1.5-2.7-2.7-3.6c-1.2-0.9-2.9-1.4-5.2-1.4c-2.3,0-4.1,0.4-5.5,1.2
	c-1.4,0.8-2.5,1.9-3.2,3.3c-0.7,1.4-1.2,2.9-1.5,4.6c-0.2,1.7-0.4,3.5-0.4,5.4v28.3h-17.5V102.2z"/>
<path class="st1" d="M301.8,84.3c0-2.8,1-5.2,3-7.2c2-2,4.4-3,7.2-3c2.8,0,5.2,1,7.2,3s3,4.4,3,7.2c0,2.8-1,5.2-3,7.2s-4.4,3-7.2,3
	c-2.8,0-5.2-1-7.2-3C302.8,89.5,301.8,87.1,301.8,84.3z M303.2,102.2h17.5v56.8h-17.5V102.2z"/>
<path class="st1" d="M371.1,116.2h-15.4v19c0,1.6,0.1,3,0.2,4.3c0.2,1.3,0.5,2.4,1.1,3.3c0.5,0.9,1.4,1.7,2.5,2.2
	c1.1,0.5,2.6,0.8,4.5,0.8c0.9,0,2.2-0.1,3.7-0.3c1.5-0.2,2.7-0.6,3.5-1.3v14.6c-1.9,0.7-4,1.2-6.1,1.4c-2.1,0.2-4.2,0.4-6.2,0.4
	c-3,0-5.7-0.3-8.2-0.9c-2.5-0.6-4.7-1.6-6.6-3c-1.9-1.4-3.3-3.1-4.4-5.3c-1.1-2.2-1.6-4.8-1.6-8v-27h-11.2v-14h11.2V85.4h17.5v16.8
	h15.4V116.2z"/>
<path class="st1" d="M415.4,151.9h-0.2c-1.9,3-4.5,5.2-7.8,6.5c-3.2,1.3-6.7,2-10.2,2c-2.7,0-5.2-0.4-7.7-1.1
	c-2.5-0.7-4.6-1.9-6.5-3.3c-1.9-1.5-3.4-3.3-4.4-5.5c-1.1-2.2-1.6-4.7-1.6-7.6c0-3.3,0.6-6,1.8-8.3c1.2-2.3,2.8-4.1,4.9-5.6
	c2.1-1.5,4.4-2.6,7.1-3.5c2.7-0.8,5.4-1.4,8.2-1.8c2.8-0.4,5.7-0.6,8.5-0.7s5.5-0.1,7.9-0.1c0-3.1-1.1-5.6-3.3-7.4
	c-2.2-1.8-4.9-2.7-7.9-2.7c-2.9,0-5.5,0.6-7.9,1.8c-2.4,1.2-4.5,2.9-6.4,5l-9.4-9.6c3.3-3,7.1-5.3,11.5-6.8
	c4.4-1.5,8.9-2.3,13.6-2.3c5.1,0,9.4,0.6,12.7,1.9c3.3,1.3,6,3.2,8,5.7c2,2.5,3.4,5.6,4.1,9.2c0.8,3.6,1.2,7.8,1.2,12.6v28.9h-16.1
	V151.9z M411.1,134.1c-1.3,0-3,0.1-5,0.2c-2,0.1-3.9,0.4-5.7,1c-1.8,0.5-3.4,1.4-4.7,2.5c-1.3,1.1-1.9,2.6-1.9,4.6
	c0,2.1,0.9,3.7,2.7,4.7c1.8,1,3.7,1.5,5.6,1.5c1.7,0,3.4-0.2,5-0.7c1.6-0.5,3-1.1,4.3-2c1.2-0.9,2.2-1.9,3-3.3s1.1-2.9,1.1-4.7v-3.7
	H411.1z"/>
<path class="st1" d="M440.3,70.6h17.5v37.7h0.2c2-2.7,4.6-4.7,7.8-5.8c3.2-1.1,6.6-1.7,10.2-1.7c4.1,0,7.7,0.8,10.9,2.5
	c3.2,1.7,5.9,3.9,8.1,6.7c2.2,2.8,3.9,6,5.1,9.7c1.2,3.6,1.8,7.4,1.8,11.4c0,4.3-0.7,8.2-2,11.8c-1.3,3.6-3.2,6.7-5.7,9.3
	c-2.5,2.6-5.4,4.6-8.8,6.1c-3.4,1.4-7.3,2.2-11.5,2.2c-2,0-3.9-0.3-5.7-0.8c-1.8-0.5-3.5-1.2-5-2.1c-1.5-0.9-2.8-1.8-4-2.9
	c-1.1-1.1-2-2.1-2.7-3.1h-0.2v7.5h-16.1V70.6z M456.5,130.6c0,4.3,1.2,7.8,3.7,10.4c2.5,2.7,5.9,4,10.3,4c4.4,0,7.9-1.3,10.4-4
	s3.7-6.1,3.7-10.4c0-4.3-1.2-7.8-3.7-10.4c-2.5-2.7-5.9-4-10.4-4c-4.4,0-7.9,1.3-10.3,4C457.7,122.9,456.5,126.3,456.5,130.6z"/>
<path class="st1" d="M509.7,70.6h17.5v88.4h-17.5V70.6z"/>
<path class="st1" d="M590.7,149.2c-2.8,3.6-6.4,6.4-10.6,8.3c-4.3,1.9-8.7,2.9-13.3,2.9c-4.4,0-8.5-0.7-12.3-2.1
	c-3.9-1.4-7.2-3.4-10.1-6c-2.8-2.6-5.1-5.7-6.7-9.4c-1.6-3.7-2.5-7.8-2.5-12.3c0-4.5,0.8-8.6,2.5-12.3c1.6-3.7,3.9-6.8,6.7-9.4
	c2.8-2.6,6.2-4.6,10.1-6c3.9-1.4,8-2.1,12.3-2.1c4.1,0,7.7,0.7,11.1,2.1c3.3,1.4,6.1,3.4,8.4,6c2.3,2.6,4.1,5.7,5.3,9.4
	c1.2,3.7,1.9,7.8,1.9,12.3v5.5h-40.7c0.7,3.4,2.2,6,4.6,8c2.3,2,5.2,3,8.7,3c2.9,0,5.3-0.6,7.3-1.9c2-1.3,3.7-2.9,5.2-5L590.7,149.2
	z M575.9,124.2c0.1-3-0.9-5.5-2.9-7.6c-2-2.1-4.6-3.2-7.8-3.2c-1.9,0-3.7,0.3-5.2,0.9c-1.5,0.6-2.7,1.4-3.8,2.4
	c-1.1,1-1.9,2.1-2.5,3.4s-0.9,2.6-1,4H575.9z"/>
<polygon class="st0" points="45.6,91.5 45.6,76 30.4,76 30.4,89.7 30.4,89.7 30.4,91.5 15.2,91.5 15.2,76 0,76 0,91.5 15.2,91.5 
	15.3,107.1 30.4,107.1 30.4,122.9 45.6,122.9 45.6,91.5 "/>
<path class="st0" d="M81.5,121.3c3.1-0.3,5.9-1.1,8.5-2.5c2.5-1.4,4.7-3,6.4-5c1.8-2,3.1-4.2,4-6.7c0.9-2.5,1.4-5,1.4-7.7
	c0-2.6-0.4-5.2-1.2-8c-0.8-2.8-2.2-5.3-4.2-7.5c-2-2.2-4.7-4.1-8.1-5.5c-3.4-1.4-7.8-2.2-13.1-2.2H57.4v9.8h14.7
	c2.2,0,4.3,0.2,6.5,0.5c2.1,0.3,4.1,1,5.7,1.9c1.7,0.9,3,2.3,4,4c1,1.8,1.5,4,1.5,6.8c0,2.8-0.5,5.1-1.5,6.8c-1,1.8-2.4,3.1-4,4
	c-1.7,0.9-3.6,1.6-5.7,1.9c-2.1,0.3-4.3,0.5-6.5,0.5H57.4v9.8h12.5l21.1,36.5h14L81.5,121.3z"/>
</svg>
