<?xml version="1.0" encoding="utf-8"?>
<!-- Generator: Adobe Illustrator 26.5.3, SVG Export Plug-In . SVG Version: 6.00 Build 0)  -->
<svg version="1.1" id="Layer_1" xmlns="http://www.w3.org/2000/svg" xmlns:xlink="http://www.w3.org/1999/xlink" x="0px" y="0px"
	 viewBox="0 0 595.3 595.3" style="enable-background:new 0 0 595.3 595.3;" xml:space="preserve">
<style type="text/css">
	.st0{fill:#1C5C94;}
	.st1{fill:#F07F00;}
	.st2{fill:#FFFFFF;}
	.st3{fill:#3C3C3B;}
	.st4{font-family:'Avenir-Medium';}
	.st5{font-size:16.6891px;}
</style>
<rect x="95" y="208.9" class="st0" width="414" height="120.3"/>
<rect x="301.9" y="378.4" class="st0" width="173.3" height="173.3"/>
<polygon class="st1" points="215.9,445.2 215.8,406.5 177.9,406.5 178,440.6 177.9,440.6 177.9,445.2 140.1,445.2 140,406.5 
	102.2,406.5 102.3,445.2 140.1,445.2 140.3,483.9 178,483.9 178,523.4 215.9,523.4 215.8,445.2 "/>
<polygon class="st2" points="445.1,445.2 444.9,406.5 407.1,406.5 407.2,440.6 407.1,440.6 407.1,445.2 369.3,445.2 369.2,406.5 
	331.3,406.5 331.4,445.2 369.3,445.2 369.4,483.9 407.1,483.9 407.2,523.4 445.1,523.4 444.9,445.2 "/>
<g>
	<text transform="matrix(1 0 0 1 154.1909 146.084)" class="st3 st4 st5">Never lose your prized possessions again</text>
	<path class="st3" d="M192.4,109.7c0,1.4,0.3,2.7,0.9,3.8c0.6,1.1,1.4,2.1,2.4,2.9c1,0.8,2.1,1.4,3.4,1.9c1.3,0.5,2.7,0.7,4,0.7
		c1.9,0,3.5-0.4,4.9-1.3c1.4-0.9,2.7-2,3.8-3.5l4.6,3.5c-3.4,4.4-8.1,6.5-14.2,6.5c-2.5,0-4.8-0.4-6.8-1.3c-2-0.9-3.8-2-5.2-3.5
		c-1.4-1.5-2.5-3.3-3.3-5.3c-0.8-2-1.1-4.3-1.1-6.6c0-2.4,0.4-4.6,1.2-6.6c0.8-2,2-3.8,3.4-5.3c1.5-1.5,3.2-2.7,5.2-3.5
		c2-0.9,4.2-1.3,6.6-1.3c2.8,0,5.2,0.5,7.2,1.5c2,1,3.6,2.3,4.8,3.9c1.3,1.6,2.2,3.4,2.7,5.4c0.6,2,0.8,4,0.8,6.1v2.2H192.4z
		 M211.5,104.8c0-1.3-0.3-2.6-0.6-3.7c-0.4-1.1-1-2.1-1.7-2.9c-0.8-0.8-1.7-1.5-2.9-2c-1.1-0.5-2.5-0.7-4-0.7
		c-1.5,0-2.8,0.3-4.1,0.8c-1.2,0.6-2.3,1.3-3.1,2.2c-0.9,0.9-1.5,1.9-2,3c-0.5,1.1-0.7,2.2-0.7,3.3H211.5z"/>
	<path class="st1" d="M254.6,123.4h-9.7V119h-0.1c-0.4,0.6-0.8,1.3-1.4,1.9c-0.6,0.6-1.2,1.2-2.1,1.7c-0.8,0.5-1.7,0.9-2.8,1.2
		s-2.2,0.5-3.4,0.5c-2.6,0-4.6-0.4-6.2-1.2c-1.6-0.8-2.8-1.9-3.7-3.3c-0.9-1.4-1.5-3-1.8-4.9c-0.3-1.9-0.4-3.9-0.4-6.1V90.6h10.1
		v16.1c0,0.9,0,1.9,0.1,2.9c0.1,1,0.3,1.9,0.6,2.8c0.3,0.9,0.9,1.6,1.6,2.1c0.7,0.5,1.7,0.8,3,0.8c1.3,0,2.4-0.2,3.2-0.7
		c0.8-0.5,1.4-1.1,1.9-1.9c0.4-0.8,0.7-1.7,0.8-2.7c0.1-1,0.2-2,0.2-3.1V90.6h10.1V123.4z"/>
	<path class="st1" d="M260.4,90.6h9.7v4.5h0.1c0.3-0.6,0.8-1.3,1.3-1.9c0.6-0.6,1.3-1.2,2.1-1.7c0.8-0.5,1.7-0.9,2.8-1.2
		c1-0.3,2.2-0.5,3.4-0.5c2.6,0,4.6,0.4,6.2,1.2c1.6,0.8,2.8,1.9,3.7,3.3c0.9,1.4,1.5,3,1.8,4.9c0.3,1.9,0.5,3.9,0.5,6.1v18.1h-10.1
		v-16.1c0-0.9,0-1.9-0.1-2.9c-0.1-1-0.3-1.9-0.6-2.8c-0.3-0.9-0.9-1.6-1.6-2.1c-0.7-0.5-1.7-0.8-3-0.8c-1.3,0-2.4,0.2-3.2,0.7
		c-0.8,0.5-1.4,1.1-1.9,1.9c-0.4,0.8-0.7,1.7-0.8,2.7c-0.1,1-0.2,2-0.2,3.1v16.3h-10.1V90.6z"/>
	<path class="st1" d="M296.9,80.3c0-1.6,0.6-3,1.7-4.1s2.5-1.7,4.1-1.7c1.6,0,3,0.6,4.1,1.7c1.1,1.1,1.7,2.5,1.7,4.1s-0.6,3-1.7,4.1
		c-1.1,1.1-2.5,1.7-4.1,1.7c-1.6,0-3-0.6-4.1-1.7S296.9,81.9,296.9,80.3z M297.7,90.6h10.1v32.8h-10.1V90.6z"/>
	<path class="st1" d="M336.8,98.7h-8.9v10.9c0,0.9,0,1.7,0.1,2.5c0.1,0.7,0.3,1.4,0.6,1.9c0.3,0.5,0.8,1,1.4,1.2
		c0.7,0.3,1.5,0.4,2.6,0.4c0.5,0,1.2-0.1,2.1-0.2c0.9-0.1,1.5-0.4,2-0.8v8.4c-1.1,0.4-2.3,0.7-3.5,0.8c-1.2,0.1-2.4,0.2-3.6,0.2
		c-1.7,0-3.3-0.2-4.7-0.5c-1.4-0.4-2.7-0.9-3.8-1.7c-1.1-0.8-1.9-1.8-2.5-3.1c-0.6-1.3-0.9-2.8-0.9-4.6V98.7h-6.5v-8.1h6.5v-9.7
		h10.1v9.7h8.9V98.7z"/>
	<path class="st1" d="M362.4,119.3h-0.1c-1.1,1.8-2.6,3-4.5,3.8c-1.9,0.8-3.8,1.1-5.9,1.1c-1.5,0-3-0.2-4.4-0.6
		c-1.4-0.4-2.7-1.1-3.7-1.9c-1.1-0.9-1.9-1.9-2.6-3.2c-0.6-1.3-0.9-2.7-0.9-4.4c0-1.9,0.3-3.5,1-4.8c0.7-1.3,1.6-2.4,2.8-3.2
		s2.6-1.5,4.1-2s3.1-0.8,4.8-1c1.6-0.2,3.3-0.4,4.9-0.4s3.2-0.1,4.6-0.1c0-1.8-0.6-3.2-1.9-4.3c-1.3-1.1-2.8-1.6-4.6-1.6
		c-1.7,0-3.2,0.3-4.6,1c-1.4,0.7-2.6,1.7-3.7,2.9l-5.4-5.5c1.9-1.8,4.1-3.1,6.6-3.9c2.5-0.9,5.1-1.3,7.8-1.3c3,0,5.4,0.4,7.3,1.1
		c1.9,0.7,3.4,1.8,4.6,3.3c1.1,1.4,1.9,3.2,2.4,5.3c0.5,2.1,0.7,4.5,0.7,7.3v16.7h-9.3V119.3z M359.9,109c-0.8,0-1.7,0-2.9,0.1
		c-1.1,0.1-2.2,0.3-3.3,0.6c-1.1,0.3-2,0.8-2.7,1.4c-0.7,0.6-1.1,1.5-1.1,2.6c0,1.2,0.5,2.1,1.6,2.7c1,0.6,2.1,0.9,3.2,0.9
		c1,0,1.9-0.1,2.9-0.4c0.9-0.3,1.7-0.7,2.5-1.1c0.7-0.5,1.3-1.1,1.7-1.9c0.4-0.8,0.6-1.7,0.6-2.7V109H359.9z"/>
	<path class="st1" d="M376.7,72.4h10.1v21.7h0.1c1.2-1.6,2.7-2.7,4.5-3.3c1.8-0.7,3.8-1,5.9-1c2.3,0,4.4,0.5,6.3,1.4
		c1.8,1,3.4,2.3,4.7,3.9c1.3,1.6,2.3,3.5,3,5.6c0.7,2.1,1,4.3,1,6.6c0,2.5-0.4,4.7-1.1,6.8c-0.8,2.1-1.9,3.9-3.3,5.4
		c-1.4,1.5-3.1,2.7-5.1,3.5s-4.2,1.2-6.6,1.2c-1.2,0-2.3-0.2-3.3-0.5c-1-0.3-2-0.7-2.9-1.2c-0.9-0.5-1.6-1-2.3-1.7
		c-0.7-0.6-1.2-1.2-1.6-1.8H386v4.3h-9.3V72.4z M386,107c0,2.5,0.7,4.5,2.1,6c1.4,1.5,3.4,2.3,6,2.3c2.6,0,4.6-0.8,6-2.3
		s2.1-3.5,2.1-6c0-2.5-0.7-4.5-2.1-6c-1.4-1.5-3.4-2.3-6-2.3c-2.6,0-4.6,0.8-6,2.3C386.7,102.5,386,104.5,386,107z"/>
	<path class="st1" d="M416.7,72.4h10.1v51h-10.1V72.4z"/>
	<path class="st1" d="M463.5,117.7c-1.6,2.1-3.7,3.7-6.1,4.8c-2.5,1.1-5,1.7-7.7,1.7c-2.5,0-4.9-0.4-7.1-1.2c-2.2-0.8-4.2-2-5.8-3.5
		c-1.6-1.5-2.9-3.3-3.9-5.4c-0.9-2.1-1.4-4.5-1.4-7.1c0-2.6,0.5-5,1.4-7.1c0.9-2.1,2.2-3.9,3.9-5.4c1.6-1.5,3.6-2.7,5.8-3.5
		c2.2-0.8,4.6-1.2,7.1-1.2c2.3,0,4.5,0.4,6.4,1.2c1.9,0.8,3.5,2,4.9,3.5c1.3,1.5,2.4,3.3,3.1,5.4c0.7,2.1,1.1,4.5,1.1,7.1v3.2h-23.5
		c0.4,1.9,1.3,3.5,2.6,4.6c1.4,1.1,3,1.7,5,1.7c1.7,0,3.1-0.4,4.2-1.1c1.1-0.7,2.1-1.7,3-2.9L463.5,117.7z M454.9,103.3
		c0-1.7-0.5-3.2-1.7-4.4c-1.2-1.2-2.7-1.8-4.5-1.8c-1.1,0-2.1,0.2-3,0.5c-0.9,0.4-1.6,0.8-2.2,1.4c-0.6,0.6-1.1,1.2-1.4,2
		c-0.3,0.7-0.5,1.5-0.6,2.3H454.9z"/>
	<polygon class="st3" points="149.1,84.5 149.1,75.5 140.3,75.5 140.3,83.4 140.3,83.4 140.3,84.5 131.6,84.5 131.6,75.5 
		122.8,75.5 122.8,84.5 131.6,84.5 131.6,93.4 140.3,93.4 140.3,102.6 149.1,102.6 149.1,84.5 	"/>
	<path class="st3" d="M169.8,101.6c1.8-0.2,3.4-0.7,4.9-1.4c1.5-0.8,2.7-1.8,3.7-2.9c1-1.1,1.8-2.4,2.3-3.8c0.5-1.4,0.8-2.9,0.8-4.4
		c0-1.5-0.2-3-0.7-4.6c-0.5-1.6-1.2-3-2.4-4.3c-1.1-1.3-2.7-2.3-4.7-3.2c-2-0.8-4.5-1.2-7.6-1.2h-10.3v5.7h8.5
		c1.3,0,2.5,0.1,3.7,0.3c1.2,0.2,2.3,0.6,3.3,1.1c1,0.5,1.7,1.3,2.3,2.3c0.6,1,0.9,2.3,0.9,3.9s-0.3,2.9-0.9,3.9
		c-0.6,1-1.4,1.8-2.3,2.3c-1,0.5-2.1,0.9-3.3,1.1c-1.2,0.2-2.5,0.3-3.7,0.3h-8.5v5.7h7.2l12.1,21h8.1L169.8,101.6z"/>
</g>
<text transform="matrix(1 0 0 1 154.1909 308.3897)" class="st2 st4 st5">Never lose your prized possessions again</text>
<path class="st2" d="M192.4,272c0,1.4,0.3,2.7,0.9,3.8c0.6,1.1,1.4,2.1,2.4,2.9c1,0.8,2.1,1.4,3.4,1.9c1.3,0.5,2.7,0.7,4,0.7
	c1.9,0,3.5-0.4,4.9-1.3c1.4-0.9,2.7-2,3.8-3.5l4.6,3.5c-3.4,4.4-8.1,6.5-14.2,6.5c-2.5,0-4.8-0.4-6.8-1.3c-2-0.9-3.8-2-5.2-3.5
	c-1.4-1.5-2.5-3.3-3.3-5.3c-0.8-2-1.1-4.3-1.1-6.6c0-2.4,0.4-4.6,1.2-6.6c0.8-2,2-3.8,3.4-5.3c1.5-1.5,3.2-2.7,5.2-3.5
	c2-0.9,4.2-1.3,6.6-1.3c2.8,0,5.2,0.5,7.2,1.5c2,1,3.6,2.3,4.8,3.9c1.3,1.6,2.2,3.4,2.7,5.4c0.6,2,0.8,4,0.8,6.1v2.2H192.4z
	 M211.5,267.1c0-1.3-0.3-2.6-0.6-3.7c-0.4-1.1-1-2.1-1.7-2.9c-0.8-0.8-1.7-1.5-2.9-2c-1.1-0.5-2.5-0.7-4-0.7c-1.5,0-2.8,0.3-4.1,0.8
	c-1.2,0.6-2.3,1.3-3.1,2.2c-0.9,0.9-1.5,1.9-2,3c-0.5,1.1-0.7,2.2-0.7,3.3H211.5z"/>
<path class="st1" d="M254.6,285.7h-9.7v-4.5h-0.1c-0.4,0.6-0.8,1.3-1.4,1.9c-0.6,0.6-1.2,1.2-2.1,1.7c-0.8,0.5-1.7,0.9-2.8,1.2
	c-1,0.3-2.2,0.5-3.4,0.5c-2.6,0-4.6-0.4-6.2-1.2c-1.6-0.8-2.8-1.9-3.7-3.3c-0.9-1.4-1.5-3-1.8-4.9c-0.3-1.9-0.4-3.9-0.4-6.1v-18.1
	h10.1V269c0,0.9,0,1.9,0.1,2.9c0.1,1,0.3,1.9,0.6,2.8c0.3,0.9,0.9,1.6,1.6,2.1c0.7,0.5,1.7,0.8,3,0.8c1.3,0,2.4-0.2,3.2-0.7
	c0.8-0.5,1.4-1.1,1.9-1.9s0.7-1.7,0.8-2.7c0.1-1,0.2-2,0.2-3.1v-16.3h10.1V285.7z"/>
<path class="st1" d="M260.4,252.9h9.7v4.5h0.1c0.3-0.6,0.8-1.3,1.3-1.9c0.6-0.6,1.3-1.2,2.1-1.7c0.8-0.5,1.7-0.9,2.8-1.2
	c1-0.3,2.2-0.5,3.4-0.5c2.6,0,4.6,0.4,6.2,1.2c1.6,0.8,2.8,1.9,3.7,3.3c0.9,1.4,1.5,3,1.8,4.9c0.3,1.9,0.5,3.9,0.5,6.1v18.1h-10.1
	v-16.1c0-0.9,0-1.9-0.1-2.9c-0.1-1-0.3-1.9-0.6-2.8c-0.3-0.9-0.9-1.6-1.6-2.1c-0.7-0.5-1.7-0.8-3-0.8c-1.3,0-2.4,0.2-3.2,0.7
	s-1.4,1.1-1.9,1.9c-0.4,0.8-0.7,1.7-0.8,2.7c-0.1,1-0.2,2-0.2,3.1v16.3h-10.1V252.9z"/>
<path class="st1" d="M296.9,242.6c0-1.6,0.6-3,1.7-4.1c1.1-1.1,2.5-1.7,4.1-1.7c1.6,0,3,0.6,4.1,1.7c1.1,1.1,1.7,2.5,1.7,4.1
	s-0.6,3-1.7,4.1c-1.1,1.1-2.5,1.7-4.1,1.7c-1.6,0-3-0.6-4.1-1.7C297.4,245.6,296.9,244.2,296.9,242.6z M297.7,252.9h10.1v32.8h-10.1
	V252.9z"/>
<path class="st1" d="M336.8,261h-8.9V272c0,0.9,0,1.7,0.1,2.5c0.1,0.7,0.3,1.4,0.6,1.9c0.3,0.5,0.8,1,1.4,1.2
	c0.7,0.3,1.5,0.4,2.6,0.4c0.5,0,1.2-0.1,2.1-0.2c0.9-0.1,1.5-0.4,2-0.8v8.4c-1.1,0.4-2.3,0.7-3.5,0.8c-1.2,0.1-2.4,0.2-3.6,0.2
	c-1.7,0-3.3-0.2-4.7-0.5c-1.4-0.4-2.7-0.9-3.8-1.7c-1.1-0.8-1.9-1.8-2.5-3.1c-0.6-1.3-0.9-2.8-0.9-4.6V261h-6.5v-8.1h6.5v-9.7h10.1
	v9.7h8.9V261z"/>
<path class="st1" d="M362.4,281.6h-0.1c-1.1,1.8-2.6,3-4.5,3.8c-1.9,0.8-3.8,1.1-5.9,1.1c-1.5,0-3-0.2-4.4-0.6
	c-1.4-0.4-2.7-1.1-3.7-1.9c-1.1-0.9-1.9-1.9-2.6-3.2c-0.6-1.3-0.9-2.7-0.9-4.4c0-1.9,0.3-3.5,1-4.8c0.7-1.3,1.6-2.4,2.8-3.2
	c1.2-0.9,2.6-1.5,4.1-2c1.5-0.5,3.1-0.8,4.8-1c1.6-0.2,3.3-0.4,4.9-0.4c1.6,0,3.2-0.1,4.6-0.1c0-1.8-0.6-3.2-1.9-4.3
	c-1.3-1.1-2.8-1.6-4.6-1.6c-1.7,0-3.2,0.3-4.6,1c-1.4,0.7-2.6,1.7-3.7,2.9l-5.4-5.5c1.9-1.8,4.1-3.1,6.6-3.9
	c2.5-0.9,5.1-1.3,7.8-1.3c3,0,5.4,0.4,7.3,1.1c1.9,0.7,3.4,1.8,4.6,3.3c1.1,1.4,1.9,3.2,2.4,5.3c0.5,2.1,0.7,4.5,0.7,7.3v16.7h-9.3
	V281.6z M359.9,271.3c-0.8,0-1.7,0-2.9,0.1c-1.1,0.1-2.2,0.3-3.3,0.6c-1.1,0.3-2,0.8-2.7,1.4c-0.7,0.6-1.1,1.5-1.1,2.6
	c0,1.2,0.5,2.1,1.6,2.7c1,0.6,2.1,0.9,3.2,0.9c1,0,1.9-0.1,2.9-0.4c0.9-0.3,1.7-0.7,2.5-1.1c0.7-0.5,1.3-1.1,1.7-1.9
	c0.4-0.8,0.6-1.7,0.6-2.7v-2.2H359.9z"/>
<path class="st1" d="M376.7,234.7h10.1v21.7h0.1c1.2-1.6,2.7-2.7,4.5-3.3c1.8-0.7,3.8-1,5.9-1c2.3,0,4.4,0.5,6.3,1.4
	c1.8,1,3.4,2.3,4.7,3.9c1.3,1.6,2.3,3.5,3,5.6c0.7,2.1,1,4.3,1,6.6c0,2.5-0.4,4.7-1.1,6.8c-0.8,2.1-1.9,3.9-3.3,5.4
	c-1.4,1.5-3.1,2.7-5.1,3.5c-2,0.8-4.2,1.2-6.6,1.2c-1.2,0-2.3-0.2-3.3-0.5c-1-0.3-2-0.7-2.9-1.2c-0.9-0.5-1.6-1-2.3-1.7
	c-0.7-0.6-1.2-1.2-1.6-1.8H386v4.3h-9.3V234.7z M386,269.3c0,2.5,0.7,4.5,2.1,6c1.4,1.5,3.4,2.3,6,2.3c2.6,0,4.6-0.8,6-2.3
	c1.4-1.5,2.1-3.5,2.1-6c0-2.5-0.7-4.5-2.1-6s-3.4-2.3-6-2.3c-2.6,0-4.6,0.8-6,2.3C386.7,264.8,386,266.9,386,269.3z"/>
<path class="st1" d="M416.7,234.7h10.1v51h-10.1V234.7z"/>
<path class="st1" d="M463.5,280.1c-1.6,2.1-3.7,3.7-6.1,4.8c-2.5,1.1-5,1.7-7.7,1.7c-2.5,0-4.9-0.4-7.1-1.2c-2.2-0.8-4.2-2-5.8-3.5
	c-1.6-1.5-2.9-3.3-3.9-5.4c-0.9-2.1-1.4-4.5-1.4-7.1c0-2.6,0.5-5,1.4-7.1c0.9-2.1,2.2-3.9,3.9-5.4c1.6-1.5,3.6-2.7,5.8-3.5
	c2.2-0.8,4.6-1.2,7.1-1.2c2.3,0,4.5,0.4,6.4,1.2c1.9,0.8,3.5,2,4.9,3.5c1.3,1.5,2.4,3.3,3.1,5.4c0.7,2.1,1.1,4.5,1.1,7.1v3.2h-23.5
	c0.4,1.9,1.3,3.5,2.6,4.6c1.4,1.1,3,1.7,5,1.7c1.7,0,3.1-0.4,4.2-1.1c1.1-0.7,2.1-1.7,3-2.9L463.5,280.1z M454.9,265.6
	c0-1.7-0.5-3.2-1.7-4.4c-1.2-1.2-2.7-1.8-4.5-1.8c-1.1,0-2.1,0.2-3,0.5c-0.9,0.4-1.6,0.8-2.2,1.4c-0.6,0.6-1.1,1.2-1.4,2
	c-0.3,0.7-0.5,1.5-0.6,2.3H454.9z"/>
<polygon class="st2" points="149.1,246.8 149.1,237.8 140.3,237.8 140.3,245.7 140.3,245.7 140.3,246.8 131.6,246.8 131.6,237.8 
	122.8,237.8 122.8,246.8 131.6,246.8 131.6,255.7 140.3,255.7 140.3,264.9 149.1,264.9 149.1,246.8 "/>
<path class="st2" d="M169.8,263.9c1.8-0.2,3.4-0.7,4.9-1.4c1.5-0.8,2.7-1.8,3.7-2.9c1-1.1,1.8-2.4,2.3-3.8c0.5-1.4,0.8-2.9,0.8-4.4
	c0-1.5-0.2-3-0.7-4.6c-0.5-1.6-1.2-3-2.4-4.3c-1.1-1.3-2.7-2.3-4.7-3.2c-2-0.8-4.5-1.2-7.6-1.2h-10.3v5.7h8.5c1.3,0,2.5,0.1,3.7,0.3
	c1.2,0.2,2.3,0.6,3.3,1.1c1,0.5,1.7,1.3,2.3,2.3c0.6,1,0.9,2.3,0.9,3.9s-0.3,2.9-0.9,3.9c-0.6,1-1.4,1.8-2.3,2.3
	c-1,0.5-2.1,0.9-3.3,1.1c-1.2,0.2-2.5,0.3-3.7,0.3h-8.5v5.7h7.2l12.1,21h8.1L169.8,263.9z"/>
</svg>
