<svg xmlns="http://www.w3.org/2000/svg" fill="none" viewBox="0 0 514 1027">
  <path fill="#FFDBB4" fill-rule="evenodd" d="M378.606 938.556c2.196-10.223-7.85-13.679-14.183-15.954-4.537-2.942-21.345-13.13-34.351-25.707-10.643-10.292-17.888-23.483-20.904-24.74 0 0-3.104-1.8-3.427-3.137-1.889-7.837-.313-15.142 0-19.893 6.055-1.589 10.907-3.572 14.535-6.344 1.058.353 2.645.804 3.118-.743 3.279-21.875 4.694-43.49 7.362-65.382 10.1-83.377 11.239-180.783-6.136-256.936-.182-3.775.147-7.184.484-10.427 2.349-.254 3.77-2.527 5.688-3.886 2.977-2.366 6.503-4.184 6.357-8.319.708-.535.625-.837.277-1.519 2.271-9.764-7.859-20.054-10.725-28.104 5.208-50.926-1.878-99.051 2.076-149.99 4.993-2.089 1.636-15.145 1.295-20.531-2.767-34.693-20.805-68.994-53.288-80.328-1.857-.376-4.648-2.498-6.185-1.074-2.969-1.176-6.92 1.143-9.218-1.527l.023-.017c-1.935-2.683-2.803-6.093-3.439-9.318a21.7 21.7 0 0 0 .503 2.691c-5.6-15.779-7.011-19.999-25.038-20.742-8.121-.108-18.826.136-23.561 7.879-1.94 3.6-1.347 7.733-2.552 11.522-2.21 6.953-11.752 3.593-16.761 7.204-40.092 12.856-72.978 39.098-83.787 81.218-2.21 5.077-4.717 10.13-6.564 15.369-.286.777-1.073 3.409.816 4.62l.914.586c-12.034 56.234-12.832 103.619 27.597 141.108 3.034 16.109-4.771 38.108-1.771 53.749-1.709 2.425.458 4.378 2.644 4.534.211.117 1.062.489 1.294.596-3.478 49.09 11.125 115.25 17.562 141.362.876 15.678-4.476 28.557-15.486 37.102-12.165 7.49-36.215 41.322-31.756 76.81-5.21 1.022-10.383 1.582-15.382 3.54-21.872-3.859-21.655 38.297-23.049 53.12-2.36 24.818-3.827 60.79 19.755 76.676 6.213 4.507 18.81 9.782 25.265 2.57 2.115-2.541 2.645-4.995 1.813-7.59 10.659-15.056 7.786-34.751 8.766-52.411 3.091-.186 6.325 1.264 9.314.736 3.069-2.704-8.126-1.967-9.287-2.126.119-2.723.338-5.591.621-8.336 1.756.351 4.005 1.194 5.694 1.259.999.243 1.706-1.133 1.102-1.846-1.318-1.257-4.678-1.062-6.569-1.241.32-2.298.71-4.714 1.144-6.937 2.313-.083 4.702 1.39 6.892 1.089-1.657-1.106-4.769-.77-6.79-1.5 1.314-7.159 3.992-13.955 6.481-20.651 6.108 2.519 11.377 2.618 17.339 1.863 2.439.375 3.628-.124 4.023-3.174l-.155-.193c4.726-28.273 19.976-55.227 48.302-85.794 5.595-6.26 11.918-13.632 16.131-21.873 8.465-17.152 9.911-36.078 16.434-53.89 6.089-17.904 14.416-35.03 22.234-52.002 1.146 8.698 2.686 17.622 4.287 26.151 7.046 30.224 6.363 62.471 1.178 92.863-7.672 42.566-3.974 85.335-5.681 128.202.024 2.473.33 4.719-.032 7.293-.048.198.045.433.28.426l.443.013c3.687 2.699 8.78 3.187 13.113 4.651 1.82 1.44 1.307 3.721 1.474 5.5.476 7.668 1.084 15.365.329 23.268-3.343 6.405-7.496 5.082-8.345 14.111-.743 10.308-2.059 21.27 2.962 30.449l-1.899.327c-2.82 5.915-1.099 9.755 5.527 12.256 32.711 12.823 78.739 24.465 112.873 14.786.621.615 1.523-.023 2.228-.989.678-.929 1.174-2.162 1.064-2.877-.584-3.139.219-8.871-3.292-9.451Z" clip-rule="evenodd"/>
  <path fill="#78E185" fill-rule="evenodd" d="m130.651 458.9 2.473 2.56 1.184 1.219 1.729 1.772c3.699 3.777 7.555 7.632 13.154 13.167l14.448 14.255 2.783 2.764 1.361 1.355-5.605.699-1.178.15-.913.12-.912.123c-5.872.807-9.758 1.594-13.618 2.863-5.648 1.856-10.048 4.537-13.333 8.395l-.156.184-1.343 1.611-.302-2.076c-.306-2.099-.428-4.274-.419-6.825l.009-.99.015-.789.017-.65c.011-.365.024-.763.04-1.22l.125-3.419.031-1.013.011-.48c.006-.232.01-.456.013-.678l.007-.695-.03-.736-.037-.962-.023-.688c-.243-7.409-.118-14.489.338-26.579l.131-3.437Zm61.96-245.55-.26 1.508c-1.453 8.443 2.347 15.426 10.507 20.533 7.468 4.674 18.244 7.478 29.79 7.923 11.45.441 22.619-1.484 30.775-5.425 8.742-4.224 13.503-10.431 13.314-18.152l-.007-.234-.055-1.48 1.361.585c17.054 7.325 30.282 21.303 38.59 39.637 7.587 16.746 10.623 36.316 8.679 54.668l-.061.555-.121 1.085-1.053-.285c-1.88-.507-6.711.934-14.204 4.362l-.629.29-3.431 2.385-.059 1.766c-2.29 72.043 4.61 123.431 20.656 154.133l.489.924.505.93c.289.543.616 1.108 1.028 1.782l.479.775.729 1.165.395.639.193.317c.781 1.289 1.253 2.167 1.701 3.185.713 1.617 1.111 3.152 1.167 4.707l.005.194v.064l.032.06c.236.48.223 1.056-.039 1.546l-.041.073-.015.023-.065.504-.428.084-.058.056c-.626.581-1.466.953-2.558 1.225l-.15.036-.148.034c-.231.052-.468.099-.741.149l-1.016.177-1.227.241-1.54.3-.42.085-.436.091c-2.574.546-4.302 1.079-5.909 1.894-8.106 4.254-16.142 6.299-24.628 6.537-6.762.19-13.463-.702-22.211-2.692l-1.782-.413-1.035-.246-1.272-.309-1.3-.321-6.154-1.534-1.939-.477-1.128-.272c-4.39-1.055-7.356-1.676-10.737-2.243-5.921-.993-11.312-1.396-16.62-1.147l-.408.021-.239.013-.215-.103c-10.916-5.218-19.879-12.798-28.025-23.079l-.551-.699-.343-.441c-5.586-7.196-9.81-14.09-17.835-28.36l-2.097-3.733-1.475-2.61-.962-1.69c-4.212-7.382-6.933-11.82-10.282-16.705-5.402-7.881-10.892-14.276-17.06-19.592l-.315-.269-.037-.034c-1.224-1.165-2.049-2.216-2.57-3.395l-.059-.136-.091-.219.162-1.656.17-1.774c1.36-14.412 2.799-34.08 4.318-59.002l.273-4.53-7.408-2.876-3.422-1.316-.743-.282-.877-.329-.892-.332-.877-.324c-3.773-1.386-7.161-2.546-10.417-3.548l-.735-.225c-7.92-2.394-14.602-3.68-20.152-3.706h-.255l-1.168.003.042-.189-.035-.004a4.14 4.14 0 0 1-.753-.159l-.115-.039-.111-.043c-.953-.389-1.416-1.245-1.046-2.268l.029-.079.197-.71c6.861-24.726 16.15-44.119 29.012-59.507l.391-.465.401-.473c14.264-16.695 32.996-28.699 57.453-36.444l.742-.233 1.462-.456Z" clip-rule="evenodd"/>
  <path fill="#fff" fill-rule="evenodd" d="M320.165 952.105c-5.877-1.059-39.641-8.738-58.993-18.724-3.952-2.039-2.979-6.859-1.692-9.988.59-1.434 1.986-2.512 1.692-2.807-6.187-6.186-1.56-22.468-1.56-25.589 0-4.638 7.52-10.918 6.242-13.418-1.475-2.887.339 6.985 4.058 12.482 3.241 4.791 8.329 5.162 8.834 4.952l.091-.039.065-.035c1.4-.766 22.532-31.202 31.274-26.722 4.115 2.108 6.325 11.432 10.925 15.291 10.315 8.654 15.294 22.468 53.686 40.256 4.109 1.904 4.145 5.976 3.308 9.162-.309 1.174 3.871 1.136 3.247 1.76-1.586 1.586 2.814 10.697-.624 12.171-13.526 5.797-48.646 3.394-60.553 1.248Zm-219.42-181.309s2.218 2.777 2.178 4.057c-.331 10.547-2.84 18.316-2.919 23.502l-.005.351.009.128c.152 2.104 3.366 10.184 10.406 11.906 3.976.973 15.606-3.432 15.606-3.432s-6.644 18.349-7.803 34.951c-.91 13.037-.175 27.823-1.873 39.32-.926 6.275-4.281 13.258-8.115 18.099-.939 1.187 3.145 3.432 2.185 4.369-1.798 1.754-6.243 7.802-19.976 3.121-3.998-1.363-15.63-8.934-22.161-23.405-4.772-10.571-5.221-25.97-5.93-39.632-.785-15.098 2.13-38.659 5.93-51.49 4.225-14.269 9.479-17.057 10.567-17.847.255-.185 8.163-1.747 8.924-1.832l.133-.014.105-.01.058-.023c3.105-1.201 6.654-1.78 11.322-2.048l.288-.016 1.071-.055Z" clip-rule="evenodd"/>
  <path fill="#000" fill-rule="evenodd" d="M380.165 948.824c-29.393 13.197-82.768-3.454-111.649-13.088-7.787-2.809-10.381-3.359-8.199-12.336 4.082 7.878 12.862 9.78 21.274 11.359 28.495 6.495 57.544 18.485 88.018 12.635 4.473-.704 8.898-3.126 10.2-7.594.802 1.894.306 4.458.627 6.541.06.83.078 1.728-.271 2.483ZM261.284 899.74c.531-5.291 1.38-10.879 4.392-15.554-.328 7.561 4.214 20.412 14.164 16.131 2.819-1.494 4.398-4.501 6.212-6.916 6.027-7.946 13.755-14.845 22.486-19.858 4.856.835 6.945 9.714 10.075 13.431-3.49 1.555-9.813 5.097-10.453 8.762 4.357-1.466 8.368-4.195 12.938-5.154a89.153 89.153 0 0 0 4.644 5.871c-2.129.938-10.712 5.275-10.656 7.441 4.641-.754 9.139-3.026 13.805-3.959 2.076 2.058 3.965 4.273 6.031 6.338-3.122 1.285-6.418 2.72-8.122 5.716-.081.135.119.287.228.156 2.338-2.818 6.361-3.336 9.848-3.97 5.349 5.037 11.339 9.479 18.044 12.803 6.707 3.667 16.902 4.506 19.57 12.461 2.135 7.953-4.523 8.802-10.665 9.363-6.215.884-12.473 1.018-18.647.502-19.299-.804-37.543-6.485-55.78-11.448-22.299-4.103-29.534-7.426-28.114-32.116Zm6.539-46.507c-.053.35-.099.699-.149 1.052-.063-.371-.106-.746-.197-1.111.116.019.231.041.346.059Zm36.026 17.762c-8.543 6.317-16.883 13.355-22.816 22.166-3.927 7.168-9.152 2.805-10.45-2.938-1.052-12.821-.147-23.892-1.38-36.79 11.814 1.61 23.949.618 35.489-2.231-1.389 5.757-2.026 7.943-2.07 13.85.076 1.946.047 4.322 1.227 5.943Zm19.125-471.91c.252 18.87.371 37.747-.285 56.611-16.614-42.934-11.529-89.522-13.889-134.649 4.91-1.635 10.184-2.35 15.244-3.049-2.032 28.011-1.508 53.032-1.07 81.087Zm-93.898 95.335c-40.796-19.501-46.439-69.5-78.741-97.046-1.043-.992-1.907-2.012-2.41-3.214 2.316-23.395 2.148-43.907 4.885-67.277 3.059-5.549 4.267-11.993 6.545-17.897 1.193-3.595 2.641-7.156 2.984-10.929.287-1.242-1.654-1.782-2.016-.608-4.311 8.375-6.455 17.691-9.673 26.522-.453.181-1.055.037-1.233-.437-.028.116-.059.231-.087.346-13.849-5.411-28.129-10.451-43.218-10.413.01-.047.023-.097.032-.144-.931.028-2.881-.046-2.298-1.395 13.263-48.354 37.075-81.498 87.587-97.242-6.458 37.52 87.536 39.692 86.238 4.769 35.408 15.21 50.662 57.928 46.648 93.896-3.365-.908-12.127 2.665-15.544 4.741-.697-14.605 1.033-32.23.015-45.29-5.387 66.588-15.441 146.264 17.786 206.683 2.156 4.05 5.674 7.926 5.586 12.682.259.262.284.721-.031 1.058 0 .022 0 .043-.003.065-.016.003-.034.003-.053.003-.964 1.149-2.993 1.377-4.389 1.629-3.295.665-6.763 1.171-9.782 2.7-32.158 16.879-57.381-4.881-88.828-3.202Zm10.163 30.682c1.554 2.968 4.164 5.355 7.257 6.847-.381.749-.512 1.591-.553 2.381-5.572 1.139-4.005 3.782-7.769 5.043-2.463.68-4.832.97-6.96 2.462-7.245 6.747-9.043 6.25-16.818.315.107-.537-10.475-10.869-13.752-16.645-2.731-4.819-5.591-9.671-9.776-13.397-20.498-20.983-42.334-40.787-62.176-62.351-39.765-39.616-32.178-84.538-23.044-134.021 14.741 1.76 29.564 5.295 42.839 11.786-4.682 21.842-4.982 41.639-6.998 63.802-.609 2.739.078 8.016 3.961 6.799 35.692 28.333 39.84 86.554 86.678 103.39 19.09 7.758 11.034 14.055 17.342 28.704-3.471-.637-6.567-3.545-8.059-6.329-.74-1.382-2.894-.165-2.172 1.214Zm-107.885-17.189c-.808-5.551-.178-11.078-.14-16.639-.434-10.126-.097-19.997.293-30.158 11.193 11.594 22.829 22.794 34.259 34.171-12.173 1.536-26.212 2.8-34.412 12.626Zm-.206 8.167c.191-.062.378-.146.55-.249-.044 4.356.025 8.712.184 13.062-.306-4.269-.55-8.541-.734-12.813Zm-13.693 309.661c-3.283-.253-17.326-.737-19.011 1.466 1.897.802 4.506.359 6.548.45 3.964.162 7.919.511 11.842 1.067a96.924 96.924 0 0 0-.777 4.587c-3.958.378-11.664.549-14.177 3.317 4.482.715 9.148.072 13.646.965a133.11 133.11 0 0 0-.496 6.297c-1.792.191-12.329 1.935-12.32 3.592 3.945.524 8.125-.165 12.145.225-.871 12.585 2.082 50.591-15.123 52.916-15.041-.792-21.64-25.165-23.684-36.858-4.532-27.243-3.755-56.29 5.229-82.55 3.208-7.302 11.942-8.569 19.327-8.947.28 1.236.558 2.45.87 3.673-3.202 7.259-4.223 15.432-4.31 23.287.677 11.29 14.61 19.685 24.73 12.226-1.892 4.619-3.352 9.425-4.439 14.287Zm-19.904 81.22c-29.793-6.403-34.681-40.899-32.633-66.263 1.67-17.657-.337-54.883 15.965-65.256-21.069 19.23-19.24 150.14 27.452 127.291-1.165 3.688-7.151 4.753-10.784 4.228Zm5.837-123.078c.053-.455.112-.908.174-1.363 3.306 8.978 8.968 17.51 17.399 22.709-3.228 4.025-9.514 5.224-13.756 1.928-7.398-5.545-4.313-15.578-3.817-23.274ZM204.942 210.33c-.059.103-.122.206-.184.306a28.93 28.93 0 0 0-1.249.112c.478-.143.955-.278 1.433-.418Zm56.617 3.295a3.074 3.074 0 0 1-.044-.137c.038.022.075.047.116.072a.301.301 0 0 0-.072.065ZM383.058 943.36c-.081-2.233-.112-5.118-2.728-5.91 1.186-9.624-6.804-15.102-15.194-17.769-7.154-4.376-15.267-7.432-21.84-12.707 3.053-.573 6.105-1.265 8.818-2.593 2.047-1.002 1.061-4.337-1.158-4.028-3.93.518-7.46 2.516-11.153 3.904-2.097-1.723-4.129-3.521-6.048-5.426 2.39-.461 5.43-.291 6.823-2.664.434-.742.24-1.512-.284-2.085-2.422-2.451-7.223-.003-10.232.711a157.526 157.526 0 0 1-4.211-5.083c2.273-.209 8.184.206 7.026-3.544-2.219-2.933-6.991-1.173-10.2-.57-4.07-5.004-5.381-12.681-11.743-15.433-.227-1.214-1.813-1.121-2.871-.76-1.557-7.435-1.439-11.214-.983-18.835 4.722-1.307 9.407-3.024 13.334-5.838 1.804.53 3.992-.082 4.367-2.2 1.123-7.466 1.75-16.084 2.537-23.711h.287c1.495-13.911 2.7-27.863 4.392-41.738 9.685-80.204 11.795-178.098-6.133-257.334-.141-3.002.072-6.007.374-8.987 2.138-.572 3.412-2.659 5.182-3.867 3.289-2.681 6.636-4.182 6.938-8.859.665-.634.743-1.592.378-2.422.852-4.803-.403-9.571-2.959-13.721-2.803-4.728-5.45-9.5-7.787-14.461 5.112-50.012-1.823-98.481 1.969-148.742 4.863-2.575 1.81-16.88 1.358-21.648-2.841-31.316-17.464-65.892-48.555-78.918-2.182-1.841-5.228-2.465-7.894-3.479-1.801-.887-4.732-1.654-5.965.409-1.307-.609-5.518-1.074-6.96-2.129-.269-.196-.44-.412-.481-.652a1.66 1.66 0 0 1-.365-.047c-1.33-1.878-2.597-14.963-4.236-14.03-1.788 4.494-.549 9.571 1.162 14.108 1.179 4.013 2.796 14.336 9.064 11.696 1.08-.536.412-1.931-.556-2.044-2.971-.848-3.633-5.214-4.782-7.773 1.361 1.13 7.56 2.824 8.238 3.183 13.446 30.857-67.854 29.237-74.247 7.964-4.557-7.349-.624-11.331 7.501-12.511-5.971 6.635 1.589 8.108 4.463 1.601 2.75-4.659 4.002-10.32 3.062-15.681.484-1.882.893-4.397-1.923-3.892-.096-.249-.249-.053-.19.125-1.027 1.635-.312 3.985-.677 5.873-.309 3.09-1.186 6.117-2.675 8.85a253.912 253.912 0 0 0-8.25 1.711c-1.642-3.336-12.292 3.317-15.151 4.1-37.983 11.219-66.867 41.096-76.948 78.78-2.251 5.018-4.68 10.061-6.521 15.235-.824 2.241-.824 5.021 1.439 6.473-11.028 50.576-13.718 103.271 27.942 141.205.945 4.107.315 8.463.287 12.645.349 9.524-7.791 42.166 1.664 46.388-2.763 42.285 7.597 99.82 17.638 140.613.743 14.021-3.486 26.775-14.87 35.622-21.643 16.177-30.76 43.18-33.292 68.913-.359 2.636-.006 5.32.587 7.91-4.691.874-9.083 1.442-13.637 3.161-25.117-4.812-23.325 49.141-25.248 65.15-1.504 23.667-.565 52.036 21.187 67.534 7.314 5.205 20.223 10.204 27.349 2.321 2.016-2.412 3.115-5.233 2.322-8.316 10.216-14.957 7.804-34.074 8.568-51.094 2.675.093 5.591 1.285 8.225.63 2.029-.537 2.288-3.139.571-4.175-2.478-1.405-5.846-.871-8.618-.965.085-1.629.207-3.258.363-4.886 2.631.642 6.401 2.187 7.184-1.489.316-3.349-3.914-3.604-6.548-3.748.184-1.264.39-2.521.625-3.776 2.016.203 4.144 1.489 6.127.874 1.123-.443 1.513-1.579.692-2.5-1.526-1.495-4.135-1.195-6.155-1.66 1.227-6.007 3.443-11.752 5.578-17.497 3.864 1.342 8.05 2.228 12.173 1.891 2.138-.45 4.473-.578 6.633-.287 2.403-.637 2.959-3.205 3.274-5.302a2.089 2.089 0 0 0-.147-.212c5.553-32.33 25.473-60.26 47.809-84.323 6.152-6.884 12.185-14.043 16.365-22.219 8.49-17.089 10.013-36.315 16.508-54.068 5.472-16.121 12.785-31.581 19.955-47.062 2.874 20.39 8.243 40.446 8.858 61.123.937 26.161-4.829 51.94-7.288 77.891-3.554 27.444-1.661 55.025-1.886 82.535h.153c-.059 6.634-.239 13.555-.652 20.169.016 2.418.328 4.696-.015 7.115-.191 1.338.771 2.178 1.782 2.206 3.714 2.437 8.381 3.302 12.65 4.344 1.183.905.672 3.133.881 4.497.458 7.661 1.064 13.442.318 21.166-4.176 6.174-7.185 5.188-8.346 14.573-.64 9.796-2.048 20.39 2.234 29.283-1.916.436-2.643 6.284-2.356 7.831.487 4.364 4.335 5.744 8.056 7.251 27.189 10.185 84.962 26.953 112.9 15.422 2.001 1.132 4.233-1.087 4.879-2.874.855-2.175.068-4.282-.091-6.442Z" clip-rule="evenodd"/>
  <path fill="#FFDBB4" fill-rule="evenodd" d="M284.145 110.227c-1.202-7.289 2.745-8.801 0-15.73-6.099-12.84-22.72-12.287-34.918-13.274-13.604-.523-27.373 1.277-39.915 6.74a64.207 64.207 0 0 0-8.639 4.583c-2.389 1.507-2.06 4.374-.555 5.938-10.859 15.407-4.648 36.088-13.313 52.305-1.6 2.899-3.717 5.499-5.109 8.515-2.115 4.585-2.25 11.155 2.546 14.2 6.755 3.633 10.524-3.559 13.843 6.866 16.576 36.353 49.903 38.4 81.541 19.447 2.737-1.525 5.531-3.249 7.598-5.646 4.691-5.29 4.139-12.729 4.243-19.335.057-3.871.067-7.743.029-11.615-.147-15.683-5.335-37.439-7.351-52.994Z" clip-rule="evenodd"/>
  <path fill="#000" fill-rule="evenodd" d="M216.759 66.628c19.103-8.682 40.769-11.974 61.606-9.815 10.285 1.065 20.435 3.348 30.094 7.056l.847.328c2.384.92 4.954 1.832 6.766 3.704 2.109 2.175 2.701 5.464 1.193 8.151-1.171 2.088-3.277 3.585-5.522 4.385a18.794 18.794 0 0 1 2.245 2.18c1.187 1.355 1.277 3.287 0 4.623a19.394 19.394 0 0 1-9.091 5.33c.386 1.869.177 3.938-.651 5.8-2.378 5.349-9.075 5.986-14.228 5.668l-.156-.009-.287 3.286c-.152 1.75-1.199 3.108-2.974 3.376a4.129 4.129 0 0 1-.187.022c2.809 10.179 4.507 20.674 6.074 31.106.818 5.446 1.551 10.905 2.252 16.367l.233 1.82c.748 5.889 1.682 11.837 2.006 17.769.29 5.383-.735 10.523-4.046 14.867-2.971 3.895-7.024 6.812-11.381 8.978-9.846 4.896-20.208 8.541-31.097 10.233l-.727.112c-4.203.642-8.533 1.184-12.692.019-3.653-1.024-7.484-3.664-6.659-7.905.277-1.432 2.277-1.495 2.962-.387l.158.254c.822 1.306 1.723 2.52 3.157 3.194 1.678.793 3.625 1.014 5.459 1.037 5.124.059 10.46-1.221 15.393-2.503 9.214-2.397 18.676-6.304 26.223-12.224 3.211-2.515 5.79-5.661 6.7-9.708 1.124-4.99.09-10.445-.421-15.46-1.051-10.347-2.302-20.676-3.622-30.993l-.265-2.063c-1.112-8.626-2.28-17.254-2.834-25.93a2.436 2.436 0 0 1-.449-1.067l-.087-.565a4.738 4.738 0 0 1-.034-1.336 83.47 83.47 0 0 1 .137-4.69c.015-.281.028-.562.037-.839a72.46 72.46 0 0 1-4.909.895 156.514 156.514 0 0 1-34.959 1.314c-5.815-.434-11.586-1.179-17.34-2.113a230.917 230.917 0 0 1-8.755-1.585c-2.103-.421-4.161-.992-6.229-1.529-2.134 3.111-3.287 6.94-3.062 10.701.252 4.291 3.105 8.182 2.305 12.567-.752 4.103-4.26 5.375-7.725 6.391l-1.473.427c-1.133.331-1.957.651-2.162 2.016-.352 2.344.081 4.981.172 7.337.109 2.786.252 5.573.317 8.36.035 1.442.09 2.889.088 4.331-.004 1.024-.156 1.723-.552 2.384.305.384.579.799.823 1.239.077.144-.116.296-.231.178a8.187 8.187 0 0 0-.981-.871 8.189 8.189 0 0 1-.614.668l-.018-.025c-.742.74-1.919.812-2.838.025l-.241-.209c-.673-.591-1.135-1.083-1.322-2.059-.01-.05-.019-.1-.025-.15a9.645 9.645 0 0 0-4.987 1.198c-2.439 1.351-4.155 3.277-5.17 5.655.404.474.878.898 1.429 1.254.078.053.01.169-.075.128a6.826 6.826 0 0 1-1.52-.977 13.804 13.804 0 0 0-.775 3.006c-.548 3.757.43 8.347 3.819 10.488a9.173 9.173 0 0 0 4.88 1.436c.847.002 1.579-.141 2.402-.344.557-.137 1.112-.337 1.694-.337.498 0 .959.125 1.386.375l-.118.01c-.288.027-.232.039.168.039 1.246.054 1.959 1.321 1.386 2.422l-.075.17a5.628 5.628 0 0 1-.04.086l-.045.292-.014.086-.018.059-.01.028 1.868 2.855c2.291 3.492 4.633 6.971 7.298 10.161 1.869 2.238 3.85 4.432 5.943 6.463 1.881 1.826 4.136 2.706 6.267 4.141 1.137.762 1.47 2.356.436 3.383-3.034 3.018-7.329.621-9.818-1.832-2.354-2.325-4.388-5.121-6.142-7.92-3.111-4.977-5.588-10.27-6.672-16.015-.451.415-1.027.674-1.61.877-1.168.405-2.454.574-3.688.618-2.364.078-4.731-.497-6.858-1.514-8.656-4.135-9.927-16.517-4.635-23.82-.713-2.073-1.112-4.322-1.545-6.241l-.197-.857c-2.189-9.578-3.658-19.663.222-29.048a27.753 27.753 0 0 1 1.723-3.52c.532-.908 1.448-1.875 1.7-2.908.561-2.269-2.9-4.653-3.909-6.454-1.187-2.113-1.355-4.606.262-6.538.205-.243.429-.468.673-.664-1.533-2.784-1.604-6.285.414-9.031a8.84 8.84 0 0 1 5.563-3.461c1.351-.234 2.977-.147 4.463.271 8.135-7.567 17.418-13.89 27.524-18.483Zm-31.24 94.689c2.171-1.919 4.57-2.924 7.529-2.671 2.974.255 6.556 1.488 8.303 4.044 1.38 2.019-1.432 4.981-3.457 3.464-1.844-1.382-3.074-2.943-5.363-3.685-2.056-.665-4.601-1.093-6.753-.712-.237.041-.474-.253-.259-.44Z" clip-rule="evenodd"/>
  <path fill="#000" fill-rule="evenodd" d="M267.116 189.16c-2.3.666-4.768.725-7.112.037-2.125-.623-4.308-1.996-5.873-3.812-1.39-1.614-2.29-3.575-2.254-5.668a.92.92 0 0 1 .221-.593c.141-.167.339-.281.551-.331.218-.051.448-.033.644.056.178.081.33.218.425.418.24.316.48.627.72.929 1.933 2.387 3.806 4.171 6.713 4.81 1.577.348 3.153.194 4.598-.336 1.547-.567 2.946-1.564 4.042-2.84.495-.576 1.08-.812 1.652-.816.648-.004 1.288.297 1.771.778.474.473.792 1.116.821 1.788.025.59-.168 1.206-.68 1.756a13.818 13.818 0 0 1-6.239 3.824Zm-.071-29.893c2.357 1.432 5.948 4.772 3.412 8.323-2.984 3.131-7.281-.459-9.399-2.082-1.964-1.259-4.17 1.978-2.348 3.447 15.302 11.326 21.512-9.314 9.527-11.372-1.32-.227-1.81 1.241-1.192 1.684Zm-22.049-6.303c-.758-.484-1.649-.651-2.636-.201-.772.35-2.126 1.52-3.068 3.058-.644 1.052-1.101 2.286-1.006 3.572a.808.808 0 0 1-.262.681 1.023 1.023 0 0 1-.57.253 1.48 1.48 0 0 1-.599-.054c-.343-.107-.525-.329-.593-.511-.66-1.751-.375-3.706.364-5.469.997-2.379 2.809-4.372 3.996-5.015 2.031-1.1 4.428-1.151 6.462-.03 1.731.954 2.814 2.494 3.891 4.063.229.334.456.665.691.991.47.652.517 1.298.335 1.853-.202.614-.717 1.133-1.36 1.404-.595.251-1.286.286-1.897.028-.516-.217-.99-.642-1.29-1.362-.504-1.212-1.345-2.55-2.458-3.261Zm38.475 2.697c-.519.271-.925.352-1.5.18a2.133 2.133 0 0 1-.879-.525 1.743 1.743 0 0 1-.489-.884c-.168-.831-.623-1.609-1.271-2.116-.554-.433-1.253-.663-2.028-.533-.837.139-1.634.676-2.183 1.308-.183.212-.327.452-.472.691-.27.447-.533.862-.906 1.19a.89.89 0 0 1-.561.211.853.853 0 0 1-.25-.039c-.833-.836-.993-1.47-.966-2.099.028-.659.288-1.326.708-1.949.986-1.461 2.857-2.659 4.12-2.931 1.729-.371 3.446.075 4.823 1.041 1.417.993 2.467 2.536 2.794 4.274.079.419.046.871-.114 1.263a1.76 1.76 0 0 1-.826.918Zm-34.661-18.274c-1.038 1.01-2.266 1.167-3.509 1.306-.69.078-1.241.141-1.784.264-1.491.336-2.964.843-4.309 1.573-1.405.763-2.937 1.683-4.039 2.861-.262.281-.509.575-.756.87-.225.269-.443.528-.672.778-.263.287-.512.587-.761.887a3.984 3.984 0 0 0-.215.38c-.046.097-.1.206-.162.323-.085.16-.184.335-.288.494-.173.29-.265.37-.346.406a.711.711 0 0 1-.381.072.628.628 0 0 1-.33-.16c-.532-.45-.69-1.188-.673-1.972.024-1.19.463-2.508.868-3.317.94-1.882 2.245-3.838 3.814-5.243 1.791-1.603 3.749-2.816 5.999-3.652 1.398-.52 3.017-.998 4.54-.937 1.097.043 2.144.369 3.008 1.183.531.499.785 1.21.785 1.92 0 .724-.264 1.452-.789 1.964Zm36.772 9.257a.568.568 0 0 1-.259.227.602.602 0 0 1-.647-.108.565.565 0 0 1-.173-.298c-.689-3.026-2.027-5.277-4.883-6.728-1.404-.714-3.02-1.168-4.549-1.53-.444-.105-.914-.173-1.387-.242-1.482-.217-2.974-.464-3.94-1.662-.582-.721-.827-1.644-.689-2.488a2.645 2.645 0 0 1 1.439-1.959c2.101-1.086 4.713-.02 6.835.888l.463.197c2.075.876 3.968 2.032 5.524 3.685 1.234 1.311 2.378 3.25 2.839 5.245.383 1.659.293 3.353-.573 4.773Z" clip-rule="evenodd"/>
</svg>
