<svg xmlns="http://www.w3.org/2000/svg" fill="none" viewBox="0 0 514 1026">
  <path fill="#FFDBB4" fill-rule="evenodd" d="M153.716 945.157c-1.884-7.608.888-13.676 8.848-18.156.685-1.811 16.069-7.68 28.294-16.296 10.982-7.74 18.948-18.366 19.282-18.955 0 0 2.47-5.738 2.751-8.328 1.35-12.421.569-20.564 1.403-24.427-5.617-.737-19.426-365.116-17.193-377.192-3.658-.803-7.537-1.65-11.024-3.71-.278-.072.179-.879.166-1.031-8.748-17.156 4.672-75.49 13.083-91.64-6.679-.174-15.477-1.082-19.613-6.653-1.957-.643-3.192-1.764-4.142-3.566a57.41 57.41 0 0 1-3.023-5.362c-4.451-9.235-7.196-19.489-5.712-29.664-.283-.09-1.74-.099-1.812-.506-.143-2.501.317-4.705 1.069-7.068 7.642-26.61 16.842-52.809 29.003-77.861 6.093-13.408 18.701-18.301 31.764-23.335 6.284-2.466 12.572-5.313 19.13-6.928.083-.459-.309-1.853.551-1.74 1.062.221.852 1.926 1.246 2.883 15.166-12.401 5.548-18.791 14.693-25.583 9.462-4.906 21.002-5.106 31.435-4.044 3.849.111 6.929 1.844 7.837 5.714 3.308 8.008 11.061 13.901 19.518 15.708.699-1.243 2.62-4.807 3.697-3.682 12.214.417 30.734 4.896 42.166 8.247 11.477 2.928 23.088 8.273 26.091 20.73 5.448 22.197-3.22 113.421-17.438 130.989l-.462.007c-2.52 2.577-5.946 4.466-9.828 5.731.087 8.213 2.678 16.232 3.968 24.264 2.904 14.568 5.135 29.15 8.37 43.795.014 1.632 6.169 23.96.101 19.482-1.252.616-2.786 1.286-4.135 1.861 6.446 14.674 9.396 38.351 8.939 56.48-.114 10.795.333 20.252 2.757 31.308 17.936 93.671 33.749 303.185 34.121 305.986.342 2.677-1.928 17.208 0 21.041 1.711 3.402 9.009 1.393 10.405 2.706 3.625 5.898 1.965 9.656 4.939 15.544 1.525 1.363 4.935 4.345 6.053 6.441 2.265 2.178 39.769 26.761 38.249 30.491 0 0 .171 1.79.228 2.179 3.197 18.583-2.127 18.429-19.353 21.163-25.165 4.434-43.972-4.097-65.239-15.495-7.067-4.761-17.112-13.85-13.843-24.615.091-.658 2.03-11.981 2.799-17.731 0 0-2.084-4.604 5.982-4.03-1.326-1.455-4.24-20.297-3.246-22.79.631-6.421-.349-12.248-.039-18.857-3.379.251-62.704-280.694-99.916-298.152-.23 1.866.217 5.34-2.263 5.688-11.51 89.694-39.183 290.631-40.454 290.982 1.907 10.243 1.85 33.988 1.885 44.156.292.272 1.632 1.466 1.847 1.758.045-.076.918.794.962.817l.118-.27c3.92 8.829 9.633 17.922 4.584 26.575 3.747-.273 3.146 6.931 3.313 10.245-2.134 6.487-62.813 23.989-76.372 24.82-4.455.777-25.203-5.815-29.196-6.763-5.174-.966-.098-10.571 2.656-13.361Z" clip-rule="evenodd"/>
  <path fill="#fff" fill-rule="evenodd" d="M247.257 902.724c1.151 4.299-.94 6.448-6.272 6.448-7.999 0-13.069-12.278-17.025-13.684l-1.538-.557c-2.312-.848-6.235-2.314-11.768-4.399-.162.394-.334.799-.514 1.218-.334.589-8.3 11.215-19.282 18.955-12.225 8.616-27.609 14.486-28.294 16.296-7.96 4.48-10.732 10.548-8.848 18.156-2.755 2.79-7.83 12.395-2.656 13.361 3.993.948 24.741 7.54 29.196 6.763 13.559-.831 74.238-18.333 76.372-24.82l-.013-.308c-.122-3.432.335-10.201-3.3-9.937 4.948-8.48-.44-17.382-4.347-26.045l-.237-.53-.118.27c-.044-.023-.917-.893-.962-.817a3.928 3.928 0 0 0-.349-.37h-.045Zm160.748-7.941-.054.185c-.922 3.18-3.446 14.204-6.423 14.204-2.025 0-4.524-1.253-7.496-3.76l-.344-.317c-2.609-2.39-4.716-4-6.32-4.831-3.493.174-4.664 1.532-3.513 4.075l-.098.716c-.823 5.922-2.614 16.383-2.701 17.015-3.269 10.765 6.776 19.854 13.843 24.615 21.267 11.398 40.074 19.929 65.239 15.495l1.518-.239c16.02-2.503 20.937-2.898 17.835-20.924l-.022-.166c-.07-.58-.206-2.013-.206-2.013 1.52-3.73-35.984-28.313-38.249-30.491-1.118-2.096-4.528-5.078-6.053-6.441-2.974-5.888-1.314-9.646-4.939-15.544-.981-.922-4.873-.205-7.696-.876-4.76.779-13.474 6.478-14.321 9.297Z" clip-rule="evenodd"/>
  <path fill="#9DDADB" fill-rule="evenodd" d="m321.629 216.78-.359.637c-8.611 25.095-22.725 38.601-42.341 40.517-19.616 1.915-29.735-4.369-30.359-18.853l-2.18-16.346c-.66.067-.322 1.315-.4 1.744-6.558 1.615-12.846 4.462-19.13 6.928l-1.955.755c-12.353 4.789-24.021 9.842-29.81 22.58-12.16 25.052-21.36 51.251-29.002 77.861-.752 2.363-1.212 4.567-1.069 7.068.072.407 1.529.416 1.812.506-1.484 10.175 1.261 20.429 5.712 29.664a57.41 57.41 0 0 0 3.023 5.362c.95 1.802 2.184 2.923 4.142 3.566 4.136 5.571 12.933 6.479 19.613 6.653-8.411 16.15-21.831 74.485-13.083 91.64.013.152-.177 4.535.101 4.606 3.487 2.06 9.764 3.25 13.422 4.053l6.554.935c-.235 1.61-9.516 2.822-9.392 12.087l181.063 5.372c-1.293-12.883-1.203-21.524-5.306-30.864l4.994-1.871c1.194-.513-.817-3.872.256-4.4 6.067 4.478-.087-17.85-.101-19.482-3.235-14.645-5.466-29.227-8.37-43.795-1.29-8.032-3.882-16.051-3.969-24.264 3.802-1.239 7.166-3.076 9.67-5.57l.159-.161.462-.007c14.218-17.568 22.886-108.792 17.437-130.989-3.002-12.457-14.613-17.802-26.09-20.73l-.694-.203c-11.477-3.326-29.502-7.635-41.473-8.044-.926-.967-2.477 1.535-3.337 3.045Zm-15.327 98.157c9.327 0 19.239 1.099 29.736 3.298l1.649 2.319-1.649 13.97c-6.458-.674-13.26.229-20.407 2.71l-.34.12c-7.272 2.571-12.469 4.545-15.592 5.921l-11.321 9.52 3.631 17-.876.041c-14.18.637-22.149-.075-23.907-2.134-1.795-2.101-2.591-4.228-2.389-6.379l.348-.83c5.623-13.464 8.08-22.121 7.371-25.969-.723-3.928-.723-7.005 0-9.234l.788-.41c12.832-6.629 23.818-9.943 32.958-9.943Z" clip-rule="evenodd"/>
  <path fill="#000" fill-rule="evenodd" d="M299.227 199.53c-1.964-.061-2.339 2.407-.996 3.431l.055.04c1.144.811 1.681 1.536 2.302 2.83 3.029 8.006 11.57 12.598 19.922 10.898-2.901 5.406-4.849 10.638-7.753 15.952-13.373 27.517-57.291 36.468-62.544-1.286 8.048-1.553 12.817-19.629 7.653-25.022l-.139.657c-1.489 7.08-2.507 14.328-7.88 19.666-.164.048-.32.063-.474.063a31.317 31.317 0 0 0-.735-2.869c-.715-2.294-4.294-1.862-4.193.619-10.717 3.262-21.015 7.882-31.265 12.345-8.522 3.713-15.49 10.355-19.459 18.766-11.13 23.006-19.628 47.291-27.037 71.722-.496 3.302-6.036 15.572-1.567 16.752-1.096 10.107 1.708 20.332 6.04 29.408 2.01 3.411 3.429 8.139 7.468 9.561 4.193 5.26 11.859 6.625 18.242 6.997-8.584 20.186-20.249 71.605-12.361 91.664-.7 3.291 8.39 4.854 10.822 5.606-1.96 11.7-1.533 23.753-.688 35.537 7.916 100.515 9.419 201.582 1.09 302.123a1743.67 1743.67 0 0 1-1.576 18.796l-.338 3.756c-.443 5-.82 9.981-.704 15.021.037 1.749 1.488 2.8 2.94 2.89 4.874 3.107 11.422 3.133 17.061 3.882-.996 5.43-1.554 13.902-3.298 18.471-3.628-.947-5.967 2.433-2.35 4.341-4.452 2.467-6.743 7.191-10.307 10.506-9.789-3.971-11.612 1.963-3.612 3.316-2.175 1.814-4.484 3.489-6.871 5.08l-.169-.024c-2.823-.427-8.143-2.759-9.479.328-.6 2.235 2.162 2.945 4.163 3.217-1.775 1.118-3.557 2.23-5.338 3.341-1.559-.686-3.106-1.542-4.695-2.091-3.914-.87-4.251 4.202.856 4.489-3.2 2.36-7.616 1-9.66 4.332-7.483 3.017-11.02 12.131-9.273 19.414-2.627 2.334-4.472 5.832-4.685 9.347-.506 3.765 2.494 7.308 6.558 8.299 4.578 1.522 9.223 2.912 13.855 4.218l.485.166c3.818 1.3 7.986 2.464 11.956 2.237 23.544-1.403 54.94-11.063 73.784-23.083 4.7-3.529 5.522-12.255-.946-15.046 2.98-5.398 1.556-9.32.293-15.199-.878-3.835-2.069-7.769-4.226-11.316-.191-.315-.651-.221-.677.089-.282 4.012.093 8.116.392 12.155l.033.448c.268 3.726.872 5.097-.14 8.624-2.421 8.999-25.769 13.493-34.943 17.204a336.399 336.399 0 0 1-21.93 5.979l-.544.117c-6.259 1.376-12.704 3.458-19.297 2.377-3.419-2.485-8.551-1.785-11.91-4.628-5.067-5.465-1.083-13.477 2.467-18.444 3.434 1.094 6.369-1.85 8.897-3.407l.093-.057c2.581-1.631 5.155-.489 7.741-2.115l.583.11c9.497 1.808 16.85 3.87 1.703-1.54 2.495-1.558 4.996-3.129 7.42-4.781 4.974.6 10.424 3.209 15.048 3.446-3.112-2.896-7.356-4.499-11.356-6.092 2.328-1.766 4.544-3.656 6.526-5.735l1.894.471c11.631 2.886 16.204 3.719.544-3.316 3.08-3.416 3.58-8.474 6.966-11.687 5.446 1.139 10.449 3.532 14.884 6.621 1.794 1.282 3.145 2.885 4.565 4.489 6.731 8.65 17.159 9.985 20.344-1.235.055-.23-.306-.373-.407-.178l-.012.027c-1.524 3.446-6.44 6.24-10.546 4.098l-.124-.066c-4.016-2.091-5.881-6.355-9.044-9.261-4.269-3.849-9.619-6.43-15.14-8.367 1.338-4.885 1.79-13.778 1.638-19.508 9.295.438 18.651-.009 27.783-1.774-1.463 10.653-.502 24.518-1.174 34.018-.972 3.188 4.941 5.181 5.57 2.005.347-10.279-.66-25.107-2.227-36.578l.656-.159c.619-.154 1.269-.34 1.8-.639 5.86.662 4.262-14.211 5.246-18.394 6.611-92.244 20.537-183.66 32.372-275.296 1.641-.627 1.933-2.64 2.204-4.321 14.913 10.083 17.885 30.234 24.561 45.853 29.155 80.877 42.182 166.202 62.388 249.486l-.111.029c-.079.024-.08.035.086.024l.038-.003v.006c-1.248.165-2.232 1.475-1.47 2.694 2.275 4.586 8.581 2.963 12.732 2.671-.403 7.063 1.111 22.302.151 28.594-5.12.095-5.446 5.724-6.124 9.071l-.052.343c-.905 5.717-3.946 16.437-1.674 21.059-3.512 4.173-.986 9.844 2.657 12.694 3.901 2.879 8.758 4.566 13.168 6.785 20.756 8.376 40.837 24.525 66.272 18.31l1.107-.233c17.827-3.763 22.949-5.434 19.409-23.058 1.454-3.581 1.463-7.503-.582-10.671-3.649-4.676-9.778-7.235-14.656-10.787-8.261-5.544-17.053-10.393-25.122-16.164.3-.26-.116-.356-.361-.312-5.694-4.453-5.162-12.162-9.134-17.663-.994-2.834-6.011-3.525-9.315-3.132 1.033-5.283-4.01-29.331-4.65-12.345v.244c-.013 2.623-.443 11.377.33 13.091-10.966 3.347-13.331 13.87-15.677 22.367l-.152.041c-.749.193-1.752.349-2.127 1.084-3.526-2.239-4.511-6.646-7.927-9.017.958-.748 1.009-2.177.52-3.284-1.591-5.825-2.544-20.651-4.947-27.157 11.289-1.689 22.79-2.549 33.816-5.615 1.433 1.406 4.373.908 4.257-1.63-3.414-55.294-9.287-110.417-16.691-165.313-6.087-51.386-16.795-102.117-24.254-153.234l-.063-7.015c-.202-21.09-.766-42.496-8.639-62.351.693-.302 1.38-.614 2.057-.942 8.537 3.535 1.811-17.943 1.497-21.813-4.195-22.442-9.137-44.879-12.288-67.461 3.303-1.193 6.353-2.886 8.897-5.346 15.425-12.542 24.366-114.11 18.76-134.533-2.926-12.846-15.326-19.157-27.145-22.061l-1.746-.492c-13.2-3.709-26.628-7.07-40.371-7.896-.49-.443-1.929-.316-2.117.054-.861.518-1.678 1.529-2.37 2.597-19.075-2.19-13.915-14.644-21.763-16.417Zm-45.635 731.475c2.67 6.058-.878 10.666-6.828 13.213-20.603 9.541-43.604 17.209-67.217 18.673-7.205-1.74-14.341-4.616-21.642-6.396l-.315-.057c-2.57-.471-3.777-.943-3.556-3.61l-.094-1.078c-.165-1.916-.304-3.828-.17-5.743 2.246 5.365 8.969 8.314 14.862 9.397 9.345 4.43 19.81-.075 28.991-1.972 14.913-4.529 47.175-11.645 55.969-22.427Zm129.434.126.308.095c2.675.826 5.394 1.839 8.392 1.093 13.39 4.534 26.424 9.677 39.359 15.031 13.957 6.675 36.431 14.434 48.526-1.696-1.739 8.461.72 11.354-10.828 13.465-18.323 5.968-33.046 2.912-48.251-5.243-11.139-5.41-23.121-9.71-33.903-15.59l-.146-.102c-2.12-1.513-4.68-4.271-3.457-7.053Zm27.811-36.422c3.496-6.442 12.904-9.98 19.901-7.605.712 6.213-1.132 13.169 2.818 18.564-3.498.613-6.984 1.318-10.465 2.049l-3.186.672c-1.563.343-3.553.928-3.291 2.584.289 1.831 2.694 1.272 4.295.811l.62-.182c4.496-1.321 8.985-2.67 13.423-4.181 2.34 2.572 5.481 4.59 8.527 6.538l-1.263.144c-4.427.496-8.896.947-13.269 1.843-1.911.565-1.499 3.167.456 2.959 5.222-1.361 10.429-2.899 15.74-3.875 2.596 1.714 5.18 3.437 7.782 5.144-5.118.739-10.258.806-15.374 1.242-3.312.306-3.311 4.827.001 4.566 5.975-.547 11.947-2.313 17.637-4.32l2.998 1.969c3.5 2.297 7.008 4.588 10.55 6.83 2.132 1.357 4.884 2.647 6.374 4.611 4.704 7.588-7.05 14.84-14.992 14.72-12.063.128-22.11-6.128-32.677-9.873-5.845-1.445-35.563-16.306-38.267-12.395-1.7-.816-4.065-1.11-5.289-2.454-.248-6.213 1.062-12.723 2.162-18.99.225-1.094.76-2.406.82-3.529 4.95 1.823 6.36 8.725 12.876 8.137 1.02 1.628 4.16.87 5.577-.423 1.543-1.405 1.736-3.385 2.104-5.149l.171-.81c.692-3.249 1.521-6.577 3.241-9.597ZM264.148 367.702l.797.201c8.108 2.027 16.59 3.493 24.923 2.949 1.44 5.443.689 18.391 6.548 20.461 2.002.753 5.014.141 5.932-1.9 12.119-.215 24.323-1.297 36.442-2.017 9.123-.716 18.589-.689 27.371-3.454-1.064 5.352-1.43 10.606-.835 16.08 2.049 23.345 8.793 46.09 11.054 69.334l.104 1.108.065-.038c0 .044.004.087.007.131-.659.19-1.317.39-1.973.592-.234-.118-.552-.003-.721.222-48.266 14.995-99.498 21.508-149.803 14.908-8.81-1.098-17.556-2.637-26.241-4.461.076-.776-1.109-.979-1.317-.246-1.927-.336-3.854-.704-5.771-.951.231-.652.272-1.356.034-1.992-3.738-11.205-2.03-23.98-.851-35.6 1.504-17.841 5.252-35.341 8.28-52.941 14.334-.65 28.583-2.987 42.986-2.695 1.517 3.929 6.807 7.228 10.948 4.982 2.924-1.577 3.79-5.016 4.963-7.858 2.32-5.618 4.689-11.217 7.058-16.815Zm60.737-153.873c15.052 4.441 30.474 7.613 45.389 12.543 12.396 3.085 20.858 10.853 21.381 24.102 1.022 28.38-2.093 56.904-6.795 84.872l-.245 1.263c-2.609 13.479-4.947 27.194-9.874 40.041-7.192 3.34-15.358 4.291-23.226 4.678-11.482.583-22.964 1.183-34.436 1.933l-8.995.583c-2.61.169-6.239-.278-8.2 1.749-.174.286-.527.25-.796.428l-.053.038c-.286.194-.574.666-.987.575-.671-.208-.928-1.545-1.086-2.183l-.015-.058c-.873-3.414-1.506-6.901-2.313-10.334-1.839-6.754-2.631-13.894-5.426-20.359 4.001-2.55 7.769-5.466 11.001-8.926l3.897-1.371c9.322-3.267 18.75-6.432 28.467-8.391.232 2.131 3.293 3.349 4.435 1.119 1.892-5.679 2.243-11.846 3.547-17.7 2.962-17.465 6.481-34.867 8.53-52.471-5.648 15.592-8.574 34.729-12.891 51.58-.2-.116-.477-.049-.485.227-15.283-5.773-32.25-5.537-47.332.589-3.778 1.513-7.615 2.872-11.373 4.433-1.284.724-3.84.68-4.271 2.263-.462-1.075-1.083-2.081-1.907-2.76-.257-.529-3.178-1.474-3.463-.426-17.134 2.348-33.794 9.794-51.424 8.537 2.086-7.608 1.839-15.823 1.979-23.68l-.042-.884c-.363-7.74-.626-17.319-3.252-23.689 1.681 16.035.46 32.096-1.591 47.981-12.435-1.602-6.709 5.5 1.573 5.233 16.714 1.203 32.139-6.18 47.522-11.561 8.402-3.355 9.354-.514 8.979 7.46-.008 10.382-4.714 19.857-8.978 29.068l-1.916 4.302c-3.183 7.158-6.323 14.271-9.417 21.515-13.514-4.476-28.729-2.02-42.729-1.205-10.683 1.341-18.354.865-27.391-5.307-3.26-6.221-7.555-12.121-9.235-19.138-1.948-6.431-2.597-13.167-3.165-19.831l.512-1.865c6.587-23.927 13.876-47.737 23.836-70.527l.539-1.256c3.377-7.892 6.807-16.175 13.639-21.703 11.465-8.456 25.645-12.206 37.698-19.73l.077.55c1.223 8.631 3.336 17.578 8.866 24.522 10.219 12.534 29.514 12.886 42.591 4.746 13.605-7.513 21.766-21.501 25.737-36.123l.047-.161c.372-1.303 1.407-5.248 3.067-5.291Zm-36.946 140.662c.009 4.597.917 9.127 1.531 13.664-7.073-1.394-14.124-2.366-21.08-4.251 6.776-2.557 13.36-5.638 19.549-9.413Zm17.03-37.07c10.313-2.016 20.872-.81 31.069.814-1.108 5.145-2.373 10.244-3.431 15.396-3.652-.167-38.295 5.96-34.385 10.879-5.113 2.732-9.958 5.942-15.048 8.733a109.999 109.999 0 0 1-15.948 7.178l.29-.645c4.732-10.56 9.154-22.443 5.507-33.984 4.904 1.966 11.597-2.257 16.348-3.837 5.042-2.021 10.236-3.616 15.598-4.534Zm74.246-40.89c-.034-1.926-5.991 3.598-6.769 4.171l-.47.425c-5.717 5.182-11.364 10.882-14.549 17.993-.233 6.988 10.194-9.941 11.639-10.975 3.154-4.055 6.996-7.576 10.149-11.614Zm-164.85 16.449c1.612.53-2.787-4.93-4.503-4.532-.682-.099-1.276.889-.518 1.229l.376.165c1.76.763 3.56 1.414 4.645 3.138Z" clip-rule="evenodd"/>
  <path fill="#FFDBB4" fill-rule="evenodd" d="M274.511 79.58c-17.685 0-40.514 11.104-42.461 22.477-2.294 13.402-14.579 64.829-11.805 81.321 2.775 16.492 17.723 28.364 41.644 28.364 23.92 0 41.774-13.057 45.873-17.54 4.1-4.483 11.697-20.489 11.697-20.489s12.808-1.705 12.868-12.155c.061-10.45-8.327-14.252-8.327-14.252s2.991-41.239-4.541-51.976c-7.532-10.736-27.262-15.75-44.948-15.75Z" clip-rule="evenodd"/>
  <path fill="#000" fill-rule="evenodd" d="M233.133 100.221c.013-.24-.336-.267-.402-.055-3.815 12.617-6.167 22.449-8.643 35.384l-.731 3.805c-1.954 10.149-3.928 20.313-5.595 30.511l-.098.609c-.835 5.278-1.317 10.609-.27 15.898.978 4.945 3.651 9.478 7.12 13.088 6.706 6.977 16.026 11.336 25.401 13.284 4.74.985 9.63 1.366 14.461 1.023a52.096 52.096 0 0 0 7.17-1.01l.261-.056c2.376-.514 4.486-1.126 5.748-3.365.317-.564.19-1.53-.477-1.82-1.258-.543-2.183-.77-3.557-.614-1.311.149-2.591.545-3.887.792-2.476.47-4.993.707-7.513.763-4.949.109-9.911-.511-14.642-1.989-8.129-2.54-16.389-7.401-21.139-14.671-5.588-8.553-3.363-18.932-1.882-28.377l.044-.286a4741.594 4741.594 0 0 0 4.42-28.969l.614-4.14c1.613-10.94 3.136-18.749 3.597-29.805Zm82.536-26.776c-4.057-2.677-9.099-3.335-13.864-3.298l-.597.008c-6.102.093-36.818.825-47.102 1.05l-2.447.051c-3.238.061-9.769.125-13.134.187l-.194.003c-1.651.032-3.301.044-4.952.097l-.242.009c-1.237.053-2.266.238-3.234 1.11-.493.442-.685 1.117-.64 1.76l.008.083-2.452.215c-1.664.147-2.544 1.641-1.883 3.153l.033.073c1.174 2.507 2.071 9.802 2.701 12.499a36.1 36.1 0 0 1 .751 4.309c.124 1.14.136 2.285.772 3.288 1.355 2.142 5.167 2.124 5.236-.91.003-.096 0-.19-.01-.28 9.593-.421 22.691-.38 32.272.193a180.232 180.232 0 0 1 33.258 5.156c1.804.456 4.018.727 5.632 1.703 1.806 1.097 1.772 3.064 1.576 4.938-.211 1.986-.562.963-1.06 2.772l-.03.115c-.514 1.964-1.15 3.906-1.991 5.752-.479 1.053-1.252 2.067-.959 3.279.165.683.704 1.413 1.199 1.89 2.256 2.166 6.068.785 7.6 3.753 1.604 3.104 1.644 7.308 1.78 10.742l.008.201a65.92 65.92 0 0 1-.084 7.099c-.14 2.151-.713 4.28.022 6.347.536 1.503 2.286 1.643 3.202.421.105-.14.201-.284.291-.429l.089-.145.006.004a7.315 7.315 0 0 0-.246.42c-.084.159.124.334.252.197 2.155-2.348 5.304-1.88 7.743-.237 2.47 1.671 3.445 4.845 3.573 7.691.143 3.158-.137 6.859-1.452 9.777-.554 1.234-1.345 2.369-2.657 2.84-.595.212-1.161.184-1.781.234-.645.049-1.42.374-2.046.33-.814-.058-1.544.872-1.313 1.651l.017.051.037.11a.323.323 0 0 0-.084.112c-2.367 4.841-5.613 9.15-9.201 13.147-1.797 1.998-3.79 3.834-5.874 5.533-1.028.839-2.112 1.678-3.255 2.354-.38.221-.728.371-1.156.493-.199.056-.426.084-.619.149l-.201.069a.419.419 0 0 1-.039.012 1.47 1.47 0 0 0-1.246 1.042c-.495 1.552.405 2.924 1.944 3.351 1.667.467 3.238-.352 4.559-1.293l.088-.063c2.694-1.942 5.176-4.121 7.325-6.665 4.252-5.023 6.915-10.837 8.148-17.269.306.658.717 1.232 1.43 1.631 1.109.623 2.433.623 3.647.414 2.446-.414 4.529-1.908 5.922-3.928 1.445-2.095 1.984-4.639 2.311-7.117.324-2.482.482-4.973.159-7.461-.465-3.572-1.963-7.105-4.875-9.062 2.18-4.755 2.563-10.086 2.408-15.292-.19-6.41-1.296-12.892-2.146-19.242l-2.418-18.054-.099-.728c-.583-4.247-1.293-8.517-2.881-12.519-1.567-3.944-3.946-7.51-7.535-9.876Zm10.173 85.409c-3.993-1.939-8.307-.152-10.456 3.61-1.869 3.272 3.687 5.434 4.614 2.062l.027-.104c.61-2.553 3.096-4.76 5.69-5.103.215-.031.374-.343.125-.465Z" clip-rule="evenodd"/>
  <path fill="#fff" fill-rule="evenodd" d="M269.75 179.691c-5.228-3.5-31.69-2.815-34.133-.13-2.442 2.684-8.087 10.347 4.004 14.11s27.057 2.444 30.957-2.162l.229-.276c3.688-4.479 4.067-8.113-1.057-11.542Z" clip-rule="evenodd"/>
  <path fill="#000" fill-rule="evenodd" d="M246.955 159.112c-2.357 1.431-5.948 4.768-3.412 8.315 2.984 3.128 7.282-.458 9.399-2.08 1.964-1.257 4.17 1.976 2.348 3.444-15.302 11.315-21.511-9.305-9.527-11.362 1.32-.226 1.81 1.24 1.192 1.683Zm21.296-27.291-.586-.102-.3-.051c-1.756-.29-3.837-.484-5.049.893-.68.772-.914 2.206 0 2.945 1.608 1.3 3.386.796 5.313.906 1.588.091 3.114.354 4.644.791 3.356.958 6.091 2.707 8.957 4.627.376.252.76-.228.58-.58-1.654-3.237-4.861-5.896-8.072-7.517-1.715-.865-3.591-1.582-5.487-1.912Zm-15.524 44.719c-5.129.372-16.244-2.073-20.859 1.595-17.394 21.694 51.564 27.272 44.117 3.271-4.744-7.761-15.654-4.642-23.258-4.866Zm.879 13.097c1.268-.103 2.808.9 3.18 1.676.372.775.229 2.414.217 2.698a40.359 40.359 0 0 1-6.678.112c.577-1.909.596-4.197 3.281-4.486Zm-10.24 3.202c.357-2.369 2.053-2.93 3.427-2.574 1.405.363 2.229 1.978 2.14 3.416-.006.1.051.184.089.264a38.482 38.482 0 0 1-5.656-1.106Zm15.729-2.773c.8-1.215 2.711-1.802 3.935-1.588 1.998.421 2.235 2.957 2.235 3.474-1.842.702-3.799 1.167-5.669 1.538a36.07 36.07 0 0 1-1.129.204l-.024-.308c-.046-.66-.08-2.208.652-3.32Zm-22.607-.2c2.049-3.167 6.454-.9 6.09 2.559a39.9 39.9 0 0 1-1.168-.387c-1.61-.56-3.376-1.226-4.922-2.172Zm16.133-10.911c2.756-.248 5.018-.164 6.816.169l.054.6c.199 2.079.456 4.124-.638 4.961-.888.68-3.835.615-5.812.123-.488-.123-1.122-4.436-.42-5.853Zm-4.263-.248c.442 2.05.65 4.539-.238 5.278-.936.781-3.952.675-4.741.155-.69-.455-.672-2.548-.416-4.898 1.527-.36 4.187-.535 5.395-.535Zm12.298.437.903.009.51.006c1.292.023 2.686.098 4.004.385 2.617 5.65-6.942 6.625-5.465-.191l.048-.209Zm-18.909.137.017.32c.078 1.587.026 3.677-.854 4.241-1.295.83-3.728.67-5.045-3.17.436-1.146 5.06-1.307 5.882-1.391Zm25.369-33.689c-.553 0-1.083.187-1.565.535-.474.341-.904.84-1.262 1.462-.677 1.177-1.1 2.802-1.1 4.6 0 1.797.423 3.422 1.1 4.599.358.622.788 1.121 1.262 1.463.482.347 1.012.534 1.565.534.554 0 1.083-.187 1.565-.534.474-.342.904-.841 1.262-1.463.677-1.177 1.1-2.802 1.1-4.599 0-1.798-.423-3.423-1.1-4.6-.358-.622-.788-1.121-1.262-1.462-.482-.348-1.011-.535-1.565-.535Zm-35.033 0c-.554 0-1.083.187-1.565.535-.475.341-.904.84-1.262 1.462-.677 1.177-1.1 2.802-1.1 4.6 0 1.797.423 3.422 1.1 4.599.358.622.787 1.121 1.262 1.463.482.347 1.011.534 1.565.534.553 0 1.082-.187 1.565-.534.474-.342.904-.841 1.261-1.463.677-1.177 1.101-2.802 1.101-4.599 0-1.798-.424-3.423-1.101-4.6-.357-.622-.787-1.121-1.261-1.462-.483-.348-1.012-.535-1.565-.535Zm4.766-15.221-.448.092-.298.063c-4.838 1.039-10.971 3.088-13.236 7.78-.088.677.005.822.081.917l.025.032c.062.081.112.192.406.284.082-.019.164-.04.247-.061 1.06-.278 1.898-.66 2.709-1.056l.88-.433c1.021-.5 2.051-.982 3.142-1.337a36.998 36.998 0 0 1 7.158-1.579c.527-.062 1.035-.24 1.436-.544.38-.29.67-.69.803-1.222.171-.689.122-1.21-.248-1.831a2.321 2.321 0 0 0-1.133-.976 2.67 2.67 0 0 0-1.524-.129Z" clip-rule="evenodd"/>
  <path fill="#000" fill-rule="evenodd" d="M220.637 161.902c2.102 2.82 5.998 3.718 9.591 3.408 7.751-.745 10.19-9.537 10.444-16.37-5.197 1.46.439-8.882-17.327-10.02-6.263-.521-4.536 3.257-7.303 6.017.057 5.793 1.022 12.088 4.595 16.965Zm36.916-6.656c4.576 21.403 29.633 16.312 32.265-2.982-2.431-1.713-1.791-5.944-4.81-7.477-4.786-3.054-10.768-2.923-16.202-2.852-6.947.477-8.926 3.351-12.495 6.487.172 2.094.667 4.577 1.242 6.824Zm-46.842-19.87c.257-.043.514-.083.771-.121.201-.114.437-.201.711-.254a12.026 12.026 0 0 1 1.867-.323c8.906-2.002 29.509.84 30.359 8.431 2.836.945 5.29.099 8.577.183 2.502-10.446 45.758-8.971 47.838-2.674l.024-.006c1.999-.618 4.946-.469 7.233-.567 4.886-.102 9.776.333 14.556 1.362 8.95 1.42 21.165 3.084 14.941 14.247a.02.02 0 0 0-.004.006l-.001-.001c-1.073 1.098-2.893.214-2.961-1.273 2.093-5.289-2.634-5.924-6.271-7.443-9.05-3.248-18.263-3.698-27.623-2.693-.704.828-1.772 1.55-2.902 1.928-6.257 1.037-2.959 5.674-6.915 6.348.727 16.162-18.919 24.984-30.302 14.36-4.545-4.438-5.628-11.013-6.682-16.939-.557-.125-.912-.43-1.119-.832-1.34-1.337-2.181-2.571-4.831-2.937-2.65-.367-4.689.369-4.965.594-.07.14-.145.281-.231.421a1.59 1.59 0 0 1-.474.507c2.617 16.094-9.892 26.273-22.521 17.925-5.487-5.155-6.646-13.048-6.875-20.093-.744-.449-1.215-1.318-.958-2.41.355-1.506-.477-2.81-1.802-3.464-1.722-.85-1.418-3.955.56-4.282Z" clip-rule="evenodd"/>
</svg>
