<svg xmlns="http://www.w3.org/2000/svg" fill="none" viewBox="0 0 515 1027">
  <path fill="#EDB98A" fill-rule="evenodd" d="m133.978 408.48-3.081-.306c-1.516-25.198 2.746-49.955 7.723-74.306l3.097.182c1.093 14.033 8.274 27.326 4.985 41.768-3.144 11.407-9.806 21.239-12.724 32.662Zm351.449-126.909-1.804.385c3.36-6.36.227-8.453-3.575-13.711l-.414.955-1.463-3.194c-.291-.811-.587-1.5-1.39-1.803-.783-3.975-3.116-7.614-6.222-9.591l-.595.668c-1.232-1.076-2.716-1.485-4.129-1.983 3.033-4.574 4.984-10.509 7.03-15.414 1.665-5.152 4.269-10.151 4.758-15.375-.394-5.02-5.143-1.759-7.459.745-7.076 6.199-13.17 16.017-17.736 27.939-7.842-2.038-12.34.113-14.518 10.817-2.005 7.271-4.055 14.73-4.326 22.269-1.053-.361-2.92-1.718-3.929-.654-17.428 19.05-38.007 33.726-57.908 49.789-15.039-11.053-22.866-32.919-31.137-49.334-14.43-28.174-28.859-69.421-65.975-69.276-4.919-.512-9.722-1.099-14.366-2.526-1.798-.488-4.021-1.076-4.631-2.167-1.1-3.514-1.308-7.317-3.242-10.539-5.306-8.616-16.801-9.294-25.809-7.423-15.295 2.832-14.91 1.179-16.014 17.248-.331 3.815-3.291 4.362-6.451 5.152a106.465 106.465 0 0 1-10.929 2.797l1.148-.322c-59.858.947-99.602 70.312-107.486 119.385-9.158 50.205 2.687 106.079 21.413 148.246-.804 15.356 2.211 30.782 4.12 45.918 1.199 3.786 5.347 4.155 6.534-.231l1.462-5.774 1.565 5.747c.992 3.556 2.587 3.978 4.022 4.003 1.781 0 2.756-.877 2.815-5.5l2.949-.708c1.136 2.162 2.264 4.074 4.049 5.404 3.59 26.071 5.843 53.178 14.557 78.405 3.475 9.362 8.811 17.862 12.729 27.047-18.476 41.661-21.574 87.828-26.01 132.436.357.028 2.19.188 2.582.222l-1.012 2.686c-1.382.584-2.194 1.814-2.612 3.176-.932-.077-4.821-.048-4.604.842.097 1.132 37.215 1.77 37.411 2.767.186.949.657 7.235-2.817 8.114-9.768 2.47-31.498-.75-29.886.828.038.841.09 1.698.155 2.493-5.53 19.276-9.582 39.824-12.044 61.012-3.13 3.009-3.914 12.905.755 15.545 12.887 8.865 30.2 13.075 46.499 11.476 17.641-1.667 38.679-8.688 30.237-28.787-.109-.624-.965-.653-1.641-.517-1.495-1.45-3.117-2.546-4.87-3.162-3.484-8.693-6.618-17.808-9.352-26.908-1.332-4.18-2.709-8.502-2.595-13.086.659-11.255 1.819-15.907 9.648-24.773 4.847 2.328 14.085-14.53 16.202-18.069 4.453-10.469 4.281 6.092 4.281 6.092 1.853 6.468 2.585 17.27 7.22 22.083 2.521 16.757-14.732 24.434-3.614 43.017-3.763.258-4.114 1.761-4.048 6.325-.013 3.278-.098 6.717.521 9.781.75 3.763 4.227 4.773 9.447 5.882 4.23.935 8.304 2.003 12.501 3.012 4.246 1.409 8.719 1.294 10.465-2.995 21.024 7.117 81.631 6.303 101.676-3.129 5.536-2.213 9.44-3.464 4.356-9.696-2.798-17.785-53.328 2.26-59.782-17.247-.921-2.533-13.075-18.395-16.371-20.283 1.346-1.934-.054-17.5 0-18.066.148-1.561-12.039 2.268-18.997.732-3.367-.743-4.921-5.67-4.382-7.489.215-.724 26.864-7.014 27.094-7.775 4.924-16.316 13.087-40.774 14.308-53.643 1.765-30.758.11-56.688 9.492-87.946 13.115-49.493 38.594-95.938 38.938-148.312-.438-8.682 1.972-17.926-.213-26.446l2.713-1.41c.391.45 1.096.437 1.237-.174 1.78-2.885-.215-6.345-.624-9.504.931-.995.466-1.904-.658-2.447-12.052-42.493-32.211-48.7-26.662-101.816 9.055 19.161 29.112 38.558 51.22 35.706 22.272 3.325 74.225-50.863 84.259-68.38 1.84.143 1.862-1.174 2.142-2.415 9.164 1.077 17.743-6.107 17.913-14.897 8.042 4.979 16.637-2.132 12.376-10.817a57.068 57.068 0 0 1-.497-1.432Z" clip-rule="evenodd"/>
  <path fill="#fff" fill-rule="evenodd" d="m198.544 850.477 2.168 7.037c1.945 6.314-.38 11.629-6.329 14.964-18.485 9.789-42.875 9.093-62.784-.978a68.083 68.083 0 0 1-4.887-2.774l-.47-.296-.392-.249-.198-.129c-.813-.536-1.334-1.021-1.691-1.705l-.05-.099-.025-.052-.018-.054a12.926 12.926 0 0 1-.24-.777l-.056-.207-.054-.208c-.363-1.45-.481-2.763-.564-5.328l-.037-1.218-.1-3 1.792 2.411c.733.986 1.731 1.828 3.367 2.929l.719.474 1.401.918.04.027c3.535 2.361 7.483 4.341 11.839 5.989 15.767 5.844 33.724 5.116 47.696-2.343l.412-.223 1.101-.658.342-.208c2.122-1.299 3.385-2.269 4.366-3.476l.075-.094.074-.094.296-.382.483.018c1.302.049 2.104-1.119 2.06-2.769l-.003-.092-.333-7.354Zm17.981-14.542 1.355.861c15.079 9.581 28.834 15.618 42.859 18.079 8.008 1.326 16.472 1.691 26.159 1.283l1.128-.051.932-.045c5.811-.296 11.171-.782 21.034-1.825l3.697-.394 4.615-.599 1.965-.261c8.713-1.167 14.258-2.063 20.024-3.312l.622-.136.017-.012a6.05 6.05 0 0 1 .576-.358l.215-.12c.583-.324.801-.487.912-.69l.015-.028.278-.566.857.06.014-.008a22.8 22.8 0 0 1 .54-.286l.276-.139.28-.138.117-.056.332-.06.358-.068a34.972 34.972 0 0 0 2.261-.543l.758-.205.278-.076.272.092c2.214.75 2.8 2.842 1.514 4.45l-.056.068-.041.047-.005.045c-.077.526-.442.916-.994 1.267l-.08.05-.12.07-.097.056-.036.048c-.081.104-.174.2-.278.289l-.08.065-.084.061-.037.025-.755.487-.249.157c-.56.346-.981.564-1.433.721l-.102.034-.006.005c-1.85 1.793-4.7 2.768-8.977 3.581l-.448.084-.224.04-.677.121c-22.108 3.947-44.799 5.031-67.337 3.236a264.924 264.924 0 0 1-10.447-1.045l-1.152-.141-1.369-.173-1.494-.18-.391-.049-.386-.051c-3.423-.471-5.433-1.14-7.231-2.732l-.098-.088-.134-.125c-.734-.696-2.141-.215-2.16.69v.052l.004.059c.096 1.354-.739 2.209-2.081 2.453-.907.165-2.065.076-3.466-.203a27.202 27.202 0 0 1-1.709-.403l-.425-.116-.582-.168-.255-.075-1.277-.383-1.572-.431a486.51 486.51 0 0 1-2.096-.587l-4.478-1.261-1.083-.3a178.13 178.13 0 0 0-2.595-.693l-.405-.105-.982-.19-.35-.072-.317-.068c-3.322-.738-3.887-1.647-3.956-5.809l-.005-.37-.177-1.592-.107-.92a85.564 85.564 0 0 0-.364-2.715l-.074-.475-.026-.157-.099-.588c-.007-.043-.156-.719-.213-1.009a15.037 15.037 0 0 1-.183-1.137c-.098-.83-.086-1.505.094-2.048.221-.668.708-1.094 1.341-1.17l.073-.008.027-.002.056-1.021Z" clip-rule="evenodd"/>
  <path fill="#FFCF77" fill-rule="evenodd" d="m134.906 449.781 2.3 1.239c8.839 4.757 18.562 8.712 29.688 12.233l.909.286c8.286 2.59 16.837 4.817 28.622 7.569l.432.101 2.567.595 2.681.616c36.031 8.71 73.503 8.597 108.968-.462l.768-.171c8.128-1.822 14.099-3.643 19.634-6.201 4.063-1.877 7.36-4.065 9.741-6.666l.154-.171 1.186-1.326.426 1.725c.601 2.431.876 5.012.901 7.955l.002.364-.029.377-.035.411c-.12 1.363-.283 2.674-.578 4.702l-.06.415-.494 3.328c-.272 1.866-.425 3.063-.542 4.287l-.041.448-.025.292-.023.521c-.55 12.208-2.622 24.711-6.164 38.501l-.162.628-.246.941-.323 1.22c-2.48 9.307-5.115 17.644-10.055 32.215l-.658 1.937-3.367 9.875c-.516 1.518-.943 2.777-1.33 3.925l-.163.486-1.485 4.457-.883 2.398-.802 2.187c-8.458 23.139-13.914 39.968-18.11 56.938l-.292 1.187c-5.277 21.671-7.82 41.644-7.397 61.134.396 23.07-4.032 46.84-12.767 71.971l-.496 1.415-1.303-.05c-18.902-.685-37.479 1.276-55.033 5.923l-.566.151-.926.248-.233-.943c-.07-.357-1.276-7.005-1.99-10.097l-.044-.189-.092-.384-.148-.591c-1.598-6.277-3.531-9.75-5.481-9.43-2.968.488-7.203 4.964-11.775 11.901a111.932 111.932 0 0 0-4.568 7.599l-.312.573-.397.744c-.839 1.589-1.46 2.881-1.527 3.128l-.349 1.628-1.212-1.122c-.511-.474-1.329-.77-2.6-.986l-.305-.05-1.549-.214-.29-.044-.23-.038-.905-.163a155.543 155.543 0 0 0-10.371-1.465l-.874-.093-.355-.202c-5.563-3.109-13.032-3.831-19.54-2.014l-.426.122-.678-.117c-3.701-.624-7.363-.95-10.89-.945l-.441.002-1.067.01.21-1.76c.11-.942.218-1.896.325-2.864l.177-1.634a567.59 567.59 0 0 0 1.161-12.156l.341-4.008 1.09-13.153c.104-1.228.197-2.308.293-3.395l.138-1.565.096-1.04c2.81-30.149 8.107-60.722 15.776-91.826l.331-1.335 1.431-3.365.65 2.811c.353 1.528.476 3.027.347 4.577-.042.516.252.785.792.784.595-.001 1.045-.359 1.092-.937.258-3.136-.406-5.96-2.049-9.499l-.102-.217-.181-.379-.187-.382-.578-1.163-.808-1.605-2.301-4.526c-5.299-10.449-7.678-15.812-9.556-22.368l-.117-.411-.145-.523-1.269-4.519-.279-1.009c-.576-2.107-.982-3.729-1.339-5.385l-.129-.608c-2.77-13.06-4.777-25.849-7.301-45.227l-.236-1.817-.455-3.546-1.21-9.519.285-.318c.903-1.006 1.398-2.52 1.637-4.609l.029-.269c.082-.753.212-1.398.485-2.459l.115-.437.222-.822.198-.749c.172-.669.29-1.204.371-1.708l.037-.241.044-.107c.695-1.664 1.087-3.564 1.326-6.067l.023-.237c.036-.4.064-.744.094-1.174l.012-.165.185-2.88.183-2.531.114-1.653.097-1.488.069-1.087.324-5.32.306-4.923.003-.085.001-.035-.008-.6-.001-.258.003-.224c.019-.839.112-1.331.5-1.722.55-.551 1.338-.62 2.65-.494l.125.012c.116.012.233.025.359.041l.129.016.947.123.181.02.096.009.128.008c2.407.23 5.336-.175 7.405-1.138 2.346-1.093 3.398-2.721 2.933-4.996l-.016-.071-.017-.054c-.334-.985-1-1.752-2.331-2.822l-.253-.201-.768-.598-.221-.174-1.147-.919c-.38-.304-.764-.611-1.169-.932l-.307-.245-8.524-6.733-1.622-1.289-.922-.736-1.438-1.156-.138-.12c-.226-.2-.436-.397-.701-.659l-.256-.255-.734-.745c-.992-.997-1.532-1.458-2.23-1.856l-.723-.403.306-1.063.124-.443c1.274-4.61 1.563-7.968.531-10.623l-.05-.126-.984-2.415Z" clip-rule="evenodd"/>
  <path fill="#000" fill-rule="evenodd" d="M253.257 197.383c-.012-.174-.269-.227-.316-.043-.735 2.799-1.277 5.442-1.061 8.375.434 6.03 2.464 11.949 6.044 16.846l.203.277c1.7 2.328 4.048 5.543 7.189 5.483 1.287-.025 1.931-1.133 1.753-2.297-.421-2.053-1.987-3.605-3.541-5.145-1.014-1.005-2.023-2.005-2.706-3.136 5.943 1.347 12.525 3.416 17.289 7.311 8.02 6.215 8.511 18.722 2.106 26.291l-.15.18c-3.707 4.393-9.212 6.749-14.66 8.199-27.71 7.289-72.545-.556-82.68-31.084-.441-4.533 3.917-6.792 7.567-8.685.444-.23.877-.455 1.29-.678l.348-.19c1.797-.499 3.59-1.009 5.384-1.519a552.726 552.726 0 0 1 9.207-2.562c-1.098 1.95-2.45 3.738-4.062 5.411-1.214 1.257-2.61 3.748-.563 4.955 2.157 1.27 4.249-1.153 5.457-2.738l.214-.283c3.844-4.998 5.668-11.448 4.879-17.715l-.012-.096c-.204-1.559-.419-3.206-1.19-4.598-.125-.199-.275-.367-.423-.534-.226-.253-.45-.505-.588-.864-.075-.19-.356-.122-.313.085.108.504.015 1.091-.078 1.675-.063.399-.126.796-.125 1.164.001.282.005.562.01.842.011.699.022 1.396-.023 2.098-.203 3.404-1.21 6.823-2.766 9.83-10.789.685-21.48 1.586-32.005 4.241-51.988 13.872-79.498 68.636-89.656 117.556-10.159 49.932 3.768 100.572 19.417 147.891.351 1.052 1.071 1.682 1.897 1.963-.56 9.155.667 18.261 1.893 27.355.494 3.669.989 7.336 1.365 11.004.061.582.105 1.178.149 1.778.132 1.794.266 3.63.881 5.29 1.837 5.494 8.106 5.189 9.517-.39.727 2.668 2.144 5.08 5.384 5.158 3.931.092 4.443-3.421 4.52-6.555l.009-.491c1.024 1.933 2.191 4.034 3.959 5.492l.437 3.444c2.474 19.465 4.951 38.963 9.152 58.148.29 1.919.887 3.731 1.609 5.52.347 1.165.668 2.33.988 3.492.707 2.565 1.411 5.117 2.376 7.637l.239.638c1.929 5.082 4.414 9.961 6.894 14.829 1.87 3.671 3.737 7.335 5.358 11.074-16.771 38.177-20.79 79.921-24.751 121.066-.507 5.266-1.013 10.523-1.545 15.761-.39.093-.845.156-1.32.222-1.783.247-3.856.534-3.897 2.58.047.589.109 1.182.19 1.774l.695-.054c2.811-.218 5.386-.211 7.832.056 1.586.164 3.088.42 4.52.781.23.057.438.151.618.277l.076.056.04.034.362.075.499.112.234.055.904.214c.436.102.767.177 1.068.238l.374.074.533-.034c2.011-.12 3.872-.145 7.175-.123l4.073.028h.748l.567-.002a90.698 90.698 0 0 0 3.533-.085c1.159-.053 1.89.85 1.806 1.902-.078.969-.814 1.787-1.865 1.835l-.411.018-.658.023c-1.183.038-2.443.051-3.943.047l-1.869-.012-2.276-.018-1.121-.006a184 184 0 0 0-1.076.002l-.822.007-.027.019a1.736 1.736 0 0 1-.518.232l-.095.023-.086.016-.033.005-.329.043c-.631.068-1.127.057-2.056-.022l-.467-.041c-.843-.074-1.326-.087-1.814-.024l-.249.035-.17-.039c-.957-.216-1.811-.302-3.526-.385l-.94-.044a32.183 32.183 0 0 1-1.931-.137l-.238-.027-1.899-.225.412-.418-.076-.007c-1.956-.176-4.079-.097-6.481.205.747 2.155 1.854 4.164 3.455 5.828.028.562.063 1.12.107 1.679-5.646 19.769-9.566 40.171-11.959 60.581-2.765 3.08-2.699 7.774-2.27 11.766l.051.451c.322 2.406 1.646 3.951 3.586 5.308 13.739 9.384 31.051 13.319 47.554 11.756 11.145-1.359 27.437-4.188 32.506-15.535 1.834-4.682.636-10.082-.776-14.757l-.166-.543c-.196-.638-.569-1.078-1.022-1.35-.547-1.795-2.434-2.059-4.155-2.301a16.182 16.182 0 0 1-1.409-.238 316.441 316.441 0 0 1-8.002-22.546c-.388-1.403-.833-2.805-1.281-4.21-1.309-4.116-2.629-8.264-2.522-12.591.269-4.457.792-9.144 2.16-13.407.9-2.768 2.648-4.867 4.446-7.026.706-.847 1.419-1.704 2.092-2.614.382.11.789.107 1.189-.062 2.578-.88 3.883-1.612 5.474-3.876 4.004-4.849 7.567-10.065 10.519-15.615a227.737 227.737 0 0 0 4.93 21.725c.707 2.538 1.599 5.118 3.511 6.916.954 6.206-.84 10.593-3.711 15.847l-.207.377c-3.903 7.677-4.816 17.199-.626 24.943-3.05.567-3.23 4.248-3.221 6.914l.007.944-.001.092c-.031 3.13-.065 6.548.548 9.622 1.007 5.059 6.112 6.146 10.656 7.113.985.21 1.943.414 2.827.652 3.208.78 6.416 1.56 9.624 2.353 4.087 1.201 8.941 1.733 11.462-2.5 1.802.844 3.841 1.243 5.815 1.538l.472.069a264.721 264.721 0 0 0 85.218-1.763c2.189-.406 4.841-.989 7.244-1.98 1.27-.221 2.381-.802 3.495-1.384.65-.34 1.3-.68 1.984-.949a23.4 23.4 0 0 1 1.13-.447c1.191-.45 2.477-.935 3.288-1.806.916-.983.947-2.268.633-3.512l-.031-.119c-.401-1.556-.895-3.469-2.272-4.418-.921-9.076-10.713-10.892-18.27-11.823l-.694-.084-11.477-1.826c-1.082-.172-2.189-.328-3.31-.486-5.854-.824-12.062-1.699-16.849-5.159-2.643-1.807-3.609-3.989-4.475-5.946-.954-2.156-1.787-4.039-4.607-4.848.198-2.404-1.248-4.474-3.546-5.171-.145-.052-.313-.091-.487-.132-.373-.087-.773-.18-1.025-.414-.204-.191-.368-.592-.53-.987-.119-.291-.237-.578-.368-.777-1.418-2.137-3.481-3.654-5.639-5.038l-.37-.236c.567-1.178.116-2.271-.334-3.36-.196-.473-.391-.945-.502-1.423-.286-2.18.016-4.351.318-6.525.198-1.421.396-2.843.43-4.27.086-2.11.013-4.168-.31-6.212h-.002l-.107.042-.317.13-.571.083c-5.16.768-10.186 2.102-17.485 4.471l-.979.319-.985.324-1.923.638c-1.056.351-2.011-.243-2.3-1.22-.268-.909.112-1.895 1.057-2.305l.076-.031.076-.027 1.44-.477.047-.056c.19-.218.434-.389.719-.499l.086-.031.082-.025 1.281-.376 4.47-1.319 1.572-.459c6.33-1.832 10.598-2.908 15.033-3.7l.049-.009c.126-.176.23-.367.309-.566l-.064-2.275.212.257c5.639-16.93 10.458-34.234 12.133-52.051.754-8.014.879-16.056 1.004-24.1.112-7.182.223-14.365.783-21.53 1.117-14.277 3.959-28.36 7.659-42.181 4.324-16.302 10-32.337 15.678-48.378 11.494-32.474 22.997-64.971 23.312-99.759l.001-.778c.001-3.148.002-6.259.231-9.411.041-.597.086-1.196.13-1.797.389-5.238.785-10.577-.631-15.687.931 1.119 2.918 1.292 3.671-.147l.156-.298c.32-.606.642-1.218.814-1.88.3-1.988-.194-3.975-.68-5.935-.174-.702-.348-1.401-.484-2.095.933-1.388.232-3.03-.97-3.782-4.475-16.21-9.774-26.292-14.497-35.278-7.953-15.129-14.273-27.154-12.281-60.098 8.639 16.031 24.126 29.556 42.658 31.968.212.027.428.056.647.086 2.274.305 4.874.654 6.956-.289 23.862 2.127 72.52-48.781 84.898-68.569 1.336-.106 2.2-1.13 2.466-2.294 8.411.378 16.803-5.734 17.946-14.227 5.943 2.753 13.12-.874 13.787-7.48.227-2.15-.492-4.175-1.205-6.182-.287-.807-.572-1.611-.795-2.419-.059-.212-.251-.287-.426-.249 1.678-4.146-1.121-7.825-3.696-10.904l-.664-.789c-.297-.407-.526-.887-.756-1.367-.309-.647-.619-1.294-1.093-1.76-.066-.063-.157-.041-.207.028-.813 1.235-.119 3.177.352 4.493l.131.371.074.219c2.702 6.12 2.824 8.726-4.403 10.367-6.653-2.213-6.774 11.259 5.264 4.388 1.803-.927 3.487-2.269 4.501-4.02-.253 1.139-.262 2.324-.27 3.495-.018 2.401-.036 4.746-2.15 6.529-1.205 1.014-2.666 1.567-4.253 1.354-1.2-.159-1.998-.736-2.841-1.346-.414-.299-.839-.606-1.328-.876-2.2-1.217-4.307 1.117-3.374 3.233-1.138.923-1.934 2.132-2.732 3.345-.646.983-1.294 1.968-2.128 2.806-2.133 2.197-5.163 3.726-8.182 3.888-2.339-.074-5.57.033-5.927 3.015-9.991-2.709-14.711-12.799-18.447-21.659l-.582-1.387c3.22-5.596 5.111-11.803 6.987-17.959.219-.719.438-1.437.659-2.153l.244-.79c2.04-9.518 4.981-9.478 13.097-7.002l.768.237c2.973.776 7.546 2.134 6.225 6.175-.482 1.473-1.647 2.422-3.224 2.434l-.119.003c-1.227.01-2.302-.636-3.167-1.457-.253-.184-.526-.284-.796-.383-.275-.1-.547-.199-.791-.385-1.493-1.139-2.979.737-2.779 2.129-.047 1.925.92 2.97 2.457 3.902l.187.111c.596 4.288.066 8.601-.807 12.813l-.128.543c-.439 1.851-.841 3.543-.442 5.49.411 2.009 3.03 2.412 4.379 1.151 4.486-4.851 2.309-13.524-.222-18.893 9.069 2.173 14.502-9.495 7.736-15.388-2.553-2.059-5.715-2.839-8.855-3.614-.905-.223-1.807-.445-2.693-.698 1.404-1.969 2.769-3.979 4.136-5.993 4.777-7.037 9.58-14.112 16.179-19.568.099-.085.23-.207.384-.349.687-.636 1.817-1.681 2.423-1.686.562 1.182-.528 4.058-1.316 6.137-.22.58-.416 1.098-.546 1.5l-.053.168a158.7 158.7 0 0 1-6.075 15.157 180.762 180.762 0 0 1-1.743 3.67c-.106.217-.219.436-.332.655-.573 1.113-1.161 2.254-1.017 3.523.121 1.159 1.292 2.067 2.429 1.392 1.565-.982 2.467-3.18 3.292-5.19.336-.817.659-1.604 1.008-2.265a192.91 192.91 0 0 0 3.377-8.279 203.976 203.976 0 0 0 3.102-8.757l.063-.192c.126-.376.26-.759.396-1.145.671-1.913 1.38-3.932 1.296-5.921-.087-2.016-1.214-3.998-3.408-4.179-2.254-.188-4.37 1.745-6.041 3.271l-.353.322-.519.467c-7.91 7.159-13.191 16.678-17.149 26.474l-.253.632c-9.901-2.125-13.183 3.678-15.073 12.264l-.412 1.522c-1.675 6.173-3.375 12.435-3.804 18.809-1.189-.531-2.798-.293-3.656.612a317.025 317.025 0 0 1-22.91 21.881l-.997.862c-5.7 4.898-11.648 9.48-17.597 14.062-5.177 3.988-10.354 7.976-15.37 12.173-4.374-2.936-7.564-7.316-10.439-11.668l-.468-.712c-3.264-4.996-6.235-10.164-8.986-15.456-3.417-6.654-6.568-13.461-9.719-20.269-7.156-15.461-14.315-30.927-24.611-44.618-12.493-17.504-20.554-24.432-42.7-25.654-4.708-.499-9.447-1.064-13.986-2.463l-.157-.047c-.169-.05-.362-.104-.57-.161-1.133-.314-2.687-.744-3.057-1.321-.326-.509-.773-.771-1.239-.846-1.303-3.489-2.157-7.243-2.414-10.801ZM196.94 861.641c2.206.083 3.114-1.99 3.03-3.838 1.852 6.01-.445 10.819-5.872 13.862-18.905 10.012-43.093 8.537-61.913-.983a66.642 66.642 0 0 1-5.283-3.028l-.182-.115c-.71-.45-1.431-.906-1.808-1.685-.669-1.957-.787-3.891-.856-5.988l-.046-1.48c1.179 1.585 2.999 2.768 4.705 3.877.237.154.472.306.703.458l.351.234c3.753 2.506 7.818 4.494 12.034 6.089 15.611 5.786 34.153 5.433 48.896-2.628l.409-.244c2.112-1.261 4.325-2.582 5.832-4.531Zm20.109-23.689c.238.069.469-.121.482-.352 20.506 13.721 44.803 21.616 69.634 19.457 14.037-.655 28.033-2.195 41.911-4.372a389.49 389.49 0 0 0 7.258-1.22c.586-.13 1.192-.225 1.801-.322 1.715-.27 3.451-.544 4.819-1.595l.002-.006c1.834-.452 3.659-.918 5.487-1.395 1.097.718 1.123 2.626.288 3.532a4.34 4.34 0 0 1-.199.403c.158.894-4.116 2.963-4.958 3.034-2.202 1.055-4.944 1.607-6.853 1.952l-1.423.253c-21.88 3.844-44.252 4.864-66.398 3.1-4.21-.337-8.416-.774-12.603-1.314l-.164-.02c-.32-.041-.643-.079-.968-.118-2.996-.355-6.132-.727-8.396-2.876l-.049-.045c-1.302-1.155-3.83-.355-3.691 1.589l.005.094c.063 2.691-5.757.912-7.998.227-.231-.071-.424-.13-.569-.171l-1.448-.397a667.036 667.036 0 0 1-3.606-1.012c-2.417-.684-4.835-1.368-7.266-1.992l-.155-.03c-4.23-.813-4.655-.895-4.716-5.205l-.005-.417c-.241-2.194-.482-4.378-.861-6.55-.013-.077-.04-.2-.074-.356-.263-1.197-.957-4.359.713-3.876Zm-80.97-373.954c1.095-3.773 2.162-8.498.672-12.152 19.39 10.436 41.075 15.941 62.454 20.872l2.671.614c35.924 8.685 73.56 8.695 109.391-.457 7.027-1.55 14.044-3.41 20.594-6.437 3.903-1.803 7.891-4.253 10.676-7.614 1.079 5.305.28 10.629-.518 15.935-.347 2.309-.693 4.615-.884 6.914-1.143 27.595-10.122 53.882-19.009 79.901-1.657 4.854-3.312 9.697-4.911 14.539-14.741 39.951-28.476 81.088-27.542 124.182.426 24.774-4.809 49.106-12.98 72.408-18.992-.745-38.116 1.152-56.489 6.082-1.884-7.625-3.322-15.342-4.532-23.098 13.475-31.221 20.564-64.509 27.624-97.666 1.536-7.212 3.07-14.418 4.669-21.596 8.752-40.656 16.007-81.992 14.666-123.727-.003-.271-.382-.259-.41 0-6.587 56.344-17.561 112.043-30.335 167.288-5.564 24.594-11.833 49.207-21.935 72.389a2.531 2.531 0 0 0-.924 2.088c-2.491 5.645-5.434 11.094-8.985 16.149a79.739 79.739 0 0 1-4.097 5.396c-.216.252-.436.502-.657.752-1.395 1.584-2.8 3.18-3.255 5.308-1.044-.966-2.782-1.197-4.312-1.401a26.548 26.548 0 0 1-1.253-.187l-.79-.143a159.236 159.236 0 0 0-11.113-1.546c-6.029-3.452-13.995-4.071-20.669-2.143-3.884-.681-7.936-1.074-11.965-1.037 1.087-9.116 1.835-18.231 2.585-27.356.332-4.047.665-8.096 1.027-12.148 2.924-32.015 8.587-63.68 16.378-94.861.351 1.421.516 2.906.382 4.522-.197 2.403 3.558 2.388 3.756 0 .319-3.888-.773-7.165-2.424-10.581l-.19-.388a541.78 541.78 0 0 0-2.924-5.794c-4.051-7.948-8.113-15.917-10.493-24.545-.234-.848-.473-1.692-.711-2.535-.805-2.853-1.607-5.691-2.228-8.605-3.586-16.824-5.888-33.876-8.067-50.931l-1.156-9.095c1.252-1.395 1.693-3.448 1.89-5.317.116-1.128.426-2.269.737-3.412.266-.979.532-1.959.678-2.936 1.219-2.922 1.428-6.305 1.624-9.49.04-.641.079-1.274.125-1.894l.134-1.828a803 803 0 0 0 .55-8.642c.12-1.999.241-3.999.371-5.997a7.184 7.184 0 0 0 0-.492c-.011-.63-.027-1.551.225-1.805.433-.433 1.883-.239 2.949-.096.369.05.692.093.91.102 4.575.438 12.699-1.236 11.321-7.38-.541-1.718-1.964-2.822-3.336-3.886l-.359-.279-.214-.17a992.4 992.4 0 0 0-7.285-5.779 921.537 921.537 0 0 1-7.82-6.21c-.505-.435-.976-.915-1.446-1.396-.873-.889-1.746-1.78-2.841-2.389Zm-25.355 20.038c9.269-1.891 18.995-7.099 23.652-15.56.492.433.927.937 1.362 1.439.386.447.771.893 1.195 1.288 1.014.949 2.1 1.832 3.181 2.711.437.356.873.71 1.304 1.068 1.47 1.242 2.942 2.46 4.41 3.676 2.722 2.251 5.432 4.494 8.1 6.866-1.963 1.097-4.131.988-6.302.88-1.713-.086-3.428-.172-5.047.334-3.355 1.244-3.491 4.717-3.612 7.802-.015.375-.029.743-.049 1.101l-.129 2.278-.121 2.091c-.18 3.1-.359 6.201-.508 9.303l-.016.315c-.03.577-.067 1.166-.105 1.763-.155 2.461-.32 5.061-.023 7.527-1.26 2.882-1.941 5.887-2.141 9.037-.579-.156-1.199-.081-1.643.222-2.375-4.225-3.068-9.317-3.576-14.123l-.111-1.062c-.257-2.513-3.956-2.628-4.012 0-.024 1.191-.046 2.382-.067 3.574l-.121 7.148-.097 5.554c0 .144.015.336.031.551.071.932.175 2.307-.682 2.177l-.058-.006c-1.291-.198-1.673-3.683-1.94-6.122-.086-.784-.161-1.46-.249-1.884l-.025-.11-1.503-10.695c-.341-2.419-3.859-1.595-4.028.543l-.099 1.152c-.389 4.504-.778 9.008-1.111 13.515-.017.121-.031.256-.046.399-.092.86-.216 2.03-1.01 2.347-.681-.61-.901-1.569-1.057-2.464l-.088-.526c-.845-7.753-2.098-15.452-3.351-23.15-1.028-6.314-2.056-12.628-2.858-18.972 1.154-.165 2.212-.883 2.55-1.987Zm28.139-143.489 1.253-6.446c.38 5.173 1.622 10.294 2.864 15.411 2.084 8.591 4.165 17.169 2.156 25.953-1.51 5.439-3.853 10.583-6.196 15.726-2.517 5.526-5.034 11.053-6.52 16.947-.558-11.754-.215-23.514 1.102-35.21 1.256-10.881 3.26-21.637 5.341-32.381Zm330.433-88.506c-.234-.095-.33.256-.157.375 4.254 3.048 6.617 7.87 6.448 13.084l-.003.114c-.128 3.768-1.803 8.735-5.985 9.498.085-.902-.823-1.595-1.708-1.395a7.319 7.319 0 0 0-1.809.693c-2.022-.886-4.239-2.045-5.646-3.776l-.018-.021c-.103-.101-.284-.028-.252.133l.017.118c.51 3.424 2.678 7.1 6.359 7.722 3.029 1.226 6.356-.126 8.576-2.463 6.686-7.247 3.06-20.407-5.822-24.082Z" clip-rule="evenodd"/>
  <path fill="#EDB98A" fill-rule="evenodd" d="M240.898 74.492c13.983 0 30.76 6.773 32.187 6.908l.038.002c.751 0 3.683 2.232 8.798 6.697l-5.54 10.795.448.428c2.146 2.055 3.977 3.928 5.422 5.405 11.803 12.056 13.925 59.393 11.143 75.901-2.781 16.508-7.933 32.661-31.919 32.661-23.985 0-50.67-14.41-54.78-18.898-2.741-2.991-5.819-4.425-9.235-4.3l-.417-.529-.503-.071c-4.728-.684-8.115-1.605-10.162-2.762-3.999-2.261-8.394-14.144-8.394-16.762 0-2.591-6.562-21.444-6.694-23.439l-.002-.055c0-1.668-8.573-9.334-8.573-11.769 0-2.435-1.728-2.287 0-10.867l.502-2.52c1.839-9.135 5.438-24.261 19.162-30.834 15.081-7.223 44.395-15.992 58.519-15.992Z" clip-rule="evenodd"/>
  <path fill="#9DDADB" fill-rule="evenodd" d="M280.228 91.485a563.77 563.77 0 0 0-14.269.601c-7.696.427-15.945 1.067-23.389 2.025-7.46.96-14.056 2.233-18.476 3.91-4.268 1.618-7.824 5.54-10.757 10.671-2.925 5.115-5.171 11.329-6.865 17.366-1.693 6.031-2.827 11.854-3.537 16.173a153.074 153.074 0 0 0-.765 5.177 91.595 91.595 0 0 0-.217 1.807l-.01.095-.003.023v.006l-.001.001-.746-.076.746.076-.043.421-.382.181-.003.001-.013.006-.051.025-.205.1c-.181.089-.447.223-.787.398a74.54 74.54 0 0 0-2.826 1.541c-2.342 1.342-5.46 3.285-8.575 5.691-1.555 1.201-2.496 2.087-3.042 2.73-.434.51-.568.809-.607.944a.16.16 0 0 0 .021.005l.022.004.008.001.72.037-.019.731v.001l-.001.005v.021l-.002.086-.005.332c-.004.29-.007.709-.004 1.225.005 1.034.031 2.453.118 3.999.087 1.547.233 3.211.475 4.736.244 1.538.578 2.882 1.018 3.82.374.797 1.265 1.522 2.565 2.148 1.278.615 2.835 1.08 4.367 1.424a42.27 42.27 0 0 0 5.753.857l.092.007.023.001.005.001h.001l.521.033.15.501 1.947 6.515.041.138-.013.143-.295 3.308a11.027 11.027 0 0 0-1.448-.651l.236-2.647-1.758-5.885a41.343 41.343 0 0 1-1.345-.141 43.391 43.391 0 0 1-4.239-.717c-1.585-.356-3.266-.85-4.689-1.535-1.401-.675-2.676-1.593-3.272-2.863-.53-1.131-.891-2.641-1.142-4.222-.252-1.593-.403-3.311-.491-4.887a81.367 81.367 0 0 1-.117-5.221c-.35-.182-.769-.57-.759-1.252.009-.597.36-1.244.98-1.974.642-.756 1.674-1.714 3.268-2.946 3.185-2.459 6.365-4.44 8.747-5.804a74.472 74.472 0 0 1 3.609-1.941l.011-.101c.039-.335.098-.827.179-1.454.162-1.254.413-3.051.772-5.229.716-4.353 1.861-10.234 3.573-16.335 1.711-6.095 3.997-12.439 7.006-17.705 3.002-5.25 6.781-9.53 11.528-11.33 4.594-1.741 11.337-3.031 18.816-3.994 7.494-.965 15.783-1.607 23.498-2.035a574.62 574.62 0 0 1 15.134-.627l-.782 1.524Z" clip-rule="evenodd"/>
  <path fill="#000" fill-rule="evenodd" d="M180.051 90.144c7.522-7.977 50.222-20.316 71.826-17.7l.648.084a38.25 38.25 0 0 1 5.1.998c5.42 1.265 11.018 3.18 15.496 6.379 3.739 2.617 15.533 6.89 12.057 13.737 1.289 2.44 1.77 5.454.899 7.857-.11.831-.366 1.595-.693 2.388 2.753 4.06 4.934 8.652 6.699 13.019 3.084 10.991 5.003 22.43 5.284 33.644.935 21.305-1.403 46.754-19.974 60.531-11.219 8.73-28.792 9.023-41.399-1.801-.716-.846-4.081-3.129-2.958-3.53.334.353.678.696 1.028 1.033a.205.205 0 0 1-.013-.115l-.329-.298c-.619-.573-1.422-1.403-.508-1.241.041.047.085.088.128.135.194.116.34.216.454.305l.058.047-.018-.019c-.526-.561-.842-1.133-.055-.768l.104.051c.351.368.706.721 1.069 1.064a.203.203 0 0 1 .022-.125l-.338-.326c-.33-.323-.279-.324-.118-.585-.701-.982.607-.399.699-.016.819-.193 1.537 1.342 2.064 1.529 23.112 17.754 56.65 2.001 56.107-47.469l-.008-.968c-.159-15.818-1.491-32.076-8.039-46.396a41.151 41.151 0 0 0-2.133-4.019 38.638 38.638 0 0 0-1.74-2.846 25.773 25.773 0 0 1-5.15-.952 24.448 24.448 0 0 1-1.73-.499c-8.395.457-16.603.955-25.022 1.427l-2.629.164c-7.132.458-14.507 1.192-20.262 5.599-5.647 4.012-5.672 11.925-10.506 16.33-6.893 4.675-6.943 8.89-8.27 15.778.098 5.193 3.702 12.738-2.911 14.923 1.115 1.589-.44.826-.562.268-.012.003-.025.007-.034.007.994 1.846-.468.683-.597.09a.57.57 0 0 1-.234-.156c1.001 1.618-.618.485-.522.19-1.935-2.972-5.918-3.434-8.726-2.646-.034.106-.159.116-.237.059-11.939 2.586-8.859 27.281 3.376 24.894.524-.107.511.144.615.168-.282-.741.514-.44.506-.284l.048-.002c.039-.004.023-.008.052.002-.273-1.516 1.264.681 1.143.771a.39.39 0 0 1 .147-.05l-.053-.144c-.255-.679-.233-.397-.232-.786-.191-.481-.205-.27-.16-.584.674-.522.873 1.061 1.097 1.177-.385-.537-.079-.975.285-.684 2.756 5.792 6.315 11.233 10.915 15.52.503.396 1.012.786 1.54 1.154 1.956 1.703 4.958 2.798 6.79 4.307a.191.191 0 0 1-.031.087l.042.038.042.04.637.306c.188.159.356.337.506.533.159.185.3.387.419.603.059.262-.072.371-.322.259-.11-.038-.219-.081-.328-.122.006.009.009.016.016.022.035.054.278.616-.002.525l-.033-.013c-.153-.056-.306-.119-.456-.178.178.221.34.462.484.665.153.159.247.346.285.558-.007.119-.072.169-.191.153a16.202 16.202 0 0 1-.537-.187l.05.096c.126.248.305.663-.013.525a9.913 9.913 0 0 1-.796-.287c-.022.043-.066.059-.153.018a15.967 15.967 0 0 1-2.411-1.086c-.678-.493-1.362-.976-2.043-1.466a15.822 15.822 0 0 1-1.849-1.292 40.267 40.267 0 0 1-10.15-9.393c-4.588 3.969-13.76.177-19.434-2.931-5.019-2.777-6.991-7.912-7.501-13.449-1.06-7.454-7.157-10.005-6.733-26.36-.009.003-.019.003-.031.003a3.168 3.168 0 0 1-.64-.266 3.154 3.154 0 0 1-.591-.362l-.228-.315a1.933 1.933 0 0 1-.306-.203l-.042.055c-.133.16-.043-.081-.036-.13l-.396-.538c-.939-1.281-1.969-2.718-2.808-3.868l-.027.047c-.019.035-.029.061-.02.072-1.997-2.868-3.875-6.331-4.397-9.684-.616-2.582-.376-5.243.162-7.636 2.304-8.377 9.854-27.334 19.766-35.46Zm54.202 115.854-.125-.111.11.137a.964.964 0 0 0 .213.201.176.176 0 0 1-.003-.069 5.023 5.023 0 0 1-.195-.158Zm17.528-129.345c-14.65-1.259-29.059 1.966-43.039 5.87l-.965.277c-7.949 2.266-16.354 4.306-23.072 9.157-9.385 7.182-14.232 18.609-18.461 29.159-3.693 7.838-1.805 16.677 3.76 22.15.579-5.439 1.566-10.719 3.109-15.956.322-.818.079-1.086.773-1.193 1.048 14.114-4.115 24.542 6.101 41.269 4.433 7.893-.698 13.668 11.819 17.821l.339.129c2.608.984 5.456 1.76 8.01 1.21l-.229-.372c-.233-.383-.304-.569.036-.733l-.035-.059a42.046 42.046 0 0 1-.793-1.573c-.103.035-.206.06-.312.088.069.128.078.256-.116.299a5.43 5.43 0 0 1-2.118.286l-.155-.011a7.161 7.161 0 0 1-1.793-.337c-.153-.025-.306-.05-.456-.081-1.482-.329-3.051-1.164-4.066-1.991-11.574-6.569-10.378-28.928 3.888-31.041.293-14.078 6.994-37.829 18.116-51.243 10.052-12.34 37.497-17.688 56.591-15.802.278.092.556.185.835.28 2.945.26 5.753 1.572 8.701 2.181-2.117-1.585-4.518-2.64-6.991-3.538-4.928-3.011-10.577-4.641-16.035-5.79a15.8 15.8 0 0 0-3.442-.456Zm-58.428 85.677c.767-.416.679-.014.856-.131 5.517-.45 11.466 4.377 14.551 8.401-.244.252-.903-.497-1.019-.615a.138.138 0 0 1-.053.034l.086.121c1.25 1.793-1.228-.316-1.46-.751a.184.184 0 0 1-.128.025c.197.192.797.694.9 1.051l.159.133c1.5 1.283 1.375 2.248-.328.426.041.084.056.162.028.225l.059.039c.837.584 1.526 2.214-.224.541.182 1.222-1.735-1.14-1.796-1.123-3.316-2.601-8.199-5.131-12.359-5.471l-.143-.016c-.763-.098-1.124-.325-.856-.823-.94-.224-.72-.686-.275-.671-.663-.436-.066-.852.319-.69-.265-.732.796-.244.893-.346.55-.849.699-.141.79-.359Zm-11.565-45.358c2.65-.97 10.478 1.933 9.851 5.778-.373.883-1.601 1.389-2.465.891l-1.127-.757c-1.961-1.312-3.73-2.463-5.836-3.608-1.146-.568-1.64-1.775-.423-2.304Zm15.077-5.715-1.023-.665c-5.523-3.612-13.331-9.084.516-3.422 1.578.676 3.675 1.076 4.536 2.578 1.352 2.767-2.208 2.953-4.029 1.509Zm.621-16.205c-.444-1.68 5.071.292 6.676.811l.245.093c1.561.581 3.352 1.12 4.286 2.467 1.094 1.861-1.121 2.246-2.493 1.406-2.813-1.837-5.897-3.223-8.714-4.777Zm14.023-7.828c-3.104-3.387 5.203-.142 6.447.758l.036.027c.928.653.74 2.06-.132 2.473-2.482.047-4.309-2.02-6.351-3.258Zm14.125-3.71c-4.935-3.544 1.565-1.859 3.823-.47 1.539 1.356-.046 3.645-3.823.47Z" clip-rule="evenodd"/>
  <path fill="#000" fill-rule="evenodd" d="M260.084 189.399a12.729 12.729 0 0 1-5.353-4.106c-.477-.634-.601-1.304-.501-1.916.113-.689.521-1.313 1.078-1.731.559-.42 1.258-.627 1.934-.521.587.091 1.172.412 1.634 1.077l.097.133c.816 1.1 1.879 2.003 3.091 2.586a6.983 6.983 0 0 0 3.825.67c2.574-.29 4.348-1.678 6.233-3.562.234-.238.468-.484.703-.733.148-.226.354-.372.583-.448.254-.084.541-.08.804.012.254.088.481.256.633.478.144.212.226.473.2.774-.173 1.953-1.197 3.696-2.652 5.065-1.616 1.52-3.757 2.572-5.774 2.941-2.221.406-4.485.115-6.535-.719Zm7.583-30.132c2.364 1.432 5.965 4.772 3.422 8.323-2.993 3.131-7.301-.459-9.425-2.082-1.969-1.259-4.181 1.978-2.354 3.447 15.343 11.326 21.57-9.314 9.552-11.372-1.323-.227-1.814 1.241-1.195 1.684Zm-27.495-13.176c.261-3.232 5.197-3.965 5.688-.767.44 2.864-.078 5.496-1.372 8.075-1.236 2.464-4.344 1.315-4.579-.929-.315-3.008.1-4.368.263-6.379Zm37.577-1.431c.688-.898 1.682-1.512 2.872-1.165 3.72 1.084 2.624 6.349 1.317 8.912-.709 1.392-3.004 1.745-4.041.519-1.69-1.998-2.499-5.989-.351-7.958.059-.101.123-.204.203-.308Zm-33.313-12.71.588-.103c1.817-.313 4.077-.614 5.363.843.682.772.917 2.209 0 2.948-1.612 1.301-3.395.797-5.327.907a21.256 21.256 0 0 0-4.657.791c-3.365.959-6.107 2.71-8.981 4.632-.377.252-.762-.228-.582-.58 1.659-3.24 4.874-5.902 8.094-7.524 1.719-.866 3.6-1.585 5.502-1.914Zm29.922-1.452.45.092c4.894 1.02 11.253 3.058 13.57 7.851.088.678-.005.823-.081.918l-.025.031c-.063.081-.112.193-.407.285-.082-.019-.164-.04-.248-.061-1.062-.278-1.903-.66-2.716-1.057l-.883-.434c-1.023-.5-2.056-.982-3.15-1.338a37.206 37.206 0 0 0-7.177-1.581c-.529-.061-1.038-.239-1.44-.544a2.154 2.154 0 0 1-.805-1.223c-.172-.69-.123-1.211.248-1.833a2.33 2.33 0 0 1 1.136-.977c.467-.19.999-.234 1.528-.129Z" clip-rule="evenodd"/>
</svg>
