<svg xmlns="http://www.w3.org/2000/svg" fill="none" viewBox="0 0 514 1026">
  <path fill="#AE5D29" fill-rule="evenodd" d="M135.394 937.642c-2.197-10.213 7.849-13.666 14.183-15.938 4.536-2.939 21.345-13.118 34.351-25.683 10.643-10.282 17.888-23.459 20.904-24.715 0 0 3.104-1.798 3.426-3.135 1.889-7.829.314-15.126 0-19.873-6.054-1.587-10.906-3.568-14.535-6.338-1.058.353-2.644.803-3.117-.742-3.279-21.853-4.695-43.448-7.363-65.318-10.099-83.296-11.238-180.607 6.137-256.686.182-3.771-.147-7.177-.484-10.417-2.349-.253-3.77-2.525-5.688-3.883-2.978-2.363-6.503-4.179-6.358-8.31-.707-.535-.625-.836-.276-1.517-2.271-9.755 7.859-20.035 10.724-28.077-5.208-50.877 1.878-98.955-2.075-149.844-4.993-2.087-1.636-15.131-1.295-20.511 2.766-34.659 20.805-68.927 53.288-80.25 1.857-.376 4.648-2.496 6.184-1.073 2.97-1.175 6.921 1.142 9.219-1.525l-.023-.017c1.935-2.681 2.803-6.088 3.439-9.31a21.669 21.669 0 0 1-.503 2.689c5.6-15.764 7.011-19.979 25.038-20.721 8.121-.109 18.826.135 23.561 7.871 1.94 3.596 1.347 7.725 2.551 11.51 2.211 6.947 11.753 3.59 16.762 7.197 40.092 12.844 72.978 39.06 83.787 81.139 2.21 5.072 4.716 10.12 6.564 15.354.286.777 1.072 3.406-.817 4.616l-.913.585c12.034 56.179 12.832 103.518-27.597 140.971-3.034 16.093 4.771 38.071 1.771 53.696 1.709 2.423-.459 4.374-2.644 4.53-.211.116-1.062.489-1.295.595 3.479 49.043-11.124 115.138-17.561 141.225-.876 15.663 4.476 28.529 15.486 37.065 12.165 7.484 36.214 41.282 31.756 76.736 5.21 1.021 10.383 1.581 15.382 3.537 21.872-3.856 21.655 38.259 23.048 53.067 2.361 24.794 3.828 60.731-19.755 76.602-6.212 4.502-18.809 9.772-25.264 2.567-2.115-2.538-2.645-4.99-1.813-7.582-10.659-15.042-7.787-34.717-8.766-52.36-3.091-.186-6.325 1.262-9.315.735-3.069-2.701 8.127-1.965 9.288-2.123a143.643 143.643 0 0 0-.621-8.329c-1.756.351-4.005 1.193-5.694 1.258-.999.243-1.706-1.132-1.102-1.844 1.317-1.256 4.677-1.061 6.568-1.24-.319-2.296-.709-4.71-1.143-6.93-2.314-.083-4.702 1.389-6.892 1.088 1.657-1.105 4.769-.769 6.79-1.499-1.314-7.152-3.992-13.941-6.481-20.631-6.108 2.517-11.377 2.616-17.34 1.861-2.439.375-3.628-.123-4.023-3.171l.156-.192c-4.726-28.246-19.976-55.173-48.302-85.71-5.596-6.255-11.918-13.619-16.131-21.852-8.465-17.135-9.911-36.043-16.434-53.838-6.089-17.886-14.416-34.995-22.234-51.951-1.146 8.69-2.686 17.604-4.287 26.125-7.046 30.195-6.363 62.411-1.178 92.773 7.672 42.525 3.974 85.252 5.68 128.077-.023 2.47-.33 4.714.033 7.286.048.198-.045.432-.28.426l-.443.012c-3.688 2.697-8.78 3.184-13.113 4.648-1.82 1.438-1.307 3.716-1.474 5.494-.476 7.66-1.085 15.35-.329 23.245 3.343 6.399 7.495 5.077 8.345 14.098.743 10.298 2.058 21.248-2.962 30.418l1.899.328c2.819 5.908 1.098 9.745-5.528 12.244-32.71 12.81-78.739 24.441-112.872 14.771-.621.615-1.523-.023-2.229-.988-.677-.928-1.174-2.16-1.063-2.874.583-3.136-.219-8.863 3.292-9.442Z" clip-rule="evenodd"/>
  <path fill="#fff" fill-rule="evenodd" d="M193.835 951.178c5.877-1.058 39.641-8.73 58.993-18.706 3.952-2.037 2.979-6.852 1.692-9.978-.59-1.432-1.986-2.51-1.692-2.804 6.187-6.18 1.56-22.447 1.56-25.564 0-4.634-7.52-10.908-6.242-13.406 1.475-2.883-.339 6.979-4.058 12.47-3.241 4.787-8.329 5.157-8.834 4.947l-.091-.039-.065-.034c-1.4-.765-22.532-31.172-31.274-26.697-4.115 2.107-6.325 11.421-10.925 15.277-10.315 8.645-15.294 22.446-53.686 40.216-4.109 1.903-4.145 5.971-3.308 9.154.309 1.173-3.871 1.135-3.247 1.758 1.586 1.584-2.814 10.687.624 12.159 13.526 5.791 48.646 3.39 60.553 1.247Zm219.42-181.132s-2.218 2.773-2.178 4.052c.331 10.537 2.84 18.299 2.919 23.48l.005.35-.009.128c-.152 2.102-3.366 10.174-10.406 11.895-3.976.971-15.606-3.43-15.606-3.43s6.644 18.332 7.803 34.917c.91 13.025.175 27.797 1.873 39.282.926 6.27 4.281 13.246 8.115 18.082.939 1.185-3.145 3.429-2.185 4.365 1.798 1.752 6.243 7.794 19.976 3.117 3.998-1.361 15.629-8.925 22.161-23.382 4.772-10.56 5.221-25.945 5.931-39.593.784-15.083-2.131-38.621-5.931-51.44-4.225-14.255-9.479-17.04-10.567-17.83-.255-.184-8.163-1.744-8.924-1.829l-.133-.015-.105-.01-.058-.022c-3.105-1.201-6.654-1.779-11.322-2.046l-.288-.016-1.071-.055Z" clip-rule="evenodd"/>
  <path fill="#FFCF77" fill-rule="evenodd" d="M280.466 493.554c-4.391-.219-45.152 11.942-53.219 12.628l-.57.046c-10.458.8-20.551-1.085-32.124-6.079l-.351-.152-.368-.161-3.084-1.358-.402 3.343c-13.515 112.364-12.773 223.461 2.354 329.589l.463 3.214.63 4.283.834.617c7.514 5.549 16.807 8.887 28.18 10.265 7.619.922 15.68.982 26.349.243l.837-.059.816-.06.9-.069 1.144-.091.921-.282.725-.226.734-.232.374-.119.761-.245.782-.255.794-.262 1.105-.369.026-.007.384-.091.159-.04c1.038-.276 1.769-.718 2.278-1.536l.056-.093.069-.124.59-1.112-.545-1.135c-1.956-4.072-3.152-8.588-3.693-13.878l-.034-.339-.042-.458-.036-.412c-.297-3.574 1.206-56.098.347-69.41l-.088-1.336-.049-.716-.145-2.029c-.559-7.662-1.206-14.493-2.456-25.838l-.307-2.763-.524-4.667-1.063-9.355-.439-3.914-.324-2.935c-1.951-17.78-2.798-27.999-3.227-39.092l-.027-.717-.029-.805-.029-.839.003-.4c.06-6.664.735-13.64 2.068-21.515l.086-.504.088-.506.093-.531.278-1.534.199-1.068c.828-4.395 1.748-8.616 3.309-15.22l.708-2.98 1.93-8.032c1.934-8.094 2.961-12.708 3.867-17.435l.127-.669.195-1.045.264-1.447.191.168.212.19c.801.73 1.499 1.466 1.847 1.982l.043.066.041.066c7.527 12.579 13.926 26.53 19.891 43.228l.208.583.339.959.48 1.369c3.724 10.667 6.631 20.233 12.031 39.446l.348 1.239.732 2.612 1.896 6.784.177.441c2.94 7.257 7.445 14.211 14.243 22.151l.266.31.281.327.035.039.861.932.833.905.812.887c13.183 14.439 22.957 26.964 30.708 39.462 9.987 16.105 16.251 31.769 18.927 47.589l.08.479.081.495.347 2.173 2.201-.073c11.134-.371 19.378-3.773 25.828-10.575 2.54-2.679 4.825-5.89 7.113-9.959l.167-.299.326-.591c1.332-2.436 9.357-25.316 7.578-34.351l-.111-.556-.119-.573-.062-.291-.139-.634c-1.22-5.5-19.457-44.294-28.217-52.972l-.302-.298-.306-.299-.058-.054-1.05-.935-.408-.366-.407-.367-.482-.436-.475-.434c-7.592-6.965-11.352-11.916-13.344-17.703l-.061-.18-.093-.262c-1.988-5.662 5.343-57.257 6.652-65.716 5.236-33.827 8.39-70.284 7.869-95.052l-.021-.933-.051-1.823-.559-.665c-2.905-3.456-6.635-5.956-11.377-7.695l-.255-.092-.391-.138c-3.036-1.052-6.275-1.774-10.889-2.447l-.284-.041-.557-.079-.588-.081-.596-.08-5.117-.652-1.215-.16a106.537 106.537 0 0 1-3.305-.488l-.653-.112-.507-.092-.631-.121-1.631-.326-1.337 1.272-.193.186c-.213.207-.422.413-.652.642l-.14.14-.462.467-1.285 1.311c-3.126 3.181-4.677 4.472-6.64 5.488l-.094.048-.19.096-.452.221-.897.839-.542.51-.516.49c-5.447 5.185-9.001 9.2-11.872 13.492l-.134.202-.262.398-.202.313-.217.411c-4.214 7.942-9.146 13.929-15.294 18.498l-.247.182-.281.205-.03.023-.933.734-.432.335-.319.244-.31.234c-4.403 3.295-7.236 4.29-9.737 3.512l-.087-.027-.273-.092-.16-.058c-.713-.27-1.347-.661-2.36-1.478l-.232-.188-.349-.292-.251-.212-.828-.711-.277-.234-.299-.249c-1.656-1.369-2.743-2.047-4.168-2.567l-.127-.045-.268-.093-1.719-.347-.422-.088-.31-.067c-2.931-.648-4.081-1.318-5.377-3.163l-.067-.096-.133-.196-.646-.981-1.174-.239-.17-.037c-2.484-.552-3.187-1.251-2.933-2.461l.013-.06.019-.078 1.119-4.438-4.337 1.465-1.595.535-.192.065.662-1.522.249-.581.169-.399c1.207-2.87 1.748-4.569 2.083-6.608l.023-.14.043-.274.021-.565c.522-12.931 3.175-16.687 16.054-22.402l.393-.174.416-.182 9.747-4.248-10.622-.529Z" clip-rule="evenodd"/>
  <path fill="#000" fill-rule="evenodd" d="M133.991 947.9c29.394 13.184 82.768-3.451 111.649-13.075 7.787-2.807 10.382-3.357 8.2-12.324-4.083 7.87-12.863 9.77-21.275 11.348-28.494 6.488-57.544 18.466-88.017 12.622-4.473-.703-8.899-3.122-10.201-7.586-.802 1.892-.306 4.454-.627 6.534-.06.829-.078 1.726.271 2.481Zm118.881-49.037c-.53-5.285-1.379-10.868-4.391-15.538.327 7.553-4.214 20.392-14.165 16.115-2.818-1.492-4.398-4.497-6.211-6.91-6.027-7.937-13.756-14.829-22.486-19.838-4.857.834-6.945 9.705-10.076 13.418 3.49 1.554 9.814 5.093 10.453 8.753-4.357-1.464-8.368-4.19-12.937-5.148a89.39 89.39 0 0 1-4.645 5.865c2.129.937 10.713 5.27 10.656 7.433-4.641-.753-9.139-3.023-13.805-3.955-2.076 2.056-3.964 4.269-6.03 6.332 3.121 1.284 6.417 2.718 8.121 5.711.081.135-.118.286-.228.155-2.338-2.815-6.361-3.332-9.848-3.965-5.349 5.031-11.339 9.47-18.043 12.79-6.708 3.664-16.902 4.502-19.571 12.449-2.135 7.945 4.523 8.793 10.666 9.354 6.214.883 12.472 1.017 18.646.501 19.299-.803 37.543-6.478 55.781-11.436 22.298-4.1 29.533-7.419 28.113-32.086Zm-7.919-46.261c-11.814 1.608-23.949.617-35.489-2.229a73.06 73.06 0 0 1 1.672 10.048h-.026c.118 1.076.414 2.466.424 3.788-.075 1.945-.047 4.318-1.227 5.937 8.543 6.311 16.883 13.343 22.817 22.145 3.926 7.161 9.151 2.802 10.45-2.935.833-10.149.441-19.827.854-29.559l.037.006c.108-2.403.259-4.804.488-7.201Zm1.38-.2c.053.349.1.699.15 1.051.062-.371.106-.745.197-1.11-.116.019-.231.041-.347.059Zm5.952-5.134a216.315 216.315 0 0 0 5.896-1.899c.481-.156 1.28-.203 1.536-.686-7.285-15.164-3.012-32.785-3.355-48.993 2.544-44.195-7.604-87.611-9.055-131.541.115-24.897 8.777-48.622 13.175-72.939-4.498-9.611-8.69-19.332-12.757-29.109-.131-.296.371-.48.534-.215 4.794 7.361 9.569 14.721 14.014 22.285 21.512 32.017 31.185 68.528 41.373 104.935 3.303 8.293 8.602 15.6 14.489 22.4 24.424 26.353 47.222 56.416 52.912 92.025 22.667-.755 29.215-14.647 37.131-32.171l-.066-.196a6.936 6.936 0 0 0 .637-1.574c.072.056.144.115.216.174 5.287-10.098-2.195-31.154-6.199-41.691-5.247-11.713-12.311-22.609-21.625-31.663-6.86-6.085-13.961-12.719-16.901-21.446-4.907-13.648-.575-28.893 2.175-42.608 6.646-34.01 13.091-86.329 12.07-121.053-8.493-10.104-23.387-9.106-35.301-11.507-3.481 3.274-6.449 7.13-10.794 9.247-5.056 4.714-9.985 9.652-13.7 15.426-4.138 7.884-9.369 14.734-16.707 20.04-3.709 2.927-9.055 7.173-14.24 5.381-3.68-1.197-5.725-4.895-9.348-6.136-4.355-.885-6.964-1.206-9.532-5.113-3.1-.611-6.056-2.129-5.151-5.72-.811.274-1.623.539-2.422.816-1.62.562-3.368-1.181-2.828-2.703 1.336-3.142 2.884-6.241 3.405-9.639.547-15.136 4.455-19.304 18.376-25.371-5.572-.278-11.031 1.085-16.318 2.594-26.391 9.642-43.698 15.585-71.197 3.479-13.375 111.198-13.153 224.582 3.287 335.4 15.684 11.585 37.545 11.276 56.27 9.771Zm158.327-64.148a70.396 70.396 0 0 0-.174-1.362c-3.305 8.969-8.967 17.492-17.398 22.686 3.227 4.022 9.514 5.219 13.755 1.927 7.398-5.54 4.314-15.563 3.817-23.251Zm-14.067 41.816c3.283-.252 17.326-.735 19.012 1.465-1.898.802-4.507.359-6.549.449-3.964.163-7.919.512-11.842 1.067.294 1.527.559 3.052.777 4.583 3.958.377 11.665.548 14.177 3.314-4.482.713-9.148.071-13.646.963.219 2.095.378 4.193.496 6.291 1.792.19 12.329 1.933 12.32 3.588-3.945.524-8.125-.165-12.145.225.871 12.573-2.082 50.542 15.123 52.865 15.041-.792 21.64-25.14 23.684-36.822 4.532-27.216 3.755-56.235-5.228-82.47-3.209-7.295-11.942-8.56-19.327-8.938a143.008 143.008 0 0 1-.871 3.67c3.203 7.251 4.223 15.416 4.311 23.263-.678 11.28-14.611 19.666-24.73 12.215 1.891 4.614 3.352 9.415 4.438 14.272Zm19.904 81.142c29.793-6.397 34.681-40.859 32.633-66.199-1.669-17.639.337-54.829-15.965-65.192 21.069 19.211 19.24 149.994-27.451 127.167 1.164 3.685 7.15 4.748 10.783 4.224Zm-33.597-390.501a2.665 2.665 0 0 1-.549-.249c.043 4.352-.025 8.704-.184 13.05.305-4.265.549-8.533.733-12.801Zm2.456-66.258c39.765-39.578 32.178-84.455 23.045-133.891-14.742 1.758-29.565 5.291-42.84 11.775 4.682 21.82 4.982 41.598 6.998 63.739.609 2.738-.078 8.009-3.961 6.794-35.692 28.304-39.84 86.469-86.678 103.289-19.09 7.75-11.034 14.041-17.342 28.675 3.471-.636 6.567-3.541 8.059-6.322.74-1.381 2.894-.166 2.172 1.212-1.554 2.965-4.163 5.35-7.257 6.84.382.749.513 1.59.553 2.379 5.572 1.138 4.005 3.779 7.769 5.038 2.463.68 4.832.97 6.961 2.46 7.244 6.74 9.042 6.244 16.817.315-.106-.536 10.475-10.859 13.752-16.629 2.731-4.814 5.591-9.662 9.776-13.384 20.498-20.963 42.334-40.747 62.176-62.29ZM189.956 317.688c2.032 27.984 1.508 52.981 1.071 81.008-.253 18.852-.371 37.71.284 56.556 16.615-42.892 11.53-89.434 13.89-134.518-4.91-1.634-10.185-2.347-15.245-3.046Zm119.103-107.563c.058.103.121.206.184.306.412.028.827.065 1.248.112-.478-.144-.955-.278-1.432-.418Zm-56.618 3.292c.016-.047.032-.093.044-.137l-.115.072c.031.018.05.04.071.065ZM131.098 942.441c.081-2.23.113-5.112 2.728-5.904-1.186-9.615 6.805-15.088 15.194-17.752 7.154-4.371 15.267-7.424 21.84-12.694-3.052-.573-6.105-1.264-8.817-2.591-2.048-1.001-1.062-4.333 1.157-4.024 3.93.518 7.46 2.513 11.153 3.9 2.098-1.721 4.129-3.517 6.049-5.42-2.391-.462-5.431-.292-6.823-2.662-.434-.741-.24-1.51.284-2.083 2.422-2.448 7.223-.003 10.232.71 1.444-1.663 2.84-3.36 4.21-5.078-2.272-.209-8.184.206-7.026-3.54 2.219-2.93 6.992-1.172 10.201-.569 4.07-5 5.381-12.669 11.742-15.419.228-1.212 1.813-1.119 2.871-.759.669-3.187 1.028-5.701 1.185-8.135l.078-.007c.069-3.56-.067-7.129-.28-10.674-4.722-1.306-9.407-3.021-13.334-5.833-1.804.53-3.992-.081-4.367-2.198-3.264-21.68-4.716-43.628-7.372-65.385-9.685-80.126-11.795-177.925 6.134-257.083.14-2.999-.072-6.002-.375-8.979-2.138-.571-3.412-2.656-5.181-3.863-3.29-2.678-6.636-4.177-6.939-8.851-.665-.632-.743-1.59-.378-2.419-.852-4.798.403-9.561 2.959-13.708 2.803-4.723 5.45-9.49 7.788-14.447-5.113-49.962 1.823-98.385-1.969-148.597-4.863-2.572-1.811-16.863-1.359-21.627 2.841-31.285 17.464-65.828 48.556-78.84 2.181-1.84 5.228-2.463 7.893-3.476 1.801-.886 4.732-1.653 5.965.408 1.308-.608 5.518-1.073 6.961-2.126.268-.197.44-.412.48-.652a1.66 1.66 0 0 0 .365-.047c1.33-1.876 2.597-14.948 4.236-14.016 1.788 4.489.549 9.561-1.161 14.094-1.18 4.01-2.797 14.323-9.064 11.685-1.081-.536-.412-1.93.555-2.042 2.971-.848 3.633-5.209 4.782-7.766-1.361 1.129-7.56 2.822-8.237 3.18-13.447 30.827 67.854 29.209 74.246 7.956 4.557-7.342.624-11.32-7.501-12.498 5.972 6.628-1.588 8.099-4.463 1.599-2.75-4.655-4.001-10.31-3.062-15.666-.484-1.88-.893-4.393 1.923-3.887.096-.25.25-.053.19.124 1.027 1.634.312 3.981.677 5.868.309 3.086 1.187 6.11 2.675 8.841a253.33 253.33 0 0 1 8.25 1.708c1.642-3.332 12.292 3.314 15.151 4.097 37.983 11.208 66.867 41.056 76.949 78.704 2.25 5.013 4.679 10.051 6.52 15.22.824 2.238.824 5.016-1.439 6.466 11.028 50.526 13.719 103.17-27.942 141.068-.945 4.102-.315 8.454-.287 12.632-.349 9.515 7.791 42.125-1.663 46.343 2.762 42.243-7.598 99.723-17.639 140.476-.742 14.007 3.487 26.749 14.87 35.587 21.643 16.162 30.761 43.138 33.292 68.846.359 2.634.006 5.315-.587 7.903 4.691.873 9.083 1.44 13.637 3.158 25.117-4.807 23.325 49.093 25.248 65.086 1.505 23.644.565 51.986-21.187 67.468-7.313 5.2-20.223 10.194-27.349 2.319-2.016-2.409-3.115-5.228-2.322-8.308-10.216-14.943-7.803-34.041-8.568-51.044-2.675.093-5.59 1.284-8.225.629-2.029-.536-2.288-3.136-.571-4.171 2.478-1.403 5.846-.87 8.618-.963a112.716 112.716 0 0 0-.362-4.882c-2.631.642-6.402 2.185-7.185-1.487-.316-3.346 3.914-3.601 6.548-3.745a95.927 95.927 0 0 0-.624-3.772c-2.017.203-4.145 1.487-6.127.873-1.124-.443-1.514-1.578-.693-2.497 1.526-1.494 4.136-1.194 6.155-1.659-1.227-6.001-3.443-11.741-5.578-17.48-3.864 1.34-8.049 2.226-12.173 1.889-2.138-.449-4.473-.577-6.633-.287-2.403-.636-2.958-3.202-3.274-5.297a2.34 2.34 0 0 1 .147-.212c-5.553-32.298-25.473-60.2-47.809-84.24-6.152-6.877-12.185-14.029-16.365-22.197-8.49-17.072-10.013-36.28-16.508-54.016-5.472-16.105-12.785-31.55-19.955-47.016-2.874 20.37-8.243 40.407-8.858 61.064-.936 26.135 4.829 51.889 7.288 77.815 4.423 34.122.406 68.456 2.541 102.603-.016 2.416-.328 4.692.016 7.109.19 1.337-.771 2.176-1.783 2.204-3.714 2.434-8.38 3.298-12.65 4.339-1.183.904-.671 3.13-.881 4.493-.082 1.372-.168 2.74-.251 4.106h-.01c-.376 5.766-.664 10.761-.057 17.04 4.177 6.168 7.185 5.182 8.347 14.558.639 9.787 2.047 20.371-2.235 29.255 1.916.435 2.644 6.277 2.356 7.823-.486 4.36-4.335 5.739-8.056 7.244-27.189 10.175-84.961 26.927-112.9 15.407-2.001 1.131-4.232-1.086-4.879-2.871-.855-2.173-.068-4.278.091-6.436Z" clip-rule="evenodd"/>
  <path fill="#AE5D29" fill-rule="evenodd" d="M225.669 116.001c10.958-28.856 30.711-49.983 64.011-36.713.955-.651 2.202-.826 3.396-.063 18.14 11.4 31.203 29.678 36.864 50.289 3.445.656 6.792 1.799 9.783 3.674 6.498 4.076 10.87 10.561 14.969 16.878 1.232 1.898.091 5.042-2.225 5.473-1.006.188-2.003.3-2.995.329.242.877.559 1.724.964 2.502 1.465 2.813-1.303 5.8-3.896 5.031-.288.152-.59.278-.902.372-.036 1.593-.854 3.727-2.473 4.049-2.619.562-6.099-1.444-5.481-4.376-.791.14-1.58.157-2.348.06-.086 1.527-.059 3.12-.27 4.528-.688 6.637-7.313 11.095-13.631 9.076-.388 2.068-.843 4.974-2.877 6.096-2.379 6.68-6.487 14.303-13.216 17.347.599 1.536.274 3.405-1.53 4.432-12.316 7.028-27.098 9.406-41.022 6.794-5.565-.332-10.987-1.591-16.191-4.272-3.795-1.955-7.283-4.439-10.689-6.998-3.407-2.561-7.051-5.055-9.77-8.38-2.954-3.611-4.33-7.859-5.222-12.381-4.089-20.526-2.677-40.681 4.751-60.234 9.195-24.203-9.191 20.691 0-3.513Z" clip-rule="evenodd"/>
  <path fill="#E8E1E1" fill-rule="evenodd" d="M339.755 132.008c-10.228-6.039-23.273-4.476-29.418 4.879-1.061 1.615-1.793 3.391-2.31 5.448l-.084.342-.083.359c-.268 1.189-.444 2.308-.682 4.211l-.264 2.158-.075.588c-.256 1.954-.481 3.188-.831 4.446l-.069.244-.404 1.393 1.525.564c2.924 1.057 3.536 1.152 5.223.269 1.317-.689 2.005-1.617 2.92-3.497l.132-.275.292-.614.159-.323c.596-1.192 1.073-2.462 1.748-2.923.916-.627 3.804-.877 5.812-.63l.105.014.086.018.149.033c3.377.799 6.455 3.528 8.486 6.412 1.634 2.322 2.574 5.246 2.689 8.286l.007.202.04 1.552 3.273-.07-.032-.604.049.107c1.032 2.177 3.623 3.626 5.791 2.185l.077-.052.079-.057c1.83-1.348 2.051-4.078.548-5.736l-.069-.074-.068-.069.014-.006.016-.006.01-.001c.511.094.961.357 1.569.916l.156.147.314.34.325.347.14.144c.089.09.171.169.248.239.104.095.2.175.305.247.097.067.197.126.317.178.299.13.618.191 1.026.091.559-.138.875-.476 1.066-.875a1.83 1.83 0 0 0 .146-.448c.032-.157.047-.318.055-.503.005-.121.007-.253.006-.398l-.003-.226-.008-.245-.008-.196-.038-.728c-.132-2.387-.759-4.731-1.832-6.944l-.109-.221-.04-.08.112.15c.732.966 1.438 1.635 2.32 2.077l.122.059.119.054c1.223.538 2.456.329 3.201-.669.515-.69.667-1.598.561-2.554-.205-1.854-.937-3.552-2.372-6.029l-.201-.344-.787-1.337c-3.034-5.111-6.934-9.239-11.551-11.965Z" clip-rule="evenodd"/>
  <path fill="#000" fill-rule="evenodd" d="M278.645 73.665c-5.608-.396-11.318.55-16.658 2.242-8.518 2.699-16.34 7.461-22.767 13.661-6.623 6.39-11.522 14.268-14.5 22.969-3.592 10.493-4.13 21.697-5.141 32.651-.511 5.534-1.352 10.984-2.227 16.464l-.138.866c-.855 5.34-1.336 10.74-.155 16.072 1.963 8.861 7.847 16.382 14.832 21.94 14.348 11.417 36.685 18.378 53.391 7.872 2.585-1.626.136-5.783-2.387-4.089-1.776 1.193-3.657 2.238-5.675 2.96-8.429 3.015-17.686 1.941-26.017-.864-8.209-2.764-16.086-7.433-22.144-13.665-6.363-6.545-9.889-14.63-9.379-23.829.304-5.474 1.549-10.846 2.241-16.275.612-4.809.98-9.643 1.403-14.471l.155-1.736c.898-9.837 2.187-19.943 6.658-28.871 3.761-7.512 9.268-14.194 15.89-19.355 6.932-5.403 15.213-9.182 23.901-10.591 10.217-1.658 19.997 1.356 28.52 6.966 7.559 4.976 14.057 11.625 19.04 19.17 2.416 3.658 4.475 7.565 6.253 11.571 1.675 3.775 2.83 7.731 4.177 11.622a24.25 24.25 0 0 0-3.38.136c-5.869.651-11.338 3.696-14.819 8.497-4.255 5.866-3.105 13.067-4.766 19.739-.129.517.09 1.024.533 1.311 2.519 1.63 5.891 1.684 8.33-.151 2.116-1.593 3.11-4.473 2.253-6.989-.112-.328-.589-.27-.602.082-.161 4.282-4.13 7.579-8.021 5.541 1.669-5.752.79-12.178 4.204-17.374 6.041-9.197 18.544-9.577 27.325-4.392 4.622 2.728 8.28 6.83 11.003 11.418l.785 1.332c1.044 1.78 2.15 3.793 2.367 5.753.125 1.131-.293 2.194-1.589 1.624-1.049-.461-1.861-1.536-2.484-2.46-1.062-1.577-3.503-.215-2.626 1.464l.03.055c1.277 2.265 2.063 4.76 2.208 7.361l.037.72c.024.525.041 1.27-.07 1.298-.133.032-1.057-1.035-1.211-1.183-.741-.713-1.505-1.295-2.537-1.485-1.356-.249-2.725 1.431-1.547 2.532l.049.045c1.051.914 1.004 2.737-.157 3.593-1.638 1.207-3.655-.763-3.893-2.385l-.008-.06c-.21-1.753-2.642-1.815-2.774 0-.287 3.937 4.397 7.238 7.96 5.251 1.41-.785 2.305-2.222 2.586-3.763.45.238.935.403 1.448.448 1.67.148 2.857-1.027 3.127-2.605.315-1.837.128-3.805-.355-5.714.907.219 1.861.135 2.82-.419 2.901-1.675 2.068-5.403.973-7.919-4.677-10.741-14.366-20.488-26.371-21.262-.065-1.895-.322-3.687-.742-5.584-4.106-18.562-17.407-35.75-34.723-43.784-4.627-2.146-9.534-3.59-14.636-3.951Zm45.411 74.147-.165-.037c-1.871-.403-6.794-.877-6.201 2.274.028.148.244.13.282 0 .581-1.981 4.529-.397 5.682.08a16.624 16.624 0 0 1 4.454 2.754c2.841 2.468 4.746 5.946 5.035 9.723.288 3.747-.799 7.794-3.499 10.505-1.324 1.328-3.013 2.23-4.912 2.297-1.705.059-3.589-1.27-5.163-.492-.31.154-.555.575-.527.921a2.3 2.3 0 0 0 .783 1.564c-2.635 4.805-4.791 9.891-8.151 14.261-1.687 2.192-3.597 4.222-5.761 5.95a23.261 23.261 0 0 1-3.3 2.177c-1.351.743-2.52 1.208-3.485 2.468-.822 1.074.001 3.151 1.356 3.336 3.192.435 6.295-2.148 8.638-4.083 2.341-1.934 4.365-4.319 6.037-6.849 3.212-4.86 5.408-10.592 6.287-16.392 1.02.323 2.168.422 3.031.424 2.298.005 4.493-.822 6.299-2.22 6.611-5.118 7.346-15.627 2.68-22.254-2.233-3.17-5.625-5.513-9.4-6.407ZM324.014 160c-1.533-.134-3.065.108-4.506.631l-.594.216c-1.254.459-2.59.999-3.496 1.94-1.385 1.439-.006 3.933 1.966 3.381 2.181-.61 3.953-2.448 6.133-3.219 1.949-.689 4.156-.591 5.885.595.228.157.529-.152.379-.38-1.322-2.016-3.411-2.957-5.767-3.164Z" clip-rule="evenodd"/>
  <path fill="#000" fill-rule="evenodd" d="M245.328 188.815c1.995.017 4.238-.731 5.737-1.317l.391-.154c1.298-.52 2.632-1.116 3.626-2.116.318-.325.656-.693.828-1.08.101-.227.143-.461.046-.694-.36-.036-.701-.082-1.023-.141-.154-.028-.301-.057-.414-.057-.416-.003-.828.05-1.239.102l-.179.022c-.32.04-.638.082-.956.125-.925.124-1.845.247-2.784.292-.677.033-1.388-.006-2.104-.044-1.859-.101-3.781-.239-5.213 1.061-.375.341-.532.77-.532 1.207 0 .531.224 1.071.565 1.495.773.961 1.963 1.289 3.251 1.299Zm-10.879-16.747c.868 1.3 2.314 2.136 4.296 2.046 3.938-.18 8.637-1.664 11.936-3.81.859-.559 1.415-1.452 1.515-2.409l.178-1.702.96 1.417.302.443c.278.406.556.811.818 1.227a54.628 54.628 0 0 1 2.766 4.901c.593 1.198 1.027 2.538 1.462 3.889.734 2.282 1.443 4.526 3.011 6.13.237.243.602.33.935.287.294-.038.582-.182.724-.469 1.873-3.806-.647-8.392-2.691-11.581l-.216-.333c-1.896-2.881-4.992-6.694-8.538-7.212l-.406.646-.59-.393c-.965-.643-2.24-.613-3.355-.11l-1.116.503c-2.076.931-4.125 1.79-6.372 2.26a21.172 21.172 0 0 1-.955.175c.033-.153.069-.305.105-.457a21.163 21.163 0 0 1 .251-.977c.18-.655.383-1.304.624-1.939.907-2.388 2.356-4.621 3.765-6.751l.166-.251c.202-.305.423-.623.652-.953 1.099-1.58 2.318-3.296 2.404-5.018-1.459.092-2.679.997-3.754 1.785a28.527 28.527 0 0 0-4.081 3.66c-2.405 2.605-4.563 5.936-5.509 9.379-.542 1.971-.304 4.093.713 5.617Zm38.475-19.641v-.071c-.004-1.988-1.163-6.527-4.029-6.527-1.79 0-2.877 3.089-3.065 6.274l-.006.13c-.083 1.98.461 6.307 3.071 6.307 2.638 0 4.002-4.099 4.029-6.113Zm-42.186-.624v-.07c.004-1.988 1.163-6.527 4.029-6.527 1.745 0 2.822 2.936 3.049 6.035l.015.238c.114 1.913-.395 6.438-3.064 6.438-2.639 0-4.002-4.099-4.029-6.114Zm32.536-12.831c.379.045.757.103 1.135.163 1.102.175 2.198.386 3.286.631a65.379 65.379 0 0 1 6.129 1.72c1.882.622 3.735 1.326 5.587 2.029l.297.113c.654.249 1.306.527 1.96.806.995.425 1.994.853 3.015 1.175-2.688-3.712-6.83-6.462-10.815-8.43-2.273-1.123-4.685-2.028-7.112-2.77l-1.351-.406c-1.99-.586-4.165-1.128-6.034.041a2.976 2.976 0 0 0-1.36 1.959 2.809 2.809 0 0 0 .547 2.261c.459.594 1.031.932 1.64 1.048.672.128 1.384-.013 2.032-.359.52-.038.673-.024.827-.007l.217.026Zm-29.933.378a16.41 16.41 0 0 1 4.017-.364c.618.019 1.215.114 1.812.21.925.149 1.848.303 2.845.122.521-.094.964-.398 1.306-.795.4-.464.665-1.057.75-1.621a2.583 2.583 0 0 0-.215-1.541c-.255-.532-.684-.979-1.203-1.372-1.571-1.187-4.265-.902-6.118-.662-1.832.238-3.653.806-5.272 1.706a12.765 12.765 0 0 0-4.069 3.552c-.913 1.234-1.343 2.654-1.788 4.1 2.09-1.751 5.288-2.761 7.935-3.335Z" clip-rule="evenodd"/>
</svg>
