<svg xmlns="http://www.w3.org/2000/svg" fill="none" viewBox="0 0 515 1026">
  <path fill="#8FA7DF" fill-rule="evenodd" d="M362.176 912.206c-15.799-17.344-39.082-23.453-59.059-34.329l.437-1.126c-1.181-.67-2.553-1.253-3.851-1.845-.232-.311-1.125-1.081-1.385-1.406 19.783-73.92 12.643-140.41 23.292-218.533 9.316-.473 20.258.418 29.335-2.796 12.694-33.529 11.208-64.186 7.743-99.826-.152-.811-.142-1.031.477-1.675 7.87-8.713 12.127-29.666 12.673-46.007l-.084-1.186c.83-.615 1.809-1.478 2.577-2.159 5.676-12.443 3.844-24.711.797-38.7l.007-.003c-15.871-69.576-20.307-146.614-47.045-212.246-7.263-17.04-23.354-24.868-41.583-24.896l-1.121-.003c-.905-1.313-1.93-2.723-2.908-3.903.112-.142.194-.307.226-.502.369-2.294-1.822-3.643-3.536-4.682-1.884-1.142-3.979-1.937-6.049-2.648-1.93-.662-4.448-1.497-6.387-.398-.834.473-1.238 1.709-2.288 1.68-.056-.001-.113-.012-.169-.017-3.107-6.474-3.124-13.503-8.34-19.103-5.892-5.702-13.042-10.892-21.862-10.525-6.334.573-20.133.978-23.361 7.839-3.141 3.408-4.541 7.86-5.241 13.056l-1.635-.148c-.986.884-2.956 2.743-3.987 3.703l-.117-.287c-3.36 2.964-6.765 6.394-10.552 8.679-1.767.58-.249 2.958-.355 4.356-7.534 1.598-15.017 3.431-22.23 6.211-17.267 2.38-31.452 8.574-39.041 19.639-23.76 56.704-25.459 155.215-15.928 230.29.07.562-.091 1.476.567 1.722.687 5.021 1.223 10.159 1.732 15.111 1.114 7.957 3.121 15.87 4.919 23.57l.55-1.233c1.116.11 3.404.108 4.546.099-3.512 39.443-9.583 76.876-16.143 114.969-.16.719.23 1.133.824 1.141 10.448.985 21.754 2.712 32.859 4.947-11.233 59.378-43.937 142.707-44.747 197.307-.177 19.002-6.895 54.312 13.014 59.269-3.432 13.832-11.277 25.508-18.939 37.027-5.845 10.09-3.185 26.991 7.794 32.189 18.804 6.369 40.276 10.069 59.154 5.981 4.084.947 8.227-.296 11.835-2.96 18.975-16.762-2.243-44.888-11.305-62.723-2.107-3.25-5.874-8.333-2.229-12.352 1.056-.012 2.977-.631 3.352-1.115-.999-1.508-.943-1.163.103-2.549 44.373-58.313 47.617-144.95 64.342-215.738l4.308.314c9.167 79.023-32.601 132.764 8.889 213.037 1.368 4.686 5.582 4.455 8.983 5.707-24.271 8.69-13.415 43.646 8.707 47.56 24.723 6.294 50.469 12.226 75.025 11.663 6.623.009 13.253-.323 19.728-.907 28.292.379 33.35-19.928 12.682-38.54Z" clip-rule="evenodd"/>
  <path fill="#FFDBB4" fill-rule="evenodd" d="M159.517 516.957c2.701.047 5.908-2.859 8.397-1.588.801.608 7.441 13.543 12.09 17.44l.289.264c4.699 4.343 8.659 9.903 7.564 16.71-.751 2.626-6.503 1.068-8.729 1.501-1.14 11.469 3.293 20.416-11.638 22.086l-1.966.328c-7.378 1.215-21.804 3.32-26.202-.711-1.916-2.15-1.345-5.227-1.473-7.886-3.187-5.89-3.152-12.824-3.65-19.357.591-3.093-7.031-28.754-3.476-26.927 8.811-2.473 19.744-1.045 28.794-1.86Zm207.282-7.793c.471-.533 1.288-.602 1.927-.295.291-.029.582-.052.873-.062.52.089.134.599-.175.704 1.146 2.674-6.493 47.591-11.559 35.799-.162-8.782-1.784-17.382-3.055-26.04-1.917-8.229 6.234-8.775 11.989-10.106ZM209.098 189.961c6.765-11.825 29.813-8.028 40.284-3.578 11.481 4.459 10.305 17.878 12.889 27.978 3.964.939 7.854 3.403 8.989 7.56 1.377 3.838 2.644 7.716 3.92 11.589l.079.193c.66 1.639 1.395 4.116-.735 4.852-16.986 11.964-46.431 7.422-63.71-1.85-3.214-1.388-2.93-9.495-3.214-12.279a167.734 167.734 0 0 0-.848-7.37c-1.227-1.702-3.102-9.961-.197-10.352.847-5.585.017-11.597 2.543-16.743Z" clip-rule="evenodd"/>
  <path fill="#fff" fill-rule="evenodd" d="M137.497 894.649c4.794.196 11.386-2.647 15.234 1.076.167-.118.444-.015.531.196 1.222 2.959 2.717 5.868 4.126 8.738 5.794 12.937 15.347 24.371 16.998 38.896 1.28 11.52-5.668 27.954-18.92 26.601-17.512-.167-35.263-1.397-52.122-6.544-4.418 1.219-9.166-3.27-11.315-6.751-5.537-8.97-1.442-19.971 3.115-28.337 5.039-8.626 8.971-17.805 12.303-27.237-.88-1.083-.692-3.251.932-3.497 2.75-.215 5.256-1.226 8.056-1.089 7.004-.85 14.037-1.468 21.062-2.052Zm160.931-19.177c2.261-4.771 5.218 1.63 6.979 3.564 8.996 7.321 21.969 7.619 31.182 14.908l.608.397c3.608 2.34 7.646 4.782 10.074 8.36l.926.644c10.063 7.022 22.628 16.514 24.384 29.397.416.545.674 1.237.75 1.975-.411 19.972-29.608 13.282-42.546 13.857l-2.024-.088c-21.835-.925-44.162-1.156-64.71-9.729-3.204 1.189-7.094.459-10.225-.845l-.545-.213c-4.561-1.761-9.552-3.263-12.54-7.448-4.49-5.828-5.701-13.801-4.99-21.016l.086-.838c.391-3.91.613-8.474 3.578-11.129 4.369-7.465 14.277-5.603 21.247-8.503 11.127-2.897 26.907-15.02 37.766-13.293Zm-94.814-666.279c2.823 10.2 4.737 20.862 6.126 31.349 1.728 13.05 5.924 54.75 7.047 62.527 3.357 23.256 5.838 46.645 7.572 70.09.959 4.191 1.479 8.484 1.743 12.78l.029.496c.187 3.275.386 6.709.276 10.101a372.644 372.644 0 0 1 2.165 18.724c2.134 23.415 2.604 47.026 1.884 70.523-.359 11.754-.958 23.503-1.972 35.218a626.766 626.766 0 0 1-1.552 15.656l-.509 4.468c-.484 4.195-1.022 8.413-2.021 12.507-.235 4.076-.27 8.178-.511 12.219-.894 14.958-2.6 29.869-5.029 44.647-1.219 7.414-2.611 14.802-4.114 22.161a476.215 476.215 0 0 1-1.998 9.317l-.35 1.548c-.809 3.541-1.284 7.642-2.953 10.871-.578 1.118-2.005 1.093-2.792.367-.022.044-.042.089-.066.131-.725 1.266-2.183 1.482-3.403.912-6.016-2.782-12.144-5.297-18.348-7.603a242.312 242.312 0 0 0-50.818-12.847c-5.802-.806-11.655-1.124-17.451-1.923a1.978 1.978 0 0 1-1.023-.437c-1.565-.061-3.086-.424-4.087-1.52l-.596-.1-.297-.052c-.195-.036-.123-.307.043-.324.152-.017.306-.03.459-.044a4.518 4.518 0 0 1-.555-1.264c-.632-2.332.502-4.854 1.561-6.871a23.76 23.76 0 0 1 1.926-3.054c.257-1.534.511-3.069.745-4.607a2164 2164 0 0 0 1.779-11.873c2.061-14.028 3.956-28.077 5.769-42.14 1.332-10.339 2.5-20.723 4.196-31.012-.108-2.29-.247-4.578-.399-6.867-.136-2.059-.675-2.41-1.545-4.153-.913-.057-3.357.55-4.253.396-1.517.365-1.458-2.699-2.04-4.727-5.859-20.415-8.045-41.95-9.602-63.085-2.752-37.386-.71-74.886 2.499-112.168l.098-1.129c1.557-17.964 2.662-36.05 5.282-53.895 1.148-7.816 2.733-15.654 5.569-23.032l.293-.758c.64-1.647 1.328-3.32 2.154-4.864.838-1.564 1.934-3.045 2.977-4.481 2.311-3.183 4.946-5.992 8.015-8.416a.412.412 0 0 1 .118-.064 38.76 38.76 0 0 1 4.136-3.446c9.842-7.135 22.012-9.08 33.634-11.116 2.901-.509 4.139-2.854 7.021-3.462 0 0 7.085-1.471 7.233-1.995.076-.267-.699-3.972-.567-4.557.589-2.624 3.048-2.307 4.936-3.899 2.64-2.226 5.205-3.836 7.903-5.988.61-.486 1.683-2.51 2.215-2.188 0 0 1.362 2.639 1.448 2.953Zm63.275 5.959c-.227-1.073.495-2.291 1.818-1.866 7.197 2.319 12.998 5.59 17.482 11.647 3.359.01 6.726.285 10.014.989 3.805.815 7.34 1.952 10.881 3.565 3.129 1.426 6.154 3.33 8.488 5.925a19.324 19.324 0 0 1 1.748 2.287c6.44 4.484 10.514 12.883 13.441 20.132 3.008 7.451 5.005 15.35 7.083 23.11a558.205 558.205 0 0 1 6.371 26.421 567.943 567.943 0 0 1 4.899 25.499l1.14 6.834c.987 5.934 1.938 11.917 2.527 17.895 1.273 4.496 2.484 8.993 3.518 13.565 4.481 19.806 8.674 39.71 11.857 59.782a769.243 769.243 0 0 1 7.134 60.312c.07.888-.351 1.467-.941 1.742a12.96 12.96 0 0 1-.32 1.68c-1.138 4.314-4.185 7.871-7.78 10.288-4.131 2.778-8.725 4.579-13.279 6.486 1.412 6.155 2.389 12.409 3.126 18.746 2.311 19.885 2.9 39.886 2.026 59.884-.436 9.984-1.278 19.944-2.464 29.863a496.262 496.262 0 0 1-1.967 14.687 381.584 381.584 0 0 1-1.041 6.554l-.222 1.308c-.426 2.484-.684 4.901-1.894 7.131-.845 1.56-2.458 1.58-3.578.766-1.914.788-4.583.839-6.175 1.054-4.091.553-8.194 1.091-12.312 1.397-4.086.303-8.228.482-12.319.192a57.964 57.964 0 0 1-6.086-.77l-.532-.095c-.891-.164-1.799-.351-2.648-.648-.952-.333-1.821-.874-2.772-1.216-.308-.111-.403-.405-.278-.698.228-.539.474-1.036.758-1.547.051-.091.191-.049.192.054.001.428-.018.844-.048 1.263.118 0 .236-.003.354-.005.036-1.215-.109-2.411.007-3.63l.222-2.345.114-1.172c.232-2.337.647-4.678 1.015-6.996a274.17 274.17 0 0 0 1.946-14.898c1.807-17.584 1.932-35.3 2.198-52.963l.047-3.096c.122-7.74.279-15.479.667-23.211-.089-1.219-.174-2.434-.261-3.641-.46-6.352-.783-12.718-1.172-19.075-1.367-22.381-2.806-44.762-3.975-67.154-.186-3.573-.356-7.147-.506-10.722-2.109-10.352-3.115-20.869-4.172-31.383a3741.857 3741.857 0 0 1-5.701-62.112c-.866-10.36-1.693-20.723-2.528-31.087-.347-4.296-.683-8.593-.999-12.891-.257-1.39-.516-2.777-.787-4.158-2.903-14.768-5.817-29.535-8.719-44.304-1.352-6.883-8.49-26.3-9.83-29.354-.424-.966-3.839-6.04-5.274-7.448l-.077-.077c-.487-.497-1.205-1.426-.822-2.144a.691.691 0 0 1 .406-.352Zm-98.677 297.613c-4.352 1.172-9.029 3.117-13.451 3.979-5.911 1.152-11.903-.053-17.905.423-2.902.23-8.526 1.405-8.372 1.947.037.131.07.264.105.396.093-.002.191.061.191.173l-.004.576c.922 3.97.943 8.328 1.158 12.342l.015.359.464 4.107c.807 7.073 1.694 14.133 3.332 21.046 1.304 5.505 2.903 11.085 5.261 16.224a43.31 43.31 0 0 0 1.048 2.131l1.534.024.767.009c3.036.021 6.066.145 9.103.083 5.918-.12 11.841-.591 17.695-1.491a133.41 133.41 0 0 0 8.411-1.574c.42-3.404.844-6.808 1.27-10.211l.643-5.105c.414-3.28 1.127-5.931 4.398-7.218 1.462-.576 2.973-.807 4.5-.849l.076-.723c.406-4.052.215-7.791-1.86-11.345-1.463-2.507-3.451-4.61-5.478-6.648l-2.427-2.426c-3.957-3.975-7.73-8.14-8.431-14.017-1.015-.94-1.514-.938-2.043-2.212Zm27.21 52.454c.556-.253.332-.823.144-.33l-.013.037c-.034.098-.08.196-.131.293Z" clip-rule="evenodd"/>
  <path fill="#9FD8E5" fill-rule="evenodd" d="m210.212 236.294 2.774 22.259 7.29 70.739 7.523 66.318 2.972 91.66v13.653h10.559c4.016 0 36.542 5.141 36.542 5.141l30.754-5.141-9.584-112.939-8.467-82.03s-10.769-65.534-12.703-67.101c-1.934-1.567-6.648 6.837-24.975 6.837-18.326 0-42.685-9.396-42.685-9.396Z" clip-rule="evenodd"/>
  <path fill="#000" fill-rule="evenodd" d="M207.474 191.497c.125-.33.524-.321.651 0 .947 2.398.469 5.855.147 8.362-.32 2.49-1.597 8.185-1.82 8.543l-.038.056c-.287.391-.529.632-.827.787a588.682 588.682 0 0 1 4.293 23.001c.222 1.141.437 2.282.645 3.425.827.414 1.731.648 2.629.996 1.426.554 2.823 1.198 4.236 1.786a89.942 89.942 0 0 0 8.543 3.078c5.762 1.74 11.674 2.796 17.681 3.046 5.987.25 11.983-.196 17.849-1.457 2.788-.598 5.601-1.315 8.274-2.331 1.132-.43 2.261-.969 3.223-1.724.926-.727 1.558-1.711 2.507-2.409.039-.029.08-.054.121-.077a186.705 186.705 0 0 0-1.678-4.724c-.851-1.871-1.659-3.766-2.539-5.609a431.67 431.67 0 0 0-2.623-5.388.932.932 0 0 1-.238-.058c-3.389-1.389-6.086-4.095-7.523-7.535-.798-1.911-1.296-3.985-1.405-6.063l-.063-1.109c-.083-1.589-.101-3.523.675-4.693.05-.076.153-.078.202 0 .856 1.35.717 3.413 1.066 4.971l.125.55c.359 1.56.77 3.133 1.442 4.579.833 1.796 1.957 3.479 3.421 4.753l-.532-1.057-.694-1.374c-.228-.451-.146-1.144.356-1.386 1.8-.867 3.538-.828 5.164.019a11.741 11.741 0 0 1 4.706.853c3.202 1.298 5.817 3.493 8.09 6.099a44.97 44.97 0 0 1 2.978 3.829c18.453.063 35.535 7.701 43.527 26.136 10.391 21.315 15.423 44.861 20.08 68.041 9.178 47.781 17.816 95.671 26.912 143.47.158.031.317.057.475.09 1.619.336 1.345 2.464.111 2.997l.584 3.07.131.656c2.134 10.755 3.619 23.421-1.782 33.152.264.533.238 1.191-.324 1.727a35.813 35.813 0 0 1-2.208 1.927 17.266 17.266 0 0 1-.486 5.472c.051 1.631-.265 3.4-.352 4.762-1.244 12.6-4.255 27.248-12.323 37.349 1.295 11.242 2.196 22.525 2.367 33.852.174 11.434-.402 22.862-1.946 34.192-1.515 11.114-3.758 22.73-8.35 32.976-.218.487-.534.814-.897 1.006-.335.554-.842.976-1.486 1.068-8.904 1.271-17.954 1.998-26.994 2.025-3.174 27.891-5.227 55.938-6.933 83.927l-.116 1.908c-2.658 43.478-3.491 87.769-15.717 129.822l.175.173.877.392c1.168.525 2.325 1.069 3.417 1.752.707.443.797 1.197.555 1.817 4.723 3.124 10.216 5.124 15.448 7.076 15.721 5.73 30.274 14.716 42.383 26.475 21.79 20.119 17.097 42.373-14.147 42.437-28.812 2.682-57.954-.692-85.779-8.591-1.523-.427-3.16-.751-4.547-1.56-1.715-.038-3.454-.328-4.907-.658-13.315-3.069-24.411-15.37-24.196-29.664.091-7.325 3.064-16.165 9.882-19.55-2.517-.744-3.869-2.877-4.851-5.209a174.143 174.143 0 0 1-2.724-5.641c-5.554-11.993-9.628-24.66-12.39-37.614-10.964-42.95 2.501-85.701 7.486-128.593.12-5.303.165-10.608.054-15.921-.116-5.629-.413-11.256-.81-16.871-.164-2.327-.374-4.649-.56-6.974l-.134-1.744a21.92 21.92 0 0 0-.04-.489c-17.539 73.201-18.648 154.392-64.726 216.556 1.571 2.485-1.776 4.11-3.987 4.409-1.921 2.676 1.6 6.91 2.893 9.104 2.102 3.57 4.08 7.226 6.01 10.896l1.331 2.452c8.603 15.882 20.038 38.268 3.44 52.288-3.663 2.789-8.53 4.427-13.107 3.495-5.143 1.447-10.504 1.877-15.834 1.636-10.458-.231-20.886-1.658-31.107-3.896l-1.818-.41c-3.889-.883-7.819-1.863-11.422-3.585-12.341-6.127-15.159-23.711-8.776-35.27 2.14-4.064 5.107-7.582 7.567-11.434 4.538-7.105 8.126-14.976 10.572-23.092a9.058 9.058 0 0 1-.34-.117c-.493.182-1.08.163-1.694-.166-16.307-10.037-10.844-43.598-10.445-60.545 3.42-44.025 13.968-87.18 27.049-129.167 8.122-21.508 13.17-43.768 17.332-66.251-10.092-1.978-20.264-3.516-30.503-4.49-2.006-.191-3.105-1.719-2.782-3.73 1.11-6.923 2.267-13.837 3.433-20.751l1.011-5.987c4.757-28.262 9.186-56.522 11.09-85.167.01-.161.031-.316.06-.465a14.418 14.418 0 0 1-.466-.012c-.715 1.605-3.435 1.916-3.969-.247a396.91 396.91 0 0 1-4.873-22.461l-.39-3.786c-.392-3.787-.797-7.572-1.291-11.346l-.094-.7c-.349-.265-.563-.728-.597-1.219a.934.934 0 0 0-.467-.001c-9.293-63.398-4.562-127.965 4.078-191.176 3.273-35.223 13.626-56.539 50.377-62.183 7.694-1.534 15.524-2.475 23.064-4.657l-.033-.245c-.161-1.239-.692-3.077-.274-4.316.351-1.044 1.848-1.53 2.671-2.117a58.89 58.89 0 0 0 3.903-3.057c2.575-2.188 4.999-4.543 7.575-6.728.074-.063.192-.022.225.053a107.26 107.26 0 0 1 2.022-1.85c.544-.486 1.479-.426 1.825.234a55.412 55.412 0 0 0 1.46-5.024c.318-1.313.616-2.622.825-3.959.202-1.296.211-2.699.673-3.923ZM155.85 895.146c-8.287 1.854-16.808 1.229-25.217.949-2.63 5.077-4.295 10.672-5.575 16.231-1.271 8.499-6.148 5.912-3.316-1.225 1.769-5.544 4.802-10.508 8.324-15.024a176.987 176.987 0 0 0-3.5-.078c-1.953.34-3.931.535-5.9.78-2.516.312-5.039.71-7.572.855-.92.053-1.907.065-2.898-.005-.729.195-1.455.406-2.175.646-.142 13.214-6.871 24.539-13.862 35.184-5.655 9.915-2.566 25.924 9.379 28.994 16.547 5.5 34.038 5.77 51.218 6.791.401-1.733 2.381-2.381 3.965-2.185 4.432.774 8.994-1.636 11.587-5.266 10.512-16.834-7.442-37.895-12.533-54.099l-.168-.402c-1.404-3.312-4.237-8.935-1.757-12.146Zm139.853-17.618c-1.678.348-3.351.719-5.018 1.109l-.242.076c-.264.674-.716 1.251-1.317 1.573 2.3 2.131 4.538 4.456 6.487 6.943l.264.34c2.071 2.695 4.547 5.055 5.561 8.418.333 1.103-.922 1.984-1.853 1.455-3.05-1.735-4.833-4.926-6.707-7.809-1.832-2.82-3.283-5.947-4.352-9.126-8.725.361-17.117 7.256-25.063 10.808-4.426 7.661-5.326 16.61-5.103 25.325-3.285 6.484-7.689-14.391 3.119-24.37l-.38.159c-5.85 2.413-12.286 3.647-18.452 1.398.114.234.115 1.057-.347.731-1.238-1.522-4.091 4.362-4.439 5.133-7.691 15.781 1.81 33.348 18.269 37.067 1.051-2.672 5.114-2.103 3.824.882l.034.06.021.034c1.589.467 4.1.493 4.702 2.276 22.48 6.145 45.865 8.416 69.096 8.228 10.192-.886 32.911 1.57 37.575-9.599 3.612-13.469-11.341-24.988-20.274-32.571a114.889 114.889 0 0 0-18.605-12.049c-5.785-2.999-12.234-5.38-18.118-8.539a.873.873 0 0 1-.162.045c-4.299.746-8.184-2.92-11.532-5.145-1.713-1.139-3.539-2.156-5.484-2.823a1.86 1.86 0 0 1-.548.192c.281.297-.383.341-.137.009a2.837 2.837 0 0 1-.819-.23Zm34.477 47.468c-4.186.306-5.139-8.979-2.812-6.423.273.977.744 1.991 1.385 2.783l.153.182c.776.887 3.403 2.793 1.274 3.458ZM137.452 899.87c.084-.155.334-.087.328.09-.066 2.135-.22 4.01.304 6.117.502 2.022 1.446 3.779 2.579 5.501.824 1.252-1.107 2.336-1.951 1.164-2.433-3.38-3.31-9.07-1.26-12.872Zm141.846-16.568c.058-.253.458-.262.51 0 1.366 4.486 1.767 9.223 2.827 13.795.182 2.605 4.522 11.124.497 11.738-3.735.059-3.962-8.95-4.567-11.775l-.053-.49c-.474-4.419-.709-9.039.786-13.268Zm-153.601 13.192c.189 0 .189.3 0 .3s-.189-.3 0-.3Zm106.412-395.571-.024.943c-.712 28.453-2.246 56.905-5.037 85.217-1.354 13.737-2.975 27.486-5.474 41.06l-.38 2.058c-1.489 7.985-3.219 16.273-6.793 23.54l-.201.403c-1.075 2.126-2.582 4.595-4.716 5.659-1.557.776-3.048-.073-4.56-.596-1.38-.478-2.762-.951-4.145-1.42a648.48 648.48 0 0 0-8.996-2.982 574.827 574.827 0 0 0-17.53-5.366c-10.358-2.983-20.819-5.641-31.369-7.832-.49 3.203-.996 6.404-1.521 9.601-3.502 21.492-10.905 41.837-17.225 62.565-14.904 51.063-27.616 104.231-25.048 157.87.338 4.127 1.051 8.236 2.465 12.129 1.295 3.57 3.576 6.771 5.938 9.68a2.27 2.27 0 0 1 .51 1.787c.055.161.083.332.097.508.966.205 1.957.302 2.966.323 14.018-5.593 30.012-.947 44.403-5.255.119-1.492.655-3.137 1.264-4.507 12.97-17.933 22.698-38.145 29.956-59.132 15.045-43.218 20.141-89.036 29.307-133.728 9.235-44.443 23.021-88.498 46.187-127.532.17-.289.553-.036.431.257l-1.173 2.872c-12.625 30.967-24.804 62.262-32.952 94.804 17.323 69.262-26.601 132.166 5.863 205.617a177.43 177.43 0 0 0 4.459 10.124c1.034 2.917 4.491 7.17 4.236 10.015 12.306 2.536 22.572-6.328 32.817-11.724l.317-.139c3.502-1.556 9.761-4.987 13.149-3.077.061.04.113.087.17.131.302-.065.605-.126.908-.187a239.56 239.56 0 0 1 2.9-.819c.232-.064.466-.132.702-.202.033-2.162.712-4.697 1.321-6.414 17.863-65.787 12.433-135.084 21.658-202.261.287-2.595.591-5.19.907-7.784-4.701-.141-9.391-.48-14.047-1.04-1.421-.171-3.19-1.277-2.97-3.033.436-3.488.846-6.98 1.224-10.476 3.135-28.99 4.27-58.169 4.2-87.326-.04-16.993-.528-33.973-1.341-50.939a119.69 119.69 0 0 1-14.42 2.069c-10.196.847-20.435.446-30.603-.58-5.148-.519-10.263-1.234-15.371-2.062l-.899-.148c-3.744-.621-7.509-1.35-11.127-2.527l-.433-.144Zm-87.471 344.633c.193-.356.763-.112.644.277-4.104 13.229-7.617 26.643-10.663 40.165-1.774 9.233-7.585 6.444-4.982-1.716 3.33-13.498 8.431-26.535 15.001-38.726Zm104.103 4.025c-.017-.335.455-.369.547-.076 2.617 8.384 6.147 16.573 11.103 23.798 1.545 2.236 3.706 4.309 4.467 6.995.357 1.263-.989 2.087-2.026 1.591-2.621-1.256-4.27-4.309-5.743-6.742l-.082-.135c-4.695-7.675-7.795-16.358-8.266-25.431ZM160.9 867.48c.347-.444.975.125.737.581l-.109.22c-1.104 2.252-7.606 15.941-8.494 10.528 1.716-4.249 5.078-7.766 7.866-11.329Zm138.834 7.861c-.052.048-.103.097-.156.144.49.169.972.365 1.445.582a50.941 50.941 0 0 1-1.289-.726Zm-97.043-668.044-.617.442c-3.508 2.941-7.076 5.806-10.618 8.703a28.3 28.3 0 0 1-1.185 1.035c-.459.379-1.574 1.682-1.574 1.682.37 1.359.601 2.807.948 4.188l.108.412c.602 2.205 1.086 4.432 1.588 6.663 1.222 5.432 1.896 10.972 1.911 16.555.012 4.368-.551 8.728-.968 13.07l-.51 5.3c-.255 2.65-.506 5.301-.746 7.953-.401 4.429-.794 8.863-1.067 13.303l-.011.21c-.045 1.095.199.972 1.396 1.304l.073.02c.93.264 1.869.491 2.815.681 1.96.392 3.935.585 5.93.648 1.409.044 2.171 2.165.762 2.875a611.727 611.727 0 0 0-7.979 4.095l-1.851.972c-1.318.681-2.73 1.354-3.065 2.969-.292 1.407.075 2.957.262 4.357.834 6.23 1.269 12.506 1.924 18.757.592 5.646 1.357 11.3 2.821 16.788 1.562 5.849 3.958 11.47 5.771 17.246 3.082 9.816 5.876 19.746 8.637 29.67l1.837 6.614c3.406 12.245 6.48 24.613 8.469 37.188.971 6.144 1.686 12.33 2.068 18.542l.075 1.228c.344 5.881.539 11.89-.462 17.693-.246 1.428-2.309.985-2.363-.327-.302-7.316.076-14.611-.507-21.931-.586-7.351-1.655-14.651-3.04-21.888-2.366-12.361-5.638-24.517-9.111-36.594l-.29-1.007c-3.493-12.11-6.661-24.35-10.832-36.243l-.371-1.048c-1.937-5.437-3.573-10.756-4.502-16.481-.802-4.95-1.293-9.943-1.756-14.936l-.23-2.496c-.265-2.855-.534-5.711-.877-8.558-.306-2.532-1.073-5.337-.32-7.854.817-2.728 3.369-3.847 5.657-5.047.94-.492 1.881-.982 2.823-1.469.191-.099.303-.674.077-.717-.176-.033-1.12-.229-1.12-.229-1.74-.36-4.465-.741-5.413-2.415-.454-.804-.372-1.733-.319-2.617.076-1.269.171-2.537.261-3.805.193-2.745.406-5.49.633-8.233.383-4.632.803-9.26 1.219-13.889.408-4.549.985-9.126.978-13.699-.01-5.978-.894-11.71-2.185-17.501a80.982 80.982 0 0 1-1.122-6.162c-25.773 12.508-57.142 7.125-65.519 45.251-11.604 68.55-17.246 139.781-7.849 209.004a78.214 78.214 0 0 1 25.764-5.047c2.018-.051 2.01 3.145 0 3.196-8.678.221-17.211 1.952-25.313 5.079 1.808 12.679 4.127 25.287 7.012 37.797a53.615 53.615 0 0 0 1.844-.437 3.49 3.49 0 0 1 1.86-.484c1.702-.443 3.41-.864 5.168-1.061-.064-.292.389-.369.384-.058 14.022-2.104 29.236.355 41.936-7.34a964.991 964.991 0 0 0-8.825-41.356c-14.36-52.64 16.595-103.79 10.651-156.497-.036-.272.4-.319.462-.064 11.882 53.665-21.708 107.091-4.672 160.617 1.552 6.67 3.21 13.316 4.586 20.027l.067.294c.811 3.687 4.546 23.568-.583 21.819-.989.649-2.099 1.144-3.203 1.583 1.607 6.298 6.952 10.59 11.035 15.115l.144.16.738.762c7.377 5.797 15.395 26.495-1.613 21.403-2.222 2.578-.607 6.845-.407 9.887.847 7.115-2.438 12.746-9.698 13.655-6.622.893-13.36.853-20.016 1.421l-.014.15c-.253.048-.505.094-.757.144l.048-.248-1.599.124c-3.936.283-7.982.275-10.238-3.678-5.426-9.881-6.756-22.241-7.368-34.443l-.102-.816a836.67 836.67 0 0 1-1.346-11.383c-.145-1.304-.273-2.608-.403-3.912l-.157-1.541c-.105-.992-.25-2.048-.821-2.764-.227.017-.455.036-.682.056.065.288.089.606.065.954a597.785 597.785 0 0 1-2.446 26.83c-3.135 27.495-8.265 54.662-12.865 81.922l.882 1.472a320.105 320.105 0 0 1 15.533 2.186l1.105.185c26.134 4.42 51.695 11.927 76.745 20.637l2.261-.638c.04-.062.081-.123.12-.185.29-.454.556-.925.809-1.401.253-.477.486-.962.713-1.452l.438-.959c.087-.197.075-.197.325-.845 1.239-3.216 2.183-6.549 3.023-9.894 2.398-9.553 3.946-19.33 5.287-29.088 3.685-26.829 5.521-53.95 6.812-80.996 1.41-29.538 2.056-59.115 1.62-88.685-.185-12.538-.542-25.076-1.331-37.59-1.292-20.478-3.716-40.855-6.294-61.2l-.554-4.359c-1.418-11.11-2.913-22.21-3.998-33.361-1.053-10.809-1.854-21.64-2.793-32.459a764.031 764.031 0 0 0-1.758-18.028c-1.049-5.866-2.159-11.721-3.126-17.605-1.422-8.649-2.989-17.277-4.645-25.884l-.474-1.989Zm78.233 13.797-.299-.352c-3.158-3.668-7.591-7.403-12.542-7.067-.173.012-.228.772-.228.772a205.717 205.717 0 0 1 2.196 4.087c.09.12.161.254.209.402a240.172 240.172 0 0 1 2.765 5.483l.749 1.539c1.916 3.917 4 7.856 4.962 12.134a.777.777 0 0 1 .02.21c7.581 19.999 10.639 41.884 13.011 62.976 3.057 27.184 5.712 54.43 8.43 81.654l.429 4.298c2.963 29.594 5.744 59.209 7.789 88.885 2.053 29.78 3.462 59.638 3.459 89.496-.004 27.941-1.363 55.912-4.601 83.663l.204 1.147c13.702 1.389 27.356 1.447 41.051-.417l.433-.06c.628-2.33 1.308-4.634 1.98-6.957 6.277-21.719 7.648-44.492 6.625-67.016-1.02-22.466-4.203-44.708-7.7-66.887l-.345-2.182c-3.556-22.429-6.784-44.856-9.243-67.434l-.219-2.035c-3.449 3.49-7.613 6.13-12.213 7.819-1.881.691-2.696-2.324-.892-3.058l.06-.024c4.923-1.808 9.205-4.898 12.604-8.941-2.169-20.841-4.112-41.708-5.994-62.579-.482-4.376-.811-8.776-1.203-13.15-.339-3.779-.659-7.558-.965-11.338-1.627-18.984-3.098-37.976-4.235-56.999-.048-.801 1.539-1.085 1.672-.479.555 2.541.81 5.153 1.104 7.738.372 3.258.646 6.541.91 9.81.541 6.683 1.049 13.368 1.552 20.054 1.787 14.777 3.439 29.572 5.084 44.368 2.762 24.865 5.123 49.776 7.943 74.634 2.409 21.231 5.768 42.287 9.101 63.372 6.453-2.373 12.246-6.23 17.009-11.238 3.988-7.733 3.478-18.538 1.688-26.884-.429-2.409-.863-4.817-1.296-7.225a54.049 54.049 0 0 0-10.042-.201c-2.013.146-1.997-3.051 0-3.196a55.483 55.483 0 0 1 9.456.129c-4.783-26.52-9.784-53.001-14.669-79.502-6.666-34.847-11.685-70.155-21.58-104.255l-.504-1.72c-5.491-18.631-12.914-40.244-32.995-46.235-4.429-1.435-9.029-2.314-13.677-2.896 2.639 4.191 4.79 8.745 6.829 13.207 3.536 7.736 7.442 15.316 11.204 22.944l.663 1.346c3.971 8.1 9.845 21.324 4.05 29.609-.112.16-.109.894.059.964 3.225 1.355 5.888 4.128 7.414 7.35l.067.142c2.597 5.626 2.324 12.03 2.293 18.109l-.014 4.8c-.067 23.495-.233 46.991-1.246 70.467-.536 12.433-1.299 24.856-2.399 37.251l-.136 1.535c-1.057 11.771-2.287 23.648-4.811 35.185-.261 1.197-2.202.937-2.103-.29 1.069-13.309 2.798-26.552 3.859-39.866 1.896-23.784 2.542-47.636 2.87-71.49.145-10.609.206-21.219.248-31.83l.015-3.979c.02-5.511.499-11.382-1.247-16.689-1.367-4.154-4.857-8.019-9.416-7.912-1.848.043-2.349-2.468-.905-3.413 4.998-3.27 4.774-9.876 3.546-15.119-1.462-6.237-4.539-11.86-7.329-17.553l-.171-.349c-3.53-7.238-7.171-14.43-10.655-21.691l-.639-1.34c-2.605-5.482-5.186-11.077-9.099-15.731Zm42.81 419.825c.208 0 .208.329 0 .329s-.207-.329 0-.329ZM167.49 516.744c-11.942 3.74-24.623 2.449-36.932 2.847l.054.31c.491.768.832 1.649.961 2.384.73 4.143 1.166 8.381 1.644 12.561.835 7.297 1.831 14.554 2.169 21.878.693 3.428 1.565 6.815 2.71 10.14l.149.421c2.419 6.775 3.856 8.52 11.331 7.286 5.939-.442 11.883-.828 17.82-1.29l.814-.067c2.577-.223 5.508-.645 7.233-2.737 3.768-5.111-.598-11.904 1.46-17.461 3.004-6.755 6.153-.82 10.011-2.906 2.443-1.689-.301-7.076-1.267-8.928-3.96-6.741-10.684-11.328-14.947-17.916l-.169-.243c-1.171-1.688-2.679-4.02-3.041-6.279Zm200.629-8.394a34.827 34.827 0 0 1-12.985 3.77l.717 4.554c1.545 9.843 3.059 19.713 4.311 29.614 6.058-10.286 8.494-22.811 9.135-34.733a18.845 18.845 0 0 0-.658-2.075c-.257.172-.518.34-.78.501l.066-.458.127-.916.203.01a8.358 8.358 0 0 0-.136-.267Zm2.578-5.281-.032-.161-.27.03c-.499.431-1.009.848-1.524 1.258l.064.056a31.672 31.672 0 0 0 1.762-1.183ZM210.814 237.287l.106.599c3.596 20.597 5.119 41.514 7.387 62.31 2.837 26.019 7.192 51.843 10.046 77.864 3.838 35.004 4.55 70.203 4.083 105.397-.07 5.29-.166 10.581-.289 15.872 4.899-.139 9.814.52 14.679 1.034l1.736.181c18.713 1.936 37.668 3.172 56.163-.989a1571.606 1571.606 0 0 0-2.063-33.034c-2.137-29.486-4.919-58.92-7.723-88.345-2.681-28.148-4.551-56.402-7.576-84.512-1.968-18.288-5.105-36.343-10.651-53.68-1.717 2.888-6.302 4.284-9.568 5.141l-1.562.403c-10.1 2.63-20.684 3.011-30.946 1.195-5.17-.915-10.218-2.382-15.023-4.545-2.468-1.11-4.802-2.504-7.124-3.899-.476-.286-1.096-.607-1.675-.992Zm-45.163 201.816c-1.842-.827-.247-3.58 1.579-2.759 11.25 5.051 23.43 7.716 35.712 7.901 2.016.03 2.015 3.226 0 3.196-12.866-.193-25.517-3.051-37.291-8.338Z" clip-rule="evenodd"/>
  <path fill="#8FA7DF" fill-rule="evenodd" d="M296.456 117.531c-.71-1.402-.898-1.189.33-2.432 4.507-6.771-6.785-11.994-5.012-19.147 1.118-7.335-7.291-9.89-11.091-15.434-2.594-6.775-3.991-12.029-12.073-11.75-5.13-.909-10.473 4.694-14.667 2.485-1.514-1.096-1.879-2.59-2.422-3.928-4.571-13.48-20.835-6.306-27.427 2.69-2.676 3.886-8.608 4.818-12.37 1.218-7.083-5.445-17.013-.804-19.017 7.462-2.863 8.845-7.911 10.634-16.519 10.369-9.098 1.942-8.372 13.091-2.569 18.49 4.921 9.35-9.688 10.2-6.848 22.217.622 3.184 2.055 6.485 4.026 9.378a13.07 13.07 0 0 0 1.683 4.702c.393.665.854 1.294 1.346 1.889a2.898 2.898 0 0 0-.296.173c-1.139.772-1.687 2.198-1.282 3.53.125.411.336.793.607 1.128a8.758 8.758 0 0 0-2.271.896c-2.069 1.196-3.319 3.487-3.549 5.823-4.325 6.102-4.67 16.188 1.321 20.236 2.947 2.044 6.924 3.151 8.554 6.968 1.435 3.527-1.162 6.246.375 9.551 5.084 11.328 23.679 8.058 30.84.772 11.442 17.168 33.342 17.648 51.969 18.912 23.87-1.097 38.997-32.313 31.551-52.873l-.274-.787c2.493-7.628-.239-16.429-.085-24.331 6.986-.236 8.13-13.111 5.17-18.207Z" clip-rule="evenodd"/>
  <path fill="#FFDBB4" fill-rule="evenodd" d="M206.014 162.124c-.126-.767.299-1.59 1.28-1.491 4.316.428 8.633.998 12.889 1.837 9.757.742-5.423 25.749-8.398 29.633-3.761 3.951-5.825-12.597-6.075-14.865l-.131-1.923c-.294-4.395-.498-8.877.435-13.191Zm1.958-13.086c7.991-32.095 52.773-52.306 80.365-32.051 1.109 1.104-.609 2.815-1.718 1.715a17.717 17.717 0 0 0-1.692-1.469c7.609 10.494 4.837 24.628 6.318 36.795 1.906 1.709-.319 4.003-2.408 3.189-3.814-.948-7.514-2.155-11.39-2.887-5.309-.985-10.751-1.256-16.113-.524-2.368 3.031-10 3.921-13.82 5.078-9.077 2.282-18.624 2.538-27.684.041-4.25-.703-8.464-2.651-12.675-3.348-1.406-.122-.801-1.814-.412-2.613l.03-.268c.147-1.26.395-2.646 1.199-3.658Z" clip-rule="evenodd"/>
  <path fill="#fff" fill-rule="evenodd" d="M293.301 166.681c-.661-7.439-8.295-10.3-14.825-10.631-5.481-1.654-11.345-.87-16.78.635-10.512 1.489-20.61 5.103-31.212 6.102-1.831-1.934-5.063-1.817-7.56-2.475-7.334-1.597-14.616-3.425-21.887-5.282-4.851-1.236-9.663-2.6-14.487-3.933-4.155-1.64-9.488-1.484-12.665-4.843-.35-.317-.882.088-.658.531-3.007 5.541 45.765 15.923 51.504 17.035 1.594 8.231-2.907 17.322-7.09 24.234a28.776 28.776 0 0 1-2.963 3.521c-1.168 1.041-5.264 4.001-2.049 4.835 3.314 6.887 11.106 9.627 18.101 11.311 12.548 4.434 26.179 7.143 38.694 1.063 9.725-2.912 13.279-7.521 17.358-16.47 3.925-7.926 7.629-16.609 6.519-25.633Z" clip-rule="evenodd"/>
  <path fill="#000" fill-rule="evenodd" d="M239.548 58.044c4.035-.356 8.533.978 11.272 4.065 1.144 1.29 1.764 2.756 2.357 4.306l.504 1.326c.293.766.663 1.633 1.319 2.094 1.054.742 2.39-.116 3.376-.583 6.573-3.113 17.094-4.006 21.217 3.423 1.242 2.237 1.455 4.9 2.768 7.088.903 1.504 2.307 2.666 3.687 3.742l.99.771c3.165 2.476 6.07 5.031 6.608 9.285.325 2.577-.264 5.373.852 7.802 1.047 2.28 3.018 3.98 4.213 6.163 1.533 2.796 1.692 6.968-.494 9.399 3.374 6.757 1.984 15.431-3.474 20.746-.418.408-.887.58-1.341.583l.126 2.188c.105 1.824.216 3.647.361 5.466.209 2.632.403 5.268.455 7.908l.008.413c.038 2.193.012 4.233-.841 6.275 2.933 8.399 2.292 18.396-.233 26.732-2.399 7.918-7.074 15.06-13.401 20.403-3.185 2.689-6.72 5.125-10.56 6.786-3.468 1.5-7.028 1.988-10.791 1.825-4.659-.202-9.325-.704-13.956-1.264l-2.347-.286c-4.207-.519-8.438-1.083-12.546-2.12-4.426-1.117-8.618-2.948-12.408-5.493l-.461-.311c-3.385-2.303-6.806-4.981-9.208-8.31-1.457 1.35-3.403 2.31-5.114 2.983-3.578 1.407-7.587 2.194-11.417 2.42-6.509.383-13.473-2.201-16.016-8.657a9.282 9.282 0 0 1-.633-4.228c.152-1.734 1.002-3.573.279-5.27-1.319-3.1-5.324-4.204-7.84-6.065-5.407-4.001-6.71-11.311-4.542-17.428 1.052-2.968 2.803-5.836 4.805-8.265 1.373-1.667 3.222-2.937 5.264-3.076-1.165-1.567-1.103-4.633.428-5.411a20.63 20.63 0 0 1-3.716-4.334l-.257-.401c-2.009-3.15-3.899-6.562-4.432-10.287-.612-4.272.128-9.035 3.052-12.369 2.28-2.601 6.681-5.035 4.127-8.969-1.352-2.082-3.009-3.665-3.953-6.032-.911-2.285-1.169-4.777-.671-7.19.874-4.236 4.346-7.845 8.647-8.604 2.664-.47 5.465.08 8.086-.616 1.896-.504 3.302-1.791 4.339-3.412 2.067-3.233 2.934-7.079 5.057-10.284 2.475-3.735 6.459-5.728 10.922-5.845 2.269-.06 4.603.34 6.636 1.364 2.063 1.039 3.999 3.05 6.37 3.34 2.154.264 3.939-1.542 5.298-2.956 1.547-1.612 3.028-3.246 4.718-4.718 3.547-3.087 7.723-5.69 12.511-6.112Zm38.759 98.604a41.803 41.803 0 0 0-13.06-.376c-7.849 1.013-15.13 4.419-22.893 5.832-6.093 1.11-12.261.682-18.327-.349.673 1.493.77 3.641.495 5.504.08 4.277-.89 8.548-2.561 12.566-1.287 3.093-3.026 5.994-5.053 8.658a44.252 44.252 0 0 1-3.241 3.812 41.42 41.42 0 0 1-2.624 2.515l-.186.161c3.712 2.478 6.757 5.825 10.558 8.226 3.931 2.483 8.199 3.944 12.737 4.879 4.121.849 8.311 1.41 12.489 1.91l3.018.359c3.428.405 6.889.783 10.327.841 7.027.12 13.365-3.95 18.422-8.518 5.736-5.182 10.373-11.662 12.875-19.009a43.928 43.928 0 0 0 2.041-9.082c.055-2.238.075-4.474-.226-6.734a27.564 27.564 0 0 0-1.069-4.819c-.175-.544-.427-1.066-.691-1.583-.348-.121-.651-.339-.828-.647l-.039-.012-1.452-.608c-3.498-1.459-6.931-2.811-10.712-3.526Zm-105.008-5.008c-3.05.474-5.11 4.009-6.48 6.459-1.712 3.061-2.99 6.265-2.841 9.834.112 2.692 1.075 5.482 2.831 7.552 1.948 2.294 4.841 3.216 7.24 4.913 2.109 1.491 3.948 3.61 4.153 6.286.118 1.542-.411 2.998-.512 4.518a7.52 7.52 0 0 0 .651 3.563c2.564 5.722 9.674 6.543 15.14 5.763 2.756-.394 5.595-1.004 8.189-2.034 1.163-.462 2.316-1.059 3.301-1.837.221-.175.428-.363.627-.559-.362-.652-.645-1.368-.914-1.901a43.413 43.413 0 0 1-2.049-4.78c-1.172-3.247-1.947-6.629-2.444-10.041a74.553 74.553 0 0 1-.77-10.532c-.005-1.697.006-3.394.142-5.084l.04-.461c.077-.822.123-1.684.278-2.514a162.504 162.504 0 0 1-19.131-5.998l-.953-.368c-1.388-.546-3.551-1.462-5.266-2.653-.463.09-.873.034-1.232-.126Zm28.056 9.501c.049.598.055 1.204.075 1.801l.014.357c.081 1.759.075 3.52.138 5.28.123 3.399.349 6.813.866 10.176.51 3.323 1.288 6.613 2.435 9.777a38.13 38.13 0 0 0 2.044 4.654c.133.255.301.519.477.789.026-.043.055-.083.083-.124l-.193-.615a27.055 27.055 0 0 0-.101-.304 72.495 72.495 0 0 1-1.419-4.63c-.804-2.977-1.428-6.011-1.809-9.072a66.442 66.442 0 0 1-.479-9.789l.031-1.229c.059-2.098.187-4.412.809-6.399a159.31 159.31 0 0 1-2.971-.672Zm4.051.902c.186 2.512-.188 5.199-.172 7.68.021 3.093.255 6.181.702 9.241a73.158 73.158 0 0 0 1.891 9.067c.397 1.425.84 2.838 1.323 4.237.195-.156.39-.314.576-.479a41.892 41.892 0 0 0 3.612-3.601 38.874 38.874 0 0 0 5.537-8.096 36.465 36.465 0 0 0 4.011-15.38c-2.355-.087-4.744-.479-7.082-.837l-.875-.131c-2.793-.414-5.576-.9-8.344-1.457-.394-.079-.786-.162-1.179-.244Zm47.534 9.433c.932-.209 1.884.807 1.306 1.696-1.868 2.876-6.437 3.99-9.632 4.442-3.7.524-7.286.111-10.801-1.149-.188-.067-.175-.4.051-.373 3.337.397 6.777.106 10.021-.775 1.594-.433 3.172-.998 4.651-1.735 1.454-.726 2.798-1.745 4.404-2.106Zm-59.89-4.52.931.009c.783.013 1.6.081 2.19.644 1.934 1.844-1.14 3.828-2.398 4.883l-.04.034c-1.778 1.509-3.935 4.129-6.442 4.168-.73.012-1.255-.718-1.073-1.405.479-1.806 2.192-2.766 3.625-3.793l2.489-1.784c.266-.191.684-.412 1.082-.655l-.177-.016c-1.648-.144-4.748-.199-5.358-.204l-.058-.001a71.834 71.834 0 0 0-6.545.262c-.306.027-.345-.437-.07-.517a39.6 39.6 0 0 1 8.114-1.485 46.909 46.909 0 0 1 3.73-.14Zm85.246 2.449c-.071-.084.021-.227.125-.161.288.184 1.065.361 1.42.555l1.037.571c.173.095.346.19.52.283 1.129.606 2.311 1.076 3.528 1.474 1.27.415 2.578.725 3.908.869 1.144.124 2.191.126 3.282.545.846.323.844 1.396 0 1.719-2.461.942-5.673-.255-7.975-1.243a18.234 18.234 0 0 1-3.522-2.033 11.591 11.591 0 0 1-1.49-1.264c-.409-.418-.468-.886-.833-1.315ZM173.23 146.316c-.208.391-.34.81-.396 1.26.073 2.256 3.413 3.641 5.457 4.47 3.937 1.597 8.053 2.875 12.111 4.117a163.548 163.548 0 0 0 10.164 2.757c.099-.056.242-.041.296.069 1.983.467 3.975.897 5.975 1.29 2.677.525 5.368.983 8.068 1.374 2.649.384 5.346.55 7.991.956a37.677 37.677 0 0 0-.04-1.06c-1.373-.25-2.741-.528-4.1-.824-7.943-1.732-15.853-3.836-23.668-6.089l-3.701-1.072c-3.131-.908-6.261-1.825-9.368-2.808-3.15-.997-6.275-2.262-8.789-4.44Zm98.264-35.693c-10.01-1.961-20.424-1.01-29.974 2.524-9.229 3.415-17.372 9.363-23.572 16.979-2.977 3.658-5.491 7.728-7.513 11.986-2.047 4.31-3.177 8.826-4.583 13.348 5.813 1.474 11.652 2.899 17.541 3.949 4.129.737 8.325 1.211 12.525 1.097 4.022-.109 7.92-.956 11.774-2.063 7.396-2.126 14.583-4.809 22.38-4.905 6.658-.082 14.186 1.192 20.107 4.527-.047-1.728.065-3.455.033-5.211-.048-2.648-.217-5.292-.394-7.933-.337-5.058-.307-10.167-.854-15.205l-.05-.442c-.486-4.208-1.441-8.571-4.057-12.002-3.251-4.265-8.343-5.665-13.363-6.649Zm.123-7.293c-15.252-5.04-33.467-.748-46.082 8.821-6.822 5.175-12.266 11.67-16.331 19.191-2.098 3.881-3.758 7.977-5.068 12.187-1.107 3.558-1.769 7.212-2.58 10.838l3.25.828c.268-5.376 2.324-10.815 4.594-15.634 2.369-5.029 5.547-9.683 9.27-13.812 7.045-7.812 16.236-13.468 26.337-16.409 9.979-2.906 21.782-3.657 31.757-.305 4.785 1.608 9.053 3.967 11.888 8.235-3.094-6.967-9.929-11.592-17.035-13.94Zm-27.62-42.008c-4.427-1.21-8.78.37-12.437 2.884-1.908 1.31-3.676 2.877-5.289 4.533-1.351 1.387-2.595 2.87-4.144 4.05-1.471 1.12-3.214 1.931-5.106 1.81-2.135-.137-3.974-1.344-5.727-2.453-2.012-1.273-3.922-2.074-6.333-2.153-2.254-.073-4.553.347-6.494 1.536-3.223 1.973-4.533 5.832-5.953 9.122l-.205.471c-1.267 2.882-2.823 5.833-5.665 7.43-4.206 2.364-9.554.053-13.513 2.856-3.955 2.801-4.475 8.442-2.103 12.438 1.944 3.275 5.393 6.135 3.395 10.287-1.458 3.03-4.82 4.537-6.352 7.515-2.129 4.139-1.696 9.407.324 13.496l.509 1.027c1.197 2.406 2.486 4.846 4.285 6.837 2.222 2.46 5.042 4.419 7.854 6.211 1.154.318 2.319.605 3.48.895l.869.218c4.524 1.146 9.061 2.238 13.586 3.38l1.646.418c-.255-4.576.781-9.291 2.101-13.623 1.483-4.869 3.665-9.637 6.325-13.976 9.501-15.5 26.018-25.893 44.098-27.953 15.089-1.72 33.046 3.632 38.844 19.016.534 1.418-1.148 2.2-2.212 1.596 1.968 3.819 2.767 8.168 3.154 12.414.055.613.106 1.228.154 1.842 3.56-4.527 3.981-11.085.87-16.027-.533-.847-.234-2.163.647-2.667l.062-.034c1.418-.727 1.449-2.463 1.006-3.832-.655-2.021-2.139-3.694-3.315-5.422-1.372-2.016-2.201-4.132-2.363-6.575-.153-2.307.37-4.83-.632-7.004-.695-1.509-1.974-2.662-3.234-3.707l-.13-.108c-3.034-2.505-6.164-4.63-7.641-8.441-.81-2.093-1.078-4.47-2.521-6.267-1.05-1.307-2.554-2.116-4.15-2.553-3.611-.99-7.492-.253-10.946.98l-.23.083c-1.989.74-3.937 1.823-6.098 1.046-1.683-.604-2.625-2.118-3.276-3.69-.689-1.663-1.09-3.48-2.248-4.906-1.23-1.514-3.031-2.492-4.892-3Zm-70.569 84.666-.033.047c.145.094.29.189.438.279-.138-.107-.271-.217-.405-.326Zm13.07-28.781 1.281-.088c5.765-.384 12.634-.623 17.32 3.116.903.721 1.244 1.91.35 2.806-.957.958-2.566.715-3.796.744l-.929.022c-1.449.039-2.917.108-4.331.394-1.418.288-2.966 1.134-4.416.778-.468-.114-.751-.642-.624-1.096.597-2.134 3.558-2.629 5.423-2.877 1.277-.169 2.545-.211 3.831-.192.287.004.574.014.861.021-.575-.319-1.168-.6-1.776-.851a24.484 24.484 0 0 0-4.031-1.258c-3.007-.668-6.094-.857-9.163-1.022-.322-.018-.318-.475 0-.497Zm8.337-22.77.031.004c5.069 1.026 9.327 3.736 13.874 6.037a35.257 35.257 0 0 0 3.212 1.457l.477.18c.705.275 3.208 1.307 3.589.933.108-.105-2.199-2.52-2.441-2.83l-.277-.357c-.634-.828-1.17-1.639-1.132-2.741.022-.629.709-1.075 1.278-.732 1.469.884 2.174 2.756 3.332 4.001l.112.12c.817.858 1.842 1.759 1.54 3.068-.634 2.748-4.559 1.194-6.18.57-6.209-2.391-11.247-7.052-17.485-9.339-.219-.08-.148-.387.07-.37Zm73.643-16.903c.41-.051.66.185.684.569.01.172-.217.2-.301.08-.025-.036-.418 1.791-.436 1.95-.041.385-.066.77-.103 1.155l-.085.873a37.78 37.78 0 0 0-.137 1.75 44.574 44.574 0 0 0 .02 4.863l.029.44c.004.055.069.458.139.915.093-.287.18-.577.256-.868.376-1.435.157-3.016 1.189-4.155.604-.665 1.593-.386 2.047.263.758 1.085.411 2.662.027 3.976l-.302.998c-.367 1.207-.839 2.626-1.819 3.437-.969.802-2.338.84-3.256-.054-.886-.862-.903-2.183-.929-3.332-.078-3.528.358-7.134 1.581-10.458l.098-.262c.213-.557.497-2.04 1.298-2.14Zm-40.565-2.082c1.617-1.887 3.977 4.853 4.429 6.16l.358 1.035c.935 2.691 2.012 5.542 4.04 7.53-.163-.983-.565-2.015-.717-2.834l-.068-.37c-.255-1.425-.457-2.916-.192-4.335.089-.48.564-.91 1.024-1.023.279-.069.501-.072.78 0 .474.122.915.538 1.024 1.023.442 1.962.423 4.027.836 6.016l.052.255c.317 1.61.433 3.126-.409 4.619-.379.672-1.324.922-1.985.52-2.812-1.716-4.536-4.472-5.587-7.531-.501-1.457-.881-2.964-1.234-4.467l-.251-1.075c-.286-1.186-1.363-5.46-1.852-5.201-.212.112-.397-.148-.248-.322Z" clip-rule="evenodd"/>
  <path fill="#000" fill-rule="evenodd" d="M269.299 188.815c-2 .017-4.249-.731-5.753-1.317l-.392-.154c-1.302-.52-2.638-1.116-3.635-2.116-.319-.325-.659-.693-.831-1.08-.101-.227-.143-.461-.045-.694.36-.036.702-.082 1.025-.141.154-.028.302-.057.415-.057.417-.003.83.05 1.242.102l.179.022c.321.04.641.082.96.125.927.124 1.85.247 2.791.292.679.033 1.391-.006 2.11-.044 1.864-.101 3.791-.239 5.227 1.061.376.341.534.77.534 1.207 0 .531-.225 1.071-.567 1.495-.775.961-1.968 1.289-3.26 1.299Zm10.908-16.747c-.87 1.3-2.32 2.136-4.307 2.046-3.948-.18-8.661-1.664-11.968-3.81-.861-.559-1.42-1.452-1.52-2.409l-.178-1.702-.963 1.417c-.1.148-.202.295-.303.443-.279.406-.557.811-.82 1.227a54.705 54.705 0 0 0-2.774 4.901c-.594 1.198-1.029 2.538-1.465 3.889-.736 2.282-1.447 4.526-3.019 6.13-.238.243-.604.33-.938.287-.295-.038-.584-.182-.726-.469-1.879-3.806.649-8.392 2.699-11.581l.216-.333c1.901-2.881 5.006-6.694 8.561-7.212l.407.646.592-.393c.968-.643 2.245-.613 3.364-.11l1.119.503c2.082.931 4.136 1.79 6.389 2.26a21.336 21.336 0 0 0 .958.175 17.796 17.796 0 0 0-.106-.457c-.038-.161-.076-.322-.117-.483-.043-.165-.088-.33-.134-.494a21.255 21.255 0 0 0-.626-1.939c-.91-2.388-2.362-4.621-3.775-6.751l-.166-.251c-.203-.305-.425-.623-.654-.953-1.102-1.58-2.324-3.296-2.411-5.018 1.463.092 2.687.997 3.764 1.785a28.558 28.558 0 0 1 4.092 3.66c2.412 2.605 4.576 5.936 5.525 9.379.543 1.971.304 4.093-.716 5.617Zm-38.579-19.641v-.071c.004-1.988 1.167-6.527 4.04-6.527 1.795 0 2.884 3.089 3.073 6.274l.007.13c.083 1.98-.463 6.307-3.08 6.307-2.646 0-4.013-4.099-4.04-6.113Zm42.301-.624v-.07c-.004-1.988-1.167-6.527-4.04-6.527-1.75 0-2.83 2.936-3.057 6.035l-.016.238c-.113 1.913.397 6.438 3.073 6.438 2.646 0 4.013-4.099 4.04-6.114Zm-32.625-12.831c-.38.045-.759.103-1.138.163a52.71 52.71 0 0 0-3.295.631 65.61 65.61 0 0 0-6.145 1.72c-1.888.622-3.746 1.326-5.603 2.029l-.297.113c-.656.249-1.31.527-1.965.806-.998.425-2.001.853-3.024 1.175 2.695-3.712 6.848-6.462 10.844-8.43 2.28-1.123 4.699-2.028 7.132-2.77l1.354-.406c1.996-.586 4.177-1.128 6.051.041a2.977 2.977 0 0 1 1.363 1.959 2.802 2.802 0 0 1-.548 2.261c-.461.594-1.034.932-1.645 1.048-.673.128-1.387-.013-2.037-.359-.521-.038-.675-.024-.829-.007l-.218.026Zm30.014.378a16.486 16.486 0 0 0-4.027-.364c-.62.019-1.219.114-1.817.21-.928.149-1.853.303-2.853.122-.522-.094-.966-.398-1.31-.795a3.298 3.298 0 0 1-.752-1.621c-.088-.582 0-1.091.216-1.541.256-.532.686-.979 1.207-1.372 1.574-1.187 4.276-.902 6.134-.662 1.836.238 3.663.806 5.286 1.706a12.772 12.772 0 0 1 4.08 3.552c.916 1.234 1.347 2.654 1.793 4.1-2.096-1.751-5.302-2.761-7.957-3.335Z" clip-rule="evenodd"/>
</svg>
