<svg xmlns="http://www.w3.org/2000/svg" fill="none" viewBox="0 0 514 1026">
  <path fill="#8FA7DF" fill-rule="evenodd" d="M372.221 972.673c10.442 0 20.903-2.008 31.019-3.952l.361-.081c4.218-.948 8.579-1.928 12.42-3.771 4.614-2.295 8.111-6.658 9.823-12.272 2.034-6.669 1.317-14.423-1.871-20.257a860.007 860.007 0 0 0-2.072-3.175c-6.497-9.924-13.215-20.187-16.337-32.216l-1.121-4.319 3.829 2.145a.336.336 0 0 0 .179.041c.749 0 2.428-1.116 4.363-3.562 7.81-12.522 6.807-28.185 5.837-43.333-.251-3.922-.51-7.976-.597-11.841-2.97-38.299-11.51-79.176-26.873-128.627-11.452-30.439-16.89-62.825-22.147-94.142-1.935-11.529-3.937-23.45-6.209-35.092l-.483-2.478 3.034.236c1.114.088 2.265.179 3.348.179 3.204 0 4.979-.821 6.126-2.833 5.637-9.984 6.3-21.904 6.941-33.432.174-3.137.355-6.381.633-9.524l.153-1.713 1.679-.031c.345-.006.691-.017 1.036-.028l2.336-.075-.354 1.901c.259.052.682.104 1.348.104 1.082 0 2.366-.133 3.499-.252 1.028-.106 1.915-.198 2.629-.198.258 0 .485.012.689.037.526.017 1.03.025 1.499.025 3.448 0 5.55-.454 6.424-1.387 1.092-1.166.977-3.964.818-7.836-.034-.835-.071-1.722-.098-2.662-.105-3.509-.15-7.076-.194-10.524-.096-7.625-.195-15.51-.956-23.176l-.025-.249.039-.248c10.929-70.045 3.9-140.879-3.445-194.764-.124-.915-.247-1.831-.369-2.747-1.238-9.256-2.517-18.828-5.83-27.576-3.99-10.594-10.114-17.809-19.275-22.714-8.259-4.421-17.883-6.408-28.072-8.511-9.158-1.891-18.628-3.846-27.548-7.732l-.68-.297-1.217-.333c-.812-.223-1.595-.507-2.352-.782-1.139-.413-2.214-.804-3.247-.938l-.937-.122-.462-.844a51.69 51.69 0 0 1-4.669-11.851l-.043-.166-.013-.171c-.09-1.157-.091-2.297-.091-3.399 0-1.407 0-2.735-.178-4.03-.755-4.712-3.281-8.393-7.507-10.943-3.718-2.243-8.649-3.478-13.885-3.478-2.258 0-4.473.227-6.586.674l-.087.019-.088.01c-3.786.424-10.676 2.005-14.275 7.822l-.821 1.326-1.145-.45c-.124.53-.201 1.361-.249 1.868-.088.94-.171 1.827-.441 2.557-.557 1.564-1.004 3.26-1.367 5.186l-.28 1.485-.305.014c-1.592 7.495-4.337 13.341-8.372 17.83l-.315.35-.342.124c-.101.102-.275.339-.395.502-.227.309-.484.659-.812.976-.898.916-1.881 1.644-2.831 2.348l-.576.429-.289.217-.348.093c-.778.207-1.493.241-2.123.272-.547.026-1.019.049-1.404.179l-.256.086-.268.009c-.107.004-.215.018-.325.029a6.71 6.71 0 0 1-.752.051c-.288 0-.553-.029-.809-.087l-1.38-.315-.06-1.051a133.445 133.445 0 0 0-6.133-.154c-9.542 0-16.993 1.35-23.446 4.248-22.883 11.24-30.794 48.38-36.57 75.501-.97 4.554-1.886 8.855-2.812 12.774-4.942 25.792-9.805 52.052-14.507 77.447-4.38 23.652-8.909 48.11-13.492 72.141-2.702 13.403-4.174 28.343 5.367 37.678l1.455 1.424-1.491 1.383c-.921.855-.661 3.201-.451 5.086.062.559.121 1.088.154 1.595 1.042 10.526 2.983 19.047 5.932 26.046 3.808 9.036 9.335 15.337 16.426 18.728l.866.414.18.962c.171.91 1.947 1.651 3.959 1.651 1.215 0 2.367-.26 3.162-.714l2.133-1.219.596 2.425c13.658 55.571 19.182 112.169 23.275 180.053.373 6.099.714 12.319 1.045 18.334 2.031 36.931 4.13 75.12 14.557 111.059l.314 1.082-.771.806c-5.631 5.887-13.201 8.714-20.521 11.449l-.595.222c-15.562 5.689-29.949 14.7-41.617 26.063l-.041.039c-10.363 9.507-14.807 19.853-11.884 27.677 2.709 7.253 11.669 11.413 24.585 11.413l.255-.001.101.012a175.127 175.127 0 0 0 18.876 1.001c27.774 0 54.9-6.284 75.429-11.759l.059-.014c6.183-1.43 11.906-4.982 16.118-10.003 4.32-5.151 6.648-11.459 6.553-17.762-.083-6.751-2.837-14.886-8.803-17.855l-4.131-2.054 4.356-1.489c2.459-.84 3.543-3.387 4.797-6.337.513-1.206 1.044-2.453 1.696-3.592 5.275-11.438 9.374-23.928 12.183-37.125l.018-.075c8.009-31.471 2.652-63.572-2.529-94.615-4.508-27.011-9.169-54.941-5.192-82.684l3.664-.207c5.615 21.958 9.628 45.095 13.51 67.47 4.704 27.12 9.569 55.165 17.338 81.521 8.692 29.484 20.167 53.627 35.083 73.806l.791 1.069-.71 1.127a.924.924 0 0 0-.1.2c.167.345 1.311 1.074 2.747 1.268l.793.106.473.661c2.371 3.314-.39 7.529-2.039 10.047-.287.438-.558.853-.75 1.18-2.287 3.891-4.382 7.824-5.952 10.815l-.562 1.041c-4.233 7.819-9.502 17.55-11.547 26.912-2.299 10.52-.056 18.493 6.859 24.371 2.807 2.13 6.186 3.35 9.278 3.35.776 0 1.54-.075 2.272-.225l.401-.082.397.098c4.63 1.126 9.533 1.674 14.989 1.674Z" clip-rule="evenodd"/>
  <path fill="#9FD8E5" fill-rule="evenodd" d="m315.438 219.356-.05.001c-1.42 0-2.095 1.029-2.023 3.085l.005.113-3.335 24.743-6.099 74.928-11.09 63.118-.955 5.651c-10.131 60.09-15.197 93.793-15.197 101.108l.002.928c.028 7.612.39 19.69 1.086 36.234l.791.253c7.487 2.372 12.839 3.558 16.056 3.558l.204-.002c3.338-.047 11.594-1.218 24.769-3.512l1.694-.297 10.998 2.167 7.11-3.363 7.291-13.467 38.189 3.883-.723 10.139.095-.001c.346-.006.691-.017 1.036-.028l2.336-.074-.354 1.9.108.02c.135.023.304.044.516.06l14.885-1.301c.232-.135.424-.285.579-.45.99-1.056.988-3.453.861-6.775l-.094-2.353c-.017-.443-.033-.9-.047-1.37a559.055 559.055 0 0 1-.179-9.371l-.035-2.791c-.093-7.113-.229-14.419-.935-21.538l-.025-.249.038-.247c10.93-70.046 3.9-140.88-3.445-194.765l-.185-1.373-.437-3.261c-1.167-8.663-2.489-17.534-5.577-25.689-3.99-10.593-10.114-17.809-19.275-22.714-7.669-4.105-16.515-6.111-25.897-8.061l-4.591-.95c-8.399-1.748-16.994-3.687-25.132-7.232l-.68-.297-1.217-.333c-.135-.038-.27-.076-.404-.117-.287.056-.51.087-.668.092Zm-85.746 5.7c-9.542 0-16.993 1.35-23.445 4.248-21.968 10.79-30.138 45.45-35.867 72.201l-1.54 7.217a450.338 450.338 0 0 1-1.976 8.857c-4.412 23.028-8.761 46.431-12.99 69.256l-3.965 21.406c-3.611 19.481-7.309 39.345-11.044 58.926l-.131.657c-2.126 10.751-3.363 22.409 1.282 31.329l15.766 11.454V525.3c4.865 2.605 11.065 3.927 18.602 3.964l.333.001h26.163l8.782-46.732 6.06-68.127 2.709-91.066 6.3-52.923 8.223-27.444 10.738-15.972-2.183-.715-.289.016-.408.02c-.435.024-.816.058-1.137.166l-.255.086-.269.009c-.071.003-.143.01-.216.017l-.108.012a6.747 6.747 0 0 1-.753.051c-.288 0-.553-.029-.809-.087l-1.379-.315-.06-1.051a133.525 133.525 0 0 0-6.134-.154Z" clip-rule="evenodd"/>
  <path fill="#AE5D29" fill-rule="evenodd" d="m348.968 515.886.018-.155c.183-1.789-.62-1.23-1.074.136-2.939-.383-4.335 2.665-3.222 4.835-4.565 5.975-10.628 10.606-14.718 16.968-3.778 5.244-5.316 14.052 3.738 13.113l.295-.001c1.16.002 1.778.143 1.982 1.552-.125 9.985-1.678 18.958 10.431 21.646 8.544 1.477 17.304 1.489 25.948 1.708 3.724-.155 3.263-5.094 3.297-7.803l.008.011c2.934-7.474 4.497-15.5 5.916-23.412l.177-.988c.84-6.467 2.206-13.121 1.076-19.626l.071-.105c1.069-1.622 2.247-4.629-.38-5.333-11.119-1.52-22.363-2.023-33.563-2.546Zm-195.529-2.237c-.99-2.105-7.554-7.479-8.972-3.832-2.006 12.241 3.945 23.173 8.327 34.064.407 1.181 1.257 2.067 2.294 2.435.864 3.379 19.402 21.43 19.741 12.743-1.359-6.051-3.084-12.031-4.654-18.028-3.302-17.308-8.374-8.937-15.367-14.306-2.197-4.005 1.015-9.016-1.369-13.076Zm148.213-325.831c-7.753-9.936-31.951-10.178-40.086-.605-3.985 1.875-6.131 15.883-6.16 20.421-1.252 6.873-5.547 12.593-9.945 17.801-3.968 5.729-.265 12.629 1.459 18.515a496.823 496.823 0 0 0 3.411 10.531c3.311 7.549 4.916 22.627 14.558 23.832 2.192 0 4.314-1.369 5.043-3.323 4.962-3.014 8.828-7.835 13.141-11.741 5.097-4.35 8.325-10.23 12.202-15.619 5.491-7.274 16.385-13.75 14.926-24.178.169.112.701 1.138.777.624-3.017-6.634-5.353-13.972-6.256-21.247-.057-5.836 1.412-9.83-3.07-15.011Z" clip-rule="evenodd"/>
  <path fill="#fff" fill-rule="evenodd" d="M377.086 894.407c-4.782.196-11.356-2.647-15.194 1.077-.167-.118-.443-.016-.53.195-1.218 2.959-2.709 5.868-4.114 8.738-5.778 12.938-15.306 24.371-16.952 38.896-1.276 11.52 5.653 27.954 18.868 26.601 17.465-.167 35.168-1.397 51.981-6.543 4.407 1.218 9.142-3.271 11.285-6.752 5.522-8.97 1.438-19.971-3.107-28.336-5.025-8.627-8.947-17.806-12.269-27.238.877-1.083.69-3.251-.93-3.497-2.742-.215-5.242-1.225-8.034-1.089-6.985-.849-13.999-1.468-21.004-2.052ZM216.59 875.23c-2.255-4.771-5.204 1.63-6.96 3.564-8.972 7.321-21.909 7.619-31.098 14.908l-.606.397c-3.598 2.34-7.625 4.782-10.046 8.36l-.924.645c-10.035 7.021-22.566 16.513-24.317 29.397-.416.544-.673 1.236-.748 1.974.409 19.972 29.527 13.282 42.43 13.857l2.019-.088c21.775-.925 44.042-1.155 64.535-9.728 3.195 1.188 7.074.459 10.197-.846l.361-.142c4.597-1.792 9.669-3.278 12.688-7.518 4.478-5.829 5.685-13.802 4.976-21.017l-.086-.838c-.389-3.91-.611-8.474-3.567-11.129-4.358-7.464-14.239-5.603-21.19-8.503-11.097-2.897-26.834-15.02-37.664-13.293Zm9.205-550.49c1.284-2.461 3.23-5.188 5.771-6.375.995-.464 1.967-.683 2.904-.708 3.633-1.095 7.155.77 9.23 3.933.223.174.441.36.651.555 2.191 2.025 4.033 4.674 4.014 7.812-.02 3.121-1.993 6.025-4.969 6.833-1.028.279-2.113.061-2.984-.492-.379.18-.775.34-1.193.473-4.544 1.452-10.497-.068-13.301-4.168-1.671-2.443-1.452-5.315-.123-7.863Z" clip-rule="evenodd"/>
  <path fill="#000" fill-rule="evenodd" d="M305.291 193.98c.001-.222-.316-.262-.373-.051-2.545 8.923-1.734 18.627 2.589 26.855l.139.276c1.007 1.976 2.273 3.924 4.164 4.828l-.7 1.02c-11.22 16.309-23.632 31.88-38.576 44.775-1.466 1.28-2.943 2.554-4.46 3.773l-.571.454c-.716.564-1.763 1.681-2.724 1.724-3.034-.886-6.618-8.856-8.341-11.72-6.339-11.479-9.729-24.344-11.969-37.158.754-1.672 2.617-2.702 3.662-4.021 1.958-2.052 3.644-4.444 4.997-6.954 2.575-4.774 4.167-10.755 3.444-16.221-.047-.354-.612-.332-.677 0-1.218 6.361-3.396 12.476-7.556 17.431-.035-.093-.11-.168-.222-.167-1.8.023-3.465-.364-5.248.144-1.552.442-2.993 1.276-4.04 2.54a10.361 10.361 0 0 0-1.212 1.881 219.625 219.625 0 0 0-3.037-.148c-20.658-1.736-40.675 5.426-49.522 25.889-10.363 21.315-15.381 44.861-20.025 68.041-9.547 49.832-18.501 99.785-28.006 149.627l-.157.79c-2.554 12.953-4.151 28.651 6.069 38.641-2.012 1.865-1.064 5.758-.905 8.265 1.699 17.253 6.698 38.347 23.43 46.349.617 3.301 6.703 4.063 9.873 2.249 14.295 58.173 19.484 118.168 23.112 177.895l.11 1.81c2.65 43.478 3.481 87.769 15.674 129.822-5.483 5.732-13.204 8.512-20.417 11.21-15.678 5.73-30.191 14.716-42.267 26.475-21.731 20.119-17.051 42.373 14.108 42.437 28.734 2.682 57.798-.692 85.547-8.591 1.519-.427 3.151-.751 4.534-1.56 1.711-.038 3.445-.328 4.894-.658 13.279-3.069 24.345-15.37 24.131-29.664-.091-7.325-3.056-16.165-9.855-19.55 2.509-.744 3.858-2.877 4.837-5.209a173.978 173.978 0 0 0 2.717-5.641c5.539-11.993 9.601-24.66 12.356-37.614 12.39-48.67-6.5-97.085-8.922-145.739.093-1.826.203-3.65.348-5.471.521-6.535 1.316-12.99 2.602-19.38 17.49 73.2 18.591 154.391 64.543 216.554-1.566 2.485 1.771 4.11 3.976 4.409 1.916 2.676-1.596 6.91-2.885 9.104-2.096 3.57-4.069 7.226-5.994 10.896l-1.327 2.452c-8.58 15.882-19.984 38.268-3.431 52.288 3.654 2.789 8.508 4.427 13.072 3.495 5.129 1.447 10.475 1.877 15.79 1.636 10.431-.231 20.83-1.658 31.024-3.896l1.449-.327c3.996-.905 8.049-1.892 11.754-3.668 12.308-6.127 15.118-23.711 8.753-35.27-2.134-4.064-5.093-7.582-7.546-11.434-4.592-7.209-8.21-15.205-10.651-23.446.559.4 1.324.507 2.135.071 16.263-10.037 10.815-43.598 10.417-60.545-3.41-44.025-13.93-87.18-26.976-129.167-15.612-41.457-19.843-85.707-28.287-128.972l1.595.124c3.926.283 7.96.275 10.21-3.678 5.783-10.559 6.899-23.947 7.464-36.948.227-1.704.418-3.417.608-5.124.387.064.782.078 1.102.069.24-.008.476-.031.706-.073l.034.01c1.522.319 3.107.087 4.651.011 3.834-.37 7.895.089 11.655-.855 5.294-1.82 2.946-8.814 3.267-13.186-.34-11.273-.044-22.604-1.158-33.838 10.1-64.729 5.364-130.738-3.441-195.329-3.264-35.223-13.589-56.539-50.241-62.183-9.249-1.849-18.695-2.832-27.594-6.172 26.416 15.695 60.968 7.283 69.813 47.651 13.875 82.182 19.203 168.219.385 250.029-2.951-.636-5.824-1.643-8.848-1.982.064-.292-.387-.369-.382-.058-13.985-2.104-29.157.355-41.823-7.34a967.833 967.833 0 0 1 8.802-41.356c14.321-52.64-16.551-103.79-10.622-156.497.035-.272-.4-.319-.462-.064-11.85 53.665 21.649 107.091 4.66 160.617-1.548 6.67-3.202 13.316-4.574 20.027l-.042.186c-.756 3.382-4.611 23.694.557 21.927.986.649 2.092 1.144 3.194 1.583-1.621 6.373-7.059 10.691-11.148 15.275-13.025-5.748-27.677.615-41.229-.599-3.97-.176-7.852-1.12-11.759-1.75-3.121-65.247 14.178-128.771 24.186-192.692.253.051.506.099.759.144-.097.574.111 1.204.78 1.658 3.45 2.755 10.509 3.452 9.654-2.838-1.202-4.501-7.546-4.574-9.613-.707-.41-.154-.827-.299-1.25-.434.248-1.653.488-3.306.724-4.961 13.653-13.995 23.469-35.223 24.251-55.343l1.129.176c.952.15 1.656-.376 1.755-1.369.101-1.021.15-2.02.131-3.005.26-1.151.11-2.472-.013-3.588 1.365-9.239-5.568-18.644-14.375-20.853.949-1.697 1.388-3.93 1.695-5.779 1.292-4.181 1.768-8.668 1.266-13.005a33.87 33.87 0 0 0-.072-1.562c-.294-4.144-1.403-8.296-4.393-11.278-2.207-2.201-5.128-3.243-7.956-2.335-2.143-5.253-3.405-10.878-3.409-16.57Zm53.491 700.924c8.264 1.854 16.762 1.229 25.148.949 2.623 5.077 4.283 10.672 5.56 16.231 1.267 8.499 6.131 5.912 3.307-1.225-1.764-5.545-4.789-10.508-8.302-15.024 7.407-.233 14.918-.168 21.986 2.198.141 13.214 6.852 24.539 13.825 35.184 5.639 9.915 2.558 25.924-9.354 28.994-16.503 5.5-33.946 5.77-51.08 6.791-.4-1.733-2.374-2.381-3.954-2.185-4.42.774-8.97-1.636-11.555-5.266-10.484-16.834 7.422-37.895 12.499-54.099l.167-.402c1.401-3.312 4.225-8.935 1.753-12.146Zm-143.433-16.006c1.957-.211 3.953-.034 5.877.356 1.465.297 2.906.68 4.343 1.071-2.188 2.054-4.313 4.283-6.172 6.662l-.264.34c-2.064 2.695-4.534 5.055-5.545 8.418-.332 1.103.92 1.984 1.848 1.455 3.041-1.735 4.82-4.926 6.689-7.809 1.773-2.737 3.186-5.765 4.243-8.848l.656.178c2.407.649 4.822 1.245 7.329 1.428 5.892 2.385 11.606 6.459 17.107 8.924 4.414 7.661 5.312 16.61 5.089 25.325 3.276 6.484 7.668-14.391-3.111-24.37l.38.159c5.834 2.413 12.253 3.647 18.402 1.398-.114.234-.115 1.057.345.731 1.235-1.522 4.081 4.362 4.427 5.133 7.671 15.781-1.804 33.348-18.218 37.067l-.48.099c-8.6 1.783-54.282 11.565-76.987 11.381-10.165-.886-32.823 1.57-37.473-9.599-3.602-13.469 11.309-24.988 20.218-32.571a114.51 114.51 0 0 1 18.556-12.049c8.564-4.453 18.586-7.54 26.061-13.842.275.269.694.389 1.148.16.393-.198.942-.003 1.383-.085.47-.087.903-.291 1.355-.451a12.287 12.287 0 0 1 2.794-.661Zm-30.425 45.856c4.175.306 5.124-8.979 2.804-6.423-.272.977-.742 1.991-1.381 2.783l-.153.182c-.773.887-3.394 2.793-1.27 3.458Zm192.205-25.126c-.083-.155-.333-.087-.327.09.066 2.135.219 4.01-.302 6.117-.501 2.022-1.443 3.779-2.573 5.501-.822 1.252 1.104 2.336 1.945 1.164 2.428-3.38 3.302-9.07 1.257-12.872ZM235.668 883.06c-.059-.253-.456-.262-.508 0-1.363 4.486-1.763 9.223-2.82 13.795-.181 2.604-4.51 11.123-.496 11.738 3.725.059 3.952-8.95 4.555-11.775l.053-.49c.473-4.419.707-9.039-.784-13.268Zm39.654-371.443c.339 3.291-1.098 20.55 3.015 20.152 11.194 7.037 27.879 1.825 40.237.715 4.568-.53 9.14-.737 13.72-1.052-7.357 5.797-15.353 26.495 1.608 21.403 2.216 2.578.606 6.845.406 9.887-.844 7.115 2.431 12.746 9.671 13.655 6.605.893 13.324.853 19.962 1.422 2.315 24.478 5.32 48.908 9.288 73.167 3.492 21.492 10.876 41.837 17.178 62.565 14.864 51.062 27.541 104.231 24.981 157.87-.338 4.127-1.049 8.236-2.458 12.129-1.293 3.57-3.567 6.771-5.922 9.68a2.277 2.277 0 0 0-.51 1.787c-.225.666-.014 1.497-.054 2.21-14.665-7.693-31.894-2.014-47.283-6.634-.118-1.492-.654-3.137-1.26-4.507-12.935-17.933-22.637-38.145-29.875-59.132-15.004-43.218-20.087-89.036-29.227-133.728-9.211-44.443-22.959-88.498-46.062-127.532-.17-.289-.552-.036-.43.257l1.17 2.872c12.59 30.967 24.736 62.262 32.862 94.804-17.276 69.262 26.529 132.166-5.847 205.617a177.973 177.973 0 0 1-4.446 10.124c-1.032 2.917-4.479 7.17-4.226 10.015-12.272 2.536-22.51-6.328-32.727-11.724l-.245-.107c-3.034-1.343-8.22-4.173-11.753-3.596-2.402-1.459-4.708-3.077-6.78-4.935a26.99 26.99 0 0 0-.636-2.069c-17.815-65.787-12.4-135.084-21.6-202.26-4.979-45.048-14.154-89.83-28.107-132.688 3.662 1.257 39.026 3.363 34.483-4.142a353.402 353.402 0 0 0 3.27-15.832c4.041.286 8.029.62 12.066.872-1.885 4.326-3.323 8.94-4.932 13.364-1.976 4.248-1.039 12.468 5.102 11.393 5.284-1.632 8.319-10.755 6.756-15.827-.149-.448-.872-.67-1.097-.146-1.249 2.908-1.953 5.893-3.696 8.563l-.241.362c-.463.706-1.666 2.676-2.526 2.505-1.791-3.624 5.326-15.031 6.013-19.905l.567.028c-3.313 7.717 5.581 13.276 11.638 8.56 3.385 4.779 6.779 9.448 10.055 14.286l.256.368c1.373 1.972 2.925 4.038 5.259 4.82 2.464.825 5.085-.318 6.053-2.811 1.793-5.497-4.056-13.805-7.355-17.96-.97-2.719-2.927-4.954-5.159-6.685l.98.01c9.314.089 18.827-.099 27.858-2.19Zm113.531 384.635c-.189 0-.189.3 0 .3s.189-.3 0-.3Zm-18.89-50.938c-.193-.356-.761-.112-.642.277 4.092 13.229 7.596 26.643 10.633 40.165 1.77 9.233 7.566 6.444 4.969-1.716-3.321-13.498-8.407-26.535-14.96-38.726Zm-103.821 4.025c.017-.334-.454-.369-.546-.076-2.609 8.384-6.13 16.573-11.073 23.798-1.54 2.236-3.696 4.309-4.454 6.995-.356 1.263.987 2.087 2.021 1.591 2.613-1.256 4.258-4.309 5.727-6.742l.081-.135c4.683-7.675 7.775-16.358 8.244-25.431Zm87.604 17.899c-.347-.444-.973.125-.736.581l.109.22c1.1 2.252 7.585 15.941 8.471 10.528-1.711-4.249-5.065-7.766-7.844-11.329Zm-139.198 6.118.103.171c-.237.254-.481.501-.728.746.212-.301.422-.605.625-.917Zm72.589-206.606c.172.67.338 1.342.506 2.014a83.12 83.12 0 0 0-1.328 5.029c.218-2.347.486-4.695.822-7.043Zm60.036-150.248c11.895 3.736 24.527 2.453 36.789 2.846l.041.014c-2.751 15.682-2.316 32.114-7.516 47.26l-.149.421c-2.411 6.775-3.845 8.52-11.3 7.286-5.923-.442-11.85-.828-17.772-1.29l-.811-.067c-2.57-.223-5.494-.645-7.213-2.737-3.758-5.111.596-11.904-1.457-17.461-2.995-6.755-6.135-.82-9.984-2.906-2.436-1.689.301-7.076 1.264-8.928 3.95-6.741 10.655-11.328 14.907-17.916l.254-.367c1.155-1.678 2.595-3.951 2.947-6.155ZM145.8 508.696c2.386 1.758 5.065 3.044 7.881 3.637-.252 4.37-.431 8.744-.523 13.121-.025 1.174.801 2.067 1.818 2.445a86.77 86.77 0 0 0 11.697 3.432c1.654 3.693 2.553 7.633 3.414 11.574l.338 1.55c1.286 5.399 3.084 10.661 4.292 16.083-5.435 1.769-9.999-3.044-13.726-6.435-11.111-11.922-14.669-29.409-15.191-45.407Zm257.429-14.942c-.145 9.634-.235 19.259-.248 28.893-.243 1.894.957 5.456-1.769 5.709-4.826.729-10.018-.206-14.775.909a20.138 20.138 0 0 0-1.553-.152c.177-1.647.305-3.302.422-4.954.064-.909-.019-2.441.279-3.646 1.508.391 3.236.343 4.734.469l.636.052c1.375.108 2.743.181 4.111.081 1.042.368 2.317.012 2.665-1.399a400.392 400.392 0 0 0 5.498-25.962ZM237.184 224.297a33.647 33.647 0 0 0-.708 1.786 322.892 322.892 0 0 0-2.253 6.274 460.84 460.84 0 0 0-2.624 7.746l-.501 1.423c-1.423 4.031-2.886 8.046-4.624 11.959-19.668 89.73-6.233 183.554-26.326 273.239-14.067 2.507-28.442 1.524-42.003-3.066l.006-.235c.098-4.056.835-18.947.896-19.833 1.536-22.374 5.073-44.59 9.141-66.616 4.376.895 8.839 1.284 13.283 1.652l1.307.108c1.306.115 2.517.344 3.551-.624 1.231-2.238-2.705-2.321-4.058-2.166l-1.683.016c-4.117.045-8.247.142-12.335.668 8.881-50.277 22.315-100.766 19.912-152.243-.022-.234-.327-.23-.353 0-4.165 74.942-27.594 146.979-33.717 221.652-14.658-4.514-14.884-23.001-12.158-35.741 5.329-30.031 10.991-60 16.506-89.995 6.648-34.847 11.653-70.155 21.522-104.255l.334-1.145c5.493-18.758 12.841-40.757 33.073-46.81 7.639-2.481 15.784-3.305 23.812-3.794Zm-4.397 289.223c1.42.048 2.841.088 4.262.122-.107 1.639-1.354 2.605-2.258 3.815-.334.523-.174 1.335.295 1.747-1.911.945-5.531.375-5.313-2.393.174-1.877 2.412-1.671 3.014-3.291Zm7.026.176.308.006c-.076.125-.155.252-.238.378a4.896 4.896 0 0 0-.07-.384Zm72.671-286.695c-1.223 5.845-2.169 11.724-2.932 17.627-7.238 1.827-11.201 8.711-15.06 14.656l-.076.145c-.874 1.616-3.678 5.482-3.452 7.745-.489.189-.852.665-.629 1.301.23.654.624 1.08 1.172 1.291-4.636 10.491-6.993 21.936-8.812 33.25-1.878 10.37-.848 23.813 9.603 28.945-2.786.585-5.628.124-8.257-.885.809-4.52-5.152-6.02-7.523-2.698-3.202 4.654 2.832 9.857 6.718 5.701.326-.37.41-.789.34-1.175 3.917 2.227 8.851 1.886 12.996.681 1.274.368 2.543.729 3.829 1.095-3.761 24.25-8.664 48.293-13.113 72.416l-.403 2.193c-6.134 33.429-11.365 67.228-11.556 101.318-22.096-2.425-44.532-1.091-66.602-4.27 12.682-74.462 4.644-150.819 16.733-225.342a127.547 127.547 0 0 0 3.459 15.788c1.622 5.947 4.664 11.807 4.169 18.124-16.79 3.83-13.066 27.685 4.354 25.324 14.591-.546 15.906-17.026 6.056-23.147-1.037-1.127-2.218-1.878-3.731-2.474-.62-.245-1.355-.525-2.11-.706.494-6.615-3.073-12.394-4.752-18.56-4.795-15.647-6.255-25.531-2.569-40.628.434-1.348.784-2.734 1.126-4.116 2.783-6.523 6.852-12.358 10.736-18.227 1.686 13.844 6.375 27.239 13.582 39.07 2.274 3.218 3.935 7.717 7.76 9.248 3.836.83 6.968-3.793 9.89-5.796 15.483-13.453 29.711-29.262 39.054-47.894Zm-110.88 250.123c-1.127-3.65-5.595-3.126-7.796-.823-2.264 2.222-2.371 5.965-.085 8.232 3.048 3.392 9.187 1.443 8.928-3.415.087-1.128-.781-1.68-1.325-2.512.337-.39.498-.908.278-1.482Zm-.826 1.925c.05.146.085.294.102.452a1.184 1.184 0 0 0-.506.695c-.17.799-.73 1.956-1.555 2.251l-.076.024c-1.376.469-3.118-1.853-1.564-2.659.52-.272.658-.121 1.254-.146l.528-.103c.634-.123 1.23-.253 1.817-.514Zm120.843-28.59c-7.622-.143-15.413-.911-23.01-.123-7.842 4.636 42.904 1.89 45.946 1.357l.077-.016c.224-.026.228-.34 0-.359-7.654-.663-15.335-.715-23.013-.859Zm-116.684-13.796c2.278-3.598-2.806-7.272-4.089-2.464-1.836 3.129 4.273 6.726 4.089 2.464Zm4.346-45.965c1.776-2.24.175-6.651-2.944-4.988l-.12.084c-1.596 1.152-3.224 3.741-1.698 5.524 1.293 1.323 3.915 1.15 4.762-.62Zm3.289-36.75c.133-2.377-2.901-4.514-4.741-2.67-1.393 1.274-1.421 3.749-.212 5.141l.016-.022c.482.475 1.134.675 1.796.46 1.755.614 3.221-1.248 3.141-2.909Zm25.636-36.462.618.346c3.868 2.189 5.858 3.749 7.236 7.801 1.11 4.265-.966 8.725-5.216 9.9-15.782 4.48-21.449-12.307-8.709-17.257 1.984-.65 4.033-.554 6.071-.79Zm69.524 17.163.556-.194c1.523-.522 3.099-.933 3.877.543.61 1.157-.516 1.24-1.388 1.048-1.109-.245-2.039-.907-3.045-1.397Zm-29.345-4.981c.993-1.376 2.389-1.24 3.442-.43.17.422.206.927.05 1.559-.213.858-.677 1.583-1.514 1.897a3.15 3.15 0 0 1-.709.153 1.987 1.987 0 0 1-1.269-3.179Zm22.464 2.066-.101.673-.78-.198c.299-.148.591-.311.881-.475Zm8.261-83.532c-1.517 12.947-2.249 25.996-3.18 39.02-.967 13.513-2.524 26.953-4.464 40.342-1.749 1.36-3.652 2.577-5.718 3.395-20.722-7.74-6.477-44.521-2.545-61.182.588-.244.894-.786 1.151-1.54.303-.891.572-1.797.84-2.703l.318-.6c3.424-6.49 6.75-13.897 13.598-16.732Zm-72.345 80.992c2.383-2.492-2.43-4.911-3.602-2.037-1.196 2.345 3.062 5.418 3.602 2.037Zm75.326-81.764c3.946-.486 7.276.393 9.98 2.178a15.666 15.666 0 0 1 3.34 3.588c3.216 4.751 3.742 10.888 2.594 16.424a1.484 1.484 0 0 0-.016.502c-1.14.333-1.229 2.455.104 2.758l.188.038c-3.408 18.35-9.821 36.446-22.285 50.422 3.644-25.137 4.573-50.574 6.095-75.91Zm-98.327 64.849c-3.017-2.755-7.308 3.731-3.377 5.253 2.802 1.11 6.005-3.225 3.377-5.253Zm5.152-37.434c-.168-.338-.624-.086-.562.243l.047.265c.046.276.097.64.138 1.049-3.4-1.872-6.814 2.195-3.989 5.184 1.51 1.542 4.068 1.277 5.017-.755.878-1.882.215-4.239-.651-5.986Zm-2.623 3.663c.692-.252 1.516.25 1.988.761l.044.049a.811.811 0 0 0 .104.1c-.647 2.806-4.039.223-2.136-.91Zm92.886-66.819c4.594 1.865 7.61 6.416 8.333 11.347.185 4.351-.21 8.718-1.418 12.893-.084.603-.317 1.228-.593 1.861-.44.1-.852.381-1.14.904a29.46 29.46 0 0 0-1.948 4.279c.415-5.532.911-11.057 1.55-16.569 2.199-.229 1.166-3.664.61-4.919-.063-.373.866-4.251.195-3.544-.242.845-.479 1.693-.713 2.541a54.033 54.033 0 0 1-4.876-8.793Zm-61.156 7.668-.195.229-.099.114c-.974.463-1.5 1.825-2.428 2.48-1.433 1.507-6.862 4.106-4.64 6.565-1.638 2.419-3.223 4.861-4.827 7.282l.11-.333c.64-1.931 1.304-3.854 1.941-5.785.597-1.809 1.079-3.723 1.896-5.444.054-.113.115-.218.174-.327.725-.039 1.45-.076 2.171-.113.228-.012.225-.345 0-.36l-1.821-.118c.809-1.229 1.908-2.085 3.323-2.664l.951-.392c1.122-.46 2.282-.908 3.444-1.134Z" clip-rule="evenodd"/>
  <path fill="#8FA7DF" fill-rule="evenodd" d="M218.245 117.531c.708-1.402.895-1.189-.329-2.432-4.495-6.771 6.766-11.994 4.999-19.147-1.116-7.335 7.27-9.89 11.06-15.434 2.587-6.775 3.98-12.029 12.041-11.75 5.115-.909 10.444 4.694 14.627 2.485 1.509-1.096 1.873-2.59 2.415-3.928 4.559-13.48 20.778-6.306 27.352 2.69 2.67 3.886 8.586 4.818 12.338 1.218 7.063-5.445 16.966-.804 18.965 7.462 2.855 8.845 7.889 10.634 16.473 10.369 9.074 1.942 8.351 13.091 2.563 18.49-4.908 9.35 9.662 10.2 6.829 22.217-.62 3.184-2.049 6.485-4.015 9.378a13.082 13.082 0 0 1-1.679 4.702c-.391.665-.85 1.294-1.342 1.889.102.053.202.109.296.173 1.136.772 1.682 2.198 1.278 3.53a3.334 3.334 0 0 1-.606 1.128 8.7 8.7 0 0 1 2.265.896c2.064 1.196 3.311 3.487 3.54 5.823 4.313 6.102 4.657 16.188-1.317 20.236-2.94 2.044-6.906 3.151-8.531 6.968-1.431 3.527 1.158 6.246-.374 9.551-5.07 11.328-23.615 8.058-30.757.772-11.411 17.168-33.251 17.648-51.827 18.912-23.806-1.097-38.892-32.313-31.466-52.873l.273-.787c-2.486-7.628.238-16.429.085-24.331-6.967-.236-8.108-13.111-5.156-18.207Z" clip-rule="evenodd"/>
  <path fill="#AE5D29" fill-rule="evenodd" d="M308.442 162.124c.125-.767-.299-1.59-1.277-1.491-4.305.428-8.609.998-12.855 1.837-9.729.742 5.409 25.749 8.376 29.633 3.751 3.951 5.809-12.597 6.058-14.865l.132-1.923c.293-4.395.496-8.877-.434-13.191Zm-1.953-13.086c-7.97-32.095-52.63-52.306-80.148-32.051-1.105 1.104.608 2.815 1.713 1.715a17.682 17.682 0 0 1 1.689-1.469c-7.589 10.494-4.824 24.628-6.301 36.795-1.901 1.709.318 4.003 2.401 3.189 3.803-.948 7.494-2.155 11.359-2.887 5.295-.985 10.722-1.256 16.069-.524 2.362 3.031 9.973 3.921 13.783 5.078 9.053 2.282 18.573 2.538 27.608.041 4.239-.703 8.442-2.651 12.641-3.348 1.402-.122.799-1.814.411-2.613l-.03-.268c-.146-1.26-.394-2.646-1.195-3.658Z" clip-rule="evenodd"/>
  <path fill="#fff" fill-rule="evenodd" d="M221.391 166.681c.659-7.439 8.273-10.3 14.785-10.631 5.466-1.654 11.314-.87 16.735.635 10.483 1.489 20.553 5.103 31.127 6.102 1.825-1.934 5.049-1.817 7.54-2.475 7.314-1.597 14.575-3.425 21.827-5.282 4.837-1.236 9.637-2.6 14.448-3.933 4.144-1.64 9.462-1.484 12.631-4.843.348-.317.879.088.655.531 2.999 5.541-45.641 15.923-51.363 17.035-1.591 8.231 2.899 17.322 7.07 24.234a28.883 28.883 0 0 0 2.954 3.521c1.165 1.041 5.251 4.001 2.045 4.835-3.306 6.887-11.077 9.627-18.052 11.311-12.515 4.434-26.108 7.143-38.589 1.063-9.699-2.912-13.244-7.521-17.312-16.47-3.914-7.926-7.608-16.609-6.501-25.633Z" clip-rule="evenodd"/>
  <path fill="#000" fill-rule="evenodd" d="M274.998 58.044c-4.023-.356-8.51.978-11.241 4.065-1.141 1.29-1.76 2.756-2.351 4.306l-.502 1.326c-.292.766-.661 1.633-1.316 2.094-1.051.742-2.383-.116-3.367-.583-6.554-3.113-17.048-4.006-21.159 3.423-1.238 2.237-1.451 4.9-2.761 7.088-.9 1.504-2.3 2.666-3.676 3.742l-.988.771c-3.156 2.476-6.053 5.031-6.59 9.285-.324 2.577.263 5.373-.849 7.802-1.044 2.28-3.01 3.98-4.203 6.163-1.528 2.796-1.687 6.968.494 9.399-3.366 6.757-1.98 15.431 3.464 20.746.417.408.884.58 1.337.583l-.125 2.188a248.56 248.56 0 0 1-.36 5.466c-.209 2.632-.402 5.268-.454 7.908l-.008.413c-.038 2.193-.012 4.233.838 6.275-2.924 8.399-2.285 18.396.233 26.732 2.392 7.918 7.055 15.06 13.365 20.403 3.177 2.689 6.702 5.125 10.531 6.786 3.458 1.5 7.009 1.988 10.762 1.825 4.646-.202 9.3-.704 13.918-1.264l2.341-.286c4.196-.519 8.415-1.083 12.512-2.12 4.413-1.117 8.595-2.948 12.374-5.493l.46-.311c3.375-2.303 6.787-4.981 9.183-8.31 1.453 1.35 3.394 2.31 5.1 2.983 3.568 1.407 7.567 2.194 11.386 2.42 6.492.383 13.437-2.201 15.972-8.657a9.295 9.295 0 0 0 .632-4.228c-.152-1.734-.999-3.573-.278-5.27 1.316-3.1 5.309-4.204 7.818-6.065 5.393-4.001 6.692-11.311 4.53-17.428-1.049-2.968-2.795-5.836-4.792-8.265-1.369-1.667-3.213-2.937-5.249-3.076 1.161-1.567 1.1-4.633-.428-5.411a20.617 20.617 0 0 0 3.706-4.334l.257-.401c2.003-3.15 3.889-6.562 4.42-10.287.61-4.272-.128-9.035-3.043-12.369-2.275-2.601-6.664-5.035-4.117-8.969 1.349-2.082 3.001-3.665 3.942-6.032.909-2.285 1.167-4.777.67-7.19-.872-4.236-4.335-7.845-8.624-8.604-2.657-.47-5.45.08-8.064-.616-1.891-.504-3.293-1.791-4.327-3.412-2.061-3.233-2.926-7.079-5.043-10.284-2.469-3.735-6.442-5.728-10.893-5.845-2.262-.06-4.59.34-6.618 1.364-2.057 1.039-3.988 3.05-6.352 3.34-2.149.264-3.929-1.542-5.284-2.956-1.543-1.612-3.02-3.246-4.706-4.718-3.537-3.087-7.702-5.69-12.477-6.112Zm-38.653 98.604a41.574 41.574 0 0 1 13.024-.376c7.828 1.013 15.089 4.419 22.831 5.832 6.076 1.11 12.228.682 18.277-.349-.671 1.493-.767 3.641-.494 5.504-.079 4.277.889 8.548 2.555 12.566 1.283 3.093 3.018 5.994 5.04 8.658a44.138 44.138 0 0 0 3.231 3.812 41.323 41.323 0 0 0 2.617 2.515l.186.161c-3.702 2.478-6.739 5.825-10.53 8.226-3.92 2.483-8.176 3.944-12.703 4.879-4.109.849-8.288 1.41-12.454 1.91l-3.01.359c-3.419.405-6.87.783-10.299.841-7.009.12-13.329-3.95-18.372-8.518-5.721-5.182-10.345-11.662-12.84-19.009a43.98 43.98 0 0 1-2.035-9.082c-.055-2.238-.075-4.474.224-6.734a27.65 27.65 0 0 1 1.067-4.819c.175-.544.426-1.066.689-1.583.347-.121.649-.339.826-.647l.039-.012 1.448-.608c3.488-1.459 6.912-2.811 10.683-3.526Zm104.723-5.008c3.042.474 5.096 4.009 6.462 6.459 1.708 3.061 2.982 6.265 2.834 9.834-.112 2.692-1.072 5.482-2.824 7.552-1.943 2.294-4.828 3.216-7.22 4.913-2.103 1.491-3.937 3.61-4.142 6.286-.118 1.542.41 2.998.511 4.518a7.542 7.542 0 0 1-.649 3.563c-2.558 5.722-9.649 6.543-15.1 5.763-2.748-.394-5.579-1.004-8.166-2.034-1.16-.462-2.31-1.059-3.292-1.837a7.57 7.57 0 0 1-.625-.559c.361-.652.643-1.368.911-1.901a43.373 43.373 0 0 0 2.043-4.78c1.169-3.247 1.942-6.629 2.438-10.041.507-3.492.757-7.005.767-10.532.006-1.697-.006-3.394-.141-5.084l-.04-.461c-.077-.822-.122-1.684-.277-2.514a161.762 161.762 0 0 0 19.079-5.998l.95-.368c1.385-.546 3.542-1.462 5.252-2.653.462.09.871.034 1.229-.126Zm-27.98 9.501c-.049.598-.055 1.204-.075 1.801l-.014.357c-.081 1.759-.075 3.52-.138 5.28-.122 3.399-.347 6.813-.863 10.176-.509 3.323-1.285 6.613-2.429 9.777a38.095 38.095 0 0 1-2.038 4.654c-.132.255-.3.519-.475.789-.027-.043-.056-.083-.084-.124l.193-.615.101-.304a73.108 73.108 0 0 0 1.415-4.63c.802-2.977 1.424-6.011 1.804-9.072.402-3.244.557-6.522.477-9.789l-.03-1.229c-.059-2.098-.186-4.412-.807-6.399.99-.215 1.978-.438 2.963-.672Zm-4.04.902c-.185 2.512.188 5.199.171 7.68a67.083 67.083 0 0 1-.7 9.241 73.322 73.322 0 0 1-1.885 9.067 73.089 73.089 0 0 1-1.32 4.237 14.7 14.7 0 0 1-.574-.479 41.93 41.93 0 0 1-3.603-3.601 38.923 38.923 0 0 1-5.522-8.096 36.555 36.555 0 0 1-4-15.38c2.349-.087 4.732-.479 7.064-.837l.871-.131c2.786-.414 5.561-.9 8.322-1.457.393-.079.784-.162 1.176-.244Zm-47.405 9.433c-.93-.209-1.879.807-1.302 1.696 1.863 2.876 6.418 3.99 9.605 4.442 3.69.524 7.267.111 10.772-1.149.188-.067.174-.4-.05-.373-3.329.397-6.76.106-9.994-.775-1.59-.433-3.165-.998-4.639-1.735-1.45-.726-2.791-1.745-4.392-2.106Zm59.727-4.52-.928.009c-.781.013-1.596.081-2.184.644-1.929 1.844 1.137 3.828 2.391 4.883l.041.034c1.772 1.509 3.924 4.129 6.424 4.168.728.012 1.251-.718 1.07-1.405-.478-1.806-2.186-2.766-3.615-3.793l-2.482-1.784c-.266-.191-.682-.412-1.08-.655l.177-.016c1.643-.144 4.735-.199 5.344-.204l.057-.001a71.462 71.462 0 0 1 6.528.262c.305.027.343-.437.07-.517a39.402 39.402 0 0 0-8.093-1.485 46.658 46.658 0 0 0-3.72-.14Zm-85.015 2.449c.071-.084-.021-.227-.124-.161-.287.184-1.063.361-1.416.555l-1.035.571c-.172.095-.345.19-.518.283-1.126.606-2.305 1.076-3.519 1.474-1.266.415-2.571.725-3.897.869-1.141.124-2.185.126-3.273.545-.843.323-.842 1.396 0 1.719 2.455.942 5.658-.255 7.953-1.243a18.165 18.165 0 0 0 3.513-2.033c.53-.387 1.026-.793 1.485-1.264.409-.418.468-.886.831-1.315Zm104.781-23.089c.208.391.34.81.396 1.26-.073 2.256-3.404 3.641-5.442 4.47-3.927 1.597-8.032 2.875-12.079 4.117a162.898 162.898 0 0 1-10.136 2.757c-.099-.056-.241-.041-.295.069a163.373 163.373 0 0 1-14.005 2.664c-2.642.384-5.332.55-7.969.956.008-.353.021-.706.039-1.06 1.37-.25 2.733-.528 4.089-.824 7.922-1.732 15.81-3.836 23.604-6.089l3.691-1.072c3.123-.908 6.244-1.825 9.343-2.808 3.141-.997 6.258-2.262 8.764-4.44Zm-97.997-35.693c9.983-1.961 20.368-1.01 29.893 2.524 9.204 3.415 17.324 9.363 23.507 16.979 2.97 3.658 5.477 7.728 7.493 11.986 2.042 4.31 3.169 8.826 4.571 13.348-5.797 1.474-11.62 2.899-17.493 3.949-4.118.737-8.303 1.211-12.491 1.097-4.011-.109-7.899-.956-11.742-2.063-7.377-2.126-14.544-4.809-22.319-4.905-6.641-.082-14.148 1.192-20.053 4.527.046-1.728-.065-3.455-.033-5.211.047-2.648.217-5.292.393-7.933.336-5.058.306-10.167.851-15.205l.05-.442c.485-4.208 1.437-8.571 4.046-12.002 3.243-4.265 8.321-5.665 13.327-6.649Zm-.123-7.293c15.211-5.04 33.377-.748 45.957 8.821 6.804 5.175 12.233 11.67 16.288 19.191 2.091 3.881 3.747 7.977 5.053 12.187 1.105 3.558 1.765 7.212 2.574 10.838l-3.241.828c-.268-5.376-2.319-10.815-4.582-15.634-2.362-5.029-5.532-9.683-9.245-13.812-7.027-7.812-16.192-13.468-26.266-16.409-9.952-2.906-21.723-3.657-31.67-.305-4.773 1.608-9.029 3.967-11.856 8.235 3.086-6.967 9.901-11.592 16.988-13.94Zm27.546-42.008c4.415-1.21 8.756.37 12.403 2.884 1.902 1.31 3.666 2.877 5.274 4.533 1.348 1.387 2.589 2.87 4.133 4.05 1.468 1.12 3.206 1.931 5.093 1.81 2.129-.137 3.963-1.344 5.711-2.453 2.007-1.273 3.911-2.074 6.316-2.153 2.248-.073 4.54.347 6.476 1.536 3.214 1.973 4.521 5.832 5.937 9.122l.204.471c1.264 2.882 2.816 5.833 5.65 7.43 4.194 2.364 9.529.053 13.476 2.856 3.945 2.801 4.464 8.442 2.098 12.438-1.939 3.275-5.379 6.135-3.386 10.287 1.454 3.03 4.807 4.537 6.334 7.515 2.124 4.139 1.692 9.407-.322 13.496l-.508 1.027c-1.194 2.406-2.48 4.846-4.274 6.837-2.215 2.46-5.028 4.419-7.832 6.211-1.151.318-2.313.605-3.47.895l-.867.218c-4.512 1.146-9.037 2.238-13.55 3.38l-1.641.418c.254-4.576-.779-9.291-2.095-13.623-1.48-4.869-3.656-9.637-6.308-13.976-9.475-15.5-25.948-25.893-43.979-27.953-15.048-1.72-32.956 3.632-38.738 19.016-.533 1.418 1.145 2.2 2.205 1.596-1.962 3.819-2.759 8.168-3.145 12.414-.055.613-.106 1.228-.153 1.842-3.551-4.527-3.97-11.085-.868-16.027.532-.847.234-2.163-.645-2.667l-.062-.034c-1.414-.727-1.446-2.463-1.003-3.832.653-2.021 2.132-3.694 3.306-5.422 1.368-2.016 2.195-4.132 2.357-6.575.152-2.307-.37-4.83.629-7.004.693-1.509 1.969-2.662 3.225-3.707l.13-.108c3.026-2.505 6.147-4.63 7.621-8.441.808-2.093 1.074-4.47 2.513-6.267 1.048-1.307 2.548-2.116 4.14-2.553 3.601-.99 7.471-.253 10.916.98l.229.083c1.984.74 3.927 1.823 6.082 1.046 1.678-.604 2.617-2.118 3.267-3.69.687-1.663 1.087-3.48 2.242-4.906 1.227-1.514 3.022-2.492 4.879-3Zm70.377 84.666.033.047c-.145.094-.289.189-.436.279.137-.107.27-.217.403-.326Zm-13.034-28.781-1.278-.088c-5.749-.384-12.599-.623-17.273 3.116-.9.721-1.24 1.91-.349 2.806.955.958 2.559.715 3.786.744l.926.022c1.446.039 2.909.108 4.32.394 1.413.288 2.957 1.134 4.404.778.467-.114.749-.642.622-1.096-.596-2.134-3.549-2.629-5.409-2.877-1.273-.169-2.538-.211-3.82-.192-.286.004-.572.014-.859.021.574-.319 1.165-.6 1.771-.851a24.393 24.393 0 0 1 4.02-1.258c2.999-.668 6.078-.857 9.139-1.022.32-.018.317-.475 0-.497Zm-8.315-22.77-.031.004c-5.055 1.026-9.302 3.736-13.836 6.037a35.217 35.217 0 0 1-3.203 1.457l-.476.18c-.703.275-3.2 1.307-3.58.933-.107-.105 2.193-2.52 2.435-2.83l.276-.357c.633-.828 1.168-1.639 1.129-2.741-.022-.629-.707-1.075-1.274-.732-1.465.884-2.169 2.756-3.323 4.001l-.112.12c-.815.858-1.836 1.759-1.536 3.068.632 2.748 4.547 1.194 6.164.57 6.191-2.391 11.216-7.052 17.437-9.339.219-.08.147-.387-.07-.37Zm-73.443-16.903c-.409-.051-.658.185-.682.569-.01.172.216.2.299.08.026-.036.418 1.791.435 1.95.042.385.067.77.103 1.155l.085.873c.056.582.108 1.165.137 1.75a44.574 44.574 0 0 1-.02 4.863l-.029.44c-.004.055-.069.458-.138.915a15.65 15.65 0 0 1-.256-.868c-.375-1.435-.156-3.016-1.186-4.155-.602-.665-1.589-.386-2.041.263-.756 1.085-.41 2.662-.027 3.976l.301.998c.366 1.207.836 2.626 1.814 3.437.966.802 2.332.84 3.248-.054.883-.862.9-2.183.926-3.332.078-3.528-.357-7.134-1.577-10.458l-.098-.262c-.212-.557-.495-2.04-1.294-2.14Zm40.455-2.082c-1.613-1.887-3.966 4.853-4.417 6.16l-.357 1.035c-.932 2.691-2.006 5.542-4.029 7.53.162-.983.564-2.015.715-2.834l.067-.37c.255-1.425.457-2.916.192-4.335-.089-.48-.562-.91-1.021-1.023a1.467 1.467 0 0 0-.778 0c-.473.122-.913.538-1.022 1.023-.44 1.962-.421 4.027-.833 6.016l-.052.255c-.316 1.61-.431 3.126.408 4.619.378.672 1.321.922 1.979.52 2.805-1.716 4.524-4.472 5.573-7.531.499-1.457.878-2.964 1.23-4.467l.251-1.075c.285-1.186 1.359-5.46 1.846-5.201.212.112.397-.148.248-.322Z" clip-rule="evenodd"/>
  <path fill="#000" fill-rule="evenodd" d="M240.786 182.636c1.03 1.345 2.895 2.375 4.984 2.868 1.99.469 4.189.45 6.088-.272l.163-.065c1.419-.589 2.781-1.778 3.299-3.018.205-.494.275-.995.134-1.463-.126-.421-.423-.808-.918-1.141-.155-.104-.363-.112-.562-.077-.246.043-.488.158-.635.314-.812.862-1.99 1.703-3.385 1.689-1.076-.011-1.955-.435-2.807-.915l-.598-.343c-.578-.329-1.164-.638-1.827-.78-1.187-.253-2.626.21-3.503.973-.383.333-.661.724-.736 1.145-.063.354.026.723.303 1.085Zm6.17-23.524c-2.357 1.431-5.949 4.768-3.413 8.315 2.984 3.128 7.282-.458 9.399-2.08 1.964-1.257 4.17 1.976 2.348 3.444-15.302 11.315-21.511-9.305-9.527-11.362 1.32-.226 1.81 1.24 1.193 1.683Zm26.59-21.994-.677-.185-.69-.186-.467-.123c-3.207-.839-6.745-1.577-9.925-1.216-1.16.131-2.101.783-2.265 1.997-.139 1.024.524 2.345 1.652 2.527 3.735.604 7.559.408 11.311 1.03 1.869.31 3.723.694 5.585 1.04 1.415.264 2.878.357 4.306.57l-.328.046c-.115.015-.086.208.027.2.47-.047.942-.054 1.414-.021l.202.017c.308.043.49-.324.215-.511-1.739-1.178-3.215-2.456-5.163-3.325a36.583 36.583 0 0 0-5.197-1.86Zm-29.196-1.807c-2.466-2.49-7.71-1.533-10.643-.394-1.674.65-3.266 1.472-4.592 2.702l-.129.121-.199.191c-.895.875-1.893 2.08-1.751 3.341.021.193.126.413.344.451 1.174.208 2.328-.411 3.413-.784l.719-.246c1.079-.367 2.165-.718 3.277-.971 1.384-.314 2.795-.496 4.215-.478 1.435.019 2.977.423 4.345-.146 1.525-.634 2.315-2.46 1.001-3.787Zm24.36 20.079c.63.642 1.46 1.004 2.524.789.831-.168 2.413-1.003 3.677-2.288.865-.88 1.588-1.978 1.784-3.251a.807.807 0 0 1 .409-.604c.163-.095.378-.142.611-.118.199.02.41.092.573.187.31.181.436.438.462.63.249 1.853-.468 3.692-1.585 5.242-1.507 2.092-3.721 3.625-5.022 3.984-2.227.614-4.573.125-6.303-1.423-1.383-1.237-2.092-2.85-2.75-4.508l-.127-.321c-.148-.377-.295-.75-.45-1.119-.312-.741-.212-1.381.09-1.88.335-.552.953-.941 1.641-1.061.636-.11 1.317.01 1.855.399.454.327.82.847.95 1.615.211 1.249.702 2.682 1.567 3.628l.094.099Zm-38.181-7.229c.519-.27.925-.352 1.501-.179.318.095.632.278.879.524.244.244.42.547.488.883.169.83.623 1.607 1.271 2.114.554.433 1.253.662 2.028.533.837-.14 1.634-.676 2.183-1.308.153-.176.278-.372.4-.571l.072-.119c.27-.446.533-.86.906-1.188a.884.884 0 0 1 .561-.211c.084 0 .169.014.25.039.833.835.993 1.468.966 2.096-.028.659-.288 1.326-.708 1.948-.985 1.46-2.857 2.656-4.119 2.928-1.73.371-3.447-.075-4.824-1.04-1.417-.992-2.467-2.533-2.794-4.27a2.27 2.27 0 0 1 .114-1.262 1.76 1.76 0 0 1 .826-.917Z" clip-rule="evenodd"/>
</svg>
