<svg xmlns="http://www.w3.org/2000/svg" fill="none" viewBox="0 0 515 1027">
  <path fill="#FFDBB4" fill-rule="evenodd" d="M159.04 511.669c-8.242.184-4.708-76.654.796-90.814.771-2.869 1.407-6.79 1.279-10.311-6.807.68-6.075-3.976-5.723-9.589-.116-4.458-.426-13.655 6.402-10.074 20.471-40.946-1.663-146.791 52.236-156.76 6.494-1.576 13.207-3.207 18.675-7.706 5.786-10.686 8.733-12.051 18.321-12.742 1.775-9.625 5.094-19.908 14.983-23.654 9.054-3.544 19.591-3.827 29.032-1.935 7.815 2.546 8.529 17.058 10.265 24.212 10.525-2.788 23.495-8.652 29.161 4.642 2.744-.82 5.287-.288 8.076.625 23.373 3.762 46.05 14.326 54.719 36.369 5.354 13.227 1.554 27.626-.454 41.325-1.873 14.917 3.066 28.737 5.355 43.085 3.409 19.758 4.025 35.606 1.801 50.291 5.88 1.337 6.313 6.68 3.935 12.271-.699 1.892-1.403 3.887-2.947 4.957-3.143 1.976-7.204-.301-10.619-.65-.71 7.89-2.085 15.632-4.361 24.43.659 2.634 1.415 5.575 2.094 8.22l.229-.249c7.796 32.627 30.983 64.32 23.777 98.996-.424 1.155-1.228.914-1.846.894-3.577 1.359-6.863.496-10.471.635-8.557.006-16.824 1.101-24.493 2.054-1.402 9.15-5.96 24.13-14.088 27.618-.137.047-2.546-.455-2.747-.47 21.638 87.659 60.57 168.716 76.035 258.141.092 1.091-1.685.513-2.268.646.079 2.482-1.525 3.078-3.773 3.961 2.896 6.048 5.505 12.089 8.387 18.152 1.337 3.002 3.515 5.966 3.912 9.175 3.191 2.038 5.341 6.021 5.284 9.739 8.606 3.634 6.267 21.583 8.23 30.473 1.985 13.244 11.428 22.493 17.903 33.352 1.319 2.18 2.724 5.036 2.787 7.774 4.013 1.88 5.51 5.987 5.245 12.899.014 8.088-2.269 11.167-8.426 11.363-16.724 1.67-36.238.99-53.059-.909-12.583-1.599-23.733-.272-20.919-15.378.579-3.657-.534-8.581 1.633-11.54 1.335-8.81.558-17.691-2.322-26.394-1.751-7.329-4.709-22.467-3.483-32.303.567-4.548 9.861-7.051 11.497-7.273-.52-3.424-.291-9.408 1.553-11.787-3.386-.472-4.238-1.366-4.943-5.124-1.685-6.085-1.909-12.692-6.083-17.819-7.506.096-14.987-1.807-22.489-2.039l-.374-.861a39.558 39.558 0 0 1-13.061-2.375c-.934.441-2.129.82-2.654-.593l-2.505-7.827c-29.165-92.729-61.492-185.681-93.013-277.729-1.84-4.476-4.053-9.232-6.93-13.22-.975 56.321-12.784 112.582-13.798 168.876-1.371 38.726-1.018 77.046-4.664 115.91-.938 8.225-1.936 7.951-3.165 7.447-.492.076-1.651.324-2.154.429.822 8.174 1.768 21.441 5.276 29.801 7.755 1.196 6.366 7.141 4.646 12.068 1.85 1.579 1.587 5.259 1.038 7.296 7.296.008 8.887 5.937 8.385 9.679-.694 6.257-.305 15.995-4.485 21.339-2.461 6.815-6.467 13.247-8.032 20.589-.983 5.402-.604 13.271-1.552 18.629 2.386 1.101 1.375 2.828 1.778 6.168 2.065 15.29-5.205 12.691-18.061 13.744-7.705 1.7-66.364 5.083-63.829-5.09-.432-4.143 1.496-5.962 2.322-10.04.371-1.083 7.679-13.611 12.038-18.354 14.62-13.724 13.981-32.149 13.518-53.372.86-5.753 5.289-11.261 10.94-10.642-1.622-6.144 1.385-11.485 7.67-13.262-.628-6.955-1.289-16.406-3.587-22.424l2.165-2.202-2.898.346-.962-2.42-1.049 2.652c-4.974 0-10.587-1.102-15.352-1.62-.761.043-.422-.991-.547-1.389-4.499-.931-4.992-3.32-4.197-9.012-1.048-92.424-.593-183.979.84-276.574-7.033.313-13.891-2.25-20.802-3.957-2.455 1.539-3.151-3.943-2.864-5.127.39-6.126 1.149-12.101 1.831-17.662Z" clip-rule="evenodd"/>
  <path fill="#9FD8E5" fill-rule="evenodd" d="M391.06 428.1c-1.445 5.095-3.062 12.644-4.756 17.672a389.346 389.346 0 0 0-6.825 42.269c-.501 4.743-.892 9.485-1.467 14.205.584 3.069-.616 11.793.087 14.843 12.176 2.257 29.188 11.881 38.948 19.561 3.14-25.775-11.267-54.641-17.432-78.987a317.34 317.34 0 0 1-1.207-4.735c-1.762-4.951-5.214-17.398-6.436-22.376l-.165-.679-.229.248-.518-2.021ZM233.58 225.615a31.167 31.167 0 0 1-4.257 2.212c-11.38 6.537-31.358 6.736-38.235 19.535-17.768 36.913-18.321 99.376-28.317 143.341-.552 2.425-5.7-.169-6.26 2.185-1.389 5.841.059 11.456-1.565 16.749 6.338 1.631 22.785 2.701 29.107 4.369-1.565 5.407-18.449 49.175-25.149 111.564 2.427-.544 4.795-1.332 7.111-2.236l.889-.385c13.035-5.666 33.522-14.478 47.667-16.75 8.958-54.48 17.145-112.361 18.166-168l.043-2.568c.303-16.459 2.322-32.769 4.859-49.011l.14-1.142c1.375-11.311 2.544-23.093-.121-34.262-.862.263 1.608-5.748 2.731-13.424.696-4.754-1.232-10.25 1.565-14.979 3.884-6.567 9.17 1.83 8.763 0-.204-.92 5.131-12.097 3.13-10.922-2.183 1.282-10.328 1.248-13.458 4.369-6.839 6.819-8.086 12.005-6.916 9.574l.107-.219Zm116.336-5.244c-2.847-.555-11.104-3.334-14.069-3.175 1.738 3.708-2.504-12.794-15.962-9.05-.589.164-14.454 2.275-14.397 4.993.038 1.823 15.291 3.977 16.588 6.242 1.524 2.66-1.071 10.664 0 13.418 3.216 8.274 1.696 10.562.727 9.678-.768 1.186-.875 2.871-1.03 4.443l-.175 1.704c-2.827 26.899-8.691 53.389-10.828 80.369-3.089 30.186 3.591 59.987 5.742 89.97 1.755 27.014-.62 55.958.339 82.968.131 1.499.598 3.529 1.544 4.85l.093.126.009.003.375.074c6.862 1.384 17.102 5.696 24.163 5.657 6.588-12.786 13.729-45.488 11.591-67.639-1.59-16.467-3.756-37.759-3.756-41.816 0-7.338 42.565 4.057 55.084 2.496 4.119-.513 4.314-5.202 4.769-12.836.13-2.178-4.708-3.159-4.769-5.575-.441-17.5-.396-40.89-.606-42.265-1.776-13.699-6.333-26.999-6.948-40.837-.204-13.967 5.62-27.614 3.267-41.62-3.421-20.399-21.645-34.556-40.533-39.741-3.69-1.125-7.445-1.705-11.218-2.437Z" clip-rule="evenodd"/>
  <path fill="#8FA7DF" fill-rule="evenodd" d="m324.062 239.44-.055.424-.053.425c-1.508 12.17-10.996 83.57-12.104 95.781-2.21 24.344 3.466 51.713 3.654 76.166.048 6.323-1.488 51.914-.152 54.729.399.842 5.882 10.378-4.543 7.683-23.549-6.087-76.931-28.718-88.598-29.004 1.75-.278 2.741-1.681 2.973-3.469.219-1.708 4.38-40.599 6.102-81.091 1.896-44.582 8.879-122.312 9.103-123.292 4.367 2.3 10.328 32.143 27.542 32.143 17.214 0 39.748-20.596 52.58-41.192 2.641-4.239 2.575 11.156 3.551 10.697Z" clip-rule="evenodd"/>
  <path fill="#fff" fill-rule="evenodd" d="m203.471 854.108-.268.144-.066.042c-1.384.872-2.32 2.394-3.629 5.259l-.732 1.64-1.253.339c-4.826 1.305-8.422 4.454-11.674 11.805l-.098.224-.099.229c-1.093 2.54-1.507 5.349-1.407 8.66l.008.249.015.353c.087 1.978.283 3.608.817 7.063l.389 2.482.111.723c.671 4.395.906 6.859.84 9.635-.051 2.179-.331 4.179-.873 6.065-2.204 7.673-6.523 15.674-12.087 23.358-1.924 2.658-10.675 17.475-10.751 17.784l-.153.625-.145.605-.07.296-.18.775-.111.491c-.38 1.695-.66 3.141-.833 4.353l-.023.165c-.311 2.278-.299 3.627.471 4.717l.051.07.126.171.156.144.095.086.097.083.291.239.351.137c1.236.482 5.532 1.697 10.045 2.65 7.321 1.547 14.931 2.453 22.453 2.407 2.204-.014 4.498-.096 6.875-.243 6.42-.396 13.208-1.239 20.393-2.432l1.25-.211 1.318-.231c4.672-.833 11.384-2.144 12.593-2.364l.114-.02.048-.001c2.769-.087 4.548-1.942 5.22-4.75l.028-.125.027-.122c.447-2.109.337-4.795-.202-7.807-.451-2.517-1.527-16.717-1.527-16.717l4.032-13.403s8.516-38.579 7.173-43.751l-.031-.113c-.18-.64-7.784-5.209-8.188-6.166-.41-.971.571-12.165.159-13.311l-.04-.106-.038-.094-.017-.039c-.423-.947-4.437-4.948-15.4-5.486-4.157-.204-12.271-.798-17.527 0-4.896.744-7.05 2.854-8.124 3.424Zm212.417 7.165-.54.125-.113-.063c-.952-.525-1.773-.804-2.81-.753-1.386.067-2.618.791-3.627 2.082-.595.76-.327 6.995-.321 7.293l.002.078v.183l-.027.018c-.409.275-1.285.447-3.019.545l-.395.021-.824.037c-1.424.068-2.156.137-3.001.315l-.087.019c-1.549.338-2.78.993-3.636 2.154-1.368 1.856-1.63 4.456-1.234 7.779.137 1.157 9.285 35.352 9.931 38.285.978 4.439-.895 27.961-1.099 30.147-.245 2.628-.289 4.997-.08 6.898.299 2.727 1.073 4.634 2.882 5.489l.097.045.211.094.57.127.358.078c3.704.79 7.247 1.198 13.155 1.631l4.51.321.988.074c1.368.104 2.408.194 3.456.299l.925.097.036.002c15.576 1.204 34.543 1.324 48.224.14l.803-.072.599-.019c2.184-.084 3.542-1.553 4.256-3.753l.037-.115.035-.116c.4-1.342.595-2.929.694-5.07l.034-.872.017-.565.055-2.224.015-.487c.011-.297.022-.543.036-.771l.018-.261.062-.4c.422-2.741-24.808-35.979-26.187-39.68-1.679-4.51-4.4-39.324-5.574-40.712l-.039-.045-3.569-4.023-.521 5.305-.003-.007a2.726 2.726 0 0 1-.187-.521l-.016-.08-.012-.076-.005-.036-.006-.037c-.631-3.782-2.631-6.642-5.759-8.512-2.627-1.571-5.962-2.403-9.909-2.634-5.741-.336-12.114.544-19.406 2.223Z" clip-rule="evenodd"/>
  <path fill="#000" fill-rule="evenodd" d="M303.465 199.409c-1.046.824-.936 3.11-1.039 4.389l-.008.084c-.328 3.865.117 7.747 1.06 11.5l.146.572c.45 1.793.898 3.943 2.308 5.173 1.601 1.397 4.146.492 4.204-1.76.029-1.047-.321-2.056-.764-3.038a754.94 754.94 0 0 0 9.322 3.533c1.99 16.444-21.003 36.576-34.315 43.624-19.386 10.72-35.697-5.7-38.179-25.004-.417-2.564-.696-5.2-.751-7.799l-.003-.25c-.011-2.149.346-5.023-1.056-6.81 1.032-.025 1.948.12 2.959.278l-.049.084c-.572 1.023-1.381 3.567.431 3.761 3.913-.412 5.733-7.265 6.687-10.552l.037-.142c.616-2.463 1.4-11.404-.455-12.476-.57 2.205-.345 4.601-1.039 6.813-1.579.636-4.585.807-5.282.924-8.131.094-12.741 5.926-16.037 12.752-9.662 7.922-23.55 6.561-33.983 13.085-31.925 23.12-21.499 113.124-37.401 151.414-3.183-1.316-6.429 1.319-6.854 4.535-.439 2.473-.308 5.121-.343 7.627l-.015.313c-.26 5.125-1.147 10.885 5.781 10.996-.011 2.861-.55 5.631-1.242 8.393-3.836 16.717-5.51 33.935-5.888 51.073l-.019 1.259c-.125 9.007-.235 36.873 4.948 40.17l-.241 1.963c-.601 4.909-1.166 9.83-1.482 14.763-.497 2.561 1.195 8.697 4.649 7.073 6.335 1.565 12.582 3.874 19.163 3.886-1.594 53.004-.801 106.061-1.037 159.086.508 39.087-1.607 78.496.242 117.433l-.067.549c-.523 4.372-.679 8.174 4.379 9.671.073 1.07.897 1.641 1.874 1.767 2.773.372 5.545.726 8.321 1.066 2.585.192 5.352.835 7.929.528-.249.252.427.291.5.107 2.35 5.89 3.032 12.31 3.613 18.593-5.702 2.172-8.814 7.056-7.884 13.18-5.754.233-9.956 6.62-10.762 12.004-.517 3.714-.103 7.403.064 11.124.796 12.717-1.075 26.418-9.293 36.561-5.334 6.368-12.278 12.127-14.606 20.418-.632.295-1.152.866-1.38 1.757l-1.477 5.789-.734 2.895c-.538 2.11-1.015 4.269-.727 6.454l.03.211c1.439 13.838 58.225 7.168 69.308 6.174 4.455-.697 9.344-.317 13.355-2.674 4.921-3.244 5.536-9.825 4.692-15.215l-.071-.505c-.342-2.411-.843-4.938-3.132-6.286.771-4.995.473-10.105 1.389-15.08 1.385-7.039 5.573-13.147 7.711-19.906 3.119-3.464 3.225-8.865 3.877-13.296.494-4.298.898-8.626 1.065-12.95.452-5.716-2.031-10.43-8.048-11.176.279-1.083-.485-2.02-1.245-2.714 1.794-6.364 2.289-15.102-5.493-17.273-2.948-7.302-3.805-15.214-4.589-23.002.093-.019.186-.036.279-.052 3.566 1.483 4.534-4.865 4.868-8.218l.074-.8c3.669-38.756 3.332-77.74 4.71-116.615l.135-2.811c1.208-25.614 1.927-51.454 6.361-76.726 4.463-28.167 5.629-56.794 7.154-85.257 1.797 2.788 2.763 5.991 4.217 8.963 18.867 55.374 38.225 110.582 56.876 166.032 13.519 40.145 26.435 80.505 39.389 120.839.661 2.065 2.743 2.493 4.267 1.831a40.861 40.861 0 0 0 12.05 2.24c.246.568.753.982 1.495.901 2.191-.239 4.713.444 6.905.701 5.015.495 9.883 1.263 14.944 1.335 3.135 3.96 3.332 9.329 4.777 14.042.832 2.402.702 7.79 3.575 8.467-1.03 1.585-1.165 3.488-.998 5.449-.893.203-1.8.586-2.641.979-.818.414-1.9.378-2.464 1.212-16.05 2.906-4.321 33.353-1.531 43.423 2.738 8.233 3.595 16.831 2.346 25.426-1.91 2.636-1.271 6.555-1.563 9.679-.154 2.788-.436 5.618-.411 8.409.312 11.593 14.639 9.708 22.722 11.212 5.047.587 10.118.995 15.188 1.313 12.858.798 25.789.859 38.621-.383 8.285-.262 10.066-5.662 10.053-13.047l.013-.306c.187-5.012-.622-11.065-5.388-13.671-.237-2.648-1.582-5.323-2.955-7.637-6.385-10.724-15.971-20.122-17.857-32.992-1.849-8.425.246-26.971-8.327-31.364-.199-3.794-2.531-7.661-5.42-9.712-.557-3.16-2.657-6.065-3.956-8.969-2.65-5.545-5.101-11.177-7.737-16.726 1.38-.584 2.847-1.656 3.039-3.18 1.325.016 2.634-.84 2.474-2.451-.468-4.677-1.492-9.276-2.459-13.872l-.121-.575c-17.21-83.112-52.75-160.831-73.543-242.878 2.798.506 5.414-2.69 6.96-4.771 4.997-6.72 7.947-14.852 9.245-23.102l2.348-.291c7.832-.961 15.703-1.802 23.6-1.576l1.903.064c2.115.064 4.233.047 6.243-.713 1.402.13 2.862-.622 3.209-2.194 5.849-29.123-8.529-56.761-18.827-83.076-2.425-6.47-4.152-13.034-5.798-19.734-.054-.218-.395-.172-.385.052.321 7.448 2.169 14.959 4.047 22.139 6.164 24.345 19.007 48.219 15.867 73.993-9.76-7.68-21.352-13.013-33.529-15.27-.703-3.051-1.479-6.078-2.063-9.148.574-4.719.966-9.462 1.466-14.204a389.511 389.511 0 0 1 6.825-42.269c4.724-14.022 8.848-28.234 10.323-43.018l.269.053c3.275.664 6.883 2.106 9.922.022 1.928-1.336 2.763-3.55 3.542-5.676 2.226-5.155 2.638-11.932-3.66-14.088 2.347-16.391.822-33.502-2.016-49.74-2.272-14.233-7.257-28.256-5.391-42.827 2.072-14.001 5.934-28.666.35-42.372-9.177-22.874-32.416-33.726-55.272-37.219l-.37-.109c-2.827-.836-5.402-1.718-8.348-1.084-6.949-12.882-18.218-7.642-29.223-4.771-.743-2.185-1.362-4.419-1.944-6.652-.363-1.138-.243-3.762-1.508-4.126ZM239.77 948.551l.028.562c.291 6.032-.037 11.199-7.521 11.16-5.151.549-10.302 1.084-15.46 1.55l-1.935.171c-15.311 1.364-30.805 2.031-46.087-.017l-.637-.087c-1.277-.181-3.642-.146-4.653-1.089-1.218-1.639.193-4.763.488-6.665 23.844-.277 47.72-1.155 71.58-.852 2.509.013 3.642-2.13 3.41-4.081.283-.191.549-.412.787-.652Zm242.089-3.024c1.172 4.119.883 8.012.221 12.136-.331 4.319-2.388 4.596-6.109 4.697-14.529 1.339-29.162 1.059-43.695-.064-7.789-.84-15.793-.808-23.437-2.529-3.647-1.615-1.541-6.692-1.666-9.805 17.168 11.052 43.13 9.649 61.851 3.254l.3-.128c4.428-1.858 10.089-3.029 12.535-7.561Zm-28.437-74.369c1.974 2.224 2.015 8.559 2.098 10.715l.01.241c.222 4.528.187 9.066.383 13.594-.145 19.07 10.877 28.581 19.063 43.913 2.239 3.721-1.018 4.249-3.668 5.456-17.154 7.976-37.446 9.195-55.367 3.088-9.009-2.615-7.042-8.672-6.277-16.08.753-15.14-7.22-28.779-9.579-43.424l-.063-.379c-.704-4.299-1.919-15.318 4.938-12.962 1.491.917 2.894-.234 3.07-1.64.178.029.36.045.536.048.793 4.895 1.614 9.783 2.403 14.678-.663.421-1.286.898-1.838 1.442-.671.665-.202 2.059.809 1.974a15.36 15.36 0 0 0 1.543-.22c.405 4.255 7.168 1.867 5.215-1.543 9.724-3.357 20.438-3.09 30.313-.516l.041.018c.765.303 6.262 1.405 4.493 2.261-.737.089.941 1.052 1.236-.438.095-1.87-4.178-2.789-5.487-3.565 3.301-4.722 5.558-10.841 6.128-16.661Zm-249.132-14.95c9.161-4.956 20.419-3.117 30.355-2.24l.417.048c2.529.271 6.053.439 7.214 3.041 1.681 4.169-1.105 13.496-1.98 18.133l-.298 1.216c-.726 2.969-1.414 5.913-1.663 8.982-.006.097.087.165.174.165 3.48-3.715 5.044-8.712 6.67-13.478.694.396 1.371.823 2.009 1.293 2.495 8.565 3.33 17.684 1.355 26.422l-.071.308c-2.44 10.797-10.037 19.627-10.759 30.911-.483 4.561-.375 9.236-1.688 13.666a2.448 2.448 0 0 0-1.691 1.406l-4.283.006c-20.7.035-41.405.222-62.092 1.074.668-5.812 5.802-10.969 9.418-14.953 11.096-11.355 15.896-27.665 14.068-43.384-.962-7.864-5.354-20.22 5.39-23.125.785 6.409 1.846 12.797 2.433 19.232-2.028.977-1.903 3.554.574 3.504 1.112 3.738 4.84 2.227 4.438-1.3 13.637-5.032 21.46-6.719 34.746.862.371-.054-1.022-1.544-1.198-1.809-4.198-4.523-10.646-6.649-16.695-6.726-5.997-.001-11.636 2.258-17.293 4.004-.85-6.072-1.422-12.181-2.097-18.274l-.146-1.305c-.353-3.199-.224-5.841 2.693-7.679Zm219.149 78.408c-1.996-.444-3.831-1.118-5.859-.661-7.137 5.356 22.023 6.866 24.506 6.486 6.32-.186 12.643-.987 18.726-2.772l.424-.126c.599-.166 6.662-1.853 5.512-2.606-8.227.728-16.281 2.237-24.662 1.845-4.181-.088-8.379-.383-12.515-1.012a88.979 88.979 0 0 1-6.132-1.154Zm-192.786-6.635c1.307-1.957-5.063.641-5.891.664-5.275 1.3-10.642 2.285-16.06 2.694a88 88 0 0 1-10.942.156c-2.695-.094-5.361-.491-8.038-.765l-.096-.005c-1.592-.055-4.779.93-2.815 2.822 3.056 2.367 7.576 1.646 11.238 1.993 11.12-.036 22.895-1.825 32.604-7.559Zm209.058-14.22c-3.206-.581-20.851-.77-19.092 4.641.426 1.028 1.402 1.368 2.429 1.207 10.92-2.655 22.7-4.043 33.586-.383.177.061.299-.227.126-.305-5.353-2.68-11.08-4.554-17.049-5.16Zm-229.039-5.29c-2.881-.219-5.779-.142-8.661.074l-1.18.093c-1.216.097-2.459.223-3.62.576l-.231.073c-1.583.51-5.15 3.228-2.442 4.535 2.907.94 5.365-.178 8.17-.898 7.817-1.851 16.035-1.224 23.78.668l-1.091.35c-.067-.049-.154.065-.089.12.782.684 1.857.441 2.412-.408.097-.146.036-.38-.118-.461-5.25-2.752-11.038-4.275-16.93-4.722Zm243.482-.691c-8.829-3.905-19.058-4.336-28.526-3.204l-.675.082c-2.954.346-6.806.506-8.496 3.255-.584.953.019 2.045.962 2.389 2.779 1.014 6.046-1.018 8.715-1.773 7.895-2.16 16.325-2.387 24.352-.895-.056.297 1.274.167 1.563.272.363-.02 2.771.776 2.105-.126Zm-222.641-6.097c-7.702-3.743-16.607-4.636-24.923-2.704l-.345.099c-3.685 1.034-9.617 2.253-10.937 6.151-.285.878.334 2.065 1.261 2.243 3.142.6 5.994-1.692 8.837-2.794 8.365-3.141 17.833-3.893 26.483-1.582.057.34.115.678.176 1.018-.147-.097-.301.12-.183.24 1.38.966 2.817-1.472-.369-2.671Zm202.794-6.58c-6.232-.415-12.516.377-18.532 2.02l-1.132.312c-1.644.46-3.774 1.186-4.013 2.961-.093.707.083 1.193.657 1.631 2.095 1.565 6.65-1.715 9.254-2.101 9.455-2.838 19.603-2.798 29.179-.626l.327.075-.231 1.643c-.227.786 1.877-1.066 1.078-1.909-5.056-2.573-10.955-3.543-16.587-4.006Zm-208.669-2.937c-5.002-.902-10.161-1.074-15.219-.62l-.597.056c-3.02.266-12.805.655-10.49 5.757.388.852 1.514.962 2.243.593 2.445-1.238 5.118-1.686 7.817-2.094 9.528-1.325 19.263-.782 28.565 1.783-.202.317.215.693.609.768.982.181.982-.989.562-1.611-.501-.736-1.499-1.005-2.269-1.329-3.582-1.56-7.381-2.614-11.221-3.303Zm189.439-28.386.57-.135c9.545-2.245 30.707-6.269 32.898 6.871.778 5.787-1.788 11.432-1.598 17.164-9.898-4.023-20.843-3.982-31.126-1.323-.911-5.948-1.78-11.903-2.711-17.848l-.15-.71c-.415-2.006-.555-3.574 2.117-4.019Zm21.259 2.392c-2.08-1.782-5.549-1.757-7.589.188-1.866.392-3.182 2.371-3.212 4.068-2.837 4.983.584 11.868 6 13.112 12.23 2.576 17.697-14.212 4.801-17.368Zm-211.891-7.951c-10.233-1.827-13.951 11.147-5.552 16.409 11.864 5.947 19.769-12.752 5.552-16.409Zm206.827-28.817c-.151.992.338 1.698.921 2.366 2.098 8.596 5.255 16.594 8.368 24.833-10.128-1.677-19.697-.213-28.658 2.535-.107-2.514-1.253-5.12-2.05-7.491a101.783 101.783 0 0 0-5.588-13.121l-.272-.529c-.776-1.507-1.524-3.082-2.441-4.525 9.912-1.352 19.825-2.571 29.72-4.068Zm-199.634-1.831.264 1.196c1.138 5.188 2.218 10.425 3.911 15.465l.023.104c.26 1.272.842 7.162 1.209 3.005.283.625.584 1.244.905 1.854l-2.454-.293c-9.154-1.073-18.705-1.93-27.683.367.932-7.213-.44-14.106-2.442-20.927 8.775-.201 17.473-.137 26.267-.771Zm166.182 8.966c.321.301.635.609.934.93a59.335 59.335 0 0 0-1.184-.292c.015-.237.183-.415.25-.638Zm-197.753-6.616.286.671a4.115 4.115 0 0 0-.488-.247c.08-.129.147-.269.202-.424Zm236.628-1.472c.103.385.182.808.369 1.157-.148.026-.299.056-.45.088a16.55 16.55 0 0 0-.583-1.083c.221-.052.442-.103.664-.162Zm-76.328-425.403c.898.435 1.835.545 3.073.597 10.064.417 20.096 1.582 29.978 3.569-.546 7.99-2.978 15.731-5.293 23.348l-.48 1.67c-7.82 27.294-14.647 55.815-13.272 84.362-.077.03-.151.069-.222.104.126.35.215.708.341 1.055l.08.206.47 1.166c.259.647.511 1.296.73 1.962.384.139.856.24 1.306.305 2.283 15.114.113 32.06-10.175 43.88 3.667-7.379 4.947-15.761 4.785-23.959l-.029-1.253c-.042-1.548-.135-3.091-.607-4.561-.019-.078-.122-.065-.148 0-2.178 6.723-2.32 14.027-4.46 20.8l-.164.52c-1.692 5.307-4.518 12.141-9.427 14.884-.904.269-2.294-.049-2.764.992l-.031.074-.029-.009c2.192-7.175 3.602-14.593 4.086-22.083l.031-.511c.154-2.612.494-5.413-.157-7.964-1.242 2.333-.933 6.143-1.511 8.966l-.023.161c-.457 3.05-4.851 26.368-7.737 23.252-.596-.859-.441-2.52-.459-3.543l-.002-.1a67.582 67.582 0 0 1 .022-4.434c.311-8.708 1.665-17.644-.988-26.127-.443-1.429-2.85-1.698-3.142 0-1.168 6.794-2.284 13.595-3.401 20.396-.814 4.153-.78 8.839-3.254 12.421-.029-7.821.405-15.62.78-23.433l.101-.325c.296-.986.589-2.266-.091-3.104-.273-1.783-2.879-1.579-3.1.288-.049.389-.084.785-.122 1.177-.864 1.083-1.666 2.188-2.686 3.118-6.813-13.906 15.479-37.923 18.556-53.627 9.064-30.582 3.853-62.646 1.217-93.789 2.726-.322 5.475-.409 8.218-.451Zm-129.72-176.009c-4.765 9.562-8.263 19.682-10.685 30.097-.747 3.216 3.567 5.189 5.31 2.372l.052-.087c2.143-3.574 5.336-6.723 9.379-7.954 2.754 11.545 1.412 23.746-.019 35.403-2.537 16.242-4.557 32.553-4.859 49.011l-.015.882c-.884 56.206-9.146 112.16-18.195 167.19-14.466 2.323-27.709 8.877-41.044 14.638-2.316.905-4.684 1.692-7.111 2.237 6.7-62.39 32.18-120.901 40.053-183.063 2.081-16.167 2.179-32.584-.696-48.658-.049-.308-.485-.204-.504.068-.316 6.603-1.445 13.119-2.115 19.686-.455-3.751-1.508-7.55-2.358-11.145-1.04-3.516-1.424-9.162-4.47-11.455l-.192-.664c-.081-.286-.504-.166-.437.119.032.137.064.269.093.406-1.956.52-.129 2.84.356 3.951 3.141 8.426 4.075 17.546 6.219 26.23-3.102 27.111-8.689 53.877-15.569 80.227-6.322-1.668-12.665-3.274-19.003-4.905 14.137-46.083 5.871-97.513 27.051-141.516 7.935-14.767 27.478-12.761 38.759-23.07Zm107.405-8.425c2.965-.158 6.062 1.453 8.908 2.007 3.774.733 7.528 1.313 11.218 2.438 18.889 5.184 37.112 19.342 40.534 39.74 2.352 14.007-3.472 27.653-3.267 41.621.614 13.838 5.172 27.138 6.948 40.836 2.136 14.008 2.871 28.67 1.039 42.745-16.944-4.812-34.64-5.114-52.015-2.628 1.449-21.335-.452-42.775-1.505-64.094-.757-13.692-2.053-27.446-1.595-41.164.01-.305-.484-.379-.531-.074-5.211 28.017-2.155 56.459-1.628 84.716.334 7.139-.549 14.346-.193 21.445-7.899 1.703-7.613 10.926-5.198 17.005.428 1.463 1.882 1.209 3.058 1.031 1.275 1.341 4.316-.409 6.049-.408 1.357 35.073 9.598 72.535-7.291 105.316-7.061.039-13.858-2.4-20.72-3.783l-.374-.075-.01-.003c-1.009-1.315-1.502-3.429-1.637-4.976-.959-27.01 2.043-54.082.287-81.095-2.151-29.984-8.831-59.784-5.742-89.971 2.137-26.979 8.001-53.47 10.828-80.368l.143-1.392c.176-1.658.243-3.491 1.062-4.755 4.769 4.351 8.771 9.524 11.636 15.345 1.586 2.811 5.835 1.56 5.9-1.614.611-5.668.702-11.358.083-17.027l-.057-.5c-.767-7.096-2.908-13.87-5.93-20.318ZM160.769 413.269c6.141.325 12.291 1.007 18.444.927l-.62 2.327c-7.448 27.924-15.379 55.798-20.055 84.37l-.169-2.68c-.17-2.679-.331-5.36-.437-8.046-1.327-25.678.699-51.322 2.837-76.898Zm159.885-178.214a61.73 61.73 0 0 1-.173 3.472c-2.839 4.264-2.587 9.931-3.222 14.836-3.562 26.489-8.808 52.869-10.576 79.634-1.644 21.41 1.041 42.746 3.786 63.941 3.385 24.274 3.03 48.8 2.244 73.238-13.007-11.789-31.494-13.858-47.905-17.52l-.78-.159c-12.619-2.588-25.212-6.339-35.932-13.708 7.71-55.228 5.895-111.167 13.779-166.346.243-4.346.292-8.715-.068-13.057.346-4.701.45-9.427.459-14.139 3.454 13.922 15.03 27.373 30.195 26.933 16.137-.948 29.833-14.182 40.354-25.527 2.853-3.384 5.689-7.335 7.839-11.598Zm-141.916 178.24.728-.036-.045.159c-.149-.03-.302-.058-.455-.084l-.228-.039Zm-20.017-18.859c.116-.036.312-.036.53-.026.314.726.949 1.326 1.687 1.523l6.157 1.667a1932.332 1932.332 0 0 0 15.407 4.113 1614.48 1614.48 0 0 1-2.625 9.993c-7.011-2.267-14.774-1.753-21.923-3.212.088-3.846.298-7.712.363-11.565.016-.629-.112-1.641.209-2.205.201-.359 0-.227.195-.288Zm235.521 12.946.193.042c-.064.176-.123.351-.177.529a15.608 15.608 0 0 0-.016-.571Zm-45.646-18.509c13.21-1.93 26.644-3.071 39.967-1.757 6.026.819 12.143 1.693 18.049 2.811 2.054 3.167-.218 10.872-2.775 13.309-.767.292-2.086-.275-2.821-.44a202.975 202.975 0 0 0-16.677-3.044.79.79 0 0 1-.712.318l-1.285-.12c-7.717-.706-15.503-1.224-23.237-.782l-.057.046c-5.218.382-10.418 1.208-15.614 1.805-2.052-5.387-1.698-11.568 5.162-12.146Zm-96.113-175.698a36.092 36.092 0 0 1-1.887 5.063c-.796-.221-1.895-.043-2.48.461l-.249-.045c-.685-.131-1.508-.331-1.722-.354-9.438-1.312-8.719 11.372-8.753 17.747a807.707 807.707 0 0 1-.218 9.592c-2.701-.924-6.313.737-8.674 2.207 1.849-6.181 4.021-12.262 6.444-18.236l.458-1.164c1.909-4.82 4.022-9.701 8.077-13.057 3.083-.81 6.07-.957 9.004-2.214Zm68.431-3.182c8.773-3.143 12.248 4 14.681 11.124 2.868 7.89 3.651 16.577 3.173 25.066l-.295-.392c-3.228-4.323-7.882-11.458-13.766-10.311.058-3.28-.06-6.883-.687-10.289.366-2.197.459-4.418.205-6.638-.134-2.784-3.153-2.362-5.14-2.755-1.72-1.151-3.802-1.615-5.894-.804a766.841 766.841 0 0 0-4.737-.613c-.242-.535-.438-1.072-.641-1.621 4.369-.907 8.737-1.842 13.101-2.767Z" clip-rule="evenodd"/>
  <path fill="#FFDBB4" fill-rule="evenodd" d="M216.134 101.06c.105-3.731 5.537-5.28 7.107-1.585.097.099.203.194.302.28-.491-.422.536.275.703.361.143.074.29.14.435.209 1.01-9.454 4.437-19.645 13.291-24.39 12.351-5.985 26.621-7.153 40.171-6.558 6.863.407 14.789 1.503 20.887-1.966 1.9-1.081 3.424-2.783 5.571-3.451 6.778-1.832 9.852 5.122 8.929 10.842 2.891.022 5.759 1.622 7.007 4.255.733 1.558.72 3.24 1.352 4.804 1.938 3.966 4.712 6.817 3.144 11.626 2.758 3.136 1.185 7.884-1.04 10.886-1.099 1.562-2.408 3.061-3.213 4.809-.782 1.673.398 3.658 1.054 5.244 4.854 11.5 4.577 24.164 1.965 36.158 5.241 2.272 6.813 9.375 3.396 13.847-1.176 1.581-2.61 2.167-4.237 3.14-2.059 1.132-.377 5.667-1.037 7.857-.895 5.347-5.768 8.639-10.585 5.167-3.057-.462-5.523 8.425-7.743 10.656a35.62 35.62 0 0 1-4.537 4.901c-4.919 12.646-30.125 19.059-42.587 18.327-13.05-1.365-21.854-12.439-29.184-22.267-3.765-5.237-6.213-11.098-7.103-17.491-.895-6.424-.504-12.861.101-19.293 1.27-13.667 3.274-33.357 4.568-47.172-4.676-.385-8.859-4.363-8.717-9.196Z" clip-rule="evenodd"/>
  <path fill="#694D3D" fill-rule="evenodd" d="M309.36 65.779c-.908-.895-2.396.023-3.381.743l-.217.161-.624.474c-1.415 1.09-2.738 2.273-4.266 3.216-1.667 1.029-3.478 1.847-5.317 2.518-3.567 1.301-7.404 1.885-11.185 2.07-15.471.754-33.478-7.368-47.519 2.33-3.329 2.3-5.626 5.661-6.811 9.506-1.337 4.335-.879 8.825-1.972 13.176-.475 1.888-3.745 2.15-4.111.075l-.024-.16-.286-.18-.113-.067c-.116-.067-.169-.086-.068.008l.022.02-.045-.039a5.772 5.772 0 0 1-.102-.093l-.099-.098c-.697-1.641-2.157-2.248-3.573-2.088l.04.097.422 1.086.134.34c.496 1.243 1.042 2.421 1.985 3.486 1.334 1.508 2.994 2.736 4.864 3.493.384.155.326.676-.098.718-4.177.415-8.882-2.12-10.846-5.963a3.742 3.742 0 0 0-.035.416c-.014.469.013.929.077 1.378.233.087.458.215.667.388 1.356 1.127 2.022 2.967 3.298 4.224 1.337 1.317 2.977 2.538 4.759 3.15a.261.261 0 0 1 .072.039c.134-.509.276-1.016.438-1.514.064-.196.325-.147.345.046.036.346 4.936-3.137 8.71-2.574 7.095 1.058 8.733 5.197 18.926 4.586 4.975-.299 15.482-4.955 24.673-5.305 8.339-.318 23.24 4.437 27.172 7.177 2.044 1.424-3.728 6.128-2.682 8.267 2.965 6.066 1.764 14.09 4.864 18.887l.12.18c1.986 2.916.746 10.673 1.52 13.065 1.396 4.318 3.708 2.426 3.359 3.005-.11.183-.406.064-.348-.146.953-3.464 3.562-6.079 6.879-7.033-.144-.821.117-1.852.628-2.526l.21-.974.192-.912c.445-2.128.842-4.255 1.057-6.441.32-3.278.332-6.581.121-9.868-.277-4.318-1.167-8.479-2.146-12.637l-.105-.445-.77-3.233a31.646 31.646 0 0 1-5.816 1.063 39.263 39.263 0 0 1-6.64.005c-1.944 5.278-1.87 11.289.533 16.444 2.812 6.031 9.703 11.791 7.812 19.104-.825 3.188-5.651 2.538-5.766-.681l-.002-.099c-.018-3.18-1.1-5.8-2.529-8.533l-.197-.374-.327-.609c-1.711-3.198-3.16-6.354-3.642-9.992-.7-5.285.397-10.742 3.016-15.362-9.33-.972-18.361-4.663-27.471-6.646l-.418-.089-.42-.087c-6.73-1.356-14.148-1.516-20.25 2.025-.116.067-.208-.102-.103-.177 8.856-6.382 20.325-5.476 30.48-3.227l.586.131.574.131c9.393 2.168 19.233 5.352 28.835 2.547 2.495-.729 4.917-1.926 6.871-3.661l.164-.146c.826-.745 1.769-1.709 1.928-2.84.056-.398.038-.671-.197-.986-.245-.328-.673-.327-.426-.445-2.876 1.385-5.342-2.595-2.641-4.32l.191-.117c3.456-2.188 1.73-7.166-2.235-7.143l-.203.003c-2.245.007-2.933-2.643-1.725-4.194l.115-.145c2.235-2.876-1.526-6.345-4.453-4.719l-.16.092c-1.39.768-2.85-.087-3.376-1.442-1.128-2.91-.551-5.913-.484-8.923l.004-.196.005-.328v-.259l-.002-.171c-.015-.634-.097-1.323-.442-1.663Zm-84.458 44.838-.028.006-.061.003-.054.586.07-.298.073-.297Zm95.944.389.068-.137-.219.088.105.147.046-.098Zm-61.262-16.739c.232-.066.4.296.169.401-5.745 2.626-10.103 6.816-13.504 12.067-.322.497-.808.643-1.368.556-.275-.042-.429-.176-.576-.358l-.036-.047-.112-.151c-.243-.333-.21-.886 0-1.222 3.452-5.509 9.23-9.478 15.427-11.246Zm-13.676-1.72c.253.001.388.388.195.552-1.65 1.403-3.261 2.958-4.433 4.793a13.365 13.365 0 0 0-1.388 2.842c-.375 1.091-.497 2.223-1.032 3.255-.898 1.73-3.303.764-3.424-.927-.183-2.549 1.949-5.417 3.638-7.154 1.713-1.764 3.816-2.98 6.241-3.335l.17-.023.033-.002Zm63.326-1.996c.704-.177 1.28.72.726 1.247-3.041 2.895-7.152 4.238-11.244 4.824l-.208.03c-3.832.525-9.405.822-12.294-2.292-.612-.66-.42-1.923.561-2.127 1.345-.28 2.726-.176 4.09-.008l.389.05.967.127c1.911.25 3.829.402 5.758.345 3.862-.113 7.54-1.256 11.255-2.196Zm-66.927-9.211c.405-.157.832.4.578.752-1.165 1.615-2.561 3.027-3.755 4.617-1.197 1.594-2.197 3.27-3.614 4.69-.76.761-2.055-.014-1.786-1.04 1.017-3.882 4.886-7.594 8.577-9.02Zm60.632 1.752c.425-.15.723.439.427.734-3.921 3.912-10.976 5.961-16.171 3.701-1.169-.508-.453-2.143.599-2.207 2.599-.16 5.21.14 7.796-.255 2.524-.386 4.946-1.122 7.349-1.973Zm-6.592-5.243c.562-.234.796.603.384.909-2.219 1.639-4.943 2.35-7.658 1.759-.884-.192-.693-1.617.214-1.58 2.456.098 4.771-.136 7.06-1.088Zm-18.204-8.508a130.836 130.836 0 0 0-10.178-.07l1.513.2 1.009.132c3.869.498 7.743.92 11.649.903 2.639-.011 5.275-.224 7.853-.744-3.948.238-8.059-.197-11.846-.421Z" clip-rule="evenodd"/>
  <path fill="#4F66AF" fill-rule="evenodd" d="M318.071 92.843c.004.02-.002.034-.007.055l-.003-.016.01-.039m.001.199c.017-.018.042-.032.066-.05l.001.002c-.023.015-.045.032-.067.048" clip-rule="evenodd"/>
  <path fill="#000" fill-rule="evenodd" d="M216.878 102.826c-1.536-1.275-3.955-.101-3.435 1.998.566 2.286 3.019 3.849 5.043 4.788 2.084.966 4.114 1.153 6.387 1.047l.028-.006c-.631 2.529-.989 5.157-1.472 7.701-.613 3.227-1.215 6.456-1.809 9.687-.574 3.122-1.301 6.249-1.742 9.387-.445 3.168-.872 6.338-1.309 9.506-.73 5.293-1.319 10.609-1.94 15.917l-.296 2.512c-.622 5.318-1.123 10.641.056 15.933 1.105 4.959 3.593 9.585 6.48 13.725 2.826 4.054 5.984 7.952 9.451 11.478 6.686 6.8 14.931 12.246 24.599 13.256 4.163.435 8.609-.049 12.523-1.561l.26-.101c3.961-1.563 8.813-4.239 9.844-8.63.633-2.694-2.145-4.797-4.581-3.519-1.128.593-1.977 1.269-2.903 2.118l-.165.152c-.757.702-1.048.918-1.922 1.468-1.791 1.126-3.134 1.659-5.17 2.171-3.752.943-7.801.794-11.61-.322-8.087-2.368-14.361-8.547-19.736-14.742-2.918-3.364-5.688-6.893-7.824-10.815-2.242-4.113-3.276-8.433-3.214-13.114.07-5.281.8-10.584 1.28-15.84.488-5.359.94-10.717 1.338-16.083.373-5.033.409-10.088.539-15.136l.025-.947c.077-2.68.13-5.361.191-8.041.06-2.673.272-5.38-.003-8.042-.02-.193-.282-.242-.345-.047a27.074 27.074 0 0 0-.439 1.515.237.237 0 0 0-.072-.039c-1.781-.612-3.422-1.833-4.759-3.15-1.275-1.257-1.941-3.098-3.298-4.224Zm97.467-37.447c-1.119-4.592-6.155-5.618-9.878-3.406-1.792 1.063-3.226 2.597-4.899 3.816a21.4 21.4 0 0 1-5.441 2.873c-3.854 1.365-7.919 1.862-11.992 1.88-9.913.043-19.623-2.74-29.551-2.43-7.682.24-15.835 2.509-21.407 8.057-3.002 2.99-4.936 6.832-5.973 10.912-.485 1.906-.847 3.86-1.132 5.807l-.07.487c-.159 1.14-.415 2.345-.439 3.496-.021 1.033.24 2.115.382 3.138.299 2.156 3.642 1.91 4.122 0 1.094-4.35.636-8.84 1.973-13.176 1.185-3.845 3.482-7.206 6.81-9.505 14.042-9.7 32.048-1.577 47.519-2.332 3.781-.184 7.618-.768 11.185-2.07 1.839-.67 3.65-1.488 5.317-2.517 1.528-.943 2.852-2.127 4.266-3.216l.624-.474c.97-.729 2.62-1.868 3.598-.904.426.42.452 1.368.444 2.093l-.005.327c-.044 3.077-.672 6.147.48 9.12.526 1.355 1.987 2.21 3.376 1.442l.072-.041c2.938-1.747 6.799 1.763 4.542 4.668l-.07.088c-1.271 1.542-.593 4.258 1.68 4.251l.082-.001c4.05-.127 5.847 4.931 2.356 7.14l-.108.067c-2.834 1.695-.348 5.769 2.557 4.37-.246.119.182.117.427.446.235.315.252.588.196.986-.169 1.206-1.231 2.223-2.091 2.986-1.954 1.734-4.376 2.932-6.872 3.661-9.997 2.92-20.254-.652-29.994-2.809-10.155-2.25-21.625-3.155-30.481 3.227-.105.075-.013.244.104.177 6.355-3.688 14.14-3.361 21.087-1.849 9.11 1.983 18.141 5.673 27.471 6.646-2.619 4.62-3.715 10.077-3.016 15.362.482 3.638 1.931 6.794 3.642 9.991l.327.61c1.526 2.87 2.708 5.582 2.727 8.907.018 3.304 4.934 4 5.767.78 1.892-7.313-5-13.073-7.812-19.104-2.403-5.155-2.477-11.166-.532-16.444 2.194.176 4.406.194 6.639-.005a31.74 31.74 0 0 0 5.817-1.063l.769 3.233c1.02 4.306 1.965 8.609 2.251 13.082.211 3.287.2 6.59-.121 9.868-.277 2.832-.863 5.563-1.458 8.327-.511.674-.772 1.704-.629 2.525-3.316.955-5.925 3.57-6.878 7.033-.059.211.237.33.347.147 2.262-3.749 8.085-5.129 11.769-2.652 3.518 2.365 4.906 7.139 2.914 10.919-1.047 1.988-2.6 3.384-4.602 4.346l-.403.189c-1.049.496-2.013 1.037-2.688 2.033-.875 1.293-.904 2.659-.822 4.136l.036.599c.055.99.068 2.009-.227 2.961l-.067.212c-.078.238-.16.447-.302.674-.043.067-.441.458-.571.599l-.164.05-.183.007c-.203.003-.47-.085-.382-.024l-.024-.013a2.707 2.707 0 0 1-.207-.144l-.114-.088a3.175 3.175 0 0 0-1.005-.941l-.389-.173c-1.012-1.067-2.745-.507-3.47.557-.522.764-.803 1.541-.826 2.308-.082-.131-.263-.202-.378-.056l-.688.876c-2.631 3.358-5.216 6.738-8.205 9.8a54.847 54.847 0 0 1-5.27 4.732c-1.581 1.247-4.58 2.446-4.626 4.717-.015.737.509 1.259 1.15 1.51 2.086.814 4.663-1.955 6.17-3.303l.123-.109a44.304 44.304 0 0 0 5.08-5.279c3.016-3.679 5.538-7.914 6.649-12.573.052.813.401 1.609 1.081 2.361a6.606 6.606 0 0 0 3.466 1.991c2.996.654 5.922-.423 7.705-2.918 1.507-2.109 1.951-4.895 1.757-7.443l-.024-.305c-.028-.409-.063-1.159-.168-1.478l.943-.518c1.157-.615 2.229-1.421 3.191-2.308 3.868-3.562 5.808-9.352 4.04-14.418-1.106-3.169-3.43-5.927-6.405-7.36.497-1.149.663-2.513.851-3.72l.032-.199c.318-1.98.584-3.985.686-5.988.19-3.742-.041-7.518-.63-11.217-.955-6.007-2.934-12.377-6.56-17.416 2.766-1.098 5.313-2.687 7.279-4.894 2.054-2.307 3.363-5.608 1.775-8.537a6.3 6.3 0 0 0-1.539-1.872c1.052-1.984 1.392-4.328.743-6.569-.775-2.678-2.88-4.768-5.422-5.743.617-2.538.112-5.268-1.774-7.383-1.872-2.099-4.778-2.863-7.467-2.383-.146-2.7.704-5.57.055-8.233Zm7.544 94.774c-2.466-1.206-5.389-1.014-7.852.128l-.167.08c-2.689 1.303-6.251 4.347-5.396 7.585.5 1.894 2.606 2.54 4.239 1.723 1.364-.683 1.675-1.904 2.359-3.131.484-.868 1.082-1.546 1.784-2.243 1.481-1.47 3.144-2.561 5.033-3.435.272-.126.263-.578 0-.707Zm-62.137-65.449c.231-.105.064-.467-.169-.4-6.197 1.767-11.974 5.736-15.427 11.245-.21.336-.242.889 0 1.222l.112.151c.159.206.315.359.612.405.56.087 1.046-.059 1.369-.556 3.401-5.251 7.758-9.441 13.503-12.067Zm-41.483 1.04c-.525-.889-1.917-.71-2.194.286l-.04.087c-.15.34-.082.41.197.217-.691.569-1.003 1.415-.792 2.326 1.14 4.918 6.715 8.43 11.576 7.947.424-.042.482-.563.097-.719-1.87-.756-3.529-1.985-4.864-3.492-1.297-1.466-1.842-3.142-2.54-4.912-.262-.664-.669-1.143-1.243-1.404a1.98 1.98 0 0 1-.197-.336Zm27.639-3.16-.034.001c-2.497.323-4.657 1.554-6.411 3.359-1.689 1.737-3.821 4.604-3.638 7.154.121 1.691 2.527 2.657 3.424.927.536-1.032.657-2.164 1.032-3.255.344-1 .82-1.95 1.389-2.842 1.171-1.835 2.782-3.39 4.432-4.793.193-.165.058-.55-.194-.552Zm64.051-.75c.554-.527-.022-1.425-.726-1.247-3.714.94-7.393 2.083-11.255 2.196-1.929.057-3.847-.095-5.757-.345l-.968-.128c-1.49-.194-3.005-.347-4.478-.041-.982.204-1.174 1.468-.562 2.127 2.889 3.114 8.462 2.816 12.294 2.291 4.161-.57 8.36-1.909 11.452-4.853Zm-67.074-9.706c.254-.353-.174-.909-.579-.752-3.691 1.425-7.56 5.136-8.577 9.02-.268 1.025 1.026 1.8 1.787 1.038 1.416-1.419 2.416-3.095 3.614-4.69 1.193-1.59 2.589-3.002 3.755-4.616Zm60.481 1.734c.296-.296-.002-.884-.428-.734-2.403.85-4.824 1.586-7.349 1.972-2.586.396-5.196.095-7.796.255-1.051.065-1.767 1.7-.598 2.208 5.194 2.26 12.249.21 16.171-3.701Zm-6.636-5.069c.413-.305.178-1.142-.384-.909-2.289.953-4.603 1.186-7.059 1.088-.907-.036-1.098 1.389-.214 1.58 2.715.59 5.438-.12 7.657-1.759Z" clip-rule="evenodd"/>
  <path fill="#000" fill-rule="evenodd" d="M275.216 191.355c-2.534-5.919-8.065-10.269-14.432-11.86-4.676-1.165-9.583-1.127-14.35-.665-2.497.241-5.176.438-7.529 1.362-2.01.79-3.648 2.284-4.879 4.037-1.466 2.077-2.463 4.454-3.164 6.891-.099.346-.192.695-.28 1.046.305 1.838.951 3.403 2.659 4.559 1.667 1.129 3.655 1.59 5.637 1.754.195-.093.383-.188.555-.286 3.089-1.764 5.263-5.93 9.162-5.366 3.479.503 5.77 4.868 7.839 7.428 6.642.772 13.279-1.218 18.683-5.005.275-1.296.29-2.603.099-3.895m-49.148-4.49a25.464 25.464 0 0 1 1.994-4.283 24.407 24.407 0 0 1 11.427-10.103c11.305-4.827 25.933-1.424 35.063 6.492 3.119 2.706 6.272 6.682 7.226 10.959.285.057.554.204.775.412 6.596-4.14 13.389-8.124 18.705-13.864 3.86-4.171 6.545-9.106 8.189-14.53.134-.446.856-.381.834.113l-.018.346c.068-.212.393-.103.418.103.885 6.589 1.991 13.574.972 20.197-.609 3.952-2.409 6.845-4.816 9.969-2.579 3.348-5.498 6.463-8.483 9.45-1.894 1.896-3.873 4.082-6.192 5.473-2.697 1.615-5.757 2.843-8.636 4.089-2.929 1.271-5.901 2.446-8.93 3.464-6.054 2.043-12.312 3.455-18.679 4.074-5.098.494-10.924 1.031-15.809-.881-3.744-1.465-6.767-4.114-9.164-7.301-2.61-3.47-4.673-7.424-5.814-11.593-1.185-4.33.688-11.888.938-12.586" clip-rule="evenodd"/>
  <path fill="#000" fill-rule="evenodd" d="M252.006 192.522c-2.366-.329-4.91-1.665-7.17-.579-1.056.507-1.557 2.243-.843 3.207 1.091 1.474 2.217 1.717 3.987 1.859 1.328.106 2.662.114 3.986-.039l.337-.041c2.362-.304 4.817-.961 6.647-2.544.375-.324.183-1.024-.298-1.125-2.173-.456-4.446-.433-6.646-.738Zm2.784-5.432c.001-.019-.028-.019-.029 0a7.728 7.728 0 0 1-1.139 3.751c-.01.017.015.031.025.015a7.778 7.778 0 0 0 1.143-3.766Zm-7.457-27.823c-2.364 1.432-5.965 4.772-3.422 8.323 2.993 3.131 7.301-.459 9.425-2.082 1.969-1.259 4.181 1.978 2.354 3.447-15.343 11.326-21.57-9.314-9.552-11.372 1.323-.227 1.814 1.241 1.195 1.684Zm-12.097-16.03c-.555 0-1.085.188-1.569.535-.476.342-.906.842-1.265 1.464-.679 1.178-1.103 2.805-1.103 4.604s.424 3.426 1.103 4.604c.359.623.789 1.122 1.265 1.464.484.348 1.014.535 1.569.535.555 0 1.086-.187 1.57-.535.475-.342.906-.841 1.265-1.464.679-1.178 1.103-2.805 1.103-4.604s-.424-3.426-1.103-4.604c-.359-.622-.79-1.122-1.265-1.464-.484-.347-1.015-.535-1.57-.535Zm25.701 1.835-.209-.04c-1.219-.221-1.835-.146-2.896.682-.798.623-.569 1.849 0 2.503.992 1.141 1.96.939 3.319.983l.095.003c1.132.046 2.265.078 3.398.095.31.005.62.004.93.006-.033 2.859 1.62 5.035 3.797 6.69 1.408 1.07 3.187-.164 3.689-1.496.416-1.102.505-2.458.29-3.664a3.92 3.92 0 0 0-.501-1.34l-.071-.11.011-.158c.003-.039 0-.077.002-.116a92.583 92.583 0 0 0 6.039-.578l.669-.087c1.715-.226 4.233-.299 5.62-1.411.044-.035.028-.113-.018-.138-.763-.409-1.537-.386-2.39-.424l-.122-.006a172.71 172.71 0 0 0-2.78-.119l-.928-.029a291.66 291.66 0 0 1-7.119-.308c-.412-.022-.824-.048-1.237-.073a3.953 3.953 0 0 0-1.344-.309 3.1 3.1 0 0 0-1.076.143c-.866-.067-1.732-.139-2.596-.217l-.865-.08c-1.22-.116-2.502-.167-3.707-.402Zm-14.982-21.427c-2.608-1.277-5.779-1.309-8.465-.251l-.178.072c-2.712 1.122-5.981 3.715-5.273 6.944.647 2.956 5.297 2.455 5.533-.339 1.501-2.074 4.868-2.529 6.984-1.21 1.284.8 2.165 2.148 2.767 3.506.513 1.157.61 2.586 1.398 3.594.026.033.077.039.115.03 2.351-.542 2.405-4.267 2.004-6.074-.582-2.627-2.452-5.079-4.885-6.272Z" clip-rule="evenodd"/>
  <path fill="#000" fill-rule="evenodd" d="M214.071 151.127c2.984 20.124 23.814 22.35 27.515 2.371-.594-.259-1.021-.77-.932-1.761.021-4.354-1.335-8.955-5.274-11.377-4.07-2.498-8.834-2.746-13.545-2.683-8.989-.213-8.8 7.278-7.764 13.45m30.776-8.753c2.821-.118 6.39-.019 8.917 1.695.695-1.866 2.5-3.857 4.324-4.923-6.779.198-13.758-.467-20.588-.984 1.635 1.112 3.156 2.781 4.144 4.711.918-.487 2.232-.442 3.203-.499m12.435 10.886c7.823 26.849 27.35 15.147 29.479 11.706 3.84-5.694 4.562-19.535 1.217-23.236-4.788-3.347-11.566-2.485-17.222-2.567-10.391.139-17.771 3.239-13.474 14.097m-52.448-12.348c2.126-.277 4.397-.333 6.373.6.608-2.579 2.519-4.734 4.675-5.683.261-.327.222-.502 1.114-.453 5.475-1.641 11.603-.773 16.864.91 8.31.698 17.029 1.248 25.409 2.209 7.85-3.515 31.54-4.03 33.013 4.634 1.851-.276 5.005-1.729 6.561.242 11.415-1.93 23.21.752 34.674 1.946 2.885.53 4.372 6.24 1.096 6.162-1.842-.498.057-3.555-2.423-3.785-11.061-1.205-21.88-2.914-33.054-3.114.388 1.924-7.391 2.049-7.506.926-.016.008-.034.014-.051.021 1.923 7.143.187 17.423-3.287 21.853-4.867 5.8-17.087 7.464-22.506 3.732-6.99-3.444-14.261-20.733-12.218-26.477-3.707-1.171-7.372-.82-11.219-.223.881 2.48 2.401 8.587.214 9.116.401 12.124-10.665 19.689-20.866 14.716-8.829-4.133-11.917-17.214-10.837-25.154-1.099 2.118-10.328-.188-6.026-2.178" clip-rule="evenodd"/>
</svg>
