<svg xmlns="http://www.w3.org/2000/svg" fill="none" viewBox="0 0 514 1027">
  <path fill="#EDB98A" fill-rule="evenodd" d="M367.747 944.824c.738-2.98-.463-6.848-1.155-10.721-1.077-6.023-3.62-14.752-8.465-17.482-.859-2.273-29.899-20.59-42.332-29.737-6.386-4.698-6.413-13.443-7.707-13.34-2.463-6.054-2.779-12.031-4.29-19.042 5.617-.737 15.211.588 19.638-2.609.793.053.782-8.61.897-9.834-3.336-9.033-11.532-230.07-3.336-335.354.869-11.719 3.129-24.831.896-36.919 3.658-.804 5.851-4.594 5.864-4.746 8.748-17.172-4.672-75.563-13.083-91.729 6.679-.174 15.477-1.083 19.613-6.659 1.957-.644 3.192-1.767 4.142-3.57a57.494 57.494 0 0 0 3.023-5.367c4.451-9.244 7.196-19.508 5.712-29.693.283-.09 1.74-.099 1.812-.506.143-2.504-.317-4.71-1.069-7.075-7.642-26.636-16.842-52.86-29.003-77.937-6.093-13.422-18.701-18.319-31.764-23.358-6.284-2.469-12.572-5.318-19.13-6.935-.083-.459.309-1.855-.551-1.741-1.061.221-.852 1.928-1.246 2.886-15.166-12.414-5.548-18.81-14.693-25.609-9.462-4.911-15.072-5.11-25.505-4.047-3.849.111-6.928 1.846-7.836 5.719-3.309 8.016-11.061 13.915-19.518 15.723-.699-1.244-2.621-4.811-3.697-3.685-12.215.417-35.819 10.065-47.251 13.419-11.477 2.931-11.332 6.054-14.335 18.523-5.448 22.218-4.427 105.667 9.791 123.253 0 0 7.731 5.163 11.613 6.43-.087 8.221 1.29 20.469 0 28.509-2.903 14.581-6.443 29.223-9.677 43.882-.015 1.633-12.959 25.841-6.891 21.36 1.252.616 3.453 3.202 4.802 3.778-6.446 14.689-5.259 32.719-4.802 50.865.114 10.806-2.411 22.648-4.836 33.714-17.935 93.762-30.102 200.226-36.762 294.147a399.54 399.54 0 0 0-.578 9.516c-.132.937 1.133.919 1.603.444l.648-.631c.722.207 1.876.521 2.608.719.093 3.076-.212 6.27-.584 9.073-.341 2.68-4.697 14.385-3.697 17.001-3.32-.177-9.553 5.271-12.526 11.165-1.526 1.365-.96 3.779-2.08 5.877-2.264 2.18-25.906 15.915-25.906 15.915-5.791 4.632-21.95 18.238-20.43 21.971l-.228 1.557c-3.198 18.601 2.126 17.823 19.353 20.559 25.164 4.439 48.965-9.022 70.233-20.431 7.067-4.766 13.951-3.501 13.182-9.256-1.395-7.106-1.643-32.544-9.71-31.969 1.327-1.456.994-14.808 0-17.303-.631-6.426 5.185-12.427 4.874-19.042 3.38.251 10.283 1.835 11.727-1.933-.065-.38-1.661-.372-1.936-.463l.029-.213-.182-.043c14.068-49.577 48.339-277.253 85.55-294.728.23 1.868 4.324-.349 6.804 0 11.51 89.782 24.687 174.411 31.717 270.441.703 2.848 2.329 22.713 3.015 26.008 0 0 2.155 1.78 3.426 2.132.384 10.132-.918 31.275-.962 31.297l-.673 1.646c-3.92 8.838-6.84 20.664-1.791 29.326-3.747-.273-5.383 2.921-5.551 6.239-2.208 14.549 56.176 27.46 69.736 28.292 4.455.778 36.215-4.886 33.46-7.679Z" clip-rule="evenodd"/>
  <path fill="#BA98DE" d="m142.739 459.964 2.361.929c53.15 20.916 114.067 25.34 173.592 13.66l1.804-.359 3.07-.62-.461 5.228c-6.09 69.45-9.549 128.243-10.392 184.514-.984 65.715 1.712 126.539 8.666 184.696l.212 1.761.217 1.794-1.68.664c-4.258 1.684-8.72 2.622-14.971 3.378l-1.187.141c-8.577 1.006-17.672 1.296-27.783.995l-.596-.018-.82-.028-.03.054-1.148-.096-.694-.025-.015-.034-.49-.039-.17-.011-.23-.013-3.128-.133.922-2.915c.656-2.075.809-4.328.479-6.692l-.048-.324-.006-.095c-.479-6.863-32.07-258.135-32.07-258.135-.573-4.397-5.741-28.334-8.113-31.581l-.084-.114-.002-.001-.047-.012c-.113-.026-.302-.029-.564.009-.76.111-1.804.528-3.006 1.206-1.859 1.05-4.036 2.722-5.177 3.821l-.132.129-.167.238c-5.616 8.053-10.403 17.139-14.777 27.718l-.218.53-.214.524c-3.437 8.443-14.318 43.033-14.318 43.033-2.128 6.996-45.456 186.857-45.456 186.857a5623.528 5623.528 0 0 1-5.046 23.076l-.727 3.277-1.935 8.674-2.713-.127a269.858 269.858 0 0 1-8.083-.542l-1.347-.108-5.51-.453c-8.959-.725-13.562-.964-18.874-.875l-.347.006-2.794.061.036-2.376-.817-.228-.31-.197-1.454-.69.115-1.597c7.519-103.984 20.325-205.158 38.651-303.441l.533-2.854.04-.497c.449-5.831 1.272-45.44 1.826-52.109l.064-.753c.831-9.565 2.305-18.011 4.693-26.01l.133-.444.737-2.427Z"/>
  <path fill="#fff" fill-rule="evenodd" d="M272.673 891.122c-1.151 4.303.94 6.454 6.273 6.454 7.998 0 13.069-12.29 17.024-13.698l16.079-8.541c2.313-.848 5.249 10.664 16.231 18.412 12.224 8.624 28.402 19.861 29.087 21.673 7.959 4.485 10.732 10.559 8.848 18.174 2.754 2.793 7.829 12.407 2.656 13.374-3.993.949-24.741 7.547-29.196 6.77-13.56-.832-74.238-18.351-76.373-24.844l.014-.309c.122-3.435-.335-10.211 3.3-9.947-4.948-8.488.439-17.399 4.346-26.07l.237-.53.118.27c.045-.023.917-.894.962-.818a4.07 4.07 0 0 1 .349-.37h.045Zm-166.99-7.949.054.185c.922 3.183 3.446 14.218 6.423 14.218 2.025 0 7.021 3.738 9.993 1.229l.344-.317c2.609-2.392 4.716-4.004 6.32-4.836 3.493.174 4.664 1.534 3.513 4.079l.098.717c.823 5.928.117 11.406.204 12.038 1.28 4.22 6.45 10.3 4.625 13.845-2.835 5.509-14.168 7.895-18.468 10.795-21.267 11.408-40.074 19.948-65.239 15.509l-1.518-.239c-16.02-2.505-20.936-2.901-17.835-20.944l.022-.166c.07-.581.206-2.015.206-2.015-.68-1.671 4.267-9.08 12.56-15.229 10.241-7.595 32.553-21.577 33.804-22.782 1.119-2.098 4.528-5.082 6.054-6.447 2.973-5.894 1.696-8.275 4.519-8.946 4.76.779 13.474 6.484 14.321 9.306Z" clip-rule="evenodd"/>
  <path fill="#000" fill-rule="evenodd" d="M362.409 946.027c-7.36 1.687-14.541 4.476-21.808 6.124-23.669-1.743-46.905-9.706-67.667-19.533-6.018-2.634-9.547-7.308-6.857-13.304 8.807 10.884 41.408 18.455 56.332 23.144 9.282 2.037 19.821 6.641 29.194 2.344 5.94-1.015 12.7-3.864 14.986-9.21.157 2.279-.077 4.544-.275 6.817.233 2.788-1.128 3.166-3.905 3.618Zm-87.894-91.716a.58.58 0 0 0-1.048-.052c-.45-.037-.93-.082-1.408-.103.819-2.591.934-5.302.527-7.979a1487.068 1487.068 0 0 0-1.726-22.122c-6.427-70.631-13.831-141.474-26.455-211.329a.5.5 0 0 0 .224-.485c-.633-4.95-1.97-9.775-2.904-14.674-.942-4.941-1.737-9.909-2.606-14.863a430.393 430.393 0 0 0-.798-4.438c.198-3.593-.67-7.373-1.128-10.854a60.631 60.631 0 0 0-1.425-7.387c.269-.822.129-1.797-.532-2.417l-.028-.024c.049-.163.104-.318.162-.462.454-1.123 1.438-1.626 2.149-2.425 2.042-.369 4.131-.471 6.191-.143.308.057.536-.368.225-.535-8.276-4.841-18.579-.173-24.683 6.138-18.759 26.655-25.544 60.5-35.909 91.083-18.764 66.52-31.926 134.565-47 201.92-11.923-.555-23.819-2.295-35.768-1.995-.449-1.014-1.22-2.098-2.14-2.534 7.425-102.676 20.181-204.97 39.174-306.155 2.108-26.504-1.19-53.526 6.672-79.442 55.798 21.958 118.188 25.227 176.716 13.418-10.943 124.098-16.724 249.494-1.692 373.566-4.805 1.9-9.964 2.716-15.073 3.312-9.825 1.188-19.841 1.338-29.717.981Zm-148.463 29.25c-.884 1.716.053 3.502 1.905 3.99-5.54 1.461-6.568 7.354-10.935 10.043-.41-.774-1.567-.904-2.341-1.13-2.333-8.674-5.026-18.881-15.957-22.072.695-.889.6-1.938.567-2.99.812-4.127 3.736-13.344 1.925-18.078 10.043 2.288 20.353 3.225 30.536 4.709-2.072 7.532-3.827 18.907-5.7 25.528Zm6.986 36.689c.328-.089.656-.181.978-.278 1.603 7.027-9.256 9.32-14.612 11.813a5065.04 5065.04 0 0 0-24.176 10.084c-16.286 8.169-31.581 10.47-49.685 4.648-11.52-2.208-9.329-4.41-11.018-13.296 11.552 15.533 35.215 8.866 49.905 2.15 13.35-5.112 26.799-10.021 40.611-14.323 2.76.691 5.389-.03 7.997-.798Zm117.28-567.855c-6.956 1.884-14.009 2.86-21.082 4.257.617-4.539 1.523-9.077 1.539-13.675 6.19 3.777 12.769 6.862 19.543 9.418Zm-65.632-45.91c14.865-3.099 30.605-1.967 44.65 3.919 4.823 1.604 11.338 5.782 16.346 3.848-3.715 11.787.964 23.93 5.803 34.658-11.107-3.703-20.885-10.216-30.998-15.928 3.787-4.983-30.646-11.022-34.384-10.891-1.061-5.153-2.325-10.264-3.433-15.41.618.231 1.386-.078 2.016-.196Zm76.813 5.575c.08.058.138.134.165.234 14.55 2.015 29.161 8.635 44.101 6.716 10.093-1.302 5.446 4.468-1.277 4.251-15.166 1.52-29.229-7.445-43.339-10.501l.35-.7Zm7.941-97.423c-.035.159-.071.318-.104.479-.15 0-.3-.016-.456-.06-.097-.094-.189-.19-.283-.286a3.43 3.43 0 0 1 .843-.133Zm102.552 728.415c-.21-3.519-2.057-7.045-4.701-9.413 1.765-7.224-1.77-16.427-9.314-19.536-2.051-3.362-6.503-4.84-9.72-7.238 2.698-.165 5.171-2.086 3.1-4.154-4.383 1.329-8.624 3.124-12.798 4.923-1.127.236-3.806 2.471-4.017.477.794-1.586 6.915-3.189 8.912-4.29-1.48-.935-2.962-1.873-4.436-2.815 2.618-.063 5.984-2.029 3.418-4.26-6.912 1.538-14.1 2.894-20.191 6.393-5.026-1.247 9.604-5.724 10.955-5.937-2.294-1.562-4.516-3.195-6.604-4.958 2.29-.043 7.064-2.346 4.01-4.403-3.844-.988-9.181 2.182-12.997 3.198-.003-.003-.003 0-.003 0a211.152 211.152 0 0 0-8.543 3.403c-1.139.48-1.623-1.091-.499-1.567 4.384-1.846 8.821-3.592 13.356-5.098-1.236-1.347-2.4-2.749-3.567-4.156.309-2.205-1.968-4.142-2.812-6.137.178-1.021-.334-2.623-1.546-2.835-.963-.933-2.416-.995-3.758-.782-2.129-4.093-3.968-10.467-4.643-15.546 5.642-.753 12.188-.776 17.064-3.889 1.451-.091 2.898-1.143 2.938-2.892.144-6.307-.48-12.521-1.04-18.796-.56-6.268-1.087-12.539-1.579-18.813-8.324-100.639-6.825-201.805 1.092-302.418.845-11.795 1.269-23.859-.69-35.572 2.432-.751 11.523-2.317 10.823-5.611 7.889-20.087-3.778-71.535-12.357-91.753 6.384-.373 14.048-1.742 18.241-7.005 4.038-1.424 5.453-6.158 7.466-9.568 4.33-9.089 7.135-19.318 6.04-29.437 4.47-1.185-1.073-13.465-1.567-16.771-7.412-24.45-15.906-48.766-27.037-71.79-3.973-8.418-10.937-15.069-19.461-18.786-10.248-4.467-20.544-9.089-31.26-12.358.065-1.824-1.844-2.539-3.146-1.879-.083-.027-.167-.055-.252-.075-1.317-.313-3.312.201-4.372 1.303-3.473-5.088-4.372-11.525-5.654-17.502-5.166 5.403-.396 23.49 7.65 25.047-5.241 37.793-49.173 28.828-62.541 1.287-2.901-5.32-4.857-10.552-7.751-15.967 8.35 1.71 16.89-2.899 19.917-10.907.621-1.297 1.159-2.021 2.304-2.833 1.408-.998 1.049-3.538-.94-3.473-7.841 1.759-2.691 14.243-21.764 16.43-.691-1.067-1.505-2.078-2.363-2.599-.363-.399-1.508-.511-2.126-.053-14.352.863-28.351 4.49-42.115 8.397-11.822 2.906-24.218 9.221-27.146 22.082-5.603 20.453 3.335 122.099 18.762 134.668 2.544 2.462 5.596 4.156 8.902 5.348-3.164 22.602-8.096 45.062-12.294 67.525-.314 3.874-7.04 25.373 1.497 21.835.232.112.467.22.7.329a76.029 76.029 0 0 0-1.438 3.12c-1.474 3.38-2.647 6.797-3.186 10.457-.559 3.806-.67 7.654-.839 11.492a135.236 135.236 0 0 0-.133 4.223c-1.649 13.47-1.615 27.221-1.749 40.755-7.458 51.166-18.167 101.947-24.254 153.383-7.403 54.95-13.276 110.126-16.691 165.474-.117 2.54 2.826 3.041 4.257 1.632.205.058.41.114.617.17.003 2.221-.188 4.447-.445 6.652-.49 3.213-4.17 11.303-3.244 14.219-3.35-.465-8.746.217-9.718 2.961-3.836 4.882-3.59 11.539-8.145 15.967 4.384.959 8.737 2.243 12.989 3.592.878.472.346 1.757-.765 1.426-2.36-.706-4.727-1.433-7.106-2.091v-.002c-2.301-.639-4.612-1.212-6.953-1.649-.081.066-.053.208.048.265-1.675 1.298-3.577 2.428-5.484 3.51 1.23.27 17.569 4.643 12.68 6.013-4.74-1.965-9.68-3.842-14.804-4.816-2.218 1.255-4.387 2.563-6.576 3.851 1.057.224 18.67 4.048 12.566 5.153-4.735-1.721-9.642-2.877-14.588-3.955-6.063 3.603-12.136 7.194-18.12 10.898-2.503 1.539-5.224 3.025-6.831 5.341-2.135 3.081-2.16 6.927-.693 10.45-4.283 18.435 3.276 19.146 20.894 23.018 24.975 6.388 46.634-8.937 68.338-17.263 4.533-2.122 9.544-3.717 13.607-6.514 3.837-2.73 6.366-8.467 2.852-12.402 2.428-4.538-.815-15.665-1.59-20.982-.639-3.354-1.07-8.766-6.055-8.938 1.333-.867 1.29-2.494.847-3.803-.584-6.441 1.419-17.88 1.9-25.155 3.811.275 9.463 1.391 11.44-2.83.764-1.22-.222-2.529-1.471-2.695l.002-.005c.267.02.191-.01.013-.053 20.204-83.364 33.234-168.774 62.388-249.727 6.674-15.636 9.647-35.801 24.561-45.895.203 1.261.418 2.715 1.211 3.623l.129.489c.521 2.033 1.107 4.046 1.625 6.079 11.668 89.76 25.139 179.332 31.613 269.695.981 4.184-.615 19.08 5.245 18.411.725.408 1.672.604 2.458.799-1.211 5.37-.873 13.481-.836 18.377-.084 4.893-.892 9.96-.346 14.805.627 3.185 6.585 1.267 5.612-1.935-.137-9.181-.693-20.506-2.27-30.698 9.131 1.781 18.491 2.213 27.79 1.786-.499 5.381 1.096 12.113 2.952 16.526-5.567 1.869-10.96 4.384-15.263 8.18-4.075 3.7-7.82 12.187-15.004 9.382-1.991-.885-4.173-2.422-4.86-4.401-.665-.494-.317.697-.187.982l-.272.093c-1.652-1.053-4.687 9.875-4.941 11.238-1.269 5.851-2.739 12.517.266 17.986-6.456 2.68-5.761 11.395-.974 15.045 19.002 12.302 50.688 22.345 74.273 24.03 4.174.289 8.564-.933 12.536-2.247 4.666-1.247 9.348-2.579 13.962-4.045 4.063-.932 7.122-4.415 6.617-8.22Z" clip-rule="evenodd"/>
  <path fill="#EDB98A" fill-rule="evenodd" d="M297.681 116.906c-6.137-37.19-53.001-43.896-83.539-36.068-.563-7.154-5.061-13.475-10.674-17.633-23.845-17.191-52.075 11.996-46.424 37.151 1.014 7.62 7.094 16.316 15.601 15.012-10.693 20.274-14.871 61.155 8.688 73.792 2.272 1.621 2.65 4.912 4.399 7.023 2.839 3.403 14.972 7.739 21.535 4.264 2.062 1.899 4.441 3.746 7.223 4.403 14.371 11.525 35.372 14.126 52.871 9.37 10.782-1.833 21.958-6.705 27.504-16.661 4.7-7.576 2.535-16.453.38-24.473-.931-4.411-1.538-8.857-1.911-13.341.765-.895.807-2.136.998-3.267.827-4.007 2.636-7.726 3.54-11.721 2.024-9.071 1.673-18.762-.191-27.851" clip-rule="evenodd"/>
  <path fill="#E8E1E1" fill-rule="evenodd" d="M164.427 76.603c5.302-10.115 15.695-15.822 26.089-15.04 10.634.801 18.773 8.147 20.657 20.007l.055.361.113.77-.103.035.05.088.089.15c.106.171.235.367.412.623l.237.338.795 1.12.057.08.169.244.342-.12c16.663-5.83 35.222-5.77 51.812.428l.502.19.463.179.261.068c10.171 2.695 18.299 9.176 23.863 18.455l.167.282.17.29c5.079 8.738 7.683 19.54 7.5 30.385l-.007.332-.002.053-.028.327c-.242 2.603-.896 4.929-2.248 8.476l-.173.45-.268.686-.834 2.116-.204.527-2.392 6.292.443-6.315c.05-.702.077-1.319.101-2.261l.004-.169.053-2.673.016-.597c.009-.278.018-.528.028-.773l.017-.364.032-.567.008-.118-.015-.127c-.51-4.014-2.349-7.441-5.514-10.688l-.165-.168-.167-.167-.2-.198c-2.332-2.285-4.69-4.032-9.574-7.238l-.211-.138-2.838-1.85-1.062-.698c-2.342-1.546-3.769-2.546-5.279-3.714l-.325-.253-.254-.2c-2.613-2.072-4.654-4.108-6.221-6.305l-.146-.206-.309-.444.221-.473-.004.007v-.002l.011-.051.015-.084.015-.103c.028-.203.051-.468.068-.768.006-.108.011-.219.015-.331l.006-.169.002-.147-.058.173c-3.026 8.749-10.196 16.05-20.302 21.437l-.307.163-.348.181c-9.961 5.165-22.146 8.13-32.711 8.214l-.34.002-.336.001-.26-.215c-.97-.8-2.754.196-2.429 1.622 3.002 13.188 3.632 26.837 1.799 39.99l-.065.459-.008.043-.069.372c-.061.332-.119.672-.182 1.064l-.099.632-.382 2.56-.174 1.097-.075.445c-.645 3.733-1.463 6.273-2.95 8.463l-.142.207-.146.14-.143.143c-.293.302-.477.547-.567.718l-.019.038-.011.023.026.011c.472.169 1.439.135 2.245-.087l.1-.028.094-.03.652-.212.455.641.136.189c.25.346.51.694.836 1.12l.384.498.887 1.142-.814.564c-2.748 1.901-6.589 1.524-10.671-.26l-.159-.07-.057-.028c-1.946-1.032-3.221-2.279-5.32-4.937l-.246-.313-.935-1.2-.355-.45a30.272 30.272 0 0 0-.674-.817l-.071-.083-.249-.285-.055-.11c-1.027-2.072-2.496-3.449-5.067-4.931l-.362-.206-.233-.16c-6.523-4.531-10.374-11.68-11.993-20.951-1.265-7.247-1.134-15.401.025-24.558l.056-.437.06-.454c1.003-7.707 3.299-14.903 6.778-21.454l.181-.338.163-.301-.816-.649-.335-.261c-.278-.213-.48-.36-.663-.481l-.099-.063-.091-.057-.025.046-.623-.067c-2.629-.281-5.222-1.42-7.333-3.174l-.174-.147-.169-.17c-4.08-4.156-6.083-9.918-6.085-16.498-.001-5.817 1.591-12.006 4.315-17.214l.135-.255.155-.287Z" clip-rule="evenodd"/>
  <path fill="#000" fill-rule="evenodd" d="M297.19 135.847c-.355 4.484-2.252 8.519-3.84 12.699.173-2.473.092-5.046.265-7.614-1.847-16.079-23.671-20.303-32.143-32.46.321-.687.436-6.825-.827-5.099-4.901 21.484-34.026 32.262-53.967 32.304-1.509-1.245-4.5.07-3.935 2.552 2.982 13.098 3.635 26.799 1.72 40.107-.902 4.7-1.054 10.354-3.868 14.404-2.987 2.846.604 3.074 2.58 2.432.551.776 1.132 1.53 1.716 2.28-2.839 1.965-6.981.894-9.919-.414-3.268-1.733-5.136-5.092-7.504-7.784-1.293-2.608-3.254-4.106-5.775-5.518-14.026-9.551-13.663-30.501-11.65-45.642 5.867-45.058 55.782-66.798 95.84-51.145 21.634 5.542 31.77 27.952 31.307 48.898m-130.477-25.509c-8.555-8.536-6.833-23.459-1.455-33.3 10.776-20.56 41.384-19.892 45.049 5.03-15.609 5.357-28.779 16.844-36.621 31.349-2.553-.273-5.021-1.412-6.973-3.079m130.968 6.575c-6.137-37.19-53.001-43.896-83.539-36.068-.563-7.154-5.061-13.475-10.674-17.633-23.845-17.191-52.075 11.996-46.424 37.151 1.014 7.62 7.094 16.316 15.601 15.012-10.693 20.274-14.871 61.155 8.688 73.792 2.272 1.621 2.65 4.912 4.399 7.022 2.839 3.404 14.972 7.74 21.535 4.265 1.56 1.918 10.418 7.752 9.772 2.034-.652-1.541-2.665-1.943-4.006-2.704-2.817-1.559-5.265-3.755-7.188-6.335 6.041-17.066 5.58-36.069 2.196-53.641 20.224-1.019 44.021-9.9 52.941-29.403 6.03 14.193 24.73 16.019 29.454 31.887.285 8.335-1.499 16.545-.205 24.884.379 8.167 4.689 16.28 2.197 24.394-6.96 17.693-32.016 20.289-48.569 19.55-3.932-.325-7.196-2.454-10.428-4.475-1.937-.922-4.243 1.005-3.056 3.062 4.532 6.337 13.854 6.891 21.012 6.662 18.577-1.103 45.425-6.602 46.389-29.585-.613-9.111-4.181-17.83-4.441-27.033.764-.894.806-2.135.997-3.266.827-4.007 2.636-7.726 3.54-11.721 2.024-9.071 1.673-18.761-.191-27.851" clip-rule="evenodd"/>
  <path fill="#000" fill-rule="evenodd" d="M268.672 188.999c-1.995.017-4.238-.732-5.737-1.318l-.391-.155c-1.298-.52-2.632-1.116-3.626-2.118-.318-.325-.656-.693-.828-1.081-.101-.227-.143-.461-.046-.695.36-.035.701-.081 1.023-.14.154-.028.301-.057.414-.058.416-.003.828.05 1.239.102l.179.023c.32.039.638.082.956.125.925.124 1.845.247 2.784.292.677.033 1.388-.005 2.104-.044 1.859-.102 3.781-.24 5.213 1.062.375.341.532.77.532 1.208 0 .531-.224 1.073-.565 1.497-.773.961-1.963 1.29-3.251 1.3Zm10.879-16.764c-.868 1.302-2.314 2.139-4.296 2.048-3.938-.18-8.637-1.665-11.936-3.813-.859-.559-1.415-1.453-1.515-2.411l-.178-1.704-.96 1.419-.302.442c-.278.407-.556.813-.818 1.229a54.712 54.712 0 0 0-2.766 4.906c-.593 1.199-1.027 2.54-1.462 3.893-.734 2.284-1.443 4.53-3.011 6.136-.237.242-.602.329-.935.286-.294-.037-.582-.182-.724-.469-1.873-3.809.647-8.4 2.691-11.592l.216-.333c1.896-2.884 4.992-6.701 8.538-7.22l.406.648.59-.394c.965-.644 2.24-.614 3.355-.11l1.116.503c2.076.932 4.125 1.792 6.372 2.263a21.172 21.172 0 0 0 .955.174 23.284 23.284 0 0 0-.105-.457 21.208 21.208 0 0 0-.251-.978 21.7 21.7 0 0 0-.624-1.941c-.907-2.39-2.356-4.625-3.765-6.757l-.166-.251c-.202-.306-.423-.624-.652-.954-1.099-1.582-2.318-3.299-2.404-5.023 1.459.092 2.679.998 3.754 1.787a28.547 28.547 0 0 1 4.081 3.663c2.405 2.608 4.563 5.942 5.509 9.388.542 1.973.304 4.097-.713 5.622Zm-38.475-19.66v-.07c.004-1.99 1.163-6.534 4.029-6.534 1.79 0 2.877 3.093 3.065 6.28l.006.13c.083 1.982-.461 6.314-3.071 6.314-2.638 0-4.002-4.103-4.029-6.12Zm42.186-.624v-.07c-.004-1.99-1.163-6.534-4.029-6.534-1.745 0-2.822 2.94-3.049 6.041l-.015.239c-.114 1.915.395 6.444 3.064 6.444 2.639 0 4.002-4.103 4.029-6.12Zm-32.536-12.843a27.43 27.43 0 0 0-1.135.163 52.294 52.294 0 0 0-3.286.631 65.39 65.39 0 0 0-6.129 1.722c-1.882.623-3.735 1.327-5.587 2.031l-.297.113a52.25 52.25 0 0 0-1.96.807c-.995.425-1.994.853-3.015 1.176 2.688-3.715 6.83-6.468 10.815-8.438 2.273-1.124 4.685-2.031 7.112-2.773l1.351-.406c1.99-.587 4.165-1.129 6.034.041a2.975 2.975 0 0 1 1.36 1.96 2.812 2.812 0 0 1-.547 2.263c-.459.595-1.031.933-1.64 1.05-.672.128-1.384-.013-2.032-.359-.52-.039-.673-.025-.827-.008l-.217.027Zm29.933.378a16.313 16.313 0 0 0-4.017-.364c-.618.018-1.215.114-1.812.21-.925.149-1.848.303-2.845.122-.521-.094-.964-.399-1.306-.796a3.307 3.307 0 0 1-.75-1.622 2.588 2.588 0 0 1 .215-1.543c.255-.532.684-.981 1.203-1.373 1.571-1.189 4.265-.903 6.118-.663 1.832.238 3.653.806 5.272 1.708a12.762 12.762 0 0 1 4.069 3.555c.913 1.235 1.343 2.657 1.788 4.104-2.09-1.752-5.288-2.764-7.935-3.338Z" clip-rule="evenodd"/>
  <path fill="#000" fill-rule="evenodd" d="M293.363 162.06c-2.102 2.823-5.998 3.722-9.591 3.411-7.751-.746-10.19-9.546-10.444-16.386 5.197 1.462-.439-8.891 17.327-10.029 6.263-.522 4.536 3.26 7.303 6.023-.057 5.798-1.022 12.099-4.595 16.981m-36.916-6.663c-4.576 21.424-29.633 16.328-32.265-2.984 2.431-1.715 1.791-5.95 4.81-7.485 4.786-3.057 10.768-2.926 16.202-2.854 6.947.477 8.926 3.354 12.495 6.493-.172 2.096-.667 4.581-1.242 6.83m46.842-19.889a41.103 41.103 0 0 0-.771-.121 2.301 2.301 0 0 0-.711-.254 12.15 12.15 0 0 0-1.867-.324c-8.906-2.004-29.509.841-30.359 8.439-2.836.947-5.29.099-8.577.184-2.502-10.456-45.758-8.98-47.838-2.677l-.024-.006c-1.999-.619-4.946-.47-7.233-.568-4.886-.102-9.776.333-14.556 1.363-8.95 1.423-21.165 3.087-14.941 14.262a.02.02 0 0 1 .004.006l.001-.001c1.073 1.099 2.893.214 2.961-1.274-2.093-5.294 2.634-5.93 6.271-7.451 9.05-3.251 18.263-3.701 27.623-2.696.704.829 1.772 1.552 2.902 1.93 6.257 1.039 2.959 5.68 6.915 6.355-.727 16.177 18.919 25.008 30.302 14.373 4.545-4.442 5.628-11.023 6.682-16.955.557-.125.912-.43 1.119-.833 1.34-1.338 2.181-2.573 4.831-2.94 2.65-.367 4.689.37 4.965.595a5.3 5.3 0 0 0 .231.421c.121.21.286.377.474.508-2.617 16.11 9.892 26.298 22.521 17.943 5.487-5.161 6.646-13.062 6.875-20.114.744-.448 1.215-1.318.958-2.412-.355-1.507.477-2.812 1.802-3.467 1.722-.851 1.418-3.959-.56-4.286" clip-rule="evenodd"/>
</svg>
