<svg xmlns="http://www.w3.org/2000/svg" fill="none" viewBox="0 0 515 1027">
  <path fill="#EDB98A" fill-rule="evenodd" d="M166.242 436.708c3.261-29.455 8.193-59.667 20.648-86.949 4.28-35.28-2.931-85.808 29.838-109.598-.419-4.224 7.171-7.864 10.689-10.119 5.715-3.734 13.445-11.071 20.21-6.961 2.134-.65 7.397 2.01 9.819-3.758 2.482-5.907 2.121-17.753 4.1-18.834-.873-8.537 37.599-14.248 47.64-2.182 4.768 9.255-.708 12.201 10.042 24.367 4.748.291 9.276 1.492 13.655 3.138 3.615.498 7.211 1.105 10.791 1.736 45.659 4.215 49.111 37.916 53.158 74.107 3.465 48.615 18.516 97.048 12.009 146.046 3.596 17.52 3.833 36.216-.462 53.569 14.081 20.512 3.874 31.862-4.908 51.366-1.486 3.508-2.779 7.122-3.437 10.865.173 2.9.154 5.804-.357 8.682-1.49 6.56-12.453 5.643-12.941-.985-.857-4.352-.592-8.868-1.257-13.242.039.228.106.665.106.699-1.607-11.007-4.199-15.274-11.357-23.673-9.191-13.254-3.539-29.907-5.637-44.74-.574-4.956-1.335-9.847-1.843-14.813-3.1 1.818-6.468 3.335-9.988 4.283 2.217 17.069-1.64 34.218-5.929 50.728-11.608 42.531-26.998 86.204-20.313 130.837-.004-.022 7.288 36.477 13.047 54.494 6.964 22.847 12.57 45.735 22.422 67.642 5.276 15.769 16.439 30.729 16.006 47.705 3.854 5.684-3.086 12.515-9.201 12.497 0 7.697 4.075 22.199 4.075 22.199.64 5.377 3.397 12.223-.771 16.789 5.667 14.394 7.658 29.97 9.213 45.204.595 7.227 1.276 15.937-6.482 20.035-7.227 3.118-15.641 1.746-23.359 2.676-7.467.01-15.194 1.963-22.537.277-8.434-2.395-10.132-11.505-8.544-18.791 1.024-7.586 2.252-15.148 3.595-22.688 3.986-16.418 5.101-34.636 10.206-50.429-2.86-.534-5.73-1.972-7.67-4.068-4.93-.161-8.565-3.82-9.773-8.146-.872-2.789-4.625-3.362-7.153-4.249-.473 2.407-1.854 4.432-2.979 6.622.96 4.65-2.246 10.087-7.539 10.195-.765.732-1.475 1.481-2.256 2.179 6.019 8.834 10.483 18.809 11.614 29.33 1.362 8.07 2.787 21.001-7.925 23.39-4.044.532-8.396 1.564-12.359.096-4.419 1.977-9.116 2.925-13.873 3.771-20.389 3.431-40.053 3.143-60.611 5.447-5.424.753-27.157 2.977-30.774 0-4.412.9-1.744-2.381-3.6-5.447-1.479-2.303-5.427-6.712-2.878-7.989 5.347-2.301 10.086-6.828 14.978-9.397 22.863-12.975 72.175-35.072 71.833-35.694.068.441-.299-10.668-2.127-13.615-2.571-2.541-7.695-2.095-10.379-4.526-1.703.08-14.482-3.586-13.388-9.726 1.401-4.901-3.178-10.907 0-15.045-10.52-95.818-35-188.749-48.51-284.056-.299-.262-.594-.527-.893-.789-6.966 1.162-12.378-5.814-14.493-11.308-1.019-1.032-1.999-2.094-2.899-3.246-5.676-7.36-5.778-16.947-6.424-25.705-1.404-1.029-2.307-2.627-2.384-4.517-.225-5.629-.464-11.259-.701-16.885-.003 0-.003 0-.003-.003-1.748-2.798-1.986-5.948-1.488-9.156-.183-10.376-1.787-20.096 2.708-29.642Z" clip-rule="evenodd"/>
  <path fill="#fff" fill-rule="evenodd" d="m383.665 928.041-2.8 1.129c-15.99 6.449-34.756 8.444-55.386 6.639l-.625-.056-3.754-.342 1.348 3.51c1.064 2.77 3.167 4.772 6.167 6.077l.242.103.076.027c7.457 2.558 22.194 3.517 34.183 1.384 9.803-1.744 17.769-6.383 18.415-7.009 2.125-2.061 3-4.798 2.563-8.302l-.023-.176-.406-2.984Zm-72.529-25.558.669-3.298-3.334.522c-22.749 3.56-42.65 5.855-80.867 9.649l-18.873 1.873a2429.332 2429.332 0 0 0-24.088 2.504l-1.761.193-.603.968c-.06.096-.141.184-.238.259l-.06.042 1.392 4.292.178.114c.33.212.546.339.827.466l.096.042.395.17.429.02c24.99 1.135 48.594.503 71.128-2.097l.823-.096.944-.112c11.87-1.385 46.738-8.286 48.506-9.375 2.3-1.417 3.836-3.395 4.404-5.98l.033-.156ZM160.734 470.709c3.357 2.196 47.022 22.233 95.274 23.446 33.663.846 92.358-14.202 109.259-15.45 5.92-.437.879 17.332-.145 18.303.396 3.751 2.971 10.033 2.69 13.829 4.827-1.246 19.99-3.734 39.707-13.72 2.823-1.43 4.473-78.965-.03-117.49-6.23-53.294-9.462-102.004-14.054-104.699-.054 1.356 3.719-36.424-28.168-42.441-5.79-1.092-39.435-8.737-39.435-8.737-13.771 17.475-35.685 32.142-48.198 32.142-22.222 0-34.791-32.217-36.932-31.83-46.633 8.425-42.59 64.074-53.832 125.761-9.816 53.869-25.255 106.444-26.136 120.886Z" clip-rule="evenodd"/>
  <path fill="#E86BBB" d="m189.633 477.568-3.426-.917.75 5.322 2.348 16.24c.459 3.202 25.816 145.478 25.816 145.478s25.998 160.898 27.223 181.673c.057.969 1.603 14.441 3.342 15.576l.125.08.125.078c.557.342 4.766 3.315 22.308 6.154 9.93 1.607 42.793 4.638 42.793 4.638l-.102-2.902c-.09-2.472-.27-6.643-.385-9.582l-.031-.804-.048-1.346.056-.011c.704-.133 1.389.167 2.592 1.377 2.034 2.044 4.585 6.118 7.792 12.689l.919 1.891s47.838-12.352 58.231-18.583l.321-.194 1.457-.882-.533-2.252c-2.466-10.353-35.411-108.368-39.288-121.403l-.361-1.215-.205-.698c-5.316-18.095-14.986-99.447-8.108-123.793 12.519-44.313 23.325-93.727 24.85-98.754l.224-.733.227-.732 1.203-3.848-3.947.865c-54.518 11.945-111.462 10.975-164.657-2.985l-1.611-.427Z"/>
  <path fill="#000" fill-rule="evenodd" d="M309.416 197.284c-.105-.919-1.334-.905-1.451 0-1.293 10.933 3.037 23.486 13.686 28.581-7.985 7.032-13.605 16.434-23.187 21.744-20.104 13.059-49.157.84-53.628-22.192 4.962-1.135 14.208-1.039 15.714-6.819.728-.744 1.103-7.121 1.059-11.824.045-.875.073-1.75.103-2.619.076-.704.098-1.421.09-2.143-.016-1.566-2.366-1.535-2.465 0a78.53 78.53 0 0 0-.094 1.907c-.017.169-.04.338-.061.506-.323 1.171-.547 2.395-.811 3.507a83.47 83.47 0 0 1-.447 1.808c-.227 1.583-.632 3.131-1.327 4.596-1.847 3.895-6.401 7.24-10.891 7.276-.961.008-1.917-.133-2.88-.109-1.568.04-2.848.659-4.247 1.29-1.263.569-2.449.954-3.667.952-50.257 16.996-43.338 79.21-50.992 121.273-7.802 41.773-23.919 82.046-26.291 124.736-.711 4.427 4.192 6.07 7.234 8.164.811 11.138-3.89 22.411-.63 33.433 3.015 9.012 15.173 30.68 26.789 27.267 13.172 99.822 43.787 192.333 46.684 293.37-2.933 8.448 5.487 14.581 13.254 15.817l1.059.609c3.541 2.026 7.199 4.009 11.073 5.263.097.056.194.113.293.167.188.102.39.164.597.195-.217 2.586-1.036 5.015-2.093 7.376-16.114 3.707-30.267 13.44-45.42 19.804-9.775 5.996-39.613 14.658-41.879 25.191l-.06.32c-.911 4.719 1.634 10.541 7.023 10.988-2.813 2.076-.971 6.271 2.094 7.08 3.682.977 7.679.56 11.469.864 35.756 1.119 71.827-2.031 106.679-10.025 2.927-.674 5.976-1.555 8.442-3.298 15.125-11.938-.618-37.204-4.335-52.69a31.251 31.251 0 0 0 3.996-.896l.293-.088c1.275-.385 2.592-.846 3.582-1.744.041-.037.075-.078.113-.116 6.372-.09-.118-14.084-.691-17.827 2.59 5.499 4.704 11.369 7.806 16.605 2.135 3.229 6.818.989 9.963.762-1.046 19.142-5.627 37.804-10.332 56.35-3.821 15.399-10.38 33.905 11.265 38.586 14.909 3.895 50.434 2.407 56.789-13.872 1.874-13.254-2.23-26.686-4.26-39.748l-.356-1.858c-2.423-12.699-4.664-25.456-8.178-37.918-.483-2.029-1.078-4.018-1.719-5.992-.083-1.152-.144-2.306-.069-3.463.098-1.515.385-2.999.69-4.485.039-.189.074-.408.11-.643 6.277-2.888 10.939-6.154 11.54-9.68.616-3.344-.629-6.735-1.551-9.927l-.054-.188c-20.217-70.803-58.672-134.606-52.119-210.13 2.411-37.147 20.05-71.311 23.026-108.361 1.712-7.39 3.258-14.857 3.507-22.476 1.058-.248 2.123-.474 3.175-.746.617 3.294 1.398 6.561 2.678 9.636.493 6.079.177 12.225-.883 18.237-.245 1.385.432 2.59 1.577 3.033-2.751 8.55-3.294 19.273 3.8 25.896l.588.388c6.163 4.092 6.807 5.25 8.241 12.874l4.719 19.268c.592 2.385 1.301 4.815 3.005 6.687 4.525 4.968 11.727 1.726 14.06-3.57 2.129-5.425 2.113-11.397 3.668-16.985 1.182-5.771 4.46-10.7 7.708-15.539 7.262-11.109 7.841-26.576-.256-37.456-.707-1.8-1.355-3.572-2.106-5.343 2.802-3.278.999-8.441 1.321-12.452.005-3.312.066-6.624.167-9.934.591-19.552 2.61-38.982 2.684-58.535.785-26.354-6.169-51.881-10.2-77.729-3.467-25.524-3.282-51.547-8.954-76.775-10.554-49.516-69.781-30.638-79.801-50.151-3.028-4.883-4.383-10.439-5.028-16.06Zm72.346 734.056c.896 6.584-3.741 8.165-9.058 10.167-13.557 4.959-29.211 6.135-42.991 1.407-2.442-1.03-4.189-2.572-5.056-4.831 19.124 1.742 39.206.475 57.105-6.743Zm-72.91-29.322c-1.2 5.915-8.841 6.611-13.956 7.605-12.218 2.55-24.554 4.598-36.959 6.046-24.04 2.892-48.358 3.389-72.516 2.291-.652-.281-1.071-.821-1.895-.82l-.1.003c-.047 0-.091.004-.136.006a3.358 3.358 0 0 0 1-1.021c41.523-4.553 83.298-7.652 124.562-14.11Zm-40.594-50.706c9.972 1.727 20.152 2.638 30.221 1.068.68 8.311 3.906 16.383 6.443 24.336-13.912 3.667-23.12-11.726-35.565-14.657.705-3.677.455-7.541-1.099-10.747Zm102.79-6.355a.356.356 0 0 0-.044.21c.048 9.685 1.033 19.334 2.463 28.918-8.84-9.503-23.635-11.909-35.819-7.957l.053-.619c.313-3.508.781-7.101.208-10.578l.558-.155c6.285-1.73 21.062-5.199 32.581-9.819ZM188.965 479.752c54.434 14.574 112.378 15.488 167.38 3.438-2.743 8.773-4.803 17.707-6.258 26.761-3.119 23.289-11.71 45.298-17.498 67.989-6.677 26.779-8.268 49.329-4.944 76.684l.102.829c7.317 61.342 37.28 117.342 51.357 176.895-16.566 10.031-37.031 13.95-56.027 18.098-11.938-24.56-22.026-49.749-28.636-76.196-23.815-83.011-55.195-161.173-48.225-248.816 1.554-1.017 1.048-3.163.195-4.534.295-6.322.703-12.639 1.371-18.927.023-.213-.334-.255-.378-.051-1.105 5.386-2.265 10.759-3.236 16.171-6.693-6.794-11.021-15.285-16.906-22.656-.838 5.504 10.635 26.823 15.683 30.122-10.756 65.904 7.156 126.235 26.503 188.914 13.019 45.005 25.669 90.142 39.101 135.023-.163.001-.326.004-.489.009.807-1.483-16.288-.459-17.691-1.204-12.59-1.189-24.912-4.164-37.157-7.148l-1.502-.387c-3.051-.8-6.593-1.95-7.142-5.204l-.008-.41a.982.982 0 0 0-.019-.227l.088-.366a.916.916 0 0 0 .029-.17l.122-.181c.14-.201.271-.38.085-.175 1.383-1.508 1.508-3.839-.088-5.28-2.992-109.624-38.384-209.956-51.491-318.354-1.299-10.235-2.885-20.43-4.321-30.647Zm216.829 21.224c6.294 7.798 7.375 18.682 4.894 28.186-1.303 4.717-3.937 8.689-6.654 12.734-4.762 6.743-6.984 14.578-8.195 22.608l-.035.152c-.552 2.581-.895 9.702-4.551 8.901-.96-.616-1.42-3.322-1.757-4.737l-4.22-17.232c-1.221-4.989-1.954-10.918-6.282-14.371l-.511-.326c-3.536-2.268-6.984-4.898-7.539-9.318-1.218-5.417 1.047-10.661 1.893-15.927 11.287-2.576 22.306-6.211 32.957-10.67Zm-239.552-22.265.378.186c4.341 2.158 17.295 9.141 20.635 6.459-.079 15.962 1.203 31.845 3.081 47.678-.481-.105-.976-.093-1.419.069-9.418-2.6-19.651-20.358-20.44-29.483-.645-8.306 1.009-16.971-2.235-24.909Zm154.834-244.64.48-.633c5.099-6.69 7.959-9.08 16.776-5.51-1.185 1.463-1.743 3.423-1.238 5.453l.034.129c2.782 11.413 17.05 18.025 27.494 11.816 3.649.947 7.453-1.669 7.6-5.376 10.335 6.066 15.11 17.181 17.048 28.345-6.784-3.561-15.907-.162-18.614 6.92-5.935 12.943 11.36 26.408 21.907 15.509 2.285 21.831 3.357 43.831 7.52 65.435-3.085-5.06-10.44-6.25-14.826-2.087-14.362 12.363 2.156 40.449 19.517 27.06 2.104 12.026 2.847 24.223 2.748 36.39-5.563-2.138-8.609 7.45-9.012 11.508-.504 4.884 2.025 15.125 7.951 15.703l-.487 7.811c-.828 13.387-1.564 26.761-1.38 40.182-.298.074-.552.21-.764.385a7.821 7.821 0 0 1-.141 1.159c-.073.38-.315.582-.601.645l-.01.015c.013.268.066.538.167.792a247.96 247.96 0 0 1-33.543 11.243 63.32 63.32 0 0 0-.186-11.333c4.324-4.1-.995-18.985-1.505-24.77-1.998-11.591-3.519-23.255-4.863-34.934 4.014-.343 6.07-4.522 7.125-7.923 1.376-3.745 2.206-7.744 1.237-11.682-.983-4.688-6.25-9.168-11.218-7.517l-.313-3.14c-1.967-19.891-3.685-39.816-6.63-59.597 9.617 5.351 18.698-6.285 16.375-15.316-.68-3.834-3.021-7.549-6.476-9.541-3.056-1.751-9.372-3.486-11.376.367a4.278 4.278 0 0 0-2.482 1.25c-2.078-10.728-4.605-21.538-8.626-31.706 12.71-7.96 10.332-28.002-6.395-28.029-22.557 1.926-16.556 34.737 5.2 28.566 6.833 41.062 10.771 82.463 14.266 123.904-2.63 4.275-2.214 10.617 1.396 14.215 1.569 14.991 3.474 29.951 5.975 44.821-16.547 3.678-33.298 6.72-50.231 8.121-.814-5.222-6.512-8.009-11.436-8.428-3.26-.349-6.807.884-9.921 1.475-3.763 1.437-6.842 4.737-8.217 8.337-15.807.096-31.624-.9-47.284-2.942 1.581-7.854-9.884-13.842-16.865-12.619-2.794.341-5.519 1.396-7.613 3.277-2.044.433-3.967 2.194-4.474 4.313-5.544-1.315-11.223-2.316-16.58-4.269-5.256-1.719-6.974-6.033-5.612-11.132 14.866 5.936 27.479-17.615 13.294-26.135-1.816-1.34-5.6-2.207-6.664.327-.181.031-.361.07-.54.113 1.18-4.846 2.367-9.691 3.555-14.536 6.815-.649 9.091-10.618 3.431-14.12 1.925-8.037 3.793-16.089 5.547-24.165 9.34 1.92 17.082-9.662 15.105-18.029l-.063-.253c-1.116-4.548-4.51-9.02-9.525-9.776a488.575 488.575 0 0 0 3.135-20.571c1.291-1.371 1.87-3.415 1.367-5.224-.364-13.225 2.326-26.842 1.242-40.255 9.911 12.008 30.563 3.834 25.845-12.01.276-14.678-20.654-19.88-27.712-6.904-.756-2.768-1.727-5.522-2.203-8.376-.072-.328-.579-.262-.61.046l-.001.035c-1.052 18.77-.278 37.663-2.299 56.413-7.552.37-10.638 18.325-2.433 19.614-3.103 20.875-7.763 41.477-12.829 61.982-8.801-2.252-12.204 16.603-4.958 19.774a3543.407 3543.407 0 0 0-6.255 25.021l-.04-.018c-1.064-1.822-3.9-1.619-5.723-1.272-6.023 2.212-3.477 13.077 3.08 12.411-3.577 10.73-1.309 20.685 10.625 24.372l-.006.341a3.895 3.895 0 0 0-1.362-.673c-7.458-2.087-14.422-5.329-20.848-9.532 1.89-30.98 10.889-61.013 18.17-91.064 8.368-1.329 11.037-14.688 4.509-19.608 4.519-19.952 5.821-40.355 8.032-60.617 6.027-1.31 7.55-10.949 2.108-13.901 3.448-25.163 16.431-46.374 40.655-57.161a40.049 40.049 0 0 0 3.833 10.314 4.556 4.556 0 0 0-.476.054.96.96 0 0 1-.156.212c-1.312 1.338-2.153 2.843-2.686 4.454-.051.346-.109.692-.167 1.038.058.141.124.281.199.418-2.596 9.833 9.569 14.859 17.783 12.659 1.273-.249 2.105-.96 2.549-1.859 14.542 7.791 33.52 6.15 46.62-4.153 9.521 5.068 21.78-6.766 14.975-16.048Zm68.237 220.452c-13.914-2.039-18.465 20.242-7.251 26.428 3.616 2.139 8.588 2.325 12.148-.039 9.479-5.719 6.843-25.214-4.897-26.389Zm-52.962-13.332c-17.708-.076-19.222 26.993-3.777 31.867 11.487 3.303 22.738-9.377 16.848-19.95-.545-6.577-6.258-11.821-13.071-11.917Zm-55.177 2.456c-.921-6.992-8.28-13.673-15.686-11.748-6.787 1.704-8.557 9.585-9.761 15.422-2.736 12.086 11.047 24.339 22.66 17.683 7.419-4.409 8.503-15.2 2.787-21.357Zm-39.549-40.808c-2.482-3.923-8.042-5.651-12.582-4.284-12.45 3.947-10.971 23.758-.952 29.664 17.21 8.941 30.936-16.765 13.534-25.38Zm81.089 11.575c.291-11.773-11.947-22.49-23.443-15.798-18.607 12.377.448 40.773 18.301 24.858 3.182-2.038 5.062-5.346 5.142-9.06Zm23.148-30.039c8.612-13.313-6.178-33.049-20.293-20.293-4.841 4.932-4.625 13.976-1.822 19.839 4.559 7.833 17.219 8.016 22.115.454Zm-62.532-24.966c-6.72-6.405-18.463-6.472-23.57 1.979-6.053 10.424 1.171 28.258 14.815 27.41 14.177-.998 18.06-20.779 8.755-29.389Zm35.212-20.815c10.784-10.965-.925-28.554-15.551-24.319-23.902 8.73-3.158 41.58 15.551 24.319Zm-58.867-2.474c9.605-17.392-13.728-33.029-25.603-16.289-9.108 15.161 15.481 32.663 25.603 16.289Zm31.329-49.474c8.311-14.496-6.212-30.604-21.472-22.096-21.715 14.969 6.08 43.757 21.472 22.096Z" clip-rule="evenodd"/>
  <path fill="#EDB98A" fill-rule="evenodd" d="M269.267 88.992c-47.008 1.487-49.843 23.797-49.843 61.212 0 37.415 24.385 60.991 33.365 65.108 8.979 4.117 32.622 21.8 53.959 13.651 21.337-8.149 15.158-42.576 15.158-57.369s-5.632-84.089-52.639-82.602Z" clip-rule="evenodd"/>
  <path fill="#9FD8E5" fill-rule="evenodd" d="M314.702 148.369c-9.72-39.6-27.463-58.921-53.23-57.962-38.651 1.438-38.243 40.8-35.818 37.211 1.584-2.344 12.675-10.536 33.274-24.574l1.274-.866 54.5 46.191Z" clip-rule="evenodd"/>
  <path fill="#000" fill-rule="evenodd" d="M250.197 203.024c8.632 4.815 18.517 5.003 27.802 1.972 5.569-1.812 10.675-4.615 15.454-7.967 4.156-2.917 7.867-6.153 11.543-9.59 3.026-6.668 5.721-13.324 6.983-20.58 1.131-6.513 1.281-13.275-.031-19.775-9.701-7.973-19.342-16.012-28.971-24.076-4.903-4.107-9.819-8.191-14.794-12.211-2.527-2.041-5.029-4.113-7.546-6.163l-1.243-1.011c-5.197 3.801-10.768 7.059-15.928 10.922a109.277 109.277 0 0 0-7.83 6.45 102.356 102.356 0 0 0-3.841 3.673c-1.143 1.149-2.246 2.796-3.867 3.23a1.564 1.564 0 0 1-.627.044c-2.168 18.961-3.708 39.435 5.578 56.655 4.05 7.511 9.794 14.227 17.318 18.427Zm56.157 6.969c1.189-1.088-.583-2.849-1.766-1.766-7.435 6.805-17.155 10.412-26.973 12.082-1.584.27-.909 2.675.664 2.407 10.25-1.743 20.325-5.63 28.075-12.723Zm8.922 10.441c1.419-.761.155-2.915-1.261-2.156-5.793 3.104-12.146 4.717-18.591 5.806-1.585.268-.908 2.673.664 2.407 6.664-1.126 13.202-2.85 19.188-6.057ZM291.7 115.26c-4.806-4.31-9.972-8.411-15.428-11.871-5.522-3.502-11.553-5.596-18.071-5.646.456.366.89.771 1.331 1.148 1.23 1.052 2.458 2.11 3.685 3.165 2.455 2.113 4.916 4.222 7.34 6.369 4.772 4.232 9.56 8.442 14.322 12.683a786.084 786.084 0 0 1 26.875 25.049c-.047-.209-.097-.418-.147-.627-2.901-12.108-10.793-22.098-19.907-30.27Zm-37.677-16.99a1.456 1.456 0 0 1-.066-.27c-12.509 1.628-22.956 10.824-26.41 22.933.3.418.466.914.403 1.441l-.093.799c.427-.424.868-.82 1.242-1.198a102.585 102.585 0 0 1 3.836-3.683 97.713 97.713 0 0 1 8.404-6.858c5.106-3.708 10.635-7.115 16.722-8.894-.4-.328-.8-.656-1.203-.98-1.202-.977-2.317-1.782-2.835-3.29Zm-22.425-12.947c7.68-8.385 18.314-14.526 29.514-16.66 10.694-2.042 21.765-.697 31.869 3.27 21.141 8.3 37.821 26.553 45.633 47.705 4.553 12.323 6.046 25.832 4.678 38.877-1.362 12.984-5.275 26.394-12.396 37.441a36.177 36.177 0 0 1-2.117 2.921c.334 3.813 1.608 7.552 3.613 10.803.108.175.222.346.334.517 2.053 1.536 4.183 2.978 6.262 4.466 1.802 1.29 3.585 2.612 5.279 4.041 1.6 1.348 3.457 2.85 4.54 4.67.887 1.491 1.25 3.517.038 4.939-1.459 1.713-3.932 1.109-5.909 1.109-.169 0-.338.004-.507.006-.594.372-1.205.709-1.798 1.023a2404.918 2404.918 0 0 1-18.011 9.428c-11.981 6.219-23.912 12.689-36.138 18.415-5.666 2.655-11.731 4.977-18.077 4.968-5.953-.01-11.334-2.372-15.982-5.964-5.296-4.091-9.725-9.287-14.023-14.379a255.807 255.807 0 0 1-5.053-6.192c-3.173-1.058-6.321-1.367-9.151.674-2.27 1.638-5.262-.59-5.315-3.049-.019-.873.018-1.735.112-2.584.568-5.243 3.136-9.986 6.028-14.385 1.58-2.407 3.244-4.769 4.919-7.11a64.28 64.28 0 0 0 1.155-1.666c-6.724-9.892-12.058-20.861-15.338-32.324-3.445-12.061-4.616-24.568-3.848-37.066 1.181-19.155 6.44-39.427 19.689-53.894Z" clip-rule="evenodd"/>
  <path fill="#000" fill-rule="evenodd" d="M245.701 188.999c2 .017 4.249-.732 5.753-1.318l.392-.155c1.302-.52 2.638-1.116 3.635-2.118.319-.325.659-.693.831-1.081.101-.227.143-.461.045-.695a12.39 12.39 0 0 1-1.025-.14c-.154-.028-.302-.057-.415-.058-.417-.003-.83.05-1.242.102l-.179.023c-.321.039-.641.082-.96.125-.927.124-1.85.247-2.791.292-.679.033-1.391-.005-2.11-.044-1.864-.102-3.791-.24-5.227 1.062-.376.341-.534.77-.534 1.208 0 .531.225 1.073.567 1.497.775.961 1.968 1.29 3.26 1.3Zm-10.908-16.764c.87 1.302 2.32 2.139 4.307 2.048 3.948-.18 8.661-1.665 11.968-3.813.861-.559 1.42-1.453 1.52-2.411l.178-1.704.963 1.419c.1.148.202.295.303.442.279.407.557.813.82 1.229a54.789 54.789 0 0 1 2.774 4.906c.594 1.199 1.029 2.54 1.465 3.893.736 2.284 1.447 4.53 3.019 6.136.238.242.604.329.938.286.295-.037.584-.182.726-.469 1.879-3.809-.649-8.4-2.699-11.592l-.216-.333c-1.901-2.884-5.006-6.701-8.561-7.22l-.407.648-.592-.394c-.968-.644-2.245-.614-3.364-.11l-1.119.503c-2.082.932-4.136 1.792-6.389 2.263a21.336 21.336 0 0 1-.958.174c.033-.153.069-.305.106-.457.038-.161.076-.322.117-.483.043-.166.088-.331.134-.495.18-.655.384-1.305.626-1.941.91-2.39 2.362-4.625 3.775-6.757l.166-.251c.203-.306.425-.624.654-.954 1.102-1.582 2.324-3.299 2.411-5.023-1.463.092-2.687.998-3.764 1.787a28.579 28.579 0 0 0-4.092 3.663c-2.412 2.608-4.576 5.942-5.525 9.388-.543 1.973-.304 4.097.716 5.622Zm38.579-19.66v-.07c-.004-1.99-1.167-6.534-4.04-6.534-1.795 0-2.884 3.093-3.073 6.28l-.007.13c-.083 1.982.463 6.314 3.08 6.314 2.646 0 4.013-4.103 4.04-6.12Zm-42.301-.624v-.07c.004-1.99 1.167-6.534 4.04-6.534 1.75 0 2.83 2.94 3.057 6.041l.016.239c.113 1.915-.397 6.444-3.073 6.444-2.646 0-4.013-4.103-4.04-6.12Zm32.625-12.843c.38.044.759.103 1.138.163a52.71 52.71 0 0 1 3.295.631 65.62 65.62 0 0 1 6.145 1.722c1.888.623 3.746 1.327 5.603 2.031l.297.113c.656.249 1.31.527 1.965.807.998.425 2.001.853 3.024 1.176-2.695-3.715-6.848-6.468-10.844-8.438-2.28-1.124-4.699-2.031-7.132-2.773l-1.354-.406c-1.996-.587-4.177-1.129-6.051.041a2.976 2.976 0 0 0-1.363 1.96c-.146.763.02 1.581.548 2.263.461.595 1.034.933 1.645 1.05.673.128 1.387-.013 2.037-.359.521-.039.675-.025.829-.008l.218.027Zm-30.014.378a16.389 16.389 0 0 1 4.027-.364c.62.018 1.219.114 1.817.21.928.149 1.853.303 2.853.122.522-.094.966-.399 1.31-.796a3.302 3.302 0 0 0 .752-1.622c.088-.583 0-1.093-.216-1.543-.256-.532-.686-.981-1.207-1.373-1.574-1.189-4.276-.903-6.134-.663-1.836.238-3.663.806-5.286 1.708a12.769 12.769 0 0 0-4.08 3.555c-.916 1.235-1.347 2.657-1.793 4.104 2.096-1.752 5.302-2.764 7.957-3.338Z" clip-rule="evenodd"/>
  <path fill="#000" fill-rule="evenodd" d="M220.956 154.606c.885 2.402 2.232 4.902 3.88 6.923 6.664 5.628 13.14 2.512 16.428-5.115 1.25-5.389-2.068-11.195-5.583-15.16-5.076-5.073-13.361-2.41-15.695 3.621a18.502 18.502 0 0 0-.269 2.338c.049 2.524.354 4.682 1.239 7.081m64.06-4.531c-8.779-10.413-25.204-10.97-24.785 5.056 1.886 20.286 33.644 15.307 24.785-5.056Zm-66.821-8.687c.308-.519.649-1.022 1.022-1.503.138-.081.217-.807.723-.86 6.769-7.446 18.66-3.222 22.956 4.197a12.131 12.131 0 0 1 1.897 3.197c4.233-.774 9.169-.624 13.106.97 3.904-10.164 15.724-11.072 23.513-6.729 4.844 2.376 7.986 7.351 12.697 10.084 11.076.795 22.963-1.679 33.839 1.091 8.578 1.778 1.407 6.109-.031 3.219-10.254-3.021-22.402-.468-33.049-1.149-1.107 1.867-3.23 3.395-5.346 3.33-2.285 20.197-31.825 16.848-32.844-1.106-1.156-1.822-2.593-3.566-4.651-4.701-.787-.163-1.548-.374-2.244-.701-1.188-.168-3.02.335-4.113 1.322-3.746 22.411-25.328 19.801-29.185.167-.076-.078-.291-.37-.455-.84-1.32-1.74-4.552-2.387-4.036-5.325.46-2.939 4.182-2.904 6.201-4.663Z" clip-rule="evenodd"/>
</svg>
