<svg xmlns="http://www.w3.org/2000/svg" fill="none" viewBox="0 0 514 1027">
  <path fill="#EDB98A" fill-rule="evenodd" d="m164.412 363.098-.441 5.268-.33-.617c-.047 10.628-1.621 21.372-3.358 31.976-4.54-3.733-8.271-7.024-7.194-13.397 2.73-9.082 6.231-17.941 9.062-26.974l.474 2.369 1.869.376-.082.999Zm324.212 559.883c-.836-3.692-1.748-7.602-2.603-11.305-.084-.313-.867-.383-1.119-.467-4.519-11.066-8.473-13.589-17.226-15.094-14.113-2.553-28.041-8.088-41.373-16.292.311-1.221 1.162-3.328 1.935-5.579a1.977 1.977 0 0 1-.815.116c-.904 2.124-1.888 3.989-2.409 4.676-1.665-1.074-3.518-2.255-5.15-3.397l.007-.02c-1.452-1.006-3.247-2.25-4.669-3.025-.267-1.472-2.424-1.929-3.551-2.901-2.187-1.563-3.4-2.368-5.407-.373-4.327-5.621-7.813-11.564-11.239-19.247-2.145-4.491-3.198-9.464-6.081-13.474.055-.031 1.888-.602 1.933-.653-32.764-72.586-38.014-153.353-45.003-230.941-1.541-17.35-3.154-34.861-6.159-51.702-.413-2.551-.783-5.063-2.318-7.096 18.413-15.172 18.592-44.579 9.674-66.39 20.506-55.317-19.689-114.069-16.723-170.523 1.663-38.295-5.23-82.665-48.486-91.853-5.365-3.088-11.795-3.549-16.914-3.632-4.608-2.328-5.335-7.468-6.975-11.693l-1.603.01a183.6 183.6 0 0 1-1.341-5.936c-.608-1.222-.248-2.814-2.164-2.476-4.344-6.288-39.105-9.45-39.5.676-1.255.74-1.503 2.184-1.795 3.938-1.928 12.436-15.208 22.354-27.174 20.354l-.194-.175c-50.943-1.888-70.998 34.354-80.952 83.746-7.778 38.377-12.722 79.967-6.631 118.407 5.95 17.421 23.975 25.803 37.92 36.535-1.608 4.051-1.758 8.52-1.807 12.903-.184 5.06-.552 10.161-.999 15.153-.917 6.327-2.402 17.217 6.21 17.956 3.337 75.617 10.305 151.037-.343 226.875-8.84 41.941-5.456 92.688 5.474 133.724.631 2.027 2.25 3.852 4.319 3.204 1.051.679 1.871 1.105 2.74.463a30.22 30.22 0 0 0 1.679 2.742c.23 11.275 1.508 22.336.926 33.683-.868-.101-2.776-1.056-3.518-.431l-.106.864-.706.242c-1.478 4.169-2.405 8.547-3.092 12.077-2.99 6.053-6.811 16.764-4.68 23.506-.104.12-.677.787-.767.888-.51.292-.603.681-.728 1.128-1.451.545-1.6 2.204-1.749 3.9-.727 4.109.353 7.845.724 11.865l.022-.027 1.22 1.414c15.315.933 30.395 1.172 45.642 1.72 1.15-2.204 1.497-5.183 2.361-7.604 18.076 13.224 49.393 8.166 72.097 4.918 9.22-1.33 17.931-2.586 25.654-3.004.503-.069.539-.286.552-.486.076-3.027.645-6.13.361-9.067 1.594-1.55.868-4.372-.228-6.851-4.03-8.729-14.984-9.684-23.858-11.174-16.696-3.24-30.121-9.335-40.982-18.652a37.028 37.028 0 0 0 1.998-1.945l-.707-.473c-.571-.251-1.118-.508-1.619-.832a.883.883 0 0 1-.891-.004c-1.092-.613-1.981-1.514-3.018-2.204-.206.296-.413.597-.62.912a161.6 161.6 0 0 1-3.104-3.334c-.035-.304.045-1.061-.326-1.144-2.796.283-6.035 1.226-8.96 2.273-3.306-10.865-5.22-22.623-5-33.727 3.252.001 6.099-.03 8.523-1.575.663.178 1.586.562 1.758-.48.984-4.252 1.239-8.754 1.487-13.107 5.032-82.355 12.699-148.531 38.129-218.293 2.443 9.686 6.543 19.76 10.274 29.403 16.975 40.299 29.204 83.76 39.687 126.059 4.124 15.833 8.608 33.23 13.036 48.898 1.717 7.533 5.208 10.29 12.523 10.23 5.637.265 11.294.182 16.954-.215 7.716 7.035 10.88 16.531 13.134 25.081-1.878 1.397-4.859.87-7.055 1.331-1.893 3.052-1.238 7.32-1.194 11.084.298 4.892.044 10.139 1.468 14.757.255 5.052.286 10.585.666 16.458-4.183 2.426-3.417 7.786-2.028 12.914.621 1.304 23.104 1.046 28.681.991 6.554-.381 15.899 1.293 18.048-5.892 15.602 8.668 39.339 5.739 57.516 3.188 13.192-1.608 25.144-3.103 38.099-5.831.134-.058.322-.475.228-.666Z" clip-rule="evenodd"/>
  <path fill="#fff" fill-rule="evenodd" d="m239.461 919.622.438.148c1.19.399 4.946 2.523 13.47 4.561 4.514 1.08 23.722 4.369 27.78 9.05 2.737 3.158 3.745 18.412 3.745 18.412-.24.093-28.982 6.037-43.156 6.282-11.631.202-51.185-4.77-55.887-5.543l-44.89-6.39.042-20.25 6.519-20.644 4.859.559c7.662 12.283 28.081 6.014 28.081 6.014 2.769-.923 4.749-1.781 10.695-4.569 0 0 14.71-6.494 19.296-7.632l.403-.099.64-.15s20.659 17.737 27.965 20.251Zm165.84-52.387 3.162.279c3.014.266 5.268 1.537 8.604 4.278l.678.564.967.809.275.226 1.025.838-.008.053 1.367 1.121.354.287.32.255c.271.214.554.434.856.665l.541.409 1.072.803.048 1.075.928-.375 1.034.702c8.996 6.107 18.854 9.767 34.298 13.5l.434.105.544.112c10.78 2.201 17.789 11.764 22.252 21.756l.133.304.132.309 1.112 2.64-2.848.571-.089.021-.108.031c-.405.122-1.125.412-2.813 1.13l-2.472 1.055-.643.27c-1.696.705-2.803 1.114-3.699 1.34l-.214.052-.144.017c-10.149 1.185-18.271-.666-30.26-.418l-2.319.044-2.67.039c-7.029.088-72.578-.193-86.205.949l-2.857.242-.281-4.669c-.056-.99-.113-2.037-.191-3.562l-1.544-39.1 2.497-1.249 4.645 2.485.615.464.296.221.3.222c1.461 1.075 2.386 1.661 3.446 2.168l.176.083.124.057.037.019c14.639 7.335 33.561 3.725 45.267-8.295l.352-.366.713-.752 1.035.022a.19.19 0 0 0 .039-.018.63.63 0 0 0 .193-.177c.124-.163.178-.348.167-.473l-.005-.036-.668-3.102Z" clip-rule="evenodd"/>
  <path fill="#8FA7DF" fill-rule="evenodd" d="m270.668 212.174.088.03.249.086c1.753.597 3.653 1.055 5.847 1.432.505.088.968.284 1.36.571l.089.067.037.031.11.033c23.311 7.234 37.17 20.286 44.075 39.498l.208.584.207.6c2.832 8.325 6.623 82.516 8.661 92.875l.112.566.252 1.249c.732 3.59 14.671 41.772 17.23 75.234 2.275 29.762-6.718 55.333-7.342 56.508-3.405 6.418-8.45 11.729-15.874 16.064l-.263.152-.041.023c-9.586 5.274-20.661 7.872-33.185 8.21l-1.781.042c-7.782.17-23.574.363-33.592-2.359-4.751-1.291-8.327-6.437-8.923-7.058l-.201-.208-.331-.336c-1.099-1.106-2.196-2.091-3.946-3.559l-.923-.769-2.165-1.784-.721-.599c-2.955-2.466-4.622-4.006-6.27-5.877l-.202-.232-.309-.36-.33-.426-.328-.429c-2.383-3.137-4.258-6.127-7.44-11.671l-.406-.709-1.82-3.192-.817-1.422c-1.776-3.076-2.959-5.009-4.304-7.006l-.25-.369-.73-1.066.099-.869.016-.147c.057-.624-.039-.775-.316-.79l-.032-.001-.068.001c-.417.016-.627.219-.585.663l.006.056.044.322-.045.321c-.476 3.365-2.087 6.225-4.662 8.692-1.95 1.869-19.93 11.481-23.836 14.046l-.508.336-.214.143.987 5.976.161.925.191 1.055c.564 3.041 1.038 4.959 1.399 5.602l.02.034 1.845 3.088-3.571.436c-3.251.397-43.632-2.508-50.382-1.641l-.626.082-.103.011-.114.009-.27.016-2.075.345-.558-2.039c-.22-.807.064-13.408.853-37.802l-.309-.19-.399-.241-.296-.175-1.005-.585-2.938-1.687-1.595-.921c-4.562-2.658-8.313-5.031-12.006-7.704-11.285-8.168-18.612-16.824-20.553-26.509l-.1-.515.002-.434v-1.985c.014-12.194.341-76.919 6.023-105.431 5.109-27.49 11.524-47.072 21.875-62.258 12.816-18.803 31.058-29.066 56.133-29.693l.762-.016.925-.016.686.621c1.398 1.265 2.153 2.577 3.171 5.043l.14.344.37.908.135.323.081.189c.026.06.051.119.077.175l.106.233.129.253c2.721 5.28 6.697 10.155 11.685 14.496l.273.237.256.219.332.268c11.472 9.192 30.291 17.419 45.936 19.344l.473.056.481.054c9.008.967 16.607-.171 22.221-3.533 6.123-3.668 9.939-9.997 11.103-19.359l.019-.155.001-.191a23.884 23.884 0 0 0-.178-2.801l-.045-.347-.045-.311-.084-.547.17-.527c.252-.78.208-1.987-.115-3.64l-.125-.614.087-.454c.1-.521-.059-1.33-.491-2.284l-.053-.116-.764-1.628.117-.099-.118-.151c-1.393-1.747-3.373-2.885-6.958-4.292l-.194-.076-.389-.15-1.571-.594-.356-.357c-1.049-1.049-1.21-2.611-.587-3.853.691-1.379 2.236-2.128 3.818-1.618ZM160.355 358.873l-6.867 16.539-2.809 13.419 4.682 6.865 5.93 2.185 1.873-24.965-.937-11.235-1.872-2.808Z" clip-rule="evenodd"/>
  <path fill="#000" fill-rule="evenodd" d="M347.151 875.837c3.516 1.952 6.329 4.998 10.019 6.688 15.974 8.004 36.196 3.693 48.368-9.143 1.717.035 3.095-1.844 2.731-3.536 3.652.322 6.53 3.137 9.248 5.358-.371 2.572-.199 5.156.84 7.618.081.196.434.274.478 0 .315-1.873.639-3.758 1.064-5.608a66.18 66.18 0 0 0 2.338 1.819c.068 1.538 1.673 2.659 2.984 2.129 10.755 7.3 22.911 12.482 35.536 15.512 9.878 2.064 15.008 1.852 19.389 12.258-1.624.325-3.221 1.114-5.662 1.71-41.3 4.821-82.98-.375-124.346 3.143-.553-9.098-1.048-18.19-1.673-27.281-.22-3.272-.316-6.573-1.585-9.63.025-.375.084-.743.202-1.03.022-.003.044-.003.069-.007Zm1.542-22.396c.134-.606-.341-1.117-.812-1.517-.54-.911-1.154-1.769-1.885-2.493 14.345-1.27 28.098-5.683 41.573-10.236 1.628 11.587 7.406 22.111 13.917 31.671-11.052 11.524-29.049 14.329-43.517 8.03.966-2.13-1.105-5.206-1.632-7.405-1.814-5.27-4.299-10.307-6.452-15.426-.368-.845-.755-1.741-1.192-2.624Zm-2.953-.2c.097.069.197.141.294.203l.174.431a18.797 18.797 0 0 0-.455-.478 2.05 2.05 0 0 0-.013-.156Zm-132.608 47.793c.287.508.587 1.011.899 1.504-.6.374-5.126 9.987-2.597 8.451 1.405-2.001 2.809-4.017 4.323-5.942.422.562.856 1.114 1.305 1.654-1.558 1.12-.952 3.745 1.111 3.75.738.004 1.31-.149 1.998-.405 9.233 8.838 21.372 14.065 33.591 17.304 10.125 3.174 29.196 1.552 29.712 15.987-1.03-.026-2.134.309-2.919 1.051-44.702 15.129-90.885-.819-135.972-5.236.622-1.25-.171-3.506-1.82-3.407-.016-10.11 2.778-20.148 6.823-29.347 22.941 21.886 39.366.476 62.507-4.759.446-.09.79-.312 1.039-.605Zm11.827-3.929c-.066 0-.235-.021-.3 0-.931 3.141-2.91 5.971-5.431 8.001a76.31 76.31 0 0 1-1.976-1.879c1.683-1.953 3.524-3.76 5.656-5.286.598-.408 1.296-.882 2.051-.836Zm-89.2-404.447c-.597-2.184.078-4.47.146-6.691.512-6.044 1.208-12.135 1.074-18.208-.165-2.185-.211-4.298.275-6.432-.148-.572-.659.781-.812.908-.031-.171-.072-.343-.106-.515.244-.277.503-.521.784-.755a616.4 616.4 0 0 1 34.811 31.072c1.161 1.114 2.875 1.046 4.045 0a105.906 105.906 0 0 1 7.535-6.129c.896 2.928 2.266 5.639 3.833 8.261-10.24 1.25-20.345-1.472-30.514-2.266-6.818-.523-13.662-.202-20.435.699-.174.025-.449.025-.636.056Zm22.576-97.082c-3.576-3.09-5.074-5.11-4.635-9.977 2.115-7.193 4.857-14.184 7.198-21.302.301 1.504.326 3.044.452 4.569-.827 8.925-1.468 17.88-3.015 26.71Zm3.636-33.778c-.05-.094-.1-.188-.153-.278l.234-.721-.081.999Zm-64.476 54.935c.022-3.816-.478-7.658-.7-11.465a379.795 379.795 0 0 1 6.683-95.744c8.268-44.481 23.584-89.148 76.509-90.055 1.857 1.68 2.509 4.273 3.543 6.5 3.119 6.173 7.701 11.519 12.953 15.984 21.771 17.717 79.347 37.943 84.404-4.98a26.101 26.101 0 0 0-.294-4.148c.477-1.476.256-3.326-.081-4.987.227-1.189-.122-2.552-.725-3.835.1-.084.194-.178.275-.281-2.376-4.535-6.449-6.018-10.972-7.726-.623-.624-.071-1.916.887-1.579 2.107.739 4.273 1.238 6.471 1.616.306.053.499.212.596.415 51.326 15.533 49.648 57.801 48.859 102.476.777 48.133 28.669 93.322 20.53 141.954-9.606-58.685-28.502-115.757-32.791-175.348-.322-5.344-1.116-10.621-1.718-15.937-.308-2.24-.644-8.511-1.411-7.462-3.663 20.495-.801 41.553 2.272 61.957 6.777 41.466 17.974 82.04 25.552 123.349 4.181 18.365 4.63 37.675-13.794 48.295-19.914 10.956-44.692 8.754-66.208 4.314-1.717-.404-3.015.489-3.633 1.718-4.201-8.8-13.629-13.131-19.764-20.349-6.145-7.876-10.165-17.187-15.816-25.415.574-5.006-4.081-12.898-9.395-13.003-13.419-14.007-27.932-26.972-43.617-38.393-.228-.721-.84-1.127-1.27-1.773-.64-1.088-1.056-2.446-.956-3.701 2.382-13.754 2.938-28.023-.786-41.598 6.64-20.627 10.68-41.929 14.47-63.215.355-1.029-1.37-1.512-1.626-.449a566.413 566.413 0 0 0-1.292 6.784c-7.653 28.243-16.77 56.016-26.716 83.524-1.16 3.835-2.247 7.664-1.591 11.68.568 2.342 4.119 2.117 4.526-.284.794-.232 1.497-.026 2.119.447.006-.01.01-.019.016-.025 4.758 6.802 11.065 12.426 17.482 17.75 10.993 9.343 21.774 18.936 31.928 29.19 2.412 3.118 10.511 8.684 11.084 12.898-1.062 7.505-8.832 11.064-14.933 13.999-8.875 4.311-17.198 9.77-24.58 16.317-16.07-14.855-32.812-29.019-50.506-41.909-10.147-7.303-22.716-14.542-25.984-27.506Zm180.101-192.328c.044.241.085.481.125.719-.19-.266-.387-.528-.596-.778.156.022.312.041.471.059Zm57.956 317.073a80.375 80.375 0 0 0-.533-1.52c.469-2.256 1.177-4.372 1.392-6.744 4.551-4.624 7.375-10.921 8.131-17.344.224-1.888.356-3.698-1.03-5.174-.509-.544-1.589-.603-2.088 0-1.698 2.044-1.258 5.124-1.864 7.617-1.274 5.281-4.222 10.26-8.446 13.622-2.379 1.944-5.417 4.398-8.14 5.146 2.125-8.306 6.802-16.211 7.421-24.963.179-2.565.017-4.964-.611-7.461-.466-1.554-1.168-2.905-.615-4.525 6.426-4.148 12.105-10.122 14.989-17.338 1.026.112 2.08-.343 2.544-1.485 2.306 17.066 5.418 35.088-3.493 50.738-1.997 3.548-4.574 6.767-7.657 9.431Zm-91.644-39.517c-2.509-2.574-4.768-5.354-7.076-8.104-2.45-2.54-6.628 1.418-2.303 5.136 7.537 9.417 7.269 21.159 3.689 32.065-.618-2.803-1.111-5.586-2.038-8.335-2.301-6.819-5.79-13.173-10.144-18.89-1.049-1.376-3.765-.677-3.075 1.295 2.176 6.214 3.159 13.088 2.173 19.642-.462 3.055-1.779 5.96-1.957 9.062-.06 1.074.577 3.788-1.118 3.174-.652-.237-1.233-1.62-1.511-2.5-1.384-4.544-1.093-9.358-1.623-14.031-.658-6.072-1.673-12.31-6.027-16.922-.955-1.015-2.366-.362-2.818.742-3.442 8.305.119 18.605-6.003 25.889-.305.337-2.053 2.044-2.337 1.819-.481-.38.037-2.531.118-3.03 4.209-17.391-10.096-31.829-15.207-45.311 10.175-8.367 27.595-11.043 32.015-24.759 4.124 9.106 7.698 18.741 14.233 26.466 6.411 7.67 18.431 12.732 18.928 23.935-3.061-1.78-5.445-4.849-7.919-7.343Zm-92.237 363.663c7.864.122 15.766 2.563 23.563 2.434 7.2.256 14.41-.077 21.599-.512-2.716 10.716-1.669 23.281 1.923 33.675-13.976 6.536-26.701 15.87-42.029 6.756-.168-1.348-.627-2.687-1.07-3.997.176-.725.31-1.673-.353-2.247.037-12.114-1.213-24.236-3.633-36.109Zm275.138.162c.929.98-2.378 8.613-3.174 9.905-.943-.609-1.877-1.206-2.803-1.841.737-2.197 1.729-4.297 3.171-6.216.391-.518 1.929-2.603 2.806-1.848Zm59.845 44.363c-.153-.661-.787-1.264-1.476-1.432-1.987-5.131-5.162-10.261-10.079-12.96-2.968-1.539-6.258-1.985-9.495-2.628-13.584-2.649-26.496-8.031-38.292-15.154 1.159-3.276 2.245-6.53 2.94-9.926 1.135-3.803-1.889-6.981-5.681-5.387-3.334 1.498-5.35 6.087-6.342 9.375a38.941 38.941 0 0 0-2.637-1.679c-.475-1.326-2.042-1.891-3.25-2.643-1.881-1.255-4.41-3.454-6.673-1.751-4.091-5.455-7.371-11.506-10.138-17.725-2.174-4.382-3.003-9.366-6.049-13.279.428-2.71-1.23-5.414-2.338-7.823a156.393 156.393 0 0 1-2.931-6.672c-19.171-52.166-25.992-108.097-34.039-162.834-5.788-36.853-4.909-74.663-13.077-111.095 19.842-16.133 19.371-45.906 10.735-67.914C366.281 427.074 335 375.761 331.22 324.416c-1.214-37.472 5.022-82.466-33.939-103.62-4.933-2.722-10.233-4.919-15.777-6.008-5.13-2.884-11.243-3.587-17.051-3.701-3.278-1.78-4.209-5.865-5.385-9.147-.321-1.182-1.042-2.515-1.17-3.726-.013-.106-.175-.149-.203-.028-4.549 11.989 6.922 24.516 18.593 26.026 5.262 18.555-5.805 35.097-25.751 34.046-23.094-1.732-55.74-14.473-64.089-37.925 3.681-.068 7.185-1.217 10.656-2.309.803-.367 1.919-.312 2.413-1.126 7.98-4.011 14.137-11.554 15.466-20.422a4.225 4.225 0 0 1-.306.206c.138-.087.263-.181.375-.278.112-1.36.128-2.721-.003-4.085-.612-.552-1.48-.852-2.488-.649-3.071.618-3.134 3.854-3.627 6.282-.443 2.188-1.273 4.201-2.391 6.129-4.552 7.734-13.259 13.115-22.37 11.946-.415-.375-.999-.559-1.564-.372.041.035.084.069.125.1-53.507-1.963-72.596 39.132-81.914 84.992-7.446 33.653-10.384 68.307-8.65 102.733.424 3.98-.1 14.829 2.5 17.17 5.713 17.371 23.617 25.533 37.118 35.925-1.424 4.083-1.455 8.432-1.529 12.71-.212 4.89-.54 9.777-.986 14.654-.403 4.4-1.555 9.34.04 13.622 1.018 2.701 3.296 5.521 6.308 5.879.811 7.384 1.074 14.853 1.711 22.241.761 67.668 8.499 135.695-2.183 202.994-3.936 25.558-7.175 51.443-4.494 77.304 2.013 19.214 5.819 38.221 10.001 57.058.762 2.49 2.731 4.859 5.509 4.431.958.578 2.123 1.025 3.162.521.146 12.034 1.705 24.051.843 36.093a77.943 77.943 0 0 0-1.748-1.017c-.338-.722-1.013-1.417-1.826-.986-.178-.081-.409.075-.369.259-1.483 4.022-2.482 8.397-3.305 12.623-2.889 5.558-4.642 11.752-5.225 18.012-.286 2.443-.704 5.6 1.442 7.349-.745.026-1.671.088-1.895.955-1.056 2.588-2.781 18.507 1.14 18.437 15.188.927 30.445 1.174 45.652 1.72.827.031 1.616-.609 1.829-1.392.484-1.776 1.005-3.542 1.51-5.312 24.144 13.248 81.8 5.528 96.345 2.57 2.997 0 3.191-9.331 2.997-12.175 1.691-2.144.63-5.732-.409-7.998-4.386-9.514-15.874-10.53-24.98-12.052-14.051-2.706-27.818-8.013-38.925-17.201 2.997-2.845 6.55-7.542 6.167-11.83-.399-1.866-2.075-2.902-3.911-2.79-4.18.35-7.223 4.747-9.579 7.764-.493-.521-.977-1.046-1.458-1.576-.053-1.12-.799-2.212-2.103-2.056-2.585.309-5.097.939-7.557 1.775-.609-2.83-1.732-5.595-2.36-8.438-1.656-7.126-2.047-14.411-2.203-21.71 3.018-.047 4.752-.193 7.097-1.436 1.274.375 2.716-.096 3.109-1.804 1.283-5.545 1.352-11.274 1.742-16.941 4.338-71.859 12.154-144.232 37.093-212.238 2.602 8.197 6.027 16.101 8.955 24.185 20.459 53.304 33.179 109.075 47.959 164.111a1335.15 1335.15 0 0 0 3.823 13.843c1.818 7.853 5.625 11.47 13.972 11.437a145.6 145.6 0 0 0 16.449-.171c6.47 6.117 9.603 14.29 11.87 22.653-1.652.824-6.538-.39-6.755 1.85-2.048 3.353-1.175 7.682-1.214 11.431.304 5.03.045 10.36 1.539 15.179.083 5.077.283 10.154.552 15.228-4.468 3.225-3.131 9.646-1.904 14.187-.253 3.218 26.377 1.77 30.171 2.051 6.246-.513 15.45 1.431 18.756-5.365 20.717 10.196 49.422 2.934 71.733.869a460.887 460.887 0 0 0 23.472-4.074c1.13-.228 1.676-1.517 1.442-2.54-.855-3.776-1.735-7.546-2.606-11.319Z" clip-rule="evenodd"/>
  <path fill="#EDB98A" fill-rule="evenodd" d="M201.611 64.447c19.627-1.073 37.016-6.598 50.832 5.767 0 0 22.35-16.722 26.079-10.353 2.499 4.267-.966 9.996-.037 15.263 6.059 10.348 5.716 27.863 6.059 31.968.863 10.346 6.301 49.278 6.301 58.523 0 4.719-3.883 17.078-6.301 23.956-5.383 15.309-15.658 23.111-32.509 23.111s-44.355-14.111-53.176-26.639c-.773-1.098-5.772 2.105-11.001-3.452-5.665-6.019-8.807-17.501-8.807-24.345 0-8.685-5.603-14.708-4.951-25.825 1.455-24.827 6.509-66.825 27.511-67.974Z" clip-rule="evenodd"/>
  <path fill="#9FD8E5" fill-rule="evenodd" d="M278.542 59.8c2.499 4.268-.966 9.997-.037 15.263 2.338 3.994 3.723 9.054 4.561 14l-4.581 2.436-1.695.249c-27.487 4.06-45.03 7.714-52.629 10.962-7.677 3.281-16.994 14.805-27.95 34.571l-.333.601-2.171 14.752-9.953 3.059-4.685 2.224c-.113-8.541-5.594-14.554-4.949-25.556 1.455-24.827 6.509-66.825 27.511-67.974 19.627-1.073 37.016-6.599 50.832 5.767 14.9-11.148 23.593-14.6 26.079-10.354Z" clip-rule="evenodd"/>
  <path fill="#000" fill-rule="evenodd" d="M199.418 35.582c.256-.016.514-.003.773.022.283.013.567.04.85.097 1.442.277 2.729 1.042 3.725 2.119.028.028.05.06.075.087.467.353.9.752 1.289 1.176.069-.065.134-.13.206-.196.206-.181.421-.353.645-.515a8.461 8.461 0 0 1 3.223-1.726l.162-.044c.032-.009.063-.015.094-.021a8.187 8.187 0 0 1 2.616-.422 7.557 7.557 0 0 1 3.131.553c1.18.49 2.208 1.264 3.071 2.194.566.462 1.062.97 1.585 1.529a11.71 11.71 0 0 1 2.473 4.004c.075.209.14.424.199.64a53.08 53.08 0 0 1 3.965-.316 47.276 47.276 0 0 1 4.461-.072c4.102.134 8.114.859 11.998 2.185.778.23 1.535.524 2.264.886a16.371 16.371 0 0 1 3.242 1.738l.868.516c.436.26.872.522 1.294.792a25.33 25.33 0 0 1 2.862 2.15 31.055 31.055 0 0 1 3.389 3.212c1.974 1.068 3.728 2.434 5.364 4.065a39.982 39.982 0 0 1 4.027-2.028 40.018 40.018 0 0 1 4.744-1.682 30.611 30.611 0 0 1 4.024-.827 33.31 33.31 0 0 1 1.85-.263l-.025.01a57.89 57.89 0 0 1 1.308-.125l-.012-.003c.187-.015.377-.031.564-.044l.454-.037c.137-.012.337.309.349.421l.016.116c.103.115.196.243.261.321.081-.006.162-.012.243-.016.243-.021.524.412.667.578l.129.152c.148.178.295.383.319.606.159 1.295.309 2.593.446 3.891.053.983 0 1.957-.162 2.921a789.67 789.67 0 0 1-.371 2.806c-.199.655-.395 1.31-.592 1.966-.077.25-.165.496-.249.742a40.285 40.285 0 0 1-1.777 4.803c.507.562.98 1.145 1.42 1.747a8.6 8.6 0 0 1 .31.328.315.315 0 0 1 .113-.106c.149-.065.258.013.352.141a8.348 8.348 0 0 1 2.136 3.286l.276.652.135.328c.352.949.623 1.922.848 2.908.2.776.344 1.562.437 2.357.673 2.263 1.205 4.579 1.706 6.863.08.36.042.68-.073.954l.294.286.501.5c.842.842 1.701 1.726 2.327 2.727.648 1.04 1.124 2.15 1.654 3.252l.114.234.233.47c.252.512.373.795.596 1.415.371 1.033.57 2.072.664 3.167.137 1.595.118 3.333-.579 4.815-.004.013-.01.022-.016.032-.318 1.432-1.103 2.761-2.296 3.61a4.541 4.541 0 0 1-.822.627c-.702.414-1.348.451-2.115.259l-.096-.025a9.15 9.15 0 0 0-.268-.065c.124.103.187.225 0 .312a1.602 1.602 0 0 1-.495.156c.065.084.071.175-.066.25-.299.159-.542.209-.791.165l.053.434c.408 3.283.774 3.932 1.093 7.458a154.27 154.27 0 0 0 1.013 10.798l.16 1.303c.512 4.129 1.088 8.289 1.97 12.352a80.62 80.62 0 0 1 1.152 5.365c.458 1.37.779 2.771.957 4.2a41.78 41.78 0 0 1 .539 4.4c.358.946.532 1.907.523 2.887a27.677 27.677 0 0 1-.137 3.938 25.354 25.354 0 0 1-.561 4.044 22.948 22.948 0 0 1-1.439 5.318 51.31 51.31 0 0 1-2.006 5.633c-1.199 2.846-2.647 5.489-4.295 8.095-1.545 2.443-3.202 4.796-5.096 6.984-2.448 2.827-5.239 5.417-8.297 7.601a40.252 40.252 0 0 1-5.51 3.446c-2.355 1.217-4.747 2.312-7.298 3.052-1.591.461-3.211.78-4.849 1.023-3.218.478-6.551.406-9.787-.153a29.867 29.867 0 0 1-6.08-1.463 45.89 45.89 0 0 1-4.634-1.976 17.83 17.83 0 0 1-2.259-1.304 25.054 25.054 0 0 1-3.41-2.668 23.015 23.015 0 0 1-1.012-.918c-.159-.14-.072-.349.112-.399l.056-.006c-.072-.066-.147-.132-.218-.2-.016-.013-.028-.028-.041-.044-.034-.031-.071-.062-.103-.093-.121-.107 0-.344.106-.4a.268.268 0 0 1 .153-.019.478.478 0 0 0-.034-.031c-.013-.009-.016-.034-.013-.059l-.046-.037c-.159-.141-.078-.347.109-.4.091-.028.241-.014.398.021l.059.013-.105-.1c-.187-.162-.128-.343.102-.399.172.01.342.034.51.075l.126.034c.062.016.121.035.183.054-.105-.097-.211-.191-.314-.288-.103-.09.006-.349.1-.402.127-.072.376.028.492.112.283.031.657.156.794.275.377.362.766.708 1.162 1.045.24.075.467.175.641.325.449.43.916.836 1.393 1.229l.362.25c.061.041.121.082.183.121.685.403 1.37.802 2.052 1.205 2.501.849 5.002 1.698 7.5 2.544l.331.099 2.426.3c1.595.168 3.193.159 4.787-.025a16.277 16.277 0 0 0 3.551-.347 32.985 32.985 0 0 0 5.825-1.526c2.18-.795 4.257-1.844 6.285-2.973a37.78 37.78 0 0 0 2.149-1.302c.228-.162.455-.328.682-.496a56.725 56.725 0 0 0 4.311-3.598 34.937 34.937 0 0 0 1.872-1.86c.087-.094.171-.184.255-.278a35.505 35.505 0 0 0 1.667-1.956l.507-.574c2.05-2.556 3.872-5.305 5.51-8.136a51.124 51.124 0 0 0 4.031-8.813c.342-1.089.641-2.193.891-3.31.461-1.343.763-2.719.903-4.123.047-.275.084-.549.121-.824l.022-.433.006-.216c.063-.437.116-.874.156-1.311.025-.439.041-.88.044-1.32l-.035-2.699a6.72 6.72 0 0 1-.024-.259l-.069-.596c-.149-1.23-.265-2.462-.414-3.692 0-.006 0-.015-.003-.025-.056-.459-.116-.92-.184-1.382-.034-.275-.078-.549-.118-.824l-.078-.48a30.957 30.957 0 0 0-.533-2.486l-.093-.351-.542-2.731-.611-2.687a74.44 74.44 0 0 1-.987-5.442 212.405 212.405 0 0 1-1.231-8.763c-.018-.14-.037-.284-.052-.424a117.394 117.394 0 0 1-.785-8.183 112.968 112.968 0 0 1-.393-8.104c-.003-.122.078-.221.175-.278l-.009-.52c-.012-.46-.02.092-.024-.432l-.006-1.443c.001-.121.002-.204.004-.21-1.664.115-2.783.02-4.39-.064l-.272-.014a36.965 36.965 0 0 1-4.392-.475c-.006.076-.056.128-.14.144-.15.006-.29.006-.433.01l.053.202c.003.103-.044.169-.144.197l-.415.018c-.555.024-1.111.035-1.662-.04a10.107 10.107 0 0 1-1.458-.318 8.615 8.615 0 0 1-.906-.206c-.791-.228-1.576-.534-2.37-.777-.81-.172-1.633-.228-2.492-.022-.91.215-1.679.605-2.632.368a3.967 3.967 0 0 1-.558-.194l-.17-.011-.088-.01c-.994-.144-1.878-.774-2.825-1.111a1.533 1.533 0 0 0-.979.073l-.08.036-.315.234c-.126.15-.252.301-.376.453l-.184.227c-.34.422-.701.799-1.14 1.074-.53.49-1.159.777-1.91.795-.426.013-.85-.078-1.261-.208-1.551.48-3.211.577-4.759.109a6.885 6.885 0 0 1-1.791-.518 7.474 7.474 0 0 1-.804-.425c-1.093.462-2.127 1.077-3.183 1.608l-.238.119c-1.079.539-2.273 1.064-3.494.985-1.538-.1-3.049-.306-4.556-.565a.193.193 0 0 1-.041-.006l-.207-.035-.755-.132-.608-.114-.311.12c-2.496.946-5.232 1.684-7.74 1.022a6.838 6.838 0 0 1-3.043-1.129c-.031-.022-.063-.044-.094-.069a2.976 2.976 0 0 1-.405-.249l-.026-.021-.024-.02-.012-.007c-1.367-.63-2.152-1.972-2.015-3.476a3.964 3.964 0 0 1 .012-1.444c-.445.527-.9 1.048-1.361 1.566-1.686 2.034-3.337 4.109-4.866 6.269l-.351.5a44.558 44.558 0 0 0-2.345 3.685 122.028 122.028 0 0 1-2.259 3.714 76.78 76.78 0 0 0-2.922 3.431l-.401.504-1.352 1.781a16.715 16.715 0 0 0-2.376 3.726 36.341 36.341 0 0 0-1.414 2.937c-.137.303-.268.609-.396.914a30.38 30.38 0 0 0-1.099 3.67c-.233.91-.4 1.833-.499 2.768l-.031.313c-.037.367-.065.736-.081 1.104.091.053.165.106.221.159l.228.082.184.054c.286.089.781.273.663.501l-.601 1.148c.062.066.09.134.05.21-.402.77-.807 1.541-1.212 2.312a.156.156 0 0 1-.056.065c.346.159.682.334 1.003.524.626.375 1.087.809 1.514 1.314.448.269.872.562 1.27.899a9.473 9.473 0 0 1 1.287 1.701c.336.58.61 1.185.822 1.819.093.334.137.68.134 1.033-.377 2.665-3.42.839-3.479.605-.418-1.61-.897-2.627-1.975-3.825l-.028-.019c-.623-.275-1.24-.546-1.884-.759-.097.019-.197.032-.296.047.112.16.056.316-.171.343-.982.194-1.972.247-2.969.163l-1.514-.215a9.548 9.548 0 0 0-1.793.92l-.188.125-.034.025c-1.461 1.176-2.588 2.74-3.361 4.444-.068.151-.134.305-.197.459l-.092.233-.006.013c-1.01 3.973-.109 8.335 1.734 11.939a98.587 98.587 0 0 0 3.153 4.747l1.065 1.395a53.86 53.86 0 0 1 1.847 1.825c.093.094.193.188.293.278.317.209.641.394.971.55.128.043.259.084.39.118a4.864 4.864 0 0 0 2.002.487 7.227 7.227 0 0 0 2.693-.324l.173-.057.128-.047c.473-.303.912-.68 1.33-1.123.093-.097.268-.097.467-.044.109-.112.218-.231.321-.359.071-.078.183-.081.271-.022.296-.034 1.096.422.887.662-.034.056-.078.106-.115.159.14.072.28.153.405.238.654.181 1.62.835 1.542 1.032l-.01.016a2.217 2.217 0 0 1-.59.718l-.082.062-.184.128c.258.162.476.349.367.48a1.837 1.837 0 0 1-.165.275 253.5 253.5 0 0 1 1.58 1.979 15.888 15.888 0 0 0 1.943 3.179 13.603 13.603 0 0 0 2.327 2.881c.075.075.152.147.227.219.668.494 1.367.957 2.094 1.402l.314.189c.165.1.442.224.311.465a.23.23 0 0 1-.056.075c.458.3.932.583 1.421.846l.046.028c.185.118.435.333.172.508-.225.15-.82-.256-1.1-.443a.64.64 0 0 1-.177-.034c.093.05.185.104.278.156l.142.078c.109.065.645.421.271.571a.762.762 0 0 1-.508-.138c-.183-.09-.364-.186-.542-.287.063.097.063.194-.093.257a.94.94 0 0 1-.159-.007c.368.234.744.453 1.134.658l.063.04c.164.107.427.31.236.485-.215.193-.807-.219-.96-.312l-.454-.272a.321.321 0 0 1-.112.025c.137.085.264.175.405.256l.19.104c.239.132.577.35.454.567-.122.215-.485.038-.72-.101l-.252-.157-.034-.02-.009.038-.009.018c-.117.204-.411.071-.614-.047l-.162-.099c-.276-.167-.55-.332-.821-.498l-.406-.251h-.006c-1.405-.846-2.704-1.688-3.928-2.774a24.108 24.108 0 0 1-2.062-2.069c-1.302-1.47-2.271-3.152-3.205-4.868-.016-.029.006-.1.044-.179a23.197 23.197 0 0 1-.303-.649c-.959.269-2.03.347-3.018.282a8.103 8.103 0 0 1-1.573-.269c-1.66-.231-3.261-.989-4.644-1.897-.087-.057-.165-.119-.246-.175a10.963 10.963 0 0 1-1.626-1.124 27 27 0 0 1-2.828-2.718 31.259 31.259 0 0 1-1.781-2.331c-.567-.796-1.14-1.591-1.713-2.387-1.592-2.497-2.611-5.371-3.006-8.307a16.735 16.735 0 0 1-.271-3.271c.015-.789.103-1.588.255-2.384-.09-.087-.18-.174-.271-.265-.05.087-.099.15-.131.119l-.713-.717c-.507-.511-.847-.887-1.429-1.714-.929-1.32-1.62-2.772-2.134-4.3a14.961 14.961 0 0 1-.713-3.536c-.031-.2-.063-.403-.087-.609-.2-1.626-.016-3.183.23-4.787.016-.106.069-.171.14-.206.018-.127.04-.257.061-.387-2.063-2.189-3.548-4.826-3.427-8.011a8.25 8.25 0 0 1 .636-2.916l.048-.105c-1.722-.265-3.088-1.477-4.115-2.979a10.217 10.217 0 0 1-.264-.217c-1.835-1.571-3.107-3.794-3.978-6.143a14.401 14.401 0 0 1-1.213-4.332c-.012-.108-.02-.215-.029-.323a27.787 27.787 0 0 1-.338-7.182 35.767 35.767 0 0 1-1.014-4.503c-.112-.73-.19-1.46-.249-2.191l-.006-.04-.01-.131-.026-.328a8.809 8.809 0 0 1-.011-.162c-.526-6.685.966-13.263 3.432-19.454.215-.557.437-1.112.666-1.663l.243-.576c2.476-4 6.194-7.236 9.344-10.654 1.086-1.179-.671-2.949-1.762-1.765-2.092 2.27-4.337 4.445-6.364 6.78a8.75 8.75 0 0 1-1.074.017 8.529 8.529 0 0 1-1.813-.29c-1.46-.216-2.79-.805-3.999-1.673-1.616-.755-2.996-2.178-3.133-4.035a3.547 3.547 0 0 1 0-.555c-.15-.909-.016-1.86.364-2.737a4.8 4.8 0 0 1 .256-.712c.308-.696.816-1.363 1.435-1.816.016-.01.028-.015.041-.025.065-.068.128-.137.199-.2.106-.096.218-.187.337-.27a17.06 17.06 0 0 1-1.125-2.164c-.352-.824-.532-1.66-.632-2.543-.041-.35-.056-.696-.062-1.042-.019-.16-.032-.322-.044-.484-.078-1.236.065-2.518.526-3.673.035-.087.078-.175.119-.265a7.52 7.52 0 0 1 .302-.78 7.34 7.34 0 0 1 1.922-2.5c.436-.44.925-.83 1.457-1.16a6.092 6.092 0 0 1 1.05-.516c.673-.356 1.536-.68 2.236-.705.084-.003.159.007.24.007.066-1.792.296-3.743 1.003-5.365.411-1.176 1.028-2.222 1.956-2.974a5.222 5.222 0 0 1 2.03-1.32l.147-.05.056-.016c.745-.362 1.548-.505 2.374-.502.962-.05 1.943.131 2.781.574.175.094.362.21.539.334.134-.268.284-.54.455-.811a12.113 12.113 0 0 1 2.168-2.569c.099-.09.208-.171.314-.258a12.61 12.61 0 0 1 1.29-1.027 10.763 10.763 0 0 1 3.146-1.501 10.49 10.49 0 0 1 4.004-.652l.281.012c.063.006.125.01.184.012 1.349.088 2.679.419 3.95.918 1.317.521 2.432 1.31 3.469 2.215a5.74 5.74 0 0 1 .86-.955c.097-.083.199-.159.296-.237a7.565 7.565 0 0 1 1.427-1.083 5.348 5.348 0 0 1 1.541-.602 6.59 6.59 0 0 1 1.71-.34Zm-6.4 128.648c.055-.003 2.939 1.081 4.377 1.782l.07.034c1.657.824 2.455 1.417 3.944 2.475.099.072.202.181.202.287 0 1.541-.374 3.425-1.666 2.59-.187-.12-.375-.238-.565-.354l-.286-.173-.009.003c.003 0 .006-.003.009-.006a39.06 39.06 0 0 0-8.929-4.032c-.215-.078 1.376-2.487 1.815-2.353-.252-.1.996-.25 1.038-.253Zm29.584-68.056c-1.872.2-3.745.398-5.617.591-1.193.138-2.389.26-3.585.362-1.797.135-3.594.156-5.385-.09a17.842 17.842 0 0 1-1.875-.365c-.421.309-.857.599-1.302.877l-4.946 3.791c-3.317 2.612-6.563 5.38-9.485 8.435-5.102 5.338-9.258 11.582-11.871 18.499-.237.14-.42.384-.481.759-.462 2.835-1.812 5.421-2.299 8.245-.481 2.781.158 5.145 1.902 7.349.372.471 1.134.446 1.602.128.109.214.58.205.745-.74.776-.841 1.439-1.723 1.888-2.815.331-.803-.225-1.361-.9-1.47.28-1.011.596-2.013.952-3.005 1.053-2.946 2.392-5.76 4.077-8.401 1.483-2.322 3.199-4.344 5.043-6.372.021-.028.059-.037.099-.044l.383-.424c.053-.06.162-.053.284-.022.115-.122.227-.247.346-.368.115-.125.243-.088.314.012.196-.044.555.169.664.238.186.124.246.265.087.442a1.884 1.884 0 0 1-.084.091c.215.091.426.212.592.331.576.128 1.386.664 1.245.824a29.79 29.79 0 0 0-.865.945c.249.175.411.346.345.422a38.42 38.42 0 0 0-3.364 4.078 30.355 30.355 0 0 0-2.121 3.355 42.345 42.345 0 0 0-2.445 5.083c-.099.266-.196.531-.289.796-1.035 2.899-1.807 5.907-2.134 8.972l-.014.207c-.061 1.103-.084 4.059-.198 4.764.689.34 1.405.63 2.149.868.14.04.284.078.427.112.081-.034.165-.063.249-.088a8.785 8.785 0 0 1 2.134-.574 9.24 9.24 0 0 1 1.475-.074l.21.009c.218.006.433.022.651.044-.013-.125-.019-.247-.028-.372-.063-.04-.109-.096-.112-.172a20.659 20.659 0 0 1-.01-4.212c.094-.734.203-1.464.321-2.194.122-.599.262-1.189.414-1.779a33.435 33.435 0 0 1 1.598-4.846c1.863-4.503 4.532-8.563 7.217-12.601 1.959-2.949 3.812-5.964 5.84-8.863 1.726-2.468 3.538-4.899 5.473-7.209 1.931-2.306 3.971-4.525 6.173-6.578.355-.328.713-.646 1.078-.961 2.086-1.872 4.354-3.411 6.715-4.921.09-.06.252.006.386.118l.381-.234c.064-.04.128-.078.192-.115.059-.037.125.025.159.078.162-.085.324-.165.486-.247.118-.095.24-.186.359-.28-1.751-.088-3.499-.22-5.245-.39ZM244.56 75.37a12.305 12.305 0 0 0-4.261-.112 27.49 27.49 0 0 0-1.783.32 11.621 11.621 0 0 1 3.116 4.392c.756 1.863-2.258 2.666-3.003.83-.719-1.772-2.079-3.13-3.722-3.945-.355.199-.699.414-1.028.653-.429.35-.834.727-1.214 1.142-.829.902-1.589 2.106-2.087 3.298a12.906 12.906 0 0 0-.48 2.478c-.307 3.23.615 6.372 2.2 9.152l.063.001a29.427 29.427 0 0 1 4.421-1.944 41.308 41.308 0 0 1 3.794-2.275 39.804 39.804 0 0 1 8.724-3.37l.349-.088a37.756 37.756 0 0 1 2.15-.483l.432-.081h.006l-.046-.466c-.243-1.825-.957-3.52-1.878-5.086-.692-1.183-1.735-2.393-2.894-3.36l-.006-.004c-.526-.3-1.079-.548-1.649-.752l-.214-.075-.99-.225Zm-37.969-2.774c-2.94-.278-5.88-.25-8.82-.01a75.4 75.4 0 0 0-5.731.793 29.448 29.448 0 0 0-3.788.921l.709 1.437c1.185 2.392 2.399 4.77 3.829 7.029a33.787 33.787 0 0 0 2.411 3.336 16.704 16.704 0 0 0 1.947 2.116c.187.228.386.443.588.652a11.428 11.428 0 0 0 2.109 1.445c.612.446 1.251.837 1.917 1.179l.251.126 2.336.898.377.104.19.05.355.074.266-.145c.045-.024.09-.048.136-.07.074-.04.127.037.143.093.006.022-.003.053-.019.084l.341-.184a9.716 9.716 0 0 0 1.872.554c.302.056.604.1.906.137l.041.027.02.016h.331c2.329.225 4.69-.072 7.015-.491 3.29-.331 6.579-.697 9.866-1.038.062-.006.087.021.087.065l.203-.018c.293-.032.635.458.414.636.178.106.349.26.477.378l.074-.007c-.451-.886-.8-1.813-1.049-2.777l-.318-1.617a14.77 14.77 0 0 1-.146-1.878 10.927 10.927 0 0 1-.025-1.473 19.44 19.44 0 0 0-1.891-.671c-1.822-.225-3.641-.45-5.463-.671-1.093.04-2.187.119-3.277.24-1.236.11-2.47.25-3.7.418-.115.013-.321-.143-.445-.324l-.527.072c-.274.034-.56-.515-.199-.628.131-.052.261-.1.392-.148l.197-.07-.113.012a.345.345 0 0 1-.137-.024c-.289.037-.579.074-.866.109-.363.045-.28-.435-.025-.548l.122-.045c-.215-.135-.405-.503-.138-.623l.035-.014c.125-.05.246-.09.371-.137a.202.202 0 0 1 .003-.112l-.514.065c-.047.006.177-.322.284-.387l.018-.01.246-.074c.038-.106.237-.34.305-.362.904-.284 1.745-.54 2.623-.737a.287.287 0 0 1 .15-.106 21.287 21.287 0 0 1 1.657-.32c.037-.057.074-.098.118-.101a21.248 21.248 0 0 1 4.133-.121c.265.024.53.053.794.087.508.056 1.016.128 1.52.225 1.264.217 2.499.547 3.701.993l.277.105c.302.112.601.23.897.359.149-.534.336-1.058.557-1.573.035-.1.072-.196.113-.293l-.303-.181c-.065.124-.199.221-.286.168a36.83 36.83 0 0 0-6.868-3.657 35.097 35.097 0 0 0-4.152-1.532 50.97 50.97 0 0 0-2.137-.63 29.03 29.03 0 0 0-1.08-.213 31.048 31.048 0 0 0-5.707-.983Zm71.331 4.954a29.56 29.56 0 0 1-.826 1.35 31.614 31.614 0 0 1-5.011 5.951c.5 0 .998.018 1.489.064.849.08 1.679.222 2.489.42.066-.053.139-.08.198-.038l.211.146a16.375 16.375 0 0 1 4.846 2.198l-.027-.196a1.648 1.648 0 0 0-.015-.098 11.9 11.9 0 0 0 .019-1.148c-.306-2.25-1.069-4.322-1.941-6.42-.016-.04-.005-.092.021-.146a20.59 20.59 0 0 0-1.453-2.083Zm.401-17.69c-.651.12-1.296.272-1.937.462a15.61 15.61 0 0 0-3.501.952c-1.554.553-3.062 1.195-4.563 1.876a37.562 37.562 0 0 0-8.139 5.012c-.159.121-.311.246-.464.371-.558.483-1.1.99-1.613 1.523-.539.586-1.081 1.173-1.62 1.763-.66.693-1.42 1.32-2.018 2.069a3.785 3.785 0 0 0-.324.49l.352.121c.295.1.246.656-.047.575a2.914 2.914 0 0 1-.287-.1.34.34 0 0 1 .075.153c.019.15-.096.356-.28.303a2.118 2.118 0 0 1-.253-.088 1.212 1.212 0 0 0-.043.287.237.237 0 0 0 .05.016c.205.072.591.393.648.612.043.168-.1.349-.284.299a2.447 2.447 0 0 1-.402-.156c.088.084.156.175.162.253.013.144-.112.346-.283.3a2.16 2.16 0 0 1-.785-.39c-.056.074-.137.133-.203.115l-.121-.037c.033.03.064.063.093.095l.044.048c.86.93 1.61 1.96 2.211 3.068a.927.927 0 0 1 .106-.094c.281-.237.57-.468.86-.693l.088-.076.09-.077-.651.215.014-.016c.046-.06.189-.256.256-.322l.016-.014a14.48 14.48 0 0 1 2.922-2.038 13.013 13.013 0 0 1 2.149-1.127c1.791-.833 3.616-1.466 5.491-2.053.28-.09.561-.187.841-.275.081-.028.097.007.084.063l.147-.044c.261-.084.707.378.529.593.107.087.212.185.304.276l.067.067.074-.021c.223-.07.598.278.837.525l.176.186c.134.143.395.44.075.556l-.402.137c.012.08-.022.15-.147.196-.14.047-.277.097-.414.147.083.073.165.149.245.225l.119.115c.141.144.476.462.181.603l-.037.015-.383.137c.049.113.037.22-.131.281a61.12 61.12 0 0 0-6.553 2.669 20.342 20.342 0 0 1-5.065 1.981c-.146.047-.464-.175-.595-.396l-.265.078a4.45 4.45 0 0 1-.134.037l-.043.01c.333.89.579 1.853.716 2.786.016.084.028.172.038.256.348-.028.694-.053 1.043-.071a42.657 42.657 0 0 1 7.276.237 28.942 28.942 0 0 0 2.819-1.916c.274-.213.545-.431.813-.653a31.297 31.297 0 0 0 4.351-4.662 30.928 30.928 0 0 0 3.102-5.02 32.11 32.11 0 0 0 1.894-5.16c.442-1.625.595-3.207.707-4.89.037-.274.062-.548.084-.823l-.002-.118-.004-.057c-.031-.59-.091-1.18-.156-1.766Zm-22.821 20.9c-.072.024-.147.05-.222.071.044.097.085.19.125.287l.005-.002.294-.232a1.028 1.028 0 0 1-.202-.124Zm22.385-25.324c.561-.21.984-.25 1.271-.119-.424.031-.847.072-1.271.119Z" clip-rule="evenodd"/>
  <path fill="#000" fill-rule="evenodd" d="M259.483 189.399a12.697 12.697 0 0 1-5.34-4.107c-.475-.633-.599-1.303-.499-1.915.112-.689.52-1.313 1.075-1.731.558-.42 1.255-.627 1.929-.522.585.092 1.168.413 1.63 1.078l.096.133c.814 1.1 1.874 2.003 3.082 2.585 1.165.561 2.467.823 3.815.671 2.567-.29 4.336-1.678 6.217-3.563.233-.238.466-.483.7-.732.148-.226.354-.372.582-.448.253-.084.54-.08.802.012.253.088.479.255.631.478.144.212.226.473.199.774-.172 1.953-1.193 3.696-2.644 5.065-1.612 1.52-3.747 2.572-5.758 2.941-2.216.406-4.473.115-6.517-.719Zm7.562-30.132c2.357 1.432 5.948 4.772 3.412 8.323-2.984 3.131-7.281-.459-9.399-2.082-1.963-1.259-4.17 1.978-2.348 3.447 15.302 11.326 21.512-9.314 9.527-11.372-1.32-.227-1.81 1.241-1.192 1.684Zm-27.421-13.176c.26-3.232 5.183-3.966 5.673-.768.439 2.865-.078 5.497-1.368 8.076-1.233 2.464-4.333 1.314-4.567-.929-.315-3.008.1-4.368.262-6.379Zm37.475-1.431c.687-.898 1.678-1.512 2.865-1.165 3.71 1.084 2.616 6.349 1.313 8.912-.708 1.392-2.996 1.745-4.03.519-1.685-1.998-2.492-5.989-.35-7.958.058-.101.123-.204.202-.308Zm-33.222-12.71.585-.103c1.813-.313 4.067-.614 5.35.843.68.772.914 2.208 0 2.948-1.608 1.301-3.386.797-5.313.907a21.15 21.15 0 0 0-4.645.791c-3.356.959-6.09 2.71-8.956 4.632-.377.252-.76-.229-.581-.58 1.655-3.24 4.861-5.902 8.073-7.524 1.714-.866 3.59-1.585 5.487-1.914Zm29.841-1.452.448.092c4.881 1.02 11.222 3.058 13.534 7.851.088.678-.005.823-.081.918l-.025.031c-.063.081-.112.193-.406.285a8.108 8.108 0 0 1-.247-.062c-1.06-.277-1.898-.66-2.71-1.056l-.879-.434c-1.021-.5-2.051-.982-3.142-1.338a37.019 37.019 0 0 0-7.158-1.581c-.528-.062-1.035-.239-1.436-.544a2.16 2.16 0 0 1-.803-1.223c-.172-.69-.122-1.212.248-1.833a2.318 2.318 0 0 1 1.133-.977c.466-.19.996-.234 1.524-.129Z" clip-rule="evenodd"/>
</svg>
