<svg xmlns="http://www.w3.org/2000/svg" fill="none" viewBox="0 0 515 1027">
  <path fill="#694D3D" fill-rule="evenodd" d="M394.744 357.041c8.383 9.795 7.642 12.518 3.175 22.407-9.868 22.946-24.018 46.271-40.081 67.547 1.06-47.735 1.972-95.729 3.54-143.899 9.552 18.612 19.723 35.424 33.366 53.945Zm1.581 589.97c5.278-.51 42.418.861 32.478-9.956 3.068-6.654-5.503-12.267-10.785-17.328-4.942-4.709-9.812-9.942-14.887-15.996-4.726-5.613-10.053-12.248-13.497-19.99-.762-1.213-1.536-2.063-2.303-2.527l-.442-.268-.276-.437c-2.907-4.634-5.306-9.422-7.948-14.142 6.46-2.331 12.329-4.672 19.645-7.908-10.324-60.727-25.796-119.893-35.801-180.8-6.089-53.001-9.358-106.5-23.292-158.698l-1.783.137-.993-3.421c1.463-.038 4.428-.137 5.896-.194l-.344 1.75c6.643-.768 13.152-2.659 19.61-4.263 3.295-.45 6.6-2.804 5.414-6.728-.382-5.692-1.561-11.246-2.116-16.936 2.102-1.434 4.27-3.07 6.346-4.747 5.492 2.587 12.129 10.939 18.134 8.814 14.033-18.814 25.81-41.431 36.468-59.5 25.74-41.785 33.91-67.905 7.362-111.475-22.953-36.5-47.712-94.514-93.725-103.674-5.166-.963-10.579-1.004-15.544-3.355-.255-3.371-1.941-5.308-3.176-5.335-2.998-.658-6.29-1.716-9.218-1.743-1.032-.43-2.292-.076-3.284.118-2.951-5.916-2.687-13.47-5.921-19.016-.117-4.202-1.399-8.845-14.365-9.69-8.825-.736-21.325-1.445-28.38 2.408-4.936 3.969-4.987 12.862-4.368 19.129.68 4.602.376 9.954-3.232 15.359-10.283-3.171-17.454 3.531-23.891 16.036-26.946 3.664-32.757 5.745-43.212 32.407-4.986 11.563-10.177 23.915-14.064 36.573-5.205 15.474-5.662 31.671-10.723 47.254-13.743 34.345-27.719 56.509-32.12 96.493-2.148 17.654-.914 26.408 1.128 29.06 5.808-1.678 13.301-2.962 19.401-3.677l-6.527 4.959c5.531 25.051-10.4 96.491 32.793 91.003.383-.932-.321-6.061-.506-8.189 1.18.083 3.364.16 4.527.014 2.06 5.937 5.152 11.272 7.104 17.311.966 3.68 2.186 7.384 3.379 10.962 27.201 91.508 32.587 179.603 20.449 271.471l.548.199.223.395.333.125c.857 1.142 2.071 1.191 4.008 1.195 11.898.417 22.351.954 32.046 1.223-1.029 5.143-.37 10.556.083 15.787-5.642-.395-10.819 1.892-15.976 4.639-9.854 4.832-19.669 9.908-29.21 15.457-9.473 6.055-24.793 11.233-17.187 22.116l-2.199.863a.865.865 0 0 0-.149.072c-.26.924 2.719 4.751 3.602 4.709 20.831.971 38.598-3.888 65.245-8.979 6.1-2.21 36.828-5.97 36.957-11.774-.098-1.809-1.97-1.686-3.275-1.913 3.914-19.747-9.319-21.341-11.213-39.259 2.62.498 5.452.925 8.136.19 2.355-38.238-1.429-77.381 2.755-115.994l4.253-.47c14.296 42.016 29.119 85.005 40.504 128.648.217.948 1.281.3 1.767-.047 7.441-.176 14.884-.97 22.181-2.221.175 4.292.359 8.664.54 12.953l-1.124.603c-.725 1.008-.42 5.729-.289 7.76.133 2.078.242 3.58.058 4.99-2.347 4.621 5.677 14.636 9.921 20.205 9.247 11.955 16.907 29.659 34.051 27.263Z" clip-rule="evenodd"/>
  <path fill="#fff" fill-rule="evenodd" d="m351.689 903.626.364.557c.466.719.891 1.396 1.309 2.092l.244.41.825 1.229.535.806a406.608 406.608 0 0 1 2.64 4.057l2.977 4.63 1.248 1.926c3.127 4.805 5.154 7.743 7.534 10.863l.615.799.32.4.318.391c5.642 6.876 11.738 11.564 18.65 13.54l.23.065.216.06.223.018c9.657.777 19.317-.053 32.418-2.346l.84-.149 1.017-.182 2.213-.404.519-.52c3.03-3.04 3.447-6.545 1.586-10.04-1.218-2.289-3.089-4.269-6.448-7.185l-2.62-2.262c-2.413-2.093-2.813-2.504-3.411-3.323l-.246-.341-.116-.121c-10.843-11.297-19.9-22.18-26.891-34.992l-.271-.499-.409-.757-.802-.312c-6.569-2.562-13.925-2.275-20.084.853l-.202.104-.197.105-.202.111c-1.036.577-1.904 1.202-3.41 2.39l-.844.666-.396.308c-1.309 1.006-2.067 1.491-2.986 1.893-1.779.779-3.892.649-4.604-.115l-.039-.044-.034-.044-.944-2.627-1.685 17.99Zm-73.757-25.029c-.31.965.875 4.786.014 6.102-.775 1.186-3.502.861-5.394.841l-.385-.007-.393-.011a54.092 54.092 0 0 1-2.126-.119l-2.506-.183-.209-.013-.204-.011-.392-.019-.246-.009-.094-.007c-3.099-.243-5.647-1.932-10.623-3.887l-2.316-.918c-2.323-.915-3.627-1.389-5.198-1.872l-.227-.069-.12-.023c-4.43-.861-9.966.807-17.485 4.553l-.476.239-.511.259a165.134 165.134 0 0 0-3.889 2.057l-2.203 1.21c-1.532.845-3.427 1.893-4.095 2.257l-.636.345-.579.311c-1.441.769-2.592 1.349-3.592 1.805l-.33.149-.079.042c-8.614 4.662-16.528 9.267-23.959 13.982l-.583.371-.197.108c-8.943 4.955-9.067 12.956-.645 18.517l.258.167.269.17.648.404.763-.055c13.003-.934 26.449-2.846 41.217-5.736l1.449-.286c11.06-2.197 21.973-4.724 37.451-8.575l3.057-.763 4.981-1.251.129-.012c5.433-.561 8.444-4.63 8.439-10.245l-.003-.318.001-.265c.006-5.892-2.561-11.324-4.748-15.723l-.114-.226-.116-.225-4.003-3.061Z" clip-rule="evenodd"/>
  <path fill="#78E185" fill-rule="evenodd" d="M340.514 516.165c1.005-.069 2.211-.123 3.545-.183 7.115-.32 17.728-.884 21.559-4.463.058-.055.116-.111.173-.168l.022-.23c.343-3.69-.268-7.448-.882-11.184-.312-1.9-.624-3.794-.802-5.669a46.744 46.744 0 0 1-.089-1.07c-.288.205-.583.409-.884.611-11.066 7.44-20.281 6.24-29.765 5.035-6.446-.819-13.015-1.642-20.347.061-2.045.482-4.223 1.356-6.454 2.255-4.958 1.997-10.218 4.211-14.812 1.874-1.139-.924-1.833-1.784-2.153-2.601-.324-.824-.235-1.585.129-2.284 1.176-2.256 4.855-3.909 7.691-5.081l.302-.124 5.213-2.113c-1.659.194-3.31.403-4.937.671-2.168.356-4.343.825-6.524 1.295-4.699 1.013-9.427 2.038-14.167 1.916-.439-.124-.773-.327-1.011-.595-.28-.315-.425-.712-.484-1.141-.174-1.274.385-2.813 1.037-3.786 1.75-2.668 4.443-4.32 7.361-5.301l-.254-1.214c-1.074.092-2.163.309-3.255.527-1.598.32-3.203.65-4.778.532-.943-.361-1.555-.808-1.875-1.342-.344-.574-.317-1.228-.096-1.895.761-2.292 3.698-4.755 5.541-5.829 6.332-4.182 13.619-6.209 20.872-8.238 4.355-1.218 8.699-2.434 12.82-4.093.293-.118.586-.238.877-.361a7.752 7.752 0 0 0-.703-.691c-2.897-2.482-8.357-2.952-13.84-3.361-4.17-.312-8.338-.605-11.227-1.925-1.923-.879-3.253-2.234-3.5-4.451.145-1.34.565-2.407 1.203-3.247.721-.95 1.715-1.606 2.867-2.059 3.379-1.327 8.073-.938 11.766-.566l1.6.164.568.056c14.898 1.715 29.404 7.249 41.735 15.734l.473.326.366-.444a436.844 436.844 0 0 0 11.338-14.352l.006-.197c.456-15.784.698-31.638.94-47.503.471-30.901.943-61.843 3.004-92.393l-.604-1.238-1.174-2.413.458.752.88 1.457 1.267 2.112.016-.511.023.043a.839.839 0 0 1 .278.003c.303.053.512.251.645.504.193.37.24.85.168 1.313-.01.065-.022.129-.037.193l.102.193c.203.386.407.771.612 1.156 7.91 12.798 16.168 25.36 24.991 37.506 1.326 2.239 3.378 4.718 5.532 7.314 4.406 5.312 9.359 11.134 8.81 16.433-11.179 32.797-31.224 62.243-52.763 89.202-.098.122-.195.244-.287.367l.263.379c8.287 11.86 19.064 22.002 31.491 29.458.448.244.9.533 1.367.831 1.267.809 2.642 1.654 3.903 1.795 1.045.118 2.037-.184 2.876-1.272 18.615-28.677 36.193-58.174 51.347-88.777 13.137-24.035 6.871-51.659-6.24-74.268l-1.143-2.059c-.886-1.598-1.773-3.199-2.66-4.804-17.91-32.361-36.45-65.836-64.4-90.47l-.484-.385c-7.318-5.789-15.538-11.075-24.865-12.708-1.83-.298-3.694-.401-5.558-.502-3.11-.17-6.226-.328-9.138-1.47-.295-.116-.584-.24-.868-.371-.006.336-.002.664.014.983.228 4.536.107 8.309-.879 1.776-.096-1.754-.258-3.141-.516-4.255-.44-1.811-1.124-2.937-2.136-3.748-1.114-.893-2.661-1.394-4.847-1.948l-2.244-.558-1.356-.342c-5.105 44.842-16.241 88.696-27.377 132.558-13.615 53.625-27.229 107.261-29.864 162.721l-.03.229c-.206 1.668-.228 3.612.457 5.057.551 1.162 1.527 2.039 3.195 2.273 2.58.623 5.286.951 7.954 1.273.706.086 1.409.171 2.105.261l1.406.184c22.574 2.93 45.406 3.694 68.149 3.038l.536-.016.015-.122.441-.03Zm-211.289-48.587a104.956 104.956 0 0 0 .567 6.146l.694-.182c9.768-2.526 19.959-3.964 30.038-2.796l.63.074c.021-.209-1.376 13.112 13.688 35.685.368.731 2.717 3.039 2.763 3.159l.383.041c13.062 1.385 26.26 1.224 39.268-.646l.519-.076c.007-.175.013-.349.018-.524.176-6.088-.643-12.13-1.466-18.178-.88-6.473-1.766-12.953-1.397-19.506l-.026-4.815c-.401-78.314.63-158.426 23.793-233.855.065-3.014 8.652-10.229 8.851-10.452a32.007 32.007 0 0 0 2.713-3.479c.277-.411.545-.83.801-1.255-.441.1-.918.199-1.434.294-2.114.389-3.622.484-4.81.559-3.45.218-4.383.208-8.953 6.056-4.913 7.322-10.694 11.822-10.477 11.46-.42.047-.842.095-1.266.146-8.592 1.026-16.262 2.648-22.397 6.56-5.054 3.221-9.082 7.988-11.724 15.258l-1.358 3.166c-8.655 20.212-17.103 40.74-20.976 62.464-2.092 17.481-7.078 34.165-15.143 49.797-13.571 29.695-25.173 61.823-23.299 94.899Z" clip-rule="evenodd"/>
  <path fill="#9DDADB" fill-rule="evenodd" d="M237.957 235.826c-14.778 54.005-19.856 115.349-21.555 171.106l-.103 3.413-.21 7.105c6.744 1.009 16.107.282 22.898.381 8.291.507 18.619-.064 26.711 1.283l.505.087.329.066.397-1.885c12.093-57.162 29.597-116.604 40.218-174.094-1.866 1.104-4.285 1.541-6.31 2.05-13.773 3.345-29.973 2.714-44.108 1.903-8.056-.064-14.745-4.503-18.772-11.415Z" clip-rule="evenodd"/>
  <path fill="#000" fill-rule="evenodd" d="M304.528 189.872c-2.519-1.703 1.068 13.077 1.074 14.499l.064.31c.627 3.01 1.733 6.512 4.277 8.443-1.173 9.581-2.634 19.132-4.431 28.613l-1.058.139c-15.686 2.074-31.476 4.926-47.425 3.44-8.593.068-14.282-5.799-17.746-13.075.234-.858.469-1.713.71-2.571 10.913-6.668 19.176-20.199 14.26-32.973-.21-.546-.861-.583-1.196-.299-.055.005-.104.049-.101.109l.162 2.492c.343 5.438.496 11.074-2.456 15.97-11.873-2.702-19.256 7.176-24.221 16.523l-3.566.527c-13.645 2.022-26.803 4.416-33.541 18.362l-.923 1.959c-9.414 20.04-18.188 40.647-23.323 62.227-2.585 11.481-3.521 23.311-7.313 34.508-7.875 20.792-18.972 40.331-24.989 61.857-3.734 7.767-14.241 66.231-3.875 66.675a93.386 93.386 0 0 1 11.361-2.656c-.591.45-.807 1.215-.695 1.995 1.34 9.371 1.44 18.864 1.434 28.314-.708 22.885-.073 72.122 34.471 64.219 2.522-.926.885-4.961.986-7.78.197.009.397.006.598-.007 1.983 5.34 4.764 10.268 6.507 15.694 1.477 4.663 2.51 9.678 4.569 14.143 21.811 77.39 30.815 158.787 22.287 238.887a561.932 561.932 0 0 1-1.619 14.368c.076 2.989-3.474 15.505-.287 16.346.124.241.554.519.811.605 1.935 2.084 5.153 1.312 7.708 1.588 9.029.401 18.058.772 27.092 1.071-.541 3.824-.105 7.706.216 11.525-6.588.054-12.642 4.055-18.469 6.771a434.216 434.216 0 0 0-25.518 13.64c-7.71 5.384-24.936 10.583-19.009 22.79-4.419 1.79 1.722 9.273 5.079 9.357 21.857-.11 43.574-5.057 64.934-9.399 12.136-3.2 25.378-4.416 36.605-9.934 3.187-1.438 2.52-7.172-.986-7.705 2.604-19.118-7.964-18.854-10.935-34.776 1.729.282 3.64.123 5.374-.228 4.015 3.706 2.54-25.462 3.086-28.311.108-29.908-1.312-59.88 1.881-89.686l5.427 15.942c12.651 37.209 25.113 74.513 35.032 112.553.594 2.296 3.01 2.571 4.553 1.569 6.513-.19 13.001-.802 19.427-1.838.125 3.043.253 6.085.382 9.128-2.772 1.49-.895 10.879-1.249 14.055-3 6.895 9.159 20.169 13.157 25.858 7.13 9.937 14.206 23.84 27.993 24.303l.419.01c10.29.25 20.673-.35 30.863-1.816l1.1-.179c2.942-.486 6.236-1.175 7.936-3.797 1.433-2.21 1.258-5.062-.482-6.75 2.298-8.321-6.647-13.36-11.643-18.427-9.333-8.985-17.816-18.868-25.151-29.54l-.421-.996c-1.36-3.201-2.985-6.755-5.516-8.288-2.413-3.825-4.476-7.851-6.657-11.806 5.953-2.181 11.815-4.618 17.611-7.183 1.154-.513 1.521-2.01 1.319-3.123l-.014-.076c-11.317-58.649-24.884-116.879-35.437-175.663-6.739-54.175-9.502-109.039-23.672-162.023 6.874-.713 13.716-2.685 20.462-4.37 5.409-1.149 8.144-3.89 7.077-9.608-.367-5.081-1.386-10.08-1.937-15.141a85.42 85.42 0 0 0 4.213-3.149 108.898 108.898 0 0 0 7.84 5.327c6.437 4.627 11.405 5.347 15.382-2.237 11.518-18.16 22.625-36.585 33.108-55.36 9.722-18.011 21.773-35.985 24.241-56.722 3.585-37.319-40.287-97.041-62.265-127.371-12.12-14.609-26.881-29.645-46.077-33.893-5.905-.873-12.129-.992-17.758-3.13-.457-2.731-1.743-5.246-4.645-5.914-3.053-.674-6.326-1.715-9.402-1.791-.695-.196-1.515-.319-2.25-.184-2.105-5.456-2.414-11.603-4.83-16.936Zm117.596 751.917c-.526.259-1.071.484-1.628.683-.685.094-1.367.181-2.05.259a60.775 60.775 0 0 0 3.678-.942Zm-68.304-53.038c10.082 3.653 12.854-13.497 32.684-6.557 7.75 14.362 17.783 27.407 29.251 39.005 4.076 5.057 16.141 10.801 9.639 18.218l-.995.182c-11.291 2.05-22.752 3.679-34.258 2.751-8.695-2.394-15.215-9.35-20.485-16.364-3.812-6.746-8.272-13.094-12.825-19.354-2.503-3.113-2.757-7.074-2.745-10.904-.085-2.328-.172-4.653-.266-6.977Zm-113.264-8.42c4.281-1.567 8.672-.093 12.566 1.83 6.652 2.97 21.059 6.53 27.214 1.793 3.017 4.983 4.029 10.521 3.201 16.268l-.009.356c-.07 2.32-.395 4.189-3.22 4.353l-8.022 2.014c-27.06 6.782-54.387 13.338-82.241 15.224-7.434-4.633-7.643-10.724.259-14.967l2.022-1.236c15.514-9.475 31.39-18.787 48.23-25.635Zm-58.871 39.408c.075.127.147.255.223.38a1.5 1.5 0 0 0-.323.225c0-.209.031-.415.1-.605Zm198.375-50.776c-.104 2.106.932 4.484 1.662 6.375.428 1.117.87 2.712 1.552 3.991-16.956-4.993-22.113 9.638-28.226 6.595l-.186-.097v-.004c1.248-2.845-.113-6.852-.952-9.689 8.903-1.608 17.645-4.109 26.15-7.171Zm-133.97-4.503 4.888.15c7.603.23 15.208.431 22.816.42-.796 5.459.762 14.464 4.301 18.706.006.003.012.003.015.006-10.015 1.513-19.501-3.067-28.421-6.919-.376-4.183-2.021-8.452-3.599-12.363Zm32.706 16.629.914 1.704a2.824 2.824 0 0 1-.442.397c.093-.709-.159-1.41-.472-2.101Zm102.356-12.516c.169.733.366 1.466.576 2.2-.319-.721-.683-1.411-1.123-2.004l.547-.196Zm-106.832-3.539.535.006.004.306c-.126.209-.147.465.009.67.019.943.059 1.888.131 2.834l-.178-1.091a66.096 66.096 0 0 0-.501-2.725Zm6.801-.312-.028.474c-.685-.025-1.377.003-2.059-.031a9.19 9.19 0 0 1-1.102-.147 23.596 23.596 0 0 0 3.189-.296ZM159.314 473.609c.338.397.707.637 1.083.759-.003 9.009 1.818 17.869 6.81 25.67 2.076 2.75 3.249 5.879 4.253 9.141 5.279 14.927 6.259 30.962 4.335 46.594-5.187-7.597-7.248-16.663-8.698-25.602-.078-.449-.823-.443-.904 0-1.753 9.568 1.26 18.965 4.864 27.808 2.25 1.607 1.714 5.813 1.984 8.288-38.243 5.564-24.944-67.741-29.842-90.317-.091-.621-.62-1.073-1.221-1.264 5.736-.874 11.548-.938 17.336-1.077Zm180.093 45.035c-.047.24-.088.48-.119.72l-.206-.708c.106-.003.215-.006.325-.012Zm-25.845-310.069.669.175c7.066 1.819 9.353 1.569 9.753 10.088 1.737 11.561 8.149 21.645 11.032 32.823 1.153 3.948-.067 11.223-5.533 10.155-1.772-.543-3.152 1.841-1.813 3.105 3.96 3.738 7.803 7.592 11.668 11.421-15.521 52.302-35.684 103.245-60.245 151.984-.973 1.935 1.947 3.636 2.914 1.701 24.417-48.895 44.724-99.821 60.486-152.137l.476-1.586c.696-1.926-8.204-8.828-9.825-11.081 16.252-7.818-6.438-35.197-7.054-48.382 4.651 2.042 9.924 1.309 14.838 2.131 9.427 1.651 17.701 7.087 25.055 12.956 29.874 26.335 48.964 62.796 68.06 97.162 13.006 22.423 19.275 49.834 6.224 73.685-15.143 30.581-32.709 60.057-51.281 88.672-2.04 2.649-5.178-.396-7.327-1.507-12.352-7.411-23.063-17.493-31.301-29.281 19.971-24.464 37.366-51.199 49.669-80.328l.17-.338c2.76-5.539 4.942-12.24.338-17.456-16.351-20.909-30.893-43.105-44.577-65.82-.142-.228-.457-.028-.354.209a246.319 246.319 0 0 0 4.428 9.452c-3.116 46.185-2.59 93.273-3.937 139.752a439.392 439.392 0 0 1-11.201 14.17c-12.417-8.542-27.024-14.114-42.024-15.84l-.97-.097c-6.372-.655-16.895-1.888-17.731 6.37 1.033 10.16 22.064 4.448 28.788 10.21-11.022 4.435-23.653 5.685-33.773 12.37-3.246 1.891-9.609 7.915-3.393 10.22 2.713.232 5.515-.82 8.225-1.051-3.051 1.026-5.856 2.764-7.643 5.489-1.286 1.869-2.225 5.748.849 6.547 7.006.198 13.984-2.083 20.885-3.217l-.614.248c-5.03 2.056-12.85 5.75-6.074 11.196 6.782 3.505 14.995-2.458 21.751-4.05 18.199-4.227 31.662 7.358 50.317-5.185.53 4.192 1.325 8.355 1.643 12.57l.041.238c.647 3.848.093 5.237-4.062 5.972-5.011 1.511-10.258 1.985-15.464 2.265a417.114 417.114 0 0 1-75.162-2.82c-3.581-.959-11.992-.055-13.489-3.989 2.805-101.254 45.065-196.53 56.702-296.469.191-.961.203-1.941-.134-2.702Zm-70.636 8.653c1.998.082 3.858.514 5.846.715-1.101 2.338-6.911 5.645-6.382 6.806-.419.324-.845.636-1.277.939.601-2.109 1.209-4.216 1.817-6.326-22.078 53.714-25.111 117.267-28.044 175.864-.967 29.545-1.492 59.183-.063 88.71.795 7.842 2.899 15.768 2.326 23.688-12.957 1.864-26.103 2.023-39.113.644a31.232 31.232 0 0 0-1.313-2.975c-19.476-23.717-9.148-53.439.23-79.13 5.671.24 11.375-.119 17.051-.049-1.754 5.421-2.206 11.158-3.139 16.764-.636 3.995-1.447 7.958-2.378 11.893l-.283 1.181c-.347 1.413-.77 2.928-.275 4.323.501 1.42 2.229 1.994 3.374.889 2.065-2.351 1.844-5.855 2.51-8.771l.123-.918c1.137-8.372 2.634-17.058.556-25.365 2.039-.437 7.614 1.169 7.907-1.569-.086-4.523 3.198-14.322-.458-17.301-2.175-1.657-5.915-1.133-8.466-1.236-2.948-.118-5.893-.228-8.838-.209 23.668-57.133 17.086-74.72 14.684-131.581l-.071-1.735c.006-.375-.598-.468-.664-.091-3.619 23.291 1.205 46.872-1.08 70.236-4.059 44.392-32.22 82.506-36.928 126.686-10.153-1.177-20.426.266-30.268 2.811a103.861 103.861 0 0 1-.478-5.395c-1.869-32.976 9.715-65.002 23.23-94.578 8.1-15.699 13.107-32.454 15.203-49.973 4.069-22.818 13.199-44.313 22.3-65.511 5.754-15.849 18.191-19.586 33.613-21.427a6440.223 6440.223 0 0 0-15.533 25.883c-1.151 2.612 2.378 4.477 3.919 6.085-18.947 10.321-7.884 42.192-8.276 60.05 1.407 16.41 1.937 32.914 4.417 49.21.181 1.129 1.915.798 1.931-.26-.228-24.417-3.144-48.736-4.423-73.113l-.155-1.778c-.997-11.541-1.974-28.192 11.92-31.36 1.875-.306 2.019-3.089.513-3.926a22.78 22.78 0 0 1-5.329-4.094 4767.98 4767.98 0 0 0 15.858-26.735l.246-.415c3.731-6.322 7.196-13.678 13.66-17.556Zm45.084 232.886c1.533-4.509 16.407-1.573 20.378-1.082 14.641 2.761 29.376 9.233 40.528 19.201.688.615 1.502.605 2.143.271 4.995 6.374 10.763 12.15 17.089 17.226a72.33 72.33 0 0 1-3.571 2.64c-.586.062-1.115.366-1.352.908-17.405 12.598-30.209 2.771-48.29 5.041-6.75 1.359-12.967 5.648-19.924 5.829-5.105-1.16-.609-3.292 1.775-4.116 5.399-2.575 10.903-4.922 16.419-7.236l4.413-1.849c2.168-.908 1.424-4.182-.999-3.611a838.891 838.891 0 0 1-12.751 2.881c-8.185 1.668-16.566 3.808-24.837 4.619 1.838-5.105 21.347-10.619 27.019-12.648 2.143-1.011 8.253-.818 7.555-4.135-.563-3.087-7.065.447-9.233.699-8.848 2.242-17.88 3.601-26.897 4.968 9.685-9.706 24.697-10.543 37.066-15.089l.34-.077c2.199-.511 5.212-1.476 3.424-3.973-6.354-9.358-31.359-4.623-30.295-10.467Zm18.3-52.111c-4.511-3.697-6.928 3.897-6.642 7.427-.212 2.93-.441 5.861-.632 8.791.281 2.291-2.164 10.645 1.105 10.719 14.292-.725 28.559-.541 42.856-1.401.019 2.881.159 5.758.012 8.641.078 3.606-1.176 7.208-.444 10.773.447 1.638 2.679 1.86 3.55.462 2.611-6.137.816-14.053-1.033-20.26 7-1.292 7.966-7.865 6.121-13.73l.019-.318c.103-1.809.095-3.75-.713-5.212-2.163-2.543-6.647-.891-9.625-1.083-9.129-.94-18.426-1.2-27.448-2.874-2.335-.604-4.717-1.821-7.126-1.935Zm56.749-85.683c7.107 13.552 15.284 26.446 23.989 39.001a331.987 331.987 0 0 0 5.727 7.955l.24.307c3.925 5.003 8.087 9.112 4.374 15.727-9.629 23.359-22.52 45.296-37.457 65.655.946-42.883 1.782-85.777 3.127-128.645Zm-178.685 94.162c17.857 3.737 18.191-3.262 15.21 16.548-7.161.049-14.319-.112-21.482.004 2.047-5.533 4.169-11.041 6.272-16.552Zm119.864-5.596c9.326 3.238 19.228 2.776 28.969 3.174-.02 2.092 9.946.15 11.859.437l.665-.057c1.592-.132 3.639-.182 3.657 1.783-.507 3.389 1.402 7.099.219 10.429-1.596 4.484-8.425 4.022-12.193 4.11-6.213.14-12.426.29-18.639.452-5.58.147-11.179.424-16.763.465.501-3.969.639-8.039.942-12.005.383-2.852-.169-6.232 1.284-8.788Zm-39.216 14.421c-.01.05-.019.1-.032.153a4.564 4.564 0 0 0-.223-.052l-.115-.023v-.003c.123-.022.248-.047.37-.075Zm-27.048-178.25c4.034 6.905 10.719 11.341 18.773 11.405 14.134.813 28.455-.121 42.23-3.464 2.025-.505 4.444-.945 6.306-2.05-10.634 57.552-27.825 113.616-39.948 170.836-8.78.773-17.532.691-26.331.278-6.791-.103-13.65.626-20.394-.381l.21-7.104c1.702-56.865 4.071-114.416 19.154-169.52Z" clip-rule="evenodd"/>
  <path fill="#694D3D" fill-rule="evenodd" d="M229.248 103.545c2.211-7.956 1.894-8.817 5.189-16.416 10.925-22.079 83.932-14.686 91.383 7.353 4.042 11.956 3.092 28.795 4.144 39.162.322 5.497.639 10.995.966 16.491.113 1.898.228 3.796.345 5.694.227 3.695.447 7.39.654 11.086 1.372 11.386-4.354 12.544-14.177 12.207-2.597 6.26-6.803 11.486-11.998 15.738 1.254 3.408-3.294 5.173-5.747 6.536-13.346 7.445-29.74 11.987-44.523 7.801-4.343-1.231-22.281-5.491-27.796-18.681-2.709-6.477-8.214-40.019-.954-70.192l2.514-16.779Z" clip-rule="evenodd"/>
  <path fill="#000" fill-rule="evenodd" d="M275.913 51.648c-2.064-.364-4.372-.224-5.556 1.801a3.982 3.982 0 0 0-.496 1.311c-5.641-1.267-11.497-1.404-17.259-.574-1.718.246-2.32 2.533-1.565 3.841.079.134.157.265.241.393a30.094 30.094 0 0 0-5.394.94c-1.271.343-2.458 1.988-1.893 3.336l.156.355c-2.807.472-5.49 1.573-7.835 3.352-.281.21-.541.48-.756.79-5.244-.59-10.644.493-15.325 3.02-1.312.708-1.946 2.75-1.056 4.023.278.396.568.774.881 1.139-2.037.752-3.839 1.969-5.054 3.95-1.321 2.15-1.727 4.919-1.018 7.284a6.685 6.685 0 0 0-1.727 6.132c.481 2.113 1.777 3.454 3.439 4.26a3.009 3.009 0 0 0 .699 2.995 11.822 11.822 0 0 0 4.11 2.772c.004.396.103.805.303 1.186 1.381 2.646 4.357 4.403 7.384 4.668-1.019 4.272-1.856 8.597-2.668 12.898-1.443 7.648-2.561 15.372-3.242 23.126l-.082.959c-1.109 13.122-1.367 26.869 1.304 39.813 1.702 8.241 6.861 15.188 13.745 19.894 6.999 4.786 15.55 7.168 23.964 7.545a51.62 51.62 0 0 0 12.826-1.051 35.04 35.04 0 0 0 5.819-1.767c2.04-.814 3.719-2.015 5.444-3.367.896-.702.384-2.359-.678-2.568-.759-.153-1.508-.318-2.264-.456-.694-.128-1.45.565-1.306 1.205l-1.462.376c-.487.126-.975.253-1.461.383l-.728.199a59.07 59.07 0 0 1-6.312 1.411c-4.322.702-8.819.717-13.164.171-7.305-.914-14.766-3.517-20.447-8.313-2.786-2.353-5.107-5.14-6.79-8.376-2.139-4.11-2.786-8.688-3.323-13.235-1.552-13.147-1.074-26.313.131-39.463.6-6.541 1.418-13.069 2.286-19.582.447-3.339.928-6.684 1.324-10.036a7.173 7.173 0 0 0 2.483-1.201c.513-.387.813-.837.944-1.295a3.263 3.263 0 0 0 2.021-1.27l.068-.094c1.384-2.001 3.776-3.146 5.99-3.979 1.343-.506 2.711-.946 4.073-1.395 1.418-.471 2.917-1.167 4.407-1.348 1.689-.2 3.391.309 5.097.128 1.549-.169 2.914-.724 4.028-1.835.391-.387.728-.833.997-1.314 5.2 1.11 10.662-.29 16.065.047 3.555.225 6.69 2.422 10.282 2.362.981-.015 1.93-.359 2.62-.96 3.389.645 6.834 1.887 10.019 2.954 3.149 1.055 6.178 2.475 9.289 3.627.003.003.003.003.003.006.406 1.314 1.618 1.881 2.908 1.651 4.219-.752 7.773-3.412 11.88-4.385 1.131 4.116 2.346 8.179 3.176 12.377.84 4.234 1.431 8.525 1.821 12.825.394 4.316.581 8.676.59 13.007a185.77 185.77 0 0 1-.128 6.634c-.06 1.851-.413 4.192.256 5.972l.06.151h.003c.081.259.447.415.653.175 1.258-1.461 1.558-3.785 1.908-5.621.425-2.227.696-4.477.915-6.734.437-4.528.534-9.037.303-13.584-.453-8.95-1.89-18.402-4.957-26.862.944.087 1.365-1.301 1.428-2.085.119-1.574-.128-3.244-.395-4.823l-.28-1.634c-.265-1.543-.545-3.046-1.071-4.546a38.436 38.436 0 0 0-5.338-10.058c-4.613-6.27-11.006-11.016-18.286-13.752a1.84 1.84 0 0 0-1.268-.038c-6.624-3.567-13.745-6.313-20.978-8.266-2.236-.603-4.501-1.17-6.781-1.577Zm55.012 100.619c-3.008-1.884-9.213-2.378-10.891 1.638-.068.163.125.306.269.269l.41-.104c1.577-.39 2.939-.614 4.556.032 1.421.568 2.801 1.457 3.741 2.681 2.223 2.893 2.464 6.822 2.256 10.331l-.01.17c-.194 3.08-.984 6.831-3.998 8.353-1.527.771-3.179.715-4.837.703-1.89-.013-3.82.193-5.625.774-1.009.324-1.484 1.66-.647 2.443.278.259.569.502.875.721a70.971 70.971 0 0 0-2.686 2.999 71.946 71.946 0 0 1-4.688 5.08c-1.587 1.557-3.267 3.065-5.078 4.357-1.905 1.354-4.185 2.306-5.834 3.966-1.075 1.08-.891 2.587 0 3.679 2.209 2.715 5.97-.139 8.083-1.744l.255-.194c2.196-1.66 4.282-3.451 6.059-5.561 1.812-2.153 3.38-4.444 4.538-7.012.681-1.51 1.115-2.936 1.35-4.428 3.797 1.648 8.585 1.123 11.989-1.195 4.52-3.077 5.788-8.725 5.803-13.881v-.305c-.033-5.012-1.351-10.928-5.89-13.772Zm-8.568 7.263-.139.002c-1.673.036-3.165.638-4.585 1.468l-.147.086c-1.38.821-3.36 1.479-4.091 3.015-.438.926-.406 1.987.356 2.755 1.38 1.392 3.463 1.161 4.956.075 1.115-.814 1.849-2.035 2.942-2.859 2.055-1.554 5.297-1.466 7.436-.121.132.084.259-.075.2-.2-1.313-2.686-3.917-4.231-6.928-4.221Z" clip-rule="evenodd"/>
  <path fill="#000" fill-rule="evenodd" d="M244.811 186.276c2.124.832 4.634 1.029 6.827.32 2.096-.679 4-2.189 5.151-4.088 1.026-1.691 1.455-3.698.849-5.699-.029-.096-.124-.157-.214-.181-.496.45-.803.897-1.109 1.342-.516.751-1.034 1.493-1.744 2.135-1.033.933-2.425 1.691-3.807 1.941a6.078 6.078 0 0 1-3.949-.617c-.737-.393-1.332-.917-1.922-1.444-.643-.574-1.275-1.157-2.159-1.481-.709-.26-1.454-.04-2.026.394-.614.467-1.057 1.198-1.032 1.962.038 1.184.558 2.172 1.312 2.987 1.02 1.101 2.461 1.895 3.823 2.429Zm2.522-29.506c-2.363 1.433-5.964 4.773-3.422 8.324 2.993 3.131 7.302-.459 9.425-2.083 1.969-1.258 4.181 1.978 2.354 3.447-15.343 11.327-21.57-9.313-9.552-11.372 1.323-.227 1.814 1.241 1.195 1.684Zm24.859-19.847c-3.221-.153-6.06 1.289-9.13 1.944-2.837.607-5.632.243-8.39-.528-4.478-1.251-6.329 5.583-1.912 6.915 3.216.97 6.602 1.037 9.902.537 2.932-.444 5.39-1.867 8.185-2.696 2.399-.71 5.221-.415 7.754-.08l.983.132c1.462.196 2.931.393 4.378.678 1.256.247 2.51.7 3.791.752.146.007.269-.182.177-.308-1.488-2.038-4.358-3.646-6.64-4.718l-.155-.072c-2.817-1.31-5.806-2.406-8.943-2.556Zm1.18 15.028v-.07c-.004-1.99-1.167-6.534-4.04-6.534-1.795 0-2.884 3.092-3.073 6.28l-.007.13c-.083 1.982.463 6.313 3.08 6.313 2.646 0 4.013-4.102 4.04-6.119Zm-42.301 0v-.07c.004-1.99 1.167-6.534 4.04-6.534 1.75 0 2.83 2.94 3.057 6.041l.016.239c.113 1.915-.397 6.443-3.073 6.443-2.646 0-4.012-4.102-4.04-6.119Zm.044-17.451-.205.004c-3.358.116-6.811 2.099-7.708 5.431-.046.173.168.289.294.17 2.761-2.577 6.474-.114 9.239 1.177l1.015.467c3.564 1.654 7.618 3.597 11.575 2.365 1.879-.585 3.073-2.51 2.537-4.455-.477-1.731-2.572-3.185-4.386-2.56l-.083.03c-1.474.562-3.286-.008-4.809-.569l-1.25-.469c-2.012-.761-4.032-1.612-6.219-1.591Z" clip-rule="evenodd"/>
  <path fill="#fff" fill-rule="evenodd" d="M219.962 160.738c2.873 3.579 14.121 7.552 20.107 3.239 5.986-4.313 8.352-7.318 9.152-12.707.085-.575 1.127-.957 1.567-.549 2.467 2.285 4.064 5.194 5.646 8.111 1.784 3.29 3.541 6.6 6.783 8.827 5.743 3.069 16.132 3.506 19.201 2.152 5.88-2.593 10.531-8.14 11.588-15.773 0 0 1.076-3.385 2.018-4.098.894-.675 5.824-1.277 6.364-1.377 9.733-1.801 22.044-2.948 30.713 3.387 1.173.707 5.189 3.363 5.249 2.71.042-2.558-2.866-8.35-9.48-11.105-8.179-3.408-20.336-3.607-27.38-2.855-.354.038-1.561-.258-1.647-.295-10.67-4.606-22.948-3.383-34.365-1.447-1.636.317-16.283 3.933-22.108 1.742-9.633-3.921-19.902-6.761-30.304-5.644-.087.01-1.4 7.957-.377 8.499.814.431 2.199 1.537 2.691 2.142.44.541.717 1.213.693 2.145-.198 5.389 1.344 9.725 3.889 12.896Zm39.604-4.809c-1.221-1.761-1.607-5.719-1.095-8.606.258-1.461.761-2.625 1.392-3.204.419-.385.898-.566 1.42-.539.286.014.596.095.924.272 4.442-2.396 9.823-3.259 14.925-3.011 4.06 0 6.958.955 8.922 2.443 2.365 1.79 3.43 4.363 3.491 7.154.073 3.312-1.291 6.935-3.529 9.801-2.142 2.744-5.072 4.778-8.251 5.247-3.609.714-7.287.023-10.484-1.667-3.28-1.734-6.05-4.518-7.715-7.89Zm-35.61 1.868c-2.059-2.425-3.427-5.58-3.636-8.706-.189-2.845.575-5.663 2.687-7.992 1.915-1.639 5.3-1.666 8.86-.753 4.603 1.18 9.365 3.818 10.953 5.521.374.195.721.536 1.023 1.266l.002.26c.481 2.212.196 4.456-.636 6.526-.904 2.249-2.454 4.291-4.343 5.848-2.511 2.062-5.132 2.694-7.585 2.361-2.778-.378-5.362-2.017-7.325-4.331Z" clip-rule="evenodd"/>
  <path fill="#000" fill-rule="evenodd" d="M243.701 139.824c-9.754-3.971-20.18-6.832-30.736-5.698-.873-.332-1.956-.053-2.343 1.178-3.76 11.42 4.624 8.244 4.512 12.513-.879 23.937 31.387 28.024 35.015 3.59l.067.04c5.22 4.856 6.319 12.759 12.468 16.983 12.405 9.045 29.988 1.879 32.247-14.224l.049-.218c.758-3.286 1.665-4.101 5.403-4.085l.591-.117c9.715-1.908 22.651-3.623 31.599 2.94 1.946 1.129 2.037 4.029 3.681 5.29 1.802.349 2.912-1.812 3.034-3.307.285-14.905-26.465-15.977-38.445-14.698-.229-.236-.717-.207-.882.087-10.835-4.677-23.041-4.03-34.642-2.063-7.186 1.388-14.284 4.547-21.618 1.789Zm-29.765-2.947c5.853-.291 11.267.028 17.012 1.431 3.028.728 5.352 1.649 8.25 2.756 18.077 7.986 20.162-6.209 60.682-.644-.524 2.238-.62 4.455-.649 6.558-8.273-.332-6.325 7.545-9.425 13.078l-.095.166c-4.518 8.073-15.178 11.838-23.777 6.484-7.174-4.169-7.874-14.744-15.017-18.94-6.191-.243-3.718 8.089-7.088 11.514-4.742 6.31-14.824 7.192-20.771 1.257-2.79-2.856-4.273-6.482-4.355-10.378-.156-2.489.273-5.019-1.615-6.769-1.323-1.34-3.673-.893-3.943-2.919-.171-1.197.328-2.496.791-3.594Zm63.61 3.263c-5.814-.286-11.966.721-16.958 3.564-3.696-2.932-4.601 8.721-2.148 12.092 3.534 7.209 11.761 11.949 19.683 10.375 12.358-1.786 20.968-26.053-.577-26.031Zm-16.603 4.346.316-.047c5.356-.814 19.939-4.589 25.563 1.369 5.459 9.882-8.389 26.482-22.8 13.26-4.011-4.071-5.566-9.008-3.079-14.582Zm-16.973 1.263c-2.774-3.275-16.909-9.907-21.836-5.651-8.993 10.049 5.268 30.374 17.213 20.471 3.979-3.31 6.596-8.583 5.451-13.69l-.002-.214c-.002-.078-.017-.06-.1-.157a1.283 1.283 0 0 0-.726-.759Zm-21.711 6.09c-3.033-16.401 9.643-10.166 20.052-5.788-.558.509-.556 1.204-.395 1.775 1.098 12.169-13.737 19.065-19.657 4.013Zm78.794-11.031c4.342 1.466 33.061-1.156 35.714 12.267-2.8-4.524-8.6-6.319-13.814-7.293-7.093-1.326-14.146-.558-21.139.836l-.145-1.443c-.155-1.53-.318-2.962-.616-4.367Z" clip-rule="evenodd"/>
</svg>
