<svg xmlns="http://www.w3.org/2000/svg" fill="none" viewBox="0 0 514 1027">
  <path fill="#FFDBB4" fill-rule="evenodd" d="M119.171 385.384c10.291 22.879 23.012 43.108 38.078 63.31-1.056-47.735-1.966-95.727-3.523-143.9-9.541 18.615-19.706 35.46-33.277 53.94-10.639 11.371-5.678 16.091-1.278 26.65ZM85.436 943.857c-1.192-1.688-.486-3.833 1.163-4.928-3.512-7.572 7.07-13.418 12.279-19.118 11.839-12.844 30.489-31.256 32.149-47.475 5.646-36.795 8.873-73.72 17.914-110.084 5.371-23.097 20.284-41.63 26.947-64.318 11.588-59.961-3.381-120.092-.793-180.651-32.658-3.204-28.429.869-24.931-26.297a104.551 104.551 0 0 1-6.305-4.744c-5.214 2.782-11.369 9.603-17.11 9.242-1.817-.425-3.127-2.703-4.374-4.66a1115.361 1115.361 0 0 1-26.18-43.405c-46.4-73.17-35.906-89.739 7.375-159.879 18.228-27.089 40.616-66.507 75.34-69.242 4.192.003 8.612-.22 12.223-2.857.026-4.199 2.171-5.553 7.613-6.321 3.065-.315 5.469-2.102 8.461-1.373 2.134-7.126 1.706-12.857 4.022-19.909 7.933-12.034 33.67-6.03 43.095-2.255 11.711 4.072.571 22.3 8.214 30.624 1.667.931 3.401 1.377 5.622 1.376 9.469-2.109 14.083 9.262 18.56 16.763 12.813 1.58 22.415 3.482 28.309 8.101 5.406 4.082 9.38 10.647 14.664 24.223 11.064 24.212 18.318 48.259 21.523 71.456 2.788 15.719 10.536 29.323 16.755 43.601 15.269 37.174 21.86 61.796 18.205 94.516-3.876-.694-7.784-2.104-11.865-2.63l-1.649 3.903a.446.446 0 0 1-.155-.19c-4.788 32.75 8.347 99.437-34.505 90.662-3.781 36.041-15.84 68.08-30.35 98.216-5.869 11.338-11.77 23.321-11.672 36.635l2.209.049c.376.008.496.085.497.085.421.103-.067 3.383-.539 5.239-6.932 24.493-12.926 48.983-18.309 73.772-1.136 3.34-1.627 12.332-4.256 13.857.115 1.228-3.512 3.634-3.792 3.556.632 4.73-1.657 6.847-1.58 11.649-.013-.114 3.216.054 3.075-.043 1.927 0 4.111 4.092 4.138 6.865.176 3.341-2.648 6.482-3.635 9.76-1.53 7.193-1.291 14.484-1.972 21.722 6.426 1.458 4.984 8.289-.651 8.625 0 0-1.026 9.544-.823 14.302 3.865.463 5.582 3.909 6.859 6.581 4.754.053 9.204 2.217 13.619 4.471 10.291 5.044 20.397 10.326 29.564 15.677 8.087 5.378 25.716 11.291 16.563 22.601.139.292-1.964 5.541-4.801 5.063-13.996 1.359-67.217-10.2-79.53-12.763-4.178-.994-22.465-3.376-14.871-9.549-2.83-7.905-2.955-22.904 5.582-24.735.829-7.428 7.08-10.035 13.315-7.287-.039-5.342.294-9.967.35-15.313-3.001-.395-6.324-1.509-7.192-3.785-.822-1.257-.503-5.534 2.587-5.566.091-.006 2.323.101 2.413.099-.358-8.648.397-15.987-.898-24.65-.694-2.876-2.966-3.344-4.452-4.824-1.396-4.303 2.896-7.779 6.567-8.503.935-4.374-1.039-9.008 0-13.3-2.394-.08-4.263-.202-5.818-1.656-.675-.662-1.78-.461-2.639-.52-.833-9.032-6.466-16.745-7.716-25.433-1.761-10.285 1.557-21.016 2.746-31.497.963-8.717-.572-17.637-1.338-26.198-31.55 50.356-74.154 98.884-81.781 160.182-.812 4.718-1.305 9.997 3.046 14.618l.187.053c1.106 2.221 1.801 6.455 2.595 8.746 4.109 3.246.337 9.48-2.631 12.29-.9 1.025-1.668 2.216-2.49 3.291-15.504 18.519-17.258 39.443-47.019 38.031-7.317-.458-24.438-.226-27.723-4.544Z" clip-rule="evenodd"/>
  <path fill="#9DDADB" fill-rule="evenodd" d="m302.315 415.477 23.758.214 6.922.047.325.001 2.537.007 1.592-.003 1.677-.009 1.168-.01c2.818-.03 4.874-.092 6.046-.181l.292-.025.191-.019 3.168-.381-.932 7.934-.561 4.797-.535 4.6c-8.565 73.719-12.513 115.739-11.814 125.368l.023.287.054.604.004.025c.074.345.788.731 1.911.773l.103.003.102.001 2.311.001.03 2.31c.007.558-.024 1.133-.088 1.79l-.024.234-.026.241-.142 1.184c-.173 1.518-.167 2.148-.058 2.383l.008.017.017.028.492.716-.103.953-.1.875-.144.401-.118.337c-.564 1.634-1.028 3.37-1.565 5.75l-.112.501-.2.919-.616 2.879c-5.009 23.298-11.902 45.471-20.73 66.283l-.304.714-.11.287-.146.378c-1.566 4.018-3.307 7.737-6.348 13.762l-.142.28-2.513 4.956-.745 1.482c-2.787 5.568-4.327 8.931-5.743 12.664l-.242.643-.237.646c-2.242 6.175-3.409 11.838-3.452 17.497l-.001.32v1.29l-1.092.689c-4.017 2.535-7.877 3.825-11.748 3.995l-.215.008-.457.009c-4.408.038-8.442-1.281-13.586-4.025l-.254-.136c-.565-.304-1.146-.626-1.796-.993l-.22-.124-.708-.404-2.347-1.352-.707-.404c-4.858-2.76-7.885-4.159-11.298-5.002l-.327-.078-.121-.029-.308.494c-2.001 3.22-4.782 7.906-8.315 14l-.828 1.432-1.456 2.523-.9 1.453-.923 1.477c-4.602 7.338-9.131 14.093-17.199 25.79l-1.097 1.589-6.783 9.815c-4.548 6.598-7.488 10.93-10.403 15.357l-1.051 1.602-1.296 1.99c-5.676 8.752-10.446 16.7-14.643 24.52l-.775 1.45-1.053.232a39.015 39.015 0 0 1-7.794.895l-.381.005h-.416c-10.763-.041-22.087-4.263-31.518-11.319l-.285-.215-1.062-.804.15-1.325c1.192-10.525 3.84-20.97 7.953-32.23l.301-.818.188-.506c2.974-7.985 6.132-15.167 11.858-27.345l.551-1.169 3.802-8.058a643.272 643.272 0 0 0 4.001-8.637l.145-.32.994-2.218.12-.351c3.068-9.021 4.908-18.749 5.777-29.651l.042-.537.063-.851.045-.639c.568-8.318.598-16.88.224-28.195l-.061-1.763-.048-1.32-.077-1.982-.083-2.043-.093-1.901c-.543-10.863-1.513-25.685-4.193-64.117l-1.144-16.357-2.949-42.029c-.565-8.098 75.415-6.142 75.415-6.142s-25.952-82.554-7.179-93.931c11.896-7.21 62.68 3.241 62.68 3.241Z" clip-rule="evenodd"/>
  <path fill="#fff" fill-rule="evenodd" d="m164.863 887.739.151.391.148.393c1.912 5.113 2.18 6.809.94 9.832l-.047.112c-.439 1.042-.975 1.958-2.01 3.534l-1.073 1.625-.363.557a68.985 68.985 0 0 0-1.306 2.092l-.243.41-.823 1.229-.534.806a406.742 406.742 0 0 0-2.632 4.057l-2.97 4.63-1.244 1.926c-3.118 4.805-5.14 7.743-7.514 10.863l-.613.799-.319.4-.318.391c-5.626 6.876-11.706 11.564-18.598 13.54l-.231.065-.215.06-.222.018c-9.631.777-19.265-.053-32.33-2.346l-.838-.149-1.014-.182-2.208-.404-.517-.52c-3.022-3.04-3.437-6.545-1.582-10.04 1.215-2.289 3.082-4.269 6.43-7.185l2.614-2.262c2.407-2.093 2.805-2.504 3.402-3.323l.245-.341.115-.121c10.814-11.297 19.847-22.18 26.819-34.992l.27-.499.408-.757.8-.312c6.551-2.562 13.887-2.275 20.029.853l.202.104.196.105.202.111c1.033.577 1.898 1.202 3.401 2.39l.842.666.394.308c1.305 1.006 2.062 1.491 2.978 1.893 1.774.779 3.881.649 4.592-.115l.039-.044.033-.044.942-2.627 3.572 2.103Zm79.157-9.142c.309.965-.873 4.786-.015 6.102.773 1.186 3.493.861 5.379.841l.385-.007.392-.011c.616-.02 1.268-.058 2.12-.119l2.499-.183.209-.013.203-.011.391-.019.246-.009.093-.007c3.091-.243 5.632-1.932 10.594-3.887l2.31-.918c2.316-.915 3.617-1.389 5.184-1.872l.226-.069.12-.023c4.418-.861 9.939.807 17.438 4.553l.475.239.509.259a163.77 163.77 0 0 1 3.878 2.057l2.197 1.21c1.528.845 3.418 1.893 4.084 2.257l.635.345.577.311c1.438.769 2.585 1.349 3.583 1.805l.329.149.078.042c8.591 4.662 16.484 9.267 23.894 13.982l.582.371.197.108c8.918 4.955 9.041 12.956.642 18.517l-.257.167-.268.17-.647.404-.761-.055c-12.967-.934-26.376-2.846-41.104-5.736l-1.446-.286c-11.029-2.197-21.913-4.724-37.349-8.575l-3.049-.763-4.967-1.251-.129-.012c-5.418-.561-8.421-4.63-8.416-10.245l.003-.318-.001-.265c-.006-5.892 2.554-11.324 4.735-15.723l.114-.226.116-.225 3.992-3.061Z" clip-rule="evenodd"/>
  <path fill="#E86BBB" fill-rule="evenodd" d="M170.597 515.982c1.324.06 2.52.114 3.519.183l.439.03.016.122.535.016c22.681.656 45.451-.108 67.964-3.038l1.401-.184c.695-.09 1.396-.175 2.1-.261 2.661-.322 5.359-.65 7.933-1.273 1.663-.234 2.636-1.111 3.185-2.273.684-1.445.662-3.389.456-5.057l-.029-.229c-2.628-55.46-16.205-109.096-29.783-162.721l-.011-.041c-11.102-43.848-22.203-87.689-27.293-132.517l-1.352.342-2.238.558c-2.18.554-3.723 1.055-4.834 1.948-1.009.811-1.69 1.937-2.13 3.748-.257 1.114-.418 2.501-.514 4.255-.983 6.533-1.104 2.76-.877-1.776.016-.319.02-.647.014-.983-.283.131-.572.255-.866.371-2.873 1.129-5.945 1.297-9.013 1.464l-.1.006c-1.859.101-3.718.204-5.542.502-9.303 1.633-17.5 6.919-24.798 12.708l-.483.385c-27.874 24.634-46.364 58.109-64.225 90.47l-.005.008c-.883 1.602-1.766 3.201-2.648 4.796l-1.14 2.059c-13.076 22.609-19.325 50.233-6.224 74.268 15.114 30.603 32.644 60.1 51.208 88.777.838 1.088 1.826 1.39 2.869 1.272 1.257-.141 2.629-.986 3.892-1.795l.024-.015c.457-.293.9-.576 1.339-.816 12.394-7.456 23.141-17.598 31.406-29.458l.263-.379a13.544 13.544 0 0 0-.287-.367c-21.48-26.959-41.471-56.405-52.619-89.202-.536-5.173 4.159-10.844 8.471-16.052l.315-.381c2.148-2.596 4.193-5.075 5.517-7.314 8.798-12.146 17.034-24.708 24.923-37.506l.61-1.156.101-.193a3.128 3.128 0 0 1-.037-.193c-.071-.463-.024-.943.169-1.313.132-.253.34-.451.643-.504a.833.833 0 0 1 .277-.003l.022-.043.017.511 1.263-2.112.878-1.457.457-.752-.886 1.826-.285.587-.603 1.238c2.056 30.545 2.526 61.481 2.996 92.377v.016c.242 15.865.483 31.719.938 47.503l.006.197a437.296 437.296 0 0 0 11.533 14.627l.139.169.266-.185.206-.141c12.297-8.485 26.764-14.019 41.621-15.734l.567-.056 1.596-.164c3.682-.372 8.364-.761 11.734.566 1.149.453 2.14 1.109 2.859 2.059.636.84 1.055 1.907 1.2 3.247-.246 2.217-1.573 3.572-3.491 4.451-2.836 1.299-6.908 1.604-11.001 1.91l-.196.015c-5.467.409-10.913.879-13.801 3.361a7.615 7.615 0 0 0-.702.691c.291.123.583.243.875.361 4.11 1.659 8.442 2.875 12.785 4.093l.094.026c7.202 2.02 14.434 4.049 20.722 8.212 1.837 1.074 4.766 3.537 5.525 5.829.221.667.248 1.321-.096 1.895-.319.534-.929.981-1.869 1.342-1.541.116-3.111-.199-4.674-.513l-.091-.019c-1.089-.218-2.175-.435-3.247-.527l-.252 1.214c2.909.981 5.595 2.633 7.341 5.301.65.973 1.207 2.512 1.033 3.786-.058.429-.203.826-.482 1.141-.238.268-.57.471-1.008.595-4.702.121-9.391-.892-14.052-1.9l-.077-.016c-2.175-.47-4.345-.939-6.506-1.295a106.037 106.037 0 0 0-4.924-.671l5.198 2.113.302.124c2.829 1.172 6.497 2.825 7.67 5.081.364.699.452 1.46.129 2.284-.319.817-1.012 1.677-2.148 2.601-4.481 2.286-9.599.217-14.448-1.744l-.323-.13c-2.225-.899-4.397-1.773-6.437-2.255-7.311-1.703-13.863-.88-20.291-.061l-.095.012c-9.425 1.201-18.591 2.368-29.59-5.047-.3-.202-.594-.406-.882-.611-.025.358-.055.715-.088 1.07-.177 1.868-.486 3.755-.797 5.647l-.003.022c-.613 3.736-1.222 7.494-.88 11.184l.023.23c.056.057.114.113.172.168 3.82 3.579 14.405 4.143 21.501 4.463h.016Zm213.755-42.973c.207-1.805.367-3.617.481-5.431 1.868-33.076-9.703-65.204-23.237-94.899-8.043-15.632-13.015-32.316-15.101-49.797-3.864-21.724-12.288-42.252-20.92-62.464l-1.354-3.166c-2.635-7.27-6.652-12.037-11.692-15.258-6.119-3.912-13.768-5.534-22.337-6.56-.422-.051-.843-.099-1.262-.146.216.362-5.549-4.138-10.449-11.46-4.502-5.776-5.464-5.837-8.804-6.048l-.125-.008-.007-.001c-1.183-.075-2.685-.17-4.79-.558-.515-.095-.99-.194-1.43-.294.256.425.523.844.799 1.255a32.06 32.06 0 0 0 2.705 3.479c.023.025.149.137.356.32 1.649 1.461 8.414 7.455 8.471 10.132 23.102 75.429 24.129 155.541 23.73 233.855l-.026 4.815c.366 6.533-.51 12.994-1.386 19.447l-.008.059c-.82 6.048-1.637 12.09-1.461 18.178.005.175.01.349.017.524l.517.076c12.974 1.87 26.135 2.031 39.162.646l.382-.041c.014-.037.253-.288.585-.638.732-.77 1.918-2.019 2.17-2.521 14.908-22.398 13.652-35.687 13.652-35.687v.002l.628-.074c10.052-1.168 20.216.27 29.957 2.796l.692.182c.029-.238.058-.476.085-.715Z" clip-rule="evenodd"/>
  <path fill="#000" fill-rule="evenodd" d="M210.005 190.677c2.512-1.703-1.065 13.077-1.071 14.499-.615 3.077-1.704 6.756-4.329 8.753 1.17 9.581 2.627 19.132 4.419 28.613l1.055.139c15.644 2.074 31.391 4.926 47.297 3.44 8.572.069 14.241-5.8 17.701-13.075l-.715-2.562c-10.875-6.681-19.123-20.205-14.217-32.982.318-.83 1.645-.493 1.354.375-2.058 5.766-1.192 12.264 1.73 17.556 1.826.971 3.77.905 5.727.843 9.442-1.381 14.859 9.341 18.925 16.021l3.556.527c13.608 2.022 26.731 4.416 33.45 18.362l.614 1.305c9.505 20.246 18.389 41.066 23.566 62.88 2.578 11.481 3.512 23.312 7.294 34.509 7.854 20.792 18.92 40.331 24.921 61.857 3.723 7.766 14.202 66.231 3.864 66.675a92.86 92.86 0 0 0-11.33-2.656c.59.45.805 1.215.693 1.995-1.336 9.371-1.436 18.864-1.43 28.314.547 22.683.472 70.638-33.304 64.53-2.767 27.74-12.223 54.579-22.733 80.26-6.245 16.552-18.356 31.651-18.964 49.833 4.182.063 2.563 5.387 2.047 7.955-1.406 6.285-3.237 12.471-5.091 18.639-6.53 22.112-10.426 44.964-16.018 67.328-.303 1.077-.811 1.81-1.461 2.307-.108 2.321-3.628 3.667-5.612 2.886.28 2.819.202 5.665.241 8.492l.009.53.609-.007c2.65-.682 5.329 3.608 6.077 5.814 2.515 6.166-3.319 10.689-3.752 16.558-.396 5.579-.921 11.105-1.161 16.699 7.278 2.841 4.052 12.35-3.071 12.255.333 3.467.378 6.965.524 10.438 3.101.814 5.423 3.428 6.948 6.157 6.265.424 11.983 4.132 17.563 6.756a431.816 431.816 0 0 1 25.449 13.641c8.105 5.406 26.153 11.527 18.265 24.019 1.985 1.711.599 5.068-1.211 6.468l-.062.048c-1.798 1.407-4.177 1.407-6.387 1.176-25.671.643-52.72-7.331-78.247-12.539l-2.574-.46c-5.384-.974-10.852-2.115-15.627-4.732-2.099-1.713-2.614-5.887-.464-7.571-2.204-7.974-.216-21.979 8.502-25.062 1.037-5.918 5.814-10.153 11.898-8.353.031-3.786.338-7.529.406-11.316-3.015-.568-5.796-1.741-7.25-4.606-1.6-2.852.135-7.642 3.767-7.483.123-5.901-.211-11.701-.259-17.591l-.005-.355c-.02-1.907.057-4.011-.751-5.762-.83-1.807-3.04-1.984-4.02-3.701-2.15-4.613 2.154-10.028 6.589-11.268.556-3.09.269-6.362.827-9.481-2.363-.137-4.376-.687-6.086-2.028-1.184-.181-3.275.347-3.409-1.354-.48-6.938-3.979-13.12-6.183-19.589-4.551-12.59-.421-25.738 1.161-38.471.746-6.497-.04-13.019-.705-19.526-30.03 47.047-68.543 92.541-77.443 149.301-.493 6.386-3.102 11.645 1.48 17.154 1.542.458 2.847 7.66 3.443 9.489 4.694 4.344.601 12.095-3.481 15.457-1.955 3.374-4.569 6.335-7.016 9.356l-.788 1.322c-5.182 8.673-10.716 17.37-17.743 24.636-11.823 8.76-31.63 6.269-45.55 4.693l-1.096-.179c-2.934-.486-6.22-1.175-7.915-3.797-1.448-2.238-1.254-5.14.547-6.818-1.788-5.149 2.285-10.212 6.114-13.373 14.843-13.166 27.638-28.648 37.606-45.811 3.82-27.753 7.742-55.497 11.989-83.189 3.427-22.908 8.648-45.852 19.673-66.404l.984-1.873c5.167-9.817 10.345-19.462 13.274-30.26 6.071-22.62 4.617-46.294 3.777-69.45-1.082-36.136-3.656-72.29-3.321-108.454-6.798-.713-25.237-.281-28.139-7.268-.951-6.66 1.279-13.441 1.783-20.094a85.125 85.125 0 0 1-4.202-3.149 108.703 108.703 0 0 1-7.818 5.327c-6.414 4.619-11.374 5.356-15.342-2.237-11.486-18.16-22.563-36.586-33.017-55.36-9.697-18.011-21.714-35.985-24.176-56.722-3.578-37.314 40.185-97.052 62.097-127.371 13.601-16.463 31.233-34.008 53.808-34.969l.288-.013c2.969-.116 7.11.129 9.519-1.826.467-6.735 7.381-6.706 12.516-7.817 1.064-.814 2.678-1.009 4.039-.939 1.843-5.299 2.264-11.159 4.561-16.284Zm-63.438 693.158c-5.634-2.936-12.357-3.168-18.287-.849-7.351 13.632-16.764 26.075-27.459 37.248-3.902 5.454-18.57 12.645-11.255 20.003l1.486.272c11.067 2.004 22.3 3.556 33.573 2.646 7.474-2.072 13.508-7.611 18.263-13.602 5.904-7.655 10.778-16.08 16.177-24.098 4.847-8.221 7.403-8.331 3.602-18.096-.006.19-.053.386-.15.58-1.342 2.709-5.462 2.462-7.787 1.441-3.031-1.332-5.235-4.003-8.163-5.545Zm-53.246 58.931c.113.053.228.105.344.156.084 0 .168.002.252.005l-.596-.161Zm213.687-49.07c-8.356-3.742-23.682-14.651-32.218-12.988-6.306 1.928-12.121 5.386-18.843 5.88l-.289.011c-4.797.21-13.326 1.804-15.13-3.837-2.389 4.566-3.173 10.213-3.137 15.378-.099 4.399 1.913 7.885 6.589 8.235l4.328 1.091c27.424 6.891 55.106 13.466 83.367 15.502 7.419-4.63 7.602-10.731-.265-14.96-7.944-5.081-16.118-9.818-24.402-14.312Zm-161.524-106.31c-4.911 30.75-8.21 61.678-12.966 92.442 16.587-4.159 21.491 10.747 27.658 6.585-4.325-5.688-3.803-9.987-2.525-16.605 2.538-22.314 10.842-43.546 21.141-63.358a366.866 366.866 0 0 1 3.598-6.756c-13.24 1.204-27.493-2.574-36.906-12.308Zm102.272 87.69c-1.139 1.763-1.587 3.895-1.95 5.935-.188 1.055-.085 2.609-.459 3.792 7.123.209 14.289-1.444 20.706-4.507-5.096-.365-16.315.501-18.297-5.22Zm-4.429 4.547a9.291 9.291 0 0 0-1.81 1.697c-.175.983.334 2.056 1.158 2.665.165-1.441.366-2.932.652-4.362Zm13.915-20.591c.022 4.448.293 8.84.243 13.285-.007 1.545.451 3.492-.493 4.803l1.499.156c3.758.389 7.59.717 11.345.287.122-5.788.125-11.603.506-17.389-4.631-.028-8.541-.807-13.1-1.142Zm14.349 17.726c-.007.181-.01.365-.004.543.54-.103 1.077-.222 1.608-.366-.435-.041-.884.033-1.311-.118a1.21 1.21 0 0 1-.293-.059Zm-16.175-.69c-.475.536-1.4.635-1.985.275-.119.024-.237.04-.362.046l-.106-.002.406.103c.848.212 1.504.342 2.375.468a3.355 3.355 0 0 1-.328-.89Zm19.489-.025a1.558 1.558 0 0 1-.443.512c.209-.069.422-.138.628-.216a4.674 4.674 0 0 0-.185-.296Zm-24.555-1.22c.081.182.256.465.456.615a3.007 3.007 0 0 1-.456-.615Zm21.122-2.868c.003.109.006.215.012.322.058-.055.124-.118.207-.15a4.263 4.263 0 0 1-.219-.172Zm-19.099-24.257c-3.492 1.136-2.27 5.52.374 6.956 2.875 1.898 7.217 1.601 10.517 1.888 3.545.249 12.843 2.187 11.201-4.007-.249-.446-.583-.73-.952-.957a3.207 3.207 0 0 1-.1.221c-.143 4.327-14.564 1.985-17.054.337l-.157-.069c-2.097-.903-4.081-1.275-3.829-4.369Zm4.27-50.722c.757 3.391.508 6.918.986 10.319.3.987-.084 1.645-.699 1.982l.441.129c3.822 1.096 7.678 1.612 11.657.72-.443-3.565.55-7.601 1.049-11.206.081-.412.115-.821.206-1.196l-13.64-.748Zm-6.873-380.739-.328.065c5.708 28.594 10.2 57.553 11.755 86.719l.021.428c.154 2.869.542 6.042-1.367 8.429-2.013 2.518-5.15 2.836-8.124 3.295-25.167 3.826-50.692 5.119-76.132 4.291 2.939 39.205 4.028 78.526 5.893 117.794l.084 2.059c.884 22.201 1.092 45.006-6.243 66.24-11.723 26.336-26.327 51.386-29.648 80.709 10.75 8.142 25.174 13.144 38.476 10.213 15.813-29.611 37.043-55.727 54.616-84.188 32.956-57.237 29.699-126.466 28.863-189.937-.118-.442.326-.595.3-.078.34-.031.696.128.761.518 2.006 13.303 1.291 26.843 1.206 40.25-.031 10.001.66 20.389-.076 30.208-1.042 33.731-5.255 67.922-17.822 99.46 15.547 3.481 25.137 19.666 42.221 8.884.003-19.686 13.07-36.015 19.852-53.796 9.156-21.44 16.015-43.825 20.914-66.607l.52-2.434c.637-2.977 1.336-6.065 2.422-8.925-1.297-1.577-.181-4.619-.216-7.327-1.85 0-4.223-.77-4.448-2.903l-.009-.099c-1.36-14.991-1.475-30.398 1.333-45.227l-.396.024c-7.024.412-40.62 1.82-41.532-3.832-1.252-9.477 1.772-18.873 2.391-28.282 1.109-21.26.841-42.602.696-63.889-6.741.895-13.214-.393-19.883-.608-8.464-.627-17.181-.056-25.543-1.364l-.557-.09Zm105.056 58.177c-.337.397-.705.637-1.08.759.003 9.009-1.813 17.869-6.792 25.67-2.185 2.895-3.36 6.232-4.407 9.668.301.934-.078 2.01-.78 2.543-4.601 13.998-5.075 28.985-3.378 43.524 5.174-7.597 7.227-16.663 8.674-25.602.078-.449.821-.443.902 0 1.718 9.556-1.193 19.102-4.95 27.836-2.085 1.761-1.635 5.767-1.879 8.26 38.139 5.564 24.876-67.741 29.762-90.317.09-.621.618-1.073 1.217-1.264-5.721-.874-11.517-.938-17.289-1.077ZM200.509 209.507l-.66.167c-6.956 1.743-8.805 1.781-9.247 9.969-1.732 11.561-8.127 21.644-11.002 32.823-1.15 3.947.067 11.223 5.518 10.155 1.767-.543 3.144 1.84 1.808 3.104-3.949 3.739-7.782 7.593-11.637 11.422 15.48 52.302 35.588 103.245 60.082 151.984.971 1.935-1.941 3.636-2.906 1.701-24.35-48.895-44.603-99.821-60.322-152.137l-.475-1.586c-.694-1.926 8.183-8.828 9.799-11.081-16.187-7.805 6.355-35.122 7.013-48.257-4.686 1.842-9.884 1.206-14.776 2.006-9.401 1.651-17.653 7.088-24.987 12.956-29.793 26.335-48.832 62.796-67.876 97.162-12.97 22.423-19.222 49.832-6.207 73.685 15.102 30.581 32.62 60.057 51.142 88.672 2.035 2.646 5.163-.392 7.307-1.507 12.319-7.411 23.001-17.493 31.216-29.281-21.541-27.035-41.58-56.569-52.747-89.463-.892-8.002 10.314-17.275 14.402-24.228 9.03-12.463 17.466-25.364 25.52-38.471-.253-1.295.282-2.721 1.654-2.68l.795-1.328c6.135-10.216 6.825-10.6.732 1.886 3.099 46.19 2.583 93.274 3.923 139.755a438.493 438.493 0 0 0 11.171 14.17c12.383-8.543 26.95-14.114 41.91-15.84l.571-.057c6.305-.639 17.228-2.102 18.079 6.33-1.03 10.16-22.004 4.448-28.71 10.21 10.992 4.435 23.589 5.685 33.682 12.37 3.237 1.891 9.583 7.915 3.383 10.22-2.705.232-5.499-.82-8.203-1.052 3.043 1.027 5.841 2.765 7.623 5.49 1.282 1.869 2.219 5.748-.846 6.547-6.988.198-13.946-2.083-20.829-3.217l.612.248c5.017 2.056 12.816 5.75 6.059 11.196-6.766 3.505-14.955-2.458-21.693-4.05-18.15-4.227-31.576 7.358-50.181-5.185-.523 5.524-2.193 11.208-1.68 16.737 4.47 4.188 18.412 4.049 24.64 4.605l.006-.044c.063-.606-.238-3.486.693-2.244.087.778.181 1.551.278 2.328 22.648.655 45.385-.107 67.865-3.033l.95-.125c3.452-.461 7.06-.764 10.45-1.588 3.466-.467 3.473-4.167 3.105-6.89-4.76-100.578-45.576-195.153-57.004-294.554Zm64.152 8.308a31.596 31.596 0 0 0 2.653 3.41c1.478-2.294 5.087-3.59 6.106-.172 1.153 3.517 2.804 7.133 2.853 10.857 23.591 77.03 24.189 158.939 23.73 238.838.706 12.673-3.218 25.078-2.855 37.681 12.922 1.863 26.031 2.023 39.006.644a31.206 31.206 0 0 1 1.31-2.975c19.423-23.718 9.123-53.439-.23-79.13-5.655.24-11.344-.119-17.004-.05 1.749 5.422 2.2 11.159 3.13 16.765.634 3.995 1.443 7.958 2.372 11.892l.25 1.049c.35 1.451.815 3.017.306 4.456-.499 1.42-2.222 1.994-3.365.889-2.059-2.351-1.838-5.855-2.503-8.772l-.165-1.224c-1.127-8.277-2.559-16.852-.512-25.058-2.034-.437-7.594 1.169-7.885-1.569.085-4.523-3.19-14.322.456-17.301 2.169-1.657 5.899-1.133 8.443-1.236 2.94-.118 5.878-.228 8.815-.209-23.604-57.134-17.04-74.721-14.645-131.581l.071-1.735c-.006-.375.597-.468.662-.091 3.61 23.291-1.202 46.872 1.078 70.236 4.047 44.392 32.132 82.506 36.827 126.685 10.128-1.176 20.37.267 30.186 2.812.206-1.794.365-3.595.478-5.395 1.862-32.976-9.69-65.002-23.169-94.578-8.077-15.699-13.071-32.454-15.161-49.973-4.058-22.819-13.163-44.313-22.24-65.511-5.738-15.849-18.141-19.586-33.522-21.427a6431.372 6431.372 0 0 1 15.492 25.883c1.148 2.612-2.373 4.477-3.909 6.085 18.895 10.32 7.863 42.192 8.253 60.05-1.402 16.41-1.931 32.914-4.404 49.21-.181 1.129-1.91.798-1.926-.26.228-24.417 3.135-48.736 4.411-73.113l.186-2.144c.982-11.524 1.791-27.859-11.919-30.994-1.87-.306-2.014-3.089-.512-3.926a22.771 22.771 0 0 0 5.315-4.094c-7.904-12.712-14.797-26.104-23.116-38.539-5.913-7.587-5.359-4.912-13.347-6.385Zm-38.182 233.104c-1.529-4.509-16.363-1.573-20.323-1.082-14.601 2.761-29.297 9.233-40.418 19.201-.686.615-1.498.605-2.138.271-4.981 6.374-10.733 12.15-17.042 17.226a72.054 72.054 0 0 0 3.561 2.64c.584.062 1.112.365 1.349.908 17.358 12.598 30.127 2.771 48.158 5.041 6.733 1.359 12.932 5.648 19.87 5.829 5.091-1.16.609-3.292-1.769-4.117-5.744-2.746-11.606-5.233-17.475-7.698l-3.301-1.386c-2.163-.908-1.42-4.182.996-3.611 4.229.999 8.471 1.948 12.716 2.881 8.163 1.668 16.522 3.808 24.771 4.619-1.834-5.105-21.29-10.619-26.947-12.648-2.136-1.011-8.23-.818-7.534-4.136.562-3.086 7.045.448 9.208.7 8.824 2.242 17.832 3.601 26.824 4.968-9.659-9.706-24.63-10.543-36.966-15.089l-.338-.077c-2.194-.511-5.199-1.476-3.416-3.973 6.338-9.359 31.275-4.622 30.214-10.467Zm-18.251-52.111c4.499-3.697 6.909 3.897 6.624 7.427.212 2.93.44 5.86.631 8.791-.279 2.291 2.159 10.643-1.102 10.719-14.254-.725-28.483-.541-42.74-1.401-.019 2.881-.16 5.757-.012 8.641-.078 3.606 1.173 7.207.442 10.772-.446 1.639-2.671 1.86-3.54.462-2.604-6.136-.814-14.052 1.031-20.259-10.714-2.668-5.605-11.469-5.578-19.014-.015-.2.184-.303.347-.265 2.67 3.733-.807 8.717.718 12.776 1.528 4.305 7.866 4.051 11.695 4.102l.465.008c11.772.202 23.536.688 35.308.917-.502-3.969-.64-8.038-.942-12.005-.381-2.852.168-6.232-1.28-8.788-6.546 2.131-13.361 2.98-20.242 2.847-8.203.221-16.825.96-24.845-.02 11.495-1.779 24.198-1.518 35.913-3.775 2.329-.604 4.706-1.821 7.107-1.935Zm-56.589-85.693c-7.093 13.555-15.246 26.453-23.93 39.011a333.398 333.398 0 0 1-5.712 7.955l-.239.307c-3.915 5.003-8.065 9.112-4.362 15.727 9.602 23.359 22.459 45.296 37.355 65.655-.944-42.886-1.777-85.783-3.112-128.655Zm178.195 94.172c-17.809 3.737-18.142-3.262-15.17 16.548 7.143.049 14.281-.112 21.425.003-2.041-5.532-4.158-11.04-6.255-16.551Zm-59.345-185.865c-.746-.012-1.888.427-2.647.38a35.123 35.123 0 0 0 4.766 4.235l.299.218-.135-.26c-.718-1.405-1.313-3.021-2.128-4.331l-.155-.242Z" clip-rule="evenodd"/>
  <path fill="#FFDBB4" fill-rule="evenodd" d="M298.54 188.75c-1.235-1.83-4.208-15.105-6.107-17.147.143-7.842 2.307-34.994-3.873-47.199 1.3-1.317 4.755-12.662 3.873-16.951 2.912-8.982-15.793-23.247-22.912-27.102-33.084-17.775-81.026 1.846-96.073 34.773-9.041 19.83-9.208 42.032-10.23 63.369-.121 4.568-.54 9.171-.535 13.732.654 4.009 3.826 8.091 1.421 11.424-2.657 1.841-8.026 6.326-5.635 8.869 1.401 1.169 3.639.491 5.159 1.614.774.434 1.257 1.385 2.162 1.53 8.268-.315 14.103-.342 22.397-.678 3.631-.119 9.159 1.42 13.327-1.643 14.557 8.112 8.468-3.657 11.412-12.037 8.964 3.037 26.82 12.72 36.375 13.033 7.765.962 15.026-3.569 22.659-2.537 9.484 3.529 20.597 4.314 29.284-1.658 2.168-1.564 4.58.248 7.312-1.441 5.31-2.545-7.336-17.129-10.016-19.951Z" clip-rule="evenodd"/>
  <path fill="#D6B370" fill-rule="evenodd" d="M173.448 115.124c15.047-32.927 62.989-52.548 96.073-34.773 7.119 3.855 25.824 18.12 22.912 27.102.667 3.242-1.145 10.517-2.631 14.444-6.898 5.107-27.041 4.047-60.428-3.181l-1.282-.279-11.401 6.769-4.683 17.631c-3.144 3.117-5.685 6.922-7.622 11.416 0 0-4.714-5.187-11.701-4.525-4.544 1.937-7.89 4.049-10.037 6.334-2.105 2.239-2.147 7.259-.127 15.06l.127.481 10.037 3.131h4.657l12.797 15.669 1.869 16.119c-.421 7.056 1.169 13.318-10.494 6.819-4.168 3.063-9.696 1.524-13.327 1.643-8.294.336-14.129.363-22.397.678-.905-.145-1.388-1.096-2.162-1.53-1.52-1.123-3.758-.445-5.159-1.614-2.391-2.543 2.978-7.028 5.635-8.869 2.405-3.333-.767-7.415-1.421-11.424-.005-4.561.414-9.164.535-13.732l.09-1.922c.95-20.745 1.37-42.212 10.14-61.447Zm116.196 63.843 2.914-11.06-.064 1.664c-.029.773-.05 1.455-.061 2.032 1.899 2.042 4.872 15.317 6.107 17.147l.267.285c3.155 3.401 14.9 17.197 9.749 19.666-2.732 1.689-5.144-.123-7.312 1.441-8.687 5.972-19.8 5.187-29.284 1.658a18.16 18.16 0 0 0-3.314-.131l-.453-1.421 10.378-8.944 11.073-22.337Z" clip-rule="evenodd"/>
  <path fill="#000" fill-rule="evenodd" d="M287.699 123.362c-.118-.677.814-1.182 1.174-.496 2.618 4.987 3.667 10.763 4.594 16.272.936 5.566 1.555 11.156 1.59 16.807.026 4.346-.368 8.743-1.108 13.093l.09.31c.166.568.334 1.136.503 1.704l.256.852c.494 1.634.962 3.276 1.469 4.907 1.059 3.403 2.175 6.816 3.541 10.109 1.333 3.213 2.954 6.312 4.881 9.209 1.857 2.792 4.805 5.153 6.113 8.255.456 1.08-.218 2.509-1.478 2.336a.532.532 0 0 1-.376.186c-.978.086-1.895.004-2.87-.088a.424.424 0 0 1 0-.848c.414-.039.818-.073 1.221-.097-2.791-1.657-4.781-4.892-6.373-7.54-2.046-3.403-3.591-7.121-4.851-10.881-1.293-3.86-2.21-7.801-2.946-11.802-.084-.46-.164-.921-.242-1.383a91.74 91.74 0 0 1-3.547 11.587l-.198.52c-3.273 8.499-7.704 17.079-15.075 22.696-.335.255-.676.497-1.021.733l.419.241c.418.239.829.468 1.231.656 1.489.696 3.106 1.227 4.706 1.603 3.303.777 6.772.554 10.142.663 1.106.035 1.735 1.696.605 2.235-3.723 1.776-7.743 1.399-11.585.15a20.736 20.736 0 0 1-5.336-2.616c-.683-.467-1.475-1.044-2.144-1.71-7.372 4.132-16.534 4.595-24.739 3.117-4.263-.769-8.395-2.171-12.03-4.571-3.497-2.307-5.989-5.229-7.769-9.014-.157-.335.281-.753.551-.425 5.589 6.801 15.208 9.639 23.67 10.179 4.515.288 9.134.049 13.475-1.305 4.118-1.284 7.651-3.638 10.601-6.769 5.98-6.347 9.563-14.98 12.137-23.197 2.799-8.938 4.132-18.342 4.407-27.697.14-4.739-.036-9.518-.779-14.205-.737-4.648-2.104-9.147-2.909-13.776Zm-83.802-40.265c.396-.202.675.323.339.58-6.97 5.356-13.211 12.147-18.264 19.334-9.317 13.255-15.292 28.594-18.043 44.533-1.625 9.413-2.049 18.968-1.887 28.507.064 3.789.28 7.566.521 11.345l.271 4.188c.126 1.951.231 3.886.15 5.847l-.022.453c-.129 2.282.095 4.582-.477 6.808-.293 1.142-1.9 1.321-2.481.325a11.47 11.47 0 0 1-.324-.599c-1.364 2.228-3.13 4.22-5.09 5.999.937-.2 1.883-.327 2.854-.211 1.539.185 2.919.78 3.896 1.824.969-.438 1.966-.739 3.113-.746.844-.004 1.477.996.996 1.739-.962 1.483-2.303 2.315-3.827 3.136-1.08.583-2.369.085-2.768-1.067l-.023-.07c-.448-1.457-2.835-1.221-3.962-.996l-.331.068c-2.097.437-4.144.996-6.28.419-1.377-.372-1.737-2.45-.409-3.139 4.195-2.179 7.717-5.104 11.337-8.042-.799-1.963-1.253-4.157-1.776-6.153-.737-2.81-.952-5.833-1.218-8.719-.506-5.488-.699-11.035-.644-16.545.183-18.607 3.359-37.273 11.473-54.123 3.554-7.381 8.224-14.211 13.744-20.257 5.486-6.01 11.895-10.755 19.132-14.438Zm-6.495 91.126c-.216-.299.204-.694.499-.5 6.379 4.198 10.806 10.573 13.663 17.576 2.827 6.933 4.563 15.425 1.775 22.655-.444 1.152-2.57 1.579-2.787 0-.973-7.051-1.124-14.113-3.261-20.968-2.12-6.796-5.746-13.019-9.889-18.763Zm-4.947 22.892c.035-.124.238-.103.23.032-.16 2.486-.269 5.003-.581 7.476-.151 1.201-.352 2.395-.523 3.594-.175 1.23-.148 2.471-.862 3.521-.945 1.393-3.458 1.001-3.373-.915.058-1.321.664-2.17 1.232-3.33.364-.743.681-1.512.987-2.284l.455-1.159c.904-2.297 1.769-4.555 2.435-6.935Zm-11.423-6.586c.039-.196.354-.149.344.046a81.561 81.561 0 0 1-1.187 10.467 114.647 114.647 0 0 1-.961 4.72l-.151.672c-.373 1.651-.614 3.591-1.45 5.066-.835 1.474-2.819.404-2.562-1.082.301-1.735 1.363-3.479 1.981-5.145a73.772 73.772 0 0 0 1.534-4.675 111.54 111.54 0 0 0 2.452-10.069Zm21.272 9.77.075-.076c.29-.316.723-.106.862.228.567 1.367.283 2.979.242 4.431l-.007.316c-.03 1.471-.009 2.848-.675 4.205-.808 1.648-2.937.624-3.101-.842-.18-1.6.575-3.166 1.063-4.664.31-.953.535-1.943 1.007-2.808-.403.07-.806.209-1.174.31-.165.045-.228-.198-.07-.254.609-.216 1.297-.379 1.778-.846Zm84.926 4.852c-.195-.218.048-.509.3-.391 3.034 1.42 5.871 2.343 9.219 2.646 1.45.131 1.459 2.414 0 2.281-3.494-.315-7.155-1.884-9.519-4.536Zm-106.734-47.962c2.671-6.02 11.121-11.359 16.787-5.761.106.104-.002.332-.156.268-3.525-1.463-7.839.398-10.278 3.06a12.904 12.904 0 0 0-3.329 7.68c-.231 2.86.452 5.845 2.348 8.058.994 1.16 2.337 2.259 3.918 2.398 1.595.141 2.925-.985 4.434-1.291 1.137-.23 1.995.485 2.107 1.608.246 2.479-2.218 4.142-4.353 4.546-2.296.435-4.641-.04-6.62-1.287-6.392-4.027-7.771-12.714-4.858-19.279Zm59.973-59c1.161-1.112 3.137-.006 2.708 1.58-.911 3.377-2.848 6.231-4.994 8.94-2.065 2.606-4.277 5.11-6.648 7.441a62.886 62.886 0 0 1-7.604 6.372l-.81.575c-1.906 1.346-3.925 2.707-6.059 3.677-.515 4.447-1.523 8.834-3.048 13.035a62.742 62.742 0 0 1-5.602 11.613l-.325.523c-2.081 3.342-4.583 7.076-8.114 8.907a1.153 1.153 0 0 1-.316.109c.789.527 1.457 1.191 1.854 2.145.435 1.044-.474 2.029-1.346 2.374-1.842.729-3.639-.505-5.295-1.822-.07.158-.136.317-.193.478-.37 1.052-.479 2.126-1.434 2.824-.454.332-1.013.035-1.299-.341-.936-1.232.033-2.912.856-3.919a7.15 7.15 0 0 1 .353-.398 8.23 8.23 0 0 0-1.016-.658c-1.934-1.026-4.801-1.208-5.914 1.063-.086.175-.354.085-.354-.096.003-2.79 2.856-4.305 5.331-4.511 1.809-.151 3.559.485 5.187 1.225l.303.14c.606.281 1.23.547 1.828.845a1.046 1.046 0 0 1 .057-.859c1.872-3.663 5.087-6.642 7.406-10.035a60.57 60.57 0 0 0 5.849-10.729 64.948 64.948 0 0 0 3.565-11.257c-.276.057-.587-.189-.567-.478.047-.698.388-1.327.987-1.595.659-3.613.996-7.286.976-10.99-.001-.287.414-.276.438 0 .292 3.293.316 6.618.07 9.923 1.558-1.436 3.201-2.801 4.702-4.275a144.63 144.63 0 0 0 6.547-6.858c2.149-2.41 4.18-4.908 6.038-7.552l.972-1.386c1.495-2.125 3.03-4.228 4.911-6.03Zm-2.931-23.724c12.819-.802 26.509.776 38.023 6.805 6.324 3.31 11.212 8.315 14.705 14.542 2.085 3.718 3.667 7.836 4.266 12.07.616 4.349-.107 8.228-2.879 11.686-1.101 1.373-2.956-.161-2.684-1.566 1.659-8.595-1.033-17.088-5.806-24.204-6.928-10.326-19.026-14.913-30.805-16.96a85.114 85.114 0 0 0-17.528-1.22c-4.476.156-9.067.574-13.315 2.083-.179.064-.251-.216-.078-.282 5.067-1.939 10.723-2.618 16.101-2.954ZM256.549 93.9c.66-.42 1.468.01 1.694.69.8 2.398-.876 5.565-1.997 7.64-1.269 2.347-2.901 4.542-4.586 6.604-3.371 4.124-7.802 7.565-12.664 9.727-.298.133-.645-.227-.372-.482 3.762-3.51 7.173-7.273 10.126-11.494 1.451-2.074 2.661-4.262 3.816-6.51 1.035-2.012 2.007-4.92 3.983-6.175Zm21.56 2.824c.421-1.476 2.823-1.224 2.724.37-.257 4.116-2.196 8.249-4.302 11.738-2.169 3.593-4.916 6.795-8.065 9.56-.155.136-.367-.074-.227-.228a37.036 37.036 0 0 0 6.536-10.067c1.623-3.688 2.236-7.536 3.334-11.373Zm-11.939-.667c.459-1.283 2.658-1.188 2.524.342-.371 4.207-2.835 8.614-5.117 12.088-2.421 3.686-5.512 6.933-8.966 9.66-.129.102-.312-.067-.186-.186 3.103-2.929 5.619-6.312 7.611-10.085a38.1 38.1 0 0 0 2.542-6.002c.623-1.916.916-3.928 1.592-5.817Z" clip-rule="evenodd"/>
  <path fill="#000" fill-rule="evenodd" d="M267.116 189.16c-2.3.666-4.768.725-7.112.037-2.125-.623-4.308-1.996-5.873-3.812-1.39-1.614-2.29-3.575-2.254-5.668a.92.92 0 0 1 .221-.593c.141-.167.339-.281.551-.331.218-.051.448-.033.644.056.178.081.33.218.425.418.24.316.48.627.72.929 1.933 2.387 3.806 4.171 6.713 4.81 1.577.348 3.153.194 4.598-.336 1.547-.567 2.946-1.564 4.042-2.84.495-.576 1.08-.812 1.652-.816.648-.004 1.288.297 1.771.778.474.473.792 1.116.821 1.788.025.59-.168 1.206-.68 1.756a13.818 13.818 0 0 1-6.239 3.824Zm-.071-29.893c2.357 1.432 5.948 4.772 3.412 8.323-2.984 3.131-7.281-.459-9.399-2.082-1.964-1.259-4.17 1.978-2.348 3.447 15.302 11.326 21.512-9.314 9.527-11.372-1.32-.227-1.81 1.241-1.192 1.684Zm-22.049-6.303c-.758-.484-1.649-.651-2.636-.201-.772.35-2.126 1.52-3.068 3.058-.644 1.052-1.101 2.286-1.006 3.572a.808.808 0 0 1-.262.681 1.023 1.023 0 0 1-.57.253 1.48 1.48 0 0 1-.599-.054c-.343-.107-.525-.329-.593-.511-.66-1.751-.375-3.706.364-5.469.997-2.379 2.809-4.372 3.996-5.015 2.031-1.1 4.428-1.151 6.462-.03 1.731.954 2.814 2.494 3.891 4.063.229.334.456.665.691.991.47.652.517 1.298.335 1.853-.202.614-.717 1.133-1.36 1.404-.595.251-1.286.286-1.897.028-.516-.217-.99-.642-1.29-1.362-.504-1.212-1.345-2.55-2.458-3.261Zm38.475 2.697c-.519.271-.925.352-1.5.18a2.133 2.133 0 0 1-.879-.525 1.743 1.743 0 0 1-.489-.884c-.168-.831-.623-1.609-1.271-2.116-.554-.433-1.253-.663-2.028-.533-.837.139-1.634.676-2.183 1.308-.183.212-.327.452-.472.691-.27.447-.533.862-.906 1.19a.89.89 0 0 1-.561.211.853.853 0 0 1-.25-.039c-.833-.836-.993-1.47-.966-2.099.028-.659.288-1.326.708-1.949.986-1.461 2.857-2.659 4.12-2.931 1.729-.371 3.446.075 4.823 1.041 1.417.993 2.467 2.536 2.794 4.274.079.419.046.871-.114 1.263a1.76 1.76 0 0 1-.826.918Zm-34.661-18.274c-1.038 1.01-2.266 1.167-3.509 1.306-.69.078-1.241.141-1.784.264-1.491.336-2.964.843-4.309 1.573-1.405.763-2.937 1.683-4.039 2.861-.262.281-.509.575-.756.87-.225.269-.443.528-.672.778-.263.287-.512.587-.761.887a3.984 3.984 0 0 0-.215.38c-.046.097-.1.206-.162.323-.085.16-.184.335-.288.494-.173.29-.265.37-.346.406a.711.711 0 0 1-.381.072.628.628 0 0 1-.33-.16c-.532-.45-.69-1.188-.673-1.972.024-1.19.463-2.508.868-3.317.94-1.882 2.245-3.838 3.814-5.243 1.791-1.603 3.749-2.816 5.999-3.652 1.398-.52 3.017-.998 4.54-.937 1.097.043 2.144.369 3.008 1.183.531.499.785 1.21.785 1.92 0 .724-.264 1.452-.789 1.964Zm36.772 9.257a.568.568 0 0 1-.259.227.602.602 0 0 1-.647-.108.565.565 0 0 1-.173-.298c-.689-3.026-2.027-5.277-4.883-6.728-1.404-.714-3.02-1.168-4.549-1.53-.444-.105-.914-.173-1.387-.242-1.482-.217-2.974-.464-3.94-1.662-.582-.721-.827-1.644-.689-2.488a2.645 2.645 0 0 1 1.439-1.959c2.101-1.086 4.713-.02 6.835.888l.463.197c2.075.876 3.968 2.032 5.524 3.685 1.234 1.311 2.378 3.25 2.839 5.245.383 1.659.293 3.353-.573 4.773Z" clip-rule="evenodd"/>
  <path fill="#000" fill-rule="evenodd" d="M294.979 161.167c-3.79 3.915-10.116 5.039-15.158 2.939-12.945-5.408-6.609-22.275 3.375-26.804 1.247-.311 2.913-1.048 4.432-1.216.138-.067.437.128.799-.057 11.009 1.229 13.516 18.315 6.552 25.138Zm-41.756 1.002c-4.25 5.637-12.152 7.375-18.608 4.755-12.754-5.021-8.231-19.978.496-25.842 18.433-6.925 26.045 10.695 18.112 21.087Zm-27.648-12.488c-.012-.005-.024-.008-.036-.014l.202-.089c-.022.057-.046.113-.067.17-.033-.022-.062-.049-.099-.067Zm78.179-6.092c-1.041.002-2.544.173-3.406.895-2.124-7.163-9.965-13.792-16.785-8.958-5.37 1.726-9.355 5.556-11.62 10.647-4.083-2.429-10.504-1.392-14.046 1.82-2.319-7.662-8.026-10.345-14.82-10.741-7.415-1.214-14.805 5.986-17.111 11.761-1.918-.218-4.783-.828-6.586.355-11.708-3.069-32.175-4.761-34.555-3.056-1.696.651-2.627 4.653-.258 4.869 2.064-.293-.241-2.933 1.84-3.221 11.088-.687 21.851 1.546 32.822 2.482.979 1.318 4.144 1.758 5.832 1.229-2.659 9.798 3.081 16.463 11.682 18.46 13.318 3.058 24.904-8.853 21.422-21.241 4.034-2.007 8.674-1.921 13.069-.864-7.344 27.022 36.185 25.809 29.386-2.616 4.525 2.25 5.507-1.367 3.134-1.821Z" clip-rule="evenodd"/>
</svg>
