<svg xmlns="http://www.w3.org/2000/svg" fill="none" viewBox="0 0 514 1026">
  <path fill="#EDB98A" fill-rule="evenodd" d="M135.394 937.642c-2.196-10.213 7.85-13.666 14.183-15.938 4.537-2.939 21.345-13.118 34.351-25.683 10.643-10.282 17.888-23.459 20.904-24.715 0 0 3.104-1.798 3.427-3.135 1.889-7.829.313-15.126 0-19.873-6.055-1.587-10.907-3.568-14.535-6.338-1.058.353-2.645.803-3.118-.742-3.279-21.853-4.694-43.448-7.362-65.318-10.1-83.296-11.239-180.607 6.136-256.686.182-3.771-.147-7.177-.484-10.417-2.349-.253-3.77-2.525-5.688-3.883-2.977-2.363-6.503-4.179-6.357-8.31-.708-.535-.625-.836-.277-1.517-2.271-9.755 7.859-20.035 10.725-28.077-5.208-50.877 1.878-98.955-2.076-149.844-4.993-2.087-1.636-15.131-1.295-20.511 2.767-34.659 20.805-68.927 53.288-80.25 1.857-.376 4.648-2.496 6.185-1.073 2.969-1.175 6.92 1.142 9.218-1.525l-.023-.017c1.935-2.681 2.803-6.088 3.439-9.31a21.669 21.669 0 0 1-.503 2.689c5.6-15.764 7.011-19.979 25.038-20.721 8.121-.109 18.826.135 23.561 7.871 1.94 3.596 1.347 7.725 2.552 11.51 2.21 6.947 11.752 3.59 16.761 7.197 40.092 12.844 72.978 39.06 83.787 81.139 2.21 5.072 4.717 10.12 6.564 15.354.286.777 1.073 3.406-.816 4.616l-.914.585c12.034 56.179 12.832 103.518-27.597 140.971-3.034 16.093 4.771 38.071 1.771 53.696 1.709 2.423-.458 4.374-2.644 4.53-.211.116-1.062.489-1.294.595 3.478 49.043-11.125 115.138-17.562 141.225-.876 15.663 4.476 28.529 15.486 37.065 12.165 7.484 36.215 41.282 31.756 76.736 5.21 1.021 10.383 1.581 15.382 3.537 21.872-3.856 21.655 38.259 23.049 53.067 2.36 24.794 3.827 60.731-19.755 76.602-6.213 4.502-18.81 9.772-25.265 2.567-2.115-2.538-2.645-4.99-1.813-7.582-10.659-15.042-7.786-34.717-8.766-52.36-3.091-.186-6.325 1.262-9.314.735-3.069-2.701 8.126-1.965 9.287-2.123a143.643 143.643 0 0 0-.621-8.329c-1.756.351-4.005 1.193-5.694 1.258-.999.243-1.706-1.132-1.102-1.844 1.318-1.256 4.678-1.061 6.569-1.24-.32-2.296-.71-4.71-1.144-6.93-2.313-.083-4.702 1.389-6.892 1.088 1.657-1.105 4.769-.769 6.79-1.499-1.314-7.152-3.992-13.941-6.481-20.631-6.108 2.517-11.377 2.616-17.339 1.861-2.439.375-3.628-.123-4.023-3.171l.155-.192c-4.726-28.246-19.976-55.173-48.302-85.71-5.595-6.255-11.918-13.619-16.131-21.852-8.465-17.135-9.911-36.043-16.434-53.838-6.089-17.886-14.416-34.995-22.234-51.951-1.146 8.69-2.686 17.604-4.287 26.125-7.046 30.195-6.363 62.411-1.178 92.773 7.672 42.525 3.974 85.252 5.681 128.077-.024 2.47-.33 4.714.032 7.286.048.198-.045.432-.28.426l-.443.012c-3.687 2.697-8.78 3.184-13.113 4.648-1.82 1.438-1.307 3.716-1.474 5.494-.476 7.66-1.084 15.35-.329 23.245 3.343 6.399 7.496 5.077 8.345 14.098.743 10.298 2.059 21.248-2.962 30.418l1.899.328c2.82 5.908 1.099 9.745-5.527 12.244-32.711 12.81-78.739 24.441-112.873 14.771-.621.615-1.523-.023-2.228-.988-.678-.928-1.174-2.16-1.064-2.874.584-3.136-.219-8.863 3.292-9.442Z" clip-rule="evenodd"/>
  <path fill="#78E185" fill-rule="evenodd" d="m383.349 458.453-2.473 2.557-1.184 1.219-1.729 1.769c-3.699 3.774-7.555 7.625-13.154 13.155l-14.448 14.241-2.783 2.761-1.361 1.354 5.605.698 1.178.15.913.12.912.123c5.872.806 9.758 1.592 13.618 2.86 5.648 1.854 10.048 4.533 13.333 8.387l.156.184 1.343 1.609.302-2.073c.306-2.097.428-4.271.419-6.819l-.009-.989-.015-.789-.017-.649c-.011-.364-.024-.762-.04-1.218l-.125-3.416-.031-1.012-.011-.479c-.006-.233-.01-.456-.013-.679l-.007-.693.03-.736.037-.96.023-.688c.243-7.402.118-14.475-.338-26.554l-.131-3.433Zm-61.96-245.31.26 1.506c1.453 8.435-2.347 15.41-10.507 20.512-7.468 4.67-18.244 7.472-29.79 7.916-11.45.441-22.619-1.482-30.775-5.419-8.742-4.22-13.503-10.421-13.314-18.135l.007-.234.055-1.478-1.361.584c-17.054 7.318-30.282 21.282-38.59 39.599-7.587 16.729-10.623 36.28-8.679 54.614l.061.555.121 1.083 1.053-.284c1.88-.506 6.711.933 14.204 4.358l.629.289 3.431 2.383.059 1.765c2.29 71.972-4.61 123.31-20.656 153.982l-.489.923-.505.929a34.214 34.214 0 0 1-1.028 1.781l-.479.774-.729 1.164-.395.638-.193.317c-.781 1.288-1.253 2.165-1.701 3.182-.713 1.615-1.111 3.148-1.167 4.702l-.005.194v.064l-.032.06a1.691 1.691 0 0 0 .039 1.544l.041.073.015.023.065.504.428.084.058.056c.626.58 1.466.952 2.558 1.224l.15.036.148.034c.231.052.468.099.741.148l1.016.177 1.227.241 1.54.3.42.085.436.091c2.574.545 4.302 1.078 5.909 1.891 8.106 4.251 16.142 6.293 24.628 6.531 6.762.19 13.463-.702 22.211-2.69l1.782-.412 1.035-.246 1.272-.308 1.3-.321 6.154-1.533 1.939-.476 1.128-.272c4.39-1.053 7.356-1.674 10.737-2.241 5.921-.992 11.312-1.394 16.62-1.145l.408.02.239.013.215-.103c10.916-5.212 19.879-12.785 28.025-23.056l.551-.698.343-.441c5.586-7.189 9.81-14.076 17.835-28.333l2.097-3.729 1.475-2.607.962-1.688c4.212-7.375 6.933-11.809 10.282-16.69 5.402-7.873 10.892-14.261 17.06-19.572l.315-.269.037-.034c1.224-1.164 2.049-2.214 2.57-3.391l.059-.137.091-.218-.162-1.654-.17-1.773c-1.36-14.398-2.799-34.047-4.318-58.944l-.273-4.525 7.408-2.874 3.422-1.315.743-.281.877-.329.892-.332.877-.324c3.773-1.384 7.161-2.543 10.417-3.545l.735-.223c7.92-2.392 14.602-3.678 20.152-3.703h.255l1.168.003-.042-.189.035-.004a4.14 4.14 0 0 0 .753-.159l.115-.039.111-.043c.953-.389 1.416-1.244 1.046-2.266l-.029-.079-.197-.709c-6.861-24.702-16.15-44.076-29.012-59.449l-.391-.465-.401-.471c-14.264-16.68-32.996-28.672-57.453-36.409l-.742-.233-1.462-.455Z" clip-rule="evenodd"/>
  <path fill="#fff" fill-rule="evenodd" d="M193.835 951.178c5.877-1.058 39.641-8.73 58.993-18.706 3.952-2.037 2.979-6.852 1.692-9.978-.59-1.432-1.986-2.51-1.692-2.804 6.187-6.18 1.56-22.447 1.56-25.564 0-4.634-7.52-10.908-6.242-13.406 1.475-2.883-.339 6.979-4.058 12.47-3.241 4.787-8.329 5.157-8.834 4.947l-.091-.039-.065-.034c-1.4-.765-22.532-31.172-31.274-26.697-4.115 2.107-6.325 11.421-10.925 15.277-10.315 8.645-15.294 22.446-53.686 40.216-4.109 1.903-4.145 5.971-3.308 9.154.309 1.173-3.871 1.135-3.247 1.758 1.586 1.584-2.814 10.687.624 12.159 13.526 5.791 48.646 3.39 60.553 1.247Zm219.42-181.132s-2.218 2.773-2.178 4.052c.331 10.537 2.84 18.299 2.919 23.48l.005.35-.009.128c-.152 2.102-3.366 10.174-10.406 11.895-3.976.971-15.606-3.43-15.606-3.43s6.644 18.332 7.803 34.917c.91 13.025.175 27.797 1.873 39.282.926 6.27 4.281 13.246 8.115 18.082.939 1.185-3.145 3.429-2.185 4.365 1.798 1.752 6.243 7.794 19.976 3.117 3.998-1.361 15.629-8.925 22.161-23.382 4.772-10.56 5.221-25.945 5.931-39.593.784-15.083-2.131-38.621-5.931-51.44-4.225-14.255-9.479-17.04-10.567-17.83-.255-.184-8.163-1.744-8.924-1.829l-.133-.015-.105-.01-.058-.022c-3.105-1.201-6.654-1.779-11.322-2.046l-.288-.016-1.071-.055Z" clip-rule="evenodd"/>
  <path fill="#000" fill-rule="evenodd" d="M133.835 947.9c29.393 13.184 82.768-3.451 111.649-13.075 7.787-2.807 10.381-3.357 8.199-12.324-4.082 7.87-12.862 9.77-21.274 11.348-28.495 6.488-57.544 18.466-88.018 12.622-4.473-.703-8.898-3.122-10.2-7.586-.802 1.892-.306 4.454-.627 6.534-.06.829-.078 1.726.271 2.481Zm118.881-49.037c-.531-5.285-1.38-10.868-4.392-15.538.328 7.553-4.214 20.392-14.164 16.115-2.819-1.492-4.398-4.497-6.212-6.91-6.027-7.937-13.755-14.829-22.486-19.838-4.856.834-6.945 9.705-10.075 13.418 3.49 1.554 9.813 5.093 10.453 8.753-4.357-1.464-8.368-4.19-12.938-5.148a89.042 89.042 0 0 1-4.644 5.865c2.129.937 10.712 5.27 10.656 7.433-4.641-.753-9.139-3.023-13.805-3.955-2.076 2.056-3.965 4.269-6.031 6.332 3.122 1.284 6.418 2.718 8.122 5.711.081.135-.119.286-.228.155-2.338-2.815-6.361-3.332-9.848-3.965-5.349 5.031-11.339 9.47-18.044 12.79-6.707 3.664-16.902 4.502-19.57 12.449-2.135 7.945 4.523 8.793 10.665 9.354 6.215.883 12.473 1.017 18.647.501 19.299-.803 37.543-6.478 55.78-11.436 22.299-4.1 29.534-7.419 28.114-32.086Zm-6.539-46.461c.053.349.099.699.149 1.051.063-.371.106-.745.197-1.11-.116.019-.231.041-.346.059Zm-36.026 17.744c8.543 6.311 16.883 13.343 22.816 22.145 3.927 7.161 9.152 2.802 10.45-2.935 1.052-12.808.147-23.869 1.38-36.754-11.814 1.608-23.949.617-35.489-2.229 1.389 5.752 2.026 7.935 2.07 13.836-.076 1.945-.047 4.318-1.227 5.937Zm-19.125-471.45c-.252 18.852-.371 37.71.285 56.556 16.614-42.892 11.529-89.434 13.889-134.518-4.91-1.634-10.184-2.347-15.244-3.046 2.032 27.984 1.508 52.981 1.07 81.008Zm93.898 95.242c40.796-19.482 46.439-69.432 78.741-96.951 1.043-.991 1.907-2.011 2.41-3.211-2.316-23.372-2.148-43.864-4.885-67.212-3.059-5.543-4.267-11.981-6.545-17.879-1.193-3.592-2.641-7.149-2.984-10.918-.287-1.241 1.654-1.78 2.016-.608 4.311 8.367 6.455 17.674 9.673 26.496.453.181 1.055.038 1.233-.436l.087.346c13.849-5.406 28.129-10.441 43.218-10.404-.01-.046-.023-.096-.032-.143.931.028 2.881-.047 2.298-1.394-13.263-48.307-37.075-81.419-87.587-97.147 6.458 37.483-87.536 39.653-86.238 4.764-35.408 15.195-50.662 57.872-46.648 93.805 3.365-.907 12.127 2.663 15.544 4.736.697-14.591-1.033-32.199-.015-45.246 5.387 66.523 15.441 146.122-17.786 206.481-2.156 4.047-5.674 7.919-5.586 12.67-.259.262-.284.721.031 1.057 0 .022 0 .044.003.066.016.003.034.003.053.003.964 1.147 2.993 1.375 4.389 1.627 3.295.664 6.763 1.169 9.782 2.697 32.158 16.863 57.381-4.876 88.828-3.199Zm-10.163 30.652c-1.554 2.965-4.164 5.35-7.257 6.84.381.749.512 1.59.553 2.379 5.572 1.138 4.005 3.779 7.769 5.038 2.463.68 4.832.97 6.96 2.46 7.245 6.74 9.043 6.244 16.818.315-.107-.536 10.475-10.859 13.752-16.629 2.731-4.814 5.591-9.662 9.776-13.384 20.498-20.963 42.334-40.747 62.176-62.29 39.765-39.578 32.178-84.455 23.044-133.891-14.741 1.758-29.564 5.291-42.839 11.775 4.682 21.82 4.982 41.598 6.998 63.739.609 2.738-.078 8.009-3.961 6.794-35.692 28.304-39.84 86.469-86.678 103.289-19.09 7.75-11.034 14.041-17.342 28.675 3.471-.636 6.567-3.541 8.059-6.322.74-1.381 2.894-.166 2.172 1.212Zm107.885-17.171c.808-5.547.178-11.068.14-16.623.434-10.117.097-19.978-.293-30.129-11.193 11.582-22.829 22.771-34.259 34.138 12.173 1.534 26.212 2.796 34.412 12.614Zm.206 8.158a2.697 2.697 0 0 1-.55-.249c.044 4.352-.025 8.704-.184 13.05.306-4.265.55-8.533.734-12.801Zm13.693 309.359c3.283-.252 17.326-.735 19.011 1.465-1.897.802-4.506.359-6.548.449-3.964.163-7.919.512-11.842 1.067.293 1.527.559 3.052.777 4.583 3.958.377 11.664.548 14.177 3.314-4.482.713-9.148.071-13.646.963.218 2.095.378 4.193.496 6.291 1.792.19 12.329 1.933 12.32 3.588-3.945.524-8.125-.165-12.145.225.871 12.573-2.082 50.542 15.123 52.865 15.041-.792 21.639-25.14 23.684-36.822 4.532-27.216 3.755-56.235-5.229-82.47-3.208-7.295-11.942-8.56-19.327-8.938a138.92 138.92 0 0 1-.87 3.67c3.202 7.251 4.223 15.416 4.31 23.263-.677 11.28-14.61 19.666-24.73 12.215 1.892 4.614 3.352 9.415 4.439 14.272Zm19.904 81.142c29.793-6.397 34.681-40.859 32.633-66.199-1.669-17.639.337-54.829-15.965-65.192 21.069 19.211 19.239 149.994-27.452 127.167 1.165 3.685 7.151 4.748 10.784 4.224Zm-5.837-122.958a70.396 70.396 0 0 0-.174-1.362c-3.306 8.969-8.968 17.492-17.399 22.686 3.228 4.022 9.514 5.219 13.756 1.927 7.398-5.54 4.313-15.563 3.817-23.251ZM309.058 210.125c.059.103.122.206.184.306.412.028.828.065 1.249.112-.478-.144-.955-.278-1.433-.418Zm-56.617 3.292c.016-.047.031-.093.044-.137-.038.022-.075.047-.116.072.031.018.05.04.072.065ZM130.942 942.441c.081-2.23.112-5.112 2.728-5.904-1.186-9.615 6.804-15.088 15.194-17.752 7.154-4.371 15.267-7.424 21.84-12.694-3.053-.573-6.105-1.264-8.818-2.591-2.047-1.001-1.061-4.333 1.158-4.024 3.93.518 7.46 2.513 11.153 3.9 2.097-1.721 4.129-3.517 6.048-5.42-2.39-.462-5.43-.292-6.823-2.662-.434-.741-.24-1.51.284-2.083 2.422-2.448 7.223-.003 10.232.71a156.266 156.266 0 0 0 4.211-5.078c-2.273-.209-8.184.206-7.026-3.54 2.219-2.93 6.991-1.172 10.2-.569 4.07-5 5.381-12.669 11.743-15.419.227-1.212 1.813-1.119 2.871-.759 1.557-7.428 1.439-11.203.983-18.816-4.722-1.306-9.407-3.021-13.334-5.833-1.804.53-3.992-.081-4.367-2.198-1.123-7.459-1.75-16.068-2.537-23.688h-.287c-1.495-13.897-2.7-27.836-4.392-41.697-9.685-80.126-11.795-177.925 6.133-257.083.141-2.999-.072-6.002-.374-8.979-2.138-.571-3.412-2.656-5.182-3.863-3.289-2.678-6.636-4.177-6.938-8.851-.665-.632-.743-1.59-.378-2.419-.852-4.798.403-9.561 2.959-13.708 2.803-4.723 5.45-9.49 7.787-14.447-5.112-49.962 1.823-98.385-1.969-148.597-4.863-2.572-1.81-16.863-1.358-21.627 2.841-31.285 17.464-65.828 48.555-78.84 2.182-1.84 5.228-2.463 7.894-3.476 1.801-.886 4.732-1.653 5.965.408 1.307-.608 5.518-1.073 6.96-2.126.269-.197.44-.412.481-.652a1.66 1.66 0 0 0 .365-.047c1.33-1.876 2.597-14.948 4.236-14.016 1.788 4.489.549 9.561-1.162 14.094-1.179 4.01-2.796 14.323-9.064 11.685-1.08-.536-.412-1.93.556-2.042 2.971-.848 3.633-5.209 4.782-7.766-1.361 1.129-7.56 2.822-8.238 3.18-13.446 30.827 67.854 29.209 74.247 7.956 4.557-7.342.624-11.32-7.501-12.498 5.971 6.628-1.589 8.099-4.463 1.599-2.75-4.655-4.002-10.31-3.062-15.666-.484-1.88-.893-4.393 1.923-3.887.096-.25.249-.053.19.124 1.027 1.634.312 3.981.677 5.868.309 3.086 1.186 6.11 2.675 8.841a253.88 253.88 0 0 1 8.25 1.708c1.642-3.332 12.292 3.314 15.151 4.097 37.983 11.208 66.867 41.056 76.948 78.704 2.251 5.013 4.68 10.051 6.521 15.22.824 2.238.824 5.016-1.439 6.466 11.028 50.526 13.718 103.17-27.942 141.068-.945 4.102-.315 8.454-.287 12.632-.349 9.515 7.791 42.125-1.664 46.343 2.763 42.243-7.597 99.723-17.638 140.476-.743 14.007 3.486 26.749 14.87 35.587 21.643 16.162 30.76 43.138 33.292 68.846.359 2.634.006 5.315-.587 7.903 4.691.873 9.083 1.44 13.637 3.158 25.117-4.807 23.325 49.093 25.248 65.086 1.504 23.644.565 51.986-21.187 67.468-7.314 5.2-20.223 10.194-27.349 2.319-2.016-2.409-3.115-5.228-2.322-8.308-10.216-14.943-7.804-34.041-8.568-51.044-2.675.093-5.591 1.284-8.225.629-2.029-.536-2.288-3.136-.571-4.171 2.478-1.403 5.846-.87 8.618-.963a112.72 112.72 0 0 0-.363-4.882c-2.631.642-6.401 2.185-7.184-1.487-.316-3.346 3.914-3.601 6.548-3.745a94.107 94.107 0 0 0-.625-3.772c-2.016.203-4.144 1.487-6.127.873-1.123-.443-1.513-1.578-.692-2.497 1.526-1.494 4.135-1.194 6.155-1.659-1.227-6.001-3.443-11.741-5.578-17.48-3.864 1.34-8.05 2.226-12.173 1.889-2.138-.449-4.473-.577-6.633-.287-2.403-.636-2.959-3.202-3.274-5.297a2.34 2.34 0 0 1 .147-.212c-5.553-32.298-25.473-60.2-47.809-84.24-6.152-6.877-12.185-14.029-16.365-22.197-8.49-17.072-10.013-36.28-16.508-54.016-5.472-16.105-12.785-31.55-19.955-47.016-2.874 20.37-8.243 40.407-8.858 61.064-.937 26.135 4.829 51.889 7.288 77.815 3.554 27.417 1.661 54.971 1.886 82.454h-.153c.059 6.628.239 13.542.652 20.149-.016 2.416-.328 4.692.015 7.109.191 1.337-.771 2.176-1.782 2.204-3.714 2.434-8.381 3.298-12.65 4.339-1.183.904-.672 3.13-.881 4.493-.458 7.654-1.064 13.429-.318 21.146 4.176 6.168 7.185 5.182 8.346 14.558.64 9.787 2.048 20.371-2.234 29.255 1.916.435 2.643 6.277 2.356 7.823-.487 4.36-4.335 5.739-8.056 7.244-27.189 10.175-84.962 26.927-112.9 15.407-2.001 1.131-4.233-1.086-4.879-2.871-.855-2.173-.068-4.278.091-6.436Z" clip-rule="evenodd"/>
  <path fill="#EDB98A" fill-rule="evenodd" d="M242.939 101.857c20.485-16.665 53.313-22.076 75.242-5.263 17.038 15.779 24.089 60.618 21.074 83.15-.839 14.452-11.869 30.832-28.062 26.261-2.749-.271-5.419-1.326-8.194-1.547-3.32-.382-6.664-.389-9.977.08-7.219 1.021-13.618 4.858-20.624 6.651-13 3.328-27.506 1.09-38.696-6.406-36.98-24.336-20.229-79.372 9.237-102.926Z" clip-rule="evenodd"/>
  <path fill="#000" fill-rule="evenodd" d="M245.667 211.59c-.381-.132-.76-.268-1.137-.409a1.14 1.14 0 0 1-.113.253 8.758 8.758 0 0 1-.164.386c.473.003.947-.081 1.414-.23Zm.759-161.498c.169-.377.362-.739.58-1.088a6.784 6.784 0 0 0-1.539.714c.324.11.642.234.959.374ZM327.343 99.4l.065-.01a5.26 5.26 0 0 0-1.319-1.945c-.098-.09-.205-.174-.307-.261.58.692 1.106 1.43 1.561 2.216Zm-148.057 77.425c.274-2.6.623-5.19 1.075-7.766.433-2.466.797-5.103 2.052-7.292 1.246-2.179 2.495-4.296 3.977-6.213a26.756 26.756 0 0 0-.734-2.641c-1.402-4.271-2.782-9.695.131-13.664.675-.92 1.501-1.624 2.445-2.26.401-.271 1.068-.518 1.376-.892.218-.265.143-.121.153-.252.053-.705-1.598-2.192-1.984-2.75-.723-1.032-1.262-2.195-1.673-3.383-1.626-4.701-.52-9.879.458-14.59.517-2.497 1.087-5.001 1.274-7.551.174-2.394-.153-4.732-.346-7.114-.187-2.351-.137-4.776.869-6.953a7.662 7.662 0 0 1 2.143-2.725c.884-.713 1.987-1.128 2.85-1.839.86-.708.614-1.664.389-2.643-.308-1.328-.697-2.647-.735-4.019-.068-2.391.907-4.72 2.43-6.528 1.57-1.868 3.812-3.13 6.236-3.414 1.108-.131 2.199.09 3.301.013 1.09-.075 1.327-.62 1.533-1.618.473-2.286.28-4.543 1.404-6.675.997-1.896 2.769-3.18 4.728-3.938 3.591-1.39 7.768-1.103 11.556-.284 2.236-6.584 9.216-10.902 16.084-10.955 1.072-1.82 2.888-3.18 4.959-3.978 3.426-1.325 7.055-.552 10.624-.552h.015c.359-.022.717-.03 1.075-.028.337-.019.673-.047 1.009-.084 4.062-.48 8.08-2.145 12.104-.514 1.794.726 3.221 1.845 4.124 3.273 1.361.371 2.704.795 4.021 1.288 5.709.15 11.366 3.214 14.253 8.18 4.064-.461 8.475.322 11.163 3.645.7.865 1.243 1.88 1.602 2.96 2.741.887 5.277 2.468 6.937 4.849 1.515 2.173 1.806 4.982.781 7.315 2.447 1.774 4.359 4.314 5.28 7.313.56 1.822.643 3.705.283 5.499 2.505.556 4.901 1.587 7.024 3.134 2.225 1.621 5.004 4.2 5.15 7.17a4.91 4.91 0 0 1-.015.653c4.898-.344 9.892.486 13.203 4.417 2.486 2.948 3.566 6.746 2.903 10.203 5.827 1.185 11.338 4.234 15.181 8.742 2.794 3.277 5.276 7.442 5.127 11.903a10.89 10.89 0 0 1-.907 3.947v.003c.234.44.474.929.705 1.45 3.61 2.528 6.232 6.491 7.708 10.858 1.193 3.539 1.944 8.134.67 11.735a8.52 8.52 0 0 1-.726 1.546c.24.256.467.512.688.77 2.433 2.846 4.897 6.432 4.729 10.35-.069 1.578-.654 3.165-1.611 4.468 3.364 3.414 6.074 7.723 5.806 12.533-.23 4.187-2.526 8.439-6.123 10.45.601 3.227-.203 6.631-2.713 9.15a9.763 9.763 0 0 1-4.292 2.532c-.349 3.8-3.719 6.858-7.298 7.737-.667.166-1.333.266-1.996.312-3.221 1.581-7.061 1.4-10.347-.05-.969 1.232-2.231 2.236-3.701 2.956a12.05 12.05 0 0 1-1.881.732c-4.641 1.375-9.4-.489-13.459-2.665-.13-.068-.37-.156-.582-.252-.561.626-1.582 1.247-2.115 1.552-1.807 1.038-4.015 1.521-6.09 1.384-2.432-.162-4.578-.966-6.565-2.11a7.35 7.35 0 0 1-.876.093c-1.868.1-3.534-.492-5.033-1.428a9.916 9.916 0 0 1-3.033-.062c-2.265.577-4.47-.34-6.242-1.796-.785-.645-1.449-1.403-2.159-2.126-.738-.752-1.299-.926-2.161-1.431-2.041-1.194-2.286-4.221-1.402-6.41a3.163 3.163 0 0 1-.265-1.284c.007-4.134 1.909-7.925 4.245-11.233 1.044-1.474 2.178-2.918 3.421-4.227.999-1.051 2.404-2.756 3.883-3.184.091-.065.184-.131.278-.193-.287-1.004-.455-2.026-.384-3.07a6.325 6.325 0 0 1 .975-2.956c-1.859-3.607-2.644-7.563-2.27-11.691-1.514-2.148-2.66-4.52-3.252-7.12-.364-1.609-.573-3.302-.545-4.951.013-.792.302-1.793.308-2.613-.043.259-.38-.707-.511-.948-1.5-2.79-3.429-4.966-3.75-8.255-.186-1.924.269-4.05 1.421-5.627-.738-2.912-.729-6.039.433-8.817.311-.742.669-1.468 1.08-2.157-.189-.58-.364-1.166-.588-1.693l-.262-.633a21.324 21.324 0 0 1-2.289-2.357c-1.464-1.767-2.582-3.794-2.722-6.129-.069-1.169.205-2.288.545-3.398.149-.502.24-1.06.417-1.549.1-.272.34-.549.424-.805l.047-.14a.95.95 0 0 1-.022-.262c-.003-1.12-.15-2.214-.156-3.292a9.016 9.016 0 0 1-3.66 2.26c-2.825.907-5.772.496-8.272-.904-2.692 1.846-5.716 3.516-8.887 4.187-1.884.399-3.772.234-5.662.48-1.878.246-3.694 1.066-5.463 1.705-3.938 1.425-7.865 2.887-11.814 4.275-3.19 1.119-6.641 2.007-9.98 1.378-.938 1.446-2.156 2.668-3.716 3.566a11.011 11.011 0 0 1-3.613 1.288c-1.121.19-2.436.115-3.345.885-.888.748-1.442 1.864-2.239 2.706a11.673 11.673 0 0 1-3.134 2.345c-.922.47-1.863.81-2.819 1.031.084 2.13.165 4.256.19 6.388.047 4.633.028 9.266.09 13.899.063 4.616.209 9.234.452 13.845.231 4.327.555 8.67 1.586 12.891 3.42 14.007 16.23 24.037 30.57 24.548 4.258.153 8.472-.446 12.543-1.699 4.217-1.3 7.983-3.975 12.307-4.798 1.13-.212 2.195.926 1.548 2.02-1.116 1.88-2.47 3.027-4.324 4.159-1.94 1.182-4.102 2.058-6.235 2.825a43.343 43.343 0 0 1-12.241 2.453 38.979 38.979 0 0 1-9.478-.642c-.218.67-.605 1.322-.897 1.942-.044.091-.19.028-.162-.065.047-.156.077-.293.09-.406-1.046 1.366-2.663 2.31-4.323 2.769a9.594 9.594 0 0 1-3.62.287 10.898 10.898 0 0 1-1.127-.19c-1.227 1.075-2.797 1.792-4.373 2.151.271 1.646-.542 3.441-2.426 3.909-.791.197-1.551.2-2.312.128a9.351 9.351 0 0 1-1.974.664c-.913.199-2.003-.056-2.691-.717-.377.265-.729.449-1.078.869-1.436 1.734-4.532.353-4.669-1.652-.454 0-.912.007-1.371.022l-.329.153c-2.003.932-4.078 1.746-6.292 1.013a5.706 5.706 0 0 1-1.121-.505c-1.561.14-3.099.144-4.682-.368a7.396 7.396 0 0 1-2.544-1.412c-2.442.717-5.019 1.041-7.448.152-1.819-.663-3.283-1.711-4.314-3.092-1.576.056-3.177-.324-4.619-1.075-2.467-1.279-4.195-3.708-5.401-6.142-2.654-5.372-4.223-11.142-4.84-17.094-.607-5.861.259-11.691.869-17.518Z" clip-rule="evenodd"/>
  <path fill="#000" fill-rule="evenodd" d="M254.517 189.215a12.704 12.704 0 0 0 5.34-4.103c.475-.633.599-1.302.499-1.914-.112-.687-.52-1.311-1.075-1.729-.558-.419-1.255-.626-1.929-.521-.585.092-1.168.412-1.63 1.076l-.096.133c-.814 1.1-1.874 2.002-3.082 2.584-1.165.56-2.467.822-3.815.669-2.567-.289-4.336-1.676-6.217-3.559a45.165 45.165 0 0 1-.7-.732 1.106 1.106 0 0 0-.582-.447 1.252 1.252 0 0 0-.802.012 1.27 1.27 0 0 0-.631.478 1.163 1.163 0 0 0-.199.773c.172 1.951 1.193 3.693 2.644 5.06 1.612 1.519 3.747 2.569 5.758 2.938 2.216.406 4.473.115 6.517-.718Zm-7.562-30.103c-2.357 1.431-5.948 4.768-3.412 8.315 2.984 3.128 7.281-.458 9.399-2.08 1.963-1.257 4.17 1.976 2.348 3.444-15.302 11.315-21.512-9.305-9.527-11.362 1.32-.226 1.81 1.24 1.192 1.683Zm27.421-13.163c-.26-3.229-5.183-3.962-5.673-.767-.439 2.862.078 5.491 1.368 8.068 1.233 2.462 4.333 1.313 4.567-.929.315-3.004-.1-4.364-.262-6.372Zm-37.475-1.429c-.687-.898-1.678-1.511-2.865-1.165-3.71 1.083-2.616 6.343-1.313 8.904.708 1.39 2.996 1.743 4.03.519 1.685-1.997 2.492-5.984.35-7.951a2.739 2.739 0 0 0-.202-.307Zm33.222-12.699-.585-.102c-1.813-.313-4.067-.614-5.35.842-.68.772-.914 2.206 0 2.945 1.608 1.3 3.386.796 5.313.906a21.15 21.15 0 0 1 4.645.791c3.356.958 6.09 2.707 8.956 4.627.377.252.76-.228.581-.58-1.655-3.237-4.861-5.896-8.073-7.517-1.714-.865-3.59-1.582-5.487-1.912Zm-29.841-1.45-.448.092c-4.881 1.019-11.222 3.055-13.534 7.843-.088.677.005.822.081.917l.025.032c.063.081.112.192.406.284.082-.019.164-.04.247-.061 1.06-.278 1.898-.66 2.71-1.056l.879-.433c1.021-.5 2.051-.982 3.142-1.337a37.014 37.014 0 0 1 7.158-1.579c.528-.062 1.035-.24 1.436-.544.38-.29.671-.69.803-1.222.172-.689.122-1.21-.248-1.831a2.321 2.321 0 0 0-1.133-.976 2.67 2.67 0 0 0-1.524-.129Z" clip-rule="evenodd"/>
</svg>
