<svg xmlns="http://www.w3.org/2000/svg" fill="none" viewBox="0 0 515 1026">
  <path fill="#FFDBB4" fill-rule="evenodd" d="M164.816 514.109c-.292 1.444-.733 3.008-1.192 4.409 2.286 2.192 5.522 5.129 7.843 7.252-2.296-14.131 4.691-27.172 8.968-40.538-1.613-2.061-7.231-4.17-7.05-6.454a800.468 800.468 0 0 1 1.996-28.505c3.122-33.088 6.229-67.594-1.141-100.783-.503-3.607-1.267-7.4-6.125-7.484-14.346 56.876-2.721 114.141-3.038 171.377l.418.372-.679.354Zm-54.599 459.559c-3.028-1.061-6.789-2.379-7.313-4.513-.863-5.843-.265-11.585.366-17.664 1-10.427.9-18.532 3.725-29.76 3.024-10.427 5.6-18.576 2.65-29.358-.237-3.21 2.283-6.475 3.948-9.477 2.357-4.382 3.553-8.943 5.425-13.437-3.678-.64-7.497-1.518-11.027-2.606l-.593 2.126c-.13.467-.489.704-1.066.704-.357 0-1.271-.171-1.404-.932.554-8.21 1.356-16.379 2.199-24.72 8.751-80.35 22.003-146.587 44.257-212.646 5.345-15.472 10.805-31.577 10.844-48.386-3.039-.65-6.423-1.022-9.52-.595-22.068-5.094-17.706-51.593-16.828-65.51-1.556-.465-3.298-1.124-4.589-2.007l-.523.255c-21.913-54.172-12.914-143.737-7.901-203.949 3.288-21.644-1.338-60.739 17.928-71.435 15.555-5.487 31.041-8.571 47.295-12.189 3.011-1.721 6.726-2.704 10.084-3.818l-1.735-2.429c-2.275-3.194-1.973-9.459 1.004-11.66 1.829.101 4.4 1.931 6.148 2.791 2.515-5.18 4.843-10.598 6.514-16.821l.6.214c1.758-17.604 24.673-20.676 37.594-14.794 14.104 7.713 6.758 25.159 13.171 37.754l2.324-3.086c3.589-.067 11.181 4.62 13.009 6.38 1.309.607.362 4.697.553 6.342 18.921 4.268 44.82 5.439 50.834 26.594 10.006 39.778 8.6 80.558 19.953 120.195 11.885 32.13 29.341 71.444 29.488 100.869.339 5.515 1.084 36.705-3.498 35.451l-3.025 3.006c4.121 6.551.849 16.356-.729 24.112-3.889 16.459-11.489 34.194-27.721 26.306-17.459 96.025-61.339 192.893-46.371 291.937.18.579-.184 1.214-.807.961l-.737-.339c-1.904.587-4.319.791-6.308 1.235 1.692 6.316 2.599 12.55 3.478 19.536 1.065.633.568 2.306.622 3.318 15.884-.758 24.793 15.809 36.184 24.921 7.522 6.684 16.087 13.048 25.461 18.916 7.747 4.384 14.283 9.404 13.106 17.685.111-.015 2.502-.383 2.619-.393 3.603 11.943-8.228 14.412-20.413 15.852-29.776 2.982-55.23-3.609-89.703-16.096-4.228.499-7.523-5.762-8.086-10.008-.557-2.845 1.026-5.738-.182-8.801-4.157-8.798-6.321-32.089-.46-42.538 2.057-2.368 4.696-4.554 4.354-8.642-.096-4.095-.483-8.186-.135-12.208-7.045-.679-14.018-2.191-20.164-4.643-1.087.417-2.323-.096-2.399-1.454-1.179-18.722-2.591-39.18-2.896-58.346-1.416-41.714 8.16-82.417 15.49-122.874.508-12.978 2.914-25.516 3.672-38.501.815-12.314.959-24.369 1.669-36.665l-4.23-.915c-35.115 90.176-62.613 180.425-81.86 268.734.435.371 1.673.788 1.62 1.541-.014.402-.005.428-.281.468-4.65.932-9.251 1.615-13.86 2.146 1.299 11.02-5.631 23.756.503 34.077 1.629 2.488 1.699 3.007.701 4.718 8.936 16.568 14.474 30.354 18.063 45.164l2.313-1.948c3.352 2.425 3.422 7.008 3.495 11.85-.238 2.821 1.144 5.777-.974 8.152-5.099 5.936-22.871 8.272-32.81 8.305-11.788.003-22.624-2.13-33.115-6.452Z" clip-rule="evenodd"/>
  <path fill="#fff" fill-rule="evenodd" d="M152.204 901.599c.185.756-.186 4.538 0 5.218 1.95 6.506 7.467 9.202 9.962 15.468l1.169 2.937c3.151 7.937 6.204 15.907 8.092 24.325l.315 1.404s6.092 5.819 6.261 9.844c0 0 .648 10.244-1.315 11.722-14.317 9.72-33.675 9.44-50.223 6.888a83.24 83.24 0 0 1-19.151-5.94c-2.312-.781-4.041-1.607-5.098-2.963-.898-1.152-1.269-2.683-1.124-4.809-.38-3.606-.101-7.051.217-10.489l.15-1.608c.266-2.903.497-5.81.353-8.734.445-11.343 4.054-22.605 6.608-33.676l2.743-4.369s16.341-12.293 22.005-12.275l.548-.001c5.548-.033 18.488 7.058 18.488 7.058Zm103.969-23.137c3.2 10.72 7.964 16.08 14.292 16.08 9.492 0 10.75-12.478 18.191-12.478 0 0 6.031-.305 12.498-.808 6.418 2.286 11.709 7.484 16.786 12.803l2.732 2.875c2.833 2.977 5.648 5.862 8.586 8.213 7.867 6.993 16.383 13.215 25.305 18.801l.704.414c3.466 2.051 7.259 4.467 9.874 7.606 1.902 2.283 3.171 4.957 3.138 8.169l-.011 1.102s3.014 2.864 3.043 4.077l.009.409c.009.327-1.613 7.272-4.236 9.005-3.687 2.435-17.254 4.58-17.725 4.655-30.067 3.211-60.505-4.784-88.377-15.708l-1.081-.425a8.628 8.628 0 0 1-.232.036c-2.239.294-4.165-.895-5.688-2.615-2.106-2.377-3.476-5.812-3.804-8.478-.249-1.122.41-6.932-.051-8.359-3.876-8.78-4.385-18.328-3.831-27.683-.144-11.001 2.258-14.5 4.362-17.043l.542-.648h4.974Z" clip-rule="evenodd"/>
  <path fill="#FFCF77" fill-rule="evenodd" d="m180.591 486.753 2.124 1.493a1089.01 1089.01 0 0 1 6.23 4.419l2.329 1.666 12.885 9.263c19.798 14.208 30.503 21.491 43.061 28.961l1.042.617.135.009c2.181.119 4.089-.799 7.135-3.076l.313-.236 1.209-.919.288-.215 1.094-.809 9.346-6.876c4.982-3.668 8.401-6.208 11.575-8.613l1.852-1.41 2.372-1.821.488.179c.635.234 1.342.181 1.853-.125l.069-.043.664-.443.847.903.535.568a262.517 262.517 0 0 0 3.898 4.009l.37.373 4.544 4.561 1.358 1.369a230.85 230.85 0 0 1 4.307 4.454l.346.37.69.743.129.12.162.155c.564.543 1.1 1.127 1.851 2l.22.257.737.869.38.444c2.359 2.732 3.772 3.911 5.735 4.483l.104.03.175.047.069.012c1.406.229 2.387-.197 3.621-1.474l.089-.093.088-.093.803-.844c3.236-3.386 6.243-6.372 11.205-11.154l1.705-1.64 6.895-6.608 1.399-1.349c.499-.482.967-.936 1.423-1.38l.66-.643 1.911-1.874.652.807c.4.497 1.232.68 1.787.372l.056-.034 1.47-.94-.024 1.74a95.87 95.87 0 0 1-.07 2.581l-.041.936c-.17 3.584-.476 6.846-1.122 12.324l-.068.575-.832 6.883-.151 1.348c-2.086 18.44-5.495 37.605-10.33 59.076l-.292 1.293c-3.195 14.096-6.171 25.974-11.815 47.373l-1.321 4.999-4.418 16.655c-5.009 18.923-7.993 30.593-10.945 43.068l-.18.764-.381 1.622-.382 1.639c-3.601 15.513-6.44 29.601-8.623 43.146l-.114.712-.222 1.398c-5.524 35.221-6.534 66.879-2.349 97.631l.128.931.126.898-.898.153c-17.919 3.047-34.949 4.177-51.304 3.198l-.724-.045-.648-.191a62.923 62.923 0 0 1-3.204-1.052l-.519-.189-.653-.24.063-1.051.038-.67c.594-10.578.419-19.725-.508-38.31l-.09-1.79-.43-8.344a892.348 892.348 0 0 1-.457-9.859l-.074-1.931-.075-2.137-.033-1.033c-.481-15.594-.089-27.95 1.536-39.653l.109-.77.108-.741.155-1.496c1.198-11.386 2.732-21.156 6.059-39.612l.558-3.087 1.447-7.951c3.758-20.758 5.455-31.572 6.647-43.91l.076-.799.117-1.257.447-6.097c.745-10.316 1.052-16.779 1.004-23.517l-.007-.723c-.096-8.526-.852-16.091-2.435-23.153l-.122-.535v-.008l-.199-.831-.007-.018-.32-.774.478-.442c3.05-2.818 5.798-5.788 8.162-8.854 1.36-1.789-1.791-4.425-3.372-2.934l-.047.047-3.136 3.19 1.587-4.176c.871-2.293 1.74-4.606 2.608-6.942l.52-1.404.176-.479-.61 1.304c-18.041 38.624-34.283 81.307-49.492 129.016l-.46 1.447-.535 1.687c-14.456 45.69-27.388 93.691-42.338 155.177l-.59 2.431-.568.129-.814.181c-13.162 2.896-26.522 3.65-46.078 3.247l-.703-.015-.634-.146a89.74 89.74 0 0 1-2.552-.636l-.626-.168-1.334-.371.131-2.118c4.53-71.481 18.329-145.303 40.914-225.5l.687-2.432.394-1.432 2.234-7.965.436-1.564c3.367-12.139 4.881-18.737 5.864-26.465l.031-.244.01-.062c.99-5.105 1.579-9.974 1.745-14.724l.016-.491.027-.962.965.056c5.179.296 11.48-2.589 14.06-6.526l.077-.12.552-.873.818.633c1.787 1.384 4.492.032 6.061-2.576l.045-.077.077-.152c1.323-2.662 1.809-5.726 1.59-9.26l-.015-.236-.018-.237c-.234-2.968-.887-5.968-2.071-10.069l-.491-1.688 1.459.229c3.037.475 6.571-.678 8.793-2.823 2.244-2.166 2.75-4.871 1.109-7.604l-.067-.111-.072-.113-.485-.421-.493-.422c-1.767-1.507-3.6-2.974-6.351-5.105l-.792-.613-3.357-2.584c-4.786-3.696-7.524-5.932-10.311-8.514l-.133-.123-.646-.606-.018-.376c-.258-5.305.433-10.69 1.99-16.628l.137-.516.179-.657c1.032-3.747 2.167-7.042 4.418-13.03l2.343-6.198Z" clip-rule="evenodd"/>
  <path fill="#000" fill-rule="evenodd" d="M370.869 522.338c-3.505 11.739-6.721 29.121-15.646 37.764-2.88 2.283-6.391 1.284-9.69.717 2.263-13.656 3.922-27.431 5.365-41.2a72.244 72.244 0 0 0 20.09-7.351c1.702 2.843.638 7.167-.119 10.07Zm-27.038 10.219c-11.862 107.98-66.801 211.49-51.391 321.886-18.479 3.143-37.277 4.451-55.982 2.828 2.252-34.101-5.027-71.434.207-106.597 3.345-32.966 12.061-65.158 15.063-98.161 1.335-18.241 2.998-37.29-1.349-55.209-.034-.091-.072-.181-.11-.271 2.978-2.751 5.791-5.758 8.272-8.976 2.116-2.784-2.491-6.494-4.838-4.106 3.238-8.52 6.35-17.081 9.367-25.679-46.673 93.822-76.57 203.099-101.742 306.802-16.931 3.84-34.358 3.747-51.61 3.286 4.725-78.049 20.422-154.948 41.714-230.085 4.764-17.373 10.642-35.042 9.592-53.289 5.558.863 13.161-2.223 16.156-6.958 2.726 2.11 6.069-.48 7.505-2.94 3.318-6.451 1.485-14.33-.438-20.941 6.777 1.061 15.262-5.199 10.625-12.193-7.164-6.261-15.341-11.594-22.365-18.191-.601-12.371 4.212-23.916 8.582-35.522 22.083 15.503 43.734 32.185 66.923 45.87 3.988.404 7.208-2.601 10.201-4.796 8.541-6.313 17.16-12.542 25.576-19.026.924.339 1.985.255 2.77-.269 5.375 5.734 11.055 11.029 16.372 16.792 3.194 2.94 5.501 7.53 9.959 8.658 2.084.38 3.411-.481 4.748-1.921 8.11-8.548 16.835-16.486 25.238-24.741.664.823 2.06 1.194 3.083.539-.106 7.75-1.217 15.507-2.128 23.21Zm-55.989 348.211c-7.753 2.229-8.981 14.292-18.111 13.116-5.912-1.241-10.68-6.344-12.194-12.078.454-.287.76-.789.713-1.512l-1.167-17.649c10.272.565 20.587-.24 30.791-1.643-.37 2.794-.517 5.612-.598 8.458.146 3.618-.918 7.985.566 11.308Zm-34.249-2.647c.254-.365.485-.742.683-1.147.031.467.062.935.09 1.4a1.805 1.805 0 0 0-.773-.253Zm51.836 9.521c5.27 3.576 9.376 8.67 13.864 13.119 9.546 9.465 20.131 17.893 31.464 25.14 5.901 3.654 18.372 9.18 13.433 17.758-3.682 5.403-13.336 2.883-14.857 5.914-21.002.861-41.546-4.86-61.509-10.718-10.135-3.299-20.738-5.223-30.563-9.415-9.416-8.218-9.446-26.288-8.15-37.875.514-2.741 1.278-13.965 5.299-12.553.007 1.122.122 2.633 1.34 2.95.018.087.034.178.056.265-.232-.075-.538.093-.426.371 3.03 8.985 13.017 19.1 22.767 12.804 4.331-3.037 6.228-8.913 11.392-10.818 5.411-1.999 11.336-.031 15.89 3.058Zm63.618 55.444c.135.065.276.096.42.099.413 1.054.209 5.347.131 6.086-1.273 6.459-11.484 7.532-16.897 8.508-19.021 2.986-38.366.899-56.922-3.863-9.057-2.236-18.065-4.82-26.856-7.934-7.811-2.368-17.474-6.303-16.503-16.171 4.35 5.852 18.276 7.586 25.263 10.005 21.956 6.643 44.232 13.79 67.403 14.019 3.51-.151 8.361.826 10.995-1.808 5.583-.795 11.376-3.875 12.966-8.941Zm-219.359-63.649c-1.797 5.658-3.865 11.468-3.922 17.455-10.469-6.199-23.602-.181-32.28 6.606.606-4.237-2.016-8.228-1.303-12.392 2.651-6.282 6.204-12.653 4.943-19.753 11.618 1.976 23.421 1.855 35.078.642-.914 2.45-1.702 4.945-2.516 7.442Zm4.006 34.427c2.064 4.034 3.511 9.382 7.468 11.928 2.208 8.132 4.691 16.191 6.61 24.398.763 3.905 1.916 7.949 1.346 11.972-.907.248-1.542.443-2.044 1.094-19.194 4.074-40.293 4.715-58.035-4.748-5.952-13.257-1.281-28.779.747-42.508.122-4.496 3.137-6.072 3.496-10.357 9.516-5.457 24.337-12.61 33.361-2.825 1.253 2.777 2.096 6.609 5.317 7.661a117.465 117.465 0 0 1 1.734 3.385Zm15.727 48.31a.061.061 0 0 1-.015.022c-.029-.003-.029-.012.015-.022Zm5.969 2.469c-.047-.832-.464-1.661-1.146-2.154.323-3.064-.288-6.235-.939-9.228 3.224 3.496 1.848 9.033 2.379 13.39-.042 1.737.803 3.949-1.224 4.845-6.328 4.358-13.999 6.391-21.561 7.267-16.497 1.882-33.647-1.14-48.386-8.779-2.001-2.708-1.309-9.654-1.54-13.15 1.36 11.228 28.847 14.333 38.196 14.429 5.2.033 34.166-1.039 34.221-6.62Zm-17.43-386.675c-2.194-.218-4.375-.065-6.548.247-12.855-8.703-14.882-44.395-16.9-59.462 9.199 2.342 18.943 1.711 27.873-1.372.169 1.643 2.051 2.489 3.196 1.381 6.056 10.738 15.117 19.337 24.465 27.024-.109-.359-.187.299-.05.049-1.19 2.719-5.562 1.309-7.63 3.203-1.327.984-1.606 2.708-.761 3.859-2.236 6.157 1.32 13.675-2.028 19.516-.752.87-1.731 1.496-2.378 2.472-4.456-3.041-8.515 3.391-13.026 3.673.031 0 .062 0 .097-.004-.695.077-1.809.039-2.42-.046-1.294-.2-2.585-.41-3.89-.54Zm8.288-215.148c.945-6.138 2.046-12.24 3.477-18.282 1.724.3 2.109 4.234 2.328 5.394 7.383 33.276 4.186 67.522 1.023 101.11a901.852 901.852 0 0 0-1.893 27.058c-.638 4.152 4.155 5.56 6.714 7.834-3.559 11.414-9.7 22.456-8.973 34.612-.955-.874-1.9-1.756-2.839-2.644a28.88 28.88 0 0 0 .613-2.298c1.169-.606 1.54-2.279.539-3.161.384-49.772-8.992-99.969-.989-149.623Zm91.87-93.998c1.774-3.146 6.471.942 3.52 3.223-2.054 1.658-4.901-1.064-3.52-3.223Zm8.685 36.595c1.895-2.455 5.697.388 4.041 2.926-1.936 4.003-5.81.049-4.041-2.926Zm6.084 32.073c3.796.01 2.926 6.419-.658 5.54-3.051-.719-2.548-5.599.658-5.54Zm3.111 38.642c.879-2.966 5.374-2.182 5.343.867-.114 4.118-6.233 2.875-5.343-.867Zm7.367 37.262c1.25-3.727 6.052-1.798 5.649 1.811.524 2.085-3.532 6.292-4.353 2.884-1.095-1.315-1.612-3.005-1.296-4.695Zm7.543 42.976.028-.037c2.671 1.252.36 6.954-2.215 4.86-2.499-1.519-.77-6.337 2.187-4.823Zm3.515 34.889c3.116 3.052-1.703 7.882-4.776 4.757-3.12-3.045 1.696-7.876 4.776-4.757Zm77.169 20.682c.041.09.084.181.134.265l-.244-.206c.035-.019.072-.037.11-.059Zm2.507-70.928c-5.086-19.964-13.269-38.965-21.236-57.907-8.609-25.15-11.133-51.788-14.209-78.033-1.692-14.807-3.521-29.595-6.945-44.123-2.91-27.084-30.522-30.036-52.176-34.234.03-2.313.744-4.944-1.584-6.423-2.138-2.162-13.548-8.884-15.802-6.038-.885-2.145-1.318-4.524-1.737-6.813-.282-.903-.398-4.018-1.383-3.993-.211 6.097-2.808 15.024 2.403 19.603-3.128 4.749-5.736 10.504-9.859 14.285l.01-.009a8.54 8.54 0 0 1-.632.37c.05-.04-.248.069-.492.147-.56.107-1.487-.098-2.059-.355h.006c-14.196-8.038-28.087-16.645-41.829-25.462 1.964-2.894 4.506-17.082 2.069-19.048-1.705 5.597-3.479 11.212-6.066 16.479-2.241-1.218-5.867-3.409-7.756-.545-2.381 3.979-3.061 9.748-.203 13.705-12.285 4.822-25.534 6.51-38.218 10.279-5.527 1.412-11.38 2.462-16.566 4.91-15.453 8.541-15.466 29.584-17.161 45.083-4.349 75.442-18.144 153.431 3.459 227.438.83 2.273 2.057 4.455 3.011 6.69.379.886 1.362.858 2.009.378.733.433 1.537.779 2.379 1.06-1.415 19.239-3.331 54.393 15.313 65.866 1.453.682 2.755.445 4.11.277 2.177-.283 4.754-.187 7.005.233-2.719 35.692-20.761 68.303-27.746 103.277-14.975 59.137-24.648 119.583-29.516 180.368-.175 3.77 5.751 4.814 6.776 1.116a71.632 71.632 0 0 0 6.513 1.55c-1.149 2.98-2.099 5.992-3.424 8.897-1.446 3.283-4.078 6.307-4.905 9.821-.989 5.63 2.691 10.898.651 16.532-.387 6.297-3.261 12.224-4.259 18.463-1.559 7.728-2.742 15.734-2.335 23.634-1.613 5.781-1.537 11.772-1.312 17.627.119 1.924.019 4.358 1.484 5.839 3.232 2.575 7.553 3.671 11.323 5.282 20.328 6.633 45.646 8.49 64.296-3.488 3.55-2.805 1.331-9.722 1.606-13.825.126-3.13-2.312-11.794-6.589-10.044-3.745-14.461-9.831-28.16-16.851-41.29 1.122-1.973-.106-3.91-1.195-5.574-5.402-8.28.429-21.492-.216-31.26 4.031-.49 8.046-1.138 12.034-1.93 2.726-.542 2.525-3.919.694-5.156 19.907-90.964 47.644-180.162 81.44-266.938-.476 9.449-.87 18.89-1.186 28.355-.422 15.709-3.424 31.183-4.157 46.854-7.452 40.649-16.916 81.376-15.491 122.992.322 19.488 1.671 38.954 2.897 58.399.104 2.236 2.111 4.127 4.417 3.638 5.771 2.214 11.871 3.604 18.04 4.306-.627 7.107 2.607 12.221-3.641 17.557-5.465 8.503-4.173 25.895-2.726 35.765.645 3.146 1.756 6.027 2.899 9.011.863 2.707-.618 5.408.013 8.186.619 5.034 4.757 12.67 10.547 11.906 33.036 12.461 71.31 23.761 106.058 12.158 2.416-1.199 4.936-2.749 5.803-5.439.74-2.401 1.739-11.491-2.435-10.787-.461-12.315-14.807-16.198-22.985-22.821-11.424-7.814-21.504-17.305-31.05-27.26-5.506-5.648-12.419-10.964-20.682-10.993.024-.866-.244-1.633-.792-2.238l-.003-.003c-.723-5.592-1.503-11.324-2.87-16.804 1.145-.217 2.326-.311 3.443-.63 2.223.995 4.398-1.009 3.89-3.277-3.767-23.868-3.814-48.173-1.596-72.191 6.83-73.892 33.843-143.865 47.481-216.494 18.087 6.434 24.809-15.387 28.177-28.739 1.625-8.135 5.129-18.147.448-25.757 13.688 5.435 4.588-65.032 1.171-72.415Z" clip-rule="evenodd"/>
  <path fill="#FFDBB4" fill-rule="evenodd" d="M291.096 150.892c-.672-5.897.198-18.222.257-18.971.368-4.734-1.854-23.428-6.055-21.706-7.046-5.568-16.432-6.798-25.208-7.385-18.229-1.22-37.621 1.581-51.698 13.827-6.961 6.359-13.738 15.609-13.193 25.24-6.325 9.129-15.241 21.651-7.361 32.324 2.679 3.409 6.936 4.679 10.301 7.262 6.769 5.449 11.015 13.27 17.848 18.687 18.102 16.237 48.839 19.629 66.624 1.161 13.753-13.376 11.529-33.387 9.11-50.439-1.626-11.464.687 11.505-.625 0Z" clip-rule="evenodd"/>
  <path fill="#000" fill-rule="evenodd" d="M235.739 77.823c4.875-.982 9.881-1.593 14.86-1.41l.383.016c3.746.15 8.49.48 11.758 2.654.188-.188.491-.285.765-.154 3.883 1.85 8.154 3.188 12.243 4.517a55.457 55.457 0 0 0 12.559 2.548c1.605.133 2.978 1.863 1.962 3.414-.242.37-.477.743-.712 1.118.393-.04.785-.083 1.177-.123 1.291-.13 2.58 1.246 2.504 2.5-.048.79-.133 1.57-.259 2.34.491-.01.98.063 1.452.262 2.391 1.008 2.225 3.85 2.046 6.014-.248 3.001-1.373 6.181-3.461 8.427 1.559 1.617 2.663 3.547 3.321 5.84.478 1.674.744 3.457.613 5.2l-.042.522c-.163 1.891-.485 3.985-1.848 5.345-.7.702-1.562.957-2.383.876.497 4.359.815 8.742 1.115 13.11l.141 2.087c.668 10.095 1.171 20.256 1.04 30.367-.123 9.449-1.993 18.621-7.799 26.294-5.288 6.986-12.88 12.137-21.469 14.094-4.628 1.057-9.354 1.132-14.038.459-2.271-.328-4.557-.83-6.712-1.621-2.386-.88-4.101-2.173-5.706-4.112-.759-.92-.394-2.878 1.118-2.694 2.287.277 4.374.61 6.566 1.285l.314.099c2.184.698 4.445 1.219 6.727 1.44 4.676.453 9.423-.003 13.902-1.418 7.293-2.307 13.573-7.448 17.599-13.908 4.778-7.656 5.319-16.348 5.25-25.152a636.757 636.757 0 0 0-.903-28.979l-.087-1.608c-.272-4.966-.534-9.936-.765-14.905a59.038 59.038 0 0 0-.378-4.686c-1.802-1.054-3.417-2.507-4.469-4.299-2.115.873-4.338 1.502-6.384 2.004-4.74 1.164-9.66 1.446-14.483.718a43.177 43.177 0 0 1-3.976 1.414c-.364.161-.728.319-1.092.475-3.249 1.387-6.543 2.562-9.972 3.423l-.843.21c-1.804.444-3.764.881-5.685 1.018a8.148 8.148 0 0 1-1.028.315 16.812 16.812 0 0 1-5.356.408c-1.746-.146-3.008-1.908-2.046-3.557a424.582 424.582 0 0 1 2.128-3.601c-2.49 1.035-5.06 1.896-7.652 2.625-2.617.736-5.272 1.357-7.93 1.927-1.421.303-2.848.571-4.266.873-1.015.215-2.574.327-3.402.995-.914.732-1.174 2.441-1.521 3.494a91.338 91.338 0 0 0-1.274 4.134 85.677 85.677 0 0 0-1.908 8.433 80.46 80.46 0 0 0-1.009 8.605c-.184 2.881-.103 5.78-.399 8.648-.16 1.522-1.796 2.304-3.005 1.241a72.274 72.274 0 0 1-.426-.378l-.211-.193c-1.034-.935-2.037-1.926-2.864-3.042-.15-.206-.293-.421-.428-.639a.104.104 0 0 1-.062-.022l-.23-.173c-2.525-1.876-6.745-4.323-9.208-1.205-.785.993-1.187 2.258-1.521 3.478l-.585 2.184c-.378 1.425-.734 2.859-.943 4.317-.472 3.267-.234 7.033 2.018 9.652.899 1.048 2.139 1.796 3.523 1.992.771.106 1.533-.025 2.299-.121.777-.097 1.526.059 2.304-.016 1.237-.121 1.778 1.356 1.315 2.285a5.65 5.65 0 0 1-.877 1.294c.268.231.524.48.771.742.731.234 1.386.736 1.877 1.4.397.536.603 1.119.637 1.733.044.153.081.309.116.468l.67 1.086c.147.238.294.473.441.704 1.706 2.681 3.599 4.95 5.95 7.089 2.265 2.058 4.722 3.9 6.849 6.107l.251.262c1.983 2.086 4.073 4.611 3.297 7.645-.2.779-1.29 1.34-2.002.813-2.289-1.696-3.442-4.383-5.384-6.441-1.999-2.12-4.213-4.025-6.218-6.138a24.24 24.24 0 0 1-4.519-6.744c-.45.496-1.106.848-2.015.986-1.561.233-3.017-.68-3.698-2.03-.437.193-.884.368-1.334.505-2.367.723-3.856-1.905-2.963-3.847.477-1.041 1.074-1.945 1.814-2.706-2.314-.318-4.669-1.512-6.19-3.002-3.816-3.745-4.341-9.372-3.482-14.376a37.769 37.769 0 0 1 2.264-7.828c.178-.433.369-.87.578-1.3a.401.401 0 0 1-.309-.15c-.691-.941-1.531-1.711-2.043-2.765-.472-.966-.996-1.945-1.368-2.952-.765-2.061-1.14-4.387-1.389-6.566-.516-4.461-.316-8.894.368-13.328 1.165-7.55 3.978-14.776 8.123-21.117a3.596 3.596 0 0 1-.644-.43l-.099-.087-.162-.146c-1.183-1.068-1.081-3.071 0-4.153l.341-.341a8.997 8.997 0 0 1 1.818-1.43 2.995 2.995 0 0 1-.238-2.33c.887-3.03 5.254-2.923 8.021-1.602a49.963 49.963 0 0 1 10.136-7.012c8.764-4.565 18.674-7.748 28.35-9.693Zm-45.302 79.779c1.637-.533 3.81.586 5.281 1.26 1.865.854 3.451 2.117 4.988 3.451.765.667.902 1.758.712 2.69-.019.094-.037.191-.06.287-.203.995-1.314 1.777-2.298 1.749-2.058-.056-3.039-1.83-4.204-3.333a2.13 2.13 0 0 1-.522.636l-.143.113c-.484.367-1.017.661-1.655.633a3.084 3.084 0 0 1-1.287-.347c-1-.526-1.44-1.817-1.168-2.868a2.67 2.67 0 0 1 1.062-1.537l-.189-.128c-.404-.281-.772-.576-1.058-1.012l-.065-.104h.025a1.01 1.01 0 0 1 .581-1.49Z" clip-rule="evenodd"/>
  <path fill="#000" fill-rule="evenodd" d="M268.526 204.534s-13.893 2.034-20.112-.84c-6.2-2.866-12.231-5.638-17.855-9.433-5.762-3.888-10.65-8.505-14.14-14.415-3.246-5.499-5.944-11.334-8.66-17.124-.159-.338-1.718-3.702-2.269-4.83-.848-1.749-3.327-1.2-3.327 1.515s-.122 23.276 4.641 31.364c4.297 7.305 11.58 12.41 18.816 16.865 8.006 4.926 18.641 10.251 28.193 11.658 8.645 1.272 18.51-2.301 24.769-8.19 6.545-6.159 8.398-14.527 11.775-22.54.754-1.791-1.92-2.871-2.705-1.11-1.477 3.317-19.126 17.08-19.126 17.08Z" clip-rule="evenodd"/>
  <path fill="#fff" fill-rule="evenodd" d="M250.81 176.216h27.491l1.645 4.526s-20.515 4.742-27.718 1.689l-1.418-6.215Z" clip-rule="evenodd"/>
  <path fill="#000" fill-rule="evenodd" d="M271.089 167.427c2.543-3.548-1.058-6.884-3.422-8.315-.619-.443-.128-1.909 1.196-1.683 12.017 2.057 5.79 22.677-9.553 11.361-1.827-1.467.385-4.701 2.354-3.443l.314.24c2.212 1.704 6.259 4.821 9.111 1.84Zm-24.188-35.708-.587.102c-1.902.33-3.783 1.047-5.502 1.912-3.22 1.621-6.435 4.28-8.094 7.517-.18.352.205.832.582.58 2.874-1.92 5.616-3.669 8.981-4.627 1.534-.437 3.064-.7 4.657-.791.493-.028.977-.016 1.451-.004 1.381.034 2.676.066 3.876-.902.917-.739.682-2.174 0-2.946-1.286-1.455-3.546-1.154-5.364-.841Zm31.35-1.256-.45-.092a2.675 2.675 0 0 0-1.528.129 2.326 2.326 0 0 0-1.136.975c-.371.622-.421 1.143-.249 1.832.133.532.424.932.806 1.222.401.304.911.482 1.439.544 2.44.285 4.842.82 7.177 1.578 1.095.356 2.127.838 3.151 1.338l.882.433c.814.396 1.655.778 2.717 1.056.083.021.166.042.248.061.259-.081.329-.177.385-.254a.232.232 0 0 1 .022-.03l.025-.032c.076-.095.169-.24.081-.917-2.318-4.788-8.676-6.824-13.57-7.843Zm-25.461 23.554c-.951.553-1.967.285-2.777-.357-.501-.397-.881-.905-1.262-1.414-.447-.596-.895-1.195-1.54-1.618-1.012-.663-2.367-.698-3.53-.506-1.746.288-3.254 1.108-4.766 1.931-.856.466-1.713.933-2.617 1.305-.35.144-.555-.304-.437-.567 1.513-3.387 4.672-6.408 8.429-7.013 3.93-.633 8.181 1.945 9.553 5.661.346.937-.229 2.098-1.053 2.578Zm37.333-3.948c.081.03.163-.061.139-.138-.994-3.22-4.736-4.575-7.877-4.306-1.943.166-3.73.874-5.203 2.166-1.405 1.233-2.5 3.567-1.228 5.272 1.308 1.754 3.993 1.187 4.146-1.118.099-1.495 2.681-2.417 3.989-2.647 2.032-.357 4.133.069 6.034.771Zm-36.377 30.878c.92.363 8.701.72 13.295.511 3.133-.141 11.26-2.032 11.26-2.844 0-.812-.346-1.545-.644-1.514-1.209.13-10.838.236-17.618.31-2.996.033-5.435.06-6.346.08-.448.009-.917 0-1.393-.013-.329 1.016.526 3.107 1.446 3.47Zm15.576-5.907c3.617-.031 8.01-.069 11.14.115 1.117.065 1.668 1.655 1.746 2.41.742 7.011-4.879 12.604-11.085 14.771-5.759 2.011-13.365 2.391-18.501-1.366-2.231-1.63-3.921-3.89-5.023-6.406a17.685 17.685 0 0 1-1.271-4.221c-.022-.138-.048-.282-.074-.431-.185-1.048-.41-2.318-.051-3.276.521-1.379 1.898-1.394 3.163-1.408l.311-.005 1.528-.032c1.343-.029 2.686-.058 4.028-.073 2.886-.033 5.773-.042 8.659-.05l3.008-.01c.746-.003 1.562-.01 2.422-.018Z" clip-rule="evenodd"/>
</svg>
